G04 EAGLE Gerber X2 export*
%TF.Part,Single*%
%TF.FileFunction,Other,Bottom Soldermask*%
%TF.FilePolarity,Positive*%
%TF.GenerationSoftware,Autodesk,EAGLE,8.7.0*%
%TF.CreationDate,2018-03-10T10:37:46Z*%
G75*
%MOMM*%
%FSLAX34Y34*%
%LPD*%
%AMOC8*
5,1,8,0,0,1.08239X$1,22.5*%
G01*
%ADD10C,3.303200*%
%ADD11C,3.303250*%
%ADD12C,60.203225*%
%ADD13C,3.303225*%
%ADD14R,1.303200X1.203200*%
%ADD15C,0.360959*%
%ADD16R,1.203200X1.303200*%
%ADD17R,1.003200X1.003200*%
%ADD18R,1.003200X1.003200*%


D10*
X35000Y561723D03*
D11*
X1088446Y561723D03*
D12*
X561723Y561723D03*
D13*
X561723Y1088446D03*
X561723Y35000D03*
D14*
G36*
X820727Y856522D02*
X830709Y848146D01*
X822975Y838930D01*
X812993Y847306D01*
X820727Y856522D01*
G37*
G36*
X807705Y867450D02*
X817687Y859074D01*
X809953Y849858D01*
X799971Y858234D01*
X807705Y867450D01*
G37*
D15*
X566061Y990881D02*
X557639Y990881D01*
X566061Y990881D02*
X566061Y982459D01*
X557639Y982459D01*
X557639Y990881D01*
X557639Y986068D02*
X566061Y986068D01*
X566061Y989677D02*
X557639Y989677D01*
X557639Y973341D02*
X566061Y973341D01*
X566061Y964919D01*
X557639Y964919D01*
X557639Y973341D01*
X557639Y968528D02*
X566061Y968528D01*
X566061Y972137D02*
X557639Y972137D01*
D14*
G36*
X774158Y853237D02*
X782534Y863219D01*
X791750Y855485D01*
X783374Y845503D01*
X774158Y853237D01*
G37*
G36*
X763230Y840215D02*
X771606Y850197D01*
X780822Y842463D01*
X772446Y832481D01*
X763230Y840215D01*
G37*
D16*
X541530Y986650D03*
X541530Y969650D03*
D17*
G36*
X788715Y840787D02*
X795163Y848471D01*
X802847Y842023D01*
X796399Y834339D01*
X788715Y840787D01*
G37*
G36*
X779073Y829297D02*
X785521Y836981D01*
X793205Y830533D01*
X786757Y822849D01*
X779073Y829297D01*
G37*
G36*
X834089Y797159D02*
X841773Y803607D01*
X848221Y795923D01*
X840537Y789475D01*
X834089Y797159D01*
G37*
G36*
X822599Y787517D02*
X830283Y793965D01*
X836731Y786281D01*
X829047Y779833D01*
X822599Y787517D01*
G37*
D15*
X640641Y983352D02*
X632348Y984815D01*
X640641Y983352D02*
X639178Y975059D01*
X630885Y976522D01*
X632348Y984815D01*
X631264Y978668D02*
X639815Y978668D01*
X640451Y982277D02*
X631900Y982277D01*
X629302Y967541D02*
X637595Y966078D01*
X636132Y957785D01*
X627839Y959248D01*
X629302Y967541D01*
X628218Y961394D02*
X636769Y961394D01*
X637405Y965003D02*
X628854Y965003D01*
D14*
G36*
X820363Y812844D02*
X830345Y821220D01*
X838079Y812004D01*
X828097Y803628D01*
X820363Y812844D01*
G37*
G36*
X807341Y801916D02*
X817323Y810292D01*
X825057Y801076D01*
X815075Y792700D01*
X807341Y801916D01*
G37*
G36*
X870754Y802697D02*
X879130Y792715D01*
X869914Y784981D01*
X861538Y794963D01*
X870754Y802697D01*
G37*
G36*
X859826Y815719D02*
X868202Y805737D01*
X858986Y798003D01*
X850610Y807985D01*
X859826Y815719D01*
G37*
G36*
X609760Y976939D02*
X612023Y989772D01*
X623872Y987683D01*
X621609Y974850D01*
X609760Y976939D01*
G37*
G36*
X606808Y960197D02*
X609071Y973030D01*
X620920Y970941D01*
X618657Y958108D01*
X606808Y960197D01*
G37*
D17*
G36*
X870864Y746505D02*
X879550Y751521D01*
X884566Y742835D01*
X875880Y737819D01*
X870864Y746505D01*
G37*
G36*
X857874Y739005D02*
X866560Y744021D01*
X871576Y735335D01*
X862890Y730319D01*
X857874Y739005D01*
G37*
D15*
X712487Y963007D02*
X704574Y965888D01*
X712487Y963007D02*
X709606Y955094D01*
X701693Y957975D01*
X704574Y965888D01*
X701958Y958703D02*
X710920Y958703D01*
X712234Y962312D02*
X703272Y962312D01*
X698575Y949406D02*
X706488Y946525D01*
X703607Y938612D01*
X695694Y941493D01*
X698575Y949406D01*
X695959Y942221D02*
X704921Y942221D01*
X706235Y945830D02*
X697273Y945830D01*
D14*
G36*
X859770Y766682D02*
X871056Y773198D01*
X877072Y762778D01*
X865786Y756262D01*
X859770Y766682D01*
G37*
G36*
X845048Y758182D02*
X856334Y764698D01*
X862350Y754278D01*
X851064Y747762D01*
X845048Y758182D01*
G37*
G36*
X903332Y747290D02*
X909848Y736004D01*
X899428Y729988D01*
X892912Y741274D01*
X903332Y747290D01*
G37*
G36*
X894832Y762012D02*
X901348Y750726D01*
X890928Y744710D01*
X884412Y755996D01*
X894832Y762012D01*
G37*
G36*
X681336Y962262D02*
X685793Y974507D01*
X697098Y970392D01*
X692641Y958147D01*
X681336Y962262D01*
G37*
G36*
X675522Y946288D02*
X679979Y958533D01*
X691284Y954418D01*
X686827Y942173D01*
X675522Y946288D01*
G37*
D17*
G36*
X898259Y689582D02*
X907685Y693014D01*
X911117Y683588D01*
X901691Y680156D01*
X898259Y689582D01*
G37*
G36*
X884163Y684452D02*
X893589Y687884D01*
X897021Y678458D01*
X887595Y675026D01*
X884163Y684452D01*
G37*
D15*
X780007Y931406D02*
X772714Y935617D01*
X780007Y931406D02*
X775796Y924113D01*
X768503Y928324D01*
X772714Y935617D01*
X769546Y927722D02*
X777880Y927722D01*
X779964Y931331D02*
X770239Y931331D01*
X772323Y934940D02*
X773886Y934940D01*
X763944Y920427D02*
X771237Y916216D01*
X767026Y908923D01*
X759733Y913134D01*
X763944Y920427D01*
X760776Y912532D02*
X769110Y912532D01*
X771194Y916141D02*
X761469Y916141D01*
X763553Y919750D02*
X765116Y919750D01*
D14*
G36*
X893637Y707881D02*
X905882Y712338D01*
X909997Y701033D01*
X897752Y696576D01*
X893637Y707881D01*
G37*
G36*
X877663Y702067D02*
X889908Y706524D01*
X894023Y695219D01*
X881778Y690762D01*
X877663Y702067D01*
G37*
G36*
X931141Y682183D02*
X935598Y669938D01*
X924293Y665823D01*
X919836Y678068D01*
X931141Y682183D01*
G37*
G36*
X925327Y698157D02*
X929784Y685912D01*
X918479Y681797D01*
X914022Y694042D01*
X925327Y698157D01*
G37*
G36*
X745332Y933606D02*
X751848Y944892D01*
X762268Y938876D01*
X755752Y927590D01*
X745332Y933606D01*
G37*
G36*
X736832Y918884D02*
X743348Y930170D01*
X753768Y924154D01*
X747252Y912868D01*
X736832Y918884D01*
G37*
D17*
G36*
X914956Y629450D02*
X924834Y631192D01*
X926576Y621314D01*
X916698Y619572D01*
X914956Y629450D01*
G37*
G36*
X900184Y626846D02*
X910062Y628588D01*
X911804Y618710D01*
X901926Y616968D01*
X900184Y626846D01*
G37*
D15*
X840879Y887597D02*
X834428Y893010D01*
X840879Y887597D02*
X835466Y881146D01*
X829015Y886559D01*
X834428Y893010D01*
X831165Y884755D02*
X838494Y884755D01*
X839965Y888364D02*
X830530Y888364D01*
X833558Y891973D02*
X835664Y891973D01*
X823154Y879574D02*
X829605Y874161D01*
X824192Y867710D01*
X817741Y873123D01*
X823154Y879574D01*
X819891Y871319D02*
X827220Y871319D01*
X828691Y874928D02*
X819256Y874928D01*
X822284Y878537D02*
X824390Y878537D01*
D14*
G36*
X911750Y649139D02*
X924583Y651402D01*
X926672Y639553D01*
X913839Y637290D01*
X911750Y649139D01*
G37*
G36*
X895008Y646187D02*
X907841Y648450D01*
X909930Y636601D01*
X897097Y634338D01*
X895008Y646187D01*
G37*
G36*
X947589Y616560D02*
X949852Y603727D01*
X938003Y601638D01*
X935740Y614471D01*
X947589Y616560D01*
G37*
G36*
X944637Y633302D02*
X946900Y620469D01*
X935051Y618380D01*
X932788Y631213D01*
X944637Y633302D01*
G37*
G36*
X811248Y896417D02*
X819624Y906399D01*
X828840Y898665D01*
X820464Y888683D01*
X811248Y896417D01*
G37*
G36*
X800320Y883395D02*
X808696Y893377D01*
X817912Y885643D01*
X809536Y875661D01*
X800320Y883395D01*
G37*
D18*
X926220Y561850D03*
X911220Y561850D03*
D15*
X892760Y834178D02*
X887347Y840629D01*
X892760Y834178D02*
X886309Y828765D01*
X880896Y835216D01*
X887347Y840629D01*
X890610Y832374D02*
X883281Y832374D01*
X881810Y835983D02*
X891245Y835983D01*
X888217Y839592D02*
X886111Y839592D01*
X873911Y829355D02*
X879324Y822904D01*
X872873Y817491D01*
X867460Y823942D01*
X873911Y829355D01*
X877174Y821100D02*
X869845Y821100D01*
X868374Y824709D02*
X877809Y824709D01*
X874781Y828318D02*
X872675Y828318D01*
D14*
X928490Y580140D03*
X911490Y580140D03*
D16*
X946150Y541160D03*
X946150Y558160D03*
D14*
G36*
X864813Y850184D02*
X874795Y858560D01*
X882529Y849344D01*
X872547Y840968D01*
X864813Y850184D01*
G37*
G36*
X851791Y839256D02*
X861773Y847632D01*
X869507Y838416D01*
X859525Y830040D01*
X851791Y839256D01*
G37*
D17*
G36*
X917208Y503868D02*
X927086Y502126D01*
X925344Y492248D01*
X915466Y493990D01*
X917208Y503868D01*
G37*
G36*
X902436Y506472D02*
X912314Y504730D01*
X910572Y494852D01*
X900694Y496594D01*
X902436Y506472D01*
G37*
D15*
X935617Y772214D02*
X931406Y779507D01*
X935617Y772214D02*
X928324Y768003D01*
X924113Y775296D01*
X931406Y779507D01*
X934574Y771612D02*
X926240Y771612D01*
X924156Y775221D02*
X933881Y775221D01*
X931797Y778830D02*
X930234Y778830D01*
X916216Y770737D02*
X920427Y763444D01*
X913134Y759233D01*
X908923Y766526D01*
X916216Y770737D01*
X919384Y762842D02*
X911050Y762842D01*
X908966Y766451D02*
X918691Y766451D01*
X916607Y770060D02*
X915044Y770060D01*
D14*
G36*
X920449Y521710D02*
X933282Y519447D01*
X931193Y507598D01*
X918360Y509861D01*
X920449Y521710D01*
G37*
G36*
X903707Y524662D02*
X916540Y522399D01*
X914451Y510550D01*
X901618Y512813D01*
X903707Y524662D01*
G37*
G36*
X944360Y482901D02*
X942097Y470068D01*
X930248Y472157D01*
X932511Y484990D01*
X944360Y482901D01*
G37*
G36*
X947312Y499643D02*
X945049Y486810D01*
X933200Y488899D01*
X935463Y501732D01*
X947312Y499643D01*
G37*
G36*
X909550Y790552D02*
X920836Y797068D01*
X926852Y786648D01*
X915566Y780132D01*
X909550Y790552D01*
G37*
G36*
X894828Y782052D02*
X906114Y788568D01*
X912130Y778148D01*
X900844Y771632D01*
X894828Y782052D01*
G37*
D17*
G36*
X901691Y443534D02*
X911117Y440102D01*
X907685Y430676D01*
X898259Y434108D01*
X901691Y443534D01*
G37*
G36*
X887595Y448664D02*
X897021Y445232D01*
X893589Y435806D01*
X884163Y439238D01*
X887595Y448664D01*
G37*
D15*
X966388Y704314D02*
X963507Y712227D01*
X966388Y704314D02*
X958475Y701433D01*
X955594Y709346D01*
X963507Y712227D01*
X966123Y705042D02*
X957161Y705042D01*
X955847Y708651D02*
X964809Y708651D01*
X947025Y706227D02*
X949906Y698314D01*
X941993Y695433D01*
X939112Y703346D01*
X947025Y706227D01*
X949641Y699042D02*
X940679Y699042D01*
X939365Y702651D02*
X948327Y702651D01*
D14*
G36*
X909182Y461154D02*
X921427Y456697D01*
X917312Y445392D01*
X905067Y449849D01*
X909182Y461154D01*
G37*
G36*
X893208Y466968D02*
X905453Y462511D01*
X901338Y451206D01*
X889093Y455663D01*
X893208Y466968D01*
G37*
G36*
X926234Y417968D02*
X921777Y405723D01*
X910472Y409838D01*
X914929Y422083D01*
X926234Y417968D01*
G37*
G36*
X932048Y433942D02*
X927591Y421697D01*
X916286Y425812D01*
X920743Y438057D01*
X932048Y433942D01*
G37*
G36*
X943167Y728451D02*
X955412Y732908D01*
X959527Y721603D01*
X947282Y717146D01*
X943167Y728451D01*
G37*
G36*
X927193Y722637D02*
X939438Y727094D01*
X943553Y715789D01*
X931308Y711332D01*
X927193Y722637D01*
G37*
D17*
G36*
X876130Y386391D02*
X884816Y381375D01*
X879800Y372689D01*
X871114Y377705D01*
X876130Y386391D01*
G37*
G36*
X863140Y393891D02*
X871826Y388875D01*
X866810Y380189D01*
X858124Y385205D01*
X863140Y393891D01*
G37*
D15*
X985065Y631838D02*
X983602Y640131D01*
X985065Y631838D02*
X976772Y630375D01*
X975309Y638668D01*
X983602Y640131D01*
X984686Y633984D02*
X976135Y633984D01*
X975499Y637593D02*
X984050Y637593D01*
X966328Y637085D02*
X967791Y628792D01*
X959498Y627329D01*
X958035Y635622D01*
X966328Y637085D01*
X967412Y630938D02*
X958861Y630938D01*
X958225Y634547D02*
X966776Y634547D01*
D14*
G36*
X888896Y404018D02*
X900182Y397502D01*
X894166Y387082D01*
X882880Y393598D01*
X888896Y404018D01*
G37*
G36*
X874174Y412518D02*
X885460Y406002D01*
X879444Y395582D01*
X868158Y402098D01*
X874174Y412518D01*
G37*
G36*
X894998Y356974D02*
X888482Y345688D01*
X878062Y351704D01*
X884578Y362990D01*
X894998Y356974D01*
G37*
G36*
X903498Y371696D02*
X896982Y360410D01*
X886562Y366426D01*
X893078Y377712D01*
X903498Y371696D01*
G37*
G36*
X969408Y655747D02*
X982241Y658010D01*
X984330Y646161D01*
X971497Y643898D01*
X969408Y655747D01*
G37*
G36*
X952666Y652795D02*
X965499Y655058D01*
X967588Y643209D01*
X954755Y640946D01*
X952666Y652795D01*
G37*
D17*
G36*
X840537Y334225D02*
X848221Y327777D01*
X841773Y320093D01*
X834089Y326541D01*
X840537Y334225D01*
G37*
G36*
X829047Y343867D02*
X836731Y337419D01*
X830283Y329735D01*
X822599Y336183D01*
X829047Y343867D01*
G37*
D15*
X990631Y557379D02*
X990631Y565801D01*
X990631Y557379D02*
X982209Y557379D01*
X982209Y565801D01*
X990631Y565801D01*
X990631Y560988D02*
X982209Y560988D01*
X982209Y564597D02*
X990631Y564597D01*
X973091Y565801D02*
X973091Y557379D01*
X964669Y557379D01*
X964669Y565801D01*
X973091Y565801D01*
X973091Y560988D02*
X964669Y560988D01*
X964669Y564597D02*
X973091Y564597D01*
D14*
G36*
X854767Y349022D02*
X864749Y340646D01*
X857015Y331430D01*
X847033Y339806D01*
X854767Y349022D01*
G37*
G36*
X841745Y359950D02*
X851727Y351574D01*
X843993Y342358D01*
X834011Y350734D01*
X841745Y359950D01*
G37*
G36*
X854232Y300933D02*
X845856Y290951D01*
X836640Y298685D01*
X845016Y308667D01*
X854232Y300933D01*
G37*
G36*
X865160Y313955D02*
X856784Y303973D01*
X847568Y311707D01*
X855944Y321689D01*
X865160Y313955D01*
G37*
X985640Y580640D03*
X968640Y580640D03*
D17*
G36*
X797159Y289101D02*
X803607Y281417D01*
X795923Y274969D01*
X789475Y282653D01*
X797159Y289101D01*
G37*
G36*
X787517Y300591D02*
X793965Y292907D01*
X786281Y286459D01*
X779833Y294143D01*
X787517Y300591D01*
G37*
D15*
X983602Y482799D02*
X985065Y491092D01*
X983602Y482799D02*
X975309Y484262D01*
X976772Y492555D01*
X985065Y491092D01*
X984239Y486408D02*
X975688Y486408D01*
X976324Y490017D02*
X984875Y490017D01*
X967791Y494138D02*
X966328Y485845D01*
X958035Y487308D01*
X959498Y495601D01*
X967791Y494138D01*
X966965Y489454D02*
X958414Y489454D01*
X959050Y493063D02*
X967601Y493063D01*
D14*
G36*
X817924Y299277D02*
X826300Y289295D01*
X817084Y281561D01*
X808708Y291543D01*
X817924Y299277D01*
G37*
G36*
X806996Y312299D02*
X815372Y302317D01*
X806156Y294583D01*
X797780Y304565D01*
X806996Y312299D01*
G37*
G36*
X805237Y255486D02*
X795255Y247110D01*
X787521Y256326D01*
X797503Y264702D01*
X805237Y255486D01*
G37*
G36*
X818259Y266414D02*
X808277Y258038D01*
X800543Y267254D01*
X810525Y275630D01*
X818259Y266414D01*
G37*
G36*
X976069Y513580D02*
X988902Y511317D01*
X986813Y499468D01*
X973980Y501731D01*
X976069Y513580D01*
G37*
G36*
X959327Y516532D02*
X972160Y514269D01*
X970071Y502420D01*
X957238Y504683D01*
X959327Y516532D01*
G37*
D17*
G36*
X746245Y252326D02*
X751261Y243640D01*
X742575Y238624D01*
X737559Y247310D01*
X746245Y252326D01*
G37*
G36*
X738745Y265316D02*
X743761Y256630D01*
X735075Y251614D01*
X730059Y260300D01*
X738745Y265316D01*
G37*
D15*
X963007Y410703D02*
X965888Y418616D01*
X963007Y410703D02*
X955094Y413584D01*
X957975Y421497D01*
X965888Y418616D01*
X964321Y414312D02*
X955359Y414312D01*
X956673Y417921D02*
X965635Y417921D01*
X949406Y424616D02*
X946525Y416703D01*
X938612Y419584D01*
X941493Y427497D01*
X949406Y424616D01*
X947839Y420312D02*
X938877Y420312D01*
X940191Y423921D02*
X949153Y423921D01*
D14*
G36*
X766422Y261130D02*
X772938Y249844D01*
X762518Y243828D01*
X756002Y255114D01*
X766422Y261130D01*
G37*
G36*
X757922Y275852D02*
X764438Y264566D01*
X754018Y258550D01*
X747502Y269836D01*
X757922Y275852D01*
G37*
G36*
X748560Y217318D02*
X737274Y210802D01*
X731258Y221222D01*
X742544Y227738D01*
X748560Y217318D01*
G37*
G36*
X763282Y225818D02*
X751996Y219302D01*
X745980Y229722D01*
X757266Y236238D01*
X763282Y225818D01*
G37*
G36*
X960232Y441854D02*
X972477Y437397D01*
X968362Y426092D01*
X956117Y430549D01*
X960232Y441854D01*
G37*
G36*
X944258Y447668D02*
X956503Y443211D01*
X952388Y431906D01*
X940143Y436363D01*
X944258Y447668D01*
G37*
D18*
X561850Y926730D03*
X561850Y911730D03*
D15*
X935617Y350976D02*
X931406Y343683D01*
X924113Y347894D01*
X928324Y355187D01*
X935617Y350976D01*
X933490Y347292D02*
X925156Y347292D01*
X925849Y350901D02*
X935574Y350901D01*
X929496Y354510D02*
X927933Y354510D01*
X920427Y359746D02*
X916216Y352453D01*
X908923Y356664D01*
X913134Y363957D01*
X920427Y359746D01*
X918300Y356062D02*
X909966Y356062D01*
X910659Y359671D02*
X920384Y359671D01*
X914306Y363280D02*
X912743Y363280D01*
D16*
X542290Y929250D03*
X542290Y912250D03*
D14*
X581520Y946910D03*
X564520Y946910D03*
G36*
X933856Y378868D02*
X945142Y372352D01*
X939126Y361932D01*
X927840Y368448D01*
X933856Y378868D01*
G37*
G36*
X919134Y387368D02*
X930420Y380852D01*
X924404Y370432D01*
X913118Y376948D01*
X919134Y387368D01*
G37*
D17*
G36*
X619312Y917468D02*
X621054Y927346D01*
X630932Y925604D01*
X629190Y915726D01*
X619312Y917468D01*
G37*
G36*
X616708Y902696D02*
X618450Y912574D01*
X628328Y910832D01*
X626586Y900954D01*
X616708Y902696D01*
G37*
D15*
X893270Y289012D02*
X887857Y282561D01*
X881406Y287974D01*
X886819Y294425D01*
X893270Y289012D01*
X890885Y286170D02*
X883556Y286170D01*
X882921Y289779D02*
X892356Y289779D01*
X888055Y293388D02*
X885949Y293388D01*
X879834Y300286D02*
X874421Y293835D01*
X867970Y299248D01*
X873383Y305699D01*
X879834Y300286D01*
X877449Y297444D02*
X870120Y297444D01*
X869485Y301053D02*
X878920Y301053D01*
X874619Y304662D02*
X872513Y304662D01*
D14*
G36*
X600210Y921719D02*
X602473Y934552D01*
X614322Y932463D01*
X612059Y919630D01*
X600210Y921719D01*
G37*
G36*
X597258Y904977D02*
X599521Y917810D01*
X611370Y915721D01*
X609107Y902888D01*
X597258Y904977D01*
G37*
G36*
X640749Y945120D02*
X653582Y942857D01*
X651493Y931008D01*
X638660Y933271D01*
X640749Y945120D01*
G37*
G36*
X624007Y948072D02*
X636840Y945809D01*
X634751Y933960D01*
X621918Y936223D01*
X624007Y948072D01*
G37*
G36*
X897437Y316772D02*
X907419Y308396D01*
X899685Y299180D01*
X889703Y307556D01*
X897437Y316772D01*
G37*
G36*
X884415Y327700D02*
X894397Y319324D01*
X886663Y310108D01*
X876681Y318484D01*
X884415Y327700D01*
G37*
D17*
G36*
X679906Y901691D02*
X683338Y911117D01*
X692764Y907685D01*
X689332Y898259D01*
X679906Y901691D01*
G37*
G36*
X674776Y887595D02*
X678208Y897021D01*
X687634Y893589D01*
X684202Y884163D01*
X674776Y887595D01*
G37*
D15*
X840629Y235843D02*
X834178Y230430D01*
X828765Y236881D01*
X835216Y242294D01*
X840629Y235843D01*
X838479Y234039D02*
X831150Y234039D01*
X829679Y237648D02*
X839114Y237648D01*
X836086Y241257D02*
X833980Y241257D01*
X829355Y249279D02*
X822904Y243866D01*
X817491Y250317D01*
X823942Y255730D01*
X829355Y249279D01*
X827205Y247475D02*
X819876Y247475D01*
X818405Y251084D02*
X827840Y251084D01*
X824812Y254693D02*
X822706Y254693D01*
D14*
G36*
X662536Y908412D02*
X666993Y920657D01*
X678298Y916542D01*
X673841Y904297D01*
X662536Y908412D01*
G37*
G36*
X656722Y892438D02*
X661179Y904683D01*
X672484Y900568D01*
X668027Y888323D01*
X656722Y892438D01*
G37*
G36*
X706232Y925474D02*
X718477Y921017D01*
X714362Y909712D01*
X702117Y914169D01*
X706232Y925474D01*
G37*
G36*
X690258Y931288D02*
X702503Y926831D01*
X698388Y915526D01*
X686143Y919983D01*
X690258Y931288D01*
G37*
G36*
X849924Y259907D02*
X858300Y249925D01*
X849084Y242191D01*
X840708Y252173D01*
X849924Y259907D01*
G37*
G36*
X838996Y272929D02*
X847372Y262947D01*
X838156Y255213D01*
X829780Y265195D01*
X838996Y272929D01*
G37*
D17*
G36*
X737309Y876130D02*
X742325Y884816D01*
X751011Y879800D01*
X745995Y871114D01*
X737309Y876130D01*
G37*
G36*
X729809Y863140D02*
X734825Y871826D01*
X743511Y866810D01*
X738495Y858124D01*
X729809Y863140D01*
G37*
D15*
X780007Y191774D02*
X772714Y187563D01*
X768503Y194856D01*
X775796Y199067D01*
X780007Y191774D01*
X778964Y191172D02*
X770630Y191172D01*
X768546Y194781D02*
X778271Y194781D01*
X776187Y198390D02*
X774624Y198390D01*
X771237Y206964D02*
X763944Y202753D01*
X759733Y210046D01*
X767026Y214257D01*
X771237Y206964D01*
X770194Y206362D02*
X761860Y206362D01*
X759776Y209971D02*
X769501Y209971D01*
X767417Y213580D02*
X765854Y213580D01*
D14*
G36*
X722222Y886106D02*
X728738Y897392D01*
X739158Y891376D01*
X732642Y880090D01*
X722222Y886106D01*
G37*
G36*
X713722Y871384D02*
X720238Y882670D01*
X730658Y876654D01*
X724142Y865368D01*
X713722Y871384D01*
G37*
G36*
X767746Y895508D02*
X779032Y888992D01*
X773016Y878572D01*
X761730Y885088D01*
X767746Y895508D01*
G37*
G36*
X753024Y904008D02*
X764310Y897492D01*
X758294Y887072D01*
X747008Y893588D01*
X753024Y904008D01*
G37*
G36*
X793092Y214400D02*
X799608Y203114D01*
X789188Y197098D01*
X782672Y208384D01*
X793092Y214400D01*
G37*
G36*
X784592Y229122D02*
X791108Y217836D01*
X780688Y211820D01*
X774172Y223106D01*
X784592Y229122D01*
G37*
D17*
G36*
X689332Y225191D02*
X692764Y215765D01*
X683338Y212333D01*
X679906Y221759D01*
X689332Y225191D01*
G37*
G36*
X684202Y239287D02*
X687634Y229861D01*
X678208Y226429D01*
X674776Y235855D01*
X684202Y239287D01*
G37*
D15*
X712227Y160183D02*
X704314Y157302D01*
X701433Y165215D01*
X709346Y168096D01*
X712227Y160183D01*
X711962Y160911D02*
X703000Y160911D01*
X701686Y164520D02*
X710648Y164520D01*
X706228Y176665D02*
X698315Y173784D01*
X695434Y181697D01*
X703347Y184578D01*
X706228Y176665D01*
X705963Y177393D02*
X697001Y177393D01*
X695687Y181002D02*
X704649Y181002D01*
D14*
G36*
X710421Y231333D02*
X714878Y219088D01*
X703573Y214973D01*
X699116Y227218D01*
X710421Y231333D01*
G37*
G36*
X704607Y247307D02*
X709064Y235062D01*
X697759Y230947D01*
X693302Y243192D01*
X704607Y247307D01*
G37*
G36*
X683703Y190269D02*
X671458Y185812D01*
X667343Y197117D01*
X679588Y201574D01*
X683703Y190269D01*
G37*
G36*
X699677Y196083D02*
X687432Y191626D01*
X683317Y202931D01*
X695562Y207388D01*
X699677Y196083D01*
G37*
G36*
X726931Y178753D02*
X731388Y166508D01*
X720083Y162393D01*
X715626Y174638D01*
X726931Y178753D01*
G37*
G36*
X721117Y194727D02*
X725574Y182482D01*
X714269Y178367D01*
X709812Y190612D01*
X721117Y194727D01*
G37*
D17*
G36*
X629190Y208224D02*
X630932Y198346D01*
X621054Y196604D01*
X619312Y206482D01*
X629190Y208224D01*
G37*
G36*
X626586Y222996D02*
X628328Y213118D01*
X618450Y211376D01*
X616708Y221254D01*
X626586Y222996D01*
G37*
D15*
X640891Y139588D02*
X632598Y138125D01*
X631135Y146418D01*
X639428Y147881D01*
X640891Y139588D01*
X640512Y141734D02*
X631961Y141734D01*
X631325Y145343D02*
X639876Y145343D01*
X637845Y156862D02*
X629552Y155399D01*
X628089Y163692D01*
X636382Y165155D01*
X637845Y156862D01*
X637466Y159008D02*
X628915Y159008D01*
X628279Y162617D02*
X636830Y162617D01*
D14*
G36*
X649139Y207120D02*
X651402Y194287D01*
X639553Y192198D01*
X637290Y205031D01*
X649139Y207120D01*
G37*
G36*
X646187Y223862D02*
X648450Y211029D01*
X636601Y208940D01*
X634338Y221773D01*
X646187Y223862D01*
G37*
G36*
X616560Y173821D02*
X603727Y171558D01*
X601638Y183407D01*
X614471Y185670D01*
X616560Y173821D01*
G37*
G36*
X633302Y176773D02*
X620469Y174510D01*
X618380Y186359D01*
X631213Y188622D01*
X633302Y176773D01*
G37*
G36*
X659559Y157080D02*
X661822Y144247D01*
X649973Y142158D01*
X647710Y154991D01*
X659559Y157080D01*
G37*
G36*
X656607Y173822D02*
X658870Y160989D01*
X647021Y158900D01*
X644758Y171733D01*
X656607Y173822D01*
G37*
D18*
X561340Y196210D03*
X561340Y211210D03*
D15*
X565551Y132559D02*
X557129Y132559D01*
X557129Y140981D01*
X565551Y140981D01*
X565551Y132559D01*
X565551Y136168D02*
X557129Y136168D01*
X557129Y139777D02*
X565551Y139777D01*
X565551Y150099D02*
X557129Y150099D01*
X557129Y158521D01*
X565551Y158521D01*
X565551Y150099D01*
X565551Y153708D02*
X557129Y153708D01*
X557129Y157317D02*
X565551Y157317D01*
D16*
X579630Y191910D03*
X579630Y208910D03*
D14*
X542680Y176280D03*
X559680Y176280D03*
D16*
X582170Y138310D03*
X582170Y155310D03*
D17*
G36*
X504128Y206482D02*
X502386Y196604D01*
X492508Y198346D01*
X494250Y208224D01*
X504128Y206482D01*
G37*
G36*
X506732Y221254D02*
X504990Y211376D01*
X495112Y213118D01*
X496854Y222996D01*
X506732Y221254D01*
G37*
D15*
X491602Y138635D02*
X483309Y140098D01*
X484772Y148391D01*
X493065Y146928D01*
X491602Y138635D01*
X492239Y142244D02*
X483688Y142244D01*
X484324Y145853D02*
X492875Y145853D01*
X494648Y155909D02*
X486355Y157372D01*
X487818Y165665D01*
X496111Y164202D01*
X494648Y155909D01*
X495285Y159518D02*
X486734Y159518D01*
X487370Y163127D02*
X495921Y163127D01*
D14*
G36*
X524500Y200201D02*
X522237Y187368D01*
X510388Y189457D01*
X512651Y202290D01*
X524500Y200201D01*
G37*
G36*
X527452Y216943D02*
X525189Y204110D01*
X513340Y206199D01*
X515603Y219032D01*
X527452Y216943D01*
G37*
G36*
X483411Y180090D02*
X470578Y182353D01*
X472667Y194202D01*
X485500Y191939D01*
X483411Y180090D01*
G37*
G36*
X500153Y177138D02*
X487320Y179401D01*
X489409Y191250D01*
X502242Y188987D01*
X500153Y177138D01*
G37*
G36*
X514850Y148131D02*
X512587Y135298D01*
X500738Y137387D01*
X503001Y150220D01*
X514850Y148131D01*
G37*
G36*
X517802Y164873D02*
X515539Y152040D01*
X503690Y154129D01*
X505953Y166962D01*
X517802Y164873D01*
G37*
D17*
G36*
X443284Y221759D02*
X439852Y212333D01*
X430426Y215765D01*
X433858Y225191D01*
X443284Y221759D01*
G37*
G36*
X448414Y235855D02*
X444982Y226429D01*
X435556Y229861D01*
X438988Y239287D01*
X448414Y235855D01*
G37*
D15*
X418867Y156792D02*
X410954Y159673D01*
X413835Y167586D01*
X421748Y164705D01*
X418867Y156792D01*
X420181Y160401D02*
X411219Y160401D01*
X412533Y164010D02*
X421495Y164010D01*
X424866Y173274D02*
X416953Y176155D01*
X419834Y184068D01*
X427747Y181187D01*
X424866Y173274D01*
X426180Y176883D02*
X417218Y176883D01*
X418532Y180492D02*
X427494Y180492D01*
D14*
G36*
X462424Y213248D02*
X457967Y201003D01*
X446662Y205118D01*
X451119Y217363D01*
X462424Y213248D01*
G37*
G36*
X468238Y229222D02*
X463781Y216977D01*
X452476Y221092D01*
X456933Y233337D01*
X468238Y229222D01*
G37*
G36*
X419238Y195936D02*
X406993Y200393D01*
X411108Y211698D01*
X423353Y207241D01*
X419238Y195936D01*
G37*
G36*
X435212Y190122D02*
X422967Y194579D01*
X427082Y205884D01*
X439327Y201427D01*
X435212Y190122D01*
G37*
G36*
X443634Y160928D02*
X439177Y148683D01*
X427872Y152798D01*
X432329Y165043D01*
X443634Y160928D01*
G37*
G36*
X449448Y176902D02*
X444991Y164657D01*
X433686Y168772D01*
X438143Y181017D01*
X449448Y176902D01*
G37*
D17*
G36*
X385881Y247050D02*
X380865Y238364D01*
X372179Y243380D01*
X377195Y252066D01*
X385881Y247050D01*
G37*
G36*
X393381Y260040D02*
X388365Y251354D01*
X379679Y256370D01*
X384695Y265056D01*
X393381Y260040D01*
G37*
D15*
X351236Y188073D02*
X343943Y192284D01*
X348154Y199577D01*
X355447Y195366D01*
X351236Y188073D01*
X353320Y191682D02*
X344986Y191682D01*
X345679Y195291D02*
X355404Y195291D01*
X349326Y198900D02*
X347763Y198900D01*
X352713Y207474D02*
X360006Y203263D01*
X352713Y207474D02*
X356924Y214767D01*
X364217Y210556D01*
X360006Y203263D01*
X362090Y206872D02*
X353756Y206872D01*
X354449Y210481D02*
X364174Y210481D01*
X358096Y214090D02*
X356533Y214090D01*
D14*
G36*
X404518Y237594D02*
X398002Y226308D01*
X387582Y232324D01*
X394098Y243610D01*
X404518Y237594D01*
G37*
G36*
X413018Y252316D02*
X406502Y241030D01*
X396082Y247046D01*
X402598Y258332D01*
X413018Y252316D01*
G37*
G36*
X357224Y227682D02*
X345938Y234198D01*
X351954Y244618D01*
X363240Y238102D01*
X357224Y227682D01*
G37*
G36*
X371946Y219182D02*
X360660Y225698D01*
X366676Y236118D01*
X377962Y229602D01*
X371946Y219182D01*
G37*
G36*
X378868Y189584D02*
X372352Y178298D01*
X361932Y184314D01*
X368448Y195600D01*
X378868Y189584D01*
G37*
G36*
X387368Y204306D02*
X380852Y193020D01*
X370432Y199036D01*
X376948Y210322D01*
X387368Y204306D01*
G37*
D17*
G36*
X333965Y282913D02*
X327517Y275229D01*
X319833Y281677D01*
X326281Y289361D01*
X333965Y282913D01*
G37*
G36*
X343607Y294403D02*
X337159Y286719D01*
X329475Y293167D01*
X335923Y300851D01*
X343607Y294403D01*
G37*
D15*
X289012Y230680D02*
X282561Y236093D01*
X287974Y242544D01*
X294425Y237131D01*
X289012Y230680D01*
X292040Y234289D02*
X284711Y234289D01*
X284076Y237898D02*
X293511Y237898D01*
X289210Y241507D02*
X287104Y241507D01*
X293835Y249529D02*
X300286Y244116D01*
X293835Y249529D02*
X299248Y255980D01*
X305699Y250567D01*
X300286Y244116D01*
X303314Y247725D02*
X295985Y247725D01*
X295350Y251334D02*
X304785Y251334D01*
X300484Y254943D02*
X298378Y254943D01*
D14*
G36*
X351312Y267663D02*
X342936Y257681D01*
X333720Y265415D01*
X342096Y275397D01*
X351312Y267663D01*
G37*
G36*
X362240Y280685D02*
X353864Y270703D01*
X344648Y278437D01*
X353024Y288419D01*
X362240Y280685D01*
G37*
G36*
X301443Y267938D02*
X291461Y276314D01*
X299195Y285530D01*
X309177Y277154D01*
X301443Y267938D01*
G37*
G36*
X314465Y257010D02*
X304483Y265386D01*
X312217Y274602D01*
X322199Y266226D01*
X314465Y257010D01*
G37*
G36*
X317782Y227533D02*
X309406Y217551D01*
X300190Y225285D01*
X308566Y235267D01*
X317782Y227533D01*
G37*
G36*
X328710Y240555D02*
X320334Y230573D01*
X311118Y238307D01*
X319494Y248289D01*
X328710Y240555D01*
G37*
D17*
G36*
X289101Y326541D02*
X281417Y320093D01*
X274969Y327777D01*
X282653Y334225D01*
X289101Y326541D01*
G37*
G36*
X300591Y336183D02*
X292907Y329735D01*
X286459Y337419D01*
X294143Y343867D01*
X300591Y336183D01*
G37*
D15*
X235843Y282821D02*
X230430Y289272D01*
X236881Y294685D01*
X242294Y288234D01*
X235843Y282821D01*
X232815Y286430D02*
X240144Y286430D01*
X240779Y290039D02*
X231344Y290039D01*
X235645Y293648D02*
X237751Y293648D01*
X243866Y300546D02*
X249279Y294095D01*
X243866Y300546D02*
X250317Y305959D01*
X255730Y299508D01*
X249279Y294095D01*
X246251Y297704D02*
X253580Y297704D01*
X254215Y301313D02*
X244780Y301313D01*
X249081Y304922D02*
X251187Y304922D01*
D14*
G36*
X300547Y307556D02*
X290565Y299180D01*
X282831Y308396D01*
X292813Y316772D01*
X300547Y307556D01*
G37*
G36*
X313569Y318484D02*
X303587Y310108D01*
X295853Y319324D01*
X305835Y327700D01*
X313569Y318484D01*
G37*
G36*
X253196Y325063D02*
X244820Y335045D01*
X254036Y342779D01*
X262412Y332797D01*
X253196Y325063D01*
G37*
G36*
X264124Y312041D02*
X255748Y322023D01*
X264964Y329757D01*
X273340Y319775D01*
X264124Y312041D01*
G37*
G36*
X261677Y271736D02*
X251695Y263360D01*
X243961Y272576D01*
X253943Y280952D01*
X261677Y271736D01*
G37*
G36*
X274699Y282664D02*
X264717Y274288D01*
X256983Y283504D01*
X266965Y291880D01*
X274699Y282664D01*
G37*
D17*
G36*
X252576Y377445D02*
X243890Y372429D01*
X238874Y381115D01*
X247560Y386131D01*
X252576Y377445D01*
G37*
G36*
X265566Y384945D02*
X256880Y379929D01*
X251864Y388615D01*
X260550Y393631D01*
X265566Y384945D01*
G37*
D15*
X192284Y343173D02*
X188073Y350466D01*
X195366Y354677D01*
X199577Y347384D01*
X192284Y343173D01*
X190200Y346782D02*
X198534Y346782D01*
X197841Y350391D02*
X188116Y350391D01*
X194194Y354000D02*
X195757Y354000D01*
X203263Y359236D02*
X207474Y351943D01*
X203263Y359236D02*
X210556Y363447D01*
X214767Y356154D01*
X207474Y351943D01*
X205390Y355552D02*
X213724Y355552D01*
X213031Y359161D02*
X203306Y359161D01*
X209384Y362770D02*
X210947Y362770D01*
D14*
G36*
X261130Y358288D02*
X249844Y351772D01*
X243828Y362192D01*
X255114Y368708D01*
X261130Y358288D01*
G37*
G36*
X275852Y366788D02*
X264566Y360272D01*
X258550Y370692D01*
X269836Y377208D01*
X275852Y366788D01*
G37*
G36*
X218078Y375650D02*
X211562Y386936D01*
X221982Y392952D01*
X228498Y381666D01*
X218078Y375650D01*
G37*
G36*
X226578Y360928D02*
X220062Y372214D01*
X230482Y378230D01*
X236998Y366944D01*
X226578Y360928D01*
G37*
G36*
X215160Y332378D02*
X203874Y325862D01*
X197858Y336282D01*
X209144Y342798D01*
X215160Y332378D01*
G37*
G36*
X229882Y340878D02*
X218596Y334362D01*
X212580Y344782D01*
X223866Y351298D01*
X229882Y340878D01*
G37*
D17*
G36*
X225191Y433858D02*
X215765Y430426D01*
X212333Y439852D01*
X221759Y443284D01*
X225191Y433858D01*
G37*
G36*
X239287Y438988D02*
X229861Y435556D01*
X226429Y444982D01*
X235855Y448414D01*
X239287Y438988D01*
G37*
D15*
X159933Y411213D02*
X157052Y419126D01*
X164965Y422007D01*
X167846Y414094D01*
X159933Y411213D01*
X158619Y414822D02*
X167581Y414822D01*
X166267Y418431D02*
X157305Y418431D01*
X173534Y425126D02*
X176415Y417213D01*
X173534Y425126D02*
X181447Y428007D01*
X184328Y420094D01*
X176415Y417213D01*
X175101Y420822D02*
X184063Y420822D01*
X182749Y424431D02*
X173787Y424431D01*
D14*
G36*
X231583Y415309D02*
X219338Y410852D01*
X215223Y422157D01*
X227468Y426614D01*
X231583Y415309D01*
G37*
G36*
X247557Y421123D02*
X235312Y416666D01*
X231197Y427971D01*
X243442Y432428D01*
X247557Y421123D01*
G37*
G36*
X188999Y438977D02*
X184542Y451222D01*
X195847Y455337D01*
X200304Y443092D01*
X188999Y438977D01*
G37*
G36*
X194813Y423003D02*
X190356Y435248D01*
X201661Y439363D01*
X206118Y427118D01*
X194813Y423003D01*
G37*
G36*
X180783Y394229D02*
X168538Y389772D01*
X164423Y401077D01*
X176668Y405534D01*
X180783Y394229D01*
G37*
G36*
X196757Y400043D02*
X184512Y395586D01*
X180397Y406891D01*
X192642Y411348D01*
X196757Y400043D01*
G37*
D17*
G36*
X207974Y494250D02*
X198096Y492508D01*
X196354Y502386D01*
X206232Y504128D01*
X207974Y494250D01*
G37*
G36*
X222746Y496854D02*
X212868Y495112D01*
X211126Y504990D01*
X221004Y506732D01*
X222746Y496854D01*
G37*
D15*
X139588Y483059D02*
X138125Y491352D01*
X146418Y492815D01*
X147881Y484522D01*
X139588Y483059D01*
X138951Y486668D02*
X147502Y486668D01*
X146866Y490277D02*
X138315Y490277D01*
X155399Y494398D02*
X156862Y486105D01*
X155399Y494398D02*
X163692Y495861D01*
X165155Y487568D01*
X156862Y486105D01*
X156225Y489714D02*
X164776Y489714D01*
X164140Y493323D02*
X155589Y493323D01*
D14*
G36*
X210420Y473031D02*
X197587Y470768D01*
X195498Y482617D01*
X208331Y484880D01*
X210420Y473031D01*
G37*
G36*
X227162Y475983D02*
X214329Y473720D01*
X212240Y485569D01*
X225073Y487832D01*
X227162Y475983D01*
G37*
G36*
X174071Y504590D02*
X171808Y517423D01*
X183657Y519512D01*
X185920Y506679D01*
X174071Y504590D01*
G37*
G36*
X177023Y487848D02*
X174760Y500681D01*
X186609Y502770D01*
X188872Y489937D01*
X177023Y487848D01*
G37*
G36*
X157330Y462871D02*
X144497Y460608D01*
X142408Y472457D01*
X155241Y474720D01*
X157330Y462871D01*
G37*
G36*
X174072Y465823D02*
X161239Y463560D01*
X159150Y475409D01*
X171983Y477672D01*
X174072Y465823D01*
G37*
D18*
X196720Y561850D03*
X211720Y561850D03*
D15*
X132309Y557639D02*
X132309Y566061D01*
X140731Y566061D01*
X140731Y557639D01*
X132309Y557639D01*
X132309Y561248D02*
X140731Y561248D01*
X140731Y564857D02*
X132309Y564857D01*
X149849Y566061D02*
X149849Y557639D01*
X149849Y566061D02*
X158271Y566061D01*
X158271Y557639D01*
X149849Y557639D01*
X149849Y561248D02*
X158271Y561248D01*
X158271Y564857D02*
X149849Y564857D01*
D14*
X194700Y543560D03*
X211700Y543560D03*
D16*
X176530Y579490D03*
X176530Y562490D03*
D14*
X137550Y545080D03*
X154550Y545080D03*
D17*
G36*
X206232Y619062D02*
X196354Y620804D01*
X198096Y630682D01*
X207974Y628940D01*
X206232Y619062D01*
G37*
G36*
X221004Y616458D02*
X211126Y618200D01*
X212868Y628078D01*
X222746Y626336D01*
X221004Y616458D01*
G37*
D15*
X138375Y631838D02*
X139838Y640131D01*
X148131Y638668D01*
X146668Y630375D01*
X138375Y631838D01*
X138754Y633984D02*
X147305Y633984D01*
X147941Y637593D02*
X139390Y637593D01*
X157112Y637085D02*
X155649Y628792D01*
X157112Y637085D02*
X165405Y635622D01*
X163942Y627329D01*
X155649Y628792D01*
X156028Y630938D02*
X164579Y630938D01*
X165215Y634547D02*
X156664Y634547D01*
D14*
G36*
X200711Y602500D02*
X187878Y604763D01*
X189967Y616612D01*
X202800Y614349D01*
X200711Y602500D01*
G37*
G36*
X217453Y599548D02*
X204620Y601811D01*
X206709Y613660D01*
X219542Y611397D01*
X217453Y599548D01*
G37*
G36*
X179334Y645111D02*
X181597Y657944D01*
X193446Y655855D01*
X191183Y643022D01*
X179334Y645111D01*
G37*
G36*
X176382Y628369D02*
X178645Y641202D01*
X190494Y639113D01*
X188231Y626280D01*
X176382Y628369D01*
G37*
G36*
X147111Y607580D02*
X134278Y609843D01*
X136367Y621692D01*
X149200Y619429D01*
X147111Y607580D01*
G37*
G36*
X163853Y604628D02*
X151020Y606891D01*
X153109Y618740D01*
X165942Y616477D01*
X163853Y604628D01*
G37*
D17*
G36*
X222009Y680156D02*
X212583Y683588D01*
X216015Y693014D01*
X225441Y689582D01*
X222009Y680156D01*
G37*
G36*
X236105Y675026D02*
X226679Y678458D01*
X230111Y687884D01*
X239537Y684452D01*
X236105Y675026D01*
G37*
D15*
X157562Y704574D02*
X160443Y712487D01*
X168356Y709606D01*
X165475Y701693D01*
X157562Y704574D01*
X157827Y705302D02*
X166789Y705302D01*
X168103Y708911D02*
X159141Y708911D01*
X176925Y706487D02*
X174044Y698574D01*
X176925Y706487D02*
X184838Y703606D01*
X181957Y695693D01*
X174044Y698574D01*
X174309Y699302D02*
X183271Y699302D01*
X184585Y702911D02*
X175623Y702911D01*
D14*
G36*
X215028Y662536D02*
X202783Y666993D01*
X206898Y678298D01*
X219143Y673841D01*
X215028Y662536D01*
G37*
G36*
X231002Y656722D02*
X218757Y661179D01*
X222872Y672484D01*
X235117Y668027D01*
X231002Y656722D01*
G37*
G36*
X198736Y707502D02*
X203193Y719747D01*
X214498Y715632D01*
X210041Y703387D01*
X198736Y707502D01*
G37*
G36*
X192922Y691528D02*
X197379Y703773D01*
X208684Y699658D01*
X204227Y687413D01*
X192922Y691528D01*
G37*
G36*
X162198Y681076D02*
X149953Y685533D01*
X154068Y696838D01*
X166313Y692381D01*
X162198Y681076D01*
G37*
G36*
X178172Y675262D02*
X165927Y679719D01*
X170042Y691024D01*
X182287Y686567D01*
X178172Y675262D01*
G37*
D17*
G36*
X247310Y737559D02*
X238624Y742575D01*
X243640Y751261D01*
X252326Y746245D01*
X247310Y737559D01*
G37*
G36*
X260300Y730059D02*
X251614Y735075D01*
X256630Y743761D01*
X265316Y738745D01*
X260300Y730059D01*
G37*
D15*
X187823Y772464D02*
X192034Y779757D01*
X199327Y775546D01*
X195116Y768253D01*
X187823Y772464D01*
X188866Y771862D02*
X197200Y771862D01*
X199284Y775471D02*
X189559Y775471D01*
X191643Y779080D02*
X193206Y779080D01*
X207224Y770987D02*
X203013Y763694D01*
X207224Y770987D02*
X214517Y766776D01*
X210306Y759483D01*
X203013Y763694D01*
X204056Y763092D02*
X212390Y763092D01*
X214474Y766701D02*
X204749Y766701D01*
X206833Y770310D02*
X208396Y770310D01*
D14*
G36*
X237844Y720702D02*
X226558Y727218D01*
X232574Y737638D01*
X243860Y731122D01*
X237844Y720702D01*
G37*
G36*
X252566Y712202D02*
X241280Y718718D01*
X247296Y729138D01*
X258582Y722622D01*
X252566Y712202D01*
G37*
G36*
X227942Y768506D02*
X234458Y779792D01*
X244878Y773776D01*
X238362Y762490D01*
X227942Y768506D01*
G37*
G36*
X219442Y753784D02*
X225958Y765070D01*
X236378Y759054D01*
X229862Y747768D01*
X219442Y753784D01*
G37*
G36*
X188064Y747372D02*
X176778Y753888D01*
X182794Y764308D01*
X194080Y757792D01*
X188064Y747372D01*
G37*
G36*
X202786Y738872D02*
X191500Y745388D01*
X197516Y755808D01*
X208802Y749292D01*
X202786Y738872D01*
G37*
D17*
G36*
X282913Y789215D02*
X275229Y795663D01*
X281677Y803347D01*
X289361Y796899D01*
X282913Y789215D01*
G37*
G36*
X294403Y779573D02*
X286719Y786021D01*
X293167Y793705D01*
X300851Y787257D01*
X294403Y779573D01*
G37*
D15*
X229920Y834678D02*
X235333Y841129D01*
X241784Y835716D01*
X236371Y829265D01*
X229920Y834678D01*
X232070Y832874D02*
X239399Y832874D01*
X240870Y836483D02*
X231435Y836483D01*
X234463Y840092D02*
X236569Y840092D01*
X248769Y829855D02*
X243356Y823404D01*
X248769Y829855D02*
X255220Y824442D01*
X249807Y817991D01*
X243356Y823404D01*
X245506Y821600D02*
X252835Y821600D01*
X254306Y825209D02*
X244871Y825209D01*
X247899Y828818D02*
X250005Y828818D01*
D14*
G36*
X268933Y774158D02*
X258951Y782534D01*
X266685Y791750D01*
X276667Y783374D01*
X268933Y774158D01*
G37*
G36*
X281955Y763230D02*
X271973Y771606D01*
X279707Y780822D01*
X289689Y772446D01*
X281955Y763230D01*
G37*
G36*
X268198Y822757D02*
X276574Y832739D01*
X285790Y825005D01*
X277414Y815023D01*
X268198Y822757D01*
G37*
G36*
X257270Y809735D02*
X265646Y819717D01*
X274862Y811983D01*
X266486Y802001D01*
X257270Y809735D01*
G37*
G36*
X225753Y809718D02*
X215771Y818094D01*
X223505Y827310D01*
X233487Y818934D01*
X225753Y809718D01*
G37*
G36*
X238775Y798790D02*
X228793Y807166D01*
X236527Y816382D01*
X246509Y808006D01*
X238775Y798790D01*
G37*
D17*
G36*
X326281Y834339D02*
X319833Y842023D01*
X327517Y848471D01*
X333965Y840787D01*
X326281Y834339D01*
G37*
G36*
X335923Y822849D02*
X329475Y830533D01*
X337159Y836981D01*
X343607Y829297D01*
X335923Y822849D01*
G37*
D15*
X282051Y887597D02*
X288502Y893010D01*
X293915Y886559D01*
X287464Y881146D01*
X282051Y887597D01*
X284436Y884755D02*
X291765Y884755D01*
X292400Y888364D02*
X282965Y888364D01*
X287266Y891973D02*
X289372Y891973D01*
X299776Y879574D02*
X293325Y874161D01*
X299776Y879574D02*
X305189Y873123D01*
X298738Y867710D01*
X293325Y874161D01*
X295710Y871319D02*
X303039Y871319D01*
X303674Y874928D02*
X294239Y874928D01*
X298540Y878537D02*
X300646Y878537D01*
D14*
G36*
X307296Y824423D02*
X298920Y834405D01*
X308136Y842139D01*
X316512Y832157D01*
X307296Y824423D01*
G37*
G36*
X318224Y811401D02*
X309848Y821383D01*
X319064Y829117D01*
X327440Y819135D01*
X318224Y811401D01*
G37*
G36*
X320233Y868974D02*
X330215Y877350D01*
X337949Y868134D01*
X327967Y859758D01*
X320233Y868974D01*
G37*
G36*
X307211Y858046D02*
X317193Y866422D01*
X324927Y857206D01*
X314945Y848830D01*
X307211Y858046D01*
G37*
G36*
X275546Y864813D02*
X267170Y874795D01*
X276386Y882529D01*
X284762Y872547D01*
X275546Y864813D01*
G37*
G36*
X286474Y851791D02*
X278098Y861773D01*
X287314Y869507D01*
X295690Y859525D01*
X286474Y851791D01*
G37*
D17*
G36*
X377445Y871114D02*
X372429Y879800D01*
X381115Y884816D01*
X386131Y876130D01*
X377445Y871114D01*
G37*
G36*
X384945Y858124D02*
X379929Y866810D01*
X388615Y871826D01*
X393631Y863140D01*
X384945Y858124D01*
G37*
D15*
X343173Y931666D02*
X350466Y935877D01*
X354677Y928584D01*
X347384Y924373D01*
X343173Y931666D01*
X345300Y927982D02*
X353634Y927982D01*
X352941Y931591D02*
X343216Y931591D01*
X349294Y935200D02*
X350857Y935200D01*
X359236Y920687D02*
X351943Y916476D01*
X359236Y920687D02*
X363447Y913394D01*
X356154Y909183D01*
X351943Y916476D01*
X354070Y912792D02*
X362404Y912792D01*
X361711Y916401D02*
X351986Y916401D01*
X358064Y920010D02*
X359627Y920010D01*
D14*
G36*
X359308Y863070D02*
X352792Y874356D01*
X363212Y880372D01*
X369728Y869086D01*
X359308Y863070D01*
G37*
G36*
X367808Y848348D02*
X361292Y859634D01*
X371712Y865650D01*
X378228Y854364D01*
X367808Y848348D01*
G37*
G36*
X377420Y908152D02*
X388706Y914668D01*
X394722Y904248D01*
X383436Y897732D01*
X377420Y908152D01*
G37*
G36*
X362698Y899652D02*
X373984Y906168D01*
X380000Y895748D01*
X368714Y889232D01*
X362698Y899652D01*
G37*
G36*
X331368Y910820D02*
X324852Y922106D01*
X335272Y928122D01*
X341788Y916836D01*
X331368Y910820D01*
G37*
G36*
X339868Y896098D02*
X333352Y907384D01*
X343772Y913400D01*
X350288Y902114D01*
X339868Y896098D01*
G37*
D17*
G36*
X433858Y898509D02*
X430426Y907935D01*
X439852Y911367D01*
X443284Y901941D01*
X433858Y898509D01*
G37*
G36*
X438988Y884413D02*
X435556Y893839D01*
X444982Y897271D01*
X448414Y887845D01*
X438988Y884413D01*
G37*
D15*
X410454Y964017D02*
X418367Y966898D01*
X421248Y958985D01*
X413335Y956104D01*
X410454Y964017D01*
X412021Y959713D02*
X420983Y959713D01*
X419669Y963322D02*
X410707Y963322D01*
X416453Y947535D02*
X424366Y950416D01*
X427247Y942503D01*
X419334Y939622D01*
X416453Y947535D01*
X418020Y943231D02*
X426982Y943231D01*
X425668Y946840D02*
X416706Y946840D01*
D14*
G36*
X414039Y893377D02*
X409582Y905622D01*
X420887Y909737D01*
X425344Y897492D01*
X414039Y893377D01*
G37*
G36*
X419853Y877403D02*
X415396Y889648D01*
X426701Y893763D01*
X431158Y881518D01*
X419853Y877403D01*
G37*
G36*
X438717Y934191D02*
X450962Y938648D01*
X455077Y927343D01*
X442832Y922886D01*
X438717Y934191D01*
G37*
G36*
X422743Y928377D02*
X434988Y932834D01*
X439103Y921529D01*
X426858Y917072D01*
X422743Y928377D01*
G37*
G36*
X392959Y944177D02*
X388502Y956422D01*
X399807Y960537D01*
X404264Y948292D01*
X392959Y944177D01*
G37*
G36*
X398773Y928203D02*
X394316Y940448D01*
X405621Y944563D01*
X410078Y932318D01*
X398773Y928203D01*
G37*
D17*
G36*
X494250Y915466D02*
X492508Y925344D01*
X502386Y927086D01*
X504128Y917208D01*
X494250Y915466D01*
G37*
G36*
X496854Y900694D02*
X495112Y910572D01*
X504990Y912314D01*
X506732Y902436D01*
X496854Y900694D01*
G37*
D15*
X483059Y983602D02*
X491352Y985065D01*
X492815Y976772D01*
X484522Y975309D01*
X483059Y983602D01*
X483885Y978918D02*
X492436Y978918D01*
X491800Y982527D02*
X483249Y982527D01*
X486105Y966328D02*
X494398Y967791D01*
X495861Y959498D01*
X487568Y958035D01*
X486105Y966328D01*
X486931Y961644D02*
X495482Y961644D01*
X494846Y965253D02*
X486295Y965253D01*
D14*
G36*
X474811Y914550D02*
X472548Y927383D01*
X484397Y929472D01*
X486660Y916639D01*
X474811Y914550D01*
G37*
G36*
X477763Y897808D02*
X475500Y910641D01*
X487349Y912730D01*
X489612Y899897D01*
X477763Y897808D01*
G37*
G36*
X504340Y948359D02*
X517173Y950622D01*
X519262Y938773D01*
X506429Y936510D01*
X504340Y948359D01*
G37*
G36*
X487598Y945407D02*
X500431Y947670D01*
X502520Y935821D01*
X489687Y933558D01*
X487598Y945407D01*
G37*
G36*
X462611Y967630D02*
X460348Y980463D01*
X472197Y982552D01*
X474460Y969719D01*
X462611Y967630D01*
G37*
G36*
X465563Y950888D02*
X463300Y963721D01*
X475149Y965810D01*
X477412Y952977D01*
X465563Y950888D01*
G37*
M02*
