G04 EAGLE Gerber X2 export*
G75*
%MOMM*%
%FSLAX34Y34*%
%LPD*%
%AMOC8*
5,1,8,0,0,1.08239X$1,22.5*%
G01*
%ADD10R,1.270000X2.032000*%
%ADD11R,1.150000X0.250000*%
%ADD12R,0.800000X1.200000*%


D10*
X650748Y909832D03*
X650748Y968252D03*
X625348Y968252D03*
X625348Y909832D03*
X599948Y968252D03*
X599948Y909832D03*
X574548Y968252D03*
X574548Y909832D03*
X549148Y968252D03*
X549148Y909832D03*
X523748Y968252D03*
X523748Y909832D03*
X498348Y968252D03*
X498348Y909832D03*
X472948Y968252D03*
X472948Y909832D03*
D11*
G36*
X945966Y518367D02*
X954096Y510237D01*
X952328Y508469D01*
X944198Y516599D01*
X945966Y518367D01*
G37*
G36*
X949501Y521902D02*
X957631Y513772D01*
X955863Y512004D01*
X947733Y520134D01*
X949501Y521902D01*
G37*
G36*
X953037Y525438D02*
X961167Y517308D01*
X959399Y515540D01*
X951269Y523670D01*
X953037Y525438D01*
G37*
G36*
X956572Y528974D02*
X964702Y520844D01*
X962934Y519076D01*
X954804Y527206D01*
X956572Y528974D01*
G37*
G36*
X960108Y532509D02*
X968238Y524379D01*
X966470Y522611D01*
X958340Y530741D01*
X960108Y532509D01*
G37*
G36*
X963644Y536045D02*
X971774Y527915D01*
X970006Y526147D01*
X961876Y534277D01*
X963644Y536045D01*
G37*
G36*
X967179Y539580D02*
X975309Y531450D01*
X973541Y529682D01*
X965411Y537812D01*
X967179Y539580D01*
G37*
G36*
X970715Y543116D02*
X978845Y534986D01*
X977077Y533218D01*
X968947Y541348D01*
X970715Y543116D01*
G37*
G36*
X974250Y546651D02*
X982380Y538521D01*
X980612Y536753D01*
X972482Y544883D01*
X974250Y546651D01*
G37*
G36*
X977786Y550187D02*
X985916Y542057D01*
X984148Y540289D01*
X976018Y548419D01*
X977786Y550187D01*
G37*
G36*
X981321Y553722D02*
X989451Y545592D01*
X987683Y543824D01*
X979553Y551954D01*
X981321Y553722D01*
G37*
G36*
X984857Y557258D02*
X992987Y549128D01*
X991219Y547360D01*
X983089Y555490D01*
X984857Y557258D01*
G37*
G36*
X983089Y568220D02*
X991219Y576350D01*
X992987Y574582D01*
X984857Y566452D01*
X983089Y568220D01*
G37*
G36*
X979553Y571755D02*
X987683Y579885D01*
X989451Y578117D01*
X981321Y569987D01*
X979553Y571755D01*
G37*
G36*
X976018Y575291D02*
X984148Y583421D01*
X985916Y581653D01*
X977786Y573523D01*
X976018Y575291D01*
G37*
G36*
X972482Y578826D02*
X980612Y586956D01*
X982380Y585188D01*
X974250Y577058D01*
X972482Y578826D01*
G37*
G36*
X968947Y582362D02*
X977077Y590492D01*
X978845Y588724D01*
X970715Y580594D01*
X968947Y582362D01*
G37*
G36*
X965411Y585897D02*
X973541Y594027D01*
X975309Y592259D01*
X967179Y584129D01*
X965411Y585897D01*
G37*
G36*
X961876Y589433D02*
X970006Y597563D01*
X971774Y595795D01*
X963644Y587665D01*
X961876Y589433D01*
G37*
G36*
X958340Y592968D02*
X966470Y601098D01*
X968238Y599330D01*
X960108Y591200D01*
X958340Y592968D01*
G37*
G36*
X954804Y596504D02*
X962934Y604634D01*
X964702Y602866D01*
X956572Y594736D01*
X954804Y596504D01*
G37*
G36*
X951269Y600039D02*
X959399Y608169D01*
X961167Y606401D01*
X953037Y598271D01*
X951269Y600039D01*
G37*
G36*
X947733Y603575D02*
X955863Y611705D01*
X957631Y609937D01*
X949501Y601807D01*
X947733Y603575D01*
G37*
G36*
X944198Y607111D02*
X952328Y615241D01*
X954096Y613473D01*
X945966Y605343D01*
X944198Y607111D01*
G37*
G36*
X933236Y605343D02*
X925106Y613473D01*
X926874Y615241D01*
X935004Y607111D01*
X933236Y605343D01*
G37*
G36*
X929700Y601807D02*
X921570Y609937D01*
X923338Y611705D01*
X931468Y603575D01*
X929700Y601807D01*
G37*
G36*
X926165Y598271D02*
X918035Y606401D01*
X919803Y608169D01*
X927933Y600039D01*
X926165Y598271D01*
G37*
G36*
X922629Y594736D02*
X914499Y602866D01*
X916267Y604634D01*
X924397Y596504D01*
X922629Y594736D01*
G37*
G36*
X919094Y591200D02*
X910964Y599330D01*
X912732Y601098D01*
X920862Y592968D01*
X919094Y591200D01*
G37*
G36*
X915558Y587665D02*
X907428Y595795D01*
X909196Y597563D01*
X917326Y589433D01*
X915558Y587665D01*
G37*
G36*
X912023Y584129D02*
X903893Y592259D01*
X905661Y594027D01*
X913791Y585897D01*
X912023Y584129D01*
G37*
G36*
X908487Y580594D02*
X900357Y588724D01*
X902125Y590492D01*
X910255Y582362D01*
X908487Y580594D01*
G37*
G36*
X904952Y577058D02*
X896822Y585188D01*
X898590Y586956D01*
X906720Y578826D01*
X904952Y577058D01*
G37*
G36*
X901416Y573523D02*
X893286Y581653D01*
X895054Y583421D01*
X903184Y575291D01*
X901416Y573523D01*
G37*
G36*
X897881Y569987D02*
X889751Y578117D01*
X891519Y579885D01*
X899649Y571755D01*
X897881Y569987D01*
G37*
G36*
X894345Y566452D02*
X886215Y574582D01*
X887983Y576350D01*
X896113Y568220D01*
X894345Y566452D01*
G37*
G36*
X896113Y555490D02*
X887983Y547360D01*
X886215Y549128D01*
X894345Y557258D01*
X896113Y555490D01*
G37*
G36*
X899649Y551954D02*
X891519Y543824D01*
X889751Y545592D01*
X897881Y553722D01*
X899649Y551954D01*
G37*
G36*
X903184Y548419D02*
X895054Y540289D01*
X893286Y542057D01*
X901416Y550187D01*
X903184Y548419D01*
G37*
G36*
X906720Y544883D02*
X898590Y536753D01*
X896822Y538521D01*
X904952Y546651D01*
X906720Y544883D01*
G37*
G36*
X910255Y541348D02*
X902125Y533218D01*
X900357Y534986D01*
X908487Y543116D01*
X910255Y541348D01*
G37*
G36*
X913791Y537812D02*
X905661Y529682D01*
X903893Y531450D01*
X912023Y539580D01*
X913791Y537812D01*
G37*
G36*
X917326Y534277D02*
X909196Y526147D01*
X907428Y527915D01*
X915558Y536045D01*
X917326Y534277D01*
G37*
G36*
X920862Y530741D02*
X912732Y522611D01*
X910964Y524379D01*
X919094Y532509D01*
X920862Y530741D01*
G37*
G36*
X924397Y527206D02*
X916267Y519076D01*
X914499Y520844D01*
X922629Y528974D01*
X924397Y527206D01*
G37*
G36*
X927933Y523670D02*
X919803Y515540D01*
X918035Y517308D01*
X926165Y525438D01*
X927933Y523670D01*
G37*
G36*
X931468Y520134D02*
X923338Y512004D01*
X921570Y513772D01*
X929700Y521902D01*
X931468Y520134D01*
G37*
G36*
X935004Y516599D02*
X926874Y508469D01*
X925106Y510237D01*
X933236Y518367D01*
X935004Y516599D01*
G37*
D12*
X546464Y991362D03*
X528464Y991362D03*
M02*
