G04 EAGLE Gerber X2 export*
G75*
%MOMM*%
%FSLAX34Y34*%
%LPD*%
%AMOC8*
5,1,8,0,0,1.08239X$1,22.5*%
G01*
%ADD10C,3.303200*%
%ADD11C,3.303250*%
%ADD12C,60.203225*%
%ADD13C,3.303225*%
%ADD14R,1.473200X2.235200*%
%ADD15R,1.250000X0.350000*%
%ADD16R,1.003200X1.403200*%


D10*
X35000Y561723D03*
D11*
X1088446Y561723D03*
D12*
X561723Y561723D03*
D13*
X561723Y1088446D03*
X561723Y35000D03*
D14*
X650748Y909832D03*
X650748Y968252D03*
X625348Y968252D03*
X625348Y909832D03*
X599948Y968252D03*
X599948Y909832D03*
X574548Y968252D03*
X574548Y909832D03*
X549148Y968252D03*
X549148Y909832D03*
X523748Y968252D03*
X523748Y909832D03*
X498348Y968252D03*
X498348Y909832D03*
X472948Y968252D03*
X472948Y909832D03*
D15*
G36*
X945966Y519074D02*
X954803Y510237D01*
X952328Y507762D01*
X943491Y516599D01*
X945966Y519074D01*
G37*
G36*
X949501Y522609D02*
X958338Y513772D01*
X955863Y511297D01*
X947026Y520134D01*
X949501Y522609D01*
G37*
G36*
X953037Y526145D02*
X961874Y517308D01*
X959399Y514833D01*
X950562Y523670D01*
X953037Y526145D01*
G37*
G36*
X956572Y529681D02*
X965409Y520844D01*
X962934Y518369D01*
X954097Y527206D01*
X956572Y529681D01*
G37*
G36*
X960108Y533216D02*
X968945Y524379D01*
X966470Y521904D01*
X957633Y530741D01*
X960108Y533216D01*
G37*
G36*
X963644Y536752D02*
X972481Y527915D01*
X970006Y525440D01*
X961169Y534277D01*
X963644Y536752D01*
G37*
G36*
X967179Y540287D02*
X976016Y531450D01*
X973541Y528975D01*
X964704Y537812D01*
X967179Y540287D01*
G37*
G36*
X970715Y543823D02*
X979552Y534986D01*
X977077Y532511D01*
X968240Y541348D01*
X970715Y543823D01*
G37*
G36*
X974250Y547358D02*
X983087Y538521D01*
X980612Y536046D01*
X971775Y544883D01*
X974250Y547358D01*
G37*
G36*
X977786Y550894D02*
X986623Y542057D01*
X984148Y539582D01*
X975311Y548419D01*
X977786Y550894D01*
G37*
G36*
X981321Y554429D02*
X990158Y545592D01*
X987683Y543117D01*
X978846Y551954D01*
X981321Y554429D01*
G37*
G36*
X984857Y557965D02*
X993694Y549128D01*
X991219Y546653D01*
X982382Y555490D01*
X984857Y557965D01*
G37*
G36*
X982382Y568220D02*
X991219Y577057D01*
X993694Y574582D01*
X984857Y565745D01*
X982382Y568220D01*
G37*
G36*
X978846Y571755D02*
X987683Y580592D01*
X990158Y578117D01*
X981321Y569280D01*
X978846Y571755D01*
G37*
G36*
X975311Y575291D02*
X984148Y584128D01*
X986623Y581653D01*
X977786Y572816D01*
X975311Y575291D01*
G37*
G36*
X971775Y578826D02*
X980612Y587663D01*
X983087Y585188D01*
X974250Y576351D01*
X971775Y578826D01*
G37*
G36*
X968240Y582362D02*
X977077Y591199D01*
X979552Y588724D01*
X970715Y579887D01*
X968240Y582362D01*
G37*
G36*
X964704Y585897D02*
X973541Y594734D01*
X976016Y592259D01*
X967179Y583422D01*
X964704Y585897D01*
G37*
G36*
X961169Y589433D02*
X970006Y598270D01*
X972481Y595795D01*
X963644Y586958D01*
X961169Y589433D01*
G37*
G36*
X957633Y592968D02*
X966470Y601805D01*
X968945Y599330D01*
X960108Y590493D01*
X957633Y592968D01*
G37*
G36*
X954097Y596504D02*
X962934Y605341D01*
X965409Y602866D01*
X956572Y594029D01*
X954097Y596504D01*
G37*
G36*
X950562Y600039D02*
X959399Y608876D01*
X961874Y606401D01*
X953037Y597564D01*
X950562Y600039D01*
G37*
G36*
X947026Y603575D02*
X955863Y612412D01*
X958338Y609937D01*
X949501Y601100D01*
X947026Y603575D01*
G37*
G36*
X943491Y607111D02*
X952328Y615948D01*
X954803Y613473D01*
X945966Y604636D01*
X943491Y607111D01*
G37*
G36*
X933236Y604636D02*
X924399Y613473D01*
X926874Y615948D01*
X935711Y607111D01*
X933236Y604636D01*
G37*
G36*
X929700Y601100D02*
X920863Y609937D01*
X923338Y612412D01*
X932175Y603575D01*
X929700Y601100D01*
G37*
G36*
X926165Y597564D02*
X917328Y606401D01*
X919803Y608876D01*
X928640Y600039D01*
X926165Y597564D01*
G37*
G36*
X922629Y594029D02*
X913792Y602866D01*
X916267Y605341D01*
X925104Y596504D01*
X922629Y594029D01*
G37*
G36*
X919094Y590493D02*
X910257Y599330D01*
X912732Y601805D01*
X921569Y592968D01*
X919094Y590493D01*
G37*
G36*
X915558Y586958D02*
X906721Y595795D01*
X909196Y598270D01*
X918033Y589433D01*
X915558Y586958D01*
G37*
G36*
X912023Y583422D02*
X903186Y592259D01*
X905661Y594734D01*
X914498Y585897D01*
X912023Y583422D01*
G37*
G36*
X908487Y579887D02*
X899650Y588724D01*
X902125Y591199D01*
X910962Y582362D01*
X908487Y579887D01*
G37*
G36*
X904952Y576351D02*
X896115Y585188D01*
X898590Y587663D01*
X907427Y578826D01*
X904952Y576351D01*
G37*
G36*
X901416Y572816D02*
X892579Y581653D01*
X895054Y584128D01*
X903891Y575291D01*
X901416Y572816D01*
G37*
G36*
X897881Y569280D02*
X889044Y578117D01*
X891519Y580592D01*
X900356Y571755D01*
X897881Y569280D01*
G37*
G36*
X894345Y565745D02*
X885508Y574582D01*
X887983Y577057D01*
X896820Y568220D01*
X894345Y565745D01*
G37*
G36*
X896820Y555490D02*
X887983Y546653D01*
X885508Y549128D01*
X894345Y557965D01*
X896820Y555490D01*
G37*
G36*
X900356Y551954D02*
X891519Y543117D01*
X889044Y545592D01*
X897881Y554429D01*
X900356Y551954D01*
G37*
G36*
X903891Y548419D02*
X895054Y539582D01*
X892579Y542057D01*
X901416Y550894D01*
X903891Y548419D01*
G37*
G36*
X907427Y544883D02*
X898590Y536046D01*
X896115Y538521D01*
X904952Y547358D01*
X907427Y544883D01*
G37*
G36*
X910962Y541348D02*
X902125Y532511D01*
X899650Y534986D01*
X908487Y543823D01*
X910962Y541348D01*
G37*
G36*
X914498Y537812D02*
X905661Y528975D01*
X903186Y531450D01*
X912023Y540287D01*
X914498Y537812D01*
G37*
G36*
X918033Y534277D02*
X909196Y525440D01*
X906721Y527915D01*
X915558Y536752D01*
X918033Y534277D01*
G37*
G36*
X921569Y530741D02*
X912732Y521904D01*
X910257Y524379D01*
X919094Y533216D01*
X921569Y530741D01*
G37*
G36*
X925104Y527206D02*
X916267Y518369D01*
X913792Y520844D01*
X922629Y529681D01*
X925104Y527206D01*
G37*
G36*
X928640Y523670D02*
X919803Y514833D01*
X917328Y517308D01*
X926165Y526145D01*
X928640Y523670D01*
G37*
G36*
X932175Y520134D02*
X923338Y511297D01*
X920863Y513772D01*
X929700Y522609D01*
X932175Y520134D01*
G37*
G36*
X935711Y516599D02*
X926874Y507762D01*
X924399Y510237D01*
X933236Y519074D01*
X935711Y516599D01*
G37*
D16*
X546464Y991362D03*
X528464Y991362D03*
M02*
