M48
;GenerationSoftware,Autodesk,EAGLE,8.7.0*%
;CreationDate,2018-03-10T10:37:42Z*%
FMAT,2
ICI,OFF
METRIC,TZ,000.000
T5C0.508
T4C3.100
T3C3.100
T2C3.100
T1C60.000
%
G90
M71
T1
X56172Y56172
T2
X108845Y56172
T3
X56172Y3500
X56172Y108845
T4
X3500Y56172
T5
X21438Y80340
X17932Y73914
X15392Y67081
X13259Y59842
X13030Y52857
X15443Y45136
X17805Y37973
X21666Y31953
X26670Y25959
X31852Y21184
X45695Y15088
X52680Y13665
X59969Y14072
X74066Y17678
X80696Y21336
X86309Y26289
X91288Y32283
X97307Y45161
X104064Y55220
X90754Y80721
X85903Y86614
X80213Y91161
X37363Y94082
X31496Y90297
X94717Y38100
X44755Y97079
X66954Y15240
X38176Y18136
X52756Y100940
X59842Y101168
X66929Y97028
X73863Y94793
X93751Y59334
X98730Y66700
X96164Y73914
X56413Y100660
X72619Y94158
X56413Y101879
X83668Y85014
X100740Y61965
X99408Y64920
X88392Y79705
X93293Y75056
X95680Y67790
X94920Y57861
X93243Y53950
X96266Y46558
X95072Y39573
X90043Y34011
X85903Y28016
X80620Y23419
X74320Y19431
X67640Y17729
X61036Y16180
X53746Y15951
X46482Y17501
X40081Y19101
X33934Y22098
X36754Y27051
X32385Y31039
X28626Y35916
X24765Y40919
X23139Y46380
X23978Y54331
X23825Y61316
X23139Y64135
X26238Y76200
X29235Y82347
X33884Y87782
X94097Y66355
X92197Y73782
X87790Y78189
X45720Y90373
X44501Y94945
X26314Y85776
X50216Y98552
X51486Y98552
X88062Y56286
X78308Y89510
M30