G04 EAGLE Gerber X2 export*
G75*
%MOMM*%
%FSLAX34Y34*%
%LPD*%
%AMOC8*
5,1,8,0,0,1.08239X$1,22.5*%
G01*
%ADD10C,0.000000*%
%ADD11C,0.254000*%
%ADD12R,1.270000X2.032000*%
%ADD13R,0.300000X1.200000*%
%ADD14R,1.200000X0.300000*%
%ADD15R,0.800000X1.200000*%
%ADD16C,1.016000*%
%ADD17C,0.304800*%
%ADD18C,0.762000*%
%ADD19C,0.254000*%

G36*
X561771Y4833D02*
X561771Y4833D01*
X561836Y4830D01*
X561907Y4841D01*
X562012Y4847D01*
X569941Y5987D01*
X570061Y6017D01*
X570183Y6038D01*
X570269Y6068D01*
X570331Y6084D01*
X570397Y6115D01*
X570495Y6150D01*
X577782Y9478D01*
X577889Y9540D01*
X578000Y9594D01*
X578073Y9648D01*
X578129Y9680D01*
X578183Y9728D01*
X578268Y9790D01*
X584322Y15036D01*
X584407Y15126D01*
X584499Y15209D01*
X584554Y15281D01*
X584598Y15328D01*
X584636Y15389D01*
X584700Y15473D01*
X589031Y22211D01*
X589087Y22322D01*
X589152Y22427D01*
X589184Y22512D01*
X589214Y22570D01*
X589233Y22639D01*
X589271Y22737D01*
X591528Y30423D01*
X591537Y30473D01*
X591554Y30522D01*
X591589Y30748D01*
X591602Y30818D01*
X591602Y30833D01*
X591605Y30850D01*
X591891Y34855D01*
X591889Y34916D01*
X591896Y35000D01*
X591896Y59766D01*
X594743Y74152D01*
X600328Y87711D01*
X608438Y99929D01*
X618766Y110339D01*
X630919Y118547D01*
X631364Y118735D01*
X631365Y118735D01*
X636186Y120766D01*
X636187Y120766D01*
X641009Y122797D01*
X644433Y124240D01*
X650278Y125445D01*
X650279Y125445D01*
X651614Y125720D01*
X651634Y125726D01*
X651659Y125730D01*
X670996Y130170D01*
X671050Y130189D01*
X671127Y130205D01*
X709109Y141658D01*
X709176Y141686D01*
X709280Y141718D01*
X746085Y156522D01*
X746150Y156556D01*
X746250Y156597D01*
X781583Y174633D01*
X781645Y174673D01*
X781741Y174723D01*
X815320Y195846D01*
X815378Y195892D01*
X815470Y195950D01*
X847025Y219992D01*
X847078Y220042D01*
X847164Y220108D01*
X876443Y246876D01*
X876492Y246930D01*
X876571Y247004D01*
X903339Y276283D01*
X903383Y276342D01*
X903455Y276422D01*
X927497Y307977D01*
X927536Y308040D01*
X927601Y308127D01*
X948724Y341705D01*
X948757Y341771D01*
X948814Y341864D01*
X966850Y377197D01*
X966877Y377265D01*
X966925Y377362D01*
X981729Y414167D01*
X981749Y414238D01*
X981789Y414338D01*
X993242Y452319D01*
X993253Y452376D01*
X993277Y452451D01*
X997717Y471788D01*
X997720Y471808D01*
X997727Y471833D01*
X998002Y473168D01*
X998002Y473169D01*
X999207Y479014D01*
X1004900Y492528D01*
X1013108Y504680D01*
X1023518Y515008D01*
X1035735Y523118D01*
X1049294Y528703D01*
X1063680Y531550D01*
X1069736Y531550D01*
X1088446Y531550D01*
X1088507Y531556D01*
X1088591Y531555D01*
X1092596Y531841D01*
X1092647Y531850D01*
X1092698Y531851D01*
X1092923Y531898D01*
X1092993Y531910D01*
X1093006Y531915D01*
X1093023Y531918D01*
X1100709Y534175D01*
X1100824Y534222D01*
X1100942Y534259D01*
X1101022Y534302D01*
X1101082Y534326D01*
X1101142Y534366D01*
X1101235Y534415D01*
X1107973Y538746D01*
X1108071Y538823D01*
X1108173Y538892D01*
X1108238Y538956D01*
X1108289Y538996D01*
X1108335Y539051D01*
X1108410Y539124D01*
X1113656Y545178D01*
X1113727Y545279D01*
X1113806Y545375D01*
X1113851Y545454D01*
X1113888Y545507D01*
X1113917Y545573D01*
X1113968Y545664D01*
X1117296Y552951D01*
X1117336Y553068D01*
X1117385Y553182D01*
X1117405Y553270D01*
X1117426Y553332D01*
X1117435Y553403D01*
X1117459Y553505D01*
X1118599Y561434D01*
X1118604Y561558D01*
X1118619Y561681D01*
X1118613Y561771D01*
X1118616Y561836D01*
X1118605Y561907D01*
X1118599Y562012D01*
X1117459Y569941D01*
X1117429Y570061D01*
X1117408Y570183D01*
X1117378Y570269D01*
X1117362Y570331D01*
X1117331Y570397D01*
X1117296Y570495D01*
X1113968Y577782D01*
X1113906Y577889D01*
X1113852Y578000D01*
X1113798Y578073D01*
X1113766Y578129D01*
X1113718Y578183D01*
X1113656Y578268D01*
X1108410Y584322D01*
X1108320Y584407D01*
X1108237Y584499D01*
X1108165Y584554D01*
X1108118Y584598D01*
X1108057Y584636D01*
X1107973Y584700D01*
X1101235Y589031D01*
X1101124Y589087D01*
X1101019Y589152D01*
X1100934Y589184D01*
X1100876Y589214D01*
X1100807Y589233D01*
X1100709Y589271D01*
X1093023Y591528D01*
X1092973Y591537D01*
X1092924Y591554D01*
X1092698Y591589D01*
X1092628Y591602D01*
X1092613Y591602D01*
X1092596Y591605D01*
X1088591Y591891D01*
X1088530Y591889D01*
X1088446Y591896D01*
X1069648Y591896D01*
X1063680Y591896D01*
X1049294Y594743D01*
X1035735Y600328D01*
X1023518Y608439D01*
X1017369Y614539D01*
X1017358Y614548D01*
X1017349Y614558D01*
X1017202Y614674D01*
X1017056Y614793D01*
X1017044Y614799D01*
X1017033Y614808D01*
X1016866Y614893D01*
X1016700Y614980D01*
X1016686Y614984D01*
X1016674Y614990D01*
X1016493Y615041D01*
X1016313Y615093D01*
X1016300Y615095D01*
X1016286Y615098D01*
X1016098Y615112D01*
X1015912Y615128D01*
X1015898Y615127D01*
X1015885Y615128D01*
X1015698Y615104D01*
X1015512Y615083D01*
X1015499Y615079D01*
X1015485Y615077D01*
X1015307Y615017D01*
X1015129Y614960D01*
X1015117Y614953D01*
X1015104Y614949D01*
X1014942Y614856D01*
X1014777Y614764D01*
X1014767Y614755D01*
X1014755Y614748D01*
X1014502Y614533D01*
X1012293Y612325D01*
X1009553Y611190D01*
X1009534Y611179D01*
X1009512Y611172D01*
X1009356Y611084D01*
X1009198Y611000D01*
X1009181Y610985D01*
X1009162Y610974D01*
X1009026Y610858D01*
X1008888Y610743D01*
X1008874Y610726D01*
X1008857Y610711D01*
X1008747Y610570D01*
X1008634Y610431D01*
X1008624Y610411D01*
X1008610Y610393D01*
X1008530Y610232D01*
X1008447Y610074D01*
X1008441Y610053D01*
X1008431Y610033D01*
X1008384Y609859D01*
X1008334Y609688D01*
X1008332Y609665D01*
X1008326Y609644D01*
X1008299Y609313D01*
X1008299Y586155D01*
X1007564Y584381D01*
X1005921Y582738D01*
X997493Y574310D01*
X997476Y574289D01*
X997455Y574272D01*
X997348Y574134D01*
X997238Y573998D01*
X997225Y573975D01*
X997209Y573953D01*
X997131Y573796D01*
X997049Y573642D01*
X997041Y573617D01*
X997029Y573593D01*
X996984Y573423D01*
X996934Y573257D01*
X996932Y573230D01*
X996925Y573204D01*
X996919Y573130D01*
X987079Y563291D01*
X987068Y563277D01*
X987054Y563266D01*
X986941Y563121D01*
X986824Y562980D01*
X986816Y562964D01*
X986805Y562950D01*
X986722Y562786D01*
X986636Y562624D01*
X986631Y562607D01*
X986622Y562591D01*
X986573Y562413D01*
X986521Y562238D01*
X986519Y562220D01*
X986514Y562203D01*
X986501Y562020D01*
X986484Y561837D01*
X986486Y561819D01*
X986485Y561801D01*
X986508Y561619D01*
X986528Y561437D01*
X986533Y561420D01*
X986536Y561402D01*
X986594Y561228D01*
X986649Y561053D01*
X986658Y561037D01*
X986664Y561020D01*
X986756Y560861D01*
X986844Y560700D01*
X986856Y560687D01*
X986865Y560671D01*
X987079Y560418D01*
X996898Y550600D01*
X996898Y547654D01*
X992099Y542854D01*
X992098Y542854D01*
X992027Y542782D01*
X992012Y542765D01*
X991995Y542750D01*
X991885Y542610D01*
X991771Y542471D01*
X991761Y542451D01*
X991747Y542433D01*
X991667Y542274D01*
X991583Y542115D01*
X991576Y542094D01*
X991566Y542074D01*
X991519Y541901D01*
X991468Y541729D01*
X991466Y541707D01*
X991460Y541685D01*
X991448Y541507D01*
X991431Y541329D01*
X991434Y541306D01*
X991432Y541284D01*
X991455Y541107D01*
X991475Y540928D01*
X991482Y540907D01*
X991485Y540884D01*
X991586Y540568D01*
X991900Y539811D01*
X991900Y530763D01*
X991165Y528989D01*
X981462Y519286D01*
X981445Y519265D01*
X981425Y519248D01*
X981318Y519110D01*
X981207Y518975D01*
X981194Y518951D01*
X981178Y518930D01*
X981100Y518773D01*
X981018Y518619D01*
X981011Y518593D01*
X980999Y518569D01*
X980953Y518400D01*
X980903Y518233D01*
X980901Y518206D01*
X980894Y518180D01*
X980867Y517850D01*
X980867Y495573D01*
X980132Y493799D01*
X978489Y492155D01*
X968082Y481748D01*
X968065Y481728D01*
X968044Y481710D01*
X967937Y481572D01*
X967827Y481437D01*
X967814Y481413D01*
X967798Y481392D01*
X967720Y481235D01*
X967638Y481081D01*
X967630Y481056D01*
X967618Y481032D01*
X967573Y480862D01*
X967523Y480695D01*
X967521Y480669D01*
X967514Y480643D01*
X967487Y480312D01*
X967487Y473811D01*
X967489Y473784D01*
X967487Y473758D01*
X967509Y473584D01*
X967527Y473410D01*
X967534Y473385D01*
X967538Y473358D01*
X967593Y473192D01*
X967645Y473025D01*
X967658Y473002D01*
X967666Y472976D01*
X967753Y472825D01*
X967837Y472671D01*
X967854Y472651D01*
X967867Y472628D01*
X968082Y472375D01*
X969982Y470474D01*
X971297Y467300D01*
X971297Y463864D01*
X969982Y460690D01*
X967552Y458260D01*
X964378Y456945D01*
X960942Y456945D01*
X957768Y458260D01*
X955338Y460690D01*
X955040Y461410D01*
X955038Y461414D01*
X955036Y461418D01*
X954943Y461591D01*
X954850Y461765D01*
X954847Y461768D01*
X954845Y461772D01*
X954721Y461921D01*
X954593Y462075D01*
X954590Y462078D01*
X954587Y462081D01*
X954434Y462204D01*
X954281Y462329D01*
X954277Y462331D01*
X954273Y462334D01*
X954100Y462424D01*
X953924Y462516D01*
X953920Y462517D01*
X953916Y462519D01*
X953728Y462573D01*
X953538Y462629D01*
X953533Y462629D01*
X953529Y462631D01*
X953331Y462647D01*
X953137Y462664D01*
X953132Y462663D01*
X953128Y462663D01*
X952933Y462641D01*
X952737Y462618D01*
X952732Y462617D01*
X952728Y462616D01*
X952542Y462556D01*
X952353Y462495D01*
X952349Y462493D01*
X952345Y462492D01*
X952174Y462395D01*
X952002Y462299D01*
X951998Y462296D01*
X951994Y462294D01*
X951846Y462166D01*
X951696Y462037D01*
X951693Y462033D01*
X951690Y462031D01*
X951570Y461876D01*
X951448Y461720D01*
X951446Y461716D01*
X951443Y461712D01*
X951354Y461534D01*
X951267Y461360D01*
X951266Y461356D01*
X951264Y461352D01*
X951212Y461160D01*
X951161Y460972D01*
X951160Y460967D01*
X951159Y460963D01*
X951132Y460632D01*
X951132Y408069D01*
X951135Y408043D01*
X951133Y408016D01*
X951155Y407842D01*
X951172Y407669D01*
X951180Y407643D01*
X951183Y407617D01*
X951239Y407451D01*
X951290Y407284D01*
X951303Y407260D01*
X951311Y407235D01*
X951399Y407083D01*
X951482Y406930D01*
X951499Y406909D01*
X951512Y406886D01*
X951727Y406633D01*
X953170Y405190D01*
X954803Y403557D01*
X954827Y403538D01*
X954847Y403514D01*
X954983Y403410D01*
X955114Y403302D01*
X955142Y403288D01*
X955166Y403269D01*
X955462Y403117D01*
X955614Y403054D01*
X958044Y400624D01*
X959359Y397450D01*
X959359Y394014D01*
X958044Y390840D01*
X955614Y388410D01*
X952440Y387095D01*
X949004Y387095D01*
X945830Y388410D01*
X943400Y390840D01*
X942127Y393913D01*
X942121Y393925D01*
X942117Y393938D01*
X942026Y394102D01*
X941937Y394268D01*
X941928Y394278D01*
X941922Y394290D01*
X941801Y394433D01*
X941680Y394578D01*
X941670Y394587D01*
X941661Y394597D01*
X941514Y394714D01*
X941368Y394832D01*
X941356Y394838D01*
X941345Y394847D01*
X941177Y394932D01*
X941011Y395019D01*
X940999Y395023D01*
X940987Y395029D01*
X940805Y395080D01*
X940625Y395132D01*
X940612Y395133D01*
X940599Y395137D01*
X940410Y395151D01*
X940224Y395167D01*
X940211Y395165D01*
X940197Y395166D01*
X940009Y395143D01*
X939824Y395122D01*
X939811Y395118D01*
X939798Y395116D01*
X939619Y395056D01*
X939440Y394999D01*
X939429Y394992D01*
X939416Y394988D01*
X939253Y394894D01*
X939089Y394802D01*
X939079Y394794D01*
X939067Y394787D01*
X938814Y394572D01*
X905852Y361610D01*
X905835Y361589D01*
X905814Y361572D01*
X905707Y361434D01*
X905597Y361298D01*
X905584Y361275D01*
X905568Y361253D01*
X905490Y361096D01*
X905408Y360942D01*
X905400Y360917D01*
X905388Y360893D01*
X905343Y360723D01*
X905293Y360557D01*
X905291Y360530D01*
X905284Y360504D01*
X905257Y360173D01*
X905257Y348335D01*
X905259Y348308D01*
X905257Y348282D01*
X905279Y348108D01*
X905297Y347934D01*
X905304Y347909D01*
X905308Y347882D01*
X905363Y347716D01*
X905415Y347549D01*
X905428Y347526D01*
X905436Y347500D01*
X905523Y347349D01*
X905607Y347195D01*
X905624Y347175D01*
X905637Y347152D01*
X905852Y346899D01*
X907752Y344998D01*
X909067Y341824D01*
X909067Y338388D01*
X907752Y335214D01*
X905322Y332784D01*
X902148Y331469D01*
X898712Y331469D01*
X895538Y332784D01*
X893108Y335214D01*
X891793Y338388D01*
X891793Y341824D01*
X893108Y344998D01*
X895008Y346899D01*
X895025Y346919D01*
X895046Y346937D01*
X895153Y347075D01*
X895263Y347210D01*
X895276Y347234D01*
X895292Y347255D01*
X895370Y347412D01*
X895452Y347566D01*
X895460Y347591D01*
X895472Y347615D01*
X895517Y347785D01*
X895567Y347952D01*
X895569Y347978D01*
X895576Y348004D01*
X895603Y348335D01*
X895603Y352923D01*
X895602Y352932D01*
X895603Y352941D01*
X895582Y353134D01*
X895563Y353324D01*
X895561Y353332D01*
X895560Y353341D01*
X895501Y353526D01*
X895445Y353709D01*
X895441Y353717D01*
X895438Y353725D01*
X895345Y353893D01*
X895253Y354063D01*
X895248Y354070D01*
X895243Y354077D01*
X895119Y354225D01*
X894996Y354372D01*
X894989Y354378D01*
X894983Y354384D01*
X894831Y354504D01*
X894682Y354624D01*
X894674Y354629D01*
X894667Y354634D01*
X894494Y354722D01*
X894325Y354810D01*
X894316Y354812D01*
X894308Y354816D01*
X894122Y354868D01*
X893938Y354921D01*
X893929Y354922D01*
X893920Y354924D01*
X893727Y354939D01*
X893536Y354954D01*
X893528Y354953D01*
X893519Y354954D01*
X893326Y354930D01*
X893137Y354907D01*
X893128Y354905D01*
X893119Y354903D01*
X892937Y354842D01*
X892754Y354782D01*
X892746Y354778D01*
X892738Y354775D01*
X892571Y354679D01*
X892403Y354585D01*
X892396Y354579D01*
X892389Y354574D01*
X892136Y354360D01*
X864450Y326674D01*
X864433Y326653D01*
X864412Y326635D01*
X864305Y326497D01*
X864195Y326362D01*
X864182Y326338D01*
X864166Y326317D01*
X864088Y326160D01*
X864006Y326006D01*
X863998Y325981D01*
X863986Y325957D01*
X863941Y325787D01*
X863891Y325620D01*
X863889Y325594D01*
X863882Y325568D01*
X863855Y325237D01*
X863855Y288391D01*
X863857Y288364D01*
X863855Y288338D01*
X863877Y288164D01*
X863895Y287990D01*
X863902Y287965D01*
X863906Y287938D01*
X863961Y287772D01*
X864013Y287605D01*
X864026Y287582D01*
X864034Y287556D01*
X864121Y287405D01*
X864205Y287251D01*
X864222Y287231D01*
X864235Y287208D01*
X864450Y286955D01*
X866350Y285054D01*
X867665Y281880D01*
X867665Y278444D01*
X866350Y275270D01*
X863920Y272840D01*
X860746Y271525D01*
X857310Y271525D01*
X854136Y272840D01*
X851706Y275270D01*
X850391Y278444D01*
X850391Y281880D01*
X851706Y285054D01*
X853606Y286955D01*
X853623Y286975D01*
X853644Y286993D01*
X853750Y287131D01*
X853861Y287266D01*
X853874Y287290D01*
X853890Y287311D01*
X853968Y287468D01*
X854050Y287622D01*
X854058Y287647D01*
X854070Y287671D01*
X854115Y287841D01*
X854165Y288008D01*
X854167Y288034D01*
X854174Y288060D01*
X854201Y288391D01*
X854201Y317987D01*
X854200Y317996D01*
X854201Y318005D01*
X854180Y318197D01*
X854161Y318388D01*
X854159Y318396D01*
X854158Y318405D01*
X854099Y318590D01*
X854043Y318773D01*
X854039Y318780D01*
X854036Y318789D01*
X853943Y318957D01*
X853851Y319127D01*
X853846Y319134D01*
X853841Y319141D01*
X853717Y319288D01*
X853594Y319436D01*
X853587Y319441D01*
X853581Y319448D01*
X853429Y319568D01*
X853280Y319688D01*
X853272Y319692D01*
X853265Y319698D01*
X853092Y319786D01*
X852923Y319874D01*
X852914Y319876D01*
X852906Y319880D01*
X852720Y319932D01*
X852536Y319985D01*
X852527Y319986D01*
X852518Y319988D01*
X852325Y320002D01*
X852134Y320018D01*
X852126Y320017D01*
X852117Y320018D01*
X851924Y319993D01*
X851735Y319971D01*
X851726Y319968D01*
X851717Y319967D01*
X851535Y319906D01*
X851352Y319846D01*
X851344Y319842D01*
X851336Y319839D01*
X851169Y319743D01*
X851001Y319648D01*
X850994Y319643D01*
X850987Y319638D01*
X850734Y319423D01*
X811618Y280307D01*
X811601Y280287D01*
X811580Y280269D01*
X811473Y280131D01*
X811363Y279996D01*
X811350Y279972D01*
X811334Y279951D01*
X811256Y279794D01*
X811174Y279640D01*
X811166Y279615D01*
X811154Y279591D01*
X811109Y279421D01*
X811059Y279254D01*
X811057Y279228D01*
X811050Y279202D01*
X811023Y278871D01*
X811023Y242417D01*
X811025Y242390D01*
X811023Y242364D01*
X811045Y242190D01*
X811063Y242016D01*
X811070Y241991D01*
X811074Y241964D01*
X811129Y241798D01*
X811181Y241631D01*
X811194Y241608D01*
X811202Y241582D01*
X811289Y241431D01*
X811373Y241277D01*
X811390Y241257D01*
X811403Y241234D01*
X811618Y240981D01*
X813518Y239080D01*
X814833Y235906D01*
X814833Y232470D01*
X813518Y229296D01*
X811088Y226866D01*
X807914Y225551D01*
X804478Y225551D01*
X801304Y226866D01*
X798874Y229296D01*
X797559Y232470D01*
X797559Y235906D01*
X798874Y239080D01*
X800774Y240981D01*
X800791Y241001D01*
X800812Y241019D01*
X800919Y241157D01*
X801029Y241292D01*
X801042Y241316D01*
X801058Y241337D01*
X801136Y241494D01*
X801218Y241648D01*
X801226Y241673D01*
X801238Y241697D01*
X801283Y241867D01*
X801333Y242034D01*
X801335Y242060D01*
X801342Y242086D01*
X801369Y242417D01*
X801369Y271621D01*
X801368Y271630D01*
X801369Y271639D01*
X801348Y271832D01*
X801329Y272022D01*
X801327Y272030D01*
X801326Y272039D01*
X801268Y272223D01*
X801211Y272406D01*
X801207Y272414D01*
X801204Y272423D01*
X801111Y272591D01*
X801019Y272760D01*
X801014Y272767D01*
X801009Y272775D01*
X800885Y272922D01*
X800762Y273070D01*
X800755Y273075D01*
X800749Y273082D01*
X800597Y273202D01*
X800448Y273322D01*
X800440Y273326D01*
X800433Y273332D01*
X800260Y273419D01*
X800091Y273508D01*
X800082Y273510D01*
X800074Y273514D01*
X799888Y273566D01*
X799704Y273619D01*
X799695Y273620D01*
X799686Y273622D01*
X799493Y273636D01*
X799302Y273652D01*
X799294Y273651D01*
X799285Y273651D01*
X799092Y273627D01*
X798903Y273605D01*
X798894Y273602D01*
X798885Y273601D01*
X798703Y273540D01*
X798520Y273480D01*
X798512Y273476D01*
X798504Y273473D01*
X798337Y273377D01*
X798169Y273282D01*
X798162Y273276D01*
X798155Y273272D01*
X797902Y273057D01*
X748626Y223781D01*
X748609Y223760D01*
X748588Y223743D01*
X748481Y223605D01*
X748371Y223470D01*
X748358Y223446D01*
X748342Y223425D01*
X748263Y223267D01*
X748182Y223114D01*
X748174Y223088D01*
X748162Y223064D01*
X748117Y222895D01*
X748067Y222728D01*
X748065Y222701D01*
X748058Y222676D01*
X748031Y222345D01*
X748031Y202539D01*
X748033Y202512D01*
X748031Y202486D01*
X748053Y202312D01*
X748071Y202138D01*
X748078Y202113D01*
X748082Y202086D01*
X748137Y201920D01*
X748189Y201753D01*
X748202Y201730D01*
X748210Y201704D01*
X748297Y201553D01*
X748381Y201399D01*
X748398Y201379D01*
X748411Y201356D01*
X748626Y201103D01*
X750526Y199202D01*
X751841Y196028D01*
X751841Y192592D01*
X750526Y189418D01*
X748096Y186988D01*
X744922Y185673D01*
X741486Y185673D01*
X738312Y186988D01*
X735882Y189418D01*
X734567Y192592D01*
X734567Y196028D01*
X735882Y199202D01*
X737782Y201103D01*
X737799Y201123D01*
X737820Y201141D01*
X737927Y201279D01*
X738037Y201414D01*
X738050Y201438D01*
X738066Y201459D01*
X738144Y201616D01*
X738226Y201770D01*
X738234Y201795D01*
X738246Y201819D01*
X738291Y201989D01*
X738341Y202156D01*
X738343Y202182D01*
X738350Y202208D01*
X738377Y202539D01*
X738377Y215095D01*
X738376Y215104D01*
X738377Y215112D01*
X738356Y215306D01*
X738337Y215495D01*
X738335Y215504D01*
X738334Y215513D01*
X738275Y215698D01*
X738219Y215880D01*
X738215Y215888D01*
X738212Y215897D01*
X738119Y216066D01*
X738027Y216234D01*
X738022Y216241D01*
X738017Y216249D01*
X737893Y216396D01*
X737770Y216544D01*
X737763Y216549D01*
X737757Y216556D01*
X737605Y216676D01*
X737456Y216796D01*
X737448Y216800D01*
X737441Y216806D01*
X737268Y216893D01*
X737099Y216981D01*
X737090Y216984D01*
X737082Y216988D01*
X736896Y217040D01*
X736712Y217093D01*
X736703Y217093D01*
X736694Y217096D01*
X736501Y217110D01*
X736310Y217126D01*
X736302Y217125D01*
X736293Y217125D01*
X736100Y217101D01*
X735911Y217079D01*
X735902Y217076D01*
X735893Y217075D01*
X735710Y217013D01*
X735528Y216954D01*
X735520Y216949D01*
X735512Y216947D01*
X735345Y216851D01*
X735177Y216756D01*
X735170Y216750D01*
X735163Y216746D01*
X734910Y216531D01*
X714288Y195909D01*
X712514Y195174D01*
X693213Y195174D01*
X693186Y195172D01*
X693159Y195174D01*
X692985Y195152D01*
X692812Y195134D01*
X692787Y195127D01*
X692760Y195123D01*
X692594Y195068D01*
X692427Y195016D01*
X692404Y195003D01*
X692378Y194995D01*
X692227Y194908D01*
X692073Y194824D01*
X692053Y194807D01*
X692029Y194794D01*
X691776Y194579D01*
X682989Y185792D01*
X682978Y185778D01*
X682964Y185767D01*
X682850Y185622D01*
X682734Y185480D01*
X682725Y185465D01*
X682714Y185451D01*
X682631Y185287D01*
X682545Y185125D01*
X682540Y185108D01*
X682532Y185092D01*
X682483Y184915D01*
X682430Y184739D01*
X682429Y184721D01*
X682424Y184704D01*
X682411Y184520D01*
X682394Y184338D01*
X682396Y184320D01*
X682395Y184302D01*
X682418Y184121D01*
X682437Y183938D01*
X682443Y183920D01*
X682445Y183903D01*
X682503Y183730D01*
X682559Y183554D01*
X682568Y183538D01*
X682573Y183521D01*
X682665Y183361D01*
X682754Y183201D01*
X682765Y183188D01*
X682774Y183172D01*
X682989Y182919D01*
X683724Y182184D01*
X685039Y179010D01*
X685039Y175574D01*
X683724Y172400D01*
X681294Y169970D01*
X678120Y168655D01*
X674684Y168655D01*
X671510Y169970D01*
X669080Y172400D01*
X667765Y175574D01*
X667765Y179010D01*
X669080Y182184D01*
X670980Y184085D01*
X670997Y184105D01*
X671018Y184123D01*
X671125Y184261D01*
X671235Y184396D01*
X671248Y184420D01*
X671264Y184441D01*
X671342Y184598D01*
X671424Y184752D01*
X671432Y184777D01*
X671444Y184801D01*
X671489Y184971D01*
X671539Y185138D01*
X671541Y185164D01*
X671548Y185190D01*
X671575Y185521D01*
X671575Y186991D01*
X672310Y188765D01*
X679824Y196279D01*
X679829Y196286D01*
X679836Y196291D01*
X679957Y196441D01*
X680079Y196590D01*
X680083Y196598D01*
X680089Y196605D01*
X680177Y196775D01*
X680267Y196946D01*
X680270Y196955D01*
X680274Y196962D01*
X680327Y197147D01*
X680382Y197332D01*
X680383Y197341D01*
X680385Y197349D01*
X680401Y197541D01*
X680419Y197733D01*
X680418Y197742D01*
X680418Y197751D01*
X680396Y197940D01*
X680375Y198133D01*
X680372Y198142D01*
X680371Y198150D01*
X680312Y198332D01*
X680254Y198517D01*
X680249Y198525D01*
X680247Y198533D01*
X680152Y198702D01*
X680059Y198869D01*
X680053Y198876D01*
X680049Y198884D01*
X679923Y199030D01*
X679798Y199176D01*
X679791Y199182D01*
X679786Y199189D01*
X679634Y199306D01*
X679482Y199426D01*
X679474Y199430D01*
X679467Y199435D01*
X679295Y199521D01*
X679123Y199608D01*
X679115Y199611D01*
X679107Y199615D01*
X678920Y199665D01*
X678736Y199716D01*
X678727Y199717D01*
X678718Y199719D01*
X678387Y199746D01*
X655978Y199746D01*
X655951Y199744D01*
X655924Y199746D01*
X655750Y199724D01*
X655577Y199706D01*
X655552Y199699D01*
X655525Y199695D01*
X655359Y199640D01*
X655192Y199588D01*
X655169Y199575D01*
X655143Y199567D01*
X654992Y199480D01*
X654838Y199396D01*
X654818Y199379D01*
X654794Y199366D01*
X654541Y199151D01*
X619594Y164204D01*
X619577Y164183D01*
X619556Y164165D01*
X619449Y164028D01*
X619339Y163892D01*
X619326Y163868D01*
X619310Y163847D01*
X619232Y163690D01*
X619150Y163536D01*
X619142Y163511D01*
X619130Y163487D01*
X619085Y163317D01*
X619035Y163151D01*
X619033Y163124D01*
X619026Y163098D01*
X618999Y162767D01*
X618999Y160080D01*
X617684Y156906D01*
X615254Y154476D01*
X612080Y153161D01*
X608644Y153161D01*
X605470Y154476D01*
X603040Y156906D01*
X601725Y160080D01*
X601725Y163516D01*
X603040Y166690D01*
X605470Y169120D01*
X608644Y170435D01*
X611331Y170435D01*
X611358Y170437D01*
X611385Y170435D01*
X611559Y170457D01*
X611732Y170475D01*
X611757Y170482D01*
X611784Y170486D01*
X611950Y170541D01*
X612117Y170593D01*
X612140Y170606D01*
X612166Y170614D01*
X612317Y170701D01*
X612471Y170785D01*
X612491Y170802D01*
X612515Y170815D01*
X612768Y171030D01*
X642589Y200851D01*
X642594Y200858D01*
X642601Y200863D01*
X642722Y201013D01*
X642844Y201162D01*
X642848Y201170D01*
X642854Y201177D01*
X642942Y201348D01*
X643032Y201518D01*
X643035Y201526D01*
X643039Y201534D01*
X643092Y201720D01*
X643147Y201904D01*
X643148Y201913D01*
X643150Y201921D01*
X643166Y202111D01*
X643184Y202305D01*
X643183Y202314D01*
X643183Y202323D01*
X643161Y202512D01*
X643140Y202705D01*
X643137Y202714D01*
X643136Y202722D01*
X643077Y202904D01*
X643019Y203089D01*
X643014Y203097D01*
X643012Y203105D01*
X642917Y203274D01*
X642824Y203441D01*
X642818Y203448D01*
X642814Y203456D01*
X642688Y203602D01*
X642563Y203748D01*
X642556Y203754D01*
X642551Y203761D01*
X642399Y203878D01*
X642247Y203998D01*
X642239Y204002D01*
X642232Y204007D01*
X642060Y204093D01*
X641888Y204180D01*
X641880Y204183D01*
X641872Y204187D01*
X641685Y204237D01*
X641501Y204288D01*
X641492Y204289D01*
X641483Y204291D01*
X641152Y204318D01*
X589938Y204318D01*
X589911Y204316D01*
X589884Y204318D01*
X589710Y204296D01*
X589537Y204278D01*
X589512Y204271D01*
X589485Y204267D01*
X589319Y204212D01*
X589152Y204160D01*
X589129Y204147D01*
X589103Y204139D01*
X588952Y204052D01*
X588798Y203968D01*
X588778Y203951D01*
X588754Y203938D01*
X588501Y203723D01*
X546696Y161918D01*
X546679Y161897D01*
X546658Y161879D01*
X546551Y161742D01*
X546441Y161606D01*
X546428Y161582D01*
X546412Y161561D01*
X546334Y161404D01*
X546252Y161250D01*
X546244Y161225D01*
X546232Y161201D01*
X546187Y161031D01*
X546137Y160865D01*
X546135Y160838D01*
X546128Y160812D01*
X546101Y160481D01*
X546101Y157794D01*
X544786Y154620D01*
X542356Y152190D01*
X539182Y150875D01*
X535746Y150875D01*
X532572Y152190D01*
X530142Y154620D01*
X528827Y157794D01*
X528827Y161230D01*
X530142Y164404D01*
X532572Y166834D01*
X535746Y168149D01*
X538433Y168149D01*
X538460Y168151D01*
X538487Y168149D01*
X538661Y168171D01*
X538834Y168189D01*
X538859Y168196D01*
X538886Y168200D01*
X539052Y168255D01*
X539219Y168307D01*
X539242Y168320D01*
X539268Y168328D01*
X539419Y168415D01*
X539573Y168499D01*
X539593Y168516D01*
X539617Y168529D01*
X539870Y168744D01*
X576549Y205423D01*
X576554Y205430D01*
X576561Y205435D01*
X576682Y205585D01*
X576804Y205734D01*
X576808Y205742D01*
X576814Y205749D01*
X576902Y205920D01*
X576992Y206090D01*
X576995Y206098D01*
X576999Y206106D01*
X577052Y206292D01*
X577107Y206476D01*
X577108Y206485D01*
X577110Y206493D01*
X577126Y206685D01*
X577144Y206877D01*
X577143Y206886D01*
X577143Y206895D01*
X577121Y207084D01*
X577100Y207277D01*
X577097Y207286D01*
X577096Y207294D01*
X577037Y207476D01*
X576979Y207661D01*
X576974Y207669D01*
X576972Y207677D01*
X576877Y207846D01*
X576784Y208013D01*
X576778Y208020D01*
X576774Y208028D01*
X576648Y208174D01*
X576523Y208320D01*
X576516Y208326D01*
X576511Y208333D01*
X576359Y208450D01*
X576207Y208570D01*
X576199Y208574D01*
X576192Y208579D01*
X576020Y208665D01*
X575848Y208752D01*
X575840Y208755D01*
X575832Y208759D01*
X575645Y208809D01*
X575461Y208860D01*
X575452Y208861D01*
X575443Y208863D01*
X575112Y208890D01*
X506372Y208890D01*
X506345Y208888D01*
X506318Y208890D01*
X506144Y208868D01*
X505971Y208850D01*
X505946Y208843D01*
X505919Y208839D01*
X505753Y208784D01*
X505586Y208732D01*
X505563Y208719D01*
X505537Y208711D01*
X505386Y208624D01*
X505232Y208540D01*
X505212Y208523D01*
X505188Y208510D01*
X504935Y208295D01*
X474052Y177412D01*
X474035Y177391D01*
X474014Y177373D01*
X473907Y177236D01*
X473797Y177100D01*
X473784Y177076D01*
X473768Y177055D01*
X473690Y176898D01*
X473608Y176744D01*
X473600Y176719D01*
X473588Y176695D01*
X473543Y176525D01*
X473493Y176359D01*
X473491Y176332D01*
X473484Y176306D01*
X473457Y175975D01*
X473457Y173288D01*
X472142Y170114D01*
X469712Y167684D01*
X466538Y166369D01*
X463102Y166369D01*
X459928Y167684D01*
X457498Y170114D01*
X456183Y173288D01*
X456183Y176724D01*
X457498Y179898D01*
X459928Y182328D01*
X463102Y183643D01*
X465789Y183643D01*
X465816Y183645D01*
X465843Y183643D01*
X466017Y183665D01*
X466190Y183683D01*
X466215Y183690D01*
X466242Y183694D01*
X466408Y183749D01*
X466575Y183801D01*
X466598Y183814D01*
X466624Y183822D01*
X466775Y183909D01*
X466929Y183993D01*
X466949Y184010D01*
X466973Y184023D01*
X467226Y184238D01*
X492983Y209995D01*
X492988Y210002D01*
X492995Y210007D01*
X493116Y210157D01*
X493238Y210306D01*
X493242Y210314D01*
X493248Y210321D01*
X493336Y210492D01*
X493426Y210662D01*
X493429Y210670D01*
X493433Y210678D01*
X493486Y210864D01*
X493541Y211048D01*
X493542Y211057D01*
X493544Y211065D01*
X493560Y211257D01*
X493578Y211449D01*
X493577Y211458D01*
X493577Y211467D01*
X493555Y211656D01*
X493534Y211849D01*
X493531Y211858D01*
X493530Y211866D01*
X493471Y212048D01*
X493413Y212233D01*
X493408Y212241D01*
X493406Y212249D01*
X493311Y212418D01*
X493218Y212585D01*
X493212Y212592D01*
X493208Y212600D01*
X493082Y212746D01*
X492957Y212892D01*
X492950Y212898D01*
X492945Y212905D01*
X492793Y213022D01*
X492641Y213142D01*
X492633Y213146D01*
X492626Y213151D01*
X492454Y213237D01*
X492282Y213324D01*
X492274Y213327D01*
X492266Y213331D01*
X492079Y213381D01*
X491895Y213432D01*
X491886Y213433D01*
X491877Y213435D01*
X491546Y213462D01*
X430934Y213462D01*
X430907Y213460D01*
X430880Y213462D01*
X430706Y213440D01*
X430533Y213422D01*
X430508Y213415D01*
X430481Y213411D01*
X430315Y213356D01*
X430148Y213304D01*
X430125Y213291D01*
X430099Y213283D01*
X429948Y213196D01*
X429794Y213112D01*
X429774Y213095D01*
X429750Y213082D01*
X429497Y212867D01*
X410044Y193414D01*
X410027Y193393D01*
X410006Y193375D01*
X409899Y193238D01*
X409789Y193102D01*
X409776Y193078D01*
X409760Y193057D01*
X409682Y192900D01*
X409600Y192746D01*
X409592Y192721D01*
X409580Y192697D01*
X409535Y192527D01*
X409485Y192361D01*
X409483Y192334D01*
X409476Y192308D01*
X409449Y191977D01*
X409449Y189290D01*
X408134Y186116D01*
X405704Y183686D01*
X402530Y182371D01*
X399094Y182371D01*
X395920Y183686D01*
X393490Y186116D01*
X392175Y189290D01*
X392175Y192726D01*
X393490Y195900D01*
X395920Y198330D01*
X399094Y199645D01*
X401781Y199645D01*
X401808Y199647D01*
X401835Y199645D01*
X402009Y199667D01*
X402182Y199685D01*
X402207Y199692D01*
X402234Y199696D01*
X402400Y199751D01*
X402567Y199803D01*
X402590Y199816D01*
X402616Y199824D01*
X402767Y199911D01*
X402921Y199995D01*
X402941Y200012D01*
X402965Y200025D01*
X403218Y200240D01*
X417545Y214567D01*
X417550Y214574D01*
X417557Y214579D01*
X417678Y214729D01*
X417800Y214878D01*
X417804Y214886D01*
X417810Y214893D01*
X417898Y215063D01*
X417988Y215234D01*
X417991Y215243D01*
X417995Y215250D01*
X418048Y215435D01*
X418103Y215620D01*
X418104Y215629D01*
X418106Y215637D01*
X418122Y215829D01*
X418140Y216021D01*
X418139Y216030D01*
X418139Y216039D01*
X418117Y216228D01*
X418096Y216421D01*
X418093Y216430D01*
X418092Y216438D01*
X418033Y216620D01*
X417975Y216805D01*
X417970Y216813D01*
X417968Y216821D01*
X417873Y216988D01*
X417780Y217157D01*
X417774Y217164D01*
X417770Y217172D01*
X417644Y217318D01*
X417519Y217464D01*
X417512Y217470D01*
X417507Y217477D01*
X417355Y217594D01*
X417203Y217714D01*
X417195Y217718D01*
X417188Y217723D01*
X417016Y217809D01*
X416844Y217896D01*
X416836Y217899D01*
X416828Y217903D01*
X416641Y217953D01*
X416457Y218004D01*
X416448Y218005D01*
X416439Y218007D01*
X416108Y218034D01*
X348829Y218034D01*
X348807Y218032D01*
X348785Y218034D01*
X348607Y218012D01*
X348429Y217994D01*
X348407Y217988D01*
X348385Y217985D01*
X348216Y217929D01*
X348044Y217876D01*
X348024Y217866D01*
X348003Y217859D01*
X347848Y217770D01*
X347690Y217684D01*
X347673Y217670D01*
X347653Y217659D01*
X347518Y217541D01*
X347381Y217427D01*
X347367Y217409D01*
X347350Y217395D01*
X347240Y217252D01*
X347128Y217113D01*
X347118Y217093D01*
X347104Y217075D01*
X346953Y216780D01*
X346666Y216088D01*
X344236Y213658D01*
X341062Y212343D01*
X337626Y212343D01*
X334452Y213658D01*
X332022Y216088D01*
X330707Y219262D01*
X330707Y222698D01*
X332022Y225872D01*
X334452Y228302D01*
X337626Y229617D01*
X341062Y229617D01*
X344236Y228302D01*
X344256Y228283D01*
X344276Y228266D01*
X344294Y228245D01*
X344432Y228138D01*
X344567Y228028D01*
X344591Y228015D01*
X344612Y227999D01*
X344769Y227921D01*
X344923Y227839D01*
X344948Y227831D01*
X344972Y227819D01*
X345142Y227774D01*
X345309Y227724D01*
X345335Y227722D01*
X345361Y227715D01*
X345692Y227688D01*
X411271Y227688D01*
X411280Y227689D01*
X411289Y227688D01*
X411482Y227709D01*
X411671Y227728D01*
X411680Y227730D01*
X411689Y227731D01*
X411873Y227790D01*
X412056Y227846D01*
X412064Y227850D01*
X412073Y227853D01*
X412241Y227946D01*
X412410Y228038D01*
X412417Y228043D01*
X412425Y228048D01*
X412572Y228172D01*
X412720Y228295D01*
X412725Y228302D01*
X412732Y228308D01*
X412852Y228459D01*
X412972Y228609D01*
X412976Y228617D01*
X412982Y228624D01*
X413069Y228797D01*
X413157Y228966D01*
X413160Y228975D01*
X413164Y228983D01*
X413216Y229169D01*
X413269Y229353D01*
X413270Y229362D01*
X413272Y229371D01*
X413286Y229564D01*
X413302Y229755D01*
X413301Y229763D01*
X413301Y229772D01*
X413277Y229965D01*
X413255Y230154D01*
X413252Y230163D01*
X413251Y230172D01*
X413190Y230354D01*
X413130Y230537D01*
X413126Y230545D01*
X413123Y230553D01*
X413027Y230720D01*
X412932Y230888D01*
X412926Y230895D01*
X412922Y230902D01*
X412707Y231155D01*
X378774Y265088D01*
X378753Y265105D01*
X378736Y265126D01*
X378598Y265233D01*
X378463Y265343D01*
X378439Y265356D01*
X378418Y265372D01*
X378261Y265450D01*
X378107Y265532D01*
X378081Y265540D01*
X378057Y265552D01*
X377888Y265597D01*
X377721Y265647D01*
X377694Y265649D01*
X377668Y265656D01*
X377338Y265683D01*
X375767Y265683D01*
X375740Y265681D01*
X375714Y265683D01*
X375540Y265661D01*
X375366Y265643D01*
X375341Y265636D01*
X375314Y265632D01*
X375148Y265577D01*
X374981Y265525D01*
X374958Y265512D01*
X374932Y265504D01*
X374781Y265417D01*
X374627Y265333D01*
X374607Y265316D01*
X374584Y265303D01*
X374331Y265088D01*
X372430Y263188D01*
X371101Y262637D01*
X369256Y261873D01*
X365820Y261873D01*
X362646Y263188D01*
X360216Y265618D01*
X358901Y268792D01*
X358901Y272228D01*
X360216Y275402D01*
X362646Y277832D01*
X365820Y279147D01*
X366278Y279147D01*
X366286Y279148D01*
X366295Y279147D01*
X366489Y279168D01*
X366678Y279187D01*
X366687Y279189D01*
X366696Y279190D01*
X366880Y279249D01*
X367063Y279305D01*
X367071Y279309D01*
X367080Y279312D01*
X367248Y279405D01*
X367417Y279497D01*
X367424Y279502D01*
X367432Y279507D01*
X367579Y279631D01*
X367726Y279754D01*
X367732Y279761D01*
X367739Y279767D01*
X367859Y279919D01*
X367979Y280068D01*
X367983Y280076D01*
X367988Y280083D01*
X368076Y280256D01*
X368164Y280425D01*
X368167Y280434D01*
X368171Y280442D01*
X368223Y280628D01*
X368276Y280812D01*
X368276Y280821D01*
X368279Y280830D01*
X368293Y281023D01*
X368309Y281214D01*
X368308Y281222D01*
X368308Y281231D01*
X368284Y281424D01*
X368262Y281613D01*
X368259Y281622D01*
X368258Y281631D01*
X368197Y281813D01*
X368137Y281996D01*
X368132Y282004D01*
X368130Y282012D01*
X368033Y282179D01*
X367939Y282347D01*
X367933Y282354D01*
X367929Y282361D01*
X367714Y282614D01*
X345362Y304966D01*
X345341Y304983D01*
X345324Y305004D01*
X345186Y305111D01*
X345050Y305221D01*
X345027Y305234D01*
X345006Y305250D01*
X344849Y305328D01*
X344695Y305410D01*
X344669Y305418D01*
X344645Y305430D01*
X344476Y305475D01*
X344309Y305525D01*
X344282Y305527D01*
X344256Y305534D01*
X343926Y305561D01*
X332079Y305561D01*
X332052Y305559D01*
X332026Y305561D01*
X331852Y305539D01*
X331678Y305521D01*
X331653Y305514D01*
X331626Y305510D01*
X331460Y305455D01*
X331293Y305403D01*
X331270Y305390D01*
X331244Y305382D01*
X331093Y305295D01*
X330939Y305211D01*
X330919Y305194D01*
X330896Y305181D01*
X330643Y304966D01*
X328742Y303066D01*
X325568Y301751D01*
X322132Y301751D01*
X318958Y303066D01*
X316528Y305496D01*
X315213Y308670D01*
X315213Y312106D01*
X316528Y315280D01*
X318958Y317710D01*
X322132Y319025D01*
X325568Y319025D01*
X328742Y317710D01*
X330643Y315810D01*
X330663Y315793D01*
X330681Y315772D01*
X330819Y315665D01*
X330954Y315555D01*
X330978Y315542D01*
X330999Y315526D01*
X331156Y315448D01*
X331310Y315366D01*
X331335Y315358D01*
X331359Y315346D01*
X331529Y315301D01*
X331696Y315251D01*
X331722Y315249D01*
X331748Y315242D01*
X332079Y315215D01*
X336675Y315215D01*
X336684Y315216D01*
X336693Y315215D01*
X336887Y315236D01*
X337076Y315255D01*
X337085Y315257D01*
X337093Y315258D01*
X337278Y315317D01*
X337461Y315373D01*
X337469Y315377D01*
X337477Y315380D01*
X337646Y315473D01*
X337815Y315565D01*
X337822Y315570D01*
X337830Y315575D01*
X337977Y315699D01*
X338124Y315822D01*
X338130Y315829D01*
X338137Y315835D01*
X338256Y315987D01*
X338377Y316136D01*
X338381Y316144D01*
X338386Y316151D01*
X338474Y316324D01*
X338562Y316493D01*
X338565Y316502D01*
X338569Y316510D01*
X338621Y316696D01*
X338674Y316880D01*
X338674Y316889D01*
X338677Y316898D01*
X338691Y317091D01*
X338706Y317282D01*
X338705Y317290D01*
X338706Y317299D01*
X338682Y317492D01*
X338659Y317681D01*
X338657Y317690D01*
X338656Y317699D01*
X338594Y317881D01*
X338535Y318064D01*
X338530Y318072D01*
X338527Y318080D01*
X338431Y318247D01*
X338337Y318415D01*
X338331Y318422D01*
X338326Y318429D01*
X338112Y318682D01*
X303060Y353734D01*
X303039Y353751D01*
X303022Y353772D01*
X302884Y353879D01*
X302748Y353989D01*
X302725Y354002D01*
X302703Y354018D01*
X302546Y354096D01*
X302392Y354178D01*
X302367Y354186D01*
X302343Y354198D01*
X302173Y354243D01*
X302007Y354293D01*
X301980Y354295D01*
X301954Y354302D01*
X301623Y354329D01*
X294487Y354329D01*
X294460Y354327D01*
X294434Y354329D01*
X294260Y354307D01*
X294086Y354289D01*
X294061Y354282D01*
X294034Y354278D01*
X293868Y354223D01*
X293701Y354171D01*
X293678Y354158D01*
X293652Y354150D01*
X293501Y354063D01*
X293347Y353979D01*
X293327Y353962D01*
X293304Y353949D01*
X293051Y353734D01*
X291150Y351834D01*
X287976Y350519D01*
X284540Y350519D01*
X281366Y351834D01*
X278936Y354264D01*
X277621Y357438D01*
X277621Y360874D01*
X278936Y364048D01*
X281366Y366478D01*
X284540Y367793D01*
X287976Y367793D01*
X291330Y366404D01*
X291334Y366402D01*
X291338Y366400D01*
X291523Y366345D01*
X291715Y366287D01*
X291720Y366287D01*
X291724Y366285D01*
X291922Y366267D01*
X292116Y366249D01*
X292120Y366249D01*
X292125Y366249D01*
X292327Y366271D01*
X292516Y366291D01*
X292521Y366292D01*
X292525Y366292D01*
X292717Y366353D01*
X292901Y366410D01*
X292905Y366413D01*
X292909Y366414D01*
X293082Y366510D01*
X293254Y366604D01*
X293257Y366607D01*
X293261Y366609D01*
X293411Y366736D01*
X293562Y366863D01*
X293565Y366866D01*
X293568Y366869D01*
X293691Y367025D01*
X293813Y367178D01*
X293815Y367182D01*
X293818Y367185D01*
X293908Y367362D01*
X293997Y367536D01*
X293998Y367540D01*
X294000Y367544D01*
X294054Y367736D01*
X294107Y367923D01*
X294107Y367928D01*
X294108Y367932D01*
X294123Y368133D01*
X294138Y368325D01*
X294137Y368329D01*
X294138Y368333D01*
X294113Y368531D01*
X294089Y368724D01*
X294088Y368729D01*
X294087Y368733D01*
X294026Y368917D01*
X293963Y369106D01*
X293960Y369110D01*
X293959Y369115D01*
X293861Y369285D01*
X293763Y369456D01*
X293760Y369460D01*
X293758Y369463D01*
X293543Y369716D01*
X259488Y403772D01*
X259467Y403789D01*
X259449Y403810D01*
X259311Y403917D01*
X259176Y404027D01*
X259152Y404040D01*
X259131Y404056D01*
X258974Y404134D01*
X258820Y404216D01*
X258795Y404224D01*
X258771Y404236D01*
X258601Y404281D01*
X258434Y404331D01*
X258408Y404333D01*
X258382Y404340D01*
X258051Y404367D01*
X255879Y404367D01*
X255852Y404365D01*
X255826Y404367D01*
X255652Y404345D01*
X255478Y404327D01*
X255453Y404320D01*
X255426Y404316D01*
X255260Y404261D01*
X255093Y404209D01*
X255070Y404196D01*
X255044Y404188D01*
X254893Y404101D01*
X254739Y404017D01*
X254719Y404000D01*
X254696Y403987D01*
X254443Y403772D01*
X252542Y401872D01*
X249368Y400557D01*
X245932Y400557D01*
X242758Y401872D01*
X240328Y404302D01*
X239013Y407476D01*
X239013Y410912D01*
X240328Y414086D01*
X242758Y416516D01*
X245932Y417831D01*
X246991Y417831D01*
X247000Y417832D01*
X247009Y417831D01*
X247202Y417852D01*
X247392Y417871D01*
X247400Y417873D01*
X247409Y417874D01*
X247594Y417933D01*
X247777Y417989D01*
X247784Y417993D01*
X247793Y417996D01*
X247961Y418089D01*
X248131Y418181D01*
X248138Y418186D01*
X248145Y418191D01*
X248292Y418315D01*
X248440Y418438D01*
X248445Y418445D01*
X248452Y418451D01*
X248572Y418603D01*
X248692Y418752D01*
X248696Y418760D01*
X248702Y418767D01*
X248790Y418940D01*
X248878Y419109D01*
X248880Y419118D01*
X248884Y419126D01*
X248936Y419312D01*
X248989Y419496D01*
X248990Y419505D01*
X248992Y419514D01*
X249006Y419707D01*
X249022Y419898D01*
X249021Y419906D01*
X249022Y419915D01*
X248997Y420108D01*
X248975Y420297D01*
X248972Y420306D01*
X248971Y420315D01*
X248910Y420497D01*
X248850Y420680D01*
X248846Y420688D01*
X248843Y420696D01*
X248747Y420863D01*
X248652Y421031D01*
X248647Y421038D01*
X248642Y421045D01*
X248427Y421298D01*
X243273Y426453D01*
X243272Y426453D01*
X241629Y428097D01*
X240894Y429871D01*
X240894Y446636D01*
X240892Y446663D01*
X240894Y446690D01*
X240872Y446864D01*
X240854Y447037D01*
X240847Y447062D01*
X240843Y447089D01*
X240788Y447255D01*
X240736Y447422D01*
X240723Y447445D01*
X240715Y447471D01*
X240628Y447622D01*
X240544Y447776D01*
X240527Y447796D01*
X240514Y447820D01*
X240299Y448073D01*
X233800Y454572D01*
X233779Y454589D01*
X233761Y454610D01*
X233624Y454717D01*
X233488Y454827D01*
X233464Y454840D01*
X233443Y454856D01*
X233286Y454934D01*
X233132Y455016D01*
X233107Y455024D01*
X233083Y455036D01*
X232913Y455081D01*
X232747Y455131D01*
X232720Y455133D01*
X232694Y455140D01*
X232363Y455167D01*
X229676Y455167D01*
X226502Y456482D01*
X224072Y458912D01*
X222757Y462086D01*
X222757Y465522D01*
X224072Y468696D01*
X226502Y471126D01*
X229676Y472441D01*
X233112Y472441D01*
X236286Y471126D01*
X238716Y468696D01*
X240031Y465522D01*
X240031Y462835D01*
X240033Y462808D01*
X240031Y462781D01*
X240053Y462608D01*
X240071Y462434D01*
X240078Y462409D01*
X240082Y462382D01*
X240138Y462216D01*
X240189Y462049D01*
X240201Y462026D01*
X240210Y462000D01*
X240297Y461849D01*
X240381Y461695D01*
X240398Y461675D01*
X240411Y461651D01*
X240626Y461398D01*
X241999Y460025D01*
X242006Y460020D01*
X242011Y460013D01*
X242162Y459892D01*
X242310Y459770D01*
X242318Y459766D01*
X242325Y459760D01*
X242495Y459672D01*
X242666Y459582D01*
X242675Y459579D01*
X242682Y459575D01*
X242867Y459522D01*
X243052Y459467D01*
X243061Y459466D01*
X243069Y459464D01*
X243260Y459448D01*
X243453Y459430D01*
X243462Y459431D01*
X243471Y459431D01*
X243660Y459453D01*
X243853Y459474D01*
X243862Y459477D01*
X243870Y459478D01*
X244052Y459537D01*
X244237Y459595D01*
X244245Y459600D01*
X244253Y459602D01*
X244420Y459697D01*
X244589Y459790D01*
X244596Y459796D01*
X244604Y459800D01*
X244749Y459925D01*
X244896Y460051D01*
X244902Y460058D01*
X244909Y460063D01*
X245025Y460214D01*
X245146Y460367D01*
X245150Y460375D01*
X245155Y460382D01*
X245240Y460552D01*
X245328Y460725D01*
X245331Y460734D01*
X245335Y460742D01*
X245384Y460928D01*
X245436Y461113D01*
X245437Y461122D01*
X245439Y461131D01*
X245466Y461462D01*
X245466Y529948D01*
X245464Y529975D01*
X245466Y530002D01*
X245444Y530176D01*
X245426Y530349D01*
X245419Y530374D01*
X245415Y530401D01*
X245360Y530567D01*
X245308Y530734D01*
X245295Y530757D01*
X245287Y530783D01*
X245200Y530934D01*
X245116Y531088D01*
X245099Y531108D01*
X245086Y531132D01*
X244871Y531385D01*
X242182Y534074D01*
X242161Y534091D01*
X242143Y534112D01*
X242006Y534219D01*
X241870Y534329D01*
X241846Y534342D01*
X241825Y534358D01*
X241668Y534436D01*
X241514Y534518D01*
X241489Y534526D01*
X241465Y534538D01*
X241295Y534583D01*
X241129Y534633D01*
X241102Y534635D01*
X241076Y534642D01*
X240745Y534669D01*
X238058Y534669D01*
X234884Y535984D01*
X232454Y538414D01*
X231139Y541588D01*
X231139Y545024D01*
X232454Y548198D01*
X234884Y550628D01*
X238058Y551943D01*
X241494Y551943D01*
X244668Y550628D01*
X247098Y548198D01*
X248413Y545024D01*
X248413Y542337D01*
X248415Y542310D01*
X248413Y542283D01*
X248435Y542109D01*
X248453Y541936D01*
X248460Y541911D01*
X248464Y541884D01*
X248519Y541718D01*
X248571Y541551D01*
X248584Y541528D01*
X248592Y541502D01*
X248679Y541351D01*
X248763Y541197D01*
X248780Y541177D01*
X248793Y541153D01*
X249008Y540900D01*
X254385Y535523D01*
X255120Y533749D01*
X255120Y435565D01*
X255122Y435539D01*
X255120Y435512D01*
X255142Y435338D01*
X255160Y435165D01*
X255167Y435139D01*
X255171Y435112D01*
X255226Y434947D01*
X255278Y434780D01*
X255291Y434756D01*
X255299Y434731D01*
X255386Y434579D01*
X255470Y434426D01*
X255487Y434405D01*
X255500Y434382D01*
X255715Y434129D01*
X326411Y363432D01*
X326479Y363377D01*
X326540Y363314D01*
X326634Y363250D01*
X326723Y363177D01*
X326800Y363136D01*
X326873Y363087D01*
X326978Y363042D01*
X327078Y362989D01*
X327162Y362964D01*
X327243Y362929D01*
X327355Y362906D01*
X327464Y362874D01*
X327552Y362866D01*
X327638Y362848D01*
X327752Y362848D01*
X327865Y362837D01*
X327953Y362847D01*
X328040Y362847D01*
X328152Y362869D01*
X328266Y362881D01*
X328349Y362907D01*
X328435Y362924D01*
X328541Y362968D01*
X328649Y363002D01*
X328726Y363045D01*
X328807Y363079D01*
X328902Y363142D01*
X329002Y363197D01*
X329069Y363254D01*
X329142Y363303D01*
X329222Y363384D01*
X329309Y363458D01*
X329363Y363527D01*
X329425Y363589D01*
X329488Y363684D01*
X329558Y363774D01*
X329598Y363852D01*
X329646Y363925D01*
X329689Y364031D01*
X329741Y364133D01*
X329764Y364217D01*
X329797Y364299D01*
X329818Y364410D01*
X329849Y364520D01*
X329855Y364608D01*
X329871Y364694D01*
X329870Y364808D01*
X329878Y364922D01*
X329867Y365009D01*
X329866Y365097D01*
X329842Y365208D01*
X329828Y365321D01*
X329800Y365405D01*
X329781Y365490D01*
X329736Y365595D01*
X329699Y365703D01*
X329656Y365779D01*
X329621Y365860D01*
X329541Y365978D01*
X329498Y366052D01*
X329465Y366092D01*
X329436Y366135D01*
X313764Y385787D01*
X295624Y414656D01*
X280831Y445374D01*
X269570Y477555D01*
X261984Y510795D01*
X258166Y544676D01*
X258166Y578771D01*
X261984Y612651D01*
X269570Y645891D01*
X280831Y678072D01*
X295624Y708791D01*
X313764Y737660D01*
X335022Y764316D01*
X359130Y788425D01*
X385787Y809682D01*
X414656Y827822D01*
X445374Y842615D01*
X477555Y853876D01*
X510795Y861463D01*
X535772Y864277D01*
X535858Y864295D01*
X535945Y864304D01*
X536054Y864337D01*
X536166Y864361D01*
X536246Y864396D01*
X536330Y864422D01*
X536431Y864476D01*
X536535Y864522D01*
X536607Y864572D01*
X536684Y864614D01*
X536772Y864687D01*
X536866Y864752D01*
X536926Y864815D01*
X536994Y864872D01*
X537065Y864960D01*
X537144Y865043D01*
X537191Y865117D01*
X537246Y865185D01*
X537298Y865286D01*
X537360Y865383D01*
X537391Y865465D01*
X537432Y865543D01*
X537463Y865652D01*
X537504Y865759D01*
X537519Y865845D01*
X537543Y865930D01*
X537552Y866043D01*
X537571Y866156D01*
X537569Y866243D01*
X537576Y866331D01*
X537563Y866444D01*
X537559Y866558D01*
X537539Y866644D01*
X537529Y866731D01*
X537494Y866839D01*
X537468Y866950D01*
X537431Y867030D01*
X537404Y867113D01*
X537348Y867213D01*
X537301Y867316D01*
X537249Y867388D01*
X537206Y867464D01*
X537132Y867550D01*
X537065Y867643D01*
X537000Y867702D01*
X536943Y867769D01*
X536853Y867839D01*
X536769Y867916D01*
X536694Y867962D01*
X536625Y868016D01*
X536523Y868066D01*
X536425Y868126D01*
X536343Y868156D01*
X536264Y868195D01*
X536154Y868224D01*
X536047Y868263D01*
X535961Y868277D01*
X535876Y868299D01*
X535733Y868311D01*
X535649Y868324D01*
X535597Y868322D01*
X535545Y868327D01*
X508667Y868327D01*
X506893Y869061D01*
X480434Y895520D01*
X480413Y895537D01*
X480395Y895558D01*
X480258Y895665D01*
X480122Y895775D01*
X480098Y895788D01*
X480077Y895804D01*
X479920Y895882D01*
X479766Y895964D01*
X479741Y895972D01*
X479717Y895984D01*
X479547Y896029D01*
X479381Y896079D01*
X479354Y896081D01*
X479328Y896088D01*
X478997Y896115D01*
X465125Y896115D01*
X464897Y896343D01*
X464883Y896354D01*
X464872Y896368D01*
X464729Y896481D01*
X464586Y896598D01*
X464570Y896606D01*
X464556Y896617D01*
X464392Y896701D01*
X464230Y896786D01*
X464213Y896791D01*
X464197Y896800D01*
X464020Y896849D01*
X463844Y896901D01*
X463826Y896903D01*
X463809Y896907D01*
X463627Y896921D01*
X463443Y896937D01*
X463425Y896936D01*
X463408Y896937D01*
X463226Y896914D01*
X463043Y896894D01*
X463026Y896889D01*
X463008Y896886D01*
X462835Y896828D01*
X462659Y896773D01*
X462643Y896764D01*
X462627Y896758D01*
X462468Y896667D01*
X462307Y896578D01*
X462293Y896566D01*
X462278Y896557D01*
X462116Y896420D01*
X458918Y895095D01*
X455482Y895095D01*
X452308Y896410D01*
X449878Y898840D01*
X448481Y902213D01*
X448475Y902224D01*
X448471Y902237D01*
X448380Y902401D01*
X448291Y902568D01*
X448282Y902578D01*
X448276Y902590D01*
X448155Y902732D01*
X448034Y902878D01*
X448024Y902886D01*
X448015Y902897D01*
X447868Y903013D01*
X447722Y903132D01*
X447710Y903138D01*
X447699Y903146D01*
X447531Y903232D01*
X447365Y903319D01*
X447353Y903322D01*
X447340Y903329D01*
X447159Y903379D01*
X446979Y903432D01*
X446966Y903433D01*
X446953Y903437D01*
X446764Y903450D01*
X446578Y903466D01*
X446565Y903465D01*
X446551Y903466D01*
X446363Y903442D01*
X446178Y903421D01*
X446165Y903417D01*
X446152Y903415D01*
X445973Y903355D01*
X445794Y903298D01*
X445783Y903292D01*
X445770Y903287D01*
X445607Y903193D01*
X445443Y903102D01*
X445433Y903093D01*
X445421Y903086D01*
X445168Y902872D01*
X255715Y713418D01*
X255698Y713397D01*
X255677Y713380D01*
X255570Y713242D01*
X255460Y713107D01*
X255447Y713083D01*
X255431Y713062D01*
X255353Y712905D01*
X255271Y712751D01*
X255263Y712725D01*
X255251Y712701D01*
X255206Y712532D01*
X255156Y712365D01*
X255154Y712338D01*
X255147Y712313D01*
X255120Y711982D01*
X255120Y624237D01*
X254385Y622463D01*
X247484Y615562D01*
X247467Y615541D01*
X247446Y615523D01*
X247339Y615386D01*
X247229Y615250D01*
X247216Y615226D01*
X247200Y615205D01*
X247122Y615048D01*
X247040Y614894D01*
X247032Y614869D01*
X247020Y614845D01*
X246975Y614675D01*
X246925Y614509D01*
X246923Y614482D01*
X246916Y614456D01*
X246889Y614125D01*
X246889Y611438D01*
X245574Y608264D01*
X243144Y605834D01*
X239970Y604519D01*
X236534Y604519D01*
X233360Y605834D01*
X230930Y608264D01*
X229615Y611438D01*
X229615Y614874D01*
X230930Y618048D01*
X233360Y620478D01*
X236534Y621793D01*
X239221Y621793D01*
X239248Y621795D01*
X239275Y621793D01*
X239449Y621815D01*
X239622Y621833D01*
X239647Y621840D01*
X239674Y621844D01*
X239840Y621899D01*
X240007Y621951D01*
X240030Y621964D01*
X240056Y621972D01*
X240207Y622059D01*
X240361Y622143D01*
X240381Y622160D01*
X240405Y622173D01*
X240658Y622388D01*
X244871Y626601D01*
X244888Y626622D01*
X244909Y626640D01*
X245016Y626777D01*
X245126Y626913D01*
X245139Y626937D01*
X245155Y626958D01*
X245233Y627115D01*
X245315Y627269D01*
X245323Y627294D01*
X245335Y627318D01*
X245380Y627488D01*
X245430Y627654D01*
X245432Y627681D01*
X245439Y627707D01*
X245466Y628038D01*
X245466Y643692D01*
X245465Y643701D01*
X245466Y643710D01*
X245445Y643902D01*
X245426Y644093D01*
X245424Y644102D01*
X245423Y644110D01*
X245365Y644293D01*
X245308Y644478D01*
X245304Y644486D01*
X245301Y644494D01*
X245208Y644663D01*
X245116Y644832D01*
X245111Y644839D01*
X245106Y644847D01*
X244981Y644994D01*
X244859Y645141D01*
X244852Y645147D01*
X244846Y645154D01*
X244695Y645273D01*
X244545Y645394D01*
X244537Y645398D01*
X244530Y645403D01*
X244359Y645490D01*
X244188Y645579D01*
X244179Y645582D01*
X244171Y645586D01*
X243985Y645637D01*
X243801Y645690D01*
X243792Y645691D01*
X243783Y645694D01*
X243591Y645708D01*
X243399Y645723D01*
X243391Y645722D01*
X243382Y645723D01*
X243189Y645699D01*
X243000Y645676D01*
X242991Y645674D01*
X242982Y645673D01*
X242799Y645611D01*
X242617Y645552D01*
X242609Y645547D01*
X242601Y645544D01*
X242435Y645449D01*
X242266Y645354D01*
X242259Y645348D01*
X242252Y645343D01*
X241999Y645129D01*
X240626Y643756D01*
X240609Y643735D01*
X240588Y643717D01*
X240481Y643579D01*
X240371Y643444D01*
X240358Y643420D01*
X240342Y643399D01*
X240264Y643243D01*
X240182Y643088D01*
X240174Y643063D01*
X240162Y643039D01*
X240117Y642870D01*
X240067Y642703D01*
X240065Y642676D01*
X240058Y642650D01*
X240031Y642319D01*
X240031Y639632D01*
X238716Y636458D01*
X236286Y634028D01*
X233112Y632713D01*
X229676Y632713D01*
X226502Y634028D01*
X224072Y636458D01*
X222757Y639632D01*
X222757Y643068D01*
X224072Y646242D01*
X226502Y648672D01*
X229676Y649987D01*
X232363Y649987D01*
X232390Y649989D01*
X232417Y649987D01*
X232591Y650009D01*
X232764Y650027D01*
X232789Y650034D01*
X232816Y650038D01*
X232982Y650093D01*
X233149Y650145D01*
X233172Y650158D01*
X233198Y650166D01*
X233349Y650253D01*
X233503Y650337D01*
X233523Y650354D01*
X233547Y650367D01*
X233800Y650582D01*
X240299Y657081D01*
X240316Y657102D01*
X240337Y657120D01*
X240444Y657257D01*
X240554Y657393D01*
X240567Y657417D01*
X240583Y657438D01*
X240661Y657595D01*
X240743Y657749D01*
X240751Y657774D01*
X240763Y657798D01*
X240808Y657968D01*
X240858Y658134D01*
X240860Y658161D01*
X240867Y658187D01*
X240894Y658518D01*
X240894Y717677D01*
X241629Y719450D01*
X243273Y721094D01*
X275884Y753706D01*
X275890Y753713D01*
X275897Y753718D01*
X276017Y753868D01*
X276139Y754017D01*
X276144Y754025D01*
X276149Y754032D01*
X276238Y754203D01*
X276328Y754373D01*
X276331Y754381D01*
X276335Y754389D01*
X276388Y754575D01*
X276443Y754759D01*
X276444Y754768D01*
X276446Y754776D01*
X276462Y754966D01*
X276479Y755160D01*
X276478Y755169D01*
X276479Y755178D01*
X276457Y755367D01*
X276436Y755560D01*
X276433Y755569D01*
X276432Y755577D01*
X276373Y755759D01*
X276314Y755944D01*
X276310Y755952D01*
X276307Y755960D01*
X276212Y756129D01*
X276119Y756296D01*
X276114Y756303D01*
X276109Y756311D01*
X275983Y756457D01*
X275859Y756603D01*
X275852Y756609D01*
X275846Y756616D01*
X275695Y756733D01*
X275543Y756853D01*
X275535Y756857D01*
X275528Y756862D01*
X275356Y756948D01*
X275184Y757035D01*
X275176Y757038D01*
X275168Y757042D01*
X274981Y757092D01*
X274796Y757143D01*
X274787Y757144D01*
X274779Y757146D01*
X274448Y757173D01*
X270611Y757173D01*
X270584Y757171D01*
X270558Y757173D01*
X270384Y757151D01*
X270210Y757133D01*
X270185Y757126D01*
X270158Y757122D01*
X269992Y757067D01*
X269825Y757015D01*
X269802Y757002D01*
X269776Y756994D01*
X269625Y756907D01*
X269471Y756823D01*
X269451Y756806D01*
X269428Y756793D01*
X269175Y756578D01*
X267274Y754678D01*
X266120Y754200D01*
X264100Y753363D01*
X260664Y753363D01*
X257490Y754678D01*
X255060Y757108D01*
X253745Y760282D01*
X253745Y763718D01*
X255060Y766892D01*
X257490Y769322D01*
X260664Y770637D01*
X264100Y770637D01*
X267274Y769322D01*
X269175Y767422D01*
X269195Y767405D01*
X269213Y767384D01*
X269351Y767277D01*
X269486Y767167D01*
X269510Y767154D01*
X269531Y767138D01*
X269688Y767060D01*
X269842Y766978D01*
X269867Y766970D01*
X269891Y766958D01*
X270061Y766913D01*
X270228Y766863D01*
X270254Y766861D01*
X270280Y766854D01*
X270611Y766827D01*
X281698Y766827D01*
X281725Y766829D01*
X281751Y766827D01*
X281925Y766849D01*
X282099Y766867D01*
X282124Y766874D01*
X282151Y766878D01*
X282317Y766933D01*
X282484Y766985D01*
X282507Y766998D01*
X282533Y767006D01*
X282684Y767093D01*
X282838Y767177D01*
X282858Y767194D01*
X282881Y767207D01*
X283134Y767422D01*
X317834Y802121D01*
X317840Y802128D01*
X317847Y802134D01*
X317967Y802283D01*
X318089Y802433D01*
X318093Y802441D01*
X318099Y802448D01*
X318188Y802619D01*
X318278Y802788D01*
X318280Y802797D01*
X318284Y802805D01*
X318338Y802990D01*
X318392Y803174D01*
X318393Y803183D01*
X318396Y803192D01*
X318411Y803383D01*
X318429Y803575D01*
X318428Y803584D01*
X318429Y803593D01*
X318406Y803782D01*
X318385Y803976D01*
X318383Y803984D01*
X318382Y803993D01*
X318322Y804175D01*
X318264Y804359D01*
X318260Y804367D01*
X318257Y804376D01*
X318162Y804544D01*
X318069Y804712D01*
X318063Y804718D01*
X318059Y804726D01*
X317933Y804872D01*
X317809Y805019D01*
X317802Y805024D01*
X317796Y805031D01*
X317644Y805148D01*
X317493Y805268D01*
X317485Y805272D01*
X317478Y805278D01*
X317306Y805363D01*
X317134Y805451D01*
X317125Y805453D01*
X317117Y805457D01*
X316931Y805507D01*
X316746Y805559D01*
X316737Y805559D01*
X316728Y805562D01*
X316398Y805589D01*
X304446Y805589D01*
X302672Y806324D01*
X294760Y814236D01*
X294739Y814253D01*
X294721Y814274D01*
X294584Y814381D01*
X294448Y814491D01*
X294424Y814504D01*
X294403Y814520D01*
X294246Y814598D01*
X294092Y814680D01*
X294067Y814688D01*
X294043Y814700D01*
X293873Y814745D01*
X293707Y814795D01*
X293680Y814797D01*
X293654Y814804D01*
X293323Y814831D01*
X290636Y814831D01*
X287462Y816146D01*
X285032Y818576D01*
X283717Y821750D01*
X283717Y825186D01*
X285032Y828360D01*
X287462Y830790D01*
X289667Y831703D01*
X289667Y831704D01*
X290636Y832105D01*
X294072Y832105D01*
X297246Y830790D01*
X299676Y828360D01*
X300991Y825186D01*
X300991Y822499D01*
X300993Y822472D01*
X300991Y822445D01*
X301013Y822271D01*
X301031Y822098D01*
X301038Y822073D01*
X301042Y822046D01*
X301097Y821880D01*
X301149Y821713D01*
X301162Y821690D01*
X301170Y821664D01*
X301257Y821513D01*
X301341Y821359D01*
X301358Y821339D01*
X301371Y821315D01*
X301586Y821062D01*
X306811Y815837D01*
X306832Y815820D01*
X306849Y815800D01*
X306987Y815693D01*
X307122Y815582D01*
X307146Y815570D01*
X307167Y815553D01*
X307324Y815475D01*
X307478Y815393D01*
X307504Y815386D01*
X307528Y815374D01*
X307697Y815328D01*
X307864Y815279D01*
X307891Y815276D01*
X307916Y815269D01*
X308247Y815242D01*
X323648Y815242D01*
X323674Y815245D01*
X323701Y815243D01*
X323875Y815265D01*
X324048Y815282D01*
X324074Y815290D01*
X324101Y815293D01*
X324266Y815349D01*
X324433Y815400D01*
X324457Y815413D01*
X324482Y815422D01*
X324634Y815509D01*
X324787Y815592D01*
X324808Y815609D01*
X324831Y815622D01*
X325084Y815837D01*
X378777Y869530D01*
X378782Y869537D01*
X378789Y869542D01*
X378910Y869692D01*
X379032Y869841D01*
X379036Y869849D01*
X379042Y869856D01*
X379130Y870027D01*
X379220Y870197D01*
X379223Y870205D01*
X379227Y870213D01*
X379280Y870399D01*
X379335Y870583D01*
X379336Y870592D01*
X379338Y870600D01*
X379354Y870792D01*
X379372Y870984D01*
X379371Y870993D01*
X379371Y871002D01*
X379349Y871191D01*
X379328Y871384D01*
X379325Y871393D01*
X379324Y871401D01*
X379265Y871583D01*
X379207Y871768D01*
X379202Y871776D01*
X379200Y871784D01*
X379105Y871953D01*
X379012Y872120D01*
X379006Y872127D01*
X379002Y872135D01*
X378876Y872281D01*
X378751Y872427D01*
X378744Y872433D01*
X378739Y872440D01*
X378587Y872557D01*
X378435Y872677D01*
X378427Y872681D01*
X378420Y872686D01*
X378248Y872772D01*
X378076Y872859D01*
X378068Y872862D01*
X378060Y872866D01*
X377873Y872916D01*
X377689Y872967D01*
X377680Y872968D01*
X377671Y872970D01*
X377340Y872997D01*
X347065Y872997D01*
X347038Y872995D01*
X347012Y872997D01*
X346838Y872975D01*
X346664Y872957D01*
X346639Y872950D01*
X346612Y872946D01*
X346446Y872891D01*
X346279Y872839D01*
X346256Y872826D01*
X346230Y872818D01*
X346079Y872731D01*
X345925Y872647D01*
X345905Y872630D01*
X345882Y872617D01*
X345629Y872402D01*
X343728Y870502D01*
X340554Y869187D01*
X337118Y869187D01*
X333944Y870502D01*
X331514Y872932D01*
X330199Y876106D01*
X330199Y879542D01*
X331514Y882716D01*
X333944Y885146D01*
X337118Y886461D01*
X340554Y886461D01*
X343728Y885146D01*
X345629Y883246D01*
X345649Y883229D01*
X345667Y883208D01*
X345805Y883101D01*
X345940Y882991D01*
X345964Y882978D01*
X345985Y882962D01*
X346142Y882884D01*
X346296Y882802D01*
X346321Y882794D01*
X346345Y882782D01*
X346515Y882737D01*
X346682Y882687D01*
X346708Y882685D01*
X346734Y882678D01*
X347065Y882651D01*
X384591Y882651D01*
X384617Y882653D01*
X384644Y882651D01*
X384818Y882673D01*
X384991Y882691D01*
X385017Y882698D01*
X385043Y882702D01*
X385209Y882757D01*
X385376Y882809D01*
X385400Y882822D01*
X385425Y882830D01*
X385577Y882917D01*
X385730Y883001D01*
X385751Y883018D01*
X385774Y883031D01*
X386027Y883246D01*
X441357Y938576D01*
X441366Y938586D01*
X441376Y938595D01*
X441493Y938742D01*
X441612Y938887D01*
X441618Y938899D01*
X441627Y938910D01*
X441713Y939078D01*
X441801Y939243D01*
X441805Y939256D01*
X441811Y939268D01*
X441862Y939450D01*
X441916Y939629D01*
X441917Y939642D01*
X441920Y939655D01*
X441935Y939842D01*
X441952Y940030D01*
X441951Y940044D01*
X441952Y940057D01*
X441929Y940242D01*
X441909Y940430D01*
X441905Y940443D01*
X441903Y940456D01*
X441844Y940634D01*
X441787Y940814D01*
X441781Y940826D01*
X441776Y940839D01*
X441683Y941003D01*
X441592Y941166D01*
X441584Y941177D01*
X441577Y941188D01*
X441453Y941331D01*
X441332Y941473D01*
X441321Y941482D01*
X441312Y941492D01*
X441163Y941607D01*
X441016Y941723D01*
X441004Y941729D01*
X440993Y941737D01*
X440698Y941889D01*
X440116Y942130D01*
X437686Y944560D01*
X436371Y947734D01*
X436371Y951170D01*
X437686Y954344D01*
X440116Y956774D01*
X443290Y958089D01*
X445977Y958089D01*
X446004Y958091D01*
X446031Y958089D01*
X446205Y958111D01*
X446378Y958129D01*
X446403Y958136D01*
X446430Y958140D01*
X446596Y958195D01*
X446763Y958247D01*
X446786Y958260D01*
X446812Y958268D01*
X446963Y958355D01*
X447117Y958439D01*
X447137Y958456D01*
X447161Y958469D01*
X447414Y958684D01*
X459430Y970700D01*
X459431Y970701D01*
X461074Y972344D01*
X461787Y972639D01*
X461807Y972650D01*
X461828Y972657D01*
X461984Y972745D01*
X462142Y972830D01*
X462159Y972844D01*
X462179Y972855D01*
X462315Y972972D01*
X462453Y973086D01*
X462467Y973103D01*
X462484Y973118D01*
X462593Y973259D01*
X462706Y973399D01*
X462717Y973418D01*
X462730Y973436D01*
X462810Y973596D01*
X462893Y973755D01*
X462900Y973776D01*
X462910Y973797D01*
X462956Y973970D01*
X463006Y974142D01*
X463008Y974164D01*
X463014Y974185D01*
X463041Y974516D01*
X463041Y979885D01*
X465125Y981969D01*
X480771Y981969D01*
X482855Y979885D01*
X482855Y957584D01*
X482857Y957566D01*
X482855Y957548D01*
X482876Y957366D01*
X482895Y957183D01*
X482900Y957166D01*
X482902Y957149D01*
X482959Y956974D01*
X483013Y956798D01*
X483021Y956783D01*
X483027Y956766D01*
X483117Y956606D01*
X483205Y956444D01*
X483216Y956431D01*
X483225Y956415D01*
X483345Y956276D01*
X483462Y956135D01*
X483476Y956124D01*
X483488Y956110D01*
X483633Y955998D01*
X483776Y955883D01*
X483792Y955875D01*
X483806Y955864D01*
X483971Y955782D01*
X484133Y955697D01*
X484150Y955692D01*
X484166Y955684D01*
X484345Y955637D01*
X484520Y955586D01*
X484538Y955584D01*
X484555Y955580D01*
X484886Y955553D01*
X486410Y955553D01*
X486428Y955555D01*
X486446Y955553D01*
X486628Y955574D01*
X486811Y955593D01*
X486828Y955598D01*
X486845Y955600D01*
X487020Y955657D01*
X487196Y955711D01*
X487211Y955719D01*
X487228Y955725D01*
X487388Y955815D01*
X487550Y955903D01*
X487563Y955914D01*
X487579Y955923D01*
X487718Y956043D01*
X487859Y956160D01*
X487870Y956174D01*
X487884Y956186D01*
X487996Y956331D01*
X488111Y956474D01*
X488119Y956490D01*
X488130Y956504D01*
X488212Y956669D01*
X488297Y956831D01*
X488302Y956848D01*
X488310Y956864D01*
X488357Y957043D01*
X488408Y957218D01*
X488410Y957236D01*
X488414Y957253D01*
X488441Y957584D01*
X488441Y979885D01*
X490386Y981830D01*
X490403Y981851D01*
X490424Y981868D01*
X490531Y982006D01*
X490641Y982142D01*
X490654Y982165D01*
X490670Y982187D01*
X490748Y982343D01*
X490830Y982497D01*
X490838Y982523D01*
X490850Y982547D01*
X490895Y982716D01*
X490945Y982883D01*
X490947Y982910D01*
X490954Y982936D01*
X490972Y983153D01*
X492103Y985883D01*
X493280Y987061D01*
X493300Y987085D01*
X493324Y987105D01*
X493428Y987241D01*
X493536Y987372D01*
X493550Y987400D01*
X493569Y987424D01*
X493721Y987720D01*
X494836Y990412D01*
X497266Y992842D01*
X500440Y994157D01*
X503876Y994157D01*
X507050Y992842D01*
X507072Y992820D01*
X507086Y992809D01*
X507097Y992795D01*
X507241Y992682D01*
X507383Y992565D01*
X507399Y992557D01*
X507413Y992546D01*
X507577Y992462D01*
X507739Y992377D01*
X507756Y992372D01*
X507772Y992364D01*
X507949Y992314D01*
X508125Y992262D01*
X508143Y992260D01*
X508160Y992256D01*
X508343Y992242D01*
X508526Y992226D01*
X508544Y992228D01*
X508561Y992226D01*
X508743Y992249D01*
X508926Y992269D01*
X508943Y992274D01*
X508961Y992277D01*
X509135Y992335D01*
X509310Y992391D01*
X509326Y992399D01*
X509343Y992405D01*
X509502Y992497D01*
X509662Y992585D01*
X509676Y992597D01*
X509691Y992606D01*
X509944Y992821D01*
X509966Y992842D01*
X512658Y993957D01*
X512686Y993972D01*
X512716Y993982D01*
X512863Y994067D01*
X513013Y994147D01*
X513037Y994167D01*
X513064Y994183D01*
X513317Y994398D01*
X516527Y997607D01*
X519235Y998729D01*
X519959Y998729D01*
X519986Y998731D01*
X520013Y998729D01*
X520187Y998751D01*
X520360Y998769D01*
X520386Y998776D01*
X520412Y998780D01*
X520578Y998836D01*
X520745Y998887D01*
X520769Y998900D01*
X520794Y998908D01*
X520945Y998995D01*
X521099Y999079D01*
X521119Y999096D01*
X521143Y999109D01*
X521396Y999324D01*
X522991Y1000919D01*
X533937Y1000919D01*
X536021Y998835D01*
X536021Y998561D01*
X536034Y998424D01*
X536039Y998287D01*
X536054Y998224D01*
X536061Y998160D01*
X536101Y998029D01*
X536133Y997895D01*
X536160Y997837D01*
X536179Y997775D01*
X536244Y997654D01*
X536302Y997530D01*
X536340Y997478D01*
X536371Y997421D01*
X536458Y997316D01*
X536540Y997205D01*
X536587Y997161D01*
X536628Y997112D01*
X536735Y997026D01*
X536837Y996933D01*
X536892Y996900D01*
X536942Y996860D01*
X537064Y996796D01*
X537182Y996725D01*
X537242Y996704D01*
X537299Y996674D01*
X537431Y996636D01*
X537561Y996590D01*
X537624Y996581D01*
X537686Y996563D01*
X537823Y996552D01*
X537959Y996532D01*
X538023Y996535D01*
X538088Y996530D01*
X538224Y996546D01*
X538361Y996553D01*
X538423Y996569D01*
X538487Y996577D01*
X538618Y996619D01*
X538751Y996654D01*
X538809Y996682D01*
X538870Y996702D01*
X538990Y996769D01*
X539114Y996829D01*
X539165Y996868D01*
X539221Y996900D01*
X539325Y996989D01*
X539434Y997072D01*
X539477Y997121D01*
X539525Y997163D01*
X539610Y997271D01*
X539701Y997374D01*
X539733Y997430D01*
X539772Y997481D01*
X539833Y997604D01*
X539902Y997723D01*
X539927Y997792D01*
X539952Y997841D01*
X539972Y997919D01*
X540014Y998035D01*
X540096Y998343D01*
X540431Y998922D01*
X540904Y999395D01*
X541483Y999730D01*
X542129Y999903D01*
X544433Y999903D01*
X544433Y991362D01*
X544434Y991345D01*
X544433Y991327D01*
X544454Y991144D01*
X544472Y990962D01*
X544478Y990945D01*
X544480Y990927D01*
X544537Y990752D01*
X544591Y990577D01*
X544599Y990561D01*
X544605Y990544D01*
X544695Y990384D01*
X544782Y990223D01*
X544794Y990209D01*
X544803Y990194D01*
X544923Y990054D01*
X545040Y989914D01*
X545040Y989913D01*
X545041Y989913D01*
X545054Y989902D01*
X545066Y989889D01*
X545066Y989888D01*
X545211Y989776D01*
X545354Y989661D01*
X545370Y989652D01*
X545384Y989642D01*
X545549Y989560D01*
X545712Y989475D01*
X545729Y989470D01*
X545745Y989462D01*
X545923Y989414D01*
X546099Y989364D01*
X546116Y989362D01*
X546134Y989358D01*
X546464Y989331D01*
X553005Y989331D01*
X553005Y985027D01*
X552832Y984381D01*
X552611Y984000D01*
X552551Y983866D01*
X552484Y983737D01*
X552468Y983683D01*
X552445Y983633D01*
X552413Y983490D01*
X552372Y983350D01*
X552368Y983294D01*
X552355Y983240D01*
X552351Y983094D01*
X552339Y982948D01*
X552346Y982893D01*
X552344Y982838D01*
X552369Y982694D01*
X552386Y982549D01*
X552403Y982496D01*
X552413Y982441D01*
X552466Y982305D01*
X552511Y982166D01*
X552538Y982117D01*
X552558Y982066D01*
X552637Y981943D01*
X552709Y981815D01*
X552745Y981773D01*
X552775Y981726D01*
X552877Y981621D01*
X552972Y981510D01*
X553016Y981477D01*
X553054Y981437D01*
X553175Y981353D01*
X553290Y981264D01*
X553340Y981239D01*
X553386Y981207D01*
X553520Y981150D01*
X553651Y981084D01*
X553704Y981070D01*
X553755Y981048D01*
X553898Y981018D01*
X554040Y980980D01*
X554102Y980975D01*
X554149Y980965D01*
X554233Y980964D01*
X554370Y980953D01*
X555833Y980953D01*
X556737Y980710D01*
X556787Y980702D01*
X556910Y980667D01*
X556965Y980662D01*
X557017Y980650D01*
X557124Y980647D01*
X557134Y980645D01*
X557157Y980646D01*
X557165Y980646D01*
X557312Y980634D01*
X557365Y980640D01*
X557420Y980639D01*
X557565Y980664D01*
X557711Y980681D01*
X557763Y980698D01*
X557817Y980707D01*
X557954Y980760D01*
X558094Y980806D01*
X558142Y980832D01*
X558192Y980852D01*
X558317Y980931D01*
X558445Y981003D01*
X558486Y981039D01*
X558532Y981068D01*
X558638Y981171D01*
X558750Y981267D01*
X558783Y981309D01*
X558822Y981347D01*
X558906Y981469D01*
X558996Y981585D01*
X559020Y981633D01*
X559052Y981678D01*
X559110Y981813D01*
X559176Y981945D01*
X559190Y981998D01*
X559211Y982048D01*
X559242Y982191D01*
X559280Y982334D01*
X559285Y982396D01*
X559295Y982441D01*
X559296Y982526D01*
X559307Y982665D01*
X559307Y998373D01*
X559305Y998400D01*
X559307Y998426D01*
X559285Y998600D01*
X559267Y998774D01*
X559260Y998799D01*
X559256Y998826D01*
X559201Y998992D01*
X559149Y999159D01*
X559136Y999182D01*
X559128Y999208D01*
X559041Y999359D01*
X558957Y999513D01*
X558940Y999533D01*
X558927Y999556D01*
X558712Y999809D01*
X556812Y1001710D01*
X555497Y1004884D01*
X555497Y1008320D01*
X556871Y1011636D01*
X556938Y1011767D01*
X557023Y1011929D01*
X557028Y1011946D01*
X557037Y1011962D01*
X557086Y1012140D01*
X557138Y1012315D01*
X557140Y1012333D01*
X557144Y1012350D01*
X557158Y1012533D01*
X557174Y1012716D01*
X557172Y1012734D01*
X557174Y1012752D01*
X557151Y1012933D01*
X557131Y1013116D01*
X557125Y1013133D01*
X557123Y1013151D01*
X557065Y1013324D01*
X557009Y1013500D01*
X557001Y1013516D01*
X556995Y1013533D01*
X556903Y1013692D01*
X556886Y1013723D01*
X555497Y1017076D01*
X555497Y1020512D01*
X556812Y1023686D01*
X559242Y1026116D01*
X560660Y1026703D01*
X560660Y1026704D01*
X562416Y1027431D01*
X565852Y1027431D01*
X569026Y1026116D01*
X571456Y1023686D01*
X572771Y1020512D01*
X572771Y1017825D01*
X572773Y1017798D01*
X572771Y1017771D01*
X572793Y1017597D01*
X572811Y1017424D01*
X572818Y1017399D01*
X572822Y1017372D01*
X572877Y1017206D01*
X572929Y1017039D01*
X572942Y1017016D01*
X572950Y1016990D01*
X573037Y1016839D01*
X573121Y1016685D01*
X573138Y1016665D01*
X573151Y1016641D01*
X573366Y1016388D01*
X604040Y985714D01*
X604779Y983929D01*
X604796Y983782D01*
X604815Y983599D01*
X604820Y983582D01*
X604822Y983565D01*
X604879Y983390D01*
X604933Y983214D01*
X604941Y983199D01*
X604947Y983182D01*
X605037Y983022D01*
X605125Y982860D01*
X605136Y982847D01*
X605145Y982831D01*
X605265Y982692D01*
X605382Y982551D01*
X605396Y982540D01*
X605408Y982526D01*
X605553Y982414D01*
X605696Y982299D01*
X605712Y982291D01*
X605726Y982280D01*
X605891Y982198D01*
X606053Y982113D01*
X606070Y982108D01*
X606086Y982100D01*
X606265Y982053D01*
X606440Y982002D01*
X606458Y982000D01*
X606475Y981996D01*
X606806Y981969D01*
X607771Y981969D01*
X609855Y979885D01*
X609855Y957584D01*
X609857Y957566D01*
X609855Y957548D01*
X609876Y957366D01*
X609895Y957183D01*
X609900Y957166D01*
X609902Y957149D01*
X609959Y956974D01*
X610013Y956798D01*
X610021Y956783D01*
X610027Y956766D01*
X610117Y956606D01*
X610205Y956444D01*
X610216Y956431D01*
X610225Y956415D01*
X610345Y956276D01*
X610462Y956135D01*
X610476Y956124D01*
X610488Y956110D01*
X610633Y955998D01*
X610776Y955883D01*
X610792Y955875D01*
X610806Y955864D01*
X610971Y955782D01*
X611133Y955697D01*
X611150Y955692D01*
X611166Y955684D01*
X611345Y955637D01*
X611520Y955586D01*
X611538Y955584D01*
X611555Y955580D01*
X611886Y955553D01*
X613410Y955553D01*
X613428Y955555D01*
X613446Y955553D01*
X613628Y955574D01*
X613811Y955593D01*
X613828Y955598D01*
X613845Y955600D01*
X614020Y955657D01*
X614196Y955711D01*
X614211Y955719D01*
X614228Y955725D01*
X614388Y955815D01*
X614550Y955903D01*
X614563Y955914D01*
X614579Y955923D01*
X614718Y956043D01*
X614859Y956160D01*
X614870Y956174D01*
X614884Y956186D01*
X614996Y956331D01*
X615111Y956474D01*
X615119Y956490D01*
X615130Y956504D01*
X615212Y956669D01*
X615297Y956831D01*
X615302Y956848D01*
X615310Y956864D01*
X615357Y957043D01*
X615408Y957218D01*
X615410Y957236D01*
X615414Y957253D01*
X615441Y957584D01*
X615441Y979885D01*
X617525Y981969D01*
X633171Y981969D01*
X633379Y981761D01*
X633393Y981750D01*
X633404Y981736D01*
X633547Y981623D01*
X633690Y981506D01*
X633706Y981498D01*
X633720Y981487D01*
X633883Y981404D01*
X634046Y981317D01*
X634063Y981312D01*
X634079Y981304D01*
X634256Y981255D01*
X634432Y981203D01*
X634450Y981201D01*
X634467Y981196D01*
X634650Y981183D01*
X634833Y981166D01*
X634851Y981168D01*
X634868Y981167D01*
X635051Y981190D01*
X635233Y981210D01*
X635250Y981215D01*
X635268Y981217D01*
X635442Y981276D01*
X635617Y981331D01*
X635633Y981340D01*
X635650Y981346D01*
X635809Y981437D01*
X635969Y981526D01*
X635983Y981538D01*
X635998Y981546D01*
X636251Y981761D01*
X640296Y985806D01*
X642070Y986541D01*
X659426Y986541D01*
X661200Y985806D01*
X664492Y982514D01*
X665227Y980740D01*
X665227Y968435D01*
X665229Y968417D01*
X665227Y968399D01*
X665248Y968217D01*
X665267Y968034D01*
X665272Y968017D01*
X665274Y967999D01*
X665331Y967825D01*
X665385Y967649D01*
X665393Y967634D01*
X665399Y967617D01*
X665489Y967456D01*
X665577Y967295D01*
X665588Y967282D01*
X665597Y967266D01*
X665717Y967127D01*
X665834Y966986D01*
X665848Y966975D01*
X665860Y966961D01*
X666005Y966849D01*
X666148Y966734D01*
X666164Y966726D01*
X666178Y966715D01*
X666343Y966633D01*
X666505Y966548D01*
X666522Y966543D01*
X666538Y966535D01*
X666717Y966487D01*
X666892Y966437D01*
X666910Y966435D01*
X666927Y966431D01*
X667258Y966404D01*
X707147Y966404D01*
X708921Y965669D01*
X723780Y950810D01*
X723801Y950793D01*
X723819Y950772D01*
X723956Y950665D01*
X724092Y950555D01*
X724116Y950542D01*
X724137Y950526D01*
X724294Y950448D01*
X724448Y950366D01*
X724473Y950358D01*
X724497Y950346D01*
X724667Y950301D01*
X724833Y950251D01*
X724860Y950249D01*
X724886Y950242D01*
X725217Y950215D01*
X727904Y950215D01*
X731078Y948900D01*
X733508Y946470D01*
X734823Y943296D01*
X734823Y939860D01*
X733508Y936686D01*
X731078Y934256D01*
X730979Y934215D01*
X730967Y934209D01*
X730955Y934205D01*
X730791Y934114D01*
X730624Y934025D01*
X730614Y934016D01*
X730602Y934010D01*
X730459Y933888D01*
X730314Y933768D01*
X730306Y933758D01*
X730295Y933749D01*
X730179Y933602D01*
X730060Y933456D01*
X730054Y933444D01*
X730046Y933433D01*
X729960Y933266D01*
X729873Y933099D01*
X729869Y933087D01*
X729863Y933075D01*
X729813Y932893D01*
X729760Y932713D01*
X729759Y932700D01*
X729755Y932687D01*
X729742Y932498D01*
X729725Y932312D01*
X729727Y932299D01*
X729726Y932285D01*
X729750Y932098D01*
X729771Y931912D01*
X729775Y931899D01*
X729776Y931886D01*
X729836Y931708D01*
X729894Y931528D01*
X729900Y931517D01*
X729905Y931504D01*
X729998Y931341D01*
X730090Y931177D01*
X730099Y931167D01*
X730106Y931155D01*
X730320Y930902D01*
X760705Y900518D01*
X760725Y900501D01*
X760743Y900480D01*
X760881Y900373D01*
X761016Y900263D01*
X761040Y900250D01*
X761061Y900234D01*
X761218Y900156D01*
X761372Y900074D01*
X761397Y900066D01*
X761422Y900054D01*
X761591Y900009D01*
X761758Y899959D01*
X761784Y899957D01*
X761810Y899950D01*
X762141Y899923D01*
X774853Y899923D01*
X774880Y899925D01*
X774906Y899923D01*
X775080Y899945D01*
X775254Y899963D01*
X775279Y899970D01*
X775306Y899974D01*
X775472Y900029D01*
X775639Y900081D01*
X775662Y900094D01*
X775688Y900102D01*
X775839Y900189D01*
X775993Y900273D01*
X776013Y900290D01*
X776036Y900303D01*
X776289Y900518D01*
X778190Y902418D01*
X781364Y903733D01*
X784800Y903733D01*
X787974Y902418D01*
X790404Y899988D01*
X791719Y896814D01*
X791719Y893378D01*
X790404Y890204D01*
X787974Y887774D01*
X784800Y886459D01*
X781364Y886459D01*
X778190Y887774D01*
X776289Y889674D01*
X776269Y889691D01*
X776251Y889712D01*
X776113Y889819D01*
X775978Y889929D01*
X775954Y889942D01*
X775933Y889958D01*
X775776Y890036D01*
X775622Y890118D01*
X775597Y890126D01*
X775573Y890138D01*
X775403Y890183D01*
X775236Y890233D01*
X775210Y890235D01*
X775184Y890242D01*
X774853Y890269D01*
X769391Y890269D01*
X769382Y890268D01*
X769373Y890269D01*
X769180Y890248D01*
X768991Y890229D01*
X768982Y890227D01*
X768973Y890226D01*
X768789Y890167D01*
X768606Y890111D01*
X768598Y890107D01*
X768589Y890104D01*
X768421Y890011D01*
X768252Y889919D01*
X768245Y889914D01*
X768237Y889909D01*
X768090Y889785D01*
X767942Y889662D01*
X767937Y889655D01*
X767930Y889649D01*
X767810Y889497D01*
X767690Y889348D01*
X767686Y889340D01*
X767680Y889333D01*
X767593Y889160D01*
X767505Y888991D01*
X767502Y888982D01*
X767498Y888974D01*
X767446Y888788D01*
X767393Y888604D01*
X767392Y888595D01*
X767390Y888586D01*
X767376Y888393D01*
X767360Y888202D01*
X767361Y888194D01*
X767361Y888185D01*
X767385Y887992D01*
X767407Y887803D01*
X767410Y887794D01*
X767411Y887785D01*
X767472Y887602D01*
X767532Y887420D01*
X767536Y887412D01*
X767539Y887404D01*
X767636Y887235D01*
X767730Y887069D01*
X767736Y887062D01*
X767740Y887055D01*
X767955Y886802D01*
X867841Y786916D01*
X867855Y786904D01*
X867866Y786891D01*
X868010Y786777D01*
X868152Y786661D01*
X868168Y786652D01*
X868182Y786641D01*
X868347Y786558D01*
X868508Y786472D01*
X868525Y786467D01*
X868541Y786459D01*
X868719Y786409D01*
X868894Y786357D01*
X868912Y786356D01*
X868929Y786351D01*
X869112Y786337D01*
X869295Y786321D01*
X869313Y786323D01*
X869331Y786321D01*
X869513Y786344D01*
X869695Y786364D01*
X869712Y786370D01*
X869730Y786372D01*
X869904Y786430D01*
X870079Y786486D01*
X870095Y786494D01*
X870112Y786500D01*
X870271Y786592D01*
X870431Y786681D01*
X870445Y786692D01*
X870461Y786701D01*
X870714Y786916D01*
X873006Y789208D01*
X875239Y790133D01*
X875255Y790141D01*
X875272Y790147D01*
X875432Y790237D01*
X875594Y790323D01*
X875608Y790335D01*
X875623Y790343D01*
X875762Y790462D01*
X875904Y790580D01*
X875915Y790594D01*
X875929Y790605D01*
X876042Y790750D01*
X876158Y790892D01*
X876166Y790908D01*
X876177Y790922D01*
X876260Y791087D01*
X876345Y791249D01*
X876350Y791266D01*
X876358Y791282D01*
X876407Y791459D01*
X876458Y791635D01*
X876460Y791653D01*
X876464Y791670D01*
X876477Y791854D01*
X876493Y792036D01*
X876491Y792054D01*
X876492Y792072D01*
X876468Y792255D01*
X876448Y792436D01*
X876442Y792453D01*
X876440Y792471D01*
X876338Y792787D01*
X875283Y795334D01*
X875283Y798770D01*
X876502Y801713D01*
X876509Y801734D01*
X876519Y801754D01*
X876567Y801927D01*
X876619Y802098D01*
X876621Y802120D01*
X876627Y802142D01*
X876640Y802321D01*
X876657Y802499D01*
X876654Y802521D01*
X876656Y802543D01*
X876633Y802722D01*
X876615Y802899D01*
X876608Y802920D01*
X876606Y802943D01*
X876548Y803113D01*
X876495Y803284D01*
X876485Y803303D01*
X876477Y803324D01*
X876388Y803480D01*
X876302Y803637D01*
X876288Y803654D01*
X876276Y803673D01*
X876062Y803926D01*
X839082Y840906D01*
X839061Y840923D01*
X839043Y840944D01*
X838906Y841051D01*
X838770Y841161D01*
X838746Y841174D01*
X838725Y841190D01*
X838568Y841268D01*
X838414Y841350D01*
X838389Y841358D01*
X838365Y841370D01*
X838195Y841415D01*
X838029Y841465D01*
X838002Y841467D01*
X837976Y841474D01*
X837645Y841501D01*
X834958Y841501D01*
X831784Y842816D01*
X829354Y845246D01*
X828039Y848420D01*
X828039Y851856D01*
X829354Y855030D01*
X831784Y857460D01*
X833353Y858110D01*
X834958Y858775D01*
X838394Y858775D01*
X841568Y857460D01*
X843998Y855030D01*
X845313Y851856D01*
X845313Y849169D01*
X845315Y849142D01*
X845313Y849115D01*
X845335Y848941D01*
X845353Y848768D01*
X845360Y848743D01*
X845364Y848716D01*
X845419Y848550D01*
X845471Y848383D01*
X845484Y848360D01*
X845492Y848334D01*
X845579Y848183D01*
X845663Y848029D01*
X845680Y848009D01*
X845693Y847985D01*
X845908Y847732D01*
X882784Y810856D01*
X882805Y810839D01*
X882823Y810818D01*
X882960Y810711D01*
X883096Y810601D01*
X883120Y810588D01*
X883141Y810572D01*
X883298Y810494D01*
X883452Y810412D01*
X883477Y810404D01*
X883501Y810392D01*
X883671Y810347D01*
X883837Y810297D01*
X883864Y810295D01*
X883890Y810288D01*
X884221Y810261D01*
X888352Y810261D01*
X890126Y809526D01*
X896394Y803258D01*
X897129Y801484D01*
X897129Y777867D01*
X897131Y777840D01*
X897129Y777813D01*
X897151Y777639D01*
X897169Y777466D01*
X897176Y777441D01*
X897180Y777414D01*
X897235Y777248D01*
X897287Y777081D01*
X897300Y777058D01*
X897308Y777032D01*
X897395Y776881D01*
X897479Y776727D01*
X897496Y776707D01*
X897509Y776683D01*
X897724Y776430D01*
X905218Y768936D01*
X905239Y768919D01*
X905256Y768899D01*
X905394Y768792D01*
X905529Y768681D01*
X905553Y768669D01*
X905574Y768652D01*
X905731Y768574D01*
X905885Y768492D01*
X905911Y768485D01*
X905935Y768473D01*
X906104Y768427D01*
X906271Y768378D01*
X906298Y768375D01*
X906324Y768368D01*
X906654Y768341D01*
X939258Y768341D01*
X941032Y767606D01*
X949978Y758660D01*
X950713Y756886D01*
X950713Y737214D01*
X950716Y737187D01*
X950714Y737161D01*
X950736Y736987D01*
X950753Y736813D01*
X950761Y736788D01*
X950764Y736761D01*
X950820Y736595D01*
X950871Y736428D01*
X950884Y736405D01*
X950892Y736379D01*
X950980Y736228D01*
X951063Y736074D01*
X951080Y736054D01*
X951093Y736031D01*
X951308Y735778D01*
X959541Y727544D01*
X960276Y725770D01*
X960276Y706876D01*
X960279Y706849D01*
X960277Y706822D01*
X960299Y706649D01*
X960316Y706475D01*
X960324Y706450D01*
X960327Y706423D01*
X960383Y706257D01*
X960434Y706090D01*
X960447Y706067D01*
X960455Y706041D01*
X960543Y705890D01*
X960626Y705736D01*
X960643Y705716D01*
X960656Y705692D01*
X960871Y705439D01*
X978413Y687897D01*
X979148Y686123D01*
X979148Y666405D01*
X979151Y666378D01*
X979149Y666351D01*
X979171Y666178D01*
X979188Y666004D01*
X979196Y665979D01*
X979199Y665952D01*
X979255Y665786D01*
X979306Y665619D01*
X979319Y665596D01*
X979327Y665570D01*
X979415Y665419D01*
X979498Y665265D01*
X979515Y665245D01*
X979528Y665221D01*
X979743Y664968D01*
X986256Y658456D01*
X986277Y658439D01*
X986294Y658418D01*
X986432Y658311D01*
X986567Y658201D01*
X986591Y658188D01*
X986612Y658172D01*
X986769Y658094D01*
X986923Y658012D01*
X986949Y658004D01*
X986973Y657992D01*
X987142Y657947D01*
X987309Y657897D01*
X987336Y657895D01*
X987361Y657888D01*
X987692Y657861D01*
X991261Y657861D01*
X991419Y657813D01*
X991446Y657810D01*
X991472Y657803D01*
X991646Y657791D01*
X991820Y657775D01*
X991847Y657778D01*
X991874Y657776D01*
X992047Y657798D01*
X992220Y657816D01*
X992246Y657825D01*
X992273Y657828D01*
X992292Y657834D01*
X993748Y657834D01*
X993794Y657839D01*
X993839Y657836D01*
X993994Y657859D01*
X994149Y657874D01*
X994193Y657887D01*
X994238Y657894D01*
X994385Y657946D01*
X994534Y657992D01*
X994574Y658014D01*
X994617Y658029D01*
X994751Y658109D01*
X994888Y658184D01*
X994923Y658213D01*
X994962Y658236D01*
X995077Y658342D01*
X995197Y658442D01*
X995226Y658477D01*
X995259Y658508D01*
X995352Y658634D01*
X995450Y658755D01*
X995471Y658796D01*
X995498Y658833D01*
X995563Y658974D01*
X995635Y659113D01*
X995648Y659156D01*
X995667Y659198D01*
X995703Y659350D01*
X995747Y659500D01*
X995750Y659545D01*
X995761Y659589D01*
X995767Y659745D01*
X995779Y659901D01*
X995774Y659946D01*
X995776Y659992D01*
X995739Y660245D01*
X995733Y660301D01*
X995730Y660309D01*
X995728Y660320D01*
X993277Y670996D01*
X993258Y671050D01*
X993242Y671127D01*
X981789Y709109D01*
X981761Y709176D01*
X981729Y709280D01*
X966925Y746085D01*
X966891Y746150D01*
X966850Y746250D01*
X948814Y781583D01*
X948774Y781645D01*
X948724Y781741D01*
X927601Y815320D01*
X927555Y815378D01*
X927497Y815470D01*
X903455Y847025D01*
X903405Y847078D01*
X903339Y847164D01*
X876571Y876443D01*
X876517Y876492D01*
X876443Y876571D01*
X847164Y903339D01*
X847105Y903383D01*
X847025Y903455D01*
X815470Y927497D01*
X815407Y927536D01*
X815320Y927601D01*
X781742Y948724D01*
X781676Y948757D01*
X781583Y948814D01*
X746250Y966850D01*
X746182Y966877D01*
X746085Y966925D01*
X709280Y981729D01*
X709209Y981749D01*
X709109Y981789D01*
X671128Y993242D01*
X671071Y993253D01*
X670996Y993277D01*
X651659Y997717D01*
X651639Y997720D01*
X651614Y997727D01*
X651392Y997773D01*
X644433Y999207D01*
X630919Y1004900D01*
X618766Y1013107D01*
X608439Y1023518D01*
X600328Y1035735D01*
X594743Y1049294D01*
X591896Y1063680D01*
X591896Y1069648D01*
X591896Y1088446D01*
X591890Y1088507D01*
X591891Y1088591D01*
X591605Y1092596D01*
X591596Y1092647D01*
X591595Y1092698D01*
X591548Y1092923D01*
X591536Y1092993D01*
X591531Y1093006D01*
X591528Y1093023D01*
X589271Y1100709D01*
X589224Y1100824D01*
X589187Y1100942D01*
X589144Y1101022D01*
X589120Y1101082D01*
X589080Y1101142D01*
X589031Y1101235D01*
X584700Y1107973D01*
X584623Y1108071D01*
X584554Y1108173D01*
X584490Y1108238D01*
X584450Y1108289D01*
X584395Y1108335D01*
X584322Y1108410D01*
X578268Y1113656D01*
X578167Y1113727D01*
X578071Y1113806D01*
X577992Y1113851D01*
X577939Y1113888D01*
X577873Y1113917D01*
X577782Y1113968D01*
X570495Y1117296D01*
X570378Y1117336D01*
X570264Y1117385D01*
X570176Y1117405D01*
X570114Y1117426D01*
X570043Y1117435D01*
X569941Y1117459D01*
X562012Y1118599D01*
X561888Y1118604D01*
X561765Y1118619D01*
X561675Y1118613D01*
X561610Y1118616D01*
X561539Y1118605D01*
X561434Y1118599D01*
X553505Y1117459D01*
X553385Y1117429D01*
X553263Y1117408D01*
X553177Y1117378D01*
X553115Y1117362D01*
X553049Y1117331D01*
X552951Y1117296D01*
X545664Y1113968D01*
X545557Y1113906D01*
X545446Y1113852D01*
X545373Y1113798D01*
X545317Y1113766D01*
X545263Y1113718D01*
X545178Y1113656D01*
X539124Y1108410D01*
X539039Y1108320D01*
X538947Y1108237D01*
X538892Y1108165D01*
X538848Y1108118D01*
X538810Y1108057D01*
X538746Y1107973D01*
X534415Y1101235D01*
X534359Y1101124D01*
X534294Y1101019D01*
X534262Y1100934D01*
X534232Y1100876D01*
X534213Y1100807D01*
X534175Y1100709D01*
X531918Y1093023D01*
X531909Y1092973D01*
X531892Y1092924D01*
X531857Y1092698D01*
X531844Y1092628D01*
X531844Y1092613D01*
X531841Y1092596D01*
X531555Y1088591D01*
X531557Y1088530D01*
X531550Y1088446D01*
X531550Y1069648D01*
X531550Y1063680D01*
X528703Y1049294D01*
X523118Y1035735D01*
X515008Y1023518D01*
X504680Y1013108D01*
X492528Y1004900D01*
X490496Y1004044D01*
X490495Y1004044D01*
X485673Y1002013D01*
X485673Y1002012D01*
X480851Y999981D01*
X479014Y999207D01*
X473169Y998002D01*
X473168Y998002D01*
X471833Y997727D01*
X471813Y997721D01*
X471788Y997717D01*
X452451Y993277D01*
X452397Y993258D01*
X452320Y993242D01*
X414338Y981789D01*
X414271Y981761D01*
X414167Y981729D01*
X377362Y966925D01*
X377297Y966891D01*
X377197Y966850D01*
X341864Y948814D01*
X341802Y948774D01*
X341706Y948724D01*
X308127Y927601D01*
X308069Y927555D01*
X307977Y927497D01*
X276422Y903455D01*
X276369Y903405D01*
X276283Y903339D01*
X247004Y876571D01*
X246955Y876517D01*
X246876Y876443D01*
X220108Y847164D01*
X220064Y847105D01*
X219992Y847025D01*
X195950Y815470D01*
X195911Y815407D01*
X195846Y815320D01*
X174723Y781741D01*
X174690Y781676D01*
X174633Y781583D01*
X156597Y746250D01*
X156570Y746182D01*
X156522Y746085D01*
X141718Y709280D01*
X141698Y709209D01*
X141658Y709109D01*
X130205Y671128D01*
X130194Y671071D01*
X130170Y670996D01*
X125730Y651659D01*
X125727Y651639D01*
X125720Y651614D01*
X125445Y650279D01*
X125445Y650278D01*
X124240Y644433D01*
X118547Y630919D01*
X110339Y618766D01*
X99929Y608438D01*
X87711Y600328D01*
X74152Y594743D01*
X59766Y591896D01*
X35000Y591896D01*
X34939Y591890D01*
X34855Y591891D01*
X30850Y591605D01*
X30799Y591596D01*
X30748Y591595D01*
X30523Y591548D01*
X30453Y591536D01*
X30440Y591531D01*
X30423Y591528D01*
X22737Y589271D01*
X22622Y589224D01*
X22504Y589187D01*
X22424Y589144D01*
X22364Y589120D01*
X22304Y589080D01*
X22211Y589031D01*
X15473Y584700D01*
X15375Y584623D01*
X15273Y584554D01*
X15208Y584490D01*
X15157Y584450D01*
X15111Y584395D01*
X15036Y584322D01*
X9790Y578268D01*
X9719Y578167D01*
X9640Y578071D01*
X9595Y577992D01*
X9558Y577939D01*
X9529Y577873D01*
X9478Y577782D01*
X6150Y570495D01*
X6110Y570378D01*
X6061Y570264D01*
X6041Y570176D01*
X6020Y570114D01*
X6011Y570043D01*
X5987Y569941D01*
X4847Y562012D01*
X4842Y561888D01*
X4827Y561765D01*
X4833Y561675D01*
X4830Y561610D01*
X4841Y561539D01*
X4847Y561434D01*
X5987Y553505D01*
X6017Y553385D01*
X6038Y553263D01*
X6068Y553177D01*
X6084Y553115D01*
X6115Y553049D01*
X6150Y552951D01*
X9478Y545664D01*
X9540Y545557D01*
X9594Y545446D01*
X9648Y545373D01*
X9680Y545317D01*
X9728Y545263D01*
X9790Y545178D01*
X15036Y539124D01*
X15126Y539039D01*
X15209Y538947D01*
X15281Y538892D01*
X15328Y538848D01*
X15389Y538810D01*
X15473Y538746D01*
X22211Y534415D01*
X22322Y534359D01*
X22427Y534294D01*
X22512Y534262D01*
X22570Y534232D01*
X22639Y534213D01*
X22737Y534175D01*
X30423Y531918D01*
X30473Y531909D01*
X30522Y531892D01*
X30748Y531857D01*
X30818Y531844D01*
X30833Y531844D01*
X30850Y531841D01*
X34855Y531555D01*
X34916Y531557D01*
X35000Y531550D01*
X52434Y531550D01*
X59766Y531550D01*
X74152Y528703D01*
X87711Y523119D01*
X99928Y515008D01*
X110339Y504680D01*
X118547Y492528D01*
X124240Y479014D01*
X125445Y473169D01*
X125445Y473168D01*
X125720Y471833D01*
X125726Y471813D01*
X125730Y471788D01*
X130170Y452451D01*
X130189Y452397D01*
X130205Y452320D01*
X141658Y414338D01*
X141686Y414271D01*
X141718Y414167D01*
X156522Y377362D01*
X156556Y377297D01*
X156597Y377197D01*
X174633Y341864D01*
X174673Y341802D01*
X174723Y341706D01*
X195846Y308127D01*
X195892Y308069D01*
X195950Y307977D01*
X219992Y276422D01*
X220042Y276369D01*
X220108Y276283D01*
X246876Y247004D01*
X246930Y246955D01*
X247004Y246876D01*
X276283Y220108D01*
X276342Y220064D01*
X276422Y219992D01*
X307977Y195950D01*
X308040Y195911D01*
X308127Y195846D01*
X341706Y174723D01*
X341771Y174690D01*
X341864Y174633D01*
X377197Y156597D01*
X377265Y156570D01*
X377362Y156522D01*
X414167Y141718D01*
X414238Y141698D01*
X414338Y141658D01*
X452319Y130205D01*
X452376Y130194D01*
X452451Y130170D01*
X471788Y125730D01*
X471808Y125727D01*
X471833Y125720D01*
X473168Y125445D01*
X473169Y125445D01*
X479014Y124240D01*
X492528Y118547D01*
X504680Y110339D01*
X515008Y99928D01*
X523119Y87711D01*
X528703Y74152D01*
X531550Y59766D01*
X531550Y52884D01*
X531550Y35000D01*
X531556Y34939D01*
X531555Y34855D01*
X531841Y30850D01*
X531850Y30799D01*
X531851Y30748D01*
X531898Y30523D01*
X531910Y30453D01*
X531915Y30440D01*
X531918Y30423D01*
X534175Y22737D01*
X534222Y22622D01*
X534259Y22504D01*
X534302Y22424D01*
X534326Y22364D01*
X534366Y22304D01*
X534415Y22211D01*
X538746Y15473D01*
X538823Y15375D01*
X538892Y15273D01*
X538956Y15208D01*
X538996Y15157D01*
X539051Y15111D01*
X539124Y15036D01*
X545178Y9790D01*
X545279Y9719D01*
X545375Y9640D01*
X545454Y9595D01*
X545507Y9558D01*
X545573Y9529D01*
X545664Y9478D01*
X552951Y6150D01*
X553068Y6110D01*
X553182Y6061D01*
X553270Y6041D01*
X553332Y6020D01*
X553403Y6011D01*
X553505Y5987D01*
X561434Y4847D01*
X561558Y4842D01*
X561681Y4827D01*
X561771Y4833D01*
G37*
%LPC*%
G36*
X1084656Y542666D02*
X1084656Y542666D01*
X1077651Y545567D01*
X1072291Y550928D01*
X1069389Y557932D01*
X1069389Y565514D01*
X1072291Y572518D01*
X1077651Y577879D01*
X1082358Y579828D01*
X1082358Y579829D01*
X1084656Y580780D01*
X1092237Y580780D01*
X1099241Y577879D01*
X1104602Y572518D01*
X1107503Y565514D01*
X1107503Y557932D01*
X1104602Y550928D01*
X1099241Y545567D01*
X1097826Y544981D01*
X1092237Y542666D01*
X1084656Y542666D01*
G37*
%LPD*%
%LPC*%
G36*
X557932Y1069389D02*
X557932Y1069389D01*
X550928Y1072291D01*
X545567Y1077651D01*
X542666Y1084656D01*
X542666Y1092237D01*
X545567Y1099241D01*
X550928Y1104602D01*
X557932Y1107503D01*
X565514Y1107503D01*
X572518Y1104602D01*
X577879Y1099241D01*
X580780Y1092237D01*
X580780Y1084656D01*
X577879Y1077651D01*
X572518Y1072291D01*
X565514Y1069389D01*
X557932Y1069389D01*
G37*
%LPD*%
%LPC*%
G36*
X557932Y15943D02*
X557932Y15943D01*
X550928Y18844D01*
X545567Y24205D01*
X542666Y31209D01*
X542666Y38791D01*
X545567Y45795D01*
X550928Y51156D01*
X552251Y51703D01*
X552251Y51704D01*
X557155Y53735D01*
X557932Y54057D01*
X565514Y54057D01*
X572518Y51156D01*
X577879Y45795D01*
X580780Y38791D01*
X580780Y31209D01*
X577879Y24205D01*
X572518Y18844D01*
X565514Y15943D01*
X557932Y15943D01*
G37*
%LPD*%
%LPC*%
G36*
X31209Y542666D02*
X31209Y542666D01*
X24205Y545568D01*
X18844Y550928D01*
X15943Y557932D01*
X15943Y565514D01*
X18844Y572518D01*
X24205Y577879D01*
X28913Y579828D01*
X28913Y579829D01*
X31209Y580780D01*
X38791Y580780D01*
X45795Y577879D01*
X51156Y572518D01*
X54057Y565514D01*
X54057Y557932D01*
X51156Y550928D01*
X45795Y545568D01*
X38791Y542666D01*
X31209Y542666D01*
G37*
%LPD*%
G36*
X538244Y955555D02*
X538244Y955555D01*
X538262Y955553D01*
X538444Y955574D01*
X538627Y955593D01*
X538644Y955598D01*
X538661Y955600D01*
X538836Y955657D01*
X539012Y955711D01*
X539027Y955719D01*
X539044Y955725D01*
X539204Y955815D01*
X539366Y955903D01*
X539379Y955914D01*
X539395Y955923D01*
X539534Y956043D01*
X539675Y956160D01*
X539686Y956174D01*
X539700Y956186D01*
X539812Y956331D01*
X539927Y956474D01*
X539935Y956490D01*
X539946Y956504D01*
X540028Y956669D01*
X540113Y956831D01*
X540118Y956848D01*
X540126Y956864D01*
X540173Y957043D01*
X540224Y957218D01*
X540226Y957236D01*
X540230Y957253D01*
X540257Y957584D01*
X540257Y965078D01*
X548005Y965078D01*
X548023Y965079D01*
X548040Y965078D01*
X548223Y965099D01*
X548405Y965118D01*
X548422Y965123D01*
X548440Y965125D01*
X548615Y965182D01*
X548790Y965236D01*
X548806Y965244D01*
X548823Y965250D01*
X548983Y965340D01*
X549144Y965427D01*
X549150Y965433D01*
X549181Y965408D01*
X549197Y965400D01*
X549211Y965389D01*
X549376Y965307D01*
X549539Y965222D01*
X549556Y965217D01*
X549572Y965209D01*
X549750Y965161D01*
X549925Y965111D01*
X549943Y965109D01*
X549960Y965105D01*
X550291Y965078D01*
X558039Y965078D01*
X558039Y957584D01*
X558041Y957566D01*
X558039Y957548D01*
X558060Y957366D01*
X558079Y957183D01*
X558084Y957166D01*
X558086Y957149D01*
X558143Y956974D01*
X558197Y956798D01*
X558205Y956783D01*
X558211Y956766D01*
X558301Y956606D01*
X558389Y956444D01*
X558400Y956431D01*
X558409Y956415D01*
X558529Y956276D01*
X558646Y956135D01*
X558660Y956124D01*
X558672Y956110D01*
X558817Y955998D01*
X558960Y955883D01*
X558976Y955875D01*
X558990Y955864D01*
X559155Y955782D01*
X559317Y955697D01*
X559334Y955692D01*
X559350Y955684D01*
X559529Y955637D01*
X559704Y955586D01*
X559722Y955584D01*
X559739Y955580D01*
X560070Y955553D01*
X562610Y955553D01*
X562628Y955555D01*
X562646Y955553D01*
X562828Y955574D01*
X563011Y955593D01*
X563028Y955598D01*
X563045Y955600D01*
X563220Y955657D01*
X563396Y955711D01*
X563411Y955719D01*
X563428Y955725D01*
X563588Y955815D01*
X563750Y955903D01*
X563763Y955914D01*
X563779Y955923D01*
X563918Y956043D01*
X564059Y956160D01*
X564070Y956174D01*
X564084Y956186D01*
X564196Y956331D01*
X564311Y956474D01*
X564319Y956490D01*
X564330Y956504D01*
X564412Y956669D01*
X564497Y956831D01*
X564502Y956848D01*
X564510Y956864D01*
X564557Y957043D01*
X564608Y957218D01*
X564610Y957236D01*
X564614Y957253D01*
X564641Y957584D01*
X564641Y970491D01*
X564639Y970518D01*
X564641Y970545D01*
X564619Y970719D01*
X564601Y970892D01*
X564594Y970917D01*
X564590Y970944D01*
X564535Y971110D01*
X564483Y971277D01*
X564470Y971300D01*
X564462Y971326D01*
X564375Y971477D01*
X564291Y971631D01*
X564274Y971651D01*
X564261Y971675D01*
X564046Y971928D01*
X561506Y974468D01*
X561499Y974473D01*
X561494Y974480D01*
X561344Y974601D01*
X561195Y974723D01*
X561187Y974727D01*
X561180Y974733D01*
X561010Y974821D01*
X560839Y974911D01*
X560830Y974914D01*
X560823Y974918D01*
X560638Y974971D01*
X560453Y975026D01*
X560444Y975027D01*
X560436Y975029D01*
X560245Y975045D01*
X560052Y975063D01*
X560043Y975062D01*
X560034Y975062D01*
X559845Y975040D01*
X559652Y975019D01*
X559643Y975016D01*
X559635Y975015D01*
X559453Y974956D01*
X559268Y974898D01*
X559260Y974893D01*
X559252Y974891D01*
X559083Y974796D01*
X558916Y974703D01*
X558909Y974697D01*
X558901Y974693D01*
X558755Y974567D01*
X558609Y974442D01*
X558603Y974435D01*
X558596Y974430D01*
X558479Y974278D01*
X558359Y974126D01*
X558355Y974118D01*
X558350Y974111D01*
X558264Y973939D01*
X558177Y973767D01*
X558174Y973759D01*
X558170Y973751D01*
X558120Y973565D01*
X558069Y973380D01*
X558068Y973371D01*
X558066Y973362D01*
X558039Y973031D01*
X558039Y971426D01*
X550291Y971426D01*
X550273Y971424D01*
X550256Y971426D01*
X550073Y971405D01*
X549891Y971386D01*
X549874Y971381D01*
X549856Y971379D01*
X549681Y971322D01*
X549506Y971268D01*
X549490Y971260D01*
X549473Y971254D01*
X549313Y971164D01*
X549152Y971076D01*
X549146Y971071D01*
X549115Y971096D01*
X549099Y971104D01*
X549085Y971115D01*
X548920Y971197D01*
X548757Y971282D01*
X548740Y971287D01*
X548724Y971295D01*
X548546Y971342D01*
X548371Y971393D01*
X548353Y971395D01*
X548336Y971399D01*
X548005Y971426D01*
X540257Y971426D01*
X540257Y978746D01*
X540430Y979393D01*
X540765Y979972D01*
X541077Y980284D01*
X541088Y980298D01*
X541101Y980309D01*
X541216Y980453D01*
X541332Y980595D01*
X541340Y980611D01*
X541351Y980625D01*
X541434Y980789D01*
X541520Y980951D01*
X541525Y980968D01*
X541533Y980984D01*
X541583Y981161D01*
X541635Y981337D01*
X541637Y981355D01*
X541641Y981372D01*
X541655Y981555D01*
X541671Y981738D01*
X541669Y981756D01*
X541671Y981773D01*
X541648Y981955D01*
X541628Y982138D01*
X541623Y982155D01*
X541620Y982173D01*
X541562Y982346D01*
X541507Y982522D01*
X541498Y982538D01*
X541492Y982554D01*
X541400Y982714D01*
X541312Y982874D01*
X541300Y982888D01*
X541291Y982903D01*
X541077Y983156D01*
X540431Y983802D01*
X540096Y984381D01*
X540014Y984689D01*
X539966Y984817D01*
X539925Y984949D01*
X539895Y985005D01*
X539872Y985065D01*
X539799Y985182D01*
X539733Y985303D01*
X539692Y985352D01*
X539658Y985407D01*
X539564Y985506D01*
X539476Y985612D01*
X539426Y985652D01*
X539381Y985699D01*
X539269Y985778D01*
X539162Y985864D01*
X539105Y985894D01*
X539052Y985931D01*
X538926Y985987D01*
X538805Y986050D01*
X538743Y986068D01*
X538684Y986094D01*
X538550Y986123D01*
X538418Y986161D01*
X538354Y986166D01*
X538291Y986180D01*
X538154Y986183D01*
X538016Y986194D01*
X537952Y986187D01*
X537888Y986188D01*
X537753Y986163D01*
X537617Y986147D01*
X537555Y986127D01*
X537492Y986116D01*
X537365Y986065D01*
X537234Y986022D01*
X537178Y985991D01*
X537118Y985967D01*
X537003Y985892D01*
X536883Y985824D01*
X536835Y985782D01*
X536781Y985747D01*
X536682Y985651D01*
X536578Y985561D01*
X536539Y985510D01*
X536493Y985465D01*
X536416Y985352D01*
X536332Y985243D01*
X536303Y985186D01*
X536267Y985132D01*
X536214Y985006D01*
X536152Y984883D01*
X536136Y984820D01*
X536111Y984761D01*
X536084Y984627D01*
X536048Y984494D01*
X536042Y984420D01*
X536031Y984367D01*
X536031Y984287D01*
X536021Y984163D01*
X536021Y983889D01*
X534250Y982118D01*
X534233Y982097D01*
X534212Y982080D01*
X534105Y981942D01*
X533995Y981806D01*
X533982Y981783D01*
X533966Y981761D01*
X533888Y981605D01*
X533806Y981451D01*
X533798Y981425D01*
X533786Y981401D01*
X533741Y981232D01*
X533691Y981065D01*
X533689Y981038D01*
X533682Y981012D01*
X533655Y980681D01*
X533655Y957584D01*
X533657Y957566D01*
X533655Y957548D01*
X533676Y957366D01*
X533695Y957183D01*
X533700Y957166D01*
X533702Y957149D01*
X533759Y956974D01*
X533813Y956798D01*
X533821Y956783D01*
X533827Y956766D01*
X533917Y956606D01*
X534005Y956444D01*
X534016Y956431D01*
X534025Y956415D01*
X534145Y956276D01*
X534262Y956135D01*
X534276Y956124D01*
X534288Y956110D01*
X534433Y955998D01*
X534576Y955883D01*
X534592Y955875D01*
X534606Y955864D01*
X534771Y955782D01*
X534933Y955697D01*
X534950Y955692D01*
X534966Y955684D01*
X535145Y955637D01*
X535320Y955586D01*
X535338Y955584D01*
X535355Y955580D01*
X535686Y955553D01*
X538226Y955553D01*
X538244Y955555D01*
G37*
G36*
X902997Y554860D02*
X902997Y554860D01*
X903006Y554860D01*
X903195Y554882D01*
X903388Y554903D01*
X903397Y554906D01*
X903405Y554907D01*
X903587Y554966D01*
X903772Y555024D01*
X903780Y555029D01*
X903788Y555031D01*
X903957Y555127D01*
X904124Y555219D01*
X904131Y555225D01*
X904139Y555229D01*
X904285Y555355D01*
X904431Y555480D01*
X904437Y555487D01*
X904444Y555493D01*
X904561Y555644D01*
X904681Y555796D01*
X904685Y555804D01*
X904690Y555811D01*
X904776Y555983D01*
X904863Y556155D01*
X904866Y556163D01*
X904870Y556171D01*
X904920Y556357D01*
X904971Y556542D01*
X904972Y556551D01*
X904974Y556560D01*
X905001Y556891D01*
X905001Y562554D01*
X905736Y564328D01*
X930462Y589054D01*
X932236Y589789D01*
X938145Y589789D01*
X938172Y589791D01*
X938199Y589789D01*
X938373Y589811D01*
X938546Y589829D01*
X938571Y589836D01*
X938598Y589840D01*
X938764Y589895D01*
X938931Y589947D01*
X938954Y589960D01*
X938980Y589968D01*
X939131Y590055D01*
X939285Y590139D01*
X939305Y590156D01*
X939329Y590169D01*
X939582Y590384D01*
X940474Y591276D01*
X940491Y591297D01*
X940512Y591315D01*
X940619Y591452D01*
X940729Y591588D01*
X940742Y591612D01*
X940758Y591633D01*
X940836Y591789D01*
X940918Y591944D01*
X940926Y591969D01*
X940938Y591993D01*
X940983Y592163D01*
X941033Y592329D01*
X941035Y592356D01*
X941042Y592382D01*
X941069Y592713D01*
X941069Y593975D01*
X941067Y594002D01*
X941069Y594029D01*
X941047Y594203D01*
X941029Y594376D01*
X941022Y594401D01*
X941018Y594428D01*
X940963Y594594D01*
X940911Y594761D01*
X940898Y594784D01*
X940890Y594810D01*
X940803Y594961D01*
X940719Y595115D01*
X940702Y595135D01*
X940689Y595159D01*
X940474Y595412D01*
X935311Y600575D01*
X935305Y600580D01*
X935299Y600587D01*
X935149Y600707D01*
X935000Y600830D01*
X934992Y600834D01*
X934985Y600839D01*
X934815Y600928D01*
X934644Y601018D01*
X934636Y601021D01*
X934628Y601025D01*
X934443Y601078D01*
X934258Y601133D01*
X934249Y601134D01*
X934241Y601136D01*
X934050Y601152D01*
X933857Y601169D01*
X933848Y601168D01*
X933840Y601169D01*
X933650Y601147D01*
X933457Y601126D01*
X933449Y601123D01*
X933440Y601122D01*
X933258Y601063D01*
X933073Y601005D01*
X933065Y601000D01*
X933057Y600997D01*
X932889Y600902D01*
X932721Y600810D01*
X932714Y600804D01*
X932706Y600800D01*
X932560Y600674D01*
X932414Y600549D01*
X932408Y600542D01*
X932402Y600536D01*
X932284Y600385D01*
X932164Y600233D01*
X932160Y600225D01*
X932155Y600218D01*
X932069Y600046D01*
X931982Y599874D01*
X931980Y599866D01*
X931976Y599858D01*
X931926Y599672D01*
X931874Y599486D01*
X931873Y599478D01*
X931871Y599469D01*
X931844Y599138D01*
X931844Y598565D01*
X898760Y565481D01*
X896570Y563291D01*
X896558Y563277D01*
X896545Y563266D01*
X896431Y563121D01*
X896315Y562980D01*
X896306Y562964D01*
X896295Y562950D01*
X896212Y562786D01*
X896126Y562624D01*
X896121Y562607D01*
X896113Y562591D01*
X896064Y562414D01*
X896011Y562238D01*
X896010Y562220D01*
X896005Y562203D01*
X895991Y562020D01*
X895975Y561837D01*
X895977Y561819D01*
X895975Y561801D01*
X895998Y561619D01*
X896018Y561437D01*
X896024Y561420D01*
X896026Y561402D01*
X896084Y561228D01*
X896140Y561053D01*
X896148Y561037D01*
X896154Y561020D01*
X896246Y560861D01*
X896335Y560700D01*
X896346Y560687D01*
X896355Y560671D01*
X896570Y560418D01*
X898760Y558228D01*
X901534Y555454D01*
X901541Y555449D01*
X901546Y555442D01*
X901696Y555322D01*
X901845Y555199D01*
X901853Y555195D01*
X901860Y555190D01*
X902030Y555101D01*
X902201Y555011D01*
X902210Y555008D01*
X902217Y555004D01*
X902402Y554951D01*
X902587Y554896D01*
X902596Y554895D01*
X902604Y554893D01*
X902795Y554877D01*
X902988Y554859D01*
X902997Y554860D01*
G37*
%LPC*%
G36*
X548495Y993393D02*
X548495Y993393D01*
X548495Y999903D01*
X550799Y999903D01*
X551445Y999730D01*
X552024Y999395D01*
X552497Y998922D01*
X552832Y998343D01*
X553005Y997697D01*
X553005Y993393D01*
X548495Y993393D01*
G37*
%LPD*%
D10*
X19500Y561723D02*
X19505Y562103D01*
X19519Y562484D01*
X19542Y562863D01*
X19575Y563242D01*
X19617Y563620D01*
X19668Y563997D01*
X19728Y564373D01*
X19798Y564747D01*
X19877Y565119D01*
X19965Y565489D01*
X20061Y565857D01*
X20167Y566222D01*
X20282Y566585D01*
X20406Y566945D01*
X20539Y567301D01*
X20680Y567655D01*
X20830Y568004D01*
X20988Y568350D01*
X21155Y568692D01*
X21330Y569030D01*
X21514Y569363D01*
X21705Y569692D01*
X21905Y570015D01*
X22112Y570334D01*
X22327Y570648D01*
X22550Y570956D01*
X22781Y571259D01*
X23018Y571556D01*
X23263Y571847D01*
X23515Y572132D01*
X23774Y572411D01*
X24040Y572683D01*
X24312Y572949D01*
X24591Y573208D01*
X24876Y573460D01*
X25167Y573705D01*
X25464Y573942D01*
X25767Y574173D01*
X26075Y574396D01*
X26389Y574611D01*
X26708Y574818D01*
X27031Y575018D01*
X27360Y575209D01*
X27693Y575393D01*
X28031Y575568D01*
X28373Y575735D01*
X28719Y575893D01*
X29068Y576043D01*
X29422Y576184D01*
X29778Y576317D01*
X30138Y576441D01*
X30501Y576556D01*
X30866Y576662D01*
X31234Y576758D01*
X31604Y576846D01*
X31976Y576925D01*
X32350Y576995D01*
X32726Y577055D01*
X33103Y577106D01*
X33481Y577148D01*
X33860Y577181D01*
X34239Y577204D01*
X34620Y577218D01*
X35000Y577223D01*
X35380Y577218D01*
X35761Y577204D01*
X36140Y577181D01*
X36519Y577148D01*
X36897Y577106D01*
X37274Y577055D01*
X37650Y576995D01*
X38024Y576925D01*
X38396Y576846D01*
X38766Y576758D01*
X39134Y576662D01*
X39499Y576556D01*
X39862Y576441D01*
X40222Y576317D01*
X40578Y576184D01*
X40932Y576043D01*
X41281Y575893D01*
X41627Y575735D01*
X41969Y575568D01*
X42307Y575393D01*
X42640Y575209D01*
X42969Y575018D01*
X43292Y574818D01*
X43611Y574611D01*
X43925Y574396D01*
X44233Y574173D01*
X44536Y573942D01*
X44833Y573705D01*
X45124Y573460D01*
X45409Y573208D01*
X45688Y572949D01*
X45960Y572683D01*
X46226Y572411D01*
X46485Y572132D01*
X46737Y571847D01*
X46982Y571556D01*
X47219Y571259D01*
X47450Y570956D01*
X47673Y570648D01*
X47888Y570334D01*
X48095Y570015D01*
X48295Y569692D01*
X48486Y569363D01*
X48670Y569030D01*
X48845Y568692D01*
X49012Y568350D01*
X49170Y568004D01*
X49320Y567655D01*
X49461Y567301D01*
X49594Y566945D01*
X49718Y566585D01*
X49833Y566222D01*
X49939Y565857D01*
X50035Y565489D01*
X50123Y565119D01*
X50202Y564747D01*
X50272Y564373D01*
X50332Y563997D01*
X50383Y563620D01*
X50425Y563242D01*
X50458Y562863D01*
X50481Y562484D01*
X50495Y562103D01*
X50500Y561723D01*
X50495Y561343D01*
X50481Y560962D01*
X50458Y560583D01*
X50425Y560204D01*
X50383Y559826D01*
X50332Y559449D01*
X50272Y559073D01*
X50202Y558699D01*
X50123Y558327D01*
X50035Y557957D01*
X49939Y557589D01*
X49833Y557224D01*
X49718Y556861D01*
X49594Y556501D01*
X49461Y556145D01*
X49320Y555791D01*
X49170Y555442D01*
X49012Y555096D01*
X48845Y554754D01*
X48670Y554416D01*
X48486Y554083D01*
X48295Y553754D01*
X48095Y553431D01*
X47888Y553112D01*
X47673Y552798D01*
X47450Y552490D01*
X47219Y552187D01*
X46982Y551890D01*
X46737Y551599D01*
X46485Y551314D01*
X46226Y551035D01*
X45960Y550763D01*
X45688Y550497D01*
X45409Y550238D01*
X45124Y549986D01*
X44833Y549741D01*
X44536Y549504D01*
X44233Y549273D01*
X43925Y549050D01*
X43611Y548835D01*
X43292Y548628D01*
X42969Y548428D01*
X42640Y548237D01*
X42307Y548053D01*
X41969Y547878D01*
X41627Y547711D01*
X41281Y547553D01*
X40932Y547403D01*
X40578Y547262D01*
X40222Y547129D01*
X39862Y547005D01*
X39499Y546890D01*
X39134Y546784D01*
X38766Y546688D01*
X38396Y546600D01*
X38024Y546521D01*
X37650Y546451D01*
X37274Y546391D01*
X36897Y546340D01*
X36519Y546298D01*
X36140Y546265D01*
X35761Y546242D01*
X35380Y546228D01*
X35000Y546223D01*
X34620Y546228D01*
X34239Y546242D01*
X33860Y546265D01*
X33481Y546298D01*
X33103Y546340D01*
X32726Y546391D01*
X32350Y546451D01*
X31976Y546521D01*
X31604Y546600D01*
X31234Y546688D01*
X30866Y546784D01*
X30501Y546890D01*
X30138Y547005D01*
X29778Y547129D01*
X29422Y547262D01*
X29068Y547403D01*
X28719Y547553D01*
X28373Y547711D01*
X28031Y547878D01*
X27693Y548053D01*
X27360Y548237D01*
X27031Y548428D01*
X26708Y548628D01*
X26389Y548835D01*
X26075Y549050D01*
X25767Y549273D01*
X25464Y549504D01*
X25167Y549741D01*
X24876Y549986D01*
X24591Y550238D01*
X24312Y550497D01*
X24040Y550763D01*
X23774Y551035D01*
X23515Y551314D01*
X23263Y551599D01*
X23018Y551890D01*
X22781Y552187D01*
X22550Y552490D01*
X22327Y552798D01*
X22112Y553112D01*
X21905Y553431D01*
X21705Y553754D01*
X21514Y554083D01*
X21330Y554416D01*
X21155Y554754D01*
X20988Y555096D01*
X20830Y555442D01*
X20680Y555791D01*
X20539Y556145D01*
X20406Y556501D01*
X20282Y556861D01*
X20167Y557224D01*
X20061Y557589D01*
X19965Y557957D01*
X19877Y558327D01*
X19798Y558699D01*
X19728Y559073D01*
X19668Y559449D01*
X19617Y559826D01*
X19575Y560204D01*
X19542Y560583D01*
X19519Y560962D01*
X19505Y561343D01*
X19500Y561723D01*
X1072946Y561723D02*
X1072951Y562103D01*
X1072965Y562484D01*
X1072988Y562863D01*
X1073021Y563242D01*
X1073063Y563620D01*
X1073114Y563997D01*
X1073174Y564373D01*
X1073244Y564747D01*
X1073323Y565119D01*
X1073411Y565489D01*
X1073507Y565857D01*
X1073613Y566222D01*
X1073728Y566585D01*
X1073852Y566945D01*
X1073985Y567301D01*
X1074126Y567655D01*
X1074276Y568004D01*
X1074434Y568350D01*
X1074601Y568692D01*
X1074776Y569030D01*
X1074960Y569363D01*
X1075151Y569692D01*
X1075351Y570015D01*
X1075558Y570334D01*
X1075773Y570648D01*
X1075996Y570956D01*
X1076227Y571259D01*
X1076464Y571556D01*
X1076709Y571847D01*
X1076961Y572132D01*
X1077220Y572411D01*
X1077486Y572683D01*
X1077758Y572949D01*
X1078037Y573208D01*
X1078322Y573460D01*
X1078613Y573705D01*
X1078910Y573942D01*
X1079213Y574173D01*
X1079521Y574396D01*
X1079835Y574611D01*
X1080154Y574818D01*
X1080477Y575018D01*
X1080806Y575209D01*
X1081139Y575393D01*
X1081477Y575568D01*
X1081819Y575735D01*
X1082165Y575893D01*
X1082514Y576043D01*
X1082868Y576184D01*
X1083224Y576317D01*
X1083584Y576441D01*
X1083947Y576556D01*
X1084312Y576662D01*
X1084680Y576758D01*
X1085050Y576846D01*
X1085422Y576925D01*
X1085796Y576995D01*
X1086172Y577055D01*
X1086549Y577106D01*
X1086927Y577148D01*
X1087306Y577181D01*
X1087685Y577204D01*
X1088066Y577218D01*
X1088446Y577223D01*
X1088826Y577218D01*
X1089207Y577204D01*
X1089586Y577181D01*
X1089965Y577148D01*
X1090343Y577106D01*
X1090720Y577055D01*
X1091096Y576995D01*
X1091470Y576925D01*
X1091842Y576846D01*
X1092212Y576758D01*
X1092580Y576662D01*
X1092945Y576556D01*
X1093308Y576441D01*
X1093668Y576317D01*
X1094024Y576184D01*
X1094378Y576043D01*
X1094727Y575893D01*
X1095073Y575735D01*
X1095415Y575568D01*
X1095753Y575393D01*
X1096086Y575209D01*
X1096415Y575018D01*
X1096738Y574818D01*
X1097057Y574611D01*
X1097371Y574396D01*
X1097679Y574173D01*
X1097982Y573942D01*
X1098279Y573705D01*
X1098570Y573460D01*
X1098855Y573208D01*
X1099134Y572949D01*
X1099406Y572683D01*
X1099672Y572411D01*
X1099931Y572132D01*
X1100183Y571847D01*
X1100428Y571556D01*
X1100665Y571259D01*
X1100896Y570956D01*
X1101119Y570648D01*
X1101334Y570334D01*
X1101541Y570015D01*
X1101741Y569692D01*
X1101932Y569363D01*
X1102116Y569030D01*
X1102291Y568692D01*
X1102458Y568350D01*
X1102616Y568004D01*
X1102766Y567655D01*
X1102907Y567301D01*
X1103040Y566945D01*
X1103164Y566585D01*
X1103279Y566222D01*
X1103385Y565857D01*
X1103481Y565489D01*
X1103569Y565119D01*
X1103648Y564747D01*
X1103718Y564373D01*
X1103778Y563997D01*
X1103829Y563620D01*
X1103871Y563242D01*
X1103904Y562863D01*
X1103927Y562484D01*
X1103941Y562103D01*
X1103946Y561723D01*
X1103941Y561343D01*
X1103927Y560962D01*
X1103904Y560583D01*
X1103871Y560204D01*
X1103829Y559826D01*
X1103778Y559449D01*
X1103718Y559073D01*
X1103648Y558699D01*
X1103569Y558327D01*
X1103481Y557957D01*
X1103385Y557589D01*
X1103279Y557224D01*
X1103164Y556861D01*
X1103040Y556501D01*
X1102907Y556145D01*
X1102766Y555791D01*
X1102616Y555442D01*
X1102458Y555096D01*
X1102291Y554754D01*
X1102116Y554416D01*
X1101932Y554083D01*
X1101741Y553754D01*
X1101541Y553431D01*
X1101334Y553112D01*
X1101119Y552798D01*
X1100896Y552490D01*
X1100665Y552187D01*
X1100428Y551890D01*
X1100183Y551599D01*
X1099931Y551314D01*
X1099672Y551035D01*
X1099406Y550763D01*
X1099134Y550497D01*
X1098855Y550238D01*
X1098570Y549986D01*
X1098279Y549741D01*
X1097982Y549504D01*
X1097679Y549273D01*
X1097371Y549050D01*
X1097057Y548835D01*
X1096738Y548628D01*
X1096415Y548428D01*
X1096086Y548237D01*
X1095753Y548053D01*
X1095415Y547878D01*
X1095073Y547711D01*
X1094727Y547553D01*
X1094378Y547403D01*
X1094024Y547262D01*
X1093668Y547129D01*
X1093308Y547005D01*
X1092945Y546890D01*
X1092580Y546784D01*
X1092212Y546688D01*
X1091842Y546600D01*
X1091470Y546521D01*
X1091096Y546451D01*
X1090720Y546391D01*
X1090343Y546340D01*
X1089965Y546298D01*
X1089586Y546265D01*
X1089207Y546242D01*
X1088826Y546228D01*
X1088446Y546223D01*
X1088066Y546228D01*
X1087685Y546242D01*
X1087306Y546265D01*
X1086927Y546298D01*
X1086549Y546340D01*
X1086172Y546391D01*
X1085796Y546451D01*
X1085422Y546521D01*
X1085050Y546600D01*
X1084680Y546688D01*
X1084312Y546784D01*
X1083947Y546890D01*
X1083584Y547005D01*
X1083224Y547129D01*
X1082868Y547262D01*
X1082514Y547403D01*
X1082165Y547553D01*
X1081819Y547711D01*
X1081477Y547878D01*
X1081139Y548053D01*
X1080806Y548237D01*
X1080477Y548428D01*
X1080154Y548628D01*
X1079835Y548835D01*
X1079521Y549050D01*
X1079213Y549273D01*
X1078910Y549504D01*
X1078613Y549741D01*
X1078322Y549986D01*
X1078037Y550238D01*
X1077758Y550497D01*
X1077486Y550763D01*
X1077220Y551035D01*
X1076961Y551314D01*
X1076709Y551599D01*
X1076464Y551890D01*
X1076227Y552187D01*
X1075996Y552490D01*
X1075773Y552798D01*
X1075558Y553112D01*
X1075351Y553431D01*
X1075151Y553754D01*
X1074960Y554083D01*
X1074776Y554416D01*
X1074601Y554754D01*
X1074434Y555096D01*
X1074276Y555442D01*
X1074126Y555791D01*
X1073985Y556145D01*
X1073852Y556501D01*
X1073728Y556861D01*
X1073613Y557224D01*
X1073507Y557589D01*
X1073411Y557957D01*
X1073323Y558327D01*
X1073244Y558699D01*
X1073174Y559073D01*
X1073114Y559449D01*
X1073063Y559826D01*
X1073021Y560204D01*
X1072988Y560583D01*
X1072965Y560962D01*
X1072951Y561343D01*
X1072946Y561723D01*
X261723Y561723D02*
X261813Y569085D01*
X262084Y576443D01*
X262536Y583792D01*
X263168Y591128D01*
X263979Y598446D01*
X264970Y605742D01*
X266140Y613012D01*
X267487Y620250D01*
X269012Y627453D01*
X270714Y634617D01*
X272590Y641737D01*
X274641Y648808D01*
X276865Y655828D01*
X279260Y662790D01*
X281825Y669692D01*
X284559Y676528D01*
X287460Y683295D01*
X290526Y689990D01*
X293756Y696606D01*
X297147Y703142D01*
X300697Y709592D01*
X304404Y715954D01*
X308267Y722222D01*
X312282Y728394D01*
X316448Y734465D01*
X320761Y740433D01*
X325219Y746292D01*
X329820Y752041D01*
X334560Y757675D01*
X339438Y763191D01*
X344449Y768585D01*
X349591Y773855D01*
X354861Y778997D01*
X360255Y784008D01*
X365771Y788886D01*
X371405Y793626D01*
X377154Y798227D01*
X383013Y802685D01*
X388981Y806998D01*
X395052Y811164D01*
X401224Y815179D01*
X407492Y819042D01*
X413854Y822749D01*
X420304Y826299D01*
X426840Y829690D01*
X433456Y832920D01*
X440151Y835986D01*
X446918Y838887D01*
X453754Y841621D01*
X460656Y844186D01*
X467618Y846581D01*
X474638Y848805D01*
X481709Y850856D01*
X488829Y852732D01*
X495993Y854434D01*
X503196Y855959D01*
X510434Y857306D01*
X517704Y858476D01*
X525000Y859467D01*
X532318Y860278D01*
X539654Y860910D01*
X547003Y861362D01*
X554361Y861633D01*
X561723Y861723D01*
X569085Y861633D01*
X576443Y861362D01*
X583792Y860910D01*
X591128Y860278D01*
X598446Y859467D01*
X605742Y858476D01*
X613012Y857306D01*
X620250Y855959D01*
X627453Y854434D01*
X634617Y852732D01*
X641737Y850856D01*
X648808Y848805D01*
X655828Y846581D01*
X662790Y844186D01*
X669692Y841621D01*
X676528Y838887D01*
X683295Y835986D01*
X689990Y832920D01*
X696606Y829690D01*
X703142Y826299D01*
X709592Y822749D01*
X715954Y819042D01*
X722222Y815179D01*
X728394Y811164D01*
X734465Y806998D01*
X740433Y802685D01*
X746292Y798227D01*
X752041Y793626D01*
X757675Y788886D01*
X763191Y784008D01*
X768585Y778997D01*
X773855Y773855D01*
X778997Y768585D01*
X784008Y763191D01*
X788886Y757675D01*
X793626Y752041D01*
X798227Y746292D01*
X802685Y740433D01*
X806998Y734465D01*
X811164Y728394D01*
X815179Y722222D01*
X819042Y715954D01*
X822749Y709592D01*
X826299Y703142D01*
X829690Y696606D01*
X832920Y689990D01*
X835986Y683295D01*
X838887Y676528D01*
X841621Y669692D01*
X844186Y662790D01*
X846581Y655828D01*
X848805Y648808D01*
X850856Y641737D01*
X852732Y634617D01*
X854434Y627453D01*
X855959Y620250D01*
X857306Y613012D01*
X858476Y605742D01*
X859467Y598446D01*
X860278Y591128D01*
X860910Y583792D01*
X861362Y576443D01*
X861633Y569085D01*
X861723Y561723D01*
X861633Y554361D01*
X861362Y547003D01*
X860910Y539654D01*
X860278Y532318D01*
X859467Y525000D01*
X858476Y517704D01*
X857306Y510434D01*
X855959Y503196D01*
X854434Y495993D01*
X852732Y488829D01*
X850856Y481709D01*
X848805Y474638D01*
X846581Y467618D01*
X844186Y460656D01*
X841621Y453754D01*
X838887Y446918D01*
X835986Y440151D01*
X832920Y433456D01*
X829690Y426840D01*
X826299Y420304D01*
X822749Y413854D01*
X819042Y407492D01*
X815179Y401224D01*
X811164Y395052D01*
X806998Y388981D01*
X802685Y383013D01*
X798227Y377154D01*
X793626Y371405D01*
X788886Y365771D01*
X784008Y360255D01*
X778997Y354861D01*
X773855Y349591D01*
X768585Y344449D01*
X763191Y339438D01*
X757675Y334560D01*
X752041Y329820D01*
X746292Y325219D01*
X740433Y320761D01*
X734465Y316448D01*
X728394Y312282D01*
X722222Y308267D01*
X715954Y304404D01*
X709592Y300697D01*
X703142Y297147D01*
X696606Y293756D01*
X689990Y290526D01*
X683295Y287460D01*
X676528Y284559D01*
X669692Y281825D01*
X662790Y279260D01*
X655828Y276865D01*
X648808Y274641D01*
X641737Y272590D01*
X634617Y270714D01*
X627453Y269012D01*
X620250Y267487D01*
X613012Y266140D01*
X605742Y264970D01*
X598446Y263979D01*
X591128Y263168D01*
X583792Y262536D01*
X576443Y262084D01*
X569085Y261813D01*
X561723Y261723D01*
X554361Y261813D01*
X547003Y262084D01*
X539654Y262536D01*
X532318Y263168D01*
X525000Y263979D01*
X517704Y264970D01*
X510434Y266140D01*
X503196Y267487D01*
X495993Y269012D01*
X488829Y270714D01*
X481709Y272590D01*
X474638Y274641D01*
X467618Y276865D01*
X460656Y279260D01*
X453754Y281825D01*
X446918Y284559D01*
X440151Y287460D01*
X433456Y290526D01*
X426840Y293756D01*
X420304Y297147D01*
X413854Y300697D01*
X407492Y304404D01*
X401224Y308267D01*
X395052Y312282D01*
X388981Y316448D01*
X383013Y320761D01*
X377154Y325219D01*
X371405Y329820D01*
X365771Y334560D01*
X360255Y339438D01*
X354861Y344449D01*
X349591Y349591D01*
X344449Y354861D01*
X339438Y360255D01*
X334560Y365771D01*
X329820Y371405D01*
X325219Y377154D01*
X320761Y383013D01*
X316448Y388981D01*
X312282Y395052D01*
X308267Y401224D01*
X304404Y407492D01*
X300697Y413854D01*
X297147Y420304D01*
X293756Y426840D01*
X290526Y433456D01*
X287460Y440151D01*
X284559Y446918D01*
X281825Y453754D01*
X279260Y460656D01*
X276865Y467618D01*
X274641Y474638D01*
X272590Y481709D01*
X270714Y488829D01*
X269012Y495993D01*
X267487Y503196D01*
X266140Y510434D01*
X264970Y517704D01*
X263979Y525000D01*
X263168Y532318D01*
X262536Y539654D01*
X262084Y547003D01*
X261813Y554361D01*
X261723Y561723D01*
X546223Y1088446D02*
X546228Y1088826D01*
X546242Y1089207D01*
X546265Y1089586D01*
X546298Y1089965D01*
X546340Y1090343D01*
X546391Y1090720D01*
X546451Y1091096D01*
X546521Y1091470D01*
X546600Y1091842D01*
X546688Y1092212D01*
X546784Y1092580D01*
X546890Y1092945D01*
X547005Y1093308D01*
X547129Y1093668D01*
X547262Y1094024D01*
X547403Y1094378D01*
X547553Y1094727D01*
X547711Y1095073D01*
X547878Y1095415D01*
X548053Y1095753D01*
X548237Y1096086D01*
X548428Y1096415D01*
X548628Y1096738D01*
X548835Y1097057D01*
X549050Y1097371D01*
X549273Y1097679D01*
X549504Y1097982D01*
X549741Y1098279D01*
X549986Y1098570D01*
X550238Y1098855D01*
X550497Y1099134D01*
X550763Y1099406D01*
X551035Y1099672D01*
X551314Y1099931D01*
X551599Y1100183D01*
X551890Y1100428D01*
X552187Y1100665D01*
X552490Y1100896D01*
X552798Y1101119D01*
X553112Y1101334D01*
X553431Y1101541D01*
X553754Y1101741D01*
X554083Y1101932D01*
X554416Y1102116D01*
X554754Y1102291D01*
X555096Y1102458D01*
X555442Y1102616D01*
X555791Y1102766D01*
X556145Y1102907D01*
X556501Y1103040D01*
X556861Y1103164D01*
X557224Y1103279D01*
X557589Y1103385D01*
X557957Y1103481D01*
X558327Y1103569D01*
X558699Y1103648D01*
X559073Y1103718D01*
X559449Y1103778D01*
X559826Y1103829D01*
X560204Y1103871D01*
X560583Y1103904D01*
X560962Y1103927D01*
X561343Y1103941D01*
X561723Y1103946D01*
X562103Y1103941D01*
X562484Y1103927D01*
X562863Y1103904D01*
X563242Y1103871D01*
X563620Y1103829D01*
X563997Y1103778D01*
X564373Y1103718D01*
X564747Y1103648D01*
X565119Y1103569D01*
X565489Y1103481D01*
X565857Y1103385D01*
X566222Y1103279D01*
X566585Y1103164D01*
X566945Y1103040D01*
X567301Y1102907D01*
X567655Y1102766D01*
X568004Y1102616D01*
X568350Y1102458D01*
X568692Y1102291D01*
X569030Y1102116D01*
X569363Y1101932D01*
X569692Y1101741D01*
X570015Y1101541D01*
X570334Y1101334D01*
X570648Y1101119D01*
X570956Y1100896D01*
X571259Y1100665D01*
X571556Y1100428D01*
X571847Y1100183D01*
X572132Y1099931D01*
X572411Y1099672D01*
X572683Y1099406D01*
X572949Y1099134D01*
X573208Y1098855D01*
X573460Y1098570D01*
X573705Y1098279D01*
X573942Y1097982D01*
X574173Y1097679D01*
X574396Y1097371D01*
X574611Y1097057D01*
X574818Y1096738D01*
X575018Y1096415D01*
X575209Y1096086D01*
X575393Y1095753D01*
X575568Y1095415D01*
X575735Y1095073D01*
X575893Y1094727D01*
X576043Y1094378D01*
X576184Y1094024D01*
X576317Y1093668D01*
X576441Y1093308D01*
X576556Y1092945D01*
X576662Y1092580D01*
X576758Y1092212D01*
X576846Y1091842D01*
X576925Y1091470D01*
X576995Y1091096D01*
X577055Y1090720D01*
X577106Y1090343D01*
X577148Y1089965D01*
X577181Y1089586D01*
X577204Y1089207D01*
X577218Y1088826D01*
X577223Y1088446D01*
X577218Y1088066D01*
X577204Y1087685D01*
X577181Y1087306D01*
X577148Y1086927D01*
X577106Y1086549D01*
X577055Y1086172D01*
X576995Y1085796D01*
X576925Y1085422D01*
X576846Y1085050D01*
X576758Y1084680D01*
X576662Y1084312D01*
X576556Y1083947D01*
X576441Y1083584D01*
X576317Y1083224D01*
X576184Y1082868D01*
X576043Y1082514D01*
X575893Y1082165D01*
X575735Y1081819D01*
X575568Y1081477D01*
X575393Y1081139D01*
X575209Y1080806D01*
X575018Y1080477D01*
X574818Y1080154D01*
X574611Y1079835D01*
X574396Y1079521D01*
X574173Y1079213D01*
X573942Y1078910D01*
X573705Y1078613D01*
X573460Y1078322D01*
X573208Y1078037D01*
X572949Y1077758D01*
X572683Y1077486D01*
X572411Y1077220D01*
X572132Y1076961D01*
X571847Y1076709D01*
X571556Y1076464D01*
X571259Y1076227D01*
X570956Y1075996D01*
X570648Y1075773D01*
X570334Y1075558D01*
X570015Y1075351D01*
X569692Y1075151D01*
X569363Y1074960D01*
X569030Y1074776D01*
X568692Y1074601D01*
X568350Y1074434D01*
X568004Y1074276D01*
X567655Y1074126D01*
X567301Y1073985D01*
X566945Y1073852D01*
X566585Y1073728D01*
X566222Y1073613D01*
X565857Y1073507D01*
X565489Y1073411D01*
X565119Y1073323D01*
X564747Y1073244D01*
X564373Y1073174D01*
X563997Y1073114D01*
X563620Y1073063D01*
X563242Y1073021D01*
X562863Y1072988D01*
X562484Y1072965D01*
X562103Y1072951D01*
X561723Y1072946D01*
X561343Y1072951D01*
X560962Y1072965D01*
X560583Y1072988D01*
X560204Y1073021D01*
X559826Y1073063D01*
X559449Y1073114D01*
X559073Y1073174D01*
X558699Y1073244D01*
X558327Y1073323D01*
X557957Y1073411D01*
X557589Y1073507D01*
X557224Y1073613D01*
X556861Y1073728D01*
X556501Y1073852D01*
X556145Y1073985D01*
X555791Y1074126D01*
X555442Y1074276D01*
X555096Y1074434D01*
X554754Y1074601D01*
X554416Y1074776D01*
X554083Y1074960D01*
X553754Y1075151D01*
X553431Y1075351D01*
X553112Y1075558D01*
X552798Y1075773D01*
X552490Y1075996D01*
X552187Y1076227D01*
X551890Y1076464D01*
X551599Y1076709D01*
X551314Y1076961D01*
X551035Y1077220D01*
X550763Y1077486D01*
X550497Y1077758D01*
X550238Y1078037D01*
X549986Y1078322D01*
X549741Y1078613D01*
X549504Y1078910D01*
X549273Y1079213D01*
X549050Y1079521D01*
X548835Y1079835D01*
X548628Y1080154D01*
X548428Y1080477D01*
X548237Y1080806D01*
X548053Y1081139D01*
X547878Y1081477D01*
X547711Y1081819D01*
X547553Y1082165D01*
X547403Y1082514D01*
X547262Y1082868D01*
X547129Y1083224D01*
X547005Y1083584D01*
X546890Y1083947D01*
X546784Y1084312D01*
X546688Y1084680D01*
X546600Y1085050D01*
X546521Y1085422D01*
X546451Y1085796D01*
X546391Y1086172D01*
X546340Y1086549D01*
X546298Y1086927D01*
X546265Y1087306D01*
X546242Y1087685D01*
X546228Y1088066D01*
X546223Y1088446D01*
X546223Y35000D02*
X546228Y35380D01*
X546242Y35761D01*
X546265Y36140D01*
X546298Y36519D01*
X546340Y36897D01*
X546391Y37274D01*
X546451Y37650D01*
X546521Y38024D01*
X546600Y38396D01*
X546688Y38766D01*
X546784Y39134D01*
X546890Y39499D01*
X547005Y39862D01*
X547129Y40222D01*
X547262Y40578D01*
X547403Y40932D01*
X547553Y41281D01*
X547711Y41627D01*
X547878Y41969D01*
X548053Y42307D01*
X548237Y42640D01*
X548428Y42969D01*
X548628Y43292D01*
X548835Y43611D01*
X549050Y43925D01*
X549273Y44233D01*
X549504Y44536D01*
X549741Y44833D01*
X549986Y45124D01*
X550238Y45409D01*
X550497Y45688D01*
X550763Y45960D01*
X551035Y46226D01*
X551314Y46485D01*
X551599Y46737D01*
X551890Y46982D01*
X552187Y47219D01*
X552490Y47450D01*
X552798Y47673D01*
X553112Y47888D01*
X553431Y48095D01*
X553754Y48295D01*
X554083Y48486D01*
X554416Y48670D01*
X554754Y48845D01*
X555096Y49012D01*
X555442Y49170D01*
X555791Y49320D01*
X556145Y49461D01*
X556501Y49594D01*
X556861Y49718D01*
X557224Y49833D01*
X557589Y49939D01*
X557957Y50035D01*
X558327Y50123D01*
X558699Y50202D01*
X559073Y50272D01*
X559449Y50332D01*
X559826Y50383D01*
X560204Y50425D01*
X560583Y50458D01*
X560962Y50481D01*
X561343Y50495D01*
X561723Y50500D01*
X562103Y50495D01*
X562484Y50481D01*
X562863Y50458D01*
X563242Y50425D01*
X563620Y50383D01*
X563997Y50332D01*
X564373Y50272D01*
X564747Y50202D01*
X565119Y50123D01*
X565489Y50035D01*
X565857Y49939D01*
X566222Y49833D01*
X566585Y49718D01*
X566945Y49594D01*
X567301Y49461D01*
X567655Y49320D01*
X568004Y49170D01*
X568350Y49012D01*
X568692Y48845D01*
X569030Y48670D01*
X569363Y48486D01*
X569692Y48295D01*
X570015Y48095D01*
X570334Y47888D01*
X570648Y47673D01*
X570956Y47450D01*
X571259Y47219D01*
X571556Y46982D01*
X571847Y46737D01*
X572132Y46485D01*
X572411Y46226D01*
X572683Y45960D01*
X572949Y45688D01*
X573208Y45409D01*
X573460Y45124D01*
X573705Y44833D01*
X573942Y44536D01*
X574173Y44233D01*
X574396Y43925D01*
X574611Y43611D01*
X574818Y43292D01*
X575018Y42969D01*
X575209Y42640D01*
X575393Y42307D01*
X575568Y41969D01*
X575735Y41627D01*
X575893Y41281D01*
X576043Y40932D01*
X576184Y40578D01*
X576317Y40222D01*
X576441Y39862D01*
X576556Y39499D01*
X576662Y39134D01*
X576758Y38766D01*
X576846Y38396D01*
X576925Y38024D01*
X576995Y37650D01*
X577055Y37274D01*
X577106Y36897D01*
X577148Y36519D01*
X577181Y36140D01*
X577204Y35761D01*
X577218Y35380D01*
X577223Y35000D01*
X577218Y34620D01*
X577204Y34239D01*
X577181Y33860D01*
X577148Y33481D01*
X577106Y33103D01*
X577055Y32726D01*
X576995Y32350D01*
X576925Y31976D01*
X576846Y31604D01*
X576758Y31234D01*
X576662Y30866D01*
X576556Y30501D01*
X576441Y30138D01*
X576317Y29778D01*
X576184Y29422D01*
X576043Y29068D01*
X575893Y28719D01*
X575735Y28373D01*
X575568Y28031D01*
X575393Y27693D01*
X575209Y27360D01*
X575018Y27031D01*
X574818Y26708D01*
X574611Y26389D01*
X574396Y26075D01*
X574173Y25767D01*
X573942Y25464D01*
X573705Y25167D01*
X573460Y24876D01*
X573208Y24591D01*
X572949Y24312D01*
X572683Y24040D01*
X572411Y23774D01*
X572132Y23515D01*
X571847Y23263D01*
X571556Y23018D01*
X571259Y22781D01*
X570956Y22550D01*
X570648Y22327D01*
X570334Y22112D01*
X570015Y21905D01*
X569692Y21705D01*
X569363Y21514D01*
X569030Y21330D01*
X568692Y21155D01*
X568350Y20988D01*
X568004Y20830D01*
X567655Y20680D01*
X567301Y20539D01*
X566945Y20406D01*
X566585Y20282D01*
X566222Y20167D01*
X565857Y20061D01*
X565489Y19965D01*
X565119Y19877D01*
X564747Y19798D01*
X564373Y19728D01*
X563997Y19668D01*
X563620Y19617D01*
X563242Y19575D01*
X562863Y19542D01*
X562484Y19519D01*
X562103Y19505D01*
X561723Y19500D01*
X561343Y19505D01*
X560962Y19519D01*
X560583Y19542D01*
X560204Y19575D01*
X559826Y19617D01*
X559449Y19668D01*
X559073Y19728D01*
X558699Y19798D01*
X558327Y19877D01*
X557957Y19965D01*
X557589Y20061D01*
X557224Y20167D01*
X556861Y20282D01*
X556501Y20406D01*
X556145Y20539D01*
X555791Y20680D01*
X555442Y20830D01*
X555096Y20988D01*
X554754Y21155D01*
X554416Y21330D01*
X554083Y21514D01*
X553754Y21705D01*
X553431Y21905D01*
X553112Y22112D01*
X552798Y22327D01*
X552490Y22550D01*
X552187Y22781D01*
X551890Y23018D01*
X551599Y23263D01*
X551314Y23515D01*
X551035Y23774D01*
X550763Y24040D01*
X550497Y24312D01*
X550238Y24591D01*
X549986Y24876D01*
X549741Y25167D01*
X549504Y25464D01*
X549273Y25767D01*
X549050Y26075D01*
X548835Y26389D01*
X548628Y26708D01*
X548428Y27031D01*
X548237Y27360D01*
X548053Y27693D01*
X547878Y28031D01*
X547711Y28373D01*
X547553Y28719D01*
X547403Y29068D01*
X547262Y29422D01*
X547129Y29778D01*
X547005Y30138D01*
X546890Y30501D01*
X546784Y30866D01*
X546688Y31234D01*
X546600Y31604D01*
X546521Y31976D01*
X546451Y32350D01*
X546391Y32726D01*
X546340Y33103D01*
X546298Y33481D01*
X546265Y33860D01*
X546242Y34239D01*
X546228Y34620D01*
X546223Y35000D01*
D11*
X1088446Y526723D02*
X1089298Y526733D01*
X1090150Y526765D01*
X1091001Y526816D01*
X1091850Y526889D01*
X1092697Y526982D01*
X1093542Y527096D01*
X1094384Y527230D01*
X1095222Y527385D01*
X1096056Y527560D01*
X1096886Y527756D01*
X1097710Y527971D01*
X1098529Y528207D01*
X1099343Y528462D01*
X1100149Y528738D01*
X1100949Y529032D01*
X1101741Y529347D01*
X1102526Y529680D01*
X1103302Y530032D01*
X1104069Y530403D01*
X1104827Y530793D01*
X1105576Y531201D01*
X1106314Y531627D01*
X1107041Y532071D01*
X1107758Y532533D01*
X1108463Y533012D01*
X1109156Y533508D01*
X1109837Y534021D01*
X1110505Y534550D01*
X1111160Y535095D01*
X1111802Y535656D01*
X1112430Y536232D01*
X1113044Y536824D01*
X1113643Y537430D01*
X1114227Y538051D01*
X1114795Y538686D01*
X1115349Y539334D01*
X1115886Y539996D01*
X1116407Y540671D01*
X1116911Y541358D01*
X1117399Y542057D01*
X1117869Y542768D01*
X1118322Y543490D01*
X1118757Y544223D01*
X1119174Y544966D01*
X1119573Y545720D01*
X1119953Y546482D01*
X1120315Y547254D01*
X1120658Y548034D01*
X1120982Y548823D01*
X1121286Y549619D01*
X1121571Y550422D01*
X1121837Y551232D01*
X1122082Y552048D01*
X1122308Y552870D01*
X1122513Y553698D01*
X1122699Y554529D01*
X1122864Y555366D01*
X1123008Y556206D01*
X1123133Y557049D01*
X1123236Y557895D01*
X1123319Y558743D01*
X1123381Y559593D01*
X1123423Y560445D01*
X1123443Y561297D01*
X1123443Y562149D01*
X1123423Y563001D01*
X1123381Y563853D01*
X1123319Y564703D01*
X1123236Y565551D01*
X1123133Y566397D01*
X1123008Y567240D01*
X1122864Y568080D01*
X1122699Y568917D01*
X1122513Y569748D01*
X1122308Y570576D01*
X1122082Y571398D01*
X1121837Y572214D01*
X1121571Y573024D01*
X1121286Y573827D01*
X1120982Y574623D01*
X1120658Y575412D01*
X1120315Y576192D01*
X1119953Y576964D01*
X1119573Y577726D01*
X1119174Y578480D01*
X1118757Y579223D01*
X1118322Y579956D01*
X1117869Y580678D01*
X1117399Y581389D01*
X1116911Y582088D01*
X1116407Y582775D01*
X1115886Y583450D01*
X1115349Y584112D01*
X1114795Y584760D01*
X1114227Y585395D01*
X1113643Y586016D01*
X1113044Y586622D01*
X1112430Y587214D01*
X1111802Y587790D01*
X1111160Y588351D01*
X1110505Y588896D01*
X1109837Y589425D01*
X1109156Y589938D01*
X1108463Y590434D01*
X1107758Y590913D01*
X1107041Y591375D01*
X1106314Y591819D01*
X1105576Y592245D01*
X1104827Y592653D01*
X1104069Y593043D01*
X1103302Y593414D01*
X1102526Y593766D01*
X1101741Y594099D01*
X1100949Y594414D01*
X1100149Y594708D01*
X1099343Y594984D01*
X1098529Y595239D01*
X1097710Y595475D01*
X1096886Y595690D01*
X1096056Y595886D01*
X1095222Y596061D01*
X1094384Y596216D01*
X1093542Y596350D01*
X1092697Y596464D01*
X1091850Y596557D01*
X1091001Y596630D01*
X1090150Y596681D01*
X1089298Y596713D01*
X1088446Y596723D01*
X1071012Y596723D01*
X1069302Y596744D01*
X1067594Y596806D01*
X1065888Y596911D01*
X1064185Y597057D01*
X1062486Y597244D01*
X1060792Y597473D01*
X1059104Y597743D01*
X1057424Y598055D01*
X1055751Y598407D01*
X1054088Y598800D01*
X1052434Y599233D01*
X1050792Y599707D01*
X1049161Y600221D01*
X1047544Y600774D01*
X1045941Y601367D01*
X1044353Y601998D01*
X1042780Y602669D01*
X1041225Y603377D01*
X1039687Y604123D01*
X1038168Y604907D01*
X1036668Y605727D01*
X1035189Y606584D01*
X1033731Y607476D01*
X1032296Y608404D01*
X1030883Y609367D01*
X1029495Y610364D01*
X1028131Y611395D01*
X1026793Y612458D01*
X1025481Y613554D01*
X1024197Y614682D01*
X1022940Y615840D01*
X1021712Y617029D01*
X1020513Y618248D01*
X1019345Y619495D01*
X1018207Y620771D01*
X1017101Y622074D01*
X1016026Y623403D01*
X1014985Y624759D01*
X1013977Y626139D01*
X1013003Y627544D01*
X1012064Y628972D01*
X1011160Y630423D01*
X1010291Y631895D01*
X1009459Y633388D01*
X1008663Y634901D01*
X1007905Y636433D01*
X1007184Y637983D01*
X1006501Y639550D01*
X1005857Y641133D01*
X1005252Y642731D01*
X1004686Y644344D01*
X1004159Y645970D01*
X1003672Y647609D01*
X1003226Y649259D01*
X1002819Y650919D01*
X1002454Y652589D01*
X1002455Y652589D02*
X1000121Y663251D01*
X997530Y673852D01*
X994683Y684388D01*
X991581Y694852D01*
X988226Y705237D01*
X984620Y715538D01*
X980766Y725748D01*
X976665Y735862D01*
X972320Y745873D01*
X967733Y755777D01*
X962908Y765566D01*
X957847Y775235D01*
X952552Y784778D01*
X947028Y794190D01*
X941277Y803466D01*
X935303Y812599D01*
X929110Y821585D01*
X922700Y830418D01*
X916077Y839093D01*
X909247Y847605D01*
X902212Y855949D01*
X894976Y864119D01*
X887545Y872112D01*
X879922Y879922D01*
X872112Y887545D01*
X864119Y894976D01*
X855949Y902212D01*
X847605Y909247D01*
X839093Y916077D01*
X830418Y922700D01*
X821585Y929110D01*
X812599Y935303D01*
X803466Y941277D01*
X794190Y947028D01*
X784778Y952552D01*
X775235Y957847D01*
X765566Y962908D01*
X755777Y967733D01*
X745873Y972320D01*
X735862Y976665D01*
X725748Y980766D01*
X715538Y984620D01*
X705237Y988226D01*
X694852Y991581D01*
X684388Y994683D01*
X673852Y997530D01*
X663251Y1000121D01*
X652589Y1002455D01*
X652589Y1002454D02*
X650919Y1002819D01*
X649259Y1003226D01*
X647609Y1003672D01*
X645970Y1004159D01*
X644344Y1004686D01*
X642731Y1005252D01*
X641133Y1005857D01*
X639550Y1006501D01*
X637983Y1007184D01*
X636433Y1007905D01*
X634901Y1008663D01*
X633388Y1009459D01*
X631895Y1010291D01*
X630423Y1011160D01*
X628972Y1012064D01*
X627544Y1013003D01*
X626139Y1013977D01*
X624759Y1014985D01*
X623403Y1016026D01*
X622074Y1017101D01*
X620771Y1018207D01*
X619495Y1019345D01*
X618248Y1020513D01*
X617029Y1021712D01*
X615840Y1022940D01*
X614682Y1024197D01*
X613554Y1025481D01*
X612458Y1026793D01*
X611395Y1028131D01*
X610364Y1029495D01*
X609367Y1030883D01*
X608404Y1032296D01*
X607476Y1033731D01*
X606584Y1035189D01*
X605727Y1036668D01*
X604907Y1038168D01*
X604123Y1039687D01*
X603377Y1041225D01*
X602669Y1042780D01*
X601998Y1044353D01*
X601367Y1045941D01*
X600774Y1047544D01*
X600221Y1049161D01*
X599707Y1050792D01*
X599233Y1052434D01*
X598800Y1054088D01*
X598407Y1055751D01*
X598055Y1057424D01*
X597743Y1059104D01*
X597473Y1060792D01*
X597244Y1062486D01*
X597057Y1064185D01*
X596911Y1065888D01*
X596806Y1067594D01*
X596744Y1069302D01*
X596723Y1071012D01*
X596723Y1088446D01*
X596713Y1089298D01*
X596681Y1090150D01*
X596630Y1091001D01*
X596557Y1091850D01*
X596464Y1092697D01*
X596350Y1093542D01*
X596216Y1094384D01*
X596061Y1095222D01*
X595886Y1096056D01*
X595690Y1096886D01*
X595475Y1097710D01*
X595239Y1098529D01*
X594984Y1099343D01*
X594708Y1100149D01*
X594414Y1100949D01*
X594099Y1101741D01*
X593766Y1102526D01*
X593414Y1103302D01*
X593043Y1104069D01*
X592653Y1104827D01*
X592245Y1105576D01*
X591819Y1106314D01*
X591375Y1107041D01*
X590913Y1107758D01*
X590434Y1108463D01*
X589938Y1109156D01*
X589425Y1109837D01*
X588896Y1110505D01*
X588351Y1111160D01*
X587790Y1111802D01*
X587214Y1112430D01*
X586622Y1113044D01*
X586016Y1113643D01*
X585395Y1114227D01*
X584760Y1114795D01*
X584112Y1115349D01*
X583450Y1115886D01*
X582775Y1116407D01*
X582088Y1116911D01*
X581389Y1117399D01*
X580678Y1117869D01*
X579956Y1118322D01*
X579223Y1118757D01*
X578480Y1119174D01*
X577726Y1119573D01*
X576964Y1119953D01*
X576192Y1120315D01*
X575412Y1120658D01*
X574623Y1120982D01*
X573827Y1121286D01*
X573024Y1121571D01*
X572214Y1121837D01*
X571398Y1122082D01*
X570576Y1122308D01*
X569748Y1122513D01*
X568917Y1122699D01*
X568080Y1122864D01*
X567240Y1123008D01*
X566397Y1123133D01*
X565551Y1123236D01*
X564703Y1123319D01*
X563853Y1123381D01*
X563001Y1123423D01*
X562149Y1123443D01*
X561297Y1123443D01*
X560445Y1123423D01*
X559593Y1123381D01*
X558743Y1123319D01*
X557895Y1123236D01*
X557049Y1123133D01*
X556206Y1123008D01*
X555366Y1122864D01*
X554529Y1122699D01*
X553698Y1122513D01*
X552870Y1122308D01*
X552048Y1122082D01*
X551232Y1121837D01*
X550422Y1121571D01*
X549619Y1121286D01*
X548823Y1120982D01*
X548034Y1120658D01*
X547254Y1120315D01*
X546482Y1119953D01*
X545720Y1119573D01*
X544966Y1119174D01*
X544223Y1118757D01*
X543490Y1118322D01*
X542768Y1117869D01*
X542057Y1117399D01*
X541358Y1116911D01*
X540671Y1116407D01*
X539996Y1115886D01*
X539334Y1115349D01*
X538686Y1114795D01*
X538051Y1114227D01*
X537430Y1113643D01*
X536824Y1113044D01*
X536232Y1112430D01*
X535656Y1111802D01*
X535095Y1111160D01*
X534550Y1110505D01*
X534021Y1109837D01*
X533508Y1109156D01*
X533012Y1108463D01*
X532533Y1107758D01*
X532071Y1107041D01*
X531627Y1106314D01*
X531201Y1105576D01*
X530793Y1104827D01*
X530403Y1104069D01*
X530032Y1103302D01*
X529680Y1102526D01*
X529347Y1101741D01*
X529032Y1100949D01*
X528738Y1100149D01*
X528462Y1099343D01*
X528207Y1098529D01*
X527971Y1097710D01*
X527756Y1096886D01*
X527560Y1096056D01*
X527385Y1095222D01*
X527230Y1094384D01*
X527096Y1093542D01*
X526982Y1092697D01*
X526889Y1091850D01*
X526816Y1091001D01*
X526765Y1090150D01*
X526733Y1089298D01*
X526723Y1088446D01*
X526723Y1071012D01*
X526702Y1069303D01*
X526640Y1067595D01*
X526535Y1065889D01*
X526389Y1064186D01*
X526202Y1062487D01*
X525973Y1060793D01*
X525703Y1059105D01*
X525392Y1057424D01*
X525039Y1055752D01*
X524646Y1054088D01*
X524213Y1052435D01*
X523739Y1050792D01*
X523225Y1049162D01*
X522672Y1047545D01*
X522079Y1045942D01*
X521448Y1044353D01*
X520778Y1042781D01*
X520069Y1041225D01*
X519323Y1039687D01*
X518540Y1038168D01*
X517719Y1036669D01*
X516862Y1035190D01*
X515970Y1033732D01*
X515042Y1032296D01*
X514079Y1030884D01*
X513082Y1029495D01*
X512052Y1028132D01*
X510988Y1026794D01*
X509892Y1025482D01*
X508765Y1024197D01*
X507606Y1022940D01*
X506417Y1021712D01*
X505199Y1020514D01*
X503951Y1019345D01*
X502676Y1018207D01*
X501373Y1017101D01*
X500043Y1016027D01*
X498688Y1014985D01*
X497307Y1013978D01*
X495902Y1013004D01*
X494474Y1012064D01*
X493024Y1011160D01*
X491552Y1010292D01*
X490059Y1009459D01*
X488546Y1008664D01*
X487014Y1007905D01*
X485464Y1007184D01*
X483897Y1006502D01*
X482314Y1005857D01*
X480715Y1005252D01*
X479102Y1004686D01*
X477476Y1004159D01*
X475838Y1003672D01*
X474188Y1003226D01*
X472528Y1002820D01*
X470858Y1002454D01*
X470858Y1002455D02*
X460196Y1000121D01*
X449595Y997530D01*
X439059Y994683D01*
X428595Y991581D01*
X418210Y988226D01*
X407909Y984620D01*
X397699Y980766D01*
X387585Y976665D01*
X377574Y972320D01*
X367670Y967733D01*
X357881Y962908D01*
X348212Y957847D01*
X338669Y952552D01*
X329257Y947028D01*
X319981Y941277D01*
X310848Y935303D01*
X301862Y929110D01*
X293029Y922700D01*
X284354Y916077D01*
X275842Y909247D01*
X267498Y902212D01*
X259328Y894976D01*
X251335Y887545D01*
X243525Y879922D01*
X235902Y872112D01*
X228471Y864119D01*
X221235Y855949D01*
X214200Y847605D01*
X207370Y839093D01*
X200747Y830418D01*
X194337Y821585D01*
X188144Y812599D01*
X182170Y803466D01*
X176419Y794190D01*
X170895Y784778D01*
X165600Y775235D01*
X160539Y765566D01*
X155714Y755777D01*
X151127Y745873D01*
X146782Y735862D01*
X142681Y725748D01*
X138827Y715538D01*
X135221Y705237D01*
X131866Y694852D01*
X128764Y684388D01*
X125917Y673852D01*
X123326Y663251D01*
X120992Y652589D01*
X120993Y652589D02*
X120627Y650919D01*
X120221Y649259D01*
X119775Y647609D01*
X119288Y645970D01*
X118761Y644344D01*
X118195Y642732D01*
X117590Y641133D01*
X116945Y639550D01*
X116262Y637983D01*
X115542Y636433D01*
X114783Y634901D01*
X113988Y633388D01*
X113155Y631895D01*
X112287Y630423D01*
X111383Y628972D01*
X110443Y627544D01*
X109469Y626139D01*
X108461Y624759D01*
X107420Y623403D01*
X106346Y622074D01*
X105240Y620771D01*
X104102Y619495D01*
X102933Y618248D01*
X101735Y617029D01*
X100506Y615840D01*
X99250Y614681D01*
X97965Y613554D01*
X96653Y612458D01*
X95315Y611394D01*
X93951Y610364D01*
X92563Y609367D01*
X91150Y608404D01*
X89715Y607476D01*
X88257Y606584D01*
X86778Y605727D01*
X85278Y604907D01*
X83759Y604123D01*
X82221Y603377D01*
X80666Y602668D01*
X79093Y601998D01*
X77505Y601367D01*
X75902Y600774D01*
X74284Y600221D01*
X72654Y599707D01*
X71012Y599233D01*
X69358Y598800D01*
X67695Y598407D01*
X66022Y598054D01*
X64341Y597743D01*
X62653Y597473D01*
X60960Y597244D01*
X59261Y597057D01*
X57557Y596911D01*
X55851Y596806D01*
X54143Y596744D01*
X52434Y596723D01*
X35000Y596723D01*
X34148Y596713D01*
X33296Y596681D01*
X32445Y596630D01*
X31596Y596557D01*
X30749Y596464D01*
X29904Y596350D01*
X29062Y596216D01*
X28224Y596061D01*
X27390Y595886D01*
X26560Y595690D01*
X25736Y595475D01*
X24917Y595239D01*
X24103Y594984D01*
X23297Y594708D01*
X22497Y594414D01*
X21705Y594099D01*
X20920Y593766D01*
X20144Y593414D01*
X19377Y593043D01*
X18619Y592653D01*
X17870Y592245D01*
X17132Y591819D01*
X16405Y591375D01*
X15688Y590913D01*
X14983Y590434D01*
X14290Y589938D01*
X13609Y589425D01*
X12941Y588896D01*
X12286Y588351D01*
X11644Y587790D01*
X11016Y587214D01*
X10402Y586622D01*
X9803Y586016D01*
X9219Y585395D01*
X8651Y584760D01*
X8097Y584112D01*
X7560Y583450D01*
X7039Y582775D01*
X6535Y582088D01*
X6047Y581389D01*
X5577Y580678D01*
X5124Y579956D01*
X4689Y579223D01*
X4272Y578480D01*
X3873Y577726D01*
X3493Y576964D01*
X3131Y576192D01*
X2788Y575412D01*
X2464Y574623D01*
X2160Y573827D01*
X1875Y573024D01*
X1609Y572214D01*
X1364Y571398D01*
X1138Y570576D01*
X933Y569748D01*
X747Y568917D01*
X582Y568080D01*
X438Y567240D01*
X313Y566397D01*
X210Y565551D01*
X127Y564703D01*
X65Y563853D01*
X23Y563001D01*
X3Y562149D01*
X3Y561297D01*
X23Y560445D01*
X65Y559593D01*
X127Y558743D01*
X210Y557895D01*
X313Y557049D01*
X438Y556206D01*
X582Y555366D01*
X747Y554529D01*
X933Y553698D01*
X1138Y552870D01*
X1364Y552048D01*
X1609Y551232D01*
X1875Y550422D01*
X2160Y549619D01*
X2464Y548823D01*
X2788Y548034D01*
X3131Y547254D01*
X3493Y546482D01*
X3873Y545720D01*
X4272Y544966D01*
X4689Y544223D01*
X5124Y543490D01*
X5577Y542768D01*
X6047Y542057D01*
X6535Y541358D01*
X7039Y540671D01*
X7560Y539996D01*
X8097Y539334D01*
X8651Y538686D01*
X9219Y538051D01*
X9803Y537430D01*
X10402Y536824D01*
X11016Y536232D01*
X11644Y535656D01*
X12286Y535095D01*
X12941Y534550D01*
X13609Y534021D01*
X14290Y533508D01*
X14983Y533012D01*
X15688Y532533D01*
X16405Y532071D01*
X17132Y531627D01*
X17870Y531201D01*
X18619Y530793D01*
X19377Y530403D01*
X20144Y530032D01*
X20920Y529680D01*
X21705Y529347D01*
X22497Y529032D01*
X23297Y528738D01*
X24103Y528462D01*
X24917Y528207D01*
X25736Y527971D01*
X26560Y527756D01*
X27390Y527560D01*
X28224Y527385D01*
X29062Y527230D01*
X29904Y527096D01*
X30749Y526982D01*
X31596Y526889D01*
X32445Y526816D01*
X33296Y526765D01*
X34148Y526733D01*
X35000Y526723D01*
X52434Y526723D01*
X54143Y526702D01*
X55852Y526640D01*
X57558Y526535D01*
X59261Y526389D01*
X60960Y526202D01*
X62654Y525973D01*
X64342Y525703D01*
X66022Y525392D01*
X67695Y525039D01*
X69358Y524646D01*
X71012Y524213D01*
X72654Y523739D01*
X74284Y523226D01*
X75902Y522672D01*
X77505Y522080D01*
X79093Y521448D01*
X80666Y520778D01*
X82221Y520069D01*
X83759Y519323D01*
X85278Y518540D01*
X86778Y517719D01*
X88257Y516863D01*
X89715Y515970D01*
X91150Y515042D01*
X92563Y514079D01*
X93951Y513083D01*
X95315Y512052D01*
X96653Y510989D01*
X97965Y509893D01*
X99250Y508765D01*
X100506Y507607D01*
X101734Y506418D01*
X102933Y505199D01*
X104102Y503952D01*
X105239Y502676D01*
X106346Y501373D01*
X107420Y500043D01*
X108461Y498688D01*
X109469Y497308D01*
X110443Y495903D01*
X111382Y494475D01*
X112287Y493024D01*
X113155Y491552D01*
X113987Y490059D01*
X114783Y488546D01*
X115542Y487014D01*
X116262Y485464D01*
X116945Y483897D01*
X117589Y482314D01*
X118195Y480716D01*
X118761Y479103D01*
X119288Y477477D01*
X119774Y475838D01*
X120221Y474188D01*
X120627Y472528D01*
X120993Y470858D01*
X120992Y470858D02*
X123326Y460196D01*
X125917Y449595D01*
X128764Y439059D01*
X131866Y428595D01*
X135221Y418210D01*
X138827Y407909D01*
X142681Y397699D01*
X146782Y387585D01*
X151127Y377574D01*
X155714Y367670D01*
X160539Y357881D01*
X165600Y348212D01*
X170895Y338669D01*
X176419Y329257D01*
X182170Y319981D01*
X188144Y310848D01*
X194337Y301862D01*
X200747Y293029D01*
X207370Y284354D01*
X214200Y275842D01*
X221235Y267498D01*
X228471Y259328D01*
X235902Y251335D01*
X243525Y243525D01*
X251335Y235902D01*
X259328Y228471D01*
X267498Y221235D01*
X275842Y214200D01*
X284354Y207370D01*
X293029Y200747D01*
X301862Y194337D01*
X310848Y188144D01*
X319981Y182170D01*
X329257Y176419D01*
X338669Y170895D01*
X348212Y165600D01*
X357881Y160539D01*
X367670Y155714D01*
X377574Y151127D01*
X387585Y146782D01*
X397699Y142681D01*
X407909Y138827D01*
X418210Y135221D01*
X428595Y131866D01*
X439059Y128764D01*
X449595Y125917D01*
X460196Y123326D01*
X470858Y120992D01*
X470858Y120993D02*
X472528Y120627D01*
X474188Y120221D01*
X475838Y119774D01*
X477477Y119288D01*
X479103Y118761D01*
X480716Y118195D01*
X482314Y117589D01*
X483897Y116945D01*
X485464Y116262D01*
X487014Y115542D01*
X488546Y114783D01*
X490059Y113987D01*
X491552Y113155D01*
X493024Y112287D01*
X494475Y111382D01*
X495903Y110443D01*
X497308Y109469D01*
X498688Y108461D01*
X500043Y107420D01*
X501373Y106346D01*
X502676Y105239D01*
X503952Y104102D01*
X505199Y102933D01*
X506418Y101734D01*
X507607Y100506D01*
X508765Y99250D01*
X509893Y97965D01*
X510989Y96653D01*
X512052Y95315D01*
X513083Y93951D01*
X514079Y92563D01*
X515042Y91150D01*
X515970Y89715D01*
X516863Y88257D01*
X517719Y86778D01*
X518540Y85278D01*
X519323Y83759D01*
X520069Y82221D01*
X520778Y80666D01*
X521448Y79093D01*
X522080Y77505D01*
X522672Y75902D01*
X523226Y74284D01*
X523739Y72654D01*
X524213Y71012D01*
X524646Y69358D01*
X525039Y67695D01*
X525392Y66022D01*
X525703Y64342D01*
X525973Y62654D01*
X526202Y60960D01*
X526389Y59261D01*
X526535Y57558D01*
X526640Y55852D01*
X526702Y54143D01*
X526723Y52434D01*
X526723Y35000D01*
X526733Y34148D01*
X526765Y33296D01*
X526816Y32445D01*
X526889Y31596D01*
X526982Y30749D01*
X527096Y29904D01*
X527230Y29062D01*
X527385Y28224D01*
X527560Y27390D01*
X527756Y26560D01*
X527971Y25736D01*
X528207Y24917D01*
X528462Y24103D01*
X528738Y23297D01*
X529032Y22497D01*
X529347Y21705D01*
X529680Y20920D01*
X530032Y20144D01*
X530403Y19377D01*
X530793Y18619D01*
X531201Y17870D01*
X531627Y17132D01*
X532071Y16405D01*
X532533Y15688D01*
X533012Y14983D01*
X533508Y14290D01*
X534021Y13609D01*
X534550Y12941D01*
X535095Y12286D01*
X535656Y11644D01*
X536232Y11016D01*
X536824Y10402D01*
X537430Y9803D01*
X538051Y9219D01*
X538686Y8651D01*
X539334Y8097D01*
X539996Y7560D01*
X540671Y7039D01*
X541358Y6535D01*
X542057Y6047D01*
X542768Y5577D01*
X543490Y5124D01*
X544223Y4689D01*
X544966Y4272D01*
X545720Y3873D01*
X546482Y3493D01*
X547254Y3131D01*
X548034Y2788D01*
X548823Y2464D01*
X549619Y2160D01*
X550422Y1875D01*
X551232Y1609D01*
X552048Y1364D01*
X552870Y1138D01*
X553698Y933D01*
X554529Y747D01*
X555366Y582D01*
X556206Y438D01*
X557049Y313D01*
X557895Y210D01*
X558743Y127D01*
X559593Y65D01*
X560445Y23D01*
X561297Y3D01*
X562149Y3D01*
X563001Y23D01*
X563853Y65D01*
X564703Y127D01*
X565551Y210D01*
X566397Y313D01*
X567240Y438D01*
X568080Y582D01*
X568917Y747D01*
X569748Y933D01*
X570576Y1138D01*
X571398Y1364D01*
X572214Y1609D01*
X573024Y1875D01*
X573827Y2160D01*
X574623Y2464D01*
X575412Y2788D01*
X576192Y3131D01*
X576964Y3493D01*
X577726Y3873D01*
X578480Y4272D01*
X579223Y4689D01*
X579956Y5124D01*
X580678Y5577D01*
X581389Y6047D01*
X582088Y6535D01*
X582775Y7039D01*
X583450Y7560D01*
X584112Y8097D01*
X584760Y8651D01*
X585395Y9219D01*
X586016Y9803D01*
X586622Y10402D01*
X587214Y11016D01*
X587790Y11644D01*
X588351Y12286D01*
X588896Y12941D01*
X589425Y13609D01*
X589938Y14290D01*
X590434Y14983D01*
X590913Y15688D01*
X591375Y16405D01*
X591819Y17132D01*
X592245Y17870D01*
X592653Y18619D01*
X593043Y19377D01*
X593414Y20144D01*
X593766Y20920D01*
X594099Y21705D01*
X594414Y22497D01*
X594708Y23297D01*
X594984Y24103D01*
X595239Y24917D01*
X595475Y25736D01*
X595690Y26560D01*
X595886Y27390D01*
X596061Y28224D01*
X596216Y29062D01*
X596350Y29904D01*
X596464Y30749D01*
X596557Y31596D01*
X596630Y32445D01*
X596681Y33296D01*
X596713Y34148D01*
X596723Y35000D01*
X596723Y52434D01*
X596744Y54143D01*
X596806Y55851D01*
X596911Y57557D01*
X597057Y59261D01*
X597244Y60960D01*
X597473Y62653D01*
X597743Y64341D01*
X598054Y66022D01*
X598407Y67695D01*
X598800Y69358D01*
X599233Y71012D01*
X599707Y72654D01*
X600221Y74284D01*
X600774Y75902D01*
X601367Y77505D01*
X601998Y79093D01*
X602668Y80666D01*
X603377Y82221D01*
X604123Y83759D01*
X604907Y85278D01*
X605727Y86778D01*
X606584Y88257D01*
X607476Y89715D01*
X608404Y91150D01*
X609367Y92563D01*
X610364Y93951D01*
X611394Y95315D01*
X612458Y96653D01*
X613554Y97965D01*
X614681Y99250D01*
X615840Y100506D01*
X617029Y101735D01*
X618248Y102933D01*
X619495Y104102D01*
X620771Y105240D01*
X622074Y106346D01*
X623403Y107420D01*
X624759Y108461D01*
X626139Y109469D01*
X627544Y110443D01*
X628972Y111383D01*
X630423Y112287D01*
X631895Y113155D01*
X633388Y113988D01*
X634901Y114783D01*
X636433Y115542D01*
X637983Y116262D01*
X639550Y116945D01*
X641133Y117590D01*
X642732Y118195D01*
X644344Y118761D01*
X645970Y119288D01*
X647609Y119775D01*
X649259Y120221D01*
X650919Y120627D01*
X652589Y120993D01*
X652589Y120992D02*
X663251Y123326D01*
X673852Y125917D01*
X684388Y128764D01*
X694852Y131866D01*
X705237Y135221D01*
X715538Y138827D01*
X725748Y142681D01*
X735862Y146782D01*
X745873Y151127D01*
X755777Y155714D01*
X765566Y160539D01*
X775235Y165600D01*
X784778Y170895D01*
X794190Y176419D01*
X803466Y182170D01*
X812599Y188144D01*
X821585Y194337D01*
X830418Y200747D01*
X839093Y207370D01*
X847605Y214200D01*
X855949Y221235D01*
X864119Y228471D01*
X872112Y235902D01*
X879922Y243525D01*
X887545Y251335D01*
X894976Y259328D01*
X902212Y267498D01*
X909247Y275842D01*
X916077Y284354D01*
X922700Y293029D01*
X929110Y301862D01*
X935303Y310848D01*
X941277Y319981D01*
X947028Y329257D01*
X952552Y338669D01*
X957847Y348212D01*
X962908Y357881D01*
X967733Y367670D01*
X972320Y377574D01*
X976665Y387585D01*
X980766Y397699D01*
X984620Y407909D01*
X988226Y418210D01*
X991581Y428595D01*
X994683Y439059D01*
X997530Y449595D01*
X1000121Y460196D01*
X1002455Y470858D01*
X1002454Y470858D02*
X1002820Y472528D01*
X1003226Y474188D01*
X1003672Y475838D01*
X1004159Y477476D01*
X1004686Y479102D01*
X1005252Y480715D01*
X1005857Y482314D01*
X1006502Y483897D01*
X1007184Y485464D01*
X1007905Y487014D01*
X1008664Y488546D01*
X1009459Y490059D01*
X1010292Y491552D01*
X1011160Y493024D01*
X1012064Y494474D01*
X1013004Y495902D01*
X1013978Y497307D01*
X1014985Y498688D01*
X1016027Y500043D01*
X1017101Y501373D01*
X1018207Y502676D01*
X1019345Y503951D01*
X1020514Y505199D01*
X1021712Y506417D01*
X1022940Y507606D01*
X1024197Y508765D01*
X1025482Y509892D01*
X1026794Y510988D01*
X1028132Y512052D01*
X1029495Y513082D01*
X1030884Y514079D01*
X1032296Y515042D01*
X1033732Y515970D01*
X1035190Y516862D01*
X1036669Y517719D01*
X1038168Y518540D01*
X1039687Y519323D01*
X1041225Y520069D01*
X1042781Y520778D01*
X1044353Y521448D01*
X1045942Y522079D01*
X1047545Y522672D01*
X1049162Y523225D01*
X1050792Y523739D01*
X1052435Y524213D01*
X1054088Y524646D01*
X1055752Y525039D01*
X1057424Y525392D01*
X1059105Y525703D01*
X1060793Y525973D01*
X1062487Y526202D01*
X1064186Y526389D01*
X1065889Y526535D01*
X1067595Y526640D01*
X1069303Y526702D01*
X1071012Y526723D01*
X1088446Y526723D01*
D12*
X650748Y909832D03*
X650748Y968252D03*
X625348Y968252D03*
X625348Y909832D03*
X599948Y968252D03*
X599948Y909832D03*
X574548Y968252D03*
X574548Y909832D03*
X549148Y968252D03*
X549148Y909832D03*
X523748Y968252D03*
X523748Y909832D03*
X498348Y968252D03*
X498348Y909832D03*
X472948Y968252D03*
X472948Y909832D03*
D13*
G36*
X991219Y576704D02*
X993341Y574582D01*
X984857Y566098D01*
X982735Y568220D01*
X991219Y576704D01*
G37*
G36*
X987683Y580239D02*
X989805Y578117D01*
X981321Y569633D01*
X979199Y571755D01*
X987683Y580239D01*
G37*
G36*
X984148Y583775D02*
X986270Y581653D01*
X977786Y573169D01*
X975664Y575291D01*
X984148Y583775D01*
G37*
G36*
X980612Y587310D02*
X982734Y585188D01*
X974250Y576704D01*
X972128Y578826D01*
X980612Y587310D01*
G37*
G36*
X977077Y590846D02*
X979199Y588724D01*
X970715Y580240D01*
X968593Y582362D01*
X977077Y590846D01*
G37*
G36*
X973541Y594381D02*
X975663Y592259D01*
X967179Y583775D01*
X965057Y585897D01*
X973541Y594381D01*
G37*
G36*
X970006Y597917D02*
X972128Y595795D01*
X963644Y587311D01*
X961522Y589433D01*
X970006Y597917D01*
G37*
G36*
X966470Y601452D02*
X968592Y599330D01*
X960108Y590846D01*
X957986Y592968D01*
X966470Y601452D01*
G37*
G36*
X962934Y604988D02*
X965056Y602866D01*
X956572Y594382D01*
X954450Y596504D01*
X962934Y604988D01*
G37*
G36*
X959399Y608523D02*
X961521Y606401D01*
X953037Y597917D01*
X950915Y600039D01*
X959399Y608523D01*
G37*
G36*
X955863Y612059D02*
X957985Y609937D01*
X949501Y601453D01*
X947379Y603575D01*
X955863Y612059D01*
G37*
G36*
X952328Y615595D02*
X954450Y613473D01*
X945966Y604989D01*
X943844Y607111D01*
X952328Y615595D01*
G37*
D14*
G36*
X926874Y615595D02*
X935358Y607111D01*
X933236Y604989D01*
X924752Y613473D01*
X926874Y615595D01*
G37*
G36*
X923338Y612059D02*
X931822Y603575D01*
X929700Y601453D01*
X921216Y609937D01*
X923338Y612059D01*
G37*
G36*
X919803Y608523D02*
X928287Y600039D01*
X926165Y597917D01*
X917681Y606401D01*
X919803Y608523D01*
G37*
G36*
X916267Y604988D02*
X924751Y596504D01*
X922629Y594382D01*
X914145Y602866D01*
X916267Y604988D01*
G37*
G36*
X912732Y601452D02*
X921216Y592968D01*
X919094Y590846D01*
X910610Y599330D01*
X912732Y601452D01*
G37*
G36*
X909196Y597917D02*
X917680Y589433D01*
X915558Y587311D01*
X907074Y595795D01*
X909196Y597917D01*
G37*
G36*
X905661Y594381D02*
X914145Y585897D01*
X912023Y583775D01*
X903539Y592259D01*
X905661Y594381D01*
G37*
G36*
X902125Y590846D02*
X910609Y582362D01*
X908487Y580240D01*
X900003Y588724D01*
X902125Y590846D01*
G37*
G36*
X898590Y587310D02*
X907074Y578826D01*
X904952Y576704D01*
X896468Y585188D01*
X898590Y587310D01*
G37*
G36*
X895054Y583775D02*
X903538Y575291D01*
X901416Y573169D01*
X892932Y581653D01*
X895054Y583775D01*
G37*
G36*
X891519Y580239D02*
X900003Y571755D01*
X897881Y569633D01*
X889397Y578117D01*
X891519Y580239D01*
G37*
G36*
X887983Y576704D02*
X896467Y568220D01*
X894345Y566098D01*
X885861Y574582D01*
X887983Y576704D01*
G37*
D13*
G36*
X894345Y557612D02*
X896467Y555490D01*
X887983Y547006D01*
X885861Y549128D01*
X894345Y557612D01*
G37*
G36*
X897881Y554076D02*
X900003Y551954D01*
X891519Y543470D01*
X889397Y545592D01*
X897881Y554076D01*
G37*
G36*
X901416Y550541D02*
X903538Y548419D01*
X895054Y539935D01*
X892932Y542057D01*
X901416Y550541D01*
G37*
G36*
X904952Y547005D02*
X907074Y544883D01*
X898590Y536399D01*
X896468Y538521D01*
X904952Y547005D01*
G37*
G36*
X908487Y543470D02*
X910609Y541348D01*
X902125Y532864D01*
X900003Y534986D01*
X908487Y543470D01*
G37*
G36*
X912023Y539934D02*
X914145Y537812D01*
X905661Y529328D01*
X903539Y531450D01*
X912023Y539934D01*
G37*
G36*
X915558Y536399D02*
X917680Y534277D01*
X909196Y525793D01*
X907074Y527915D01*
X915558Y536399D01*
G37*
G36*
X919094Y532863D02*
X921216Y530741D01*
X912732Y522257D01*
X910610Y524379D01*
X919094Y532863D01*
G37*
G36*
X922629Y529328D02*
X924751Y527206D01*
X916267Y518722D01*
X914145Y520844D01*
X922629Y529328D01*
G37*
G36*
X926165Y525792D02*
X928287Y523670D01*
X919803Y515186D01*
X917681Y517308D01*
X926165Y525792D01*
G37*
G36*
X929700Y522256D02*
X931822Y520134D01*
X923338Y511650D01*
X921216Y513772D01*
X929700Y522256D01*
G37*
G36*
X933236Y518721D02*
X935358Y516599D01*
X926874Y508115D01*
X924752Y510237D01*
X933236Y518721D01*
G37*
D14*
G36*
X945966Y518721D02*
X954450Y510237D01*
X952328Y508115D01*
X943844Y516599D01*
X945966Y518721D01*
G37*
G36*
X949501Y522256D02*
X957985Y513772D01*
X955863Y511650D01*
X947379Y520134D01*
X949501Y522256D01*
G37*
G36*
X953037Y525792D02*
X961521Y517308D01*
X959399Y515186D01*
X950915Y523670D01*
X953037Y525792D01*
G37*
G36*
X956572Y529328D02*
X965056Y520844D01*
X962934Y518722D01*
X954450Y527206D01*
X956572Y529328D01*
G37*
G36*
X960108Y532863D02*
X968592Y524379D01*
X966470Y522257D01*
X957986Y530741D01*
X960108Y532863D01*
G37*
G36*
X963644Y536399D02*
X972128Y527915D01*
X970006Y525793D01*
X961522Y534277D01*
X963644Y536399D01*
G37*
G36*
X967179Y539934D02*
X975663Y531450D01*
X973541Y529328D01*
X965057Y537812D01*
X967179Y539934D01*
G37*
G36*
X970715Y543470D02*
X979199Y534986D01*
X977077Y532864D01*
X968593Y541348D01*
X970715Y543470D01*
G37*
G36*
X974250Y547005D02*
X982734Y538521D01*
X980612Y536399D01*
X972128Y544883D01*
X974250Y547005D01*
G37*
G36*
X977786Y550541D02*
X986270Y542057D01*
X984148Y539935D01*
X975664Y548419D01*
X977786Y550541D01*
G37*
G36*
X981321Y554076D02*
X989805Y545592D01*
X987683Y543470D01*
X979199Y551954D01*
X981321Y554076D01*
G37*
G36*
X984857Y557612D02*
X993341Y549128D01*
X991219Y547006D01*
X982735Y555490D01*
X984857Y557612D01*
G37*
D15*
X546464Y991362D03*
X528464Y991362D03*
D16*
X564134Y1018794D03*
D11*
X599948Y982980D01*
X599948Y968252D01*
D17*
X894700Y574936D02*
X894700Y574936D01*
X891164Y571401D01*
X882627Y562864D01*
X880618Y562864D01*
D16*
X880618Y562864D03*
D18*
X523748Y968252D02*
X514858Y977142D01*
X514858Y985520D01*
D16*
X514858Y985520D03*
D18*
X498348Y981710D02*
X498348Y968252D01*
X498348Y981710D02*
X502158Y985520D01*
D16*
X502158Y985520D03*
D18*
X520700Y991362D02*
X528464Y991362D01*
X520700Y991362D02*
X514858Y985520D01*
D16*
X263144Y857758D03*
X214376Y803402D03*
X179324Y739140D03*
X153924Y670814D03*
X132588Y598424D03*
X130302Y528574D03*
X154432Y451358D03*
X178054Y379730D03*
X216662Y319532D03*
X266700Y259588D03*
X318516Y211836D03*
X456946Y150876D03*
X526796Y136652D03*
X599694Y140716D03*
X740664Y176784D03*
X806958Y213360D03*
X863092Y262890D03*
X912876Y322834D03*
X973074Y451612D03*
X1040638Y552196D03*
X907542Y807212D03*
X859028Y866140D03*
X802132Y911606D03*
X373634Y940816D03*
X314960Y902970D03*
D11*
X930055Y610292D02*
X930055Y610292D01*
D17*
X926519Y606756D01*
D16*
X947166Y381000D03*
X447548Y970788D03*
X669544Y152400D03*
X381762Y181356D03*
X527558Y1009396D03*
X598424Y1011682D03*
X669290Y970280D03*
X738632Y947928D03*
D17*
X926519Y606756D02*
X937514Y595761D01*
X937514Y593344D01*
D16*
X937514Y593344D03*
X987298Y667004D03*
X961644Y739140D03*
D18*
X546464Y970936D02*
X546464Y991362D01*
X546464Y970936D02*
X549148Y968252D01*
D11*
X564134Y978666D02*
X564134Y1006602D01*
D16*
X564134Y1006602D03*
D11*
X564134Y978666D02*
X574548Y968252D01*
X643030Y981714D02*
X658466Y981714D01*
X660400Y979780D01*
X660400Y965066D01*
X663889Y961577D01*
X629568Y968252D02*
X625348Y968252D01*
X629568Y968252D02*
X643030Y981714D01*
X663889Y961577D02*
X706187Y961577D01*
X726186Y941578D01*
D16*
X726186Y941578D03*
X783082Y895096D03*
D11*
X663702Y955298D02*
X650748Y968252D01*
X663702Y955298D02*
X699098Y955298D01*
X759300Y895096D02*
X783082Y895096D01*
X759300Y895096D02*
X699098Y955298D01*
X988038Y571681D02*
X988038Y571401D01*
X988038Y571681D02*
X1003473Y587116D01*
D16*
X836676Y850138D03*
D11*
X1007401Y619647D02*
X1003473Y615718D01*
D16*
X1007401Y619647D03*
X994076Y649197D03*
D11*
X1003473Y615718D02*
X1003473Y587116D01*
X955449Y704035D02*
X955449Y724810D01*
X892302Y800524D02*
X887392Y805434D01*
X881380Y805434D01*
X836676Y850138D01*
X892302Y800524D02*
X892302Y775026D01*
X990240Y653034D02*
X994076Y649197D01*
X990240Y653034D02*
X984851Y653034D01*
X974321Y663564D02*
X974321Y685163D01*
X955449Y704035D01*
X974321Y663564D02*
X984851Y653034D01*
X955449Y724810D02*
X945886Y734373D01*
X945886Y735584D01*
X945886Y755926D01*
X938298Y763514D01*
X903814Y763514D01*
X892302Y775026D01*
X998900Y589334D02*
X984502Y574936D01*
X998900Y589334D02*
X998900Y632519D01*
X950877Y702141D02*
X950877Y722917D01*
D16*
X883920Y797052D03*
D11*
X883920Y787719D02*
X886280Y785358D01*
X883920Y787719D02*
X883920Y797052D01*
X886280Y785358D02*
X886280Y774582D01*
X969749Y661670D02*
X998900Y632519D01*
X969749Y661670D02*
X969749Y683269D01*
X950877Y702141D01*
X941314Y754032D02*
X936404Y758942D01*
X941314Y732479D02*
X950877Y722917D01*
X941314Y732479D02*
X941314Y754032D01*
X936404Y758942D02*
X901920Y758942D01*
X886280Y774582D01*
X980967Y578752D02*
X980967Y578472D01*
X980967Y578752D02*
X994328Y592114D01*
X994328Y630625D01*
X946305Y700247D02*
X946305Y719074D01*
X965177Y659776D02*
X994328Y630625D01*
X965177Y659776D02*
X965177Y681375D01*
X946305Y700247D01*
X946305Y719074D02*
X946305Y721023D01*
X934921Y732407D01*
X934921Y735584D01*
X934921Y748571D01*
X932932Y750560D01*
D16*
X932932Y750560D03*
D11*
X977431Y582287D02*
X977431Y582007D01*
X977431Y582287D02*
X989756Y594613D01*
X989756Y628732D01*
D16*
X956795Y677903D03*
D11*
X960374Y668937D02*
X960374Y658114D01*
X956795Y672515D02*
X956795Y677903D01*
X956795Y672515D02*
X960374Y668937D01*
X960374Y658114D02*
X989756Y628732D01*
X961734Y578612D02*
X988038Y552309D01*
X961734Y578612D02*
X949198Y578612D01*
D16*
X949198Y578612D03*
D11*
X984222Y548773D02*
X984502Y548773D01*
X984222Y548773D02*
X979152Y553843D01*
X940685Y553843D01*
X932434Y545592D01*
X932434Y539496D01*
D16*
X932434Y539496D03*
X962660Y465582D03*
D11*
X962660Y483153D01*
X976040Y496533D01*
X976040Y520690D01*
X980967Y544958D02*
X980967Y545238D01*
X987073Y538851D02*
X987073Y531723D01*
X987073Y538851D02*
X980967Y544958D01*
X987073Y531723D02*
X976040Y520690D01*
X971468Y498427D02*
X946305Y473264D01*
X971468Y498427D02*
X971468Y522584D01*
X982501Y533617D02*
X982501Y536352D01*
X977431Y541422D01*
X977431Y541702D01*
X982501Y533617D02*
X971468Y522584D01*
X946305Y473264D02*
X946305Y405229D01*
X950722Y400812D01*
X950722Y395732D01*
D16*
X950722Y395732D03*
D11*
X941733Y475158D02*
X966896Y500321D01*
X941733Y475158D02*
X941733Y404317D01*
X959753Y523745D02*
X959753Y524025D01*
X966896Y516602D02*
X966896Y500321D01*
X966896Y516602D02*
X959753Y523745D01*
D16*
X900430Y340106D03*
D11*
X900430Y363014D01*
X941733Y404317D01*
D16*
X859028Y280162D03*
D11*
X859028Y328078D01*
X937161Y406211D02*
X937161Y477051D01*
X937161Y406211D02*
X859028Y328078D01*
X956218Y520209D02*
X956218Y520489D01*
X962324Y502214D02*
X937161Y477051D01*
X962324Y502214D02*
X962324Y514103D01*
X956218Y520209D01*
D16*
X806196Y234188D03*
D11*
X806196Y281712D01*
X932589Y408105D01*
X932589Y478945D01*
X957752Y504108D02*
X957752Y511884D01*
X952682Y516953D01*
X957752Y504108D02*
X932589Y478945D01*
D16*
X743204Y194310D03*
D11*
X743204Y225186D01*
X928017Y409999D01*
X928017Y492288D02*
X949147Y513418D01*
X928017Y492288D02*
X928017Y409999D01*
X711554Y200001D02*
X690372Y200001D01*
X711554Y200001D02*
X923445Y411893D01*
X923445Y506808D02*
X930055Y513418D01*
X923445Y506808D02*
X923445Y411893D01*
X676402Y186031D02*
X676402Y177292D01*
D16*
X676402Y177292D03*
D11*
X676402Y186031D02*
X690372Y200001D01*
X709660Y204573D02*
X918873Y413786D01*
X918873Y509307D02*
X926519Y516953D01*
X918873Y509307D02*
X918873Y413786D01*
D16*
X610362Y161798D03*
D11*
X653137Y204573D01*
X709660Y204573D01*
D16*
X537464Y159512D03*
D11*
X587097Y209145D01*
X707766Y209145D01*
X914301Y415680D01*
X914301Y454660D01*
X914301Y511806D01*
X922984Y520489D01*
X523240Y213717D02*
X520295Y213717D01*
X523240Y213717D02*
X705872Y213717D01*
X909729Y417574D01*
X909729Y514305D01*
X919448Y524025D01*
D16*
X464820Y175006D03*
D11*
X503531Y213717D01*
X520295Y213717D01*
X703978Y218289D02*
X905157Y419468D01*
X905157Y516804D01*
X915913Y527560D01*
D16*
X400812Y191008D03*
D11*
X428093Y218289D01*
X703978Y218289D01*
D16*
X339344Y220980D03*
D11*
X702085Y222861D02*
X900585Y421362D01*
X341225Y222861D02*
X339344Y220980D01*
X341225Y222861D02*
X702085Y222861D01*
X900585Y421362D02*
X900585Y519304D01*
X912377Y531096D01*
D16*
X367538Y270510D03*
D11*
X380178Y270510D01*
X423255Y227433D01*
X700191Y227433D01*
X896013Y423255D01*
X896013Y521803D01*
X908842Y534631D01*
D16*
X323850Y310388D03*
D11*
X346766Y310388D01*
X425149Y232005D01*
X698297Y232005D01*
X891441Y425149D01*
X891441Y524302D01*
X905306Y538167D01*
D16*
X286258Y359156D03*
D11*
X304464Y359156D01*
X427043Y236577D01*
X696403Y236577D01*
X886869Y427043D01*
X886869Y526801D01*
X901771Y541702D01*
D16*
X247650Y409194D03*
D11*
X260892Y409194D01*
X428937Y241149D01*
X694509Y241149D01*
X882297Y428937D01*
X882297Y529300D01*
X898235Y545238D01*
D16*
X231394Y463804D03*
D11*
X245721Y430831D02*
X430831Y245721D01*
X692616Y245721D01*
X877725Y430831D01*
X245721Y449477D02*
X231394Y463804D01*
X245721Y449477D02*
X245721Y430831D01*
X877725Y430831D02*
X877725Y531799D01*
X894700Y548773D01*
D16*
X239776Y543306D03*
D11*
X250293Y432725D02*
X432725Y250293D01*
X690722Y250293D01*
X873153Y432725D01*
X250293Y532789D02*
X239776Y543306D01*
X250293Y532789D02*
X250293Y432725D01*
X873153Y432725D02*
X873153Y534298D01*
X891164Y552309D01*
D16*
X238252Y613156D03*
D11*
X467908Y932438D02*
X689629Y932438D01*
X914301Y707766D01*
X914301Y645629D01*
X250293Y625197D02*
X238252Y613156D01*
X250293Y625197D02*
X250293Y714823D01*
X467908Y932438D01*
X949147Y610783D02*
X949147Y610292D01*
X949147Y610783D02*
X914301Y645629D01*
D16*
X231394Y641350D03*
D11*
X245721Y716716D02*
X466015Y937010D01*
X691523Y937010D01*
X918873Y709660D01*
X245721Y655677D02*
X231394Y641350D01*
X245721Y655677D02*
X245721Y716716D01*
X918873Y709660D02*
X918873Y653895D01*
X957752Y615016D02*
X957752Y611826D01*
X952682Y606756D01*
X957752Y615016D02*
X918873Y653895D01*
D16*
X262382Y762000D03*
D11*
X284539Y762000D01*
X464121Y941582D02*
X693417Y941582D01*
X923445Y711554D01*
X923445Y655789D01*
X387760Y865222D02*
X284539Y762000D01*
X387760Y865222D02*
X464121Y941582D01*
X956218Y603500D02*
X956218Y603220D01*
X962324Y609607D02*
X962324Y616910D01*
X962324Y609607D02*
X956218Y603500D01*
X962324Y616910D02*
X923445Y655789D01*
D16*
X292354Y823468D03*
D11*
X305407Y810416D01*
X326489Y810416D01*
X462227Y946154D01*
X928017Y657682D02*
X966896Y618803D01*
X695311Y946154D02*
X462227Y946154D01*
X695311Y946154D02*
X902520Y738944D01*
X928017Y713448D01*
X928017Y657682D01*
X959753Y599965D02*
X959753Y599685D01*
X966896Y607108D02*
X966896Y618803D01*
X966896Y607108D02*
X959753Y599965D01*
D16*
X338836Y877824D03*
D11*
X387431Y877824D01*
X460333Y950726D01*
X683514Y950726D01*
X697205Y950726D01*
X932589Y715341D01*
X963289Y596429D02*
X963289Y596149D01*
X932589Y659576D02*
X932589Y715341D01*
X932589Y659576D02*
X971468Y620697D01*
X971468Y604609D01*
X963289Y596429D01*
X966825Y592894D02*
X966825Y592614D01*
X966825Y592894D02*
X976040Y602110D01*
X976040Y622591D01*
X940971Y657660D01*
X940971Y663554D01*
D16*
X940971Y663554D03*
D11*
X970360Y589358D02*
X970360Y589078D01*
X970360Y589358D02*
X980612Y599611D01*
X980612Y624485D01*
X951230Y653867D01*
X951230Y665149D01*
X937161Y679218D01*
X937161Y717235D01*
X921967Y732429D01*
X921967Y737817D01*
D16*
X921967Y737817D03*
D11*
X973896Y585823D02*
X973896Y585543D01*
X973896Y585823D02*
X985184Y597112D01*
X985184Y626379D01*
X877898Y776498D02*
X877898Y781886D01*
D16*
X877898Y781886D03*
D11*
X955802Y655761D02*
X985184Y626379D01*
X955802Y655761D02*
X955802Y667043D01*
X941733Y681111D01*
X941733Y719129D01*
X933555Y727307D01*
X930349Y730513D01*
X930349Y741289D02*
X925439Y746199D01*
X908197Y746199D01*
X930349Y741289D02*
X930349Y730513D01*
X908197Y746199D02*
X877898Y776498D01*
X900585Y702085D02*
X702085Y900585D01*
X919448Y599965D02*
X919448Y599685D01*
X702085Y900585D02*
X659995Y900585D01*
X650748Y909832D01*
X900585Y618828D02*
X919448Y599965D01*
X900585Y618828D02*
X900585Y663194D01*
X900585Y702085D01*
X891441Y698297D02*
X698297Y891441D01*
X592939Y891441D01*
X574548Y909832D01*
X891441Y613550D02*
X912377Y592614D01*
X891441Y613550D02*
X891441Y698297D01*
X882297Y694509D02*
X694509Y882297D01*
X551283Y882297D01*
X523748Y909832D01*
X882297Y608552D02*
X905306Y585543D01*
X882297Y608552D02*
X882297Y694509D01*
X905157Y621047D02*
X922984Y603220D01*
X905157Y621047D02*
X905157Y703978D01*
X629568Y909832D02*
X625348Y909832D01*
X629568Y909832D02*
X643030Y923294D01*
X685842Y923294D02*
X905157Y703978D01*
X685842Y923294D02*
X643030Y923294D01*
X700191Y896013D02*
X896013Y700191D01*
X896013Y616049D02*
X915913Y596149D01*
X896013Y616049D02*
X896013Y700191D01*
X700191Y896013D02*
X613767Y896013D01*
X599948Y909832D01*
X696403Y886869D02*
X886869Y696403D01*
X696403Y886869D02*
X572111Y886869D01*
X549148Y909832D01*
X886869Y611051D02*
X908842Y589078D01*
X886869Y611051D02*
X886869Y696403D01*
X909729Y643735D02*
X939546Y613918D01*
X909729Y643735D02*
X909729Y705872D01*
X687736Y927866D01*
X469802Y927866D01*
X457200Y915264D01*
X457200Y903732D01*
D16*
X457200Y903732D03*
X445008Y949452D03*
D11*
X463808Y968252D01*
X472948Y968252D01*
X970080Y534631D02*
X970360Y534631D01*
X970080Y534631D02*
X965010Y539701D01*
X957277Y539701D01*
X944626Y527050D01*
X937514Y527050D01*
X940986Y584962D02*
X945896Y589872D01*
X945896Y596816D01*
X939546Y603166D02*
X939546Y613918D01*
X940986Y584962D02*
X933196Y584962D01*
X945896Y596816D02*
X939546Y603166D01*
X933196Y584962D02*
X909828Y561594D01*
X933450Y531114D02*
X937514Y527050D01*
X933450Y531114D02*
X928962Y531114D01*
X909828Y550248D01*
X909828Y561594D01*
X873153Y690722D02*
X690722Y873153D01*
X509627Y873153D01*
X472948Y909832D01*
X873153Y603554D02*
X898235Y578472D01*
X873153Y603554D02*
X873153Y690722D01*
X877725Y692616D02*
X692616Y877725D01*
X530455Y877725D01*
X498348Y909832D01*
X877725Y606053D02*
X901771Y582007D01*
X877725Y606053D02*
X877725Y692616D01*
D19*
X50500Y561170D02*
X50421Y560065D01*
X50263Y558969D01*
X50028Y557887D01*
X49716Y556825D01*
X49329Y555788D01*
X48869Y554781D01*
X48339Y553809D01*
X47740Y552878D01*
X47077Y551991D01*
X46352Y551154D01*
X45569Y550372D01*
X44732Y549647D01*
X43846Y548983D01*
X42914Y548384D01*
X41943Y547854D01*
X40935Y547394D01*
X39898Y547007D01*
X38836Y546695D01*
X37754Y546460D01*
X36658Y546302D01*
X35554Y546223D01*
X34446Y546223D01*
X33342Y546302D01*
X32246Y546460D01*
X31164Y546695D01*
X30102Y547007D01*
X29065Y547394D01*
X28058Y547854D01*
X27086Y548384D01*
X26154Y548983D01*
X25268Y549647D01*
X24431Y550372D01*
X23648Y551154D01*
X22923Y551991D01*
X22260Y552878D01*
X21661Y553809D01*
X21131Y554781D01*
X20671Y555788D01*
X20284Y556825D01*
X19972Y557887D01*
X19737Y558969D01*
X19579Y560065D01*
X19500Y561170D01*
X19500Y562277D01*
X19579Y563381D01*
X19737Y564477D01*
X19972Y565559D01*
X20284Y566621D01*
X20671Y567659D01*
X21131Y568666D01*
X21661Y569637D01*
X22260Y570569D01*
X22923Y571455D01*
X23648Y572292D01*
X24431Y573075D01*
X25268Y573800D01*
X26154Y574463D01*
X27086Y575062D01*
X28058Y575592D01*
X29065Y576052D01*
X30102Y576439D01*
X31164Y576751D01*
X32246Y576987D01*
X33342Y577144D01*
X34446Y577223D01*
X35554Y577223D01*
X36658Y577144D01*
X37754Y576987D01*
X38836Y576751D01*
X39898Y576439D01*
X40935Y576052D01*
X41943Y575592D01*
X42914Y575062D01*
X43846Y574463D01*
X44732Y573800D01*
X45569Y573075D01*
X46352Y572292D01*
X47077Y571455D01*
X47740Y570569D01*
X48339Y569637D01*
X48869Y568666D01*
X49329Y567659D01*
X49716Y566621D01*
X50028Y565559D01*
X50263Y564477D01*
X50421Y563381D01*
X50500Y562277D01*
X50500Y561170D01*
X1103947Y561170D02*
X1103868Y560065D01*
X1103710Y558969D01*
X1103475Y557887D01*
X1103163Y556825D01*
X1102776Y555788D01*
X1102316Y554781D01*
X1101785Y553809D01*
X1101187Y552877D01*
X1100523Y551991D01*
X1099798Y551154D01*
X1099015Y550371D01*
X1098178Y549646D01*
X1097292Y548983D01*
X1096361Y548384D01*
X1095389Y547854D01*
X1094382Y547394D01*
X1093344Y547007D01*
X1092282Y546695D01*
X1091200Y546459D01*
X1090104Y546302D01*
X1089000Y546223D01*
X1087893Y546223D01*
X1086788Y546302D01*
X1085692Y546459D01*
X1084611Y546695D01*
X1083548Y547007D01*
X1082511Y547394D01*
X1081504Y547854D01*
X1080532Y548384D01*
X1079600Y548983D01*
X1078714Y549646D01*
X1077877Y550371D01*
X1077094Y551154D01*
X1076369Y551991D01*
X1075706Y552877D01*
X1075107Y553809D01*
X1074577Y554781D01*
X1074117Y555788D01*
X1073730Y556825D01*
X1073418Y557887D01*
X1073183Y558969D01*
X1073025Y560065D01*
X1072946Y561170D01*
X1072946Y562277D01*
X1073025Y563381D01*
X1073183Y564477D01*
X1073418Y565559D01*
X1073730Y566621D01*
X1074117Y567659D01*
X1074577Y568666D01*
X1075107Y569637D01*
X1075706Y570569D01*
X1076369Y571455D01*
X1077094Y572292D01*
X1077877Y573075D01*
X1078714Y573800D01*
X1079600Y574463D01*
X1080532Y575062D01*
X1081504Y575593D01*
X1082511Y576053D01*
X1083548Y576440D01*
X1084611Y576751D01*
X1085692Y576987D01*
X1086788Y577144D01*
X1087893Y577223D01*
X1089000Y577223D01*
X1090104Y577144D01*
X1091200Y576987D01*
X1092282Y576751D01*
X1093344Y576440D01*
X1094382Y576053D01*
X1095389Y575593D01*
X1096361Y575062D01*
X1097292Y574463D01*
X1098178Y573800D01*
X1099015Y573075D01*
X1099798Y572292D01*
X1100523Y571455D01*
X1101187Y570569D01*
X1101785Y569637D01*
X1102316Y568666D01*
X1102776Y567659D01*
X1103163Y566621D01*
X1103475Y565559D01*
X1103710Y564477D01*
X1103868Y563381D01*
X1103947Y562277D01*
X1103947Y561170D01*
X861723Y558041D02*
X861543Y550680D01*
X861181Y543326D01*
X860640Y535982D01*
X859918Y528654D01*
X859016Y521346D01*
X857936Y514062D01*
X856677Y506807D01*
X855241Y499585D01*
X853627Y492400D01*
X851838Y485258D01*
X849874Y478161D01*
X847737Y471114D01*
X845427Y464123D01*
X842946Y457190D01*
X840296Y450320D01*
X837478Y443517D01*
X834494Y436785D01*
X831346Y430128D01*
X828035Y423551D01*
X824564Y417057D01*
X820935Y410650D01*
X817149Y404334D01*
X813210Y398113D01*
X809119Y391991D01*
X804879Y385970D01*
X800492Y380056D01*
X795962Y374251D01*
X791291Y368559D01*
X786481Y362983D01*
X781536Y357527D01*
X776459Y352194D01*
X771252Y346988D01*
X765919Y341910D01*
X760463Y336965D01*
X754887Y332156D01*
X749195Y327484D01*
X743390Y322954D01*
X737476Y318568D01*
X731456Y314328D01*
X725333Y310237D01*
X719112Y306297D01*
X712796Y302512D01*
X706389Y298882D01*
X699895Y295411D01*
X693318Y292100D01*
X686661Y288952D01*
X679930Y285968D01*
X673127Y283150D01*
X666257Y280500D01*
X659324Y278019D01*
X652332Y275710D01*
X645285Y273572D01*
X638189Y271608D01*
X631046Y269819D01*
X623861Y268206D01*
X616639Y266769D01*
X609384Y265510D01*
X602100Y264430D01*
X594792Y263528D01*
X587464Y262807D01*
X580121Y262265D01*
X572766Y261904D01*
X565405Y261723D01*
X558041Y261723D01*
X550680Y261904D01*
X543326Y262265D01*
X535982Y262807D01*
X528654Y263528D01*
X521346Y264430D01*
X514062Y265510D01*
X506807Y266769D01*
X499585Y268206D01*
X492400Y269819D01*
X485258Y271608D01*
X478161Y273572D01*
X471114Y275710D01*
X464123Y278019D01*
X457190Y280500D01*
X450320Y283150D01*
X443517Y285968D01*
X436785Y288952D01*
X430128Y292100D01*
X423551Y295411D01*
X417057Y298882D01*
X410650Y302512D01*
X404334Y306297D01*
X398113Y310237D01*
X391991Y314328D01*
X385970Y318568D01*
X380056Y322954D01*
X374251Y327484D01*
X368559Y332156D01*
X362983Y336965D01*
X357527Y341910D01*
X352194Y346988D01*
X346988Y352194D01*
X341910Y357527D01*
X336965Y362983D01*
X332156Y368559D01*
X327484Y374251D01*
X322954Y380056D01*
X318568Y385970D01*
X314328Y391991D01*
X310237Y398113D01*
X306297Y404334D01*
X302512Y410650D01*
X298882Y417057D01*
X295411Y423551D01*
X292100Y430128D01*
X288952Y436785D01*
X285968Y443517D01*
X283150Y450320D01*
X280500Y457190D01*
X278019Y464123D01*
X275710Y471114D01*
X273572Y478161D01*
X271608Y485258D01*
X269819Y492400D01*
X268206Y499585D01*
X266769Y506807D01*
X265510Y514062D01*
X264430Y521346D01*
X263528Y528654D01*
X262807Y535982D01*
X262265Y543326D01*
X261904Y550680D01*
X261723Y558041D01*
X261723Y565405D01*
X261904Y572766D01*
X262265Y580121D01*
X262807Y587464D01*
X263528Y594792D01*
X264430Y602100D01*
X265510Y609384D01*
X266769Y616639D01*
X268206Y623861D01*
X269819Y631046D01*
X271608Y638189D01*
X273572Y645285D01*
X275710Y652332D01*
X278019Y659324D01*
X280500Y666257D01*
X283150Y673127D01*
X285968Y679930D01*
X288952Y686661D01*
X292100Y693318D01*
X295411Y699895D01*
X298882Y706389D01*
X302512Y712796D01*
X306297Y719112D01*
X310237Y725333D01*
X314328Y731456D01*
X318568Y737476D01*
X322954Y743390D01*
X327484Y749195D01*
X332156Y754887D01*
X336965Y760463D01*
X341910Y765919D01*
X346988Y771252D01*
X352194Y776459D01*
X357527Y781536D01*
X362983Y786481D01*
X368559Y791291D01*
X374251Y795962D01*
X380056Y800492D01*
X385970Y804879D01*
X391991Y809119D01*
X398113Y813210D01*
X404334Y817149D01*
X410650Y820935D01*
X417057Y824564D01*
X423551Y828035D01*
X430128Y831346D01*
X436785Y834494D01*
X443517Y837478D01*
X450320Y840296D01*
X457190Y842946D01*
X464123Y845427D01*
X471114Y847737D01*
X478161Y849874D01*
X485258Y851838D01*
X492400Y853627D01*
X499585Y855241D01*
X506807Y856677D01*
X514062Y857936D01*
X521346Y859016D01*
X528654Y859918D01*
X535982Y860640D01*
X543326Y861181D01*
X550680Y861543D01*
X558041Y861723D01*
X565405Y861723D01*
X572766Y861543D01*
X580121Y861181D01*
X587464Y860640D01*
X594792Y859918D01*
X602100Y859016D01*
X609384Y857936D01*
X616639Y856677D01*
X623861Y855241D01*
X631046Y853627D01*
X638189Y851838D01*
X645285Y849874D01*
X652332Y847737D01*
X659324Y845427D01*
X666257Y842946D01*
X673127Y840296D01*
X679930Y837478D01*
X686661Y834494D01*
X693318Y831346D01*
X699895Y828035D01*
X706389Y824564D01*
X712796Y820935D01*
X719112Y817149D01*
X725333Y813210D01*
X731456Y809119D01*
X737476Y804879D01*
X743390Y800492D01*
X749195Y795962D01*
X754887Y791291D01*
X760463Y786481D01*
X765919Y781536D01*
X771252Y776459D01*
X776459Y771252D01*
X781536Y765919D01*
X786481Y760463D01*
X791291Y754887D01*
X795962Y749195D01*
X800492Y743390D01*
X804879Y737476D01*
X809119Y731456D01*
X813210Y725333D01*
X817149Y719112D01*
X820935Y712796D01*
X824564Y706389D01*
X828035Y699895D01*
X831346Y693318D01*
X834494Y686661D01*
X837478Y679930D01*
X840296Y673127D01*
X842946Y666257D01*
X845427Y659324D01*
X847737Y652332D01*
X849874Y645285D01*
X851838Y638189D01*
X853627Y631046D01*
X855241Y623861D01*
X856677Y616639D01*
X857936Y609384D01*
X859016Y602100D01*
X859918Y594792D01*
X860640Y587464D01*
X861181Y580121D01*
X861543Y572766D01*
X861723Y565405D01*
X861723Y558041D01*
X577223Y1087893D02*
X577144Y1086788D01*
X576987Y1085692D01*
X576751Y1084611D01*
X576439Y1083548D01*
X576053Y1082511D01*
X575593Y1081504D01*
X575062Y1080532D01*
X574463Y1079601D01*
X573800Y1078714D01*
X573075Y1077877D01*
X572292Y1077095D01*
X571455Y1076370D01*
X570569Y1075706D01*
X569637Y1075107D01*
X568666Y1074577D01*
X567659Y1074117D01*
X566621Y1073730D01*
X565559Y1073418D01*
X564477Y1073183D01*
X563381Y1073025D01*
X562277Y1072946D01*
X561170Y1072946D01*
X560065Y1073025D01*
X558969Y1073183D01*
X557887Y1073418D01*
X556825Y1073730D01*
X555788Y1074117D01*
X554781Y1074577D01*
X553809Y1075107D01*
X552877Y1075706D01*
X551991Y1076370D01*
X551154Y1077095D01*
X550371Y1077877D01*
X549646Y1078714D01*
X548983Y1079601D01*
X548384Y1080532D01*
X547854Y1081504D01*
X547394Y1082511D01*
X547007Y1083548D01*
X546695Y1084611D01*
X546460Y1085692D01*
X546302Y1086788D01*
X546223Y1087893D01*
X546223Y1089000D01*
X546302Y1090104D01*
X546460Y1091200D01*
X546695Y1092282D01*
X547007Y1093344D01*
X547394Y1094382D01*
X547854Y1095389D01*
X548384Y1096361D01*
X548983Y1097292D01*
X549646Y1098178D01*
X550371Y1099015D01*
X551154Y1099798D01*
X551991Y1100523D01*
X552877Y1101187D01*
X553809Y1101785D01*
X554781Y1102316D01*
X555788Y1102776D01*
X556825Y1103163D01*
X557887Y1103474D01*
X558969Y1103710D01*
X560065Y1103867D01*
X561170Y1103946D01*
X562277Y1103946D01*
X563381Y1103867D01*
X564477Y1103710D01*
X565559Y1103474D01*
X566621Y1103163D01*
X567659Y1102776D01*
X568666Y1102316D01*
X569637Y1101785D01*
X570569Y1101187D01*
X571455Y1100523D01*
X572292Y1099798D01*
X573075Y1099015D01*
X573800Y1098178D01*
X574463Y1097292D01*
X575062Y1096361D01*
X575593Y1095389D01*
X576053Y1094382D01*
X576439Y1093344D01*
X576751Y1092282D01*
X576987Y1091200D01*
X577144Y1090104D01*
X577223Y1089000D01*
X577223Y1087893D01*
X577223Y34446D02*
X577144Y33342D01*
X576987Y32246D01*
X576751Y31164D01*
X576439Y30102D01*
X576053Y29065D01*
X575593Y28057D01*
X575062Y27086D01*
X574463Y26154D01*
X573800Y25268D01*
X573075Y24431D01*
X572292Y23648D01*
X571455Y22923D01*
X570569Y22260D01*
X569637Y21661D01*
X568666Y21131D01*
X567659Y20671D01*
X566621Y20284D01*
X565559Y19972D01*
X564477Y19736D01*
X563381Y19579D01*
X562277Y19500D01*
X561170Y19500D01*
X560065Y19579D01*
X558969Y19736D01*
X557887Y19972D01*
X556825Y20284D01*
X555788Y20671D01*
X554781Y21131D01*
X553809Y21661D01*
X552877Y22260D01*
X551991Y22923D01*
X551154Y23648D01*
X550371Y24431D01*
X549646Y25268D01*
X548983Y26154D01*
X548384Y27086D01*
X547854Y28057D01*
X547394Y29065D01*
X547007Y30102D01*
X546695Y31164D01*
X546460Y32246D01*
X546302Y33342D01*
X546223Y34446D01*
X546223Y35554D01*
X546302Y36658D01*
X546460Y37754D01*
X546695Y38836D01*
X547007Y39898D01*
X547394Y40935D01*
X547854Y41943D01*
X548384Y42914D01*
X548983Y43846D01*
X549646Y44732D01*
X550371Y45569D01*
X551154Y46352D01*
X551991Y47077D01*
X552877Y47740D01*
X553809Y48339D01*
X554781Y48869D01*
X555788Y49329D01*
X556825Y49716D01*
X557887Y50028D01*
X558969Y50264D01*
X560065Y50421D01*
X561170Y50500D01*
X562277Y50500D01*
X563381Y50421D01*
X564477Y50264D01*
X565559Y50028D01*
X566621Y49716D01*
X567659Y49329D01*
X568666Y48869D01*
X569637Y48339D01*
X570569Y47740D01*
X571455Y47077D01*
X572292Y46352D01*
X573075Y45569D01*
X573800Y44732D01*
X574463Y43846D01*
X575062Y42914D01*
X575593Y41943D01*
X576053Y40935D01*
X576439Y39898D01*
X576751Y38836D01*
X576987Y37754D01*
X577144Y36658D01*
X577223Y35554D01*
X577223Y34446D01*
X50500Y561170D02*
X50421Y560065D01*
X50263Y558969D01*
X50028Y557887D01*
X49716Y556825D01*
X49329Y555788D01*
X48869Y554781D01*
X48339Y553809D01*
X47740Y552878D01*
X47077Y551991D01*
X46352Y551154D01*
X45569Y550372D01*
X44732Y549647D01*
X43846Y548983D01*
X42914Y548384D01*
X41943Y547854D01*
X40935Y547394D01*
X39898Y547007D01*
X38836Y546695D01*
X37754Y546460D01*
X36658Y546302D01*
X35554Y546223D01*
X34446Y546223D01*
X33342Y546302D01*
X32246Y546460D01*
X31164Y546695D01*
X30102Y547007D01*
X29065Y547394D01*
X28058Y547854D01*
X27086Y548384D01*
X26154Y548983D01*
X25268Y549647D01*
X24431Y550372D01*
X23648Y551154D01*
X22923Y551991D01*
X22260Y552878D01*
X21661Y553809D01*
X21131Y554781D01*
X20671Y555788D01*
X20284Y556825D01*
X19972Y557887D01*
X19737Y558969D01*
X19579Y560065D01*
X19500Y561170D01*
X19500Y562277D01*
X19579Y563381D01*
X19737Y564477D01*
X19972Y565559D01*
X20284Y566621D01*
X20671Y567659D01*
X21131Y568666D01*
X21661Y569637D01*
X22260Y570569D01*
X22923Y571455D01*
X23648Y572292D01*
X24431Y573075D01*
X25268Y573800D01*
X26154Y574463D01*
X27086Y575062D01*
X28058Y575592D01*
X29065Y576052D01*
X30102Y576439D01*
X31164Y576751D01*
X32246Y576987D01*
X33342Y577144D01*
X34446Y577223D01*
X35554Y577223D01*
X36658Y577144D01*
X37754Y576987D01*
X38836Y576751D01*
X39898Y576439D01*
X40935Y576052D01*
X41943Y575592D01*
X42914Y575062D01*
X43846Y574463D01*
X44732Y573800D01*
X45569Y573075D01*
X46352Y572292D01*
X47077Y571455D01*
X47740Y570569D01*
X48339Y569637D01*
X48869Y568666D01*
X49329Y567659D01*
X49716Y566621D01*
X50028Y565559D01*
X50263Y564477D01*
X50421Y563381D01*
X50500Y562277D01*
X50500Y561170D01*
X1103947Y561170D02*
X1103868Y560065D01*
X1103710Y558969D01*
X1103475Y557887D01*
X1103163Y556825D01*
X1102776Y555788D01*
X1102316Y554781D01*
X1101785Y553809D01*
X1101187Y552877D01*
X1100523Y551991D01*
X1099798Y551154D01*
X1099015Y550371D01*
X1098178Y549646D01*
X1097292Y548983D01*
X1096361Y548384D01*
X1095389Y547854D01*
X1094382Y547394D01*
X1093344Y547007D01*
X1092282Y546695D01*
X1091200Y546459D01*
X1090104Y546302D01*
X1089000Y546223D01*
X1087893Y546223D01*
X1086788Y546302D01*
X1085692Y546459D01*
X1084611Y546695D01*
X1083548Y547007D01*
X1082511Y547394D01*
X1081504Y547854D01*
X1080532Y548384D01*
X1079600Y548983D01*
X1078714Y549646D01*
X1077877Y550371D01*
X1077094Y551154D01*
X1076369Y551991D01*
X1075706Y552877D01*
X1075107Y553809D01*
X1074577Y554781D01*
X1074117Y555788D01*
X1073730Y556825D01*
X1073418Y557887D01*
X1073183Y558969D01*
X1073025Y560065D01*
X1072946Y561170D01*
X1072946Y562277D01*
X1073025Y563381D01*
X1073183Y564477D01*
X1073418Y565559D01*
X1073730Y566621D01*
X1074117Y567659D01*
X1074577Y568666D01*
X1075107Y569637D01*
X1075706Y570569D01*
X1076369Y571455D01*
X1077094Y572292D01*
X1077877Y573075D01*
X1078714Y573800D01*
X1079600Y574463D01*
X1080532Y575062D01*
X1081504Y575593D01*
X1082511Y576053D01*
X1083548Y576440D01*
X1084611Y576751D01*
X1085692Y576987D01*
X1086788Y577144D01*
X1087893Y577223D01*
X1089000Y577223D01*
X1090104Y577144D01*
X1091200Y576987D01*
X1092282Y576751D01*
X1093344Y576440D01*
X1094382Y576053D01*
X1095389Y575593D01*
X1096361Y575062D01*
X1097292Y574463D01*
X1098178Y573800D01*
X1099015Y573075D01*
X1099798Y572292D01*
X1100523Y571455D01*
X1101187Y570569D01*
X1101785Y569637D01*
X1102316Y568666D01*
X1102776Y567659D01*
X1103163Y566621D01*
X1103475Y565559D01*
X1103710Y564477D01*
X1103868Y563381D01*
X1103947Y562277D01*
X1103947Y561170D01*
X861723Y558041D02*
X861543Y550680D01*
X861181Y543326D01*
X860640Y535982D01*
X859918Y528654D01*
X859016Y521346D01*
X857936Y514062D01*
X856677Y506807D01*
X855241Y499585D01*
X853627Y492400D01*
X851838Y485258D01*
X849874Y478161D01*
X847737Y471114D01*
X845427Y464123D01*
X842946Y457190D01*
X840296Y450320D01*
X837478Y443517D01*
X834494Y436785D01*
X831346Y430128D01*
X828035Y423551D01*
X824564Y417057D01*
X820935Y410650D01*
X817149Y404334D01*
X813210Y398113D01*
X809119Y391991D01*
X804879Y385970D01*
X800492Y380056D01*
X795962Y374251D01*
X791291Y368559D01*
X786481Y362983D01*
X781536Y357527D01*
X776459Y352194D01*
X771252Y346988D01*
X765919Y341910D01*
X760463Y336965D01*
X754887Y332156D01*
X749195Y327484D01*
X743390Y322954D01*
X737476Y318568D01*
X731456Y314328D01*
X725333Y310237D01*
X719112Y306297D01*
X712796Y302512D01*
X706389Y298882D01*
X699895Y295411D01*
X693318Y292100D01*
X686661Y288952D01*
X679930Y285968D01*
X673127Y283150D01*
X666257Y280500D01*
X659324Y278019D01*
X652332Y275710D01*
X645285Y273572D01*
X638189Y271608D01*
X631046Y269819D01*
X623861Y268206D01*
X616639Y266769D01*
X609384Y265510D01*
X602100Y264430D01*
X594792Y263528D01*
X587464Y262807D01*
X580121Y262265D01*
X572766Y261904D01*
X565405Y261723D01*
X558041Y261723D01*
X550680Y261904D01*
X543326Y262265D01*
X535982Y262807D01*
X528654Y263528D01*
X521346Y264430D01*
X514062Y265510D01*
X506807Y266769D01*
X499585Y268206D01*
X492400Y269819D01*
X485258Y271608D01*
X478161Y273572D01*
X471114Y275710D01*
X464123Y278019D01*
X457190Y280500D01*
X450320Y283150D01*
X443517Y285968D01*
X436785Y288952D01*
X430128Y292100D01*
X423551Y295411D01*
X417057Y298882D01*
X410650Y302512D01*
X404334Y306297D01*
X398113Y310237D01*
X391991Y314328D01*
X385970Y318568D01*
X380056Y322954D01*
X374251Y327484D01*
X368559Y332156D01*
X362983Y336965D01*
X357527Y341910D01*
X352194Y346988D01*
X346988Y352194D01*
X341910Y357527D01*
X336965Y362983D01*
X332156Y368559D01*
X327484Y374251D01*
X322954Y380056D01*
X318568Y385970D01*
X314328Y391991D01*
X310237Y398113D01*
X306297Y404334D01*
X302512Y410650D01*
X298882Y417057D01*
X295411Y423551D01*
X292100Y430128D01*
X288952Y436785D01*
X285968Y443517D01*
X283150Y450320D01*
X280500Y457190D01*
X278019Y464123D01*
X275710Y471114D01*
X273572Y478161D01*
X271608Y485258D01*
X269819Y492400D01*
X268206Y499585D01*
X266769Y506807D01*
X265510Y514062D01*
X264430Y521346D01*
X263528Y528654D01*
X262807Y535982D01*
X262265Y543326D01*
X261904Y550680D01*
X261723Y558041D01*
X261723Y565405D01*
X261904Y572766D01*
X262265Y580121D01*
X262807Y587464D01*
X263528Y594792D01*
X264430Y602100D01*
X265510Y609384D01*
X266769Y616639D01*
X268206Y623861D01*
X269819Y631046D01*
X271608Y638189D01*
X273572Y645285D01*
X275710Y652332D01*
X278019Y659324D01*
X280500Y666257D01*
X283150Y673127D01*
X285968Y679930D01*
X288952Y686661D01*
X292100Y693318D01*
X295411Y699895D01*
X298882Y706389D01*
X302512Y712796D01*
X306297Y719112D01*
X310237Y725333D01*
X314328Y731456D01*
X318568Y737476D01*
X322954Y743390D01*
X327484Y749195D01*
X332156Y754887D01*
X336965Y760463D01*
X341910Y765919D01*
X346988Y771252D01*
X352194Y776459D01*
X357527Y781536D01*
X362983Y786481D01*
X368559Y791291D01*
X374251Y795962D01*
X380056Y800492D01*
X385970Y804879D01*
X391991Y809119D01*
X398113Y813210D01*
X404334Y817149D01*
X410650Y820935D01*
X417057Y824564D01*
X423551Y828035D01*
X430128Y831346D01*
X436785Y834494D01*
X443517Y837478D01*
X450320Y840296D01*
X457190Y842946D01*
X464123Y845427D01*
X471114Y847737D01*
X478161Y849874D01*
X485258Y851838D01*
X492400Y853627D01*
X499585Y855241D01*
X506807Y856677D01*
X514062Y857936D01*
X521346Y859016D01*
X528654Y859918D01*
X535982Y860640D01*
X543326Y861181D01*
X550680Y861543D01*
X558041Y861723D01*
X565405Y861723D01*
X572766Y861543D01*
X580121Y861181D01*
X587464Y860640D01*
X594792Y859918D01*
X602100Y859016D01*
X609384Y857936D01*
X616639Y856677D01*
X623861Y855241D01*
X631046Y853627D01*
X638189Y851838D01*
X645285Y849874D01*
X652332Y847737D01*
X659324Y845427D01*
X666257Y842946D01*
X673127Y840296D01*
X679930Y837478D01*
X686661Y834494D01*
X693318Y831346D01*
X699895Y828035D01*
X706389Y824564D01*
X712796Y820935D01*
X719112Y817149D01*
X725333Y813210D01*
X731456Y809119D01*
X737476Y804879D01*
X743390Y800492D01*
X749195Y795962D01*
X754887Y791291D01*
X760463Y786481D01*
X765919Y781536D01*
X771252Y776459D01*
X776459Y771252D01*
X781536Y765919D01*
X786481Y760463D01*
X791291Y754887D01*
X795962Y749195D01*
X800492Y743390D01*
X804879Y737476D01*
X809119Y731456D01*
X813210Y725333D01*
X817149Y719112D01*
X820935Y712796D01*
X824564Y706389D01*
X828035Y699895D01*
X831346Y693318D01*
X834494Y686661D01*
X837478Y679930D01*
X840296Y673127D01*
X842946Y666257D01*
X845427Y659324D01*
X847737Y652332D01*
X849874Y645285D01*
X851838Y638189D01*
X853627Y631046D01*
X855241Y623861D01*
X856677Y616639D01*
X857936Y609384D01*
X859016Y602100D01*
X859918Y594792D01*
X860640Y587464D01*
X861181Y580121D01*
X861543Y572766D01*
X861723Y565405D01*
X861723Y558041D01*
X577223Y1087893D02*
X577144Y1086788D01*
X576987Y1085692D01*
X576751Y1084611D01*
X576439Y1083548D01*
X576053Y1082511D01*
X575593Y1081504D01*
X575062Y1080532D01*
X574463Y1079601D01*
X573800Y1078714D01*
X573075Y1077877D01*
X572292Y1077095D01*
X571455Y1076370D01*
X570569Y1075706D01*
X569637Y1075107D01*
X568666Y1074577D01*
X567659Y1074117D01*
X566621Y1073730D01*
X565559Y1073418D01*
X564477Y1073183D01*
X563381Y1073025D01*
X562277Y1072946D01*
X561170Y1072946D01*
X560065Y1073025D01*
X558969Y1073183D01*
X557887Y1073418D01*
X556825Y1073730D01*
X555788Y1074117D01*
X554781Y1074577D01*
X553809Y1075107D01*
X552877Y1075706D01*
X551991Y1076370D01*
X551154Y1077095D01*
X550371Y1077877D01*
X549646Y1078714D01*
X548983Y1079601D01*
X548384Y1080532D01*
X547854Y1081504D01*
X547394Y1082511D01*
X547007Y1083548D01*
X546695Y1084611D01*
X546460Y1085692D01*
X546302Y1086788D01*
X546223Y1087893D01*
X546223Y1089000D01*
X546302Y1090104D01*
X546460Y1091200D01*
X546695Y1092282D01*
X547007Y1093344D01*
X547394Y1094382D01*
X547854Y1095389D01*
X548384Y1096361D01*
X548983Y1097292D01*
X549646Y1098178D01*
X550371Y1099015D01*
X551154Y1099798D01*
X551991Y1100523D01*
X552877Y1101187D01*
X553809Y1101785D01*
X554781Y1102316D01*
X555788Y1102776D01*
X556825Y1103163D01*
X557887Y1103474D01*
X558969Y1103710D01*
X560065Y1103867D01*
X561170Y1103946D01*
X562277Y1103946D01*
X563381Y1103867D01*
X564477Y1103710D01*
X565559Y1103474D01*
X566621Y1103163D01*
X567659Y1102776D01*
X568666Y1102316D01*
X569637Y1101785D01*
X570569Y1101187D01*
X571455Y1100523D01*
X572292Y1099798D01*
X573075Y1099015D01*
X573800Y1098178D01*
X574463Y1097292D01*
X575062Y1096361D01*
X575593Y1095389D01*
X576053Y1094382D01*
X576439Y1093344D01*
X576751Y1092282D01*
X576987Y1091200D01*
X577144Y1090104D01*
X577223Y1089000D01*
X577223Y1087893D01*
X577223Y34446D02*
X577144Y33342D01*
X576987Y32246D01*
X576751Y31164D01*
X576439Y30102D01*
X576053Y29065D01*
X575593Y28057D01*
X575062Y27086D01*
X574463Y26154D01*
X573800Y25268D01*
X573075Y24431D01*
X572292Y23648D01*
X571455Y22923D01*
X570569Y22260D01*
X569637Y21661D01*
X568666Y21131D01*
X567659Y20671D01*
X566621Y20284D01*
X565559Y19972D01*
X564477Y19736D01*
X563381Y19579D01*
X562277Y19500D01*
X561170Y19500D01*
X560065Y19579D01*
X558969Y19736D01*
X557887Y19972D01*
X556825Y20284D01*
X555788Y20671D01*
X554781Y21131D01*
X553809Y21661D01*
X552877Y22260D01*
X551991Y22923D01*
X551154Y23648D01*
X550371Y24431D01*
X549646Y25268D01*
X548983Y26154D01*
X548384Y27086D01*
X547854Y28057D01*
X547394Y29065D01*
X547007Y30102D01*
X546695Y31164D01*
X546460Y32246D01*
X546302Y33342D01*
X546223Y34446D01*
X546223Y35554D01*
X546302Y36658D01*
X546460Y37754D01*
X546695Y38836D01*
X547007Y39898D01*
X547394Y40935D01*
X547854Y41943D01*
X548384Y42914D01*
X548983Y43846D01*
X549646Y44732D01*
X550371Y45569D01*
X551154Y46352D01*
X551991Y47077D01*
X552877Y47740D01*
X553809Y48339D01*
X554781Y48869D01*
X555788Y49329D01*
X556825Y49716D01*
X557887Y50028D01*
X558969Y50264D01*
X560065Y50421D01*
X561170Y50500D01*
X562277Y50500D01*
X563381Y50421D01*
X564477Y50264D01*
X565559Y50028D01*
X566621Y49716D01*
X567659Y49329D01*
X568666Y48869D01*
X569637Y48339D01*
X570569Y47740D01*
X571455Y47077D01*
X572292Y46352D01*
X573075Y45569D01*
X573800Y44732D01*
X574463Y43846D01*
X575062Y42914D01*
X575593Y41943D01*
X576053Y40935D01*
X576439Y39898D01*
X576751Y38836D01*
X576987Y37754D01*
X577144Y36658D01*
X577223Y35554D01*
X577223Y34446D01*
M02*
