M48
;GenerationSoftware,Autodesk,EAGLE,8.7.0*%
;CreationDate,2018-03-17T11:15:14Z*%
FMAT,2
ICI,OFF
METRIC,TZ,000.000
T8C0.508
T7C0.800
T6C0.813
T5C0.900
T4C1.016
T3C1.700
T2C1.702
T1C3.100
%
G90
M71
T1
X26714Y139144
X78000Y81803
X153286Y139144
X26714Y40856
X153286Y40856
X90000Y134253
X102000Y81803
T2
X50597Y43231
X50597Y33325
X54001Y43231
X54001Y33325
X45329Y68994
X35423Y68994
X45329Y65590
X35423Y65590
T3
X51360Y66498
X55320Y66498
X37109Y54027
X37109Y57987
X39370Y42623
X39370Y46583
X123063Y29287
X123063Y33247
X123089Y42495
X123089Y46455
X100177Y56262
X100177Y60222
X123190Y56135
X123190Y60095
T4
X144424Y114122
X141884Y116662
X86182Y90500
X93802Y90500
X51206Y134442
X66446Y134442
X66446Y131902
X63906Y131902
X66446Y129362
X66446Y126822
X63906Y126822
X63906Y124282
X78272Y143634
X73366Y142320
X75819Y142977
X61077Y145161
X56677Y142621
X58877Y143891
X36765Y146837
X33173Y143245
X34969Y145041
X21438Y132527
X18898Y128127
X20168Y130327
X12773Y113324
X11459Y108418
X12116Y110871
X9373Y92532
X9373Y87452
X9373Y89992
X11433Y71566
X12747Y66660
X12090Y69113
X18898Y51857
X21438Y47457
X20168Y49657
X31173Y34765
X34765Y31173
X32969Y32969
X47457Y21438
X51857Y18898
X49657Y20168
X66686Y12773
X71592Y11459
X69139Y12116
X87452Y9373
X92532Y9373
X89992Y9373
X108418Y11433
X113324Y12747
X110871Y12090
X128127Y18898
X132527Y21438
X130327Y20168
X145245Y31173
X148837Y34765
X147041Y32969
X158598Y47457
X161138Y51857
X159868Y49657
X167237Y66660
X168551Y71566
X167894Y69113
X170688Y87452
X170688Y92532
X170688Y89992
X168576Y108418
X167262Y113324
X167919Y110871
X161087Y128153
X158547Y132553
X159817Y130353
X146855Y143238
X143263Y146830
X145059Y145034
X123333Y142621
X118933Y145161
X121133Y143891
X106644Y142345
X101738Y143659
X104191Y143002
X92537Y142620
X87457Y142620
X89997Y142620
X114141Y67670
X111601Y67670
X109061Y67670
X103981Y67670
X106521Y67670
X101441Y67670
X98901Y67670
X96361Y67670
X93821Y67670
X91281Y67670
X88741Y67670
X86201Y67670
X83661Y67670
X78581Y67670
X81121Y67670
X76041Y67670
X73501Y67670
X70961Y67670
X68421Y67670
X65881Y67670
X114141Y19410
X111601Y19410
X109061Y19410
X103981Y19410
X106521Y19410
X101441Y19410
X98901Y19410
X96361Y19410
X83661Y19410
X81121Y19410
X78581Y19410
X73501Y19410
X76041Y19410
X70961Y19410
X68421Y19410
X65881Y19410
X63906Y121742
X66446Y121742
X66446Y124282
X66446Y119202
X66446Y116662
X66446Y114122
X66446Y109042
X66446Y103962
X73863Y129210
X73863Y126670
X73863Y124130
X73863Y121590
X73863Y119050
X73863Y116510
X73863Y113970
X73863Y111430
X106121Y129210
X106121Y126670
X106121Y124130
X106121Y121590
X106121Y119050
X106121Y116510
X106121Y113970
X106121Y111430
X66446Y106502
X51206Y131902
X51206Y129362
X51206Y126822
X88722Y105740
X91262Y105740
X93802Y105740
X86182Y105740
X51206Y124282
X51206Y121742
X51206Y119202
X51206Y116662
X51206Y114122
X88722Y90500
X91262Y90500
X40665Y111607
X38125Y111607
X38125Y114147
X40665Y114147
X40665Y116687
X38125Y116687
X38125Y119227
X40665Y119227
X38125Y96367
X40665Y96367
X40665Y93827
X38125Y93827
X38125Y91287
X40665Y91287
X38125Y81127
X38125Y86207
X38125Y83667
X38125Y78587
X38125Y76047
X40665Y78587
X40665Y76047
X40665Y81127
X40665Y86207
X40665Y83667
X45745Y111607
X45745Y101447
X45745Y98907
X45745Y96367
X45745Y93827
X45745Y91287
X45745Y88747
X45745Y86207
X45745Y83667
X45745Y81127
X45745Y78587
X45745Y76047
X43205Y88747
X40665Y88747
X38125Y88747
X35585Y88747
X33045Y88747
X30505Y76047
X30505Y78587
X30505Y81127
X30505Y83667
X30505Y86207
X30505Y88747
X30505Y91287
X30505Y93827
X30505Y96367
X30505Y98907
X30505Y101447
X30505Y103987
X30505Y106527
X30505Y109067
X30505Y111607
X30505Y114147
X30505Y116687
X30505Y119227
X30505Y121767
X30505Y124307
X30505Y126847
X30505Y129387
X30505Y131927
X45745Y106527
X45745Y103987
X45745Y109067
X45745Y114147
X45745Y116687
X45745Y119227
X45745Y124307
X51206Y111582
X43205Y121767
X43205Y124307
X43205Y126847
X45745Y126847
X45745Y129387
X43205Y131927
X45745Y131927
X45745Y134467
X30505Y134467
X144424Y111582
X141884Y111582
X141884Y114122
X144424Y116662
X51206Y109042
X45745Y121767
X141884Y119202
X144424Y119202
X141884Y96342
X144424Y96342
X144424Y93802
X141884Y93802
X141884Y91262
X144424Y91262
X141884Y81102
X141884Y86182
X141884Y83642
X141884Y78562
X141884Y76022
X144424Y78562
X144424Y76022
X144424Y81102
X144424Y86182
X144424Y83642
X149504Y111582
X149504Y101422
X149504Y98882
X149504Y96342
X149504Y93802
X149504Y91262
X149504Y88722
X149504Y86182
X149504Y83642
X149504Y81102
X149504Y78562
X149504Y76022
X146964Y88722
X144424Y88722
X141884Y88722
X139344Y88722
X136804Y88722
X134264Y76022
X134264Y78562
X134264Y81102
X134264Y83642
X134264Y86182
X134264Y88722
X134264Y91262
X134264Y93802
X134264Y96342
X134264Y98882
X134264Y101422
X134264Y103962
X134264Y106502
X134264Y109042
X134264Y111582
X134264Y114122
X134264Y116662
X134264Y119202
X134264Y121742
X134264Y124282
X134264Y126822
X134264Y129362
X134264Y131902
X149504Y106502
X149504Y103962
X149504Y109042
X149504Y114122
X149504Y116662
X149504Y119202
X149504Y124282
X149504Y121742
X146964Y121742
X146964Y124282
X146964Y126822
X149504Y126822
X149504Y129362
X146964Y131902
X149504Y131902
X149504Y134442
X134264Y134442
X123597Y111531
X121057Y111531
X121057Y114071
X123597Y114071
X123597Y116611
X121057Y116611
X121057Y119151
X123597Y119151
X121057Y96291
X123597Y96291
X123597Y93751
X121057Y93751
X121057Y91211
X123597Y91211
X121057Y81051
X121057Y86131
X121057Y83591
X121057Y78511
X121057Y75971
X123597Y78511
X123597Y75971
X123597Y81051
X123597Y86131
X123597Y83591
X128677Y111531
X128677Y101371
X128677Y98831
X128677Y96291
X128677Y93751
X128677Y91211
X128677Y88671
X128677Y86131
X128677Y83591
X128677Y81051
X128677Y78511
X128677Y75971
X126137Y88671
X123597Y88671
X121057Y88671
X118517Y88671
X115977Y88671
X113437Y75971
X113437Y78511
X113437Y81051
X113437Y83591
X113437Y86131
X113437Y88671
X113437Y91211
X113437Y93751
X113437Y96291
X113437Y98831
X113437Y101371
X113437Y103911
X113437Y106451
X113437Y108991
X113437Y111531
X113437Y114071
X113437Y116611
X113437Y119151
X113437Y121691
X113437Y124231
X113437Y126771
X113437Y129311
X113437Y131851
X128677Y106451
X128677Y103911
X128677Y108991
X128677Y114071
X128677Y116611
X128677Y119151
X128677Y124231
X128677Y121691
X126137Y121691
X126137Y124231
X126137Y126771
X128677Y126771
X128677Y129311
X126137Y131851
X128677Y131851
X128677Y134391
X113437Y134391
X61366Y111582
X58826Y111582
X58826Y114122
X61366Y114122
X61366Y116662
X58826Y116662
X58826Y119202
X61366Y119202
X58826Y96342
X61366Y96342
X61366Y93802
X58826Y93802
X58826Y91262
X61366Y91262
X58826Y81102
X58826Y86182
X58826Y83642
X58826Y78562
X58826Y76022
X61366Y78562
X61366Y76022
X61366Y81102
X61366Y86182
X61366Y83642
X66446Y111582
X66446Y101422
X66446Y98882
X66446Y96342
X66446Y93802
X66446Y91262
X66446Y88722
X66446Y86182
X66446Y83642
X66446Y81102
X66446Y78562
X66446Y76022
X63906Y88722
X61366Y88722
X58826Y88722
X56286Y88722
X53746Y88722
X51206Y76022
X51206Y78562
X51206Y81102
X51206Y83642
X51206Y86182
X51206Y88722
X51206Y91262
X51206Y93802
X51206Y96342
X51206Y98882
X51206Y101422
X51206Y103962
X51206Y106502
T5
X51272Y56573
X51272Y51493
T6
X97076Y47919
X97076Y44363
X97163Y24978
X97163Y28534
X97089Y34609
X97089Y38165
X82627Y48519
X79071Y48519
T7
X135176Y41198
X137176Y41198
X139176Y41198
X141176Y41198
X21159Y60249
X23699Y60249
X26239Y60249
X85692Y116383
X141151Y55956
X135151Y63348
X137151Y63348
X139151Y63348
X141151Y63348
X135176Y48514
X137176Y48514
X139176Y48514
X141176Y48514
X135151Y55956
X137151Y55956
X93692Y116383
X91692Y116383
X89692Y116383
X87692Y116383
X139151Y55956
T8
X161366Y105486
X160909Y103734
X160867Y102337
X161976Y64358
X157557Y64358
X138223Y69770
X161976Y65577
X157557Y65577
X137190Y71988
X136017Y74346
X161976Y66797
X157557Y66797
X168783Y97079
X136754Y99949
X138481Y100914
X169237Y98298
X168454Y99239
X140056Y101752
X167005Y100584
X141630Y102591
X30735Y143078
X168631Y100916
X143053Y103429
X144678Y104020
X168427Y102135
X68809Y113944
X70714Y116738
X33981Y132795
X140284Y131928
X140284Y129362
X157789Y95271
X157709Y94005
X157709Y92786
X157759Y90221
X157886Y87732
X157912Y85141
X157124Y77597
X157963Y80162
X14376Y55956
X12294Y58039
X39421Y21819
X172618Y85268
X131369Y148438
X5867Y77112
X38951Y148042
X142474Y24260
X6274Y81001
X35077Y26391
X139598Y22708
X135788Y148615
X38933Y146070
X44891Y147854
X173116Y80091
X76429Y95174
X161823Y106883
X162281Y108514
X157886Y115138
X153735Y115152
X161425Y110016
X160536Y112090
X140310Y126746
X93904Y75311
X91262Y75311
X88748Y75768
X86208Y75311
X114063Y71645
X111684Y73381
X108001Y73482
X105105Y73838
X102997Y74397
X99974Y74752
X97307Y75235
X35738Y85954
X78613Y77140
X76048Y77597
X73584Y78345
X72365Y78802
X53010Y95047
X117153Y78486
X116696Y86588
X109855Y102845
X110566Y98730
X110642Y79096
X123121Y70427
X94082Y22200
X92278Y23927
X91923Y47447
X94183Y50038
X118567Y102209
X118567Y100533
X116764Y105892
X116942Y102209
X116942Y100533
X124993Y102209
X125019Y100533
X121260Y109296
X124028Y106604
X126111Y106604
X126365Y102209
X126340Y100533
X120879Y105892
X120879Y103759
X119286Y84785
X119405Y109220
X119990Y102209
X119990Y100533
X118905Y80830
X118067Y84773
X77368Y66091
X97052Y85630
X96647Y83954
X82347Y65913
X75209Y65253
X102679Y92443
X103687Y91080
X100127Y85630
X99847Y83954
X97612Y64186
X94090Y85039
X94005Y82448
X84277Y65532
X95072Y66621
X101541Y114351
X101972Y102091
X102764Y100512
X101473Y91237
X102265Y89658
X98908Y85630
X98628Y83954
X101016Y101134
X99339Y101524
X92507Y85039
X92405Y81991
X92431Y65964
X107798Y37186
X109144Y37440
X109368Y50897
X107696Y50140
X112454Y37507
X112251Y50529
X108204Y22860
X109423Y22360
X109880Y36246
X108458Y35839
X112776Y22606
X112700Y35511
X87122Y51359
X87655Y52553
X88036Y65862
X86106Y65354
X88849Y51765
X90572Y65604
X130581Y101321
X130581Y98984
X108026Y52222
X104546Y85630
X104445Y83954
X100228Y65024
X106096Y94589
X105918Y92913
X105791Y86469
X105664Y83954
X102718Y66446
X109423Y52266
X109735Y65161
X116713Y128067
X115519Y102209
X115400Y100533
X97460Y118618
X97460Y113467
X98501Y99314
X104572Y99212
X106324Y96088
X107137Y92913
X107036Y86469
X106883Y83954
X105258Y65430
X108382Y65329
X110573Y51691
X112353Y65058
X108712Y114909
X108712Y113233
X106985Y107289
X107002Y101981
X107229Y96908
X108356Y92913
X108255Y86469
X108102Y83954
X107812Y66483
X62509Y32766
X75438Y32766
X39116Y69596
X40996Y69723
X61112Y66881
X62880Y65677
X133147Y30251
X69667Y21560
X80305Y21819
X93787Y112268
X77826Y63094
X43129Y134722
X39548Y30251
X138989Y28092
X141554Y30556
X93421Y31369
X99771Y28550
X149301Y63322
X153949Y72796
X166167Y80010
X168427Y80061
X152121Y68504
X101325Y63326
X103113Y64556
X81193Y64708
X152719Y105551
X151587Y112649
X155245Y112573
X155067Y118669
X157861Y123317
X137058Y139319
X137414Y141884
X95631Y129235
X58471Y136855
X36627Y138582
X25578Y92507
X12347Y86385
X10518Y86081
X53035Y143815
X57091Y144302
X116738Y145720
X126083Y141757
X16866Y93040
X13081Y123172
X55557Y141074
X55146Y20373
X51407Y69380
X96159Y102900
X90559Y129906
X110043Y132550
X118958Y132398
X152646Y134363
X164876Y122545
X147053Y68603
X146764Y76878
X134099Y72382
X23922Y53614
X47163Y63010
X51689Y38588
X66159Y44981
X99131Y37148
X101592Y22456
X129154Y68504
X78222Y135087
X70381Y107655
X84257Y110139
X77475Y106032
X95037Y96566
X76817Y85547
X95819Y9517
X98280Y9647
X101778Y9563
X157117Y57252
X157086Y55537
X125694Y63282
X131742Y48890
X134805Y60076
X65052Y65608
X68024Y65532
X67026Y69205
X17663Y68181
X23470Y63365
X29474Y43614
X26838Y48796
X57480Y56820
X74846Y56919
X61473Y56446
X60284Y44110
X57274Y46388
X77848Y116538
X38415Y140317
X42377Y136416
X28578Y134275
X27381Y133574
X40960Y126769
X145042Y133807
X78321Y145766
X71798Y146368
X65397Y147096
X37864Y66665
X35959Y44163
X33368Y61095
X33368Y53536
X33063Y46152
X27894Y91143
X22685Y124704
X54315Y141348
X70256Y141470
X65966Y141531
X85809Y136243
X80894Y120005
X61859Y134003
X70386Y111356
X71194Y94988
X59558Y99903
X97506Y94554
X89169Y110983
X94861Y135915
X109690Y128135
X148044Y137008
X177617Y95672
X167005Y103802
X123284Y25613
X123177Y63508
X123078Y52984
X123078Y49563
X122865Y36083
X123025Y39451
X153375Y56147
X152072Y51796
X154579Y34536
X136322Y18733
X120739Y11509
X113871Y8740
X104841Y7574
X84920Y26063
X83556Y26040
X82149Y27468
X82149Y28832
X82126Y30241
X82118Y31674
X82065Y33084
X85522Y37546
X86886Y36228
X89817Y36165
X88278Y36205
X86860Y37551
X88285Y37544
X89792Y37589
X82146Y26063
X80683Y26086
X80683Y30226
X80632Y33076
X80686Y31659
X80693Y28842
X80693Y27488
X71984Y8128
X78842Y10922
X76802Y10922
X74524Y10922
X112878Y69037
X112116Y70307
X110846Y70307
X70231Y25822
X70216Y27262
X62103Y24384
X63574Y24346
X63612Y25723
X64897Y24384
X64897Y25776
X64897Y27178
X59944Y68326
X57912Y70104
X56134Y69596
X90907Y99289
X173208Y96134
X172354Y95189
X154610Y60249
X148118Y47930
X148356Y60919
X129794Y58877
X128671Y63017
X130429Y56083
X129997Y40538
X129870Y29769
X55093Y22454
X51003Y27991
X27635Y98450
X11582Y104475
X15758Y76749
X29451Y72682
X24986Y69479
X32233Y39954
X45669Y35865
X69545Y45085
X70942Y45085
X72238Y45088
X72319Y43871
X72299Y42672
X70894Y42662
X69545Y43917
X69621Y42723
X57429Y131902
X58649Y124714
X60300Y122555
X55093Y97688
X54051Y100152
X43965Y55860
X43012Y57462
X41770Y55773
X15095Y96365
X16794Y103180
X27610Y104140
X47757Y67305
X88875Y86589
X81229Y86233
X73685Y81534
X79299Y61646
X70942Y43942
X47676Y61036
X29312Y37744
X24435Y44806
X32304Y48265
X33528Y57196
X26365Y52324
X25375Y65430
X14935Y63906
X17856Y70739
X17203Y120787
X92939Y99289
X71501Y103175
X81331Y103175
X80569Y111709
X80797Y116576
X77546Y123469
X86634Y127325
X81509Y131750
X72847Y135077
X170866Y103048
X168986Y104724
X167259Y106477
X30683Y139878
X27483Y142977
X7186Y100404
X171831Y108636
X167818Y119405
X160426Y120421
X156769Y125679
X157328Y129972
X156489Y135636
X152857Y129337
X156108Y143459
X149911Y140894
X129184Y136982
X124562Y134137
X142773Y139192
X150012Y145694
X146609Y146482
X135306Y142164
X116230Y141122
X113868Y144399
X109525Y141097
X109299Y144556
X98882Y145212
X95428Y143713
X83947Y141757
X80899Y141656
X81661Y145618
X68453Y145720
X102260Y125908
X103505Y131826
X103607Y136195
X106985Y136449
X140716Y123622
X143612Y123266
X137465Y123190
X163347Y125451
X163246Y132766
X131572Y65811
X125832Y70561
X163855Y48108
X149123Y68529
X144729Y68732
X148641Y72847
X144069Y72695
X175717Y90932
X171729Y73988
X171872Y71217
X171425Y65507
X167056Y62763
X163297Y58776
X167335Y58293
X151282Y35814
X155372Y45999
X153619Y44831
X158394Y39776
X152019Y37795
X145491Y28346
X167132Y91161
X167107Y92608
X167081Y93980
X152273Y96926
X152222Y95428
X117881Y122098
X123038Y125654
X116586Y130912
X116383Y134518
X129769Y142062
X125197Y144323
X63119Y145999
X55042Y146202
X132817Y16815
X123551Y13284
X81128Y6858
X90617Y5258
X35268Y127447
X37798Y134221
X35814Y130350
X24232Y137185
X21702Y138511
X15824Y131851
X5060Y89362
X13579Y54625
X16561Y47117
X48158Y16383
X84960Y27465
X83530Y27483
X84905Y28885
X83536Y28854
X84877Y30274
X83543Y30246
X84877Y31722
X83520Y31707
X84884Y33111
X83505Y33068
X68857Y24402
X67551Y24348
X66241Y24384
X66192Y25806
X68859Y25781
X68819Y27244
X67513Y27178
X66167Y27178
X67564Y25781
X92786Y52324
X91821Y51181
X90475Y51308
X91288Y52451
X96418Y64922
X96469Y63475
X89512Y47379
X89517Y48575
X87061Y48560
X88311Y47399
X79096Y54508
X88306Y48547
X87076Y47389
X98882Y52654
X99746Y31953
X103581Y25273
X105588Y23012
X34290Y106959
X55321Y122834
X56083Y107874
X54407Y108941
X97917Y133299
X100508Y133172
X130590Y138659
X133579Y139065
X97917Y109159
X54407Y106350
X121920Y102362
X53950Y103708
X35166Y133334
X99670Y134772
X99644Y139954
X53518Y134290
X53111Y139954
X32537Y132537
X98806Y136246
X98806Y139068
X54431Y135101
X54864Y139116
X155397Y103124
M30