G04 EAGLE Gerber X2 export*
G75*
%MOMM*%
%FSLAX34Y34*%
%LPD*%
%AMOC8*
5,1,8,0,0,1.08239X$1,22.5*%
G01*
%ADD10C,3.303200*%
%ADD11C,1.828800*%
%ADD12R,2.753200X2.753200*%
%ADD13C,2.753200*%
%ADD14R,1.303200X1.203200*%
%ADD15R,10.863200X8.583200*%
%ADD16R,2.235200X4.013200*%
%ADD17C,1.612800*%
%ADD18C,2.133600*%
%ADD19R,2.133600X2.133600*%
%ADD20R,2.755900X2.755900*%
%ADD21R,11.003200X10.613200*%
%ADD22R,1.270000X2.362200*%
%ADD23R,1.003200X1.403200*%
%ADD24R,1.803200X2.003200*%
%ADD25R,1.403200X1.003200*%
%ADD26R,1.113200X1.423200*%
%ADD27P,2.144431X8X112.500000*%
%ADD28C,0.360959*%
%ADD29R,1.203200X1.303200*%
%ADD30C,0.138300*%
%ADD31C,1.050800*%
%ADD32C,0.700800*%
%ADD33P,1.951982X8X202.500000*%
%ADD34C,1.803400*%
%ADD35P,1.951982X8X112.500000*%
%ADD36R,1.854200X1.203200*%
%ADD37R,1.203200X1.854200*%
%ADD38R,1.003200X1.103200*%
%ADD39R,1.612800X1.612800*%
%ADD40C,1.612800*%
%ADD41R,1.103200X1.003200*%


D10*
X267140Y1391440D03*
X780000Y818030D03*
X1532860Y1391440D03*
X267140Y408560D03*
X1532860Y408560D03*
X900000Y1342530D03*
X1020000Y818030D03*
D11*
X512060Y1344418D03*
X664460Y1344418D03*
X664460Y1319018D03*
X639060Y1319018D03*
X664460Y1293618D03*
X664460Y1268218D03*
X639060Y1268218D03*
X639060Y1242818D03*
X639060Y1217418D03*
X664460Y1217418D03*
X664460Y1242818D03*
X664460Y1192018D03*
X664460Y1166618D03*
X664460Y1141218D03*
X664460Y1090418D03*
X664460Y1039618D03*
X664460Y1065018D03*
X512060Y1319018D03*
X512060Y1293618D03*
X512060Y1268218D03*
X512060Y1242818D03*
X512060Y1217418D03*
X512060Y1192018D03*
X512060Y1166618D03*
X512060Y1141218D03*
X512060Y1115818D03*
X512060Y1090418D03*
X512060Y1065018D03*
X512060Y1039618D03*
X512060Y1014218D03*
X512060Y988818D03*
X512060Y963418D03*
X512060Y938018D03*
X512060Y912618D03*
X512060Y887218D03*
X512060Y861818D03*
X512060Y836418D03*
X512060Y811018D03*
X512060Y785618D03*
X512060Y760218D03*
X537460Y887218D03*
X562860Y887218D03*
X588260Y887218D03*
X613660Y887218D03*
X639060Y887218D03*
X664460Y760218D03*
X664460Y785618D03*
X664460Y811018D03*
X664460Y836418D03*
X664460Y861818D03*
X664460Y887218D03*
X664460Y912618D03*
X664460Y938018D03*
X664460Y963418D03*
X664460Y988818D03*
X664460Y1014218D03*
X664460Y1115818D03*
X613660Y836418D03*
X613660Y861818D03*
X613660Y811018D03*
X613660Y760218D03*
X613660Y785618D03*
X588260Y760218D03*
X588260Y785618D03*
X588260Y836418D03*
X588260Y861818D03*
X588260Y811018D03*
X613660Y912618D03*
X588260Y912618D03*
X588260Y938018D03*
X613660Y938018D03*
X613660Y963418D03*
X588260Y963418D03*
X613660Y1192018D03*
X588260Y1192018D03*
X588260Y1166618D03*
X613660Y1166618D03*
X613660Y1141218D03*
X588260Y1141218D03*
X588260Y1115818D03*
X613660Y1115818D03*
X1134366Y1343910D03*
X1286766Y1343910D03*
X1286766Y1318510D03*
X1261366Y1318510D03*
X1286766Y1293110D03*
X1286766Y1267710D03*
X1261366Y1267710D03*
X1261366Y1242310D03*
X1261366Y1216910D03*
X1286766Y1216910D03*
X1286766Y1242310D03*
X1286766Y1191510D03*
X1286766Y1166110D03*
X1286766Y1140710D03*
X1286766Y1089910D03*
X1286766Y1039110D03*
X1286766Y1064510D03*
X1134366Y1318510D03*
X1134366Y1293110D03*
X1134366Y1267710D03*
X1134366Y1242310D03*
X1134366Y1216910D03*
X1134366Y1191510D03*
X1134366Y1166110D03*
X1134366Y1140710D03*
X1134366Y1115310D03*
X1134366Y1089910D03*
X1134366Y1064510D03*
X1134366Y1039110D03*
X1134366Y1013710D03*
X1134366Y988310D03*
X1134366Y962910D03*
X1134366Y937510D03*
X1134366Y912110D03*
X1134366Y886710D03*
X1134366Y861310D03*
X1134366Y835910D03*
X1134366Y810510D03*
X1134366Y785110D03*
X1134366Y759710D03*
X1159766Y886710D03*
X1185166Y886710D03*
X1210566Y886710D03*
X1235966Y886710D03*
X1261366Y886710D03*
X1286766Y759710D03*
X1286766Y785110D03*
X1286766Y810510D03*
X1286766Y835910D03*
X1286766Y861310D03*
X1286766Y886710D03*
X1286766Y912110D03*
X1286766Y937510D03*
X1286766Y962910D03*
X1286766Y988310D03*
X1286766Y1013710D03*
X1286766Y1115310D03*
X1235966Y835910D03*
X1235966Y861310D03*
X1235966Y810510D03*
X1235966Y759710D03*
X1235966Y785110D03*
X1210566Y759710D03*
X1210566Y785110D03*
X1210566Y835910D03*
X1210566Y861310D03*
X1210566Y810510D03*
X1235966Y912110D03*
X1210566Y912110D03*
X1210566Y937510D03*
X1235966Y937510D03*
X1235966Y962910D03*
X1210566Y962910D03*
X1235966Y1191510D03*
X1210566Y1191510D03*
X1210566Y1166110D03*
X1235966Y1166110D03*
X1235966Y1140710D03*
X1210566Y1140710D03*
X1210566Y1115310D03*
X1235966Y1115310D03*
X1342642Y1344422D03*
X1495042Y1344422D03*
X1495042Y1319022D03*
X1469642Y1319022D03*
X1495042Y1293622D03*
X1495042Y1268222D03*
X1469642Y1268222D03*
X1469642Y1242822D03*
X1469642Y1217422D03*
X1495042Y1217422D03*
X1495042Y1242822D03*
X1495042Y1192022D03*
X1495042Y1166622D03*
X1495042Y1141222D03*
X1495042Y1090422D03*
X1495042Y1039622D03*
X1495042Y1065022D03*
X1342642Y1319022D03*
X1342642Y1293622D03*
X1342642Y1268222D03*
X1342642Y1242822D03*
X1342642Y1217422D03*
X1342642Y1192022D03*
X1342642Y1166622D03*
X1342642Y1141222D03*
X1342642Y1115822D03*
X1342642Y1090422D03*
X1342642Y1065022D03*
X1342642Y1039622D03*
X1342642Y1014222D03*
X1342642Y988822D03*
X1342642Y963422D03*
X1342642Y938022D03*
X1342642Y912622D03*
X1342642Y887222D03*
X1342642Y861822D03*
X1342642Y836422D03*
X1342642Y811022D03*
X1342642Y785622D03*
X1342642Y760222D03*
X1368042Y887222D03*
X1393442Y887222D03*
X1418842Y887222D03*
X1444242Y887222D03*
X1469642Y887222D03*
X1495042Y760222D03*
X1495042Y785622D03*
X1495042Y811022D03*
X1495042Y836422D03*
X1495042Y861822D03*
X1495042Y887222D03*
X1495042Y912622D03*
X1495042Y938022D03*
X1495042Y963422D03*
X1495042Y988822D03*
X1495042Y1014222D03*
X1495042Y1115822D03*
X1444242Y836422D03*
X1444242Y861822D03*
X1444242Y811022D03*
X1444242Y760222D03*
X1444242Y785622D03*
X1418842Y760222D03*
X1418842Y785622D03*
X1418842Y836422D03*
X1418842Y861822D03*
X1418842Y811022D03*
X1444242Y912622D03*
X1418842Y912622D03*
X1418842Y938022D03*
X1444242Y938022D03*
X1444242Y963422D03*
X1418842Y963422D03*
X1444242Y1192022D03*
X1418842Y1192022D03*
X1418842Y1166622D03*
X1444242Y1166622D03*
X1444242Y1141222D03*
X1418842Y1141222D03*
X1418842Y1115822D03*
X1444242Y1115822D03*
X305052Y1344672D03*
X457452Y1344672D03*
X457452Y1319272D03*
X432052Y1319272D03*
X457452Y1293872D03*
X457452Y1268472D03*
X432052Y1268472D03*
X432052Y1243072D03*
X432052Y1217672D03*
X457452Y1217672D03*
X457452Y1243072D03*
X457452Y1192272D03*
X457452Y1166872D03*
X457452Y1141472D03*
X457452Y1090672D03*
X457452Y1039872D03*
X457452Y1065272D03*
X305052Y1319272D03*
X305052Y1293872D03*
X305052Y1268472D03*
X305052Y1243072D03*
X305052Y1217672D03*
X305052Y1192272D03*
X305052Y1166872D03*
X305052Y1141472D03*
X305052Y1116072D03*
X305052Y1090672D03*
X305052Y1065272D03*
X305052Y1039872D03*
X305052Y1014472D03*
X305052Y989072D03*
X305052Y963672D03*
X305052Y938272D03*
X305052Y912872D03*
X305052Y887472D03*
X305052Y862072D03*
X305052Y836672D03*
X305052Y811272D03*
X305052Y785872D03*
X305052Y760472D03*
X330452Y887472D03*
X355852Y887472D03*
X381252Y887472D03*
X406652Y887472D03*
X432052Y887472D03*
X457452Y760472D03*
X457452Y785872D03*
X457452Y811272D03*
X457452Y836672D03*
X457452Y862072D03*
X457452Y887472D03*
X457452Y912872D03*
X457452Y938272D03*
X457452Y963672D03*
X457452Y989072D03*
X457452Y1014472D03*
X457452Y1116072D03*
X406652Y836672D03*
X406652Y862072D03*
X406652Y811272D03*
X406652Y760472D03*
X406652Y785872D03*
X381252Y760472D03*
X381252Y785872D03*
X381252Y836672D03*
X381252Y862072D03*
X381252Y811272D03*
X406652Y912872D03*
X381252Y912872D03*
X381252Y938272D03*
X406652Y938272D03*
X406652Y963672D03*
X381252Y963672D03*
X406652Y1192272D03*
X381252Y1192272D03*
X381252Y1166872D03*
X406652Y1166872D03*
X406652Y1141472D03*
X381252Y1141472D03*
X381252Y1116072D03*
X406652Y1116072D03*
D12*
X513600Y664980D03*
D13*
X553200Y664980D03*
D14*
X545460Y708910D03*
X528460Y708910D03*
X491020Y725780D03*
X474020Y725780D03*
D15*
X702050Y512560D03*
D16*
X677050Y611249D03*
X727050Y611610D03*
D17*
X262390Y609538D02*
X262390Y595442D01*
X236990Y595442D02*
X236990Y609538D01*
X211590Y609538D02*
X211590Y595442D01*
D18*
X512720Y565730D03*
D19*
X512720Y514930D03*
D20*
X505970Y432310D03*
X505970Y333250D03*
X540006Y432310D03*
X540006Y333250D03*
X453290Y689940D03*
X354230Y689940D03*
X453290Y655904D03*
X354230Y655904D03*
D21*
X213360Y843780D03*
D22*
X213360Y760468D03*
X187960Y760468D03*
X238760Y760468D03*
D23*
X266810Y564130D03*
X248810Y564130D03*
D24*
X186860Y554630D03*
X214860Y554630D03*
D25*
X265430Y761090D03*
X265430Y743090D03*
D23*
X210170Y737620D03*
X192170Y737620D03*
D26*
X236845Y715520D03*
X204095Y715520D03*
D27*
X1061212Y1114298D03*
X1061212Y1139698D03*
X1061212Y1165098D03*
X1061212Y1190498D03*
X1061212Y1215898D03*
X1061212Y1241298D03*
X1061212Y1266698D03*
X1061212Y1292098D03*
X738632Y1114298D03*
X738632Y1139698D03*
X738632Y1165098D03*
X738632Y1190498D03*
X738632Y1215898D03*
X738632Y1241298D03*
X738632Y1266698D03*
X738632Y1292098D03*
D28*
X198271Y988549D02*
X189849Y988549D01*
X189849Y996971D01*
X198271Y996971D01*
X198271Y988549D01*
X198271Y992158D02*
X189849Y992158D01*
X189849Y995767D02*
X198271Y995767D01*
X198271Y971009D02*
X189849Y971009D01*
X189849Y979431D01*
X198271Y979431D01*
X198271Y971009D01*
X198271Y974618D02*
X189849Y974618D01*
X189849Y978227D02*
X198271Y978227D01*
X216269Y988299D02*
X224691Y988299D01*
X216269Y988299D02*
X216269Y996721D01*
X224691Y996721D01*
X224691Y988299D01*
X224691Y991908D02*
X216269Y991908D01*
X216269Y995517D02*
X224691Y995517D01*
X224691Y970759D02*
X216269Y970759D01*
X216269Y979181D01*
X224691Y979181D01*
X224691Y970759D01*
X224691Y974368D02*
X216269Y974368D01*
X216269Y977977D02*
X224691Y977977D01*
D29*
X193810Y931300D03*
X193810Y948300D03*
X220470Y930790D03*
X220470Y947790D03*
X673600Y319910D03*
X673600Y302910D03*
D28*
X540401Y270489D02*
X531979Y270489D01*
X531979Y278911D01*
X540401Y278911D01*
X540401Y270489D01*
X540401Y274098D02*
X531979Y274098D01*
X531979Y277707D02*
X540401Y277707D01*
X540401Y252949D02*
X531979Y252949D01*
X531979Y261371D01*
X540401Y261371D01*
X540401Y252949D01*
X540401Y256558D02*
X531979Y256558D01*
X531979Y260167D02*
X540401Y260167D01*
D29*
X625090Y307200D03*
X625090Y290200D03*
D28*
X566821Y270759D02*
X558399Y270759D01*
X558399Y279181D01*
X566821Y279181D01*
X566821Y270759D01*
X566821Y274368D02*
X558399Y274368D01*
X558399Y277977D02*
X566821Y277977D01*
X566821Y253219D02*
X558399Y253219D01*
X558399Y261641D01*
X566821Y261641D01*
X566821Y253219D01*
X566821Y256828D02*
X558399Y256828D01*
X558399Y260437D02*
X566821Y260437D01*
D30*
X1171535Y623745D02*
X1171535Y642295D01*
X1175685Y642295D01*
X1175685Y623745D01*
X1171535Y623745D01*
X1171535Y625127D02*
X1175685Y625127D01*
X1175685Y626509D02*
X1171535Y626509D01*
X1171535Y627891D02*
X1175685Y627891D01*
X1175685Y629273D02*
X1171535Y629273D01*
X1171535Y630655D02*
X1175685Y630655D01*
X1175685Y632037D02*
X1171535Y632037D01*
X1171535Y633419D02*
X1175685Y633419D01*
X1175685Y634801D02*
X1171535Y634801D01*
X1171535Y636183D02*
X1175685Y636183D01*
X1175685Y637565D02*
X1171535Y637565D01*
X1171535Y638947D02*
X1175685Y638947D01*
X1175685Y640329D02*
X1171535Y640329D01*
X1171535Y641711D02*
X1175685Y641711D01*
X1166535Y642295D02*
X1166535Y623745D01*
X1166535Y642295D02*
X1170685Y642295D01*
X1170685Y623745D01*
X1166535Y623745D01*
X1166535Y625127D02*
X1170685Y625127D01*
X1170685Y626509D02*
X1166535Y626509D01*
X1166535Y627891D02*
X1170685Y627891D01*
X1170685Y629273D02*
X1166535Y629273D01*
X1166535Y630655D02*
X1170685Y630655D01*
X1170685Y632037D02*
X1166535Y632037D01*
X1166535Y633419D02*
X1170685Y633419D01*
X1170685Y634801D02*
X1166535Y634801D01*
X1166535Y636183D02*
X1170685Y636183D01*
X1170685Y637565D02*
X1166535Y637565D01*
X1166535Y638947D02*
X1170685Y638947D01*
X1170685Y640329D02*
X1166535Y640329D01*
X1166535Y641711D02*
X1170685Y641711D01*
X1161535Y642295D02*
X1161535Y623745D01*
X1161535Y642295D02*
X1165685Y642295D01*
X1165685Y623745D01*
X1161535Y623745D01*
X1161535Y625127D02*
X1165685Y625127D01*
X1165685Y626509D02*
X1161535Y626509D01*
X1161535Y627891D02*
X1165685Y627891D01*
X1165685Y629273D02*
X1161535Y629273D01*
X1161535Y630655D02*
X1165685Y630655D01*
X1165685Y632037D02*
X1161535Y632037D01*
X1161535Y633419D02*
X1165685Y633419D01*
X1165685Y634801D02*
X1161535Y634801D01*
X1161535Y636183D02*
X1165685Y636183D01*
X1165685Y637565D02*
X1161535Y637565D01*
X1161535Y638947D02*
X1165685Y638947D01*
X1165685Y640329D02*
X1161535Y640329D01*
X1161535Y641711D02*
X1165685Y641711D01*
X1156535Y642295D02*
X1156535Y623745D01*
X1156535Y642295D02*
X1160685Y642295D01*
X1160685Y623745D01*
X1156535Y623745D01*
X1156535Y625127D02*
X1160685Y625127D01*
X1160685Y626509D02*
X1156535Y626509D01*
X1156535Y627891D02*
X1160685Y627891D01*
X1160685Y629273D02*
X1156535Y629273D01*
X1156535Y630655D02*
X1160685Y630655D01*
X1160685Y632037D02*
X1156535Y632037D01*
X1156535Y633419D02*
X1160685Y633419D01*
X1160685Y634801D02*
X1156535Y634801D01*
X1156535Y636183D02*
X1160685Y636183D01*
X1160685Y637565D02*
X1156535Y637565D01*
X1156535Y638947D02*
X1160685Y638947D01*
X1160685Y640329D02*
X1156535Y640329D01*
X1156535Y641711D02*
X1160685Y641711D01*
X1151535Y642295D02*
X1151535Y623745D01*
X1151535Y642295D02*
X1155685Y642295D01*
X1155685Y623745D01*
X1151535Y623745D01*
X1151535Y625127D02*
X1155685Y625127D01*
X1155685Y626509D02*
X1151535Y626509D01*
X1151535Y627891D02*
X1155685Y627891D01*
X1155685Y629273D02*
X1151535Y629273D01*
X1151535Y630655D02*
X1155685Y630655D01*
X1155685Y632037D02*
X1151535Y632037D01*
X1151535Y633419D02*
X1155685Y633419D01*
X1155685Y634801D02*
X1151535Y634801D01*
X1151535Y636183D02*
X1155685Y636183D01*
X1155685Y637565D02*
X1151535Y637565D01*
X1151535Y638947D02*
X1155685Y638947D01*
X1155685Y640329D02*
X1151535Y640329D01*
X1151535Y641711D02*
X1155685Y641711D01*
X1146535Y642295D02*
X1146535Y623745D01*
X1146535Y642295D02*
X1150685Y642295D01*
X1150685Y623745D01*
X1146535Y623745D01*
X1146535Y625127D02*
X1150685Y625127D01*
X1150685Y626509D02*
X1146535Y626509D01*
X1146535Y627891D02*
X1150685Y627891D01*
X1150685Y629273D02*
X1146535Y629273D01*
X1146535Y630655D02*
X1150685Y630655D01*
X1150685Y632037D02*
X1146535Y632037D01*
X1146535Y633419D02*
X1150685Y633419D01*
X1150685Y634801D02*
X1146535Y634801D01*
X1146535Y636183D02*
X1150685Y636183D01*
X1150685Y637565D02*
X1146535Y637565D01*
X1146535Y638947D02*
X1150685Y638947D01*
X1150685Y640329D02*
X1146535Y640329D01*
X1146535Y641711D02*
X1150685Y641711D01*
X1141535Y642295D02*
X1141535Y623745D01*
X1141535Y642295D02*
X1145685Y642295D01*
X1145685Y623745D01*
X1141535Y623745D01*
X1141535Y625127D02*
X1145685Y625127D01*
X1145685Y626509D02*
X1141535Y626509D01*
X1141535Y627891D02*
X1145685Y627891D01*
X1145685Y629273D02*
X1141535Y629273D01*
X1141535Y630655D02*
X1145685Y630655D01*
X1145685Y632037D02*
X1141535Y632037D01*
X1141535Y633419D02*
X1145685Y633419D01*
X1145685Y634801D02*
X1141535Y634801D01*
X1141535Y636183D02*
X1145685Y636183D01*
X1145685Y637565D02*
X1141535Y637565D01*
X1141535Y638947D02*
X1145685Y638947D01*
X1145685Y640329D02*
X1141535Y640329D01*
X1141535Y641711D02*
X1145685Y641711D01*
X1136535Y642295D02*
X1136535Y623745D01*
X1136535Y642295D02*
X1140685Y642295D01*
X1140685Y623745D01*
X1136535Y623745D01*
X1136535Y625127D02*
X1140685Y625127D01*
X1140685Y626509D02*
X1136535Y626509D01*
X1136535Y627891D02*
X1140685Y627891D01*
X1140685Y629273D02*
X1136535Y629273D01*
X1136535Y630655D02*
X1140685Y630655D01*
X1140685Y632037D02*
X1136535Y632037D01*
X1136535Y633419D02*
X1140685Y633419D01*
X1140685Y634801D02*
X1136535Y634801D01*
X1136535Y636183D02*
X1140685Y636183D01*
X1140685Y637565D02*
X1136535Y637565D01*
X1136535Y638947D02*
X1140685Y638947D01*
X1140685Y640329D02*
X1136535Y640329D01*
X1136535Y641711D02*
X1140685Y641711D01*
X1131535Y642295D02*
X1131535Y623745D01*
X1131535Y642295D02*
X1135685Y642295D01*
X1135685Y623745D01*
X1131535Y623745D01*
X1131535Y625127D02*
X1135685Y625127D01*
X1135685Y626509D02*
X1131535Y626509D01*
X1131535Y627891D02*
X1135685Y627891D01*
X1135685Y629273D02*
X1131535Y629273D01*
X1131535Y630655D02*
X1135685Y630655D01*
X1135685Y632037D02*
X1131535Y632037D01*
X1131535Y633419D02*
X1135685Y633419D01*
X1135685Y634801D02*
X1131535Y634801D01*
X1131535Y636183D02*
X1135685Y636183D01*
X1135685Y637565D02*
X1131535Y637565D01*
X1131535Y638947D02*
X1135685Y638947D01*
X1135685Y640329D02*
X1131535Y640329D01*
X1131535Y641711D02*
X1135685Y641711D01*
X1126535Y642295D02*
X1126535Y623745D01*
X1126535Y642295D02*
X1130685Y642295D01*
X1130685Y623745D01*
X1126535Y623745D01*
X1126535Y625127D02*
X1130685Y625127D01*
X1130685Y626509D02*
X1126535Y626509D01*
X1126535Y627891D02*
X1130685Y627891D01*
X1130685Y629273D02*
X1126535Y629273D01*
X1126535Y630655D02*
X1130685Y630655D01*
X1130685Y632037D02*
X1126535Y632037D01*
X1126535Y633419D02*
X1130685Y633419D01*
X1130685Y634801D02*
X1126535Y634801D01*
X1126535Y636183D02*
X1130685Y636183D01*
X1130685Y637565D02*
X1126535Y637565D01*
X1126535Y638947D02*
X1130685Y638947D01*
X1130685Y640329D02*
X1126535Y640329D01*
X1126535Y641711D02*
X1130685Y641711D01*
X1121535Y642295D02*
X1121535Y623745D01*
X1121535Y642295D02*
X1125685Y642295D01*
X1125685Y623745D01*
X1121535Y623745D01*
X1121535Y625127D02*
X1125685Y625127D01*
X1125685Y626509D02*
X1121535Y626509D01*
X1121535Y627891D02*
X1125685Y627891D01*
X1125685Y629273D02*
X1121535Y629273D01*
X1121535Y630655D02*
X1125685Y630655D01*
X1125685Y632037D02*
X1121535Y632037D01*
X1121535Y633419D02*
X1125685Y633419D01*
X1125685Y634801D02*
X1121535Y634801D01*
X1121535Y636183D02*
X1125685Y636183D01*
X1125685Y637565D02*
X1121535Y637565D01*
X1121535Y638947D02*
X1125685Y638947D01*
X1125685Y640329D02*
X1121535Y640329D01*
X1121535Y641711D02*
X1125685Y641711D01*
X1116535Y642295D02*
X1116535Y623745D01*
X1116535Y642295D02*
X1120685Y642295D01*
X1120685Y623745D01*
X1116535Y623745D01*
X1116535Y625127D02*
X1120685Y625127D01*
X1120685Y626509D02*
X1116535Y626509D01*
X1116535Y627891D02*
X1120685Y627891D01*
X1120685Y629273D02*
X1116535Y629273D01*
X1116535Y630655D02*
X1120685Y630655D01*
X1120685Y632037D02*
X1116535Y632037D01*
X1116535Y633419D02*
X1120685Y633419D01*
X1120685Y634801D02*
X1116535Y634801D01*
X1116535Y636183D02*
X1120685Y636183D01*
X1120685Y637565D02*
X1116535Y637565D01*
X1116535Y638947D02*
X1120685Y638947D01*
X1120685Y640329D02*
X1116535Y640329D01*
X1116535Y641711D02*
X1120685Y641711D01*
X1111535Y642295D02*
X1111535Y623745D01*
X1111535Y642295D02*
X1115685Y642295D01*
X1115685Y623745D01*
X1111535Y623745D01*
X1111535Y625127D02*
X1115685Y625127D01*
X1115685Y626509D02*
X1111535Y626509D01*
X1111535Y627891D02*
X1115685Y627891D01*
X1115685Y629273D02*
X1111535Y629273D01*
X1111535Y630655D02*
X1115685Y630655D01*
X1115685Y632037D02*
X1111535Y632037D01*
X1111535Y633419D02*
X1115685Y633419D01*
X1115685Y634801D02*
X1111535Y634801D01*
X1111535Y636183D02*
X1115685Y636183D01*
X1115685Y637565D02*
X1111535Y637565D01*
X1111535Y638947D02*
X1115685Y638947D01*
X1115685Y640329D02*
X1111535Y640329D01*
X1111535Y641711D02*
X1115685Y641711D01*
X1106535Y642295D02*
X1106535Y623745D01*
X1106535Y642295D02*
X1110685Y642295D01*
X1110685Y623745D01*
X1106535Y623745D01*
X1106535Y625127D02*
X1110685Y625127D01*
X1110685Y626509D02*
X1106535Y626509D01*
X1106535Y627891D02*
X1110685Y627891D01*
X1110685Y629273D02*
X1106535Y629273D01*
X1106535Y630655D02*
X1110685Y630655D01*
X1110685Y632037D02*
X1106535Y632037D01*
X1106535Y633419D02*
X1110685Y633419D01*
X1110685Y634801D02*
X1106535Y634801D01*
X1106535Y636183D02*
X1110685Y636183D01*
X1110685Y637565D02*
X1106535Y637565D01*
X1106535Y638947D02*
X1110685Y638947D01*
X1110685Y640329D02*
X1106535Y640329D01*
X1106535Y641711D02*
X1110685Y641711D01*
X1101535Y642295D02*
X1101535Y623745D01*
X1101535Y642295D02*
X1105685Y642295D01*
X1105685Y623745D01*
X1101535Y623745D01*
X1101535Y625127D02*
X1105685Y625127D01*
X1105685Y626509D02*
X1101535Y626509D01*
X1101535Y627891D02*
X1105685Y627891D01*
X1105685Y629273D02*
X1101535Y629273D01*
X1101535Y630655D02*
X1105685Y630655D01*
X1105685Y632037D02*
X1101535Y632037D01*
X1101535Y633419D02*
X1105685Y633419D01*
X1105685Y634801D02*
X1101535Y634801D01*
X1101535Y636183D02*
X1105685Y636183D01*
X1105685Y637565D02*
X1101535Y637565D01*
X1101535Y638947D02*
X1105685Y638947D01*
X1105685Y640329D02*
X1101535Y640329D01*
X1101535Y641711D02*
X1105685Y641711D01*
X1096535Y642295D02*
X1096535Y623745D01*
X1096535Y642295D02*
X1100685Y642295D01*
X1100685Y623745D01*
X1096535Y623745D01*
X1096535Y625127D02*
X1100685Y625127D01*
X1100685Y626509D02*
X1096535Y626509D01*
X1096535Y627891D02*
X1100685Y627891D01*
X1100685Y629273D02*
X1096535Y629273D01*
X1096535Y630655D02*
X1100685Y630655D01*
X1100685Y632037D02*
X1096535Y632037D01*
X1096535Y633419D02*
X1100685Y633419D01*
X1100685Y634801D02*
X1096535Y634801D01*
X1096535Y636183D02*
X1100685Y636183D01*
X1100685Y637565D02*
X1096535Y637565D01*
X1096535Y638947D02*
X1100685Y638947D01*
X1100685Y640329D02*
X1096535Y640329D01*
X1096535Y641711D02*
X1100685Y641711D01*
X1091535Y642295D02*
X1091535Y623745D01*
X1091535Y642295D02*
X1095685Y642295D01*
X1095685Y623745D01*
X1091535Y623745D01*
X1091535Y625127D02*
X1095685Y625127D01*
X1095685Y626509D02*
X1091535Y626509D01*
X1091535Y627891D02*
X1095685Y627891D01*
X1095685Y629273D02*
X1091535Y629273D01*
X1091535Y630655D02*
X1095685Y630655D01*
X1095685Y632037D02*
X1091535Y632037D01*
X1091535Y633419D02*
X1095685Y633419D01*
X1095685Y634801D02*
X1091535Y634801D01*
X1091535Y636183D02*
X1095685Y636183D01*
X1095685Y637565D02*
X1091535Y637565D01*
X1091535Y638947D02*
X1095685Y638947D01*
X1095685Y640329D02*
X1091535Y640329D01*
X1091535Y641711D02*
X1095685Y641711D01*
X1086535Y642295D02*
X1086535Y623745D01*
X1086535Y642295D02*
X1090685Y642295D01*
X1090685Y623745D01*
X1086535Y623745D01*
X1086535Y625127D02*
X1090685Y625127D01*
X1090685Y626509D02*
X1086535Y626509D01*
X1086535Y627891D02*
X1090685Y627891D01*
X1090685Y629273D02*
X1086535Y629273D01*
X1086535Y630655D02*
X1090685Y630655D01*
X1090685Y632037D02*
X1086535Y632037D01*
X1086535Y633419D02*
X1090685Y633419D01*
X1090685Y634801D02*
X1086535Y634801D01*
X1086535Y636183D02*
X1090685Y636183D01*
X1090685Y637565D02*
X1086535Y637565D01*
X1086535Y638947D02*
X1090685Y638947D01*
X1090685Y640329D02*
X1086535Y640329D01*
X1086535Y641711D02*
X1090685Y641711D01*
X1086535Y547995D02*
X1086535Y529445D01*
X1086535Y547995D02*
X1090685Y547995D01*
X1090685Y529445D01*
X1086535Y529445D01*
X1086535Y530827D02*
X1090685Y530827D01*
X1090685Y532209D02*
X1086535Y532209D01*
X1086535Y533591D02*
X1090685Y533591D01*
X1090685Y534973D02*
X1086535Y534973D01*
X1086535Y536355D02*
X1090685Y536355D01*
X1090685Y537737D02*
X1086535Y537737D01*
X1086535Y539119D02*
X1090685Y539119D01*
X1090685Y540501D02*
X1086535Y540501D01*
X1086535Y541883D02*
X1090685Y541883D01*
X1090685Y543265D02*
X1086535Y543265D01*
X1086535Y544647D02*
X1090685Y544647D01*
X1090685Y546029D02*
X1086535Y546029D01*
X1086535Y547411D02*
X1090685Y547411D01*
X1091535Y547995D02*
X1091535Y529445D01*
X1091535Y547995D02*
X1095685Y547995D01*
X1095685Y529445D01*
X1091535Y529445D01*
X1091535Y530827D02*
X1095685Y530827D01*
X1095685Y532209D02*
X1091535Y532209D01*
X1091535Y533591D02*
X1095685Y533591D01*
X1095685Y534973D02*
X1091535Y534973D01*
X1091535Y536355D02*
X1095685Y536355D01*
X1095685Y537737D02*
X1091535Y537737D01*
X1091535Y539119D02*
X1095685Y539119D01*
X1095685Y540501D02*
X1091535Y540501D01*
X1091535Y541883D02*
X1095685Y541883D01*
X1095685Y543265D02*
X1091535Y543265D01*
X1091535Y544647D02*
X1095685Y544647D01*
X1095685Y546029D02*
X1091535Y546029D01*
X1091535Y547411D02*
X1095685Y547411D01*
X1096535Y547995D02*
X1096535Y529445D01*
X1096535Y547995D02*
X1100685Y547995D01*
X1100685Y529445D01*
X1096535Y529445D01*
X1096535Y530827D02*
X1100685Y530827D01*
X1100685Y532209D02*
X1096535Y532209D01*
X1096535Y533591D02*
X1100685Y533591D01*
X1100685Y534973D02*
X1096535Y534973D01*
X1096535Y536355D02*
X1100685Y536355D01*
X1100685Y537737D02*
X1096535Y537737D01*
X1096535Y539119D02*
X1100685Y539119D01*
X1100685Y540501D02*
X1096535Y540501D01*
X1096535Y541883D02*
X1100685Y541883D01*
X1100685Y543265D02*
X1096535Y543265D01*
X1096535Y544647D02*
X1100685Y544647D01*
X1100685Y546029D02*
X1096535Y546029D01*
X1096535Y547411D02*
X1100685Y547411D01*
X1101535Y547995D02*
X1101535Y529445D01*
X1101535Y547995D02*
X1105685Y547995D01*
X1105685Y529445D01*
X1101535Y529445D01*
X1101535Y530827D02*
X1105685Y530827D01*
X1105685Y532209D02*
X1101535Y532209D01*
X1101535Y533591D02*
X1105685Y533591D01*
X1105685Y534973D02*
X1101535Y534973D01*
X1101535Y536355D02*
X1105685Y536355D01*
X1105685Y537737D02*
X1101535Y537737D01*
X1101535Y539119D02*
X1105685Y539119D01*
X1105685Y540501D02*
X1101535Y540501D01*
X1101535Y541883D02*
X1105685Y541883D01*
X1105685Y543265D02*
X1101535Y543265D01*
X1101535Y544647D02*
X1105685Y544647D01*
X1105685Y546029D02*
X1101535Y546029D01*
X1101535Y547411D02*
X1105685Y547411D01*
X1106535Y547995D02*
X1106535Y529445D01*
X1106535Y547995D02*
X1110685Y547995D01*
X1110685Y529445D01*
X1106535Y529445D01*
X1106535Y530827D02*
X1110685Y530827D01*
X1110685Y532209D02*
X1106535Y532209D01*
X1106535Y533591D02*
X1110685Y533591D01*
X1110685Y534973D02*
X1106535Y534973D01*
X1106535Y536355D02*
X1110685Y536355D01*
X1110685Y537737D02*
X1106535Y537737D01*
X1106535Y539119D02*
X1110685Y539119D01*
X1110685Y540501D02*
X1106535Y540501D01*
X1106535Y541883D02*
X1110685Y541883D01*
X1110685Y543265D02*
X1106535Y543265D01*
X1106535Y544647D02*
X1110685Y544647D01*
X1110685Y546029D02*
X1106535Y546029D01*
X1106535Y547411D02*
X1110685Y547411D01*
X1111535Y547995D02*
X1111535Y529445D01*
X1111535Y547995D02*
X1115685Y547995D01*
X1115685Y529445D01*
X1111535Y529445D01*
X1111535Y530827D02*
X1115685Y530827D01*
X1115685Y532209D02*
X1111535Y532209D01*
X1111535Y533591D02*
X1115685Y533591D01*
X1115685Y534973D02*
X1111535Y534973D01*
X1111535Y536355D02*
X1115685Y536355D01*
X1115685Y537737D02*
X1111535Y537737D01*
X1111535Y539119D02*
X1115685Y539119D01*
X1115685Y540501D02*
X1111535Y540501D01*
X1111535Y541883D02*
X1115685Y541883D01*
X1115685Y543265D02*
X1111535Y543265D01*
X1111535Y544647D02*
X1115685Y544647D01*
X1115685Y546029D02*
X1111535Y546029D01*
X1111535Y547411D02*
X1115685Y547411D01*
X1116535Y547995D02*
X1116535Y529445D01*
X1116535Y547995D02*
X1120685Y547995D01*
X1120685Y529445D01*
X1116535Y529445D01*
X1116535Y530827D02*
X1120685Y530827D01*
X1120685Y532209D02*
X1116535Y532209D01*
X1116535Y533591D02*
X1120685Y533591D01*
X1120685Y534973D02*
X1116535Y534973D01*
X1116535Y536355D02*
X1120685Y536355D01*
X1120685Y537737D02*
X1116535Y537737D01*
X1116535Y539119D02*
X1120685Y539119D01*
X1120685Y540501D02*
X1116535Y540501D01*
X1116535Y541883D02*
X1120685Y541883D01*
X1120685Y543265D02*
X1116535Y543265D01*
X1116535Y544647D02*
X1120685Y544647D01*
X1120685Y546029D02*
X1116535Y546029D01*
X1116535Y547411D02*
X1120685Y547411D01*
X1121535Y547995D02*
X1121535Y529445D01*
X1121535Y547995D02*
X1125685Y547995D01*
X1125685Y529445D01*
X1121535Y529445D01*
X1121535Y530827D02*
X1125685Y530827D01*
X1125685Y532209D02*
X1121535Y532209D01*
X1121535Y533591D02*
X1125685Y533591D01*
X1125685Y534973D02*
X1121535Y534973D01*
X1121535Y536355D02*
X1125685Y536355D01*
X1125685Y537737D02*
X1121535Y537737D01*
X1121535Y539119D02*
X1125685Y539119D01*
X1125685Y540501D02*
X1121535Y540501D01*
X1121535Y541883D02*
X1125685Y541883D01*
X1125685Y543265D02*
X1121535Y543265D01*
X1121535Y544647D02*
X1125685Y544647D01*
X1125685Y546029D02*
X1121535Y546029D01*
X1121535Y547411D02*
X1125685Y547411D01*
X1126535Y547995D02*
X1126535Y529445D01*
X1126535Y547995D02*
X1130685Y547995D01*
X1130685Y529445D01*
X1126535Y529445D01*
X1126535Y530827D02*
X1130685Y530827D01*
X1130685Y532209D02*
X1126535Y532209D01*
X1126535Y533591D02*
X1130685Y533591D01*
X1130685Y534973D02*
X1126535Y534973D01*
X1126535Y536355D02*
X1130685Y536355D01*
X1130685Y537737D02*
X1126535Y537737D01*
X1126535Y539119D02*
X1130685Y539119D01*
X1130685Y540501D02*
X1126535Y540501D01*
X1126535Y541883D02*
X1130685Y541883D01*
X1130685Y543265D02*
X1126535Y543265D01*
X1126535Y544647D02*
X1130685Y544647D01*
X1130685Y546029D02*
X1126535Y546029D01*
X1126535Y547411D02*
X1130685Y547411D01*
X1131535Y547995D02*
X1131535Y529445D01*
X1131535Y547995D02*
X1135685Y547995D01*
X1135685Y529445D01*
X1131535Y529445D01*
X1131535Y530827D02*
X1135685Y530827D01*
X1135685Y532209D02*
X1131535Y532209D01*
X1131535Y533591D02*
X1135685Y533591D01*
X1135685Y534973D02*
X1131535Y534973D01*
X1131535Y536355D02*
X1135685Y536355D01*
X1135685Y537737D02*
X1131535Y537737D01*
X1131535Y539119D02*
X1135685Y539119D01*
X1135685Y540501D02*
X1131535Y540501D01*
X1131535Y541883D02*
X1135685Y541883D01*
X1135685Y543265D02*
X1131535Y543265D01*
X1131535Y544647D02*
X1135685Y544647D01*
X1135685Y546029D02*
X1131535Y546029D01*
X1131535Y547411D02*
X1135685Y547411D01*
X1136535Y547995D02*
X1136535Y529445D01*
X1136535Y547995D02*
X1140685Y547995D01*
X1140685Y529445D01*
X1136535Y529445D01*
X1136535Y530827D02*
X1140685Y530827D01*
X1140685Y532209D02*
X1136535Y532209D01*
X1136535Y533591D02*
X1140685Y533591D01*
X1140685Y534973D02*
X1136535Y534973D01*
X1136535Y536355D02*
X1140685Y536355D01*
X1140685Y537737D02*
X1136535Y537737D01*
X1136535Y539119D02*
X1140685Y539119D01*
X1140685Y540501D02*
X1136535Y540501D01*
X1136535Y541883D02*
X1140685Y541883D01*
X1140685Y543265D02*
X1136535Y543265D01*
X1136535Y544647D02*
X1140685Y544647D01*
X1140685Y546029D02*
X1136535Y546029D01*
X1136535Y547411D02*
X1140685Y547411D01*
X1141535Y547995D02*
X1141535Y529445D01*
X1141535Y547995D02*
X1145685Y547995D01*
X1145685Y529445D01*
X1141535Y529445D01*
X1141535Y530827D02*
X1145685Y530827D01*
X1145685Y532209D02*
X1141535Y532209D01*
X1141535Y533591D02*
X1145685Y533591D01*
X1145685Y534973D02*
X1141535Y534973D01*
X1141535Y536355D02*
X1145685Y536355D01*
X1145685Y537737D02*
X1141535Y537737D01*
X1141535Y539119D02*
X1145685Y539119D01*
X1145685Y540501D02*
X1141535Y540501D01*
X1141535Y541883D02*
X1145685Y541883D01*
X1145685Y543265D02*
X1141535Y543265D01*
X1141535Y544647D02*
X1145685Y544647D01*
X1145685Y546029D02*
X1141535Y546029D01*
X1141535Y547411D02*
X1145685Y547411D01*
X1146535Y547995D02*
X1146535Y529445D01*
X1146535Y547995D02*
X1150685Y547995D01*
X1150685Y529445D01*
X1146535Y529445D01*
X1146535Y530827D02*
X1150685Y530827D01*
X1150685Y532209D02*
X1146535Y532209D01*
X1146535Y533591D02*
X1150685Y533591D01*
X1150685Y534973D02*
X1146535Y534973D01*
X1146535Y536355D02*
X1150685Y536355D01*
X1150685Y537737D02*
X1146535Y537737D01*
X1146535Y539119D02*
X1150685Y539119D01*
X1150685Y540501D02*
X1146535Y540501D01*
X1146535Y541883D02*
X1150685Y541883D01*
X1150685Y543265D02*
X1146535Y543265D01*
X1146535Y544647D02*
X1150685Y544647D01*
X1150685Y546029D02*
X1146535Y546029D01*
X1146535Y547411D02*
X1150685Y547411D01*
X1151535Y547995D02*
X1151535Y529445D01*
X1151535Y547995D02*
X1155685Y547995D01*
X1155685Y529445D01*
X1151535Y529445D01*
X1151535Y530827D02*
X1155685Y530827D01*
X1155685Y532209D02*
X1151535Y532209D01*
X1151535Y533591D02*
X1155685Y533591D01*
X1155685Y534973D02*
X1151535Y534973D01*
X1151535Y536355D02*
X1155685Y536355D01*
X1155685Y537737D02*
X1151535Y537737D01*
X1151535Y539119D02*
X1155685Y539119D01*
X1155685Y540501D02*
X1151535Y540501D01*
X1151535Y541883D02*
X1155685Y541883D01*
X1155685Y543265D02*
X1151535Y543265D01*
X1151535Y544647D02*
X1155685Y544647D01*
X1155685Y546029D02*
X1151535Y546029D01*
X1151535Y547411D02*
X1155685Y547411D01*
X1156535Y547995D02*
X1156535Y529445D01*
X1156535Y547995D02*
X1160685Y547995D01*
X1160685Y529445D01*
X1156535Y529445D01*
X1156535Y530827D02*
X1160685Y530827D01*
X1160685Y532209D02*
X1156535Y532209D01*
X1156535Y533591D02*
X1160685Y533591D01*
X1160685Y534973D02*
X1156535Y534973D01*
X1156535Y536355D02*
X1160685Y536355D01*
X1160685Y537737D02*
X1156535Y537737D01*
X1156535Y539119D02*
X1160685Y539119D01*
X1160685Y540501D02*
X1156535Y540501D01*
X1156535Y541883D02*
X1160685Y541883D01*
X1160685Y543265D02*
X1156535Y543265D01*
X1156535Y544647D02*
X1160685Y544647D01*
X1160685Y546029D02*
X1156535Y546029D01*
X1156535Y547411D02*
X1160685Y547411D01*
X1161535Y547995D02*
X1161535Y529445D01*
X1161535Y547995D02*
X1165685Y547995D01*
X1165685Y529445D01*
X1161535Y529445D01*
X1161535Y530827D02*
X1165685Y530827D01*
X1165685Y532209D02*
X1161535Y532209D01*
X1161535Y533591D02*
X1165685Y533591D01*
X1165685Y534973D02*
X1161535Y534973D01*
X1161535Y536355D02*
X1165685Y536355D01*
X1165685Y537737D02*
X1161535Y537737D01*
X1161535Y539119D02*
X1165685Y539119D01*
X1165685Y540501D02*
X1161535Y540501D01*
X1161535Y541883D02*
X1165685Y541883D01*
X1165685Y543265D02*
X1161535Y543265D01*
X1161535Y544647D02*
X1165685Y544647D01*
X1165685Y546029D02*
X1161535Y546029D01*
X1161535Y547411D02*
X1165685Y547411D01*
X1166535Y547995D02*
X1166535Y529445D01*
X1166535Y547995D02*
X1170685Y547995D01*
X1170685Y529445D01*
X1166535Y529445D01*
X1166535Y530827D02*
X1170685Y530827D01*
X1170685Y532209D02*
X1166535Y532209D01*
X1166535Y533591D02*
X1170685Y533591D01*
X1170685Y534973D02*
X1166535Y534973D01*
X1166535Y536355D02*
X1170685Y536355D01*
X1170685Y537737D02*
X1166535Y537737D01*
X1166535Y539119D02*
X1170685Y539119D01*
X1170685Y540501D02*
X1166535Y540501D01*
X1166535Y541883D02*
X1170685Y541883D01*
X1170685Y543265D02*
X1166535Y543265D01*
X1166535Y544647D02*
X1170685Y544647D01*
X1170685Y546029D02*
X1166535Y546029D01*
X1166535Y547411D02*
X1170685Y547411D01*
X1171535Y547995D02*
X1171535Y529445D01*
X1171535Y547995D02*
X1175685Y547995D01*
X1175685Y529445D01*
X1171535Y529445D01*
X1171535Y530827D02*
X1175685Y530827D01*
X1175685Y532209D02*
X1171535Y532209D01*
X1171535Y533591D02*
X1175685Y533591D01*
X1175685Y534973D02*
X1171535Y534973D01*
X1171535Y536355D02*
X1175685Y536355D01*
X1175685Y537737D02*
X1171535Y537737D01*
X1171535Y539119D02*
X1175685Y539119D01*
X1175685Y540501D02*
X1171535Y540501D01*
X1171535Y541883D02*
X1175685Y541883D01*
X1175685Y543265D02*
X1171535Y543265D01*
X1171535Y544647D02*
X1175685Y544647D01*
X1175685Y546029D02*
X1171535Y546029D01*
X1171535Y547411D02*
X1175685Y547411D01*
D31*
X1123872Y561108D02*
X1123872Y610632D01*
X1123872Y561108D02*
X1092348Y561108D01*
X1092348Y610632D01*
X1123872Y610632D01*
X1123872Y571615D02*
X1092348Y571615D01*
X1092348Y582122D02*
X1123872Y582122D01*
X1123872Y592629D02*
X1092348Y592629D01*
X1092348Y603136D02*
X1123872Y603136D01*
D32*
X1171622Y612382D02*
X1171622Y591358D01*
X1136598Y591358D01*
X1136598Y612382D01*
X1171622Y612382D01*
X1171622Y598365D02*
X1136598Y598365D01*
X1136598Y605372D02*
X1171622Y605372D01*
X1171622Y612379D02*
X1136598Y612379D01*
X1171622Y580382D02*
X1171622Y559358D01*
X1136598Y559358D01*
X1136598Y580382D01*
X1171622Y580382D01*
X1171622Y566365D02*
X1136598Y566365D01*
X1136598Y573372D02*
X1171622Y573372D01*
X1171622Y580379D02*
X1136598Y580379D01*
D33*
X790710Y485190D03*
D34*
X826270Y485190D03*
D35*
X970890Y381650D03*
D34*
X970890Y346090D03*
D35*
X971630Y285340D03*
D34*
X971630Y249780D03*
D35*
X970760Y479190D03*
D34*
X970760Y443630D03*
D30*
X953625Y628675D02*
X953625Y647225D01*
X957775Y647225D01*
X957775Y628675D01*
X953625Y628675D01*
X953625Y630057D02*
X957775Y630057D01*
X957775Y631439D02*
X953625Y631439D01*
X953625Y632821D02*
X957775Y632821D01*
X957775Y634203D02*
X953625Y634203D01*
X953625Y635585D02*
X957775Y635585D01*
X957775Y636967D02*
X953625Y636967D01*
X953625Y638349D02*
X957775Y638349D01*
X957775Y639731D02*
X953625Y639731D01*
X953625Y641113D02*
X957775Y641113D01*
X957775Y642495D02*
X953625Y642495D01*
X953625Y643877D02*
X957775Y643877D01*
X957775Y645259D02*
X953625Y645259D01*
X953625Y646641D02*
X957775Y646641D01*
X948625Y647225D02*
X948625Y628675D01*
X948625Y647225D02*
X952775Y647225D01*
X952775Y628675D01*
X948625Y628675D01*
X948625Y630057D02*
X952775Y630057D01*
X952775Y631439D02*
X948625Y631439D01*
X948625Y632821D02*
X952775Y632821D01*
X952775Y634203D02*
X948625Y634203D01*
X948625Y635585D02*
X952775Y635585D01*
X952775Y636967D02*
X948625Y636967D01*
X948625Y638349D02*
X952775Y638349D01*
X952775Y639731D02*
X948625Y639731D01*
X948625Y641113D02*
X952775Y641113D01*
X952775Y642495D02*
X948625Y642495D01*
X948625Y643877D02*
X952775Y643877D01*
X952775Y645259D02*
X948625Y645259D01*
X948625Y646641D02*
X952775Y646641D01*
X943625Y647225D02*
X943625Y628675D01*
X943625Y647225D02*
X947775Y647225D01*
X947775Y628675D01*
X943625Y628675D01*
X943625Y630057D02*
X947775Y630057D01*
X947775Y631439D02*
X943625Y631439D01*
X943625Y632821D02*
X947775Y632821D01*
X947775Y634203D02*
X943625Y634203D01*
X943625Y635585D02*
X947775Y635585D01*
X947775Y636967D02*
X943625Y636967D01*
X943625Y638349D02*
X947775Y638349D01*
X947775Y639731D02*
X943625Y639731D01*
X943625Y641113D02*
X947775Y641113D01*
X947775Y642495D02*
X943625Y642495D01*
X943625Y643877D02*
X947775Y643877D01*
X947775Y645259D02*
X943625Y645259D01*
X943625Y646641D02*
X947775Y646641D01*
X938625Y647225D02*
X938625Y628675D01*
X938625Y647225D02*
X942775Y647225D01*
X942775Y628675D01*
X938625Y628675D01*
X938625Y630057D02*
X942775Y630057D01*
X942775Y631439D02*
X938625Y631439D01*
X938625Y632821D02*
X942775Y632821D01*
X942775Y634203D02*
X938625Y634203D01*
X938625Y635585D02*
X942775Y635585D01*
X942775Y636967D02*
X938625Y636967D01*
X938625Y638349D02*
X942775Y638349D01*
X942775Y639731D02*
X938625Y639731D01*
X938625Y641113D02*
X942775Y641113D01*
X942775Y642495D02*
X938625Y642495D01*
X938625Y643877D02*
X942775Y643877D01*
X942775Y645259D02*
X938625Y645259D01*
X938625Y646641D02*
X942775Y646641D01*
X933625Y647225D02*
X933625Y628675D01*
X933625Y647225D02*
X937775Y647225D01*
X937775Y628675D01*
X933625Y628675D01*
X933625Y630057D02*
X937775Y630057D01*
X937775Y631439D02*
X933625Y631439D01*
X933625Y632821D02*
X937775Y632821D01*
X937775Y634203D02*
X933625Y634203D01*
X933625Y635585D02*
X937775Y635585D01*
X937775Y636967D02*
X933625Y636967D01*
X933625Y638349D02*
X937775Y638349D01*
X937775Y639731D02*
X933625Y639731D01*
X933625Y641113D02*
X937775Y641113D01*
X937775Y642495D02*
X933625Y642495D01*
X933625Y643877D02*
X937775Y643877D01*
X937775Y645259D02*
X933625Y645259D01*
X933625Y646641D02*
X937775Y646641D01*
X928625Y647225D02*
X928625Y628675D01*
X928625Y647225D02*
X932775Y647225D01*
X932775Y628675D01*
X928625Y628675D01*
X928625Y630057D02*
X932775Y630057D01*
X932775Y631439D02*
X928625Y631439D01*
X928625Y632821D02*
X932775Y632821D01*
X932775Y634203D02*
X928625Y634203D01*
X928625Y635585D02*
X932775Y635585D01*
X932775Y636967D02*
X928625Y636967D01*
X928625Y638349D02*
X932775Y638349D01*
X932775Y639731D02*
X928625Y639731D01*
X928625Y641113D02*
X932775Y641113D01*
X932775Y642495D02*
X928625Y642495D01*
X928625Y643877D02*
X932775Y643877D01*
X932775Y645259D02*
X928625Y645259D01*
X928625Y646641D02*
X932775Y646641D01*
X923625Y647225D02*
X923625Y628675D01*
X923625Y647225D02*
X927775Y647225D01*
X927775Y628675D01*
X923625Y628675D01*
X923625Y630057D02*
X927775Y630057D01*
X927775Y631439D02*
X923625Y631439D01*
X923625Y632821D02*
X927775Y632821D01*
X927775Y634203D02*
X923625Y634203D01*
X923625Y635585D02*
X927775Y635585D01*
X927775Y636967D02*
X923625Y636967D01*
X923625Y638349D02*
X927775Y638349D01*
X927775Y639731D02*
X923625Y639731D01*
X923625Y641113D02*
X927775Y641113D01*
X927775Y642495D02*
X923625Y642495D01*
X923625Y643877D02*
X927775Y643877D01*
X927775Y645259D02*
X923625Y645259D01*
X923625Y646641D02*
X927775Y646641D01*
X918625Y647225D02*
X918625Y628675D01*
X918625Y647225D02*
X922775Y647225D01*
X922775Y628675D01*
X918625Y628675D01*
X918625Y630057D02*
X922775Y630057D01*
X922775Y631439D02*
X918625Y631439D01*
X918625Y632821D02*
X922775Y632821D01*
X922775Y634203D02*
X918625Y634203D01*
X918625Y635585D02*
X922775Y635585D01*
X922775Y636967D02*
X918625Y636967D01*
X918625Y638349D02*
X922775Y638349D01*
X922775Y639731D02*
X918625Y639731D01*
X918625Y641113D02*
X922775Y641113D01*
X922775Y642495D02*
X918625Y642495D01*
X918625Y643877D02*
X922775Y643877D01*
X922775Y645259D02*
X918625Y645259D01*
X918625Y646641D02*
X922775Y646641D01*
X913625Y647225D02*
X913625Y628675D01*
X913625Y647225D02*
X917775Y647225D01*
X917775Y628675D01*
X913625Y628675D01*
X913625Y630057D02*
X917775Y630057D01*
X917775Y631439D02*
X913625Y631439D01*
X913625Y632821D02*
X917775Y632821D01*
X917775Y634203D02*
X913625Y634203D01*
X913625Y635585D02*
X917775Y635585D01*
X917775Y636967D02*
X913625Y636967D01*
X913625Y638349D02*
X917775Y638349D01*
X917775Y639731D02*
X913625Y639731D01*
X913625Y641113D02*
X917775Y641113D01*
X917775Y642495D02*
X913625Y642495D01*
X913625Y643877D02*
X917775Y643877D01*
X917775Y645259D02*
X913625Y645259D01*
X913625Y646641D02*
X917775Y646641D01*
X908625Y647225D02*
X908625Y628675D01*
X908625Y647225D02*
X912775Y647225D01*
X912775Y628675D01*
X908625Y628675D01*
X908625Y630057D02*
X912775Y630057D01*
X912775Y631439D02*
X908625Y631439D01*
X908625Y632821D02*
X912775Y632821D01*
X912775Y634203D02*
X908625Y634203D01*
X908625Y635585D02*
X912775Y635585D01*
X912775Y636967D02*
X908625Y636967D01*
X908625Y638349D02*
X912775Y638349D01*
X912775Y639731D02*
X908625Y639731D01*
X908625Y641113D02*
X912775Y641113D01*
X912775Y642495D02*
X908625Y642495D01*
X908625Y643877D02*
X912775Y643877D01*
X912775Y645259D02*
X908625Y645259D01*
X908625Y646641D02*
X912775Y646641D01*
X903625Y647225D02*
X903625Y628675D01*
X903625Y647225D02*
X907775Y647225D01*
X907775Y628675D01*
X903625Y628675D01*
X903625Y630057D02*
X907775Y630057D01*
X907775Y631439D02*
X903625Y631439D01*
X903625Y632821D02*
X907775Y632821D01*
X907775Y634203D02*
X903625Y634203D01*
X903625Y635585D02*
X907775Y635585D01*
X907775Y636967D02*
X903625Y636967D01*
X903625Y638349D02*
X907775Y638349D01*
X907775Y639731D02*
X903625Y639731D01*
X903625Y641113D02*
X907775Y641113D01*
X907775Y642495D02*
X903625Y642495D01*
X903625Y643877D02*
X907775Y643877D01*
X907775Y645259D02*
X903625Y645259D01*
X903625Y646641D02*
X907775Y646641D01*
X898625Y647225D02*
X898625Y628675D01*
X898625Y647225D02*
X902775Y647225D01*
X902775Y628675D01*
X898625Y628675D01*
X898625Y630057D02*
X902775Y630057D01*
X902775Y631439D02*
X898625Y631439D01*
X898625Y632821D02*
X902775Y632821D01*
X902775Y634203D02*
X898625Y634203D01*
X898625Y635585D02*
X902775Y635585D01*
X902775Y636967D02*
X898625Y636967D01*
X898625Y638349D02*
X902775Y638349D01*
X902775Y639731D02*
X898625Y639731D01*
X898625Y641113D02*
X902775Y641113D01*
X902775Y642495D02*
X898625Y642495D01*
X898625Y643877D02*
X902775Y643877D01*
X902775Y645259D02*
X898625Y645259D01*
X898625Y646641D02*
X902775Y646641D01*
X893625Y647225D02*
X893625Y628675D01*
X893625Y647225D02*
X897775Y647225D01*
X897775Y628675D01*
X893625Y628675D01*
X893625Y630057D02*
X897775Y630057D01*
X897775Y631439D02*
X893625Y631439D01*
X893625Y632821D02*
X897775Y632821D01*
X897775Y634203D02*
X893625Y634203D01*
X893625Y635585D02*
X897775Y635585D01*
X897775Y636967D02*
X893625Y636967D01*
X893625Y638349D02*
X897775Y638349D01*
X897775Y639731D02*
X893625Y639731D01*
X893625Y641113D02*
X897775Y641113D01*
X897775Y642495D02*
X893625Y642495D01*
X893625Y643877D02*
X897775Y643877D01*
X897775Y645259D02*
X893625Y645259D01*
X893625Y646641D02*
X897775Y646641D01*
X888625Y647225D02*
X888625Y628675D01*
X888625Y647225D02*
X892775Y647225D01*
X892775Y628675D01*
X888625Y628675D01*
X888625Y630057D02*
X892775Y630057D01*
X892775Y631439D02*
X888625Y631439D01*
X888625Y632821D02*
X892775Y632821D01*
X892775Y634203D02*
X888625Y634203D01*
X888625Y635585D02*
X892775Y635585D01*
X892775Y636967D02*
X888625Y636967D01*
X888625Y638349D02*
X892775Y638349D01*
X892775Y639731D02*
X888625Y639731D01*
X888625Y641113D02*
X892775Y641113D01*
X892775Y642495D02*
X888625Y642495D01*
X888625Y643877D02*
X892775Y643877D01*
X892775Y645259D02*
X888625Y645259D01*
X888625Y646641D02*
X892775Y646641D01*
X883625Y647225D02*
X883625Y628675D01*
X883625Y647225D02*
X887775Y647225D01*
X887775Y628675D01*
X883625Y628675D01*
X883625Y630057D02*
X887775Y630057D01*
X887775Y631439D02*
X883625Y631439D01*
X883625Y632821D02*
X887775Y632821D01*
X887775Y634203D02*
X883625Y634203D01*
X883625Y635585D02*
X887775Y635585D01*
X887775Y636967D02*
X883625Y636967D01*
X883625Y638349D02*
X887775Y638349D01*
X887775Y639731D02*
X883625Y639731D01*
X883625Y641113D02*
X887775Y641113D01*
X887775Y642495D02*
X883625Y642495D01*
X883625Y643877D02*
X887775Y643877D01*
X887775Y645259D02*
X883625Y645259D01*
X883625Y646641D02*
X887775Y646641D01*
X878625Y647225D02*
X878625Y628675D01*
X878625Y647225D02*
X882775Y647225D01*
X882775Y628675D01*
X878625Y628675D01*
X878625Y630057D02*
X882775Y630057D01*
X882775Y631439D02*
X878625Y631439D01*
X878625Y632821D02*
X882775Y632821D01*
X882775Y634203D02*
X878625Y634203D01*
X878625Y635585D02*
X882775Y635585D01*
X882775Y636967D02*
X878625Y636967D01*
X878625Y638349D02*
X882775Y638349D01*
X882775Y639731D02*
X878625Y639731D01*
X878625Y641113D02*
X882775Y641113D01*
X882775Y642495D02*
X878625Y642495D01*
X878625Y643877D02*
X882775Y643877D01*
X882775Y645259D02*
X878625Y645259D01*
X878625Y646641D02*
X882775Y646641D01*
X873625Y647225D02*
X873625Y628675D01*
X873625Y647225D02*
X877775Y647225D01*
X877775Y628675D01*
X873625Y628675D01*
X873625Y630057D02*
X877775Y630057D01*
X877775Y631439D02*
X873625Y631439D01*
X873625Y632821D02*
X877775Y632821D01*
X877775Y634203D02*
X873625Y634203D01*
X873625Y635585D02*
X877775Y635585D01*
X877775Y636967D02*
X873625Y636967D01*
X873625Y638349D02*
X877775Y638349D01*
X877775Y639731D02*
X873625Y639731D01*
X873625Y641113D02*
X877775Y641113D01*
X877775Y642495D02*
X873625Y642495D01*
X873625Y643877D02*
X877775Y643877D01*
X877775Y645259D02*
X873625Y645259D01*
X873625Y646641D02*
X877775Y646641D01*
X868625Y647225D02*
X868625Y628675D01*
X868625Y647225D02*
X872775Y647225D01*
X872775Y628675D01*
X868625Y628675D01*
X868625Y630057D02*
X872775Y630057D01*
X872775Y631439D02*
X868625Y631439D01*
X868625Y632821D02*
X872775Y632821D01*
X872775Y634203D02*
X868625Y634203D01*
X868625Y635585D02*
X872775Y635585D01*
X872775Y636967D02*
X868625Y636967D01*
X868625Y638349D02*
X872775Y638349D01*
X872775Y639731D02*
X868625Y639731D01*
X868625Y641113D02*
X872775Y641113D01*
X872775Y642495D02*
X868625Y642495D01*
X868625Y643877D02*
X872775Y643877D01*
X872775Y645259D02*
X868625Y645259D01*
X868625Y646641D02*
X872775Y646641D01*
X868625Y552925D02*
X868625Y534375D01*
X868625Y552925D02*
X872775Y552925D01*
X872775Y534375D01*
X868625Y534375D01*
X868625Y535757D02*
X872775Y535757D01*
X872775Y537139D02*
X868625Y537139D01*
X868625Y538521D02*
X872775Y538521D01*
X872775Y539903D02*
X868625Y539903D01*
X868625Y541285D02*
X872775Y541285D01*
X872775Y542667D02*
X868625Y542667D01*
X868625Y544049D02*
X872775Y544049D01*
X872775Y545431D02*
X868625Y545431D01*
X868625Y546813D02*
X872775Y546813D01*
X872775Y548195D02*
X868625Y548195D01*
X868625Y549577D02*
X872775Y549577D01*
X872775Y550959D02*
X868625Y550959D01*
X868625Y552341D02*
X872775Y552341D01*
X873625Y552925D02*
X873625Y534375D01*
X873625Y552925D02*
X877775Y552925D01*
X877775Y534375D01*
X873625Y534375D01*
X873625Y535757D02*
X877775Y535757D01*
X877775Y537139D02*
X873625Y537139D01*
X873625Y538521D02*
X877775Y538521D01*
X877775Y539903D02*
X873625Y539903D01*
X873625Y541285D02*
X877775Y541285D01*
X877775Y542667D02*
X873625Y542667D01*
X873625Y544049D02*
X877775Y544049D01*
X877775Y545431D02*
X873625Y545431D01*
X873625Y546813D02*
X877775Y546813D01*
X877775Y548195D02*
X873625Y548195D01*
X873625Y549577D02*
X877775Y549577D01*
X877775Y550959D02*
X873625Y550959D01*
X873625Y552341D02*
X877775Y552341D01*
X878625Y552925D02*
X878625Y534375D01*
X878625Y552925D02*
X882775Y552925D01*
X882775Y534375D01*
X878625Y534375D01*
X878625Y535757D02*
X882775Y535757D01*
X882775Y537139D02*
X878625Y537139D01*
X878625Y538521D02*
X882775Y538521D01*
X882775Y539903D02*
X878625Y539903D01*
X878625Y541285D02*
X882775Y541285D01*
X882775Y542667D02*
X878625Y542667D01*
X878625Y544049D02*
X882775Y544049D01*
X882775Y545431D02*
X878625Y545431D01*
X878625Y546813D02*
X882775Y546813D01*
X882775Y548195D02*
X878625Y548195D01*
X878625Y549577D02*
X882775Y549577D01*
X882775Y550959D02*
X878625Y550959D01*
X878625Y552341D02*
X882775Y552341D01*
X883625Y552925D02*
X883625Y534375D01*
X883625Y552925D02*
X887775Y552925D01*
X887775Y534375D01*
X883625Y534375D01*
X883625Y535757D02*
X887775Y535757D01*
X887775Y537139D02*
X883625Y537139D01*
X883625Y538521D02*
X887775Y538521D01*
X887775Y539903D02*
X883625Y539903D01*
X883625Y541285D02*
X887775Y541285D01*
X887775Y542667D02*
X883625Y542667D01*
X883625Y544049D02*
X887775Y544049D01*
X887775Y545431D02*
X883625Y545431D01*
X883625Y546813D02*
X887775Y546813D01*
X887775Y548195D02*
X883625Y548195D01*
X883625Y549577D02*
X887775Y549577D01*
X887775Y550959D02*
X883625Y550959D01*
X883625Y552341D02*
X887775Y552341D01*
X888625Y552925D02*
X888625Y534375D01*
X888625Y552925D02*
X892775Y552925D01*
X892775Y534375D01*
X888625Y534375D01*
X888625Y535757D02*
X892775Y535757D01*
X892775Y537139D02*
X888625Y537139D01*
X888625Y538521D02*
X892775Y538521D01*
X892775Y539903D02*
X888625Y539903D01*
X888625Y541285D02*
X892775Y541285D01*
X892775Y542667D02*
X888625Y542667D01*
X888625Y544049D02*
X892775Y544049D01*
X892775Y545431D02*
X888625Y545431D01*
X888625Y546813D02*
X892775Y546813D01*
X892775Y548195D02*
X888625Y548195D01*
X888625Y549577D02*
X892775Y549577D01*
X892775Y550959D02*
X888625Y550959D01*
X888625Y552341D02*
X892775Y552341D01*
X893625Y552925D02*
X893625Y534375D01*
X893625Y552925D02*
X897775Y552925D01*
X897775Y534375D01*
X893625Y534375D01*
X893625Y535757D02*
X897775Y535757D01*
X897775Y537139D02*
X893625Y537139D01*
X893625Y538521D02*
X897775Y538521D01*
X897775Y539903D02*
X893625Y539903D01*
X893625Y541285D02*
X897775Y541285D01*
X897775Y542667D02*
X893625Y542667D01*
X893625Y544049D02*
X897775Y544049D01*
X897775Y545431D02*
X893625Y545431D01*
X893625Y546813D02*
X897775Y546813D01*
X897775Y548195D02*
X893625Y548195D01*
X893625Y549577D02*
X897775Y549577D01*
X897775Y550959D02*
X893625Y550959D01*
X893625Y552341D02*
X897775Y552341D01*
X898625Y552925D02*
X898625Y534375D01*
X898625Y552925D02*
X902775Y552925D01*
X902775Y534375D01*
X898625Y534375D01*
X898625Y535757D02*
X902775Y535757D01*
X902775Y537139D02*
X898625Y537139D01*
X898625Y538521D02*
X902775Y538521D01*
X902775Y539903D02*
X898625Y539903D01*
X898625Y541285D02*
X902775Y541285D01*
X902775Y542667D02*
X898625Y542667D01*
X898625Y544049D02*
X902775Y544049D01*
X902775Y545431D02*
X898625Y545431D01*
X898625Y546813D02*
X902775Y546813D01*
X902775Y548195D02*
X898625Y548195D01*
X898625Y549577D02*
X902775Y549577D01*
X902775Y550959D02*
X898625Y550959D01*
X898625Y552341D02*
X902775Y552341D01*
X903625Y552925D02*
X903625Y534375D01*
X903625Y552925D02*
X907775Y552925D01*
X907775Y534375D01*
X903625Y534375D01*
X903625Y535757D02*
X907775Y535757D01*
X907775Y537139D02*
X903625Y537139D01*
X903625Y538521D02*
X907775Y538521D01*
X907775Y539903D02*
X903625Y539903D01*
X903625Y541285D02*
X907775Y541285D01*
X907775Y542667D02*
X903625Y542667D01*
X903625Y544049D02*
X907775Y544049D01*
X907775Y545431D02*
X903625Y545431D01*
X903625Y546813D02*
X907775Y546813D01*
X907775Y548195D02*
X903625Y548195D01*
X903625Y549577D02*
X907775Y549577D01*
X907775Y550959D02*
X903625Y550959D01*
X903625Y552341D02*
X907775Y552341D01*
X908625Y552925D02*
X908625Y534375D01*
X908625Y552925D02*
X912775Y552925D01*
X912775Y534375D01*
X908625Y534375D01*
X908625Y535757D02*
X912775Y535757D01*
X912775Y537139D02*
X908625Y537139D01*
X908625Y538521D02*
X912775Y538521D01*
X912775Y539903D02*
X908625Y539903D01*
X908625Y541285D02*
X912775Y541285D01*
X912775Y542667D02*
X908625Y542667D01*
X908625Y544049D02*
X912775Y544049D01*
X912775Y545431D02*
X908625Y545431D01*
X908625Y546813D02*
X912775Y546813D01*
X912775Y548195D02*
X908625Y548195D01*
X908625Y549577D02*
X912775Y549577D01*
X912775Y550959D02*
X908625Y550959D01*
X908625Y552341D02*
X912775Y552341D01*
X913625Y552925D02*
X913625Y534375D01*
X913625Y552925D02*
X917775Y552925D01*
X917775Y534375D01*
X913625Y534375D01*
X913625Y535757D02*
X917775Y535757D01*
X917775Y537139D02*
X913625Y537139D01*
X913625Y538521D02*
X917775Y538521D01*
X917775Y539903D02*
X913625Y539903D01*
X913625Y541285D02*
X917775Y541285D01*
X917775Y542667D02*
X913625Y542667D01*
X913625Y544049D02*
X917775Y544049D01*
X917775Y545431D02*
X913625Y545431D01*
X913625Y546813D02*
X917775Y546813D01*
X917775Y548195D02*
X913625Y548195D01*
X913625Y549577D02*
X917775Y549577D01*
X917775Y550959D02*
X913625Y550959D01*
X913625Y552341D02*
X917775Y552341D01*
X918625Y552925D02*
X918625Y534375D01*
X918625Y552925D02*
X922775Y552925D01*
X922775Y534375D01*
X918625Y534375D01*
X918625Y535757D02*
X922775Y535757D01*
X922775Y537139D02*
X918625Y537139D01*
X918625Y538521D02*
X922775Y538521D01*
X922775Y539903D02*
X918625Y539903D01*
X918625Y541285D02*
X922775Y541285D01*
X922775Y542667D02*
X918625Y542667D01*
X918625Y544049D02*
X922775Y544049D01*
X922775Y545431D02*
X918625Y545431D01*
X918625Y546813D02*
X922775Y546813D01*
X922775Y548195D02*
X918625Y548195D01*
X918625Y549577D02*
X922775Y549577D01*
X922775Y550959D02*
X918625Y550959D01*
X918625Y552341D02*
X922775Y552341D01*
X923625Y552925D02*
X923625Y534375D01*
X923625Y552925D02*
X927775Y552925D01*
X927775Y534375D01*
X923625Y534375D01*
X923625Y535757D02*
X927775Y535757D01*
X927775Y537139D02*
X923625Y537139D01*
X923625Y538521D02*
X927775Y538521D01*
X927775Y539903D02*
X923625Y539903D01*
X923625Y541285D02*
X927775Y541285D01*
X927775Y542667D02*
X923625Y542667D01*
X923625Y544049D02*
X927775Y544049D01*
X927775Y545431D02*
X923625Y545431D01*
X923625Y546813D02*
X927775Y546813D01*
X927775Y548195D02*
X923625Y548195D01*
X923625Y549577D02*
X927775Y549577D01*
X927775Y550959D02*
X923625Y550959D01*
X923625Y552341D02*
X927775Y552341D01*
X928625Y552925D02*
X928625Y534375D01*
X928625Y552925D02*
X932775Y552925D01*
X932775Y534375D01*
X928625Y534375D01*
X928625Y535757D02*
X932775Y535757D01*
X932775Y537139D02*
X928625Y537139D01*
X928625Y538521D02*
X932775Y538521D01*
X932775Y539903D02*
X928625Y539903D01*
X928625Y541285D02*
X932775Y541285D01*
X932775Y542667D02*
X928625Y542667D01*
X928625Y544049D02*
X932775Y544049D01*
X932775Y545431D02*
X928625Y545431D01*
X928625Y546813D02*
X932775Y546813D01*
X932775Y548195D02*
X928625Y548195D01*
X928625Y549577D02*
X932775Y549577D01*
X932775Y550959D02*
X928625Y550959D01*
X928625Y552341D02*
X932775Y552341D01*
X933625Y552925D02*
X933625Y534375D01*
X933625Y552925D02*
X937775Y552925D01*
X937775Y534375D01*
X933625Y534375D01*
X933625Y535757D02*
X937775Y535757D01*
X937775Y537139D02*
X933625Y537139D01*
X933625Y538521D02*
X937775Y538521D01*
X937775Y539903D02*
X933625Y539903D01*
X933625Y541285D02*
X937775Y541285D01*
X937775Y542667D02*
X933625Y542667D01*
X933625Y544049D02*
X937775Y544049D01*
X937775Y545431D02*
X933625Y545431D01*
X933625Y546813D02*
X937775Y546813D01*
X937775Y548195D02*
X933625Y548195D01*
X933625Y549577D02*
X937775Y549577D01*
X937775Y550959D02*
X933625Y550959D01*
X933625Y552341D02*
X937775Y552341D01*
X938625Y552925D02*
X938625Y534375D01*
X938625Y552925D02*
X942775Y552925D01*
X942775Y534375D01*
X938625Y534375D01*
X938625Y535757D02*
X942775Y535757D01*
X942775Y537139D02*
X938625Y537139D01*
X938625Y538521D02*
X942775Y538521D01*
X942775Y539903D02*
X938625Y539903D01*
X938625Y541285D02*
X942775Y541285D01*
X942775Y542667D02*
X938625Y542667D01*
X938625Y544049D02*
X942775Y544049D01*
X942775Y545431D02*
X938625Y545431D01*
X938625Y546813D02*
X942775Y546813D01*
X942775Y548195D02*
X938625Y548195D01*
X938625Y549577D02*
X942775Y549577D01*
X942775Y550959D02*
X938625Y550959D01*
X938625Y552341D02*
X942775Y552341D01*
X943625Y552925D02*
X943625Y534375D01*
X943625Y552925D02*
X947775Y552925D01*
X947775Y534375D01*
X943625Y534375D01*
X943625Y535757D02*
X947775Y535757D01*
X947775Y537139D02*
X943625Y537139D01*
X943625Y538521D02*
X947775Y538521D01*
X947775Y539903D02*
X943625Y539903D01*
X943625Y541285D02*
X947775Y541285D01*
X947775Y542667D02*
X943625Y542667D01*
X943625Y544049D02*
X947775Y544049D01*
X947775Y545431D02*
X943625Y545431D01*
X943625Y546813D02*
X947775Y546813D01*
X947775Y548195D02*
X943625Y548195D01*
X943625Y549577D02*
X947775Y549577D01*
X947775Y550959D02*
X943625Y550959D01*
X943625Y552341D02*
X947775Y552341D01*
X948625Y552925D02*
X948625Y534375D01*
X948625Y552925D02*
X952775Y552925D01*
X952775Y534375D01*
X948625Y534375D01*
X948625Y535757D02*
X952775Y535757D01*
X952775Y537139D02*
X948625Y537139D01*
X948625Y538521D02*
X952775Y538521D01*
X952775Y539903D02*
X948625Y539903D01*
X948625Y541285D02*
X952775Y541285D01*
X952775Y542667D02*
X948625Y542667D01*
X948625Y544049D02*
X952775Y544049D01*
X952775Y545431D02*
X948625Y545431D01*
X948625Y546813D02*
X952775Y546813D01*
X952775Y548195D02*
X948625Y548195D01*
X948625Y549577D02*
X952775Y549577D01*
X952775Y550959D02*
X948625Y550959D01*
X948625Y552341D02*
X952775Y552341D01*
X953625Y552925D02*
X953625Y534375D01*
X953625Y552925D02*
X957775Y552925D01*
X957775Y534375D01*
X953625Y534375D01*
X953625Y535757D02*
X957775Y535757D01*
X957775Y537139D02*
X953625Y537139D01*
X953625Y538521D02*
X957775Y538521D01*
X957775Y539903D02*
X953625Y539903D01*
X953625Y541285D02*
X957775Y541285D01*
X957775Y542667D02*
X953625Y542667D01*
X953625Y544049D02*
X957775Y544049D01*
X957775Y545431D02*
X953625Y545431D01*
X953625Y546813D02*
X957775Y546813D01*
X957775Y548195D02*
X953625Y548195D01*
X953625Y549577D02*
X957775Y549577D01*
X957775Y550959D02*
X953625Y550959D01*
X953625Y552341D02*
X957775Y552341D01*
D31*
X905962Y566038D02*
X905962Y615562D01*
X905962Y566038D02*
X874438Y566038D01*
X874438Y615562D01*
X905962Y615562D01*
X905962Y576545D02*
X874438Y576545D01*
X874438Y587052D02*
X905962Y587052D01*
X905962Y597559D02*
X874438Y597559D01*
X874438Y608066D02*
X905962Y608066D01*
D32*
X953712Y617312D02*
X953712Y596288D01*
X918688Y596288D01*
X918688Y617312D01*
X953712Y617312D01*
X953712Y603295D02*
X918688Y603295D01*
X918688Y610302D02*
X953712Y610302D01*
X953712Y617309D02*
X918688Y617309D01*
X953712Y585312D02*
X953712Y564288D01*
X918688Y564288D01*
X918688Y585312D01*
X953712Y585312D01*
X953712Y571295D02*
X918688Y571295D01*
X918688Y578302D02*
X953712Y578302D01*
X953712Y585309D02*
X918688Y585309D01*
D30*
X1170125Y348325D02*
X1170125Y329775D01*
X1170125Y348325D02*
X1174275Y348325D01*
X1174275Y329775D01*
X1170125Y329775D01*
X1170125Y331157D02*
X1174275Y331157D01*
X1174275Y332539D02*
X1170125Y332539D01*
X1170125Y333921D02*
X1174275Y333921D01*
X1174275Y335303D02*
X1170125Y335303D01*
X1170125Y336685D02*
X1174275Y336685D01*
X1174275Y338067D02*
X1170125Y338067D01*
X1170125Y339449D02*
X1174275Y339449D01*
X1174275Y340831D02*
X1170125Y340831D01*
X1170125Y342213D02*
X1174275Y342213D01*
X1174275Y343595D02*
X1170125Y343595D01*
X1170125Y344977D02*
X1174275Y344977D01*
X1174275Y346359D02*
X1170125Y346359D01*
X1170125Y347741D02*
X1174275Y347741D01*
X1165125Y348325D02*
X1165125Y329775D01*
X1165125Y348325D02*
X1169275Y348325D01*
X1169275Y329775D01*
X1165125Y329775D01*
X1165125Y331157D02*
X1169275Y331157D01*
X1169275Y332539D02*
X1165125Y332539D01*
X1165125Y333921D02*
X1169275Y333921D01*
X1169275Y335303D02*
X1165125Y335303D01*
X1165125Y336685D02*
X1169275Y336685D01*
X1169275Y338067D02*
X1165125Y338067D01*
X1165125Y339449D02*
X1169275Y339449D01*
X1169275Y340831D02*
X1165125Y340831D01*
X1165125Y342213D02*
X1169275Y342213D01*
X1169275Y343595D02*
X1165125Y343595D01*
X1165125Y344977D02*
X1169275Y344977D01*
X1169275Y346359D02*
X1165125Y346359D01*
X1165125Y347741D02*
X1169275Y347741D01*
X1160125Y348325D02*
X1160125Y329775D01*
X1160125Y348325D02*
X1164275Y348325D01*
X1164275Y329775D01*
X1160125Y329775D01*
X1160125Y331157D02*
X1164275Y331157D01*
X1164275Y332539D02*
X1160125Y332539D01*
X1160125Y333921D02*
X1164275Y333921D01*
X1164275Y335303D02*
X1160125Y335303D01*
X1160125Y336685D02*
X1164275Y336685D01*
X1164275Y338067D02*
X1160125Y338067D01*
X1160125Y339449D02*
X1164275Y339449D01*
X1164275Y340831D02*
X1160125Y340831D01*
X1160125Y342213D02*
X1164275Y342213D01*
X1164275Y343595D02*
X1160125Y343595D01*
X1160125Y344977D02*
X1164275Y344977D01*
X1164275Y346359D02*
X1160125Y346359D01*
X1160125Y347741D02*
X1164275Y347741D01*
X1155125Y348325D02*
X1155125Y329775D01*
X1155125Y348325D02*
X1159275Y348325D01*
X1159275Y329775D01*
X1155125Y329775D01*
X1155125Y331157D02*
X1159275Y331157D01*
X1159275Y332539D02*
X1155125Y332539D01*
X1155125Y333921D02*
X1159275Y333921D01*
X1159275Y335303D02*
X1155125Y335303D01*
X1155125Y336685D02*
X1159275Y336685D01*
X1159275Y338067D02*
X1155125Y338067D01*
X1155125Y339449D02*
X1159275Y339449D01*
X1159275Y340831D02*
X1155125Y340831D01*
X1155125Y342213D02*
X1159275Y342213D01*
X1159275Y343595D02*
X1155125Y343595D01*
X1155125Y344977D02*
X1159275Y344977D01*
X1159275Y346359D02*
X1155125Y346359D01*
X1155125Y347741D02*
X1159275Y347741D01*
X1150125Y348325D02*
X1150125Y329775D01*
X1150125Y348325D02*
X1154275Y348325D01*
X1154275Y329775D01*
X1150125Y329775D01*
X1150125Y331157D02*
X1154275Y331157D01*
X1154275Y332539D02*
X1150125Y332539D01*
X1150125Y333921D02*
X1154275Y333921D01*
X1154275Y335303D02*
X1150125Y335303D01*
X1150125Y336685D02*
X1154275Y336685D01*
X1154275Y338067D02*
X1150125Y338067D01*
X1150125Y339449D02*
X1154275Y339449D01*
X1154275Y340831D02*
X1150125Y340831D01*
X1150125Y342213D02*
X1154275Y342213D01*
X1154275Y343595D02*
X1150125Y343595D01*
X1150125Y344977D02*
X1154275Y344977D01*
X1154275Y346359D02*
X1150125Y346359D01*
X1150125Y347741D02*
X1154275Y347741D01*
X1145125Y348325D02*
X1145125Y329775D01*
X1145125Y348325D02*
X1149275Y348325D01*
X1149275Y329775D01*
X1145125Y329775D01*
X1145125Y331157D02*
X1149275Y331157D01*
X1149275Y332539D02*
X1145125Y332539D01*
X1145125Y333921D02*
X1149275Y333921D01*
X1149275Y335303D02*
X1145125Y335303D01*
X1145125Y336685D02*
X1149275Y336685D01*
X1149275Y338067D02*
X1145125Y338067D01*
X1145125Y339449D02*
X1149275Y339449D01*
X1149275Y340831D02*
X1145125Y340831D01*
X1145125Y342213D02*
X1149275Y342213D01*
X1149275Y343595D02*
X1145125Y343595D01*
X1145125Y344977D02*
X1149275Y344977D01*
X1149275Y346359D02*
X1145125Y346359D01*
X1145125Y347741D02*
X1149275Y347741D01*
X1140125Y348325D02*
X1140125Y329775D01*
X1140125Y348325D02*
X1144275Y348325D01*
X1144275Y329775D01*
X1140125Y329775D01*
X1140125Y331157D02*
X1144275Y331157D01*
X1144275Y332539D02*
X1140125Y332539D01*
X1140125Y333921D02*
X1144275Y333921D01*
X1144275Y335303D02*
X1140125Y335303D01*
X1140125Y336685D02*
X1144275Y336685D01*
X1144275Y338067D02*
X1140125Y338067D01*
X1140125Y339449D02*
X1144275Y339449D01*
X1144275Y340831D02*
X1140125Y340831D01*
X1140125Y342213D02*
X1144275Y342213D01*
X1144275Y343595D02*
X1140125Y343595D01*
X1140125Y344977D02*
X1144275Y344977D01*
X1144275Y346359D02*
X1140125Y346359D01*
X1140125Y347741D02*
X1144275Y347741D01*
X1135125Y348325D02*
X1135125Y329775D01*
X1135125Y348325D02*
X1139275Y348325D01*
X1139275Y329775D01*
X1135125Y329775D01*
X1135125Y331157D02*
X1139275Y331157D01*
X1139275Y332539D02*
X1135125Y332539D01*
X1135125Y333921D02*
X1139275Y333921D01*
X1139275Y335303D02*
X1135125Y335303D01*
X1135125Y336685D02*
X1139275Y336685D01*
X1139275Y338067D02*
X1135125Y338067D01*
X1135125Y339449D02*
X1139275Y339449D01*
X1139275Y340831D02*
X1135125Y340831D01*
X1135125Y342213D02*
X1139275Y342213D01*
X1139275Y343595D02*
X1135125Y343595D01*
X1135125Y344977D02*
X1139275Y344977D01*
X1139275Y346359D02*
X1135125Y346359D01*
X1135125Y347741D02*
X1139275Y347741D01*
X1130125Y348325D02*
X1130125Y329775D01*
X1130125Y348325D02*
X1134275Y348325D01*
X1134275Y329775D01*
X1130125Y329775D01*
X1130125Y331157D02*
X1134275Y331157D01*
X1134275Y332539D02*
X1130125Y332539D01*
X1130125Y333921D02*
X1134275Y333921D01*
X1134275Y335303D02*
X1130125Y335303D01*
X1130125Y336685D02*
X1134275Y336685D01*
X1134275Y338067D02*
X1130125Y338067D01*
X1130125Y339449D02*
X1134275Y339449D01*
X1134275Y340831D02*
X1130125Y340831D01*
X1130125Y342213D02*
X1134275Y342213D01*
X1134275Y343595D02*
X1130125Y343595D01*
X1130125Y344977D02*
X1134275Y344977D01*
X1134275Y346359D02*
X1130125Y346359D01*
X1130125Y347741D02*
X1134275Y347741D01*
X1125125Y348325D02*
X1125125Y329775D01*
X1125125Y348325D02*
X1129275Y348325D01*
X1129275Y329775D01*
X1125125Y329775D01*
X1125125Y331157D02*
X1129275Y331157D01*
X1129275Y332539D02*
X1125125Y332539D01*
X1125125Y333921D02*
X1129275Y333921D01*
X1129275Y335303D02*
X1125125Y335303D01*
X1125125Y336685D02*
X1129275Y336685D01*
X1129275Y338067D02*
X1125125Y338067D01*
X1125125Y339449D02*
X1129275Y339449D01*
X1129275Y340831D02*
X1125125Y340831D01*
X1125125Y342213D02*
X1129275Y342213D01*
X1129275Y343595D02*
X1125125Y343595D01*
X1125125Y344977D02*
X1129275Y344977D01*
X1129275Y346359D02*
X1125125Y346359D01*
X1125125Y347741D02*
X1129275Y347741D01*
X1120125Y348325D02*
X1120125Y329775D01*
X1120125Y348325D02*
X1124275Y348325D01*
X1124275Y329775D01*
X1120125Y329775D01*
X1120125Y331157D02*
X1124275Y331157D01*
X1124275Y332539D02*
X1120125Y332539D01*
X1120125Y333921D02*
X1124275Y333921D01*
X1124275Y335303D02*
X1120125Y335303D01*
X1120125Y336685D02*
X1124275Y336685D01*
X1124275Y338067D02*
X1120125Y338067D01*
X1120125Y339449D02*
X1124275Y339449D01*
X1124275Y340831D02*
X1120125Y340831D01*
X1120125Y342213D02*
X1124275Y342213D01*
X1124275Y343595D02*
X1120125Y343595D01*
X1120125Y344977D02*
X1124275Y344977D01*
X1124275Y346359D02*
X1120125Y346359D01*
X1120125Y347741D02*
X1124275Y347741D01*
X1115125Y348325D02*
X1115125Y329775D01*
X1115125Y348325D02*
X1119275Y348325D01*
X1119275Y329775D01*
X1115125Y329775D01*
X1115125Y331157D02*
X1119275Y331157D01*
X1119275Y332539D02*
X1115125Y332539D01*
X1115125Y333921D02*
X1119275Y333921D01*
X1119275Y335303D02*
X1115125Y335303D01*
X1115125Y336685D02*
X1119275Y336685D01*
X1119275Y338067D02*
X1115125Y338067D01*
X1115125Y339449D02*
X1119275Y339449D01*
X1119275Y340831D02*
X1115125Y340831D01*
X1115125Y342213D02*
X1119275Y342213D01*
X1119275Y343595D02*
X1115125Y343595D01*
X1115125Y344977D02*
X1119275Y344977D01*
X1119275Y346359D02*
X1115125Y346359D01*
X1115125Y347741D02*
X1119275Y347741D01*
X1110125Y348325D02*
X1110125Y329775D01*
X1110125Y348325D02*
X1114275Y348325D01*
X1114275Y329775D01*
X1110125Y329775D01*
X1110125Y331157D02*
X1114275Y331157D01*
X1114275Y332539D02*
X1110125Y332539D01*
X1110125Y333921D02*
X1114275Y333921D01*
X1114275Y335303D02*
X1110125Y335303D01*
X1110125Y336685D02*
X1114275Y336685D01*
X1114275Y338067D02*
X1110125Y338067D01*
X1110125Y339449D02*
X1114275Y339449D01*
X1114275Y340831D02*
X1110125Y340831D01*
X1110125Y342213D02*
X1114275Y342213D01*
X1114275Y343595D02*
X1110125Y343595D01*
X1110125Y344977D02*
X1114275Y344977D01*
X1114275Y346359D02*
X1110125Y346359D01*
X1110125Y347741D02*
X1114275Y347741D01*
X1105125Y348325D02*
X1105125Y329775D01*
X1105125Y348325D02*
X1109275Y348325D01*
X1109275Y329775D01*
X1105125Y329775D01*
X1105125Y331157D02*
X1109275Y331157D01*
X1109275Y332539D02*
X1105125Y332539D01*
X1105125Y333921D02*
X1109275Y333921D01*
X1109275Y335303D02*
X1105125Y335303D01*
X1105125Y336685D02*
X1109275Y336685D01*
X1109275Y338067D02*
X1105125Y338067D01*
X1105125Y339449D02*
X1109275Y339449D01*
X1109275Y340831D02*
X1105125Y340831D01*
X1105125Y342213D02*
X1109275Y342213D01*
X1109275Y343595D02*
X1105125Y343595D01*
X1105125Y344977D02*
X1109275Y344977D01*
X1109275Y346359D02*
X1105125Y346359D01*
X1105125Y347741D02*
X1109275Y347741D01*
X1100125Y348325D02*
X1100125Y329775D01*
X1100125Y348325D02*
X1104275Y348325D01*
X1104275Y329775D01*
X1100125Y329775D01*
X1100125Y331157D02*
X1104275Y331157D01*
X1104275Y332539D02*
X1100125Y332539D01*
X1100125Y333921D02*
X1104275Y333921D01*
X1104275Y335303D02*
X1100125Y335303D01*
X1100125Y336685D02*
X1104275Y336685D01*
X1104275Y338067D02*
X1100125Y338067D01*
X1100125Y339449D02*
X1104275Y339449D01*
X1104275Y340831D02*
X1100125Y340831D01*
X1100125Y342213D02*
X1104275Y342213D01*
X1104275Y343595D02*
X1100125Y343595D01*
X1100125Y344977D02*
X1104275Y344977D01*
X1104275Y346359D02*
X1100125Y346359D01*
X1100125Y347741D02*
X1104275Y347741D01*
X1095125Y348325D02*
X1095125Y329775D01*
X1095125Y348325D02*
X1099275Y348325D01*
X1099275Y329775D01*
X1095125Y329775D01*
X1095125Y331157D02*
X1099275Y331157D01*
X1099275Y332539D02*
X1095125Y332539D01*
X1095125Y333921D02*
X1099275Y333921D01*
X1099275Y335303D02*
X1095125Y335303D01*
X1095125Y336685D02*
X1099275Y336685D01*
X1099275Y338067D02*
X1095125Y338067D01*
X1095125Y339449D02*
X1099275Y339449D01*
X1099275Y340831D02*
X1095125Y340831D01*
X1095125Y342213D02*
X1099275Y342213D01*
X1099275Y343595D02*
X1095125Y343595D01*
X1095125Y344977D02*
X1099275Y344977D01*
X1099275Y346359D02*
X1095125Y346359D01*
X1095125Y347741D02*
X1099275Y347741D01*
X1090125Y348325D02*
X1090125Y329775D01*
X1090125Y348325D02*
X1094275Y348325D01*
X1094275Y329775D01*
X1090125Y329775D01*
X1090125Y331157D02*
X1094275Y331157D01*
X1094275Y332539D02*
X1090125Y332539D01*
X1090125Y333921D02*
X1094275Y333921D01*
X1094275Y335303D02*
X1090125Y335303D01*
X1090125Y336685D02*
X1094275Y336685D01*
X1094275Y338067D02*
X1090125Y338067D01*
X1090125Y339449D02*
X1094275Y339449D01*
X1094275Y340831D02*
X1090125Y340831D01*
X1090125Y342213D02*
X1094275Y342213D01*
X1094275Y343595D02*
X1090125Y343595D01*
X1090125Y344977D02*
X1094275Y344977D01*
X1094275Y346359D02*
X1090125Y346359D01*
X1090125Y347741D02*
X1094275Y347741D01*
X1085125Y348325D02*
X1085125Y329775D01*
X1085125Y348325D02*
X1089275Y348325D01*
X1089275Y329775D01*
X1085125Y329775D01*
X1085125Y331157D02*
X1089275Y331157D01*
X1089275Y332539D02*
X1085125Y332539D01*
X1085125Y333921D02*
X1089275Y333921D01*
X1089275Y335303D02*
X1085125Y335303D01*
X1085125Y336685D02*
X1089275Y336685D01*
X1089275Y338067D02*
X1085125Y338067D01*
X1085125Y339449D02*
X1089275Y339449D01*
X1089275Y340831D02*
X1085125Y340831D01*
X1085125Y342213D02*
X1089275Y342213D01*
X1089275Y343595D02*
X1085125Y343595D01*
X1085125Y344977D02*
X1089275Y344977D01*
X1089275Y346359D02*
X1085125Y346359D01*
X1085125Y347741D02*
X1089275Y347741D01*
X1085125Y254025D02*
X1085125Y235475D01*
X1085125Y254025D02*
X1089275Y254025D01*
X1089275Y235475D01*
X1085125Y235475D01*
X1085125Y236857D02*
X1089275Y236857D01*
X1089275Y238239D02*
X1085125Y238239D01*
X1085125Y239621D02*
X1089275Y239621D01*
X1089275Y241003D02*
X1085125Y241003D01*
X1085125Y242385D02*
X1089275Y242385D01*
X1089275Y243767D02*
X1085125Y243767D01*
X1085125Y245149D02*
X1089275Y245149D01*
X1089275Y246531D02*
X1085125Y246531D01*
X1085125Y247913D02*
X1089275Y247913D01*
X1089275Y249295D02*
X1085125Y249295D01*
X1085125Y250677D02*
X1089275Y250677D01*
X1089275Y252059D02*
X1085125Y252059D01*
X1085125Y253441D02*
X1089275Y253441D01*
X1090125Y254025D02*
X1090125Y235475D01*
X1090125Y254025D02*
X1094275Y254025D01*
X1094275Y235475D01*
X1090125Y235475D01*
X1090125Y236857D02*
X1094275Y236857D01*
X1094275Y238239D02*
X1090125Y238239D01*
X1090125Y239621D02*
X1094275Y239621D01*
X1094275Y241003D02*
X1090125Y241003D01*
X1090125Y242385D02*
X1094275Y242385D01*
X1094275Y243767D02*
X1090125Y243767D01*
X1090125Y245149D02*
X1094275Y245149D01*
X1094275Y246531D02*
X1090125Y246531D01*
X1090125Y247913D02*
X1094275Y247913D01*
X1094275Y249295D02*
X1090125Y249295D01*
X1090125Y250677D02*
X1094275Y250677D01*
X1094275Y252059D02*
X1090125Y252059D01*
X1090125Y253441D02*
X1094275Y253441D01*
X1095125Y254025D02*
X1095125Y235475D01*
X1095125Y254025D02*
X1099275Y254025D01*
X1099275Y235475D01*
X1095125Y235475D01*
X1095125Y236857D02*
X1099275Y236857D01*
X1099275Y238239D02*
X1095125Y238239D01*
X1095125Y239621D02*
X1099275Y239621D01*
X1099275Y241003D02*
X1095125Y241003D01*
X1095125Y242385D02*
X1099275Y242385D01*
X1099275Y243767D02*
X1095125Y243767D01*
X1095125Y245149D02*
X1099275Y245149D01*
X1099275Y246531D02*
X1095125Y246531D01*
X1095125Y247913D02*
X1099275Y247913D01*
X1099275Y249295D02*
X1095125Y249295D01*
X1095125Y250677D02*
X1099275Y250677D01*
X1099275Y252059D02*
X1095125Y252059D01*
X1095125Y253441D02*
X1099275Y253441D01*
X1100125Y254025D02*
X1100125Y235475D01*
X1100125Y254025D02*
X1104275Y254025D01*
X1104275Y235475D01*
X1100125Y235475D01*
X1100125Y236857D02*
X1104275Y236857D01*
X1104275Y238239D02*
X1100125Y238239D01*
X1100125Y239621D02*
X1104275Y239621D01*
X1104275Y241003D02*
X1100125Y241003D01*
X1100125Y242385D02*
X1104275Y242385D01*
X1104275Y243767D02*
X1100125Y243767D01*
X1100125Y245149D02*
X1104275Y245149D01*
X1104275Y246531D02*
X1100125Y246531D01*
X1100125Y247913D02*
X1104275Y247913D01*
X1104275Y249295D02*
X1100125Y249295D01*
X1100125Y250677D02*
X1104275Y250677D01*
X1104275Y252059D02*
X1100125Y252059D01*
X1100125Y253441D02*
X1104275Y253441D01*
X1105125Y254025D02*
X1105125Y235475D01*
X1105125Y254025D02*
X1109275Y254025D01*
X1109275Y235475D01*
X1105125Y235475D01*
X1105125Y236857D02*
X1109275Y236857D01*
X1109275Y238239D02*
X1105125Y238239D01*
X1105125Y239621D02*
X1109275Y239621D01*
X1109275Y241003D02*
X1105125Y241003D01*
X1105125Y242385D02*
X1109275Y242385D01*
X1109275Y243767D02*
X1105125Y243767D01*
X1105125Y245149D02*
X1109275Y245149D01*
X1109275Y246531D02*
X1105125Y246531D01*
X1105125Y247913D02*
X1109275Y247913D01*
X1109275Y249295D02*
X1105125Y249295D01*
X1105125Y250677D02*
X1109275Y250677D01*
X1109275Y252059D02*
X1105125Y252059D01*
X1105125Y253441D02*
X1109275Y253441D01*
X1110125Y254025D02*
X1110125Y235475D01*
X1110125Y254025D02*
X1114275Y254025D01*
X1114275Y235475D01*
X1110125Y235475D01*
X1110125Y236857D02*
X1114275Y236857D01*
X1114275Y238239D02*
X1110125Y238239D01*
X1110125Y239621D02*
X1114275Y239621D01*
X1114275Y241003D02*
X1110125Y241003D01*
X1110125Y242385D02*
X1114275Y242385D01*
X1114275Y243767D02*
X1110125Y243767D01*
X1110125Y245149D02*
X1114275Y245149D01*
X1114275Y246531D02*
X1110125Y246531D01*
X1110125Y247913D02*
X1114275Y247913D01*
X1114275Y249295D02*
X1110125Y249295D01*
X1110125Y250677D02*
X1114275Y250677D01*
X1114275Y252059D02*
X1110125Y252059D01*
X1110125Y253441D02*
X1114275Y253441D01*
X1115125Y254025D02*
X1115125Y235475D01*
X1115125Y254025D02*
X1119275Y254025D01*
X1119275Y235475D01*
X1115125Y235475D01*
X1115125Y236857D02*
X1119275Y236857D01*
X1119275Y238239D02*
X1115125Y238239D01*
X1115125Y239621D02*
X1119275Y239621D01*
X1119275Y241003D02*
X1115125Y241003D01*
X1115125Y242385D02*
X1119275Y242385D01*
X1119275Y243767D02*
X1115125Y243767D01*
X1115125Y245149D02*
X1119275Y245149D01*
X1119275Y246531D02*
X1115125Y246531D01*
X1115125Y247913D02*
X1119275Y247913D01*
X1119275Y249295D02*
X1115125Y249295D01*
X1115125Y250677D02*
X1119275Y250677D01*
X1119275Y252059D02*
X1115125Y252059D01*
X1115125Y253441D02*
X1119275Y253441D01*
X1120125Y254025D02*
X1120125Y235475D01*
X1120125Y254025D02*
X1124275Y254025D01*
X1124275Y235475D01*
X1120125Y235475D01*
X1120125Y236857D02*
X1124275Y236857D01*
X1124275Y238239D02*
X1120125Y238239D01*
X1120125Y239621D02*
X1124275Y239621D01*
X1124275Y241003D02*
X1120125Y241003D01*
X1120125Y242385D02*
X1124275Y242385D01*
X1124275Y243767D02*
X1120125Y243767D01*
X1120125Y245149D02*
X1124275Y245149D01*
X1124275Y246531D02*
X1120125Y246531D01*
X1120125Y247913D02*
X1124275Y247913D01*
X1124275Y249295D02*
X1120125Y249295D01*
X1120125Y250677D02*
X1124275Y250677D01*
X1124275Y252059D02*
X1120125Y252059D01*
X1120125Y253441D02*
X1124275Y253441D01*
X1125125Y254025D02*
X1125125Y235475D01*
X1125125Y254025D02*
X1129275Y254025D01*
X1129275Y235475D01*
X1125125Y235475D01*
X1125125Y236857D02*
X1129275Y236857D01*
X1129275Y238239D02*
X1125125Y238239D01*
X1125125Y239621D02*
X1129275Y239621D01*
X1129275Y241003D02*
X1125125Y241003D01*
X1125125Y242385D02*
X1129275Y242385D01*
X1129275Y243767D02*
X1125125Y243767D01*
X1125125Y245149D02*
X1129275Y245149D01*
X1129275Y246531D02*
X1125125Y246531D01*
X1125125Y247913D02*
X1129275Y247913D01*
X1129275Y249295D02*
X1125125Y249295D01*
X1125125Y250677D02*
X1129275Y250677D01*
X1129275Y252059D02*
X1125125Y252059D01*
X1125125Y253441D02*
X1129275Y253441D01*
X1130125Y254025D02*
X1130125Y235475D01*
X1130125Y254025D02*
X1134275Y254025D01*
X1134275Y235475D01*
X1130125Y235475D01*
X1130125Y236857D02*
X1134275Y236857D01*
X1134275Y238239D02*
X1130125Y238239D01*
X1130125Y239621D02*
X1134275Y239621D01*
X1134275Y241003D02*
X1130125Y241003D01*
X1130125Y242385D02*
X1134275Y242385D01*
X1134275Y243767D02*
X1130125Y243767D01*
X1130125Y245149D02*
X1134275Y245149D01*
X1134275Y246531D02*
X1130125Y246531D01*
X1130125Y247913D02*
X1134275Y247913D01*
X1134275Y249295D02*
X1130125Y249295D01*
X1130125Y250677D02*
X1134275Y250677D01*
X1134275Y252059D02*
X1130125Y252059D01*
X1130125Y253441D02*
X1134275Y253441D01*
X1135125Y254025D02*
X1135125Y235475D01*
X1135125Y254025D02*
X1139275Y254025D01*
X1139275Y235475D01*
X1135125Y235475D01*
X1135125Y236857D02*
X1139275Y236857D01*
X1139275Y238239D02*
X1135125Y238239D01*
X1135125Y239621D02*
X1139275Y239621D01*
X1139275Y241003D02*
X1135125Y241003D01*
X1135125Y242385D02*
X1139275Y242385D01*
X1139275Y243767D02*
X1135125Y243767D01*
X1135125Y245149D02*
X1139275Y245149D01*
X1139275Y246531D02*
X1135125Y246531D01*
X1135125Y247913D02*
X1139275Y247913D01*
X1139275Y249295D02*
X1135125Y249295D01*
X1135125Y250677D02*
X1139275Y250677D01*
X1139275Y252059D02*
X1135125Y252059D01*
X1135125Y253441D02*
X1139275Y253441D01*
X1140125Y254025D02*
X1140125Y235475D01*
X1140125Y254025D02*
X1144275Y254025D01*
X1144275Y235475D01*
X1140125Y235475D01*
X1140125Y236857D02*
X1144275Y236857D01*
X1144275Y238239D02*
X1140125Y238239D01*
X1140125Y239621D02*
X1144275Y239621D01*
X1144275Y241003D02*
X1140125Y241003D01*
X1140125Y242385D02*
X1144275Y242385D01*
X1144275Y243767D02*
X1140125Y243767D01*
X1140125Y245149D02*
X1144275Y245149D01*
X1144275Y246531D02*
X1140125Y246531D01*
X1140125Y247913D02*
X1144275Y247913D01*
X1144275Y249295D02*
X1140125Y249295D01*
X1140125Y250677D02*
X1144275Y250677D01*
X1144275Y252059D02*
X1140125Y252059D01*
X1140125Y253441D02*
X1144275Y253441D01*
X1145125Y254025D02*
X1145125Y235475D01*
X1145125Y254025D02*
X1149275Y254025D01*
X1149275Y235475D01*
X1145125Y235475D01*
X1145125Y236857D02*
X1149275Y236857D01*
X1149275Y238239D02*
X1145125Y238239D01*
X1145125Y239621D02*
X1149275Y239621D01*
X1149275Y241003D02*
X1145125Y241003D01*
X1145125Y242385D02*
X1149275Y242385D01*
X1149275Y243767D02*
X1145125Y243767D01*
X1145125Y245149D02*
X1149275Y245149D01*
X1149275Y246531D02*
X1145125Y246531D01*
X1145125Y247913D02*
X1149275Y247913D01*
X1149275Y249295D02*
X1145125Y249295D01*
X1145125Y250677D02*
X1149275Y250677D01*
X1149275Y252059D02*
X1145125Y252059D01*
X1145125Y253441D02*
X1149275Y253441D01*
X1150125Y254025D02*
X1150125Y235475D01*
X1150125Y254025D02*
X1154275Y254025D01*
X1154275Y235475D01*
X1150125Y235475D01*
X1150125Y236857D02*
X1154275Y236857D01*
X1154275Y238239D02*
X1150125Y238239D01*
X1150125Y239621D02*
X1154275Y239621D01*
X1154275Y241003D02*
X1150125Y241003D01*
X1150125Y242385D02*
X1154275Y242385D01*
X1154275Y243767D02*
X1150125Y243767D01*
X1150125Y245149D02*
X1154275Y245149D01*
X1154275Y246531D02*
X1150125Y246531D01*
X1150125Y247913D02*
X1154275Y247913D01*
X1154275Y249295D02*
X1150125Y249295D01*
X1150125Y250677D02*
X1154275Y250677D01*
X1154275Y252059D02*
X1150125Y252059D01*
X1150125Y253441D02*
X1154275Y253441D01*
X1155125Y254025D02*
X1155125Y235475D01*
X1155125Y254025D02*
X1159275Y254025D01*
X1159275Y235475D01*
X1155125Y235475D01*
X1155125Y236857D02*
X1159275Y236857D01*
X1159275Y238239D02*
X1155125Y238239D01*
X1155125Y239621D02*
X1159275Y239621D01*
X1159275Y241003D02*
X1155125Y241003D01*
X1155125Y242385D02*
X1159275Y242385D01*
X1159275Y243767D02*
X1155125Y243767D01*
X1155125Y245149D02*
X1159275Y245149D01*
X1159275Y246531D02*
X1155125Y246531D01*
X1155125Y247913D02*
X1159275Y247913D01*
X1159275Y249295D02*
X1155125Y249295D01*
X1155125Y250677D02*
X1159275Y250677D01*
X1159275Y252059D02*
X1155125Y252059D01*
X1155125Y253441D02*
X1159275Y253441D01*
X1160125Y254025D02*
X1160125Y235475D01*
X1160125Y254025D02*
X1164275Y254025D01*
X1164275Y235475D01*
X1160125Y235475D01*
X1160125Y236857D02*
X1164275Y236857D01*
X1164275Y238239D02*
X1160125Y238239D01*
X1160125Y239621D02*
X1164275Y239621D01*
X1164275Y241003D02*
X1160125Y241003D01*
X1160125Y242385D02*
X1164275Y242385D01*
X1164275Y243767D02*
X1160125Y243767D01*
X1160125Y245149D02*
X1164275Y245149D01*
X1164275Y246531D02*
X1160125Y246531D01*
X1160125Y247913D02*
X1164275Y247913D01*
X1164275Y249295D02*
X1160125Y249295D01*
X1160125Y250677D02*
X1164275Y250677D01*
X1164275Y252059D02*
X1160125Y252059D01*
X1160125Y253441D02*
X1164275Y253441D01*
X1165125Y254025D02*
X1165125Y235475D01*
X1165125Y254025D02*
X1169275Y254025D01*
X1169275Y235475D01*
X1165125Y235475D01*
X1165125Y236857D02*
X1169275Y236857D01*
X1169275Y238239D02*
X1165125Y238239D01*
X1165125Y239621D02*
X1169275Y239621D01*
X1169275Y241003D02*
X1165125Y241003D01*
X1165125Y242385D02*
X1169275Y242385D01*
X1169275Y243767D02*
X1165125Y243767D01*
X1165125Y245149D02*
X1169275Y245149D01*
X1169275Y246531D02*
X1165125Y246531D01*
X1165125Y247913D02*
X1169275Y247913D01*
X1169275Y249295D02*
X1165125Y249295D01*
X1165125Y250677D02*
X1169275Y250677D01*
X1169275Y252059D02*
X1165125Y252059D01*
X1165125Y253441D02*
X1169275Y253441D01*
X1170125Y254025D02*
X1170125Y235475D01*
X1170125Y254025D02*
X1174275Y254025D01*
X1174275Y235475D01*
X1170125Y235475D01*
X1170125Y236857D02*
X1174275Y236857D01*
X1174275Y238239D02*
X1170125Y238239D01*
X1170125Y239621D02*
X1174275Y239621D01*
X1174275Y241003D02*
X1170125Y241003D01*
X1170125Y242385D02*
X1174275Y242385D01*
X1174275Y243767D02*
X1170125Y243767D01*
X1170125Y245149D02*
X1174275Y245149D01*
X1174275Y246531D02*
X1170125Y246531D01*
X1170125Y247913D02*
X1174275Y247913D01*
X1174275Y249295D02*
X1170125Y249295D01*
X1170125Y250677D02*
X1174275Y250677D01*
X1174275Y252059D02*
X1170125Y252059D01*
X1170125Y253441D02*
X1174275Y253441D01*
D31*
X1122462Y267138D02*
X1122462Y316662D01*
X1122462Y267138D02*
X1090938Y267138D01*
X1090938Y316662D01*
X1122462Y316662D01*
X1122462Y277645D02*
X1090938Y277645D01*
X1090938Y288152D02*
X1122462Y288152D01*
X1122462Y298659D02*
X1090938Y298659D01*
X1090938Y309166D02*
X1122462Y309166D01*
D32*
X1170212Y318412D02*
X1170212Y297388D01*
X1135188Y297388D01*
X1135188Y318412D01*
X1170212Y318412D01*
X1170212Y304395D02*
X1135188Y304395D01*
X1135188Y311402D02*
X1170212Y311402D01*
X1170212Y318409D02*
X1135188Y318409D01*
X1170212Y286412D02*
X1170212Y265388D01*
X1135188Y265388D01*
X1135188Y286412D01*
X1170212Y286412D01*
X1170212Y272395D02*
X1135188Y272395D01*
X1135188Y279402D02*
X1170212Y279402D01*
X1170212Y286409D02*
X1135188Y286409D01*
D30*
X1170595Y477285D02*
X1170595Y495835D01*
X1174745Y495835D01*
X1174745Y477285D01*
X1170595Y477285D01*
X1170595Y478667D02*
X1174745Y478667D01*
X1174745Y480049D02*
X1170595Y480049D01*
X1170595Y481431D02*
X1174745Y481431D01*
X1174745Y482813D02*
X1170595Y482813D01*
X1170595Y484195D02*
X1174745Y484195D01*
X1174745Y485577D02*
X1170595Y485577D01*
X1170595Y486959D02*
X1174745Y486959D01*
X1174745Y488341D02*
X1170595Y488341D01*
X1170595Y489723D02*
X1174745Y489723D01*
X1174745Y491105D02*
X1170595Y491105D01*
X1170595Y492487D02*
X1174745Y492487D01*
X1174745Y493869D02*
X1170595Y493869D01*
X1170595Y495251D02*
X1174745Y495251D01*
X1165595Y495835D02*
X1165595Y477285D01*
X1165595Y495835D02*
X1169745Y495835D01*
X1169745Y477285D01*
X1165595Y477285D01*
X1165595Y478667D02*
X1169745Y478667D01*
X1169745Y480049D02*
X1165595Y480049D01*
X1165595Y481431D02*
X1169745Y481431D01*
X1169745Y482813D02*
X1165595Y482813D01*
X1165595Y484195D02*
X1169745Y484195D01*
X1169745Y485577D02*
X1165595Y485577D01*
X1165595Y486959D02*
X1169745Y486959D01*
X1169745Y488341D02*
X1165595Y488341D01*
X1165595Y489723D02*
X1169745Y489723D01*
X1169745Y491105D02*
X1165595Y491105D01*
X1165595Y492487D02*
X1169745Y492487D01*
X1169745Y493869D02*
X1165595Y493869D01*
X1165595Y495251D02*
X1169745Y495251D01*
X1160595Y495835D02*
X1160595Y477285D01*
X1160595Y495835D02*
X1164745Y495835D01*
X1164745Y477285D01*
X1160595Y477285D01*
X1160595Y478667D02*
X1164745Y478667D01*
X1164745Y480049D02*
X1160595Y480049D01*
X1160595Y481431D02*
X1164745Y481431D01*
X1164745Y482813D02*
X1160595Y482813D01*
X1160595Y484195D02*
X1164745Y484195D01*
X1164745Y485577D02*
X1160595Y485577D01*
X1160595Y486959D02*
X1164745Y486959D01*
X1164745Y488341D02*
X1160595Y488341D01*
X1160595Y489723D02*
X1164745Y489723D01*
X1164745Y491105D02*
X1160595Y491105D01*
X1160595Y492487D02*
X1164745Y492487D01*
X1164745Y493869D02*
X1160595Y493869D01*
X1160595Y495251D02*
X1164745Y495251D01*
X1155595Y495835D02*
X1155595Y477285D01*
X1155595Y495835D02*
X1159745Y495835D01*
X1159745Y477285D01*
X1155595Y477285D01*
X1155595Y478667D02*
X1159745Y478667D01*
X1159745Y480049D02*
X1155595Y480049D01*
X1155595Y481431D02*
X1159745Y481431D01*
X1159745Y482813D02*
X1155595Y482813D01*
X1155595Y484195D02*
X1159745Y484195D01*
X1159745Y485577D02*
X1155595Y485577D01*
X1155595Y486959D02*
X1159745Y486959D01*
X1159745Y488341D02*
X1155595Y488341D01*
X1155595Y489723D02*
X1159745Y489723D01*
X1159745Y491105D02*
X1155595Y491105D01*
X1155595Y492487D02*
X1159745Y492487D01*
X1159745Y493869D02*
X1155595Y493869D01*
X1155595Y495251D02*
X1159745Y495251D01*
X1150595Y495835D02*
X1150595Y477285D01*
X1150595Y495835D02*
X1154745Y495835D01*
X1154745Y477285D01*
X1150595Y477285D01*
X1150595Y478667D02*
X1154745Y478667D01*
X1154745Y480049D02*
X1150595Y480049D01*
X1150595Y481431D02*
X1154745Y481431D01*
X1154745Y482813D02*
X1150595Y482813D01*
X1150595Y484195D02*
X1154745Y484195D01*
X1154745Y485577D02*
X1150595Y485577D01*
X1150595Y486959D02*
X1154745Y486959D01*
X1154745Y488341D02*
X1150595Y488341D01*
X1150595Y489723D02*
X1154745Y489723D01*
X1154745Y491105D02*
X1150595Y491105D01*
X1150595Y492487D02*
X1154745Y492487D01*
X1154745Y493869D02*
X1150595Y493869D01*
X1150595Y495251D02*
X1154745Y495251D01*
X1145595Y495835D02*
X1145595Y477285D01*
X1145595Y495835D02*
X1149745Y495835D01*
X1149745Y477285D01*
X1145595Y477285D01*
X1145595Y478667D02*
X1149745Y478667D01*
X1149745Y480049D02*
X1145595Y480049D01*
X1145595Y481431D02*
X1149745Y481431D01*
X1149745Y482813D02*
X1145595Y482813D01*
X1145595Y484195D02*
X1149745Y484195D01*
X1149745Y485577D02*
X1145595Y485577D01*
X1145595Y486959D02*
X1149745Y486959D01*
X1149745Y488341D02*
X1145595Y488341D01*
X1145595Y489723D02*
X1149745Y489723D01*
X1149745Y491105D02*
X1145595Y491105D01*
X1145595Y492487D02*
X1149745Y492487D01*
X1149745Y493869D02*
X1145595Y493869D01*
X1145595Y495251D02*
X1149745Y495251D01*
X1140595Y495835D02*
X1140595Y477285D01*
X1140595Y495835D02*
X1144745Y495835D01*
X1144745Y477285D01*
X1140595Y477285D01*
X1140595Y478667D02*
X1144745Y478667D01*
X1144745Y480049D02*
X1140595Y480049D01*
X1140595Y481431D02*
X1144745Y481431D01*
X1144745Y482813D02*
X1140595Y482813D01*
X1140595Y484195D02*
X1144745Y484195D01*
X1144745Y485577D02*
X1140595Y485577D01*
X1140595Y486959D02*
X1144745Y486959D01*
X1144745Y488341D02*
X1140595Y488341D01*
X1140595Y489723D02*
X1144745Y489723D01*
X1144745Y491105D02*
X1140595Y491105D01*
X1140595Y492487D02*
X1144745Y492487D01*
X1144745Y493869D02*
X1140595Y493869D01*
X1140595Y495251D02*
X1144745Y495251D01*
X1135595Y495835D02*
X1135595Y477285D01*
X1135595Y495835D02*
X1139745Y495835D01*
X1139745Y477285D01*
X1135595Y477285D01*
X1135595Y478667D02*
X1139745Y478667D01*
X1139745Y480049D02*
X1135595Y480049D01*
X1135595Y481431D02*
X1139745Y481431D01*
X1139745Y482813D02*
X1135595Y482813D01*
X1135595Y484195D02*
X1139745Y484195D01*
X1139745Y485577D02*
X1135595Y485577D01*
X1135595Y486959D02*
X1139745Y486959D01*
X1139745Y488341D02*
X1135595Y488341D01*
X1135595Y489723D02*
X1139745Y489723D01*
X1139745Y491105D02*
X1135595Y491105D01*
X1135595Y492487D02*
X1139745Y492487D01*
X1139745Y493869D02*
X1135595Y493869D01*
X1135595Y495251D02*
X1139745Y495251D01*
X1130595Y495835D02*
X1130595Y477285D01*
X1130595Y495835D02*
X1134745Y495835D01*
X1134745Y477285D01*
X1130595Y477285D01*
X1130595Y478667D02*
X1134745Y478667D01*
X1134745Y480049D02*
X1130595Y480049D01*
X1130595Y481431D02*
X1134745Y481431D01*
X1134745Y482813D02*
X1130595Y482813D01*
X1130595Y484195D02*
X1134745Y484195D01*
X1134745Y485577D02*
X1130595Y485577D01*
X1130595Y486959D02*
X1134745Y486959D01*
X1134745Y488341D02*
X1130595Y488341D01*
X1130595Y489723D02*
X1134745Y489723D01*
X1134745Y491105D02*
X1130595Y491105D01*
X1130595Y492487D02*
X1134745Y492487D01*
X1134745Y493869D02*
X1130595Y493869D01*
X1130595Y495251D02*
X1134745Y495251D01*
X1125595Y495835D02*
X1125595Y477285D01*
X1125595Y495835D02*
X1129745Y495835D01*
X1129745Y477285D01*
X1125595Y477285D01*
X1125595Y478667D02*
X1129745Y478667D01*
X1129745Y480049D02*
X1125595Y480049D01*
X1125595Y481431D02*
X1129745Y481431D01*
X1129745Y482813D02*
X1125595Y482813D01*
X1125595Y484195D02*
X1129745Y484195D01*
X1129745Y485577D02*
X1125595Y485577D01*
X1125595Y486959D02*
X1129745Y486959D01*
X1129745Y488341D02*
X1125595Y488341D01*
X1125595Y489723D02*
X1129745Y489723D01*
X1129745Y491105D02*
X1125595Y491105D01*
X1125595Y492487D02*
X1129745Y492487D01*
X1129745Y493869D02*
X1125595Y493869D01*
X1125595Y495251D02*
X1129745Y495251D01*
X1120595Y495835D02*
X1120595Y477285D01*
X1120595Y495835D02*
X1124745Y495835D01*
X1124745Y477285D01*
X1120595Y477285D01*
X1120595Y478667D02*
X1124745Y478667D01*
X1124745Y480049D02*
X1120595Y480049D01*
X1120595Y481431D02*
X1124745Y481431D01*
X1124745Y482813D02*
X1120595Y482813D01*
X1120595Y484195D02*
X1124745Y484195D01*
X1124745Y485577D02*
X1120595Y485577D01*
X1120595Y486959D02*
X1124745Y486959D01*
X1124745Y488341D02*
X1120595Y488341D01*
X1120595Y489723D02*
X1124745Y489723D01*
X1124745Y491105D02*
X1120595Y491105D01*
X1120595Y492487D02*
X1124745Y492487D01*
X1124745Y493869D02*
X1120595Y493869D01*
X1120595Y495251D02*
X1124745Y495251D01*
X1115595Y495835D02*
X1115595Y477285D01*
X1115595Y495835D02*
X1119745Y495835D01*
X1119745Y477285D01*
X1115595Y477285D01*
X1115595Y478667D02*
X1119745Y478667D01*
X1119745Y480049D02*
X1115595Y480049D01*
X1115595Y481431D02*
X1119745Y481431D01*
X1119745Y482813D02*
X1115595Y482813D01*
X1115595Y484195D02*
X1119745Y484195D01*
X1119745Y485577D02*
X1115595Y485577D01*
X1115595Y486959D02*
X1119745Y486959D01*
X1119745Y488341D02*
X1115595Y488341D01*
X1115595Y489723D02*
X1119745Y489723D01*
X1119745Y491105D02*
X1115595Y491105D01*
X1115595Y492487D02*
X1119745Y492487D01*
X1119745Y493869D02*
X1115595Y493869D01*
X1115595Y495251D02*
X1119745Y495251D01*
X1110595Y495835D02*
X1110595Y477285D01*
X1110595Y495835D02*
X1114745Y495835D01*
X1114745Y477285D01*
X1110595Y477285D01*
X1110595Y478667D02*
X1114745Y478667D01*
X1114745Y480049D02*
X1110595Y480049D01*
X1110595Y481431D02*
X1114745Y481431D01*
X1114745Y482813D02*
X1110595Y482813D01*
X1110595Y484195D02*
X1114745Y484195D01*
X1114745Y485577D02*
X1110595Y485577D01*
X1110595Y486959D02*
X1114745Y486959D01*
X1114745Y488341D02*
X1110595Y488341D01*
X1110595Y489723D02*
X1114745Y489723D01*
X1114745Y491105D02*
X1110595Y491105D01*
X1110595Y492487D02*
X1114745Y492487D01*
X1114745Y493869D02*
X1110595Y493869D01*
X1110595Y495251D02*
X1114745Y495251D01*
X1105595Y495835D02*
X1105595Y477285D01*
X1105595Y495835D02*
X1109745Y495835D01*
X1109745Y477285D01*
X1105595Y477285D01*
X1105595Y478667D02*
X1109745Y478667D01*
X1109745Y480049D02*
X1105595Y480049D01*
X1105595Y481431D02*
X1109745Y481431D01*
X1109745Y482813D02*
X1105595Y482813D01*
X1105595Y484195D02*
X1109745Y484195D01*
X1109745Y485577D02*
X1105595Y485577D01*
X1105595Y486959D02*
X1109745Y486959D01*
X1109745Y488341D02*
X1105595Y488341D01*
X1105595Y489723D02*
X1109745Y489723D01*
X1109745Y491105D02*
X1105595Y491105D01*
X1105595Y492487D02*
X1109745Y492487D01*
X1109745Y493869D02*
X1105595Y493869D01*
X1105595Y495251D02*
X1109745Y495251D01*
X1100595Y495835D02*
X1100595Y477285D01*
X1100595Y495835D02*
X1104745Y495835D01*
X1104745Y477285D01*
X1100595Y477285D01*
X1100595Y478667D02*
X1104745Y478667D01*
X1104745Y480049D02*
X1100595Y480049D01*
X1100595Y481431D02*
X1104745Y481431D01*
X1104745Y482813D02*
X1100595Y482813D01*
X1100595Y484195D02*
X1104745Y484195D01*
X1104745Y485577D02*
X1100595Y485577D01*
X1100595Y486959D02*
X1104745Y486959D01*
X1104745Y488341D02*
X1100595Y488341D01*
X1100595Y489723D02*
X1104745Y489723D01*
X1104745Y491105D02*
X1100595Y491105D01*
X1100595Y492487D02*
X1104745Y492487D01*
X1104745Y493869D02*
X1100595Y493869D01*
X1100595Y495251D02*
X1104745Y495251D01*
X1095595Y495835D02*
X1095595Y477285D01*
X1095595Y495835D02*
X1099745Y495835D01*
X1099745Y477285D01*
X1095595Y477285D01*
X1095595Y478667D02*
X1099745Y478667D01*
X1099745Y480049D02*
X1095595Y480049D01*
X1095595Y481431D02*
X1099745Y481431D01*
X1099745Y482813D02*
X1095595Y482813D01*
X1095595Y484195D02*
X1099745Y484195D01*
X1099745Y485577D02*
X1095595Y485577D01*
X1095595Y486959D02*
X1099745Y486959D01*
X1099745Y488341D02*
X1095595Y488341D01*
X1095595Y489723D02*
X1099745Y489723D01*
X1099745Y491105D02*
X1095595Y491105D01*
X1095595Y492487D02*
X1099745Y492487D01*
X1099745Y493869D02*
X1095595Y493869D01*
X1095595Y495251D02*
X1099745Y495251D01*
X1090595Y495835D02*
X1090595Y477285D01*
X1090595Y495835D02*
X1094745Y495835D01*
X1094745Y477285D01*
X1090595Y477285D01*
X1090595Y478667D02*
X1094745Y478667D01*
X1094745Y480049D02*
X1090595Y480049D01*
X1090595Y481431D02*
X1094745Y481431D01*
X1094745Y482813D02*
X1090595Y482813D01*
X1090595Y484195D02*
X1094745Y484195D01*
X1094745Y485577D02*
X1090595Y485577D01*
X1090595Y486959D02*
X1094745Y486959D01*
X1094745Y488341D02*
X1090595Y488341D01*
X1090595Y489723D02*
X1094745Y489723D01*
X1094745Y491105D02*
X1090595Y491105D01*
X1090595Y492487D02*
X1094745Y492487D01*
X1094745Y493869D02*
X1090595Y493869D01*
X1090595Y495251D02*
X1094745Y495251D01*
X1085595Y495835D02*
X1085595Y477285D01*
X1085595Y495835D02*
X1089745Y495835D01*
X1089745Y477285D01*
X1085595Y477285D01*
X1085595Y478667D02*
X1089745Y478667D01*
X1089745Y480049D02*
X1085595Y480049D01*
X1085595Y481431D02*
X1089745Y481431D01*
X1089745Y482813D02*
X1085595Y482813D01*
X1085595Y484195D02*
X1089745Y484195D01*
X1089745Y485577D02*
X1085595Y485577D01*
X1085595Y486959D02*
X1089745Y486959D01*
X1089745Y488341D02*
X1085595Y488341D01*
X1085595Y489723D02*
X1089745Y489723D01*
X1089745Y491105D02*
X1085595Y491105D01*
X1085595Y492487D02*
X1089745Y492487D01*
X1089745Y493869D02*
X1085595Y493869D01*
X1085595Y495251D02*
X1089745Y495251D01*
X1085595Y401535D02*
X1085595Y382985D01*
X1085595Y401535D02*
X1089745Y401535D01*
X1089745Y382985D01*
X1085595Y382985D01*
X1085595Y384367D02*
X1089745Y384367D01*
X1089745Y385749D02*
X1085595Y385749D01*
X1085595Y387131D02*
X1089745Y387131D01*
X1089745Y388513D02*
X1085595Y388513D01*
X1085595Y389895D02*
X1089745Y389895D01*
X1089745Y391277D02*
X1085595Y391277D01*
X1085595Y392659D02*
X1089745Y392659D01*
X1089745Y394041D02*
X1085595Y394041D01*
X1085595Y395423D02*
X1089745Y395423D01*
X1089745Y396805D02*
X1085595Y396805D01*
X1085595Y398187D02*
X1089745Y398187D01*
X1089745Y399569D02*
X1085595Y399569D01*
X1085595Y400951D02*
X1089745Y400951D01*
X1090595Y401535D02*
X1090595Y382985D01*
X1090595Y401535D02*
X1094745Y401535D01*
X1094745Y382985D01*
X1090595Y382985D01*
X1090595Y384367D02*
X1094745Y384367D01*
X1094745Y385749D02*
X1090595Y385749D01*
X1090595Y387131D02*
X1094745Y387131D01*
X1094745Y388513D02*
X1090595Y388513D01*
X1090595Y389895D02*
X1094745Y389895D01*
X1094745Y391277D02*
X1090595Y391277D01*
X1090595Y392659D02*
X1094745Y392659D01*
X1094745Y394041D02*
X1090595Y394041D01*
X1090595Y395423D02*
X1094745Y395423D01*
X1094745Y396805D02*
X1090595Y396805D01*
X1090595Y398187D02*
X1094745Y398187D01*
X1094745Y399569D02*
X1090595Y399569D01*
X1090595Y400951D02*
X1094745Y400951D01*
X1095595Y401535D02*
X1095595Y382985D01*
X1095595Y401535D02*
X1099745Y401535D01*
X1099745Y382985D01*
X1095595Y382985D01*
X1095595Y384367D02*
X1099745Y384367D01*
X1099745Y385749D02*
X1095595Y385749D01*
X1095595Y387131D02*
X1099745Y387131D01*
X1099745Y388513D02*
X1095595Y388513D01*
X1095595Y389895D02*
X1099745Y389895D01*
X1099745Y391277D02*
X1095595Y391277D01*
X1095595Y392659D02*
X1099745Y392659D01*
X1099745Y394041D02*
X1095595Y394041D01*
X1095595Y395423D02*
X1099745Y395423D01*
X1099745Y396805D02*
X1095595Y396805D01*
X1095595Y398187D02*
X1099745Y398187D01*
X1099745Y399569D02*
X1095595Y399569D01*
X1095595Y400951D02*
X1099745Y400951D01*
X1100595Y401535D02*
X1100595Y382985D01*
X1100595Y401535D02*
X1104745Y401535D01*
X1104745Y382985D01*
X1100595Y382985D01*
X1100595Y384367D02*
X1104745Y384367D01*
X1104745Y385749D02*
X1100595Y385749D01*
X1100595Y387131D02*
X1104745Y387131D01*
X1104745Y388513D02*
X1100595Y388513D01*
X1100595Y389895D02*
X1104745Y389895D01*
X1104745Y391277D02*
X1100595Y391277D01*
X1100595Y392659D02*
X1104745Y392659D01*
X1104745Y394041D02*
X1100595Y394041D01*
X1100595Y395423D02*
X1104745Y395423D01*
X1104745Y396805D02*
X1100595Y396805D01*
X1100595Y398187D02*
X1104745Y398187D01*
X1104745Y399569D02*
X1100595Y399569D01*
X1100595Y400951D02*
X1104745Y400951D01*
X1105595Y401535D02*
X1105595Y382985D01*
X1105595Y401535D02*
X1109745Y401535D01*
X1109745Y382985D01*
X1105595Y382985D01*
X1105595Y384367D02*
X1109745Y384367D01*
X1109745Y385749D02*
X1105595Y385749D01*
X1105595Y387131D02*
X1109745Y387131D01*
X1109745Y388513D02*
X1105595Y388513D01*
X1105595Y389895D02*
X1109745Y389895D01*
X1109745Y391277D02*
X1105595Y391277D01*
X1105595Y392659D02*
X1109745Y392659D01*
X1109745Y394041D02*
X1105595Y394041D01*
X1105595Y395423D02*
X1109745Y395423D01*
X1109745Y396805D02*
X1105595Y396805D01*
X1105595Y398187D02*
X1109745Y398187D01*
X1109745Y399569D02*
X1105595Y399569D01*
X1105595Y400951D02*
X1109745Y400951D01*
X1110595Y401535D02*
X1110595Y382985D01*
X1110595Y401535D02*
X1114745Y401535D01*
X1114745Y382985D01*
X1110595Y382985D01*
X1110595Y384367D02*
X1114745Y384367D01*
X1114745Y385749D02*
X1110595Y385749D01*
X1110595Y387131D02*
X1114745Y387131D01*
X1114745Y388513D02*
X1110595Y388513D01*
X1110595Y389895D02*
X1114745Y389895D01*
X1114745Y391277D02*
X1110595Y391277D01*
X1110595Y392659D02*
X1114745Y392659D01*
X1114745Y394041D02*
X1110595Y394041D01*
X1110595Y395423D02*
X1114745Y395423D01*
X1114745Y396805D02*
X1110595Y396805D01*
X1110595Y398187D02*
X1114745Y398187D01*
X1114745Y399569D02*
X1110595Y399569D01*
X1110595Y400951D02*
X1114745Y400951D01*
X1115595Y401535D02*
X1115595Y382985D01*
X1115595Y401535D02*
X1119745Y401535D01*
X1119745Y382985D01*
X1115595Y382985D01*
X1115595Y384367D02*
X1119745Y384367D01*
X1119745Y385749D02*
X1115595Y385749D01*
X1115595Y387131D02*
X1119745Y387131D01*
X1119745Y388513D02*
X1115595Y388513D01*
X1115595Y389895D02*
X1119745Y389895D01*
X1119745Y391277D02*
X1115595Y391277D01*
X1115595Y392659D02*
X1119745Y392659D01*
X1119745Y394041D02*
X1115595Y394041D01*
X1115595Y395423D02*
X1119745Y395423D01*
X1119745Y396805D02*
X1115595Y396805D01*
X1115595Y398187D02*
X1119745Y398187D01*
X1119745Y399569D02*
X1115595Y399569D01*
X1115595Y400951D02*
X1119745Y400951D01*
X1120595Y401535D02*
X1120595Y382985D01*
X1120595Y401535D02*
X1124745Y401535D01*
X1124745Y382985D01*
X1120595Y382985D01*
X1120595Y384367D02*
X1124745Y384367D01*
X1124745Y385749D02*
X1120595Y385749D01*
X1120595Y387131D02*
X1124745Y387131D01*
X1124745Y388513D02*
X1120595Y388513D01*
X1120595Y389895D02*
X1124745Y389895D01*
X1124745Y391277D02*
X1120595Y391277D01*
X1120595Y392659D02*
X1124745Y392659D01*
X1124745Y394041D02*
X1120595Y394041D01*
X1120595Y395423D02*
X1124745Y395423D01*
X1124745Y396805D02*
X1120595Y396805D01*
X1120595Y398187D02*
X1124745Y398187D01*
X1124745Y399569D02*
X1120595Y399569D01*
X1120595Y400951D02*
X1124745Y400951D01*
X1125595Y401535D02*
X1125595Y382985D01*
X1125595Y401535D02*
X1129745Y401535D01*
X1129745Y382985D01*
X1125595Y382985D01*
X1125595Y384367D02*
X1129745Y384367D01*
X1129745Y385749D02*
X1125595Y385749D01*
X1125595Y387131D02*
X1129745Y387131D01*
X1129745Y388513D02*
X1125595Y388513D01*
X1125595Y389895D02*
X1129745Y389895D01*
X1129745Y391277D02*
X1125595Y391277D01*
X1125595Y392659D02*
X1129745Y392659D01*
X1129745Y394041D02*
X1125595Y394041D01*
X1125595Y395423D02*
X1129745Y395423D01*
X1129745Y396805D02*
X1125595Y396805D01*
X1125595Y398187D02*
X1129745Y398187D01*
X1129745Y399569D02*
X1125595Y399569D01*
X1125595Y400951D02*
X1129745Y400951D01*
X1130595Y401535D02*
X1130595Y382985D01*
X1130595Y401535D02*
X1134745Y401535D01*
X1134745Y382985D01*
X1130595Y382985D01*
X1130595Y384367D02*
X1134745Y384367D01*
X1134745Y385749D02*
X1130595Y385749D01*
X1130595Y387131D02*
X1134745Y387131D01*
X1134745Y388513D02*
X1130595Y388513D01*
X1130595Y389895D02*
X1134745Y389895D01*
X1134745Y391277D02*
X1130595Y391277D01*
X1130595Y392659D02*
X1134745Y392659D01*
X1134745Y394041D02*
X1130595Y394041D01*
X1130595Y395423D02*
X1134745Y395423D01*
X1134745Y396805D02*
X1130595Y396805D01*
X1130595Y398187D02*
X1134745Y398187D01*
X1134745Y399569D02*
X1130595Y399569D01*
X1130595Y400951D02*
X1134745Y400951D01*
X1135595Y401535D02*
X1135595Y382985D01*
X1135595Y401535D02*
X1139745Y401535D01*
X1139745Y382985D01*
X1135595Y382985D01*
X1135595Y384367D02*
X1139745Y384367D01*
X1139745Y385749D02*
X1135595Y385749D01*
X1135595Y387131D02*
X1139745Y387131D01*
X1139745Y388513D02*
X1135595Y388513D01*
X1135595Y389895D02*
X1139745Y389895D01*
X1139745Y391277D02*
X1135595Y391277D01*
X1135595Y392659D02*
X1139745Y392659D01*
X1139745Y394041D02*
X1135595Y394041D01*
X1135595Y395423D02*
X1139745Y395423D01*
X1139745Y396805D02*
X1135595Y396805D01*
X1135595Y398187D02*
X1139745Y398187D01*
X1139745Y399569D02*
X1135595Y399569D01*
X1135595Y400951D02*
X1139745Y400951D01*
X1140595Y401535D02*
X1140595Y382985D01*
X1140595Y401535D02*
X1144745Y401535D01*
X1144745Y382985D01*
X1140595Y382985D01*
X1140595Y384367D02*
X1144745Y384367D01*
X1144745Y385749D02*
X1140595Y385749D01*
X1140595Y387131D02*
X1144745Y387131D01*
X1144745Y388513D02*
X1140595Y388513D01*
X1140595Y389895D02*
X1144745Y389895D01*
X1144745Y391277D02*
X1140595Y391277D01*
X1140595Y392659D02*
X1144745Y392659D01*
X1144745Y394041D02*
X1140595Y394041D01*
X1140595Y395423D02*
X1144745Y395423D01*
X1144745Y396805D02*
X1140595Y396805D01*
X1140595Y398187D02*
X1144745Y398187D01*
X1144745Y399569D02*
X1140595Y399569D01*
X1140595Y400951D02*
X1144745Y400951D01*
X1145595Y401535D02*
X1145595Y382985D01*
X1145595Y401535D02*
X1149745Y401535D01*
X1149745Y382985D01*
X1145595Y382985D01*
X1145595Y384367D02*
X1149745Y384367D01*
X1149745Y385749D02*
X1145595Y385749D01*
X1145595Y387131D02*
X1149745Y387131D01*
X1149745Y388513D02*
X1145595Y388513D01*
X1145595Y389895D02*
X1149745Y389895D01*
X1149745Y391277D02*
X1145595Y391277D01*
X1145595Y392659D02*
X1149745Y392659D01*
X1149745Y394041D02*
X1145595Y394041D01*
X1145595Y395423D02*
X1149745Y395423D01*
X1149745Y396805D02*
X1145595Y396805D01*
X1145595Y398187D02*
X1149745Y398187D01*
X1149745Y399569D02*
X1145595Y399569D01*
X1145595Y400951D02*
X1149745Y400951D01*
X1150595Y401535D02*
X1150595Y382985D01*
X1150595Y401535D02*
X1154745Y401535D01*
X1154745Y382985D01*
X1150595Y382985D01*
X1150595Y384367D02*
X1154745Y384367D01*
X1154745Y385749D02*
X1150595Y385749D01*
X1150595Y387131D02*
X1154745Y387131D01*
X1154745Y388513D02*
X1150595Y388513D01*
X1150595Y389895D02*
X1154745Y389895D01*
X1154745Y391277D02*
X1150595Y391277D01*
X1150595Y392659D02*
X1154745Y392659D01*
X1154745Y394041D02*
X1150595Y394041D01*
X1150595Y395423D02*
X1154745Y395423D01*
X1154745Y396805D02*
X1150595Y396805D01*
X1150595Y398187D02*
X1154745Y398187D01*
X1154745Y399569D02*
X1150595Y399569D01*
X1150595Y400951D02*
X1154745Y400951D01*
X1155595Y401535D02*
X1155595Y382985D01*
X1155595Y401535D02*
X1159745Y401535D01*
X1159745Y382985D01*
X1155595Y382985D01*
X1155595Y384367D02*
X1159745Y384367D01*
X1159745Y385749D02*
X1155595Y385749D01*
X1155595Y387131D02*
X1159745Y387131D01*
X1159745Y388513D02*
X1155595Y388513D01*
X1155595Y389895D02*
X1159745Y389895D01*
X1159745Y391277D02*
X1155595Y391277D01*
X1155595Y392659D02*
X1159745Y392659D01*
X1159745Y394041D02*
X1155595Y394041D01*
X1155595Y395423D02*
X1159745Y395423D01*
X1159745Y396805D02*
X1155595Y396805D01*
X1155595Y398187D02*
X1159745Y398187D01*
X1159745Y399569D02*
X1155595Y399569D01*
X1155595Y400951D02*
X1159745Y400951D01*
X1160595Y401535D02*
X1160595Y382985D01*
X1160595Y401535D02*
X1164745Y401535D01*
X1164745Y382985D01*
X1160595Y382985D01*
X1160595Y384367D02*
X1164745Y384367D01*
X1164745Y385749D02*
X1160595Y385749D01*
X1160595Y387131D02*
X1164745Y387131D01*
X1164745Y388513D02*
X1160595Y388513D01*
X1160595Y389895D02*
X1164745Y389895D01*
X1164745Y391277D02*
X1160595Y391277D01*
X1160595Y392659D02*
X1164745Y392659D01*
X1164745Y394041D02*
X1160595Y394041D01*
X1160595Y395423D02*
X1164745Y395423D01*
X1164745Y396805D02*
X1160595Y396805D01*
X1160595Y398187D02*
X1164745Y398187D01*
X1164745Y399569D02*
X1160595Y399569D01*
X1160595Y400951D02*
X1164745Y400951D01*
X1165595Y401535D02*
X1165595Y382985D01*
X1165595Y401535D02*
X1169745Y401535D01*
X1169745Y382985D01*
X1165595Y382985D01*
X1165595Y384367D02*
X1169745Y384367D01*
X1169745Y385749D02*
X1165595Y385749D01*
X1165595Y387131D02*
X1169745Y387131D01*
X1169745Y388513D02*
X1165595Y388513D01*
X1165595Y389895D02*
X1169745Y389895D01*
X1169745Y391277D02*
X1165595Y391277D01*
X1165595Y392659D02*
X1169745Y392659D01*
X1169745Y394041D02*
X1165595Y394041D01*
X1165595Y395423D02*
X1169745Y395423D01*
X1169745Y396805D02*
X1165595Y396805D01*
X1165595Y398187D02*
X1169745Y398187D01*
X1169745Y399569D02*
X1165595Y399569D01*
X1165595Y400951D02*
X1169745Y400951D01*
X1170595Y401535D02*
X1170595Y382985D01*
X1170595Y401535D02*
X1174745Y401535D01*
X1174745Y382985D01*
X1170595Y382985D01*
X1170595Y384367D02*
X1174745Y384367D01*
X1174745Y385749D02*
X1170595Y385749D01*
X1170595Y387131D02*
X1174745Y387131D01*
X1174745Y388513D02*
X1170595Y388513D01*
X1170595Y389895D02*
X1174745Y389895D01*
X1174745Y391277D02*
X1170595Y391277D01*
X1170595Y392659D02*
X1174745Y392659D01*
X1174745Y394041D02*
X1170595Y394041D01*
X1170595Y395423D02*
X1174745Y395423D01*
X1174745Y396805D02*
X1170595Y396805D01*
X1170595Y398187D02*
X1174745Y398187D01*
X1174745Y399569D02*
X1170595Y399569D01*
X1170595Y400951D02*
X1174745Y400951D01*
D31*
X1122932Y414648D02*
X1122932Y464172D01*
X1122932Y414648D02*
X1091408Y414648D01*
X1091408Y464172D01*
X1122932Y464172D01*
X1122932Y425155D02*
X1091408Y425155D01*
X1091408Y435662D02*
X1122932Y435662D01*
X1122932Y446169D02*
X1091408Y446169D01*
X1091408Y456676D02*
X1122932Y456676D01*
D32*
X1170682Y465922D02*
X1170682Y444898D01*
X1135658Y444898D01*
X1135658Y465922D01*
X1170682Y465922D01*
X1170682Y451905D02*
X1135658Y451905D01*
X1135658Y458912D02*
X1170682Y458912D01*
X1170682Y465919D02*
X1135658Y465919D01*
X1170682Y433922D02*
X1170682Y412898D01*
X1135658Y412898D01*
X1135658Y433922D01*
X1170682Y433922D01*
X1170682Y419905D02*
X1135658Y419905D01*
X1135658Y426912D02*
X1170682Y426912D01*
X1170682Y433919D02*
X1135658Y433919D01*
D11*
X658810Y194096D03*
X684210Y194096D03*
X709610Y194096D03*
X760410Y194096D03*
X735010Y194096D03*
X785810Y194096D03*
X811210Y194096D03*
X836610Y194096D03*
X963610Y194096D03*
X989010Y194096D03*
X1014410Y194096D03*
X1065210Y194096D03*
X1039810Y194096D03*
X1090610Y194096D03*
X1116010Y194096D03*
X1141410Y194096D03*
X658810Y676696D03*
X684210Y676696D03*
X709610Y676696D03*
X735010Y676696D03*
X760410Y676696D03*
X811210Y676696D03*
X785810Y676696D03*
X836610Y676696D03*
X862010Y676696D03*
X887410Y676696D03*
X912810Y676696D03*
X938210Y676696D03*
X963610Y676696D03*
X989010Y676696D03*
X1014410Y676696D03*
X1065210Y676696D03*
X1039810Y676696D03*
X1090610Y676696D03*
X1116010Y676696D03*
X1141410Y676696D03*
X899970Y1426200D03*
X874570Y1426200D03*
X925370Y1426200D03*
X1041910Y1430020D03*
X1017376Y1436594D03*
X1066445Y1423446D03*
X1211330Y1438910D03*
X1189333Y1451610D03*
X1233327Y1426210D03*
X1450590Y1450340D03*
X1432630Y1468301D03*
X1468551Y1432379D03*
X1598170Y1303530D03*
X1585470Y1325527D03*
X1610870Y1281533D03*
X1679190Y1108710D03*
X1672616Y1133245D03*
X1685764Y1084175D03*
X1706880Y899920D03*
X1706880Y925320D03*
X1706880Y874520D03*
X1678940Y691130D03*
X1685514Y715665D03*
X1672366Y666595D03*
X1598680Y496570D03*
X1611380Y518567D03*
X1585980Y474573D03*
X1470410Y329690D03*
X1488371Y347651D03*
X1452450Y311729D03*
X1303270Y201680D03*
X1325267Y214380D03*
X1281273Y188980D03*
X1108710Y120900D03*
X1133245Y127474D03*
X1084176Y114326D03*
X899920Y93730D03*
X925320Y93730D03*
X874520Y93730D03*
X691390Y121160D03*
X715925Y114586D03*
X666856Y127734D03*
X496570Y201680D03*
X518567Y188980D03*
X474573Y214380D03*
X329690Y329690D03*
X347651Y311729D03*
X311730Y347651D03*
X201680Y496570D03*
X214380Y474573D03*
X188980Y518567D03*
X120900Y691130D03*
X127474Y666595D03*
X114326Y715665D03*
X93730Y899920D03*
X93730Y874520D03*
X93730Y925320D03*
X121160Y1108710D03*
X114586Y1084175D03*
X127734Y1133245D03*
X201680Y1303270D03*
X188980Y1281273D03*
X214380Y1325267D03*
X349690Y1450410D03*
X331730Y1432449D03*
X367651Y1468371D03*
X588770Y1438910D03*
X566773Y1426210D03*
X610767Y1451610D03*
X758190Y1429770D03*
X733656Y1423196D03*
X782725Y1436344D03*
D14*
X924170Y1407660D03*
X907170Y1407660D03*
G36*
X1055544Y1403567D02*
X1068131Y1400194D01*
X1065016Y1388573D01*
X1052429Y1391946D01*
X1055544Y1403567D01*
G37*
G36*
X1039124Y1407967D02*
X1051711Y1404594D01*
X1048596Y1392973D01*
X1036009Y1396346D01*
X1039124Y1407967D01*
G37*
G36*
X1215546Y1415698D02*
X1226832Y1409182D01*
X1220816Y1398762D01*
X1209530Y1405278D01*
X1215546Y1415698D01*
G37*
G36*
X1200824Y1424198D02*
X1212110Y1417682D01*
X1206094Y1407262D01*
X1194808Y1413778D01*
X1200824Y1424198D01*
G37*
G36*
X1449907Y1426271D02*
X1459121Y1417057D01*
X1450613Y1408549D01*
X1441399Y1417763D01*
X1449907Y1426271D01*
G37*
G36*
X1437887Y1438291D02*
X1447101Y1429077D01*
X1438593Y1420569D01*
X1429379Y1429783D01*
X1437887Y1438291D01*
G37*
G36*
X1590662Y1281700D02*
X1597178Y1270414D01*
X1586758Y1264398D01*
X1580242Y1275684D01*
X1590662Y1281700D01*
G37*
G36*
X1582162Y1296422D02*
X1588678Y1285136D01*
X1578258Y1279120D01*
X1571742Y1290406D01*
X1582162Y1296422D01*
G37*
G36*
X1664694Y1089301D02*
X1668067Y1076714D01*
X1656446Y1073599D01*
X1653073Y1086186D01*
X1664694Y1089301D01*
G37*
G36*
X1660294Y1105721D02*
X1663667Y1093134D01*
X1652046Y1090019D01*
X1648673Y1102606D01*
X1660294Y1105721D01*
G37*
D29*
X1684280Y876180D03*
X1684280Y893180D03*
D14*
G36*
X1657307Y682326D02*
X1653934Y669739D01*
X1642313Y672854D01*
X1645686Y685441D01*
X1657307Y682326D01*
G37*
G36*
X1661707Y698746D02*
X1658334Y686159D01*
X1646713Y689274D01*
X1650086Y701861D01*
X1661707Y698746D01*
G37*
G36*
X1575968Y492604D02*
X1569452Y481318D01*
X1559032Y487334D01*
X1565548Y498620D01*
X1575968Y492604D01*
G37*
G36*
X1584468Y507326D02*
X1577952Y496040D01*
X1567532Y502056D01*
X1574048Y513342D01*
X1584468Y507326D01*
G37*
G36*
X1452181Y334703D02*
X1442967Y325489D01*
X1434459Y333997D01*
X1443673Y343211D01*
X1452181Y334703D01*
G37*
G36*
X1464201Y346723D02*
X1454987Y337509D01*
X1446479Y346017D01*
X1455693Y355231D01*
X1464201Y346723D01*
G37*
G36*
X1282460Y207408D02*
X1271174Y200892D01*
X1265158Y211312D01*
X1276444Y217828D01*
X1282460Y207408D01*
G37*
G36*
X1297182Y215908D02*
X1285896Y209392D01*
X1279880Y219812D01*
X1291166Y226328D01*
X1297182Y215908D01*
G37*
G36*
X1076559Y93704D02*
X1089146Y97077D01*
X1092261Y85456D01*
X1079674Y82083D01*
X1076559Y93704D01*
G37*
G36*
X1060139Y89304D02*
X1072726Y92677D01*
X1075841Y81056D01*
X1063254Y77683D01*
X1060139Y89304D01*
G37*
D29*
X836420Y100700D03*
X836420Y83700D03*
D14*
G36*
X633263Y126664D02*
X636636Y139251D01*
X648257Y136136D01*
X644884Y123549D01*
X633263Y126664D01*
G37*
G36*
X628863Y110244D02*
X632236Y122831D01*
X643857Y119716D01*
X640484Y107129D01*
X628863Y110244D01*
G37*
G36*
X491594Y229212D02*
X480308Y235728D01*
X486324Y246148D01*
X497610Y239632D01*
X491594Y229212D01*
G37*
G36*
X506316Y220712D02*
X495030Y227228D01*
X501046Y237648D01*
X512332Y231132D01*
X506316Y220712D01*
G37*
G36*
X333433Y352489D02*
X324219Y361703D01*
X332727Y370211D01*
X341941Y360997D01*
X333433Y352489D01*
G37*
G36*
X345453Y340469D02*
X336239Y349683D01*
X344747Y358191D01*
X353961Y348977D01*
X345453Y340469D01*
G37*
G36*
X212998Y518650D02*
X206482Y529936D01*
X216902Y535952D01*
X223418Y524666D01*
X212998Y518650D01*
G37*
G36*
X221498Y503928D02*
X214982Y515214D01*
X225402Y521230D01*
X231918Y509944D01*
X221498Y503928D01*
G37*
G36*
X136426Y712069D02*
X133053Y724656D01*
X144674Y727771D01*
X148047Y715184D01*
X136426Y712069D01*
G37*
G36*
X140826Y695649D02*
X137453Y708236D01*
X149074Y711351D01*
X152447Y698764D01*
X140826Y695649D01*
G37*
D29*
X120140Y920870D03*
X120140Y903870D03*
D14*
G36*
X143803Y1119034D02*
X147176Y1131621D01*
X158797Y1128506D01*
X155424Y1115919D01*
X143803Y1119034D01*
G37*
G36*
X139403Y1102614D02*
X142776Y1115201D01*
X154397Y1112086D01*
X151024Y1099499D01*
X139403Y1102614D01*
G37*
G36*
X177646Y1260098D02*
X188932Y1253582D01*
X182916Y1243162D01*
X171630Y1249678D01*
X177646Y1260098D01*
G37*
G36*
X162924Y1268598D02*
X174210Y1262082D01*
X168194Y1251662D01*
X156908Y1258178D01*
X162924Y1268598D01*
G37*
G36*
X374339Y1447357D02*
X383553Y1456571D01*
X392061Y1448063D01*
X382847Y1438849D01*
X374339Y1447357D01*
G37*
G36*
X362319Y1435337D02*
X371533Y1444551D01*
X380041Y1436043D01*
X370827Y1426829D01*
X362319Y1435337D01*
G37*
G36*
X612380Y1433432D02*
X623666Y1439948D01*
X629682Y1429528D01*
X618396Y1423012D01*
X612380Y1433432D01*
G37*
G36*
X597658Y1424932D02*
X608944Y1431448D01*
X614960Y1421028D01*
X603674Y1414512D01*
X597658Y1424932D01*
G37*
G36*
X780649Y1419064D02*
X793236Y1422437D01*
X796351Y1410816D01*
X783764Y1407443D01*
X780649Y1419064D01*
G37*
G36*
X764229Y1414664D02*
X776816Y1418037D01*
X779931Y1406416D01*
X767344Y1403043D01*
X764229Y1414664D01*
G37*
D36*
X925390Y1460960D03*
X873850Y1460960D03*
X873850Y1492960D03*
X925390Y1492960D03*
X1272098Y1460828D03*
X1220558Y1460828D03*
X1220558Y1492828D03*
X1272098Y1492828D03*
G36*
X1640441Y1308127D02*
X1649712Y1292071D01*
X1639293Y1286055D01*
X1630022Y1302111D01*
X1640441Y1308127D01*
G37*
G36*
X1614671Y1352761D02*
X1623942Y1336705D01*
X1613523Y1330689D01*
X1604252Y1346745D01*
X1614671Y1352761D01*
G37*
G36*
X1642383Y1368761D02*
X1651654Y1352705D01*
X1641235Y1346689D01*
X1631964Y1362745D01*
X1642383Y1368761D01*
G37*
G36*
X1668153Y1324127D02*
X1677424Y1308071D01*
X1667005Y1302055D01*
X1657734Y1318111D01*
X1668153Y1324127D01*
G37*
D37*
X1740914Y873390D03*
X1740914Y924930D03*
X1772914Y924930D03*
X1772914Y873390D03*
D36*
G36*
X1624448Y461619D02*
X1615177Y445563D01*
X1604758Y451579D01*
X1614029Y467635D01*
X1624448Y461619D01*
G37*
G36*
X1650218Y506253D02*
X1640947Y490197D01*
X1630528Y496213D01*
X1639799Y512269D01*
X1650218Y506253D01*
G37*
G36*
X1677930Y490253D02*
X1668659Y474197D01*
X1658240Y480213D01*
X1667511Y496269D01*
X1677930Y490253D01*
G37*
G36*
X1652160Y445619D02*
X1642889Y429563D01*
X1632470Y435579D01*
X1641741Y451635D01*
X1652160Y445619D01*
G37*
G36*
X1308883Y157115D02*
X1292827Y147844D01*
X1286811Y158263D01*
X1302867Y167534D01*
X1308883Y157115D01*
G37*
G36*
X1353517Y182885D02*
X1337461Y173614D01*
X1331445Y184033D01*
X1347501Y193304D01*
X1353517Y182885D01*
G37*
G36*
X1369517Y155173D02*
X1353461Y145902D01*
X1347445Y156321D01*
X1363501Y165592D01*
X1369517Y155173D01*
G37*
G36*
X1324883Y129403D02*
X1308827Y120132D01*
X1302811Y130551D01*
X1318867Y139822D01*
X1324883Y129403D01*
G37*
X873902Y59178D03*
X925442Y59178D03*
X925442Y27178D03*
X873902Y27178D03*
G36*
X461869Y175396D02*
X445813Y184667D01*
X451829Y195086D01*
X467885Y185815D01*
X461869Y175396D01*
G37*
G36*
X506503Y149626D02*
X490447Y158897D01*
X496463Y169316D01*
X512519Y160045D01*
X506503Y149626D01*
G37*
G36*
X490503Y121914D02*
X474447Y131185D01*
X480463Y141604D01*
X496519Y132333D01*
X490503Y121914D01*
G37*
G36*
X445869Y147684D02*
X429813Y156955D01*
X435829Y167374D01*
X451885Y158103D01*
X445869Y147684D01*
G37*
G36*
X159397Y491463D02*
X150126Y507519D01*
X160545Y513535D01*
X169816Y497479D01*
X159397Y491463D01*
G37*
G36*
X185167Y446829D02*
X175896Y462885D01*
X186315Y468901D01*
X195586Y452845D01*
X185167Y446829D01*
G37*
G36*
X157455Y430829D02*
X148184Y446885D01*
X158603Y452901D01*
X167874Y436845D01*
X157455Y430829D01*
G37*
G36*
X131685Y475463D02*
X122414Y491519D01*
X132833Y497535D01*
X142104Y481479D01*
X131685Y475463D01*
G37*
D37*
X58164Y925440D03*
X58164Y873900D03*
X26164Y873900D03*
X26164Y925440D03*
D36*
G36*
X174628Y1336697D02*
X183899Y1352753D01*
X194318Y1346737D01*
X185047Y1330681D01*
X174628Y1336697D01*
G37*
G36*
X148858Y1292063D02*
X158129Y1308119D01*
X168548Y1302103D01*
X159277Y1286047D01*
X148858Y1292063D01*
G37*
G36*
X121146Y1308063D02*
X130417Y1324119D01*
X140836Y1318103D01*
X131565Y1302047D01*
X121146Y1308063D01*
G37*
G36*
X146916Y1352697D02*
X156187Y1368753D01*
X166606Y1362737D01*
X157335Y1346681D01*
X146916Y1352697D01*
G37*
X582032Y1460502D03*
X530492Y1460502D03*
X530492Y1492502D03*
X582032Y1492502D03*
D14*
G36*
X206808Y1360734D02*
X200292Y1349448D01*
X189872Y1355464D01*
X196388Y1366750D01*
X206808Y1360734D01*
G37*
G36*
X215308Y1375456D02*
X208792Y1364170D01*
X198372Y1370186D01*
X204888Y1381472D01*
X215308Y1375456D01*
G37*
G36*
X1648608Y1268970D02*
X1642092Y1280256D01*
X1652512Y1286272D01*
X1659028Y1274986D01*
X1648608Y1268970D01*
G37*
G36*
X1657108Y1254248D02*
X1650592Y1265534D01*
X1661012Y1271550D01*
X1667528Y1260264D01*
X1657108Y1254248D01*
G37*
X606940Y1479300D03*
X623940Y1479300D03*
D29*
X1278390Y1441570D03*
X1278390Y1424570D03*
D14*
X952890Y1461160D03*
X969890Y1461160D03*
D29*
X57660Y950350D03*
X57660Y967350D03*
X1742190Y849750D03*
X1742190Y832750D03*
D14*
G36*
X1266680Y148692D02*
X1277966Y155208D01*
X1283982Y144788D01*
X1272696Y138272D01*
X1266680Y148692D01*
G37*
G36*
X1251958Y140192D02*
X1263244Y146708D01*
X1269260Y136288D01*
X1257974Y129772D01*
X1251958Y140192D01*
G37*
G36*
X1594202Y433476D02*
X1600718Y444762D01*
X1611138Y438746D01*
X1604622Y427460D01*
X1594202Y433476D01*
G37*
G36*
X1585702Y418754D02*
X1592218Y430040D01*
X1602638Y424024D01*
X1596122Y412738D01*
X1585702Y418754D01*
G37*
X851270Y59430D03*
X834270Y59430D03*
G36*
X434236Y205888D02*
X445522Y199372D01*
X439506Y188952D01*
X428220Y195468D01*
X434236Y205888D01*
G37*
G36*
X419514Y214388D02*
X430800Y207872D01*
X424784Y197452D01*
X413498Y203968D01*
X419514Y214388D01*
G37*
G36*
X156212Y529970D02*
X162728Y518684D01*
X152308Y512668D01*
X145792Y523954D01*
X156212Y529970D01*
G37*
G36*
X147712Y544692D02*
X154228Y533406D01*
X143808Y527390D01*
X137292Y538676D01*
X147712Y544692D01*
G37*
D29*
X488950Y1418200D03*
X488950Y1401200D03*
D38*
X447200Y1397660D03*
X466200Y1397660D03*
X456700Y1418660D03*
D29*
X426470Y1401200D03*
X426470Y1418200D03*
D14*
X449460Y1375920D03*
X466460Y1375920D03*
D39*
X1351510Y633480D03*
D40*
X1371510Y633480D03*
X1391510Y633480D03*
X1411510Y633480D03*
D39*
X1351760Y485140D03*
D40*
X1371760Y485140D03*
X1391760Y485140D03*
X1411760Y485140D03*
D39*
X1351510Y559560D03*
D40*
X1371510Y559560D03*
X1391510Y559560D03*
X1411510Y559560D03*
D39*
X1351760Y411980D03*
D40*
X1371760Y411980D03*
X1391760Y411980D03*
X1411760Y411980D03*
D12*
X1231900Y600950D03*
D13*
X1231900Y561350D03*
D12*
X1001770Y602220D03*
D13*
X1001770Y562620D03*
D12*
X1230890Y464550D03*
D13*
X1230890Y424950D03*
D12*
X1230630Y332470D03*
D13*
X1230630Y292870D03*
D12*
X393700Y465830D03*
D13*
X393700Y426230D03*
D12*
X371090Y579870D03*
D13*
X371090Y540270D03*
D14*
X394830Y1293370D03*
X377830Y1293370D03*
X596510Y1292350D03*
X579510Y1292350D03*
X1217890Y1293620D03*
X1200890Y1293620D03*
D29*
X1425700Y1293230D03*
X1425700Y1276230D03*
D41*
X277460Y1302660D03*
X277460Y1321660D03*
X256460Y1312160D03*
X257400Y1263550D03*
X257400Y1282550D03*
X236400Y1273050D03*
D28*
X408029Y1454921D02*
X416451Y1454921D01*
X416451Y1446499D01*
X408029Y1446499D01*
X408029Y1454921D01*
X408029Y1450108D02*
X416451Y1450108D01*
X416451Y1453717D02*
X408029Y1453717D01*
X408029Y1472461D02*
X416451Y1472461D01*
X416451Y1464039D01*
X408029Y1464039D01*
X408029Y1472461D01*
X408029Y1467648D02*
X416451Y1467648D01*
X416451Y1471257D02*
X408029Y1471257D01*
D29*
X436880Y1451240D03*
X436880Y1468240D03*
D28*
X1311759Y1455691D02*
X1320181Y1455691D01*
X1320181Y1447269D01*
X1311759Y1447269D01*
X1311759Y1455691D01*
X1311759Y1450878D02*
X1320181Y1450878D01*
X1320181Y1454487D02*
X1311759Y1454487D01*
X1311759Y1473231D02*
X1320181Y1473231D01*
X1320181Y1464809D01*
X1311759Y1464809D01*
X1311759Y1473231D01*
X1311759Y1468418D02*
X1320181Y1468418D01*
X1320181Y1472027D02*
X1311759Y1472027D01*
D29*
X1339340Y1451240D03*
X1339340Y1468240D03*
D28*
X1706891Y839621D02*
X1706891Y831199D01*
X1698469Y831199D01*
X1698469Y839621D01*
X1706891Y839621D01*
X1706891Y834808D02*
X1698469Y834808D01*
X1698469Y838417D02*
X1706891Y838417D01*
X1724431Y839621D02*
X1724431Y831199D01*
X1716009Y831199D01*
X1716009Y839621D01*
X1724431Y839621D01*
X1724431Y834808D02*
X1716009Y834808D01*
X1716009Y838417D02*
X1724431Y838417D01*
D14*
X1702950Y812550D03*
X1719950Y812550D03*
D28*
X1415941Y261609D02*
X1407519Y261609D01*
X1407519Y270031D01*
X1415941Y270031D01*
X1415941Y261609D01*
X1415941Y265218D02*
X1407519Y265218D01*
X1407519Y268827D02*
X1415941Y268827D01*
X1415941Y244069D02*
X1407519Y244069D01*
X1407519Y252491D01*
X1415941Y252491D01*
X1415941Y244069D01*
X1415941Y247678D02*
X1407519Y247678D01*
X1407519Y251287D02*
X1415941Y251287D01*
D29*
X1389890Y265800D03*
X1389890Y248800D03*
D28*
X441601Y265419D02*
X433179Y265419D01*
X433179Y273841D01*
X441601Y273841D01*
X441601Y265419D01*
X441601Y269028D02*
X433179Y269028D01*
X433179Y272637D02*
X441601Y272637D01*
X441601Y247879D02*
X433179Y247879D01*
X433179Y256301D01*
X441601Y256301D01*
X441601Y247879D01*
X441601Y251488D02*
X433179Y251488D01*
X433179Y255097D02*
X441601Y255097D01*
D29*
X415040Y269610D03*
X415040Y252610D03*
D28*
X97519Y773279D02*
X97519Y781701D01*
X105941Y781701D01*
X105941Y773279D01*
X97519Y773279D01*
X97519Y776888D02*
X105941Y776888D01*
X105941Y780497D02*
X97519Y780497D01*
X79979Y781701D02*
X79979Y773279D01*
X79979Y781701D02*
X88401Y781701D01*
X88401Y773279D01*
X79979Y773279D01*
X79979Y776888D02*
X88401Y776888D01*
X88401Y780497D02*
X79979Y780497D01*
D14*
X101210Y798320D03*
X84210Y798320D03*
D28*
X455779Y1455181D02*
X464201Y1455181D01*
X464201Y1446759D01*
X455779Y1446759D01*
X455779Y1455181D01*
X455779Y1450368D02*
X464201Y1450368D01*
X464201Y1453977D02*
X455779Y1453977D01*
X455779Y1472721D02*
X464201Y1472721D01*
X464201Y1464299D01*
X455779Y1464299D01*
X455779Y1472721D01*
X455779Y1467908D02*
X464201Y1467908D01*
X464201Y1471517D02*
X455779Y1471517D01*
D29*
X483870Y1451750D03*
X483870Y1468750D03*
D28*
X1355959Y1455431D02*
X1364381Y1455431D01*
X1364381Y1447009D01*
X1355959Y1447009D01*
X1355959Y1455431D01*
X1355959Y1450618D02*
X1364381Y1450618D01*
X1364381Y1454227D02*
X1355959Y1454227D01*
X1355959Y1472971D02*
X1364381Y1472971D01*
X1364381Y1464549D01*
X1355959Y1464549D01*
X1355959Y1472971D01*
X1355959Y1468158D02*
X1364381Y1468158D01*
X1364381Y1471767D02*
X1355959Y1471767D01*
D29*
X1383030Y1451750D03*
X1383030Y1468750D03*
D28*
X1706381Y792631D02*
X1706381Y784209D01*
X1697959Y784209D01*
X1697959Y792631D01*
X1706381Y792631D01*
X1706381Y787818D02*
X1697959Y787818D01*
X1697959Y791427D02*
X1706381Y791427D01*
X1723921Y792631D02*
X1723921Y784209D01*
X1715499Y784209D01*
X1715499Y792631D01*
X1723921Y792631D01*
X1723921Y787818D02*
X1715499Y787818D01*
X1715499Y791427D02*
X1723921Y791427D01*
D14*
X1702440Y765300D03*
X1719440Y765300D03*
D28*
X1371751Y261099D02*
X1363329Y261099D01*
X1363329Y269521D01*
X1371751Y269521D01*
X1371751Y261099D01*
X1371751Y264708D02*
X1363329Y264708D01*
X1363329Y268317D02*
X1371751Y268317D01*
X1371751Y243559D02*
X1363329Y243559D01*
X1363329Y251981D01*
X1371751Y251981D01*
X1371751Y243559D01*
X1371751Y247168D02*
X1363329Y247168D01*
X1363329Y250777D02*
X1371751Y250777D01*
D29*
X1344930Y265290D03*
X1344930Y248290D03*
D28*
X397401Y265929D02*
X388979Y265929D01*
X388979Y274351D01*
X397401Y274351D01*
X397401Y265929D01*
X397401Y269538D02*
X388979Y269538D01*
X388979Y273147D02*
X397401Y273147D01*
X397401Y248389D02*
X388979Y248389D01*
X388979Y256811D01*
X397401Y256811D01*
X397401Y248389D01*
X397401Y251998D02*
X388979Y251998D01*
X388979Y255607D02*
X397401Y255607D01*
D29*
X372110Y268850D03*
X372110Y251850D03*
D28*
X97269Y815699D02*
X97269Y824121D01*
X105691Y824121D01*
X105691Y815699D01*
X97269Y815699D01*
X97269Y819308D02*
X105691Y819308D01*
X105691Y822917D02*
X97269Y822917D01*
X79729Y824121D02*
X79729Y815699D01*
X79729Y824121D02*
X88151Y824121D01*
X88151Y815699D01*
X79729Y815699D01*
X79729Y819308D02*
X88151Y819308D01*
X88151Y822917D02*
X79729Y822917D01*
D14*
X101210Y841500D03*
X84210Y841500D03*
D28*
X220991Y1213209D02*
X220991Y1221631D01*
X220991Y1213209D02*
X212569Y1213209D01*
X212569Y1221631D01*
X220991Y1221631D01*
X220991Y1216818D02*
X212569Y1216818D01*
X212569Y1220427D02*
X220991Y1220427D01*
X238531Y1221631D02*
X238531Y1213209D01*
X230109Y1213209D01*
X230109Y1221631D01*
X238531Y1221631D01*
X238531Y1216818D02*
X230109Y1216818D01*
X230109Y1220427D02*
X238531Y1220427D01*
D14*
X272910Y1217420D03*
X255910Y1217420D03*
D28*
X221251Y1196491D02*
X221251Y1188069D01*
X212829Y1188069D01*
X212829Y1196491D01*
X221251Y1196491D01*
X221251Y1191678D02*
X212829Y1191678D01*
X212829Y1195287D02*
X221251Y1195287D01*
X238791Y1196491D02*
X238791Y1188069D01*
X230369Y1188069D01*
X230369Y1196491D01*
X238791Y1196491D01*
X238791Y1191678D02*
X230369Y1191678D01*
X230369Y1195287D02*
X238791Y1195287D01*
D14*
X272910Y1192280D03*
X255910Y1192280D03*
D28*
X221501Y1170831D02*
X221501Y1162409D01*
X213079Y1162409D01*
X213079Y1170831D01*
X221501Y1170831D01*
X221501Y1166018D02*
X213079Y1166018D01*
X213079Y1169627D02*
X221501Y1169627D01*
X239041Y1170831D02*
X239041Y1162409D01*
X230619Y1162409D01*
X230619Y1170831D01*
X239041Y1170831D01*
X239041Y1166018D02*
X230619Y1166018D01*
X230619Y1169627D02*
X239041Y1169627D01*
D14*
X273170Y1166880D03*
X256170Y1166880D03*
D28*
X221251Y1145691D02*
X221251Y1137269D01*
X212829Y1137269D01*
X212829Y1145691D01*
X221251Y1145691D01*
X221251Y1140878D02*
X212829Y1140878D01*
X212829Y1144487D02*
X221251Y1144487D01*
X238791Y1145691D02*
X238791Y1137269D01*
X230369Y1137269D01*
X230369Y1145691D01*
X238791Y1145691D01*
X238791Y1140878D02*
X230369Y1140878D01*
X230369Y1144487D02*
X238791Y1144487D01*
D14*
X273170Y1141220D03*
X256170Y1141220D03*
D28*
X221251Y1120291D02*
X221251Y1111869D01*
X212829Y1111869D01*
X212829Y1120291D01*
X221251Y1120291D01*
X221251Y1115478D02*
X212829Y1115478D01*
X212829Y1119087D02*
X221251Y1119087D01*
X238791Y1120291D02*
X238791Y1111869D01*
X230369Y1111869D01*
X230369Y1120291D01*
X238791Y1120291D01*
X238791Y1115478D02*
X230369Y1115478D01*
X230369Y1119087D02*
X238791Y1119087D01*
D14*
X272910Y1116330D03*
X255910Y1116330D03*
D28*
X220741Y1095141D02*
X220741Y1086719D01*
X212319Y1086719D01*
X212319Y1095141D01*
X220741Y1095141D01*
X220741Y1090328D02*
X212319Y1090328D01*
X212319Y1093937D02*
X220741Y1093937D01*
X238281Y1095141D02*
X238281Y1086719D01*
X229859Y1086719D01*
X229859Y1095141D01*
X238281Y1095141D01*
X238281Y1090328D02*
X229859Y1090328D01*
X229859Y1093937D02*
X238281Y1093937D01*
D14*
X272910Y1090680D03*
X255910Y1090680D03*
D11*
X887220Y1057400D03*
X912620Y1057400D03*
X938020Y1057400D03*
X861820Y1057400D03*
X887220Y905000D03*
X912620Y905000D03*
X938020Y905000D03*
X861820Y905000D03*
D39*
X936920Y1163830D03*
D40*
X916920Y1163830D03*
X896920Y1163830D03*
X876920Y1163830D03*
X856920Y1163830D03*
D29*
X277370Y1267090D03*
X277370Y1284090D03*
D14*
X273880Y1235000D03*
X256880Y1235000D03*
X768470Y227480D03*
X751470Y227480D03*
X711540Y227280D03*
X728540Y227280D03*
D29*
X1198550Y594330D03*
X1198550Y577330D03*
X977800Y597530D03*
X977800Y580530D03*
X1196340Y448330D03*
X1196340Y431330D03*
X1201600Y305680D03*
X1201600Y288680D03*
M02*
