G04 EAGLE Gerber X2 export*
G75*
%MOMM*%
%FSLAX34Y34*%
%LPD*%
%AMOC8*
5,1,8,0,0,1.08239X$1,22.5*%
G01*
%ADD10R,1.100000X1.000000*%
%ADD11R,10.660000X8.380000*%
%ADD12R,2.032000X3.810000*%
%ADD13R,10.800000X10.410000*%
%ADD14R,1.066800X2.159000*%
%ADD15R,0.800000X1.200000*%
%ADD16R,1.600000X1.800000*%
%ADD17R,1.200000X0.800000*%
%ADD18R,0.910000X1.220000*%
%ADD19C,0.300000*%
%ADD20R,1.000000X1.100000*%
%ADD21C,0.087500*%
%ADD22C,1.000000*%
%ADD23C,0.650000*%
%ADD24R,1.651000X1.000000*%
%ADD25R,1.000000X1.651000*%
%ADD26R,0.800000X0.900000*%
%ADD27R,0.900000X0.800000*%


D10*
X545460Y708910D03*
X528460Y708910D03*
X491020Y725780D03*
X474020Y725780D03*
D11*
X702050Y512560D03*
D12*
X677050Y611249D03*
X727050Y611610D03*
D13*
X213360Y843780D03*
D14*
X213360Y760468D03*
X187960Y760468D03*
X238760Y760468D03*
D15*
X266810Y564130D03*
X248810Y564130D03*
D16*
X186860Y554630D03*
X214860Y554630D03*
D17*
X265430Y761090D03*
X265430Y743090D03*
D15*
X210170Y737620D03*
X192170Y737620D03*
D18*
X236845Y715520D03*
X204095Y715520D03*
D19*
X197560Y989260D02*
X190560Y989260D01*
X190560Y996260D01*
X197560Y996260D01*
X197560Y989260D01*
X197560Y992259D02*
X190560Y992259D01*
X190560Y995258D02*
X197560Y995258D01*
X197560Y971720D02*
X190560Y971720D01*
X190560Y978720D01*
X197560Y978720D01*
X197560Y971720D01*
X197560Y974719D02*
X190560Y974719D01*
X190560Y977718D02*
X197560Y977718D01*
X216980Y989010D02*
X223980Y989010D01*
X216980Y989010D02*
X216980Y996010D01*
X223980Y996010D01*
X223980Y989010D01*
X223980Y992009D02*
X216980Y992009D01*
X216980Y995008D02*
X223980Y995008D01*
X223980Y971470D02*
X216980Y971470D01*
X216980Y978470D01*
X223980Y978470D01*
X223980Y971470D01*
X223980Y974469D02*
X216980Y974469D01*
X216980Y977468D02*
X223980Y977468D01*
D20*
X193810Y931300D03*
X193810Y948300D03*
X220470Y930790D03*
X220470Y947790D03*
X673600Y319910D03*
X673600Y302910D03*
D19*
X539690Y271200D02*
X532690Y271200D01*
X532690Y278200D01*
X539690Y278200D01*
X539690Y271200D01*
X539690Y274199D02*
X532690Y274199D01*
X532690Y277198D02*
X539690Y277198D01*
X539690Y253660D02*
X532690Y253660D01*
X532690Y260660D01*
X539690Y260660D01*
X539690Y253660D01*
X539690Y256659D02*
X532690Y256659D01*
X532690Y259658D02*
X539690Y259658D01*
D20*
X625090Y307200D03*
X625090Y290200D03*
D19*
X566110Y271470D02*
X559110Y271470D01*
X559110Y278470D01*
X566110Y278470D01*
X566110Y271470D01*
X566110Y274469D02*
X559110Y274469D01*
X559110Y277468D02*
X566110Y277468D01*
X566110Y253930D02*
X559110Y253930D01*
X559110Y260930D01*
X566110Y260930D01*
X566110Y253930D01*
X566110Y256929D02*
X559110Y256929D01*
X559110Y259928D02*
X566110Y259928D01*
D21*
X1172297Y624507D02*
X1172297Y641533D01*
X1174923Y641533D01*
X1174923Y624507D01*
X1172297Y624507D01*
X1172297Y625381D02*
X1174923Y625381D01*
X1174923Y626255D02*
X1172297Y626255D01*
X1172297Y627129D02*
X1174923Y627129D01*
X1174923Y628003D02*
X1172297Y628003D01*
X1172297Y628877D02*
X1174923Y628877D01*
X1174923Y629751D02*
X1172297Y629751D01*
X1172297Y630625D02*
X1174923Y630625D01*
X1174923Y631499D02*
X1172297Y631499D01*
X1172297Y632373D02*
X1174923Y632373D01*
X1174923Y633247D02*
X1172297Y633247D01*
X1172297Y634121D02*
X1174923Y634121D01*
X1174923Y634995D02*
X1172297Y634995D01*
X1172297Y635869D02*
X1174923Y635869D01*
X1174923Y636743D02*
X1172297Y636743D01*
X1172297Y637617D02*
X1174923Y637617D01*
X1174923Y638491D02*
X1172297Y638491D01*
X1172297Y639365D02*
X1174923Y639365D01*
X1174923Y640239D02*
X1172297Y640239D01*
X1172297Y641113D02*
X1174923Y641113D01*
X1167297Y641533D02*
X1167297Y624507D01*
X1167297Y641533D02*
X1169923Y641533D01*
X1169923Y624507D01*
X1167297Y624507D01*
X1167297Y625381D02*
X1169923Y625381D01*
X1169923Y626255D02*
X1167297Y626255D01*
X1167297Y627129D02*
X1169923Y627129D01*
X1169923Y628003D02*
X1167297Y628003D01*
X1167297Y628877D02*
X1169923Y628877D01*
X1169923Y629751D02*
X1167297Y629751D01*
X1167297Y630625D02*
X1169923Y630625D01*
X1169923Y631499D02*
X1167297Y631499D01*
X1167297Y632373D02*
X1169923Y632373D01*
X1169923Y633247D02*
X1167297Y633247D01*
X1167297Y634121D02*
X1169923Y634121D01*
X1169923Y634995D02*
X1167297Y634995D01*
X1167297Y635869D02*
X1169923Y635869D01*
X1169923Y636743D02*
X1167297Y636743D01*
X1167297Y637617D02*
X1169923Y637617D01*
X1169923Y638491D02*
X1167297Y638491D01*
X1167297Y639365D02*
X1169923Y639365D01*
X1169923Y640239D02*
X1167297Y640239D01*
X1167297Y641113D02*
X1169923Y641113D01*
X1162297Y641533D02*
X1162297Y624507D01*
X1162297Y641533D02*
X1164923Y641533D01*
X1164923Y624507D01*
X1162297Y624507D01*
X1162297Y625381D02*
X1164923Y625381D01*
X1164923Y626255D02*
X1162297Y626255D01*
X1162297Y627129D02*
X1164923Y627129D01*
X1164923Y628003D02*
X1162297Y628003D01*
X1162297Y628877D02*
X1164923Y628877D01*
X1164923Y629751D02*
X1162297Y629751D01*
X1162297Y630625D02*
X1164923Y630625D01*
X1164923Y631499D02*
X1162297Y631499D01*
X1162297Y632373D02*
X1164923Y632373D01*
X1164923Y633247D02*
X1162297Y633247D01*
X1162297Y634121D02*
X1164923Y634121D01*
X1164923Y634995D02*
X1162297Y634995D01*
X1162297Y635869D02*
X1164923Y635869D01*
X1164923Y636743D02*
X1162297Y636743D01*
X1162297Y637617D02*
X1164923Y637617D01*
X1164923Y638491D02*
X1162297Y638491D01*
X1162297Y639365D02*
X1164923Y639365D01*
X1164923Y640239D02*
X1162297Y640239D01*
X1162297Y641113D02*
X1164923Y641113D01*
X1157297Y641533D02*
X1157297Y624507D01*
X1157297Y641533D02*
X1159923Y641533D01*
X1159923Y624507D01*
X1157297Y624507D01*
X1157297Y625381D02*
X1159923Y625381D01*
X1159923Y626255D02*
X1157297Y626255D01*
X1157297Y627129D02*
X1159923Y627129D01*
X1159923Y628003D02*
X1157297Y628003D01*
X1157297Y628877D02*
X1159923Y628877D01*
X1159923Y629751D02*
X1157297Y629751D01*
X1157297Y630625D02*
X1159923Y630625D01*
X1159923Y631499D02*
X1157297Y631499D01*
X1157297Y632373D02*
X1159923Y632373D01*
X1159923Y633247D02*
X1157297Y633247D01*
X1157297Y634121D02*
X1159923Y634121D01*
X1159923Y634995D02*
X1157297Y634995D01*
X1157297Y635869D02*
X1159923Y635869D01*
X1159923Y636743D02*
X1157297Y636743D01*
X1157297Y637617D02*
X1159923Y637617D01*
X1159923Y638491D02*
X1157297Y638491D01*
X1157297Y639365D02*
X1159923Y639365D01*
X1159923Y640239D02*
X1157297Y640239D01*
X1157297Y641113D02*
X1159923Y641113D01*
X1152297Y641533D02*
X1152297Y624507D01*
X1152297Y641533D02*
X1154923Y641533D01*
X1154923Y624507D01*
X1152297Y624507D01*
X1152297Y625381D02*
X1154923Y625381D01*
X1154923Y626255D02*
X1152297Y626255D01*
X1152297Y627129D02*
X1154923Y627129D01*
X1154923Y628003D02*
X1152297Y628003D01*
X1152297Y628877D02*
X1154923Y628877D01*
X1154923Y629751D02*
X1152297Y629751D01*
X1152297Y630625D02*
X1154923Y630625D01*
X1154923Y631499D02*
X1152297Y631499D01*
X1152297Y632373D02*
X1154923Y632373D01*
X1154923Y633247D02*
X1152297Y633247D01*
X1152297Y634121D02*
X1154923Y634121D01*
X1154923Y634995D02*
X1152297Y634995D01*
X1152297Y635869D02*
X1154923Y635869D01*
X1154923Y636743D02*
X1152297Y636743D01*
X1152297Y637617D02*
X1154923Y637617D01*
X1154923Y638491D02*
X1152297Y638491D01*
X1152297Y639365D02*
X1154923Y639365D01*
X1154923Y640239D02*
X1152297Y640239D01*
X1152297Y641113D02*
X1154923Y641113D01*
X1147297Y641533D02*
X1147297Y624507D01*
X1147297Y641533D02*
X1149923Y641533D01*
X1149923Y624507D01*
X1147297Y624507D01*
X1147297Y625381D02*
X1149923Y625381D01*
X1149923Y626255D02*
X1147297Y626255D01*
X1147297Y627129D02*
X1149923Y627129D01*
X1149923Y628003D02*
X1147297Y628003D01*
X1147297Y628877D02*
X1149923Y628877D01*
X1149923Y629751D02*
X1147297Y629751D01*
X1147297Y630625D02*
X1149923Y630625D01*
X1149923Y631499D02*
X1147297Y631499D01*
X1147297Y632373D02*
X1149923Y632373D01*
X1149923Y633247D02*
X1147297Y633247D01*
X1147297Y634121D02*
X1149923Y634121D01*
X1149923Y634995D02*
X1147297Y634995D01*
X1147297Y635869D02*
X1149923Y635869D01*
X1149923Y636743D02*
X1147297Y636743D01*
X1147297Y637617D02*
X1149923Y637617D01*
X1149923Y638491D02*
X1147297Y638491D01*
X1147297Y639365D02*
X1149923Y639365D01*
X1149923Y640239D02*
X1147297Y640239D01*
X1147297Y641113D02*
X1149923Y641113D01*
X1142297Y641533D02*
X1142297Y624507D01*
X1142297Y641533D02*
X1144923Y641533D01*
X1144923Y624507D01*
X1142297Y624507D01*
X1142297Y625381D02*
X1144923Y625381D01*
X1144923Y626255D02*
X1142297Y626255D01*
X1142297Y627129D02*
X1144923Y627129D01*
X1144923Y628003D02*
X1142297Y628003D01*
X1142297Y628877D02*
X1144923Y628877D01*
X1144923Y629751D02*
X1142297Y629751D01*
X1142297Y630625D02*
X1144923Y630625D01*
X1144923Y631499D02*
X1142297Y631499D01*
X1142297Y632373D02*
X1144923Y632373D01*
X1144923Y633247D02*
X1142297Y633247D01*
X1142297Y634121D02*
X1144923Y634121D01*
X1144923Y634995D02*
X1142297Y634995D01*
X1142297Y635869D02*
X1144923Y635869D01*
X1144923Y636743D02*
X1142297Y636743D01*
X1142297Y637617D02*
X1144923Y637617D01*
X1144923Y638491D02*
X1142297Y638491D01*
X1142297Y639365D02*
X1144923Y639365D01*
X1144923Y640239D02*
X1142297Y640239D01*
X1142297Y641113D02*
X1144923Y641113D01*
X1137297Y641533D02*
X1137297Y624507D01*
X1137297Y641533D02*
X1139923Y641533D01*
X1139923Y624507D01*
X1137297Y624507D01*
X1137297Y625381D02*
X1139923Y625381D01*
X1139923Y626255D02*
X1137297Y626255D01*
X1137297Y627129D02*
X1139923Y627129D01*
X1139923Y628003D02*
X1137297Y628003D01*
X1137297Y628877D02*
X1139923Y628877D01*
X1139923Y629751D02*
X1137297Y629751D01*
X1137297Y630625D02*
X1139923Y630625D01*
X1139923Y631499D02*
X1137297Y631499D01*
X1137297Y632373D02*
X1139923Y632373D01*
X1139923Y633247D02*
X1137297Y633247D01*
X1137297Y634121D02*
X1139923Y634121D01*
X1139923Y634995D02*
X1137297Y634995D01*
X1137297Y635869D02*
X1139923Y635869D01*
X1139923Y636743D02*
X1137297Y636743D01*
X1137297Y637617D02*
X1139923Y637617D01*
X1139923Y638491D02*
X1137297Y638491D01*
X1137297Y639365D02*
X1139923Y639365D01*
X1139923Y640239D02*
X1137297Y640239D01*
X1137297Y641113D02*
X1139923Y641113D01*
X1132297Y641533D02*
X1132297Y624507D01*
X1132297Y641533D02*
X1134923Y641533D01*
X1134923Y624507D01*
X1132297Y624507D01*
X1132297Y625381D02*
X1134923Y625381D01*
X1134923Y626255D02*
X1132297Y626255D01*
X1132297Y627129D02*
X1134923Y627129D01*
X1134923Y628003D02*
X1132297Y628003D01*
X1132297Y628877D02*
X1134923Y628877D01*
X1134923Y629751D02*
X1132297Y629751D01*
X1132297Y630625D02*
X1134923Y630625D01*
X1134923Y631499D02*
X1132297Y631499D01*
X1132297Y632373D02*
X1134923Y632373D01*
X1134923Y633247D02*
X1132297Y633247D01*
X1132297Y634121D02*
X1134923Y634121D01*
X1134923Y634995D02*
X1132297Y634995D01*
X1132297Y635869D02*
X1134923Y635869D01*
X1134923Y636743D02*
X1132297Y636743D01*
X1132297Y637617D02*
X1134923Y637617D01*
X1134923Y638491D02*
X1132297Y638491D01*
X1132297Y639365D02*
X1134923Y639365D01*
X1134923Y640239D02*
X1132297Y640239D01*
X1132297Y641113D02*
X1134923Y641113D01*
X1127297Y641533D02*
X1127297Y624507D01*
X1127297Y641533D02*
X1129923Y641533D01*
X1129923Y624507D01*
X1127297Y624507D01*
X1127297Y625381D02*
X1129923Y625381D01*
X1129923Y626255D02*
X1127297Y626255D01*
X1127297Y627129D02*
X1129923Y627129D01*
X1129923Y628003D02*
X1127297Y628003D01*
X1127297Y628877D02*
X1129923Y628877D01*
X1129923Y629751D02*
X1127297Y629751D01*
X1127297Y630625D02*
X1129923Y630625D01*
X1129923Y631499D02*
X1127297Y631499D01*
X1127297Y632373D02*
X1129923Y632373D01*
X1129923Y633247D02*
X1127297Y633247D01*
X1127297Y634121D02*
X1129923Y634121D01*
X1129923Y634995D02*
X1127297Y634995D01*
X1127297Y635869D02*
X1129923Y635869D01*
X1129923Y636743D02*
X1127297Y636743D01*
X1127297Y637617D02*
X1129923Y637617D01*
X1129923Y638491D02*
X1127297Y638491D01*
X1127297Y639365D02*
X1129923Y639365D01*
X1129923Y640239D02*
X1127297Y640239D01*
X1127297Y641113D02*
X1129923Y641113D01*
X1122297Y641533D02*
X1122297Y624507D01*
X1122297Y641533D02*
X1124923Y641533D01*
X1124923Y624507D01*
X1122297Y624507D01*
X1122297Y625381D02*
X1124923Y625381D01*
X1124923Y626255D02*
X1122297Y626255D01*
X1122297Y627129D02*
X1124923Y627129D01*
X1124923Y628003D02*
X1122297Y628003D01*
X1122297Y628877D02*
X1124923Y628877D01*
X1124923Y629751D02*
X1122297Y629751D01*
X1122297Y630625D02*
X1124923Y630625D01*
X1124923Y631499D02*
X1122297Y631499D01*
X1122297Y632373D02*
X1124923Y632373D01*
X1124923Y633247D02*
X1122297Y633247D01*
X1122297Y634121D02*
X1124923Y634121D01*
X1124923Y634995D02*
X1122297Y634995D01*
X1122297Y635869D02*
X1124923Y635869D01*
X1124923Y636743D02*
X1122297Y636743D01*
X1122297Y637617D02*
X1124923Y637617D01*
X1124923Y638491D02*
X1122297Y638491D01*
X1122297Y639365D02*
X1124923Y639365D01*
X1124923Y640239D02*
X1122297Y640239D01*
X1122297Y641113D02*
X1124923Y641113D01*
X1117297Y641533D02*
X1117297Y624507D01*
X1117297Y641533D02*
X1119923Y641533D01*
X1119923Y624507D01*
X1117297Y624507D01*
X1117297Y625381D02*
X1119923Y625381D01*
X1119923Y626255D02*
X1117297Y626255D01*
X1117297Y627129D02*
X1119923Y627129D01*
X1119923Y628003D02*
X1117297Y628003D01*
X1117297Y628877D02*
X1119923Y628877D01*
X1119923Y629751D02*
X1117297Y629751D01*
X1117297Y630625D02*
X1119923Y630625D01*
X1119923Y631499D02*
X1117297Y631499D01*
X1117297Y632373D02*
X1119923Y632373D01*
X1119923Y633247D02*
X1117297Y633247D01*
X1117297Y634121D02*
X1119923Y634121D01*
X1119923Y634995D02*
X1117297Y634995D01*
X1117297Y635869D02*
X1119923Y635869D01*
X1119923Y636743D02*
X1117297Y636743D01*
X1117297Y637617D02*
X1119923Y637617D01*
X1119923Y638491D02*
X1117297Y638491D01*
X1117297Y639365D02*
X1119923Y639365D01*
X1119923Y640239D02*
X1117297Y640239D01*
X1117297Y641113D02*
X1119923Y641113D01*
X1112297Y641533D02*
X1112297Y624507D01*
X1112297Y641533D02*
X1114923Y641533D01*
X1114923Y624507D01*
X1112297Y624507D01*
X1112297Y625381D02*
X1114923Y625381D01*
X1114923Y626255D02*
X1112297Y626255D01*
X1112297Y627129D02*
X1114923Y627129D01*
X1114923Y628003D02*
X1112297Y628003D01*
X1112297Y628877D02*
X1114923Y628877D01*
X1114923Y629751D02*
X1112297Y629751D01*
X1112297Y630625D02*
X1114923Y630625D01*
X1114923Y631499D02*
X1112297Y631499D01*
X1112297Y632373D02*
X1114923Y632373D01*
X1114923Y633247D02*
X1112297Y633247D01*
X1112297Y634121D02*
X1114923Y634121D01*
X1114923Y634995D02*
X1112297Y634995D01*
X1112297Y635869D02*
X1114923Y635869D01*
X1114923Y636743D02*
X1112297Y636743D01*
X1112297Y637617D02*
X1114923Y637617D01*
X1114923Y638491D02*
X1112297Y638491D01*
X1112297Y639365D02*
X1114923Y639365D01*
X1114923Y640239D02*
X1112297Y640239D01*
X1112297Y641113D02*
X1114923Y641113D01*
X1107297Y641533D02*
X1107297Y624507D01*
X1107297Y641533D02*
X1109923Y641533D01*
X1109923Y624507D01*
X1107297Y624507D01*
X1107297Y625381D02*
X1109923Y625381D01*
X1109923Y626255D02*
X1107297Y626255D01*
X1107297Y627129D02*
X1109923Y627129D01*
X1109923Y628003D02*
X1107297Y628003D01*
X1107297Y628877D02*
X1109923Y628877D01*
X1109923Y629751D02*
X1107297Y629751D01*
X1107297Y630625D02*
X1109923Y630625D01*
X1109923Y631499D02*
X1107297Y631499D01*
X1107297Y632373D02*
X1109923Y632373D01*
X1109923Y633247D02*
X1107297Y633247D01*
X1107297Y634121D02*
X1109923Y634121D01*
X1109923Y634995D02*
X1107297Y634995D01*
X1107297Y635869D02*
X1109923Y635869D01*
X1109923Y636743D02*
X1107297Y636743D01*
X1107297Y637617D02*
X1109923Y637617D01*
X1109923Y638491D02*
X1107297Y638491D01*
X1107297Y639365D02*
X1109923Y639365D01*
X1109923Y640239D02*
X1107297Y640239D01*
X1107297Y641113D02*
X1109923Y641113D01*
X1102297Y641533D02*
X1102297Y624507D01*
X1102297Y641533D02*
X1104923Y641533D01*
X1104923Y624507D01*
X1102297Y624507D01*
X1102297Y625381D02*
X1104923Y625381D01*
X1104923Y626255D02*
X1102297Y626255D01*
X1102297Y627129D02*
X1104923Y627129D01*
X1104923Y628003D02*
X1102297Y628003D01*
X1102297Y628877D02*
X1104923Y628877D01*
X1104923Y629751D02*
X1102297Y629751D01*
X1102297Y630625D02*
X1104923Y630625D01*
X1104923Y631499D02*
X1102297Y631499D01*
X1102297Y632373D02*
X1104923Y632373D01*
X1104923Y633247D02*
X1102297Y633247D01*
X1102297Y634121D02*
X1104923Y634121D01*
X1104923Y634995D02*
X1102297Y634995D01*
X1102297Y635869D02*
X1104923Y635869D01*
X1104923Y636743D02*
X1102297Y636743D01*
X1102297Y637617D02*
X1104923Y637617D01*
X1104923Y638491D02*
X1102297Y638491D01*
X1102297Y639365D02*
X1104923Y639365D01*
X1104923Y640239D02*
X1102297Y640239D01*
X1102297Y641113D02*
X1104923Y641113D01*
X1097297Y641533D02*
X1097297Y624507D01*
X1097297Y641533D02*
X1099923Y641533D01*
X1099923Y624507D01*
X1097297Y624507D01*
X1097297Y625381D02*
X1099923Y625381D01*
X1099923Y626255D02*
X1097297Y626255D01*
X1097297Y627129D02*
X1099923Y627129D01*
X1099923Y628003D02*
X1097297Y628003D01*
X1097297Y628877D02*
X1099923Y628877D01*
X1099923Y629751D02*
X1097297Y629751D01*
X1097297Y630625D02*
X1099923Y630625D01*
X1099923Y631499D02*
X1097297Y631499D01*
X1097297Y632373D02*
X1099923Y632373D01*
X1099923Y633247D02*
X1097297Y633247D01*
X1097297Y634121D02*
X1099923Y634121D01*
X1099923Y634995D02*
X1097297Y634995D01*
X1097297Y635869D02*
X1099923Y635869D01*
X1099923Y636743D02*
X1097297Y636743D01*
X1097297Y637617D02*
X1099923Y637617D01*
X1099923Y638491D02*
X1097297Y638491D01*
X1097297Y639365D02*
X1099923Y639365D01*
X1099923Y640239D02*
X1097297Y640239D01*
X1097297Y641113D02*
X1099923Y641113D01*
X1092297Y641533D02*
X1092297Y624507D01*
X1092297Y641533D02*
X1094923Y641533D01*
X1094923Y624507D01*
X1092297Y624507D01*
X1092297Y625381D02*
X1094923Y625381D01*
X1094923Y626255D02*
X1092297Y626255D01*
X1092297Y627129D02*
X1094923Y627129D01*
X1094923Y628003D02*
X1092297Y628003D01*
X1092297Y628877D02*
X1094923Y628877D01*
X1094923Y629751D02*
X1092297Y629751D01*
X1092297Y630625D02*
X1094923Y630625D01*
X1094923Y631499D02*
X1092297Y631499D01*
X1092297Y632373D02*
X1094923Y632373D01*
X1094923Y633247D02*
X1092297Y633247D01*
X1092297Y634121D02*
X1094923Y634121D01*
X1094923Y634995D02*
X1092297Y634995D01*
X1092297Y635869D02*
X1094923Y635869D01*
X1094923Y636743D02*
X1092297Y636743D01*
X1092297Y637617D02*
X1094923Y637617D01*
X1094923Y638491D02*
X1092297Y638491D01*
X1092297Y639365D02*
X1094923Y639365D01*
X1094923Y640239D02*
X1092297Y640239D01*
X1092297Y641113D02*
X1094923Y641113D01*
X1087297Y641533D02*
X1087297Y624507D01*
X1087297Y641533D02*
X1089923Y641533D01*
X1089923Y624507D01*
X1087297Y624507D01*
X1087297Y625381D02*
X1089923Y625381D01*
X1089923Y626255D02*
X1087297Y626255D01*
X1087297Y627129D02*
X1089923Y627129D01*
X1089923Y628003D02*
X1087297Y628003D01*
X1087297Y628877D02*
X1089923Y628877D01*
X1089923Y629751D02*
X1087297Y629751D01*
X1087297Y630625D02*
X1089923Y630625D01*
X1089923Y631499D02*
X1087297Y631499D01*
X1087297Y632373D02*
X1089923Y632373D01*
X1089923Y633247D02*
X1087297Y633247D01*
X1087297Y634121D02*
X1089923Y634121D01*
X1089923Y634995D02*
X1087297Y634995D01*
X1087297Y635869D02*
X1089923Y635869D01*
X1089923Y636743D02*
X1087297Y636743D01*
X1087297Y637617D02*
X1089923Y637617D01*
X1089923Y638491D02*
X1087297Y638491D01*
X1087297Y639365D02*
X1089923Y639365D01*
X1089923Y640239D02*
X1087297Y640239D01*
X1087297Y641113D02*
X1089923Y641113D01*
X1087297Y547233D02*
X1087297Y530207D01*
X1087297Y547233D02*
X1089923Y547233D01*
X1089923Y530207D01*
X1087297Y530207D01*
X1087297Y531081D02*
X1089923Y531081D01*
X1089923Y531955D02*
X1087297Y531955D01*
X1087297Y532829D02*
X1089923Y532829D01*
X1089923Y533703D02*
X1087297Y533703D01*
X1087297Y534577D02*
X1089923Y534577D01*
X1089923Y535451D02*
X1087297Y535451D01*
X1087297Y536325D02*
X1089923Y536325D01*
X1089923Y537199D02*
X1087297Y537199D01*
X1087297Y538073D02*
X1089923Y538073D01*
X1089923Y538947D02*
X1087297Y538947D01*
X1087297Y539821D02*
X1089923Y539821D01*
X1089923Y540695D02*
X1087297Y540695D01*
X1087297Y541569D02*
X1089923Y541569D01*
X1089923Y542443D02*
X1087297Y542443D01*
X1087297Y543317D02*
X1089923Y543317D01*
X1089923Y544191D02*
X1087297Y544191D01*
X1087297Y545065D02*
X1089923Y545065D01*
X1089923Y545939D02*
X1087297Y545939D01*
X1087297Y546813D02*
X1089923Y546813D01*
X1092297Y547233D02*
X1092297Y530207D01*
X1092297Y547233D02*
X1094923Y547233D01*
X1094923Y530207D01*
X1092297Y530207D01*
X1092297Y531081D02*
X1094923Y531081D01*
X1094923Y531955D02*
X1092297Y531955D01*
X1092297Y532829D02*
X1094923Y532829D01*
X1094923Y533703D02*
X1092297Y533703D01*
X1092297Y534577D02*
X1094923Y534577D01*
X1094923Y535451D02*
X1092297Y535451D01*
X1092297Y536325D02*
X1094923Y536325D01*
X1094923Y537199D02*
X1092297Y537199D01*
X1092297Y538073D02*
X1094923Y538073D01*
X1094923Y538947D02*
X1092297Y538947D01*
X1092297Y539821D02*
X1094923Y539821D01*
X1094923Y540695D02*
X1092297Y540695D01*
X1092297Y541569D02*
X1094923Y541569D01*
X1094923Y542443D02*
X1092297Y542443D01*
X1092297Y543317D02*
X1094923Y543317D01*
X1094923Y544191D02*
X1092297Y544191D01*
X1092297Y545065D02*
X1094923Y545065D01*
X1094923Y545939D02*
X1092297Y545939D01*
X1092297Y546813D02*
X1094923Y546813D01*
X1097297Y547233D02*
X1097297Y530207D01*
X1097297Y547233D02*
X1099923Y547233D01*
X1099923Y530207D01*
X1097297Y530207D01*
X1097297Y531081D02*
X1099923Y531081D01*
X1099923Y531955D02*
X1097297Y531955D01*
X1097297Y532829D02*
X1099923Y532829D01*
X1099923Y533703D02*
X1097297Y533703D01*
X1097297Y534577D02*
X1099923Y534577D01*
X1099923Y535451D02*
X1097297Y535451D01*
X1097297Y536325D02*
X1099923Y536325D01*
X1099923Y537199D02*
X1097297Y537199D01*
X1097297Y538073D02*
X1099923Y538073D01*
X1099923Y538947D02*
X1097297Y538947D01*
X1097297Y539821D02*
X1099923Y539821D01*
X1099923Y540695D02*
X1097297Y540695D01*
X1097297Y541569D02*
X1099923Y541569D01*
X1099923Y542443D02*
X1097297Y542443D01*
X1097297Y543317D02*
X1099923Y543317D01*
X1099923Y544191D02*
X1097297Y544191D01*
X1097297Y545065D02*
X1099923Y545065D01*
X1099923Y545939D02*
X1097297Y545939D01*
X1097297Y546813D02*
X1099923Y546813D01*
X1102297Y547233D02*
X1102297Y530207D01*
X1102297Y547233D02*
X1104923Y547233D01*
X1104923Y530207D01*
X1102297Y530207D01*
X1102297Y531081D02*
X1104923Y531081D01*
X1104923Y531955D02*
X1102297Y531955D01*
X1102297Y532829D02*
X1104923Y532829D01*
X1104923Y533703D02*
X1102297Y533703D01*
X1102297Y534577D02*
X1104923Y534577D01*
X1104923Y535451D02*
X1102297Y535451D01*
X1102297Y536325D02*
X1104923Y536325D01*
X1104923Y537199D02*
X1102297Y537199D01*
X1102297Y538073D02*
X1104923Y538073D01*
X1104923Y538947D02*
X1102297Y538947D01*
X1102297Y539821D02*
X1104923Y539821D01*
X1104923Y540695D02*
X1102297Y540695D01*
X1102297Y541569D02*
X1104923Y541569D01*
X1104923Y542443D02*
X1102297Y542443D01*
X1102297Y543317D02*
X1104923Y543317D01*
X1104923Y544191D02*
X1102297Y544191D01*
X1102297Y545065D02*
X1104923Y545065D01*
X1104923Y545939D02*
X1102297Y545939D01*
X1102297Y546813D02*
X1104923Y546813D01*
X1107297Y547233D02*
X1107297Y530207D01*
X1107297Y547233D02*
X1109923Y547233D01*
X1109923Y530207D01*
X1107297Y530207D01*
X1107297Y531081D02*
X1109923Y531081D01*
X1109923Y531955D02*
X1107297Y531955D01*
X1107297Y532829D02*
X1109923Y532829D01*
X1109923Y533703D02*
X1107297Y533703D01*
X1107297Y534577D02*
X1109923Y534577D01*
X1109923Y535451D02*
X1107297Y535451D01*
X1107297Y536325D02*
X1109923Y536325D01*
X1109923Y537199D02*
X1107297Y537199D01*
X1107297Y538073D02*
X1109923Y538073D01*
X1109923Y538947D02*
X1107297Y538947D01*
X1107297Y539821D02*
X1109923Y539821D01*
X1109923Y540695D02*
X1107297Y540695D01*
X1107297Y541569D02*
X1109923Y541569D01*
X1109923Y542443D02*
X1107297Y542443D01*
X1107297Y543317D02*
X1109923Y543317D01*
X1109923Y544191D02*
X1107297Y544191D01*
X1107297Y545065D02*
X1109923Y545065D01*
X1109923Y545939D02*
X1107297Y545939D01*
X1107297Y546813D02*
X1109923Y546813D01*
X1112297Y547233D02*
X1112297Y530207D01*
X1112297Y547233D02*
X1114923Y547233D01*
X1114923Y530207D01*
X1112297Y530207D01*
X1112297Y531081D02*
X1114923Y531081D01*
X1114923Y531955D02*
X1112297Y531955D01*
X1112297Y532829D02*
X1114923Y532829D01*
X1114923Y533703D02*
X1112297Y533703D01*
X1112297Y534577D02*
X1114923Y534577D01*
X1114923Y535451D02*
X1112297Y535451D01*
X1112297Y536325D02*
X1114923Y536325D01*
X1114923Y537199D02*
X1112297Y537199D01*
X1112297Y538073D02*
X1114923Y538073D01*
X1114923Y538947D02*
X1112297Y538947D01*
X1112297Y539821D02*
X1114923Y539821D01*
X1114923Y540695D02*
X1112297Y540695D01*
X1112297Y541569D02*
X1114923Y541569D01*
X1114923Y542443D02*
X1112297Y542443D01*
X1112297Y543317D02*
X1114923Y543317D01*
X1114923Y544191D02*
X1112297Y544191D01*
X1112297Y545065D02*
X1114923Y545065D01*
X1114923Y545939D02*
X1112297Y545939D01*
X1112297Y546813D02*
X1114923Y546813D01*
X1117297Y547233D02*
X1117297Y530207D01*
X1117297Y547233D02*
X1119923Y547233D01*
X1119923Y530207D01*
X1117297Y530207D01*
X1117297Y531081D02*
X1119923Y531081D01*
X1119923Y531955D02*
X1117297Y531955D01*
X1117297Y532829D02*
X1119923Y532829D01*
X1119923Y533703D02*
X1117297Y533703D01*
X1117297Y534577D02*
X1119923Y534577D01*
X1119923Y535451D02*
X1117297Y535451D01*
X1117297Y536325D02*
X1119923Y536325D01*
X1119923Y537199D02*
X1117297Y537199D01*
X1117297Y538073D02*
X1119923Y538073D01*
X1119923Y538947D02*
X1117297Y538947D01*
X1117297Y539821D02*
X1119923Y539821D01*
X1119923Y540695D02*
X1117297Y540695D01*
X1117297Y541569D02*
X1119923Y541569D01*
X1119923Y542443D02*
X1117297Y542443D01*
X1117297Y543317D02*
X1119923Y543317D01*
X1119923Y544191D02*
X1117297Y544191D01*
X1117297Y545065D02*
X1119923Y545065D01*
X1119923Y545939D02*
X1117297Y545939D01*
X1117297Y546813D02*
X1119923Y546813D01*
X1122297Y547233D02*
X1122297Y530207D01*
X1122297Y547233D02*
X1124923Y547233D01*
X1124923Y530207D01*
X1122297Y530207D01*
X1122297Y531081D02*
X1124923Y531081D01*
X1124923Y531955D02*
X1122297Y531955D01*
X1122297Y532829D02*
X1124923Y532829D01*
X1124923Y533703D02*
X1122297Y533703D01*
X1122297Y534577D02*
X1124923Y534577D01*
X1124923Y535451D02*
X1122297Y535451D01*
X1122297Y536325D02*
X1124923Y536325D01*
X1124923Y537199D02*
X1122297Y537199D01*
X1122297Y538073D02*
X1124923Y538073D01*
X1124923Y538947D02*
X1122297Y538947D01*
X1122297Y539821D02*
X1124923Y539821D01*
X1124923Y540695D02*
X1122297Y540695D01*
X1122297Y541569D02*
X1124923Y541569D01*
X1124923Y542443D02*
X1122297Y542443D01*
X1122297Y543317D02*
X1124923Y543317D01*
X1124923Y544191D02*
X1122297Y544191D01*
X1122297Y545065D02*
X1124923Y545065D01*
X1124923Y545939D02*
X1122297Y545939D01*
X1122297Y546813D02*
X1124923Y546813D01*
X1127297Y547233D02*
X1127297Y530207D01*
X1127297Y547233D02*
X1129923Y547233D01*
X1129923Y530207D01*
X1127297Y530207D01*
X1127297Y531081D02*
X1129923Y531081D01*
X1129923Y531955D02*
X1127297Y531955D01*
X1127297Y532829D02*
X1129923Y532829D01*
X1129923Y533703D02*
X1127297Y533703D01*
X1127297Y534577D02*
X1129923Y534577D01*
X1129923Y535451D02*
X1127297Y535451D01*
X1127297Y536325D02*
X1129923Y536325D01*
X1129923Y537199D02*
X1127297Y537199D01*
X1127297Y538073D02*
X1129923Y538073D01*
X1129923Y538947D02*
X1127297Y538947D01*
X1127297Y539821D02*
X1129923Y539821D01*
X1129923Y540695D02*
X1127297Y540695D01*
X1127297Y541569D02*
X1129923Y541569D01*
X1129923Y542443D02*
X1127297Y542443D01*
X1127297Y543317D02*
X1129923Y543317D01*
X1129923Y544191D02*
X1127297Y544191D01*
X1127297Y545065D02*
X1129923Y545065D01*
X1129923Y545939D02*
X1127297Y545939D01*
X1127297Y546813D02*
X1129923Y546813D01*
X1132297Y547233D02*
X1132297Y530207D01*
X1132297Y547233D02*
X1134923Y547233D01*
X1134923Y530207D01*
X1132297Y530207D01*
X1132297Y531081D02*
X1134923Y531081D01*
X1134923Y531955D02*
X1132297Y531955D01*
X1132297Y532829D02*
X1134923Y532829D01*
X1134923Y533703D02*
X1132297Y533703D01*
X1132297Y534577D02*
X1134923Y534577D01*
X1134923Y535451D02*
X1132297Y535451D01*
X1132297Y536325D02*
X1134923Y536325D01*
X1134923Y537199D02*
X1132297Y537199D01*
X1132297Y538073D02*
X1134923Y538073D01*
X1134923Y538947D02*
X1132297Y538947D01*
X1132297Y539821D02*
X1134923Y539821D01*
X1134923Y540695D02*
X1132297Y540695D01*
X1132297Y541569D02*
X1134923Y541569D01*
X1134923Y542443D02*
X1132297Y542443D01*
X1132297Y543317D02*
X1134923Y543317D01*
X1134923Y544191D02*
X1132297Y544191D01*
X1132297Y545065D02*
X1134923Y545065D01*
X1134923Y545939D02*
X1132297Y545939D01*
X1132297Y546813D02*
X1134923Y546813D01*
X1137297Y547233D02*
X1137297Y530207D01*
X1137297Y547233D02*
X1139923Y547233D01*
X1139923Y530207D01*
X1137297Y530207D01*
X1137297Y531081D02*
X1139923Y531081D01*
X1139923Y531955D02*
X1137297Y531955D01*
X1137297Y532829D02*
X1139923Y532829D01*
X1139923Y533703D02*
X1137297Y533703D01*
X1137297Y534577D02*
X1139923Y534577D01*
X1139923Y535451D02*
X1137297Y535451D01*
X1137297Y536325D02*
X1139923Y536325D01*
X1139923Y537199D02*
X1137297Y537199D01*
X1137297Y538073D02*
X1139923Y538073D01*
X1139923Y538947D02*
X1137297Y538947D01*
X1137297Y539821D02*
X1139923Y539821D01*
X1139923Y540695D02*
X1137297Y540695D01*
X1137297Y541569D02*
X1139923Y541569D01*
X1139923Y542443D02*
X1137297Y542443D01*
X1137297Y543317D02*
X1139923Y543317D01*
X1139923Y544191D02*
X1137297Y544191D01*
X1137297Y545065D02*
X1139923Y545065D01*
X1139923Y545939D02*
X1137297Y545939D01*
X1137297Y546813D02*
X1139923Y546813D01*
X1142297Y547233D02*
X1142297Y530207D01*
X1142297Y547233D02*
X1144923Y547233D01*
X1144923Y530207D01*
X1142297Y530207D01*
X1142297Y531081D02*
X1144923Y531081D01*
X1144923Y531955D02*
X1142297Y531955D01*
X1142297Y532829D02*
X1144923Y532829D01*
X1144923Y533703D02*
X1142297Y533703D01*
X1142297Y534577D02*
X1144923Y534577D01*
X1144923Y535451D02*
X1142297Y535451D01*
X1142297Y536325D02*
X1144923Y536325D01*
X1144923Y537199D02*
X1142297Y537199D01*
X1142297Y538073D02*
X1144923Y538073D01*
X1144923Y538947D02*
X1142297Y538947D01*
X1142297Y539821D02*
X1144923Y539821D01*
X1144923Y540695D02*
X1142297Y540695D01*
X1142297Y541569D02*
X1144923Y541569D01*
X1144923Y542443D02*
X1142297Y542443D01*
X1142297Y543317D02*
X1144923Y543317D01*
X1144923Y544191D02*
X1142297Y544191D01*
X1142297Y545065D02*
X1144923Y545065D01*
X1144923Y545939D02*
X1142297Y545939D01*
X1142297Y546813D02*
X1144923Y546813D01*
X1147297Y547233D02*
X1147297Y530207D01*
X1147297Y547233D02*
X1149923Y547233D01*
X1149923Y530207D01*
X1147297Y530207D01*
X1147297Y531081D02*
X1149923Y531081D01*
X1149923Y531955D02*
X1147297Y531955D01*
X1147297Y532829D02*
X1149923Y532829D01*
X1149923Y533703D02*
X1147297Y533703D01*
X1147297Y534577D02*
X1149923Y534577D01*
X1149923Y535451D02*
X1147297Y535451D01*
X1147297Y536325D02*
X1149923Y536325D01*
X1149923Y537199D02*
X1147297Y537199D01*
X1147297Y538073D02*
X1149923Y538073D01*
X1149923Y538947D02*
X1147297Y538947D01*
X1147297Y539821D02*
X1149923Y539821D01*
X1149923Y540695D02*
X1147297Y540695D01*
X1147297Y541569D02*
X1149923Y541569D01*
X1149923Y542443D02*
X1147297Y542443D01*
X1147297Y543317D02*
X1149923Y543317D01*
X1149923Y544191D02*
X1147297Y544191D01*
X1147297Y545065D02*
X1149923Y545065D01*
X1149923Y545939D02*
X1147297Y545939D01*
X1147297Y546813D02*
X1149923Y546813D01*
X1152297Y547233D02*
X1152297Y530207D01*
X1152297Y547233D02*
X1154923Y547233D01*
X1154923Y530207D01*
X1152297Y530207D01*
X1152297Y531081D02*
X1154923Y531081D01*
X1154923Y531955D02*
X1152297Y531955D01*
X1152297Y532829D02*
X1154923Y532829D01*
X1154923Y533703D02*
X1152297Y533703D01*
X1152297Y534577D02*
X1154923Y534577D01*
X1154923Y535451D02*
X1152297Y535451D01*
X1152297Y536325D02*
X1154923Y536325D01*
X1154923Y537199D02*
X1152297Y537199D01*
X1152297Y538073D02*
X1154923Y538073D01*
X1154923Y538947D02*
X1152297Y538947D01*
X1152297Y539821D02*
X1154923Y539821D01*
X1154923Y540695D02*
X1152297Y540695D01*
X1152297Y541569D02*
X1154923Y541569D01*
X1154923Y542443D02*
X1152297Y542443D01*
X1152297Y543317D02*
X1154923Y543317D01*
X1154923Y544191D02*
X1152297Y544191D01*
X1152297Y545065D02*
X1154923Y545065D01*
X1154923Y545939D02*
X1152297Y545939D01*
X1152297Y546813D02*
X1154923Y546813D01*
X1157297Y547233D02*
X1157297Y530207D01*
X1157297Y547233D02*
X1159923Y547233D01*
X1159923Y530207D01*
X1157297Y530207D01*
X1157297Y531081D02*
X1159923Y531081D01*
X1159923Y531955D02*
X1157297Y531955D01*
X1157297Y532829D02*
X1159923Y532829D01*
X1159923Y533703D02*
X1157297Y533703D01*
X1157297Y534577D02*
X1159923Y534577D01*
X1159923Y535451D02*
X1157297Y535451D01*
X1157297Y536325D02*
X1159923Y536325D01*
X1159923Y537199D02*
X1157297Y537199D01*
X1157297Y538073D02*
X1159923Y538073D01*
X1159923Y538947D02*
X1157297Y538947D01*
X1157297Y539821D02*
X1159923Y539821D01*
X1159923Y540695D02*
X1157297Y540695D01*
X1157297Y541569D02*
X1159923Y541569D01*
X1159923Y542443D02*
X1157297Y542443D01*
X1157297Y543317D02*
X1159923Y543317D01*
X1159923Y544191D02*
X1157297Y544191D01*
X1157297Y545065D02*
X1159923Y545065D01*
X1159923Y545939D02*
X1157297Y545939D01*
X1157297Y546813D02*
X1159923Y546813D01*
X1162297Y547233D02*
X1162297Y530207D01*
X1162297Y547233D02*
X1164923Y547233D01*
X1164923Y530207D01*
X1162297Y530207D01*
X1162297Y531081D02*
X1164923Y531081D01*
X1164923Y531955D02*
X1162297Y531955D01*
X1162297Y532829D02*
X1164923Y532829D01*
X1164923Y533703D02*
X1162297Y533703D01*
X1162297Y534577D02*
X1164923Y534577D01*
X1164923Y535451D02*
X1162297Y535451D01*
X1162297Y536325D02*
X1164923Y536325D01*
X1164923Y537199D02*
X1162297Y537199D01*
X1162297Y538073D02*
X1164923Y538073D01*
X1164923Y538947D02*
X1162297Y538947D01*
X1162297Y539821D02*
X1164923Y539821D01*
X1164923Y540695D02*
X1162297Y540695D01*
X1162297Y541569D02*
X1164923Y541569D01*
X1164923Y542443D02*
X1162297Y542443D01*
X1162297Y543317D02*
X1164923Y543317D01*
X1164923Y544191D02*
X1162297Y544191D01*
X1162297Y545065D02*
X1164923Y545065D01*
X1164923Y545939D02*
X1162297Y545939D01*
X1162297Y546813D02*
X1164923Y546813D01*
X1167297Y547233D02*
X1167297Y530207D01*
X1167297Y547233D02*
X1169923Y547233D01*
X1169923Y530207D01*
X1167297Y530207D01*
X1167297Y531081D02*
X1169923Y531081D01*
X1169923Y531955D02*
X1167297Y531955D01*
X1167297Y532829D02*
X1169923Y532829D01*
X1169923Y533703D02*
X1167297Y533703D01*
X1167297Y534577D02*
X1169923Y534577D01*
X1169923Y535451D02*
X1167297Y535451D01*
X1167297Y536325D02*
X1169923Y536325D01*
X1169923Y537199D02*
X1167297Y537199D01*
X1167297Y538073D02*
X1169923Y538073D01*
X1169923Y538947D02*
X1167297Y538947D01*
X1167297Y539821D02*
X1169923Y539821D01*
X1169923Y540695D02*
X1167297Y540695D01*
X1167297Y541569D02*
X1169923Y541569D01*
X1169923Y542443D02*
X1167297Y542443D01*
X1167297Y543317D02*
X1169923Y543317D01*
X1169923Y544191D02*
X1167297Y544191D01*
X1167297Y545065D02*
X1169923Y545065D01*
X1169923Y545939D02*
X1167297Y545939D01*
X1167297Y546813D02*
X1169923Y546813D01*
X1172297Y547233D02*
X1172297Y530207D01*
X1172297Y547233D02*
X1174923Y547233D01*
X1174923Y530207D01*
X1172297Y530207D01*
X1172297Y531081D02*
X1174923Y531081D01*
X1174923Y531955D02*
X1172297Y531955D01*
X1172297Y532829D02*
X1174923Y532829D01*
X1174923Y533703D02*
X1172297Y533703D01*
X1172297Y534577D02*
X1174923Y534577D01*
X1174923Y535451D02*
X1172297Y535451D01*
X1172297Y536325D02*
X1174923Y536325D01*
X1174923Y537199D02*
X1172297Y537199D01*
X1172297Y538073D02*
X1174923Y538073D01*
X1174923Y538947D02*
X1172297Y538947D01*
X1172297Y539821D02*
X1174923Y539821D01*
X1174923Y540695D02*
X1172297Y540695D01*
X1172297Y541569D02*
X1174923Y541569D01*
X1174923Y542443D02*
X1172297Y542443D01*
X1172297Y543317D02*
X1174923Y543317D01*
X1174923Y544191D02*
X1172297Y544191D01*
X1172297Y545065D02*
X1174923Y545065D01*
X1174923Y545939D02*
X1172297Y545939D01*
X1172297Y546813D02*
X1174923Y546813D01*
D22*
X1123110Y561870D02*
X1123110Y609870D01*
X1123110Y561870D02*
X1093110Y561870D01*
X1093110Y609870D01*
X1123110Y609870D01*
X1123110Y571869D02*
X1093110Y571869D01*
X1093110Y581868D02*
X1123110Y581868D01*
X1123110Y591867D02*
X1093110Y591867D01*
X1093110Y601866D02*
X1123110Y601866D01*
D23*
X1170860Y592120D02*
X1170860Y611620D01*
X1170860Y592120D02*
X1137360Y592120D01*
X1137360Y611620D01*
X1170860Y611620D01*
X1170860Y598619D02*
X1137360Y598619D01*
X1137360Y605118D02*
X1170860Y605118D01*
X1170860Y611617D02*
X1137360Y611617D01*
X1170860Y579620D02*
X1170860Y560120D01*
X1137360Y560120D01*
X1137360Y579620D01*
X1170860Y579620D01*
X1170860Y566619D02*
X1137360Y566619D01*
X1137360Y573118D02*
X1170860Y573118D01*
X1170860Y579617D02*
X1137360Y579617D01*
D21*
X954387Y629437D02*
X954387Y646463D01*
X957013Y646463D01*
X957013Y629437D01*
X954387Y629437D01*
X954387Y630311D02*
X957013Y630311D01*
X957013Y631185D02*
X954387Y631185D01*
X954387Y632059D02*
X957013Y632059D01*
X957013Y632933D02*
X954387Y632933D01*
X954387Y633807D02*
X957013Y633807D01*
X957013Y634681D02*
X954387Y634681D01*
X954387Y635555D02*
X957013Y635555D01*
X957013Y636429D02*
X954387Y636429D01*
X954387Y637303D02*
X957013Y637303D01*
X957013Y638177D02*
X954387Y638177D01*
X954387Y639051D02*
X957013Y639051D01*
X957013Y639925D02*
X954387Y639925D01*
X954387Y640799D02*
X957013Y640799D01*
X957013Y641673D02*
X954387Y641673D01*
X954387Y642547D02*
X957013Y642547D01*
X957013Y643421D02*
X954387Y643421D01*
X954387Y644295D02*
X957013Y644295D01*
X957013Y645169D02*
X954387Y645169D01*
X954387Y646043D02*
X957013Y646043D01*
X949387Y646463D02*
X949387Y629437D01*
X949387Y646463D02*
X952013Y646463D01*
X952013Y629437D01*
X949387Y629437D01*
X949387Y630311D02*
X952013Y630311D01*
X952013Y631185D02*
X949387Y631185D01*
X949387Y632059D02*
X952013Y632059D01*
X952013Y632933D02*
X949387Y632933D01*
X949387Y633807D02*
X952013Y633807D01*
X952013Y634681D02*
X949387Y634681D01*
X949387Y635555D02*
X952013Y635555D01*
X952013Y636429D02*
X949387Y636429D01*
X949387Y637303D02*
X952013Y637303D01*
X952013Y638177D02*
X949387Y638177D01*
X949387Y639051D02*
X952013Y639051D01*
X952013Y639925D02*
X949387Y639925D01*
X949387Y640799D02*
X952013Y640799D01*
X952013Y641673D02*
X949387Y641673D01*
X949387Y642547D02*
X952013Y642547D01*
X952013Y643421D02*
X949387Y643421D01*
X949387Y644295D02*
X952013Y644295D01*
X952013Y645169D02*
X949387Y645169D01*
X949387Y646043D02*
X952013Y646043D01*
X944387Y646463D02*
X944387Y629437D01*
X944387Y646463D02*
X947013Y646463D01*
X947013Y629437D01*
X944387Y629437D01*
X944387Y630311D02*
X947013Y630311D01*
X947013Y631185D02*
X944387Y631185D01*
X944387Y632059D02*
X947013Y632059D01*
X947013Y632933D02*
X944387Y632933D01*
X944387Y633807D02*
X947013Y633807D01*
X947013Y634681D02*
X944387Y634681D01*
X944387Y635555D02*
X947013Y635555D01*
X947013Y636429D02*
X944387Y636429D01*
X944387Y637303D02*
X947013Y637303D01*
X947013Y638177D02*
X944387Y638177D01*
X944387Y639051D02*
X947013Y639051D01*
X947013Y639925D02*
X944387Y639925D01*
X944387Y640799D02*
X947013Y640799D01*
X947013Y641673D02*
X944387Y641673D01*
X944387Y642547D02*
X947013Y642547D01*
X947013Y643421D02*
X944387Y643421D01*
X944387Y644295D02*
X947013Y644295D01*
X947013Y645169D02*
X944387Y645169D01*
X944387Y646043D02*
X947013Y646043D01*
X939387Y646463D02*
X939387Y629437D01*
X939387Y646463D02*
X942013Y646463D01*
X942013Y629437D01*
X939387Y629437D01*
X939387Y630311D02*
X942013Y630311D01*
X942013Y631185D02*
X939387Y631185D01*
X939387Y632059D02*
X942013Y632059D01*
X942013Y632933D02*
X939387Y632933D01*
X939387Y633807D02*
X942013Y633807D01*
X942013Y634681D02*
X939387Y634681D01*
X939387Y635555D02*
X942013Y635555D01*
X942013Y636429D02*
X939387Y636429D01*
X939387Y637303D02*
X942013Y637303D01*
X942013Y638177D02*
X939387Y638177D01*
X939387Y639051D02*
X942013Y639051D01*
X942013Y639925D02*
X939387Y639925D01*
X939387Y640799D02*
X942013Y640799D01*
X942013Y641673D02*
X939387Y641673D01*
X939387Y642547D02*
X942013Y642547D01*
X942013Y643421D02*
X939387Y643421D01*
X939387Y644295D02*
X942013Y644295D01*
X942013Y645169D02*
X939387Y645169D01*
X939387Y646043D02*
X942013Y646043D01*
X934387Y646463D02*
X934387Y629437D01*
X934387Y646463D02*
X937013Y646463D01*
X937013Y629437D01*
X934387Y629437D01*
X934387Y630311D02*
X937013Y630311D01*
X937013Y631185D02*
X934387Y631185D01*
X934387Y632059D02*
X937013Y632059D01*
X937013Y632933D02*
X934387Y632933D01*
X934387Y633807D02*
X937013Y633807D01*
X937013Y634681D02*
X934387Y634681D01*
X934387Y635555D02*
X937013Y635555D01*
X937013Y636429D02*
X934387Y636429D01*
X934387Y637303D02*
X937013Y637303D01*
X937013Y638177D02*
X934387Y638177D01*
X934387Y639051D02*
X937013Y639051D01*
X937013Y639925D02*
X934387Y639925D01*
X934387Y640799D02*
X937013Y640799D01*
X937013Y641673D02*
X934387Y641673D01*
X934387Y642547D02*
X937013Y642547D01*
X937013Y643421D02*
X934387Y643421D01*
X934387Y644295D02*
X937013Y644295D01*
X937013Y645169D02*
X934387Y645169D01*
X934387Y646043D02*
X937013Y646043D01*
X929387Y646463D02*
X929387Y629437D01*
X929387Y646463D02*
X932013Y646463D01*
X932013Y629437D01*
X929387Y629437D01*
X929387Y630311D02*
X932013Y630311D01*
X932013Y631185D02*
X929387Y631185D01*
X929387Y632059D02*
X932013Y632059D01*
X932013Y632933D02*
X929387Y632933D01*
X929387Y633807D02*
X932013Y633807D01*
X932013Y634681D02*
X929387Y634681D01*
X929387Y635555D02*
X932013Y635555D01*
X932013Y636429D02*
X929387Y636429D01*
X929387Y637303D02*
X932013Y637303D01*
X932013Y638177D02*
X929387Y638177D01*
X929387Y639051D02*
X932013Y639051D01*
X932013Y639925D02*
X929387Y639925D01*
X929387Y640799D02*
X932013Y640799D01*
X932013Y641673D02*
X929387Y641673D01*
X929387Y642547D02*
X932013Y642547D01*
X932013Y643421D02*
X929387Y643421D01*
X929387Y644295D02*
X932013Y644295D01*
X932013Y645169D02*
X929387Y645169D01*
X929387Y646043D02*
X932013Y646043D01*
X924387Y646463D02*
X924387Y629437D01*
X924387Y646463D02*
X927013Y646463D01*
X927013Y629437D01*
X924387Y629437D01*
X924387Y630311D02*
X927013Y630311D01*
X927013Y631185D02*
X924387Y631185D01*
X924387Y632059D02*
X927013Y632059D01*
X927013Y632933D02*
X924387Y632933D01*
X924387Y633807D02*
X927013Y633807D01*
X927013Y634681D02*
X924387Y634681D01*
X924387Y635555D02*
X927013Y635555D01*
X927013Y636429D02*
X924387Y636429D01*
X924387Y637303D02*
X927013Y637303D01*
X927013Y638177D02*
X924387Y638177D01*
X924387Y639051D02*
X927013Y639051D01*
X927013Y639925D02*
X924387Y639925D01*
X924387Y640799D02*
X927013Y640799D01*
X927013Y641673D02*
X924387Y641673D01*
X924387Y642547D02*
X927013Y642547D01*
X927013Y643421D02*
X924387Y643421D01*
X924387Y644295D02*
X927013Y644295D01*
X927013Y645169D02*
X924387Y645169D01*
X924387Y646043D02*
X927013Y646043D01*
X919387Y646463D02*
X919387Y629437D01*
X919387Y646463D02*
X922013Y646463D01*
X922013Y629437D01*
X919387Y629437D01*
X919387Y630311D02*
X922013Y630311D01*
X922013Y631185D02*
X919387Y631185D01*
X919387Y632059D02*
X922013Y632059D01*
X922013Y632933D02*
X919387Y632933D01*
X919387Y633807D02*
X922013Y633807D01*
X922013Y634681D02*
X919387Y634681D01*
X919387Y635555D02*
X922013Y635555D01*
X922013Y636429D02*
X919387Y636429D01*
X919387Y637303D02*
X922013Y637303D01*
X922013Y638177D02*
X919387Y638177D01*
X919387Y639051D02*
X922013Y639051D01*
X922013Y639925D02*
X919387Y639925D01*
X919387Y640799D02*
X922013Y640799D01*
X922013Y641673D02*
X919387Y641673D01*
X919387Y642547D02*
X922013Y642547D01*
X922013Y643421D02*
X919387Y643421D01*
X919387Y644295D02*
X922013Y644295D01*
X922013Y645169D02*
X919387Y645169D01*
X919387Y646043D02*
X922013Y646043D01*
X914387Y646463D02*
X914387Y629437D01*
X914387Y646463D02*
X917013Y646463D01*
X917013Y629437D01*
X914387Y629437D01*
X914387Y630311D02*
X917013Y630311D01*
X917013Y631185D02*
X914387Y631185D01*
X914387Y632059D02*
X917013Y632059D01*
X917013Y632933D02*
X914387Y632933D01*
X914387Y633807D02*
X917013Y633807D01*
X917013Y634681D02*
X914387Y634681D01*
X914387Y635555D02*
X917013Y635555D01*
X917013Y636429D02*
X914387Y636429D01*
X914387Y637303D02*
X917013Y637303D01*
X917013Y638177D02*
X914387Y638177D01*
X914387Y639051D02*
X917013Y639051D01*
X917013Y639925D02*
X914387Y639925D01*
X914387Y640799D02*
X917013Y640799D01*
X917013Y641673D02*
X914387Y641673D01*
X914387Y642547D02*
X917013Y642547D01*
X917013Y643421D02*
X914387Y643421D01*
X914387Y644295D02*
X917013Y644295D01*
X917013Y645169D02*
X914387Y645169D01*
X914387Y646043D02*
X917013Y646043D01*
X909387Y646463D02*
X909387Y629437D01*
X909387Y646463D02*
X912013Y646463D01*
X912013Y629437D01*
X909387Y629437D01*
X909387Y630311D02*
X912013Y630311D01*
X912013Y631185D02*
X909387Y631185D01*
X909387Y632059D02*
X912013Y632059D01*
X912013Y632933D02*
X909387Y632933D01*
X909387Y633807D02*
X912013Y633807D01*
X912013Y634681D02*
X909387Y634681D01*
X909387Y635555D02*
X912013Y635555D01*
X912013Y636429D02*
X909387Y636429D01*
X909387Y637303D02*
X912013Y637303D01*
X912013Y638177D02*
X909387Y638177D01*
X909387Y639051D02*
X912013Y639051D01*
X912013Y639925D02*
X909387Y639925D01*
X909387Y640799D02*
X912013Y640799D01*
X912013Y641673D02*
X909387Y641673D01*
X909387Y642547D02*
X912013Y642547D01*
X912013Y643421D02*
X909387Y643421D01*
X909387Y644295D02*
X912013Y644295D01*
X912013Y645169D02*
X909387Y645169D01*
X909387Y646043D02*
X912013Y646043D01*
X904387Y646463D02*
X904387Y629437D01*
X904387Y646463D02*
X907013Y646463D01*
X907013Y629437D01*
X904387Y629437D01*
X904387Y630311D02*
X907013Y630311D01*
X907013Y631185D02*
X904387Y631185D01*
X904387Y632059D02*
X907013Y632059D01*
X907013Y632933D02*
X904387Y632933D01*
X904387Y633807D02*
X907013Y633807D01*
X907013Y634681D02*
X904387Y634681D01*
X904387Y635555D02*
X907013Y635555D01*
X907013Y636429D02*
X904387Y636429D01*
X904387Y637303D02*
X907013Y637303D01*
X907013Y638177D02*
X904387Y638177D01*
X904387Y639051D02*
X907013Y639051D01*
X907013Y639925D02*
X904387Y639925D01*
X904387Y640799D02*
X907013Y640799D01*
X907013Y641673D02*
X904387Y641673D01*
X904387Y642547D02*
X907013Y642547D01*
X907013Y643421D02*
X904387Y643421D01*
X904387Y644295D02*
X907013Y644295D01*
X907013Y645169D02*
X904387Y645169D01*
X904387Y646043D02*
X907013Y646043D01*
X899387Y646463D02*
X899387Y629437D01*
X899387Y646463D02*
X902013Y646463D01*
X902013Y629437D01*
X899387Y629437D01*
X899387Y630311D02*
X902013Y630311D01*
X902013Y631185D02*
X899387Y631185D01*
X899387Y632059D02*
X902013Y632059D01*
X902013Y632933D02*
X899387Y632933D01*
X899387Y633807D02*
X902013Y633807D01*
X902013Y634681D02*
X899387Y634681D01*
X899387Y635555D02*
X902013Y635555D01*
X902013Y636429D02*
X899387Y636429D01*
X899387Y637303D02*
X902013Y637303D01*
X902013Y638177D02*
X899387Y638177D01*
X899387Y639051D02*
X902013Y639051D01*
X902013Y639925D02*
X899387Y639925D01*
X899387Y640799D02*
X902013Y640799D01*
X902013Y641673D02*
X899387Y641673D01*
X899387Y642547D02*
X902013Y642547D01*
X902013Y643421D02*
X899387Y643421D01*
X899387Y644295D02*
X902013Y644295D01*
X902013Y645169D02*
X899387Y645169D01*
X899387Y646043D02*
X902013Y646043D01*
X894387Y646463D02*
X894387Y629437D01*
X894387Y646463D02*
X897013Y646463D01*
X897013Y629437D01*
X894387Y629437D01*
X894387Y630311D02*
X897013Y630311D01*
X897013Y631185D02*
X894387Y631185D01*
X894387Y632059D02*
X897013Y632059D01*
X897013Y632933D02*
X894387Y632933D01*
X894387Y633807D02*
X897013Y633807D01*
X897013Y634681D02*
X894387Y634681D01*
X894387Y635555D02*
X897013Y635555D01*
X897013Y636429D02*
X894387Y636429D01*
X894387Y637303D02*
X897013Y637303D01*
X897013Y638177D02*
X894387Y638177D01*
X894387Y639051D02*
X897013Y639051D01*
X897013Y639925D02*
X894387Y639925D01*
X894387Y640799D02*
X897013Y640799D01*
X897013Y641673D02*
X894387Y641673D01*
X894387Y642547D02*
X897013Y642547D01*
X897013Y643421D02*
X894387Y643421D01*
X894387Y644295D02*
X897013Y644295D01*
X897013Y645169D02*
X894387Y645169D01*
X894387Y646043D02*
X897013Y646043D01*
X889387Y646463D02*
X889387Y629437D01*
X889387Y646463D02*
X892013Y646463D01*
X892013Y629437D01*
X889387Y629437D01*
X889387Y630311D02*
X892013Y630311D01*
X892013Y631185D02*
X889387Y631185D01*
X889387Y632059D02*
X892013Y632059D01*
X892013Y632933D02*
X889387Y632933D01*
X889387Y633807D02*
X892013Y633807D01*
X892013Y634681D02*
X889387Y634681D01*
X889387Y635555D02*
X892013Y635555D01*
X892013Y636429D02*
X889387Y636429D01*
X889387Y637303D02*
X892013Y637303D01*
X892013Y638177D02*
X889387Y638177D01*
X889387Y639051D02*
X892013Y639051D01*
X892013Y639925D02*
X889387Y639925D01*
X889387Y640799D02*
X892013Y640799D01*
X892013Y641673D02*
X889387Y641673D01*
X889387Y642547D02*
X892013Y642547D01*
X892013Y643421D02*
X889387Y643421D01*
X889387Y644295D02*
X892013Y644295D01*
X892013Y645169D02*
X889387Y645169D01*
X889387Y646043D02*
X892013Y646043D01*
X884387Y646463D02*
X884387Y629437D01*
X884387Y646463D02*
X887013Y646463D01*
X887013Y629437D01*
X884387Y629437D01*
X884387Y630311D02*
X887013Y630311D01*
X887013Y631185D02*
X884387Y631185D01*
X884387Y632059D02*
X887013Y632059D01*
X887013Y632933D02*
X884387Y632933D01*
X884387Y633807D02*
X887013Y633807D01*
X887013Y634681D02*
X884387Y634681D01*
X884387Y635555D02*
X887013Y635555D01*
X887013Y636429D02*
X884387Y636429D01*
X884387Y637303D02*
X887013Y637303D01*
X887013Y638177D02*
X884387Y638177D01*
X884387Y639051D02*
X887013Y639051D01*
X887013Y639925D02*
X884387Y639925D01*
X884387Y640799D02*
X887013Y640799D01*
X887013Y641673D02*
X884387Y641673D01*
X884387Y642547D02*
X887013Y642547D01*
X887013Y643421D02*
X884387Y643421D01*
X884387Y644295D02*
X887013Y644295D01*
X887013Y645169D02*
X884387Y645169D01*
X884387Y646043D02*
X887013Y646043D01*
X879387Y646463D02*
X879387Y629437D01*
X879387Y646463D02*
X882013Y646463D01*
X882013Y629437D01*
X879387Y629437D01*
X879387Y630311D02*
X882013Y630311D01*
X882013Y631185D02*
X879387Y631185D01*
X879387Y632059D02*
X882013Y632059D01*
X882013Y632933D02*
X879387Y632933D01*
X879387Y633807D02*
X882013Y633807D01*
X882013Y634681D02*
X879387Y634681D01*
X879387Y635555D02*
X882013Y635555D01*
X882013Y636429D02*
X879387Y636429D01*
X879387Y637303D02*
X882013Y637303D01*
X882013Y638177D02*
X879387Y638177D01*
X879387Y639051D02*
X882013Y639051D01*
X882013Y639925D02*
X879387Y639925D01*
X879387Y640799D02*
X882013Y640799D01*
X882013Y641673D02*
X879387Y641673D01*
X879387Y642547D02*
X882013Y642547D01*
X882013Y643421D02*
X879387Y643421D01*
X879387Y644295D02*
X882013Y644295D01*
X882013Y645169D02*
X879387Y645169D01*
X879387Y646043D02*
X882013Y646043D01*
X874387Y646463D02*
X874387Y629437D01*
X874387Y646463D02*
X877013Y646463D01*
X877013Y629437D01*
X874387Y629437D01*
X874387Y630311D02*
X877013Y630311D01*
X877013Y631185D02*
X874387Y631185D01*
X874387Y632059D02*
X877013Y632059D01*
X877013Y632933D02*
X874387Y632933D01*
X874387Y633807D02*
X877013Y633807D01*
X877013Y634681D02*
X874387Y634681D01*
X874387Y635555D02*
X877013Y635555D01*
X877013Y636429D02*
X874387Y636429D01*
X874387Y637303D02*
X877013Y637303D01*
X877013Y638177D02*
X874387Y638177D01*
X874387Y639051D02*
X877013Y639051D01*
X877013Y639925D02*
X874387Y639925D01*
X874387Y640799D02*
X877013Y640799D01*
X877013Y641673D02*
X874387Y641673D01*
X874387Y642547D02*
X877013Y642547D01*
X877013Y643421D02*
X874387Y643421D01*
X874387Y644295D02*
X877013Y644295D01*
X877013Y645169D02*
X874387Y645169D01*
X874387Y646043D02*
X877013Y646043D01*
X869387Y646463D02*
X869387Y629437D01*
X869387Y646463D02*
X872013Y646463D01*
X872013Y629437D01*
X869387Y629437D01*
X869387Y630311D02*
X872013Y630311D01*
X872013Y631185D02*
X869387Y631185D01*
X869387Y632059D02*
X872013Y632059D01*
X872013Y632933D02*
X869387Y632933D01*
X869387Y633807D02*
X872013Y633807D01*
X872013Y634681D02*
X869387Y634681D01*
X869387Y635555D02*
X872013Y635555D01*
X872013Y636429D02*
X869387Y636429D01*
X869387Y637303D02*
X872013Y637303D01*
X872013Y638177D02*
X869387Y638177D01*
X869387Y639051D02*
X872013Y639051D01*
X872013Y639925D02*
X869387Y639925D01*
X869387Y640799D02*
X872013Y640799D01*
X872013Y641673D02*
X869387Y641673D01*
X869387Y642547D02*
X872013Y642547D01*
X872013Y643421D02*
X869387Y643421D01*
X869387Y644295D02*
X872013Y644295D01*
X872013Y645169D02*
X869387Y645169D01*
X869387Y646043D02*
X872013Y646043D01*
X869387Y552163D02*
X869387Y535137D01*
X869387Y552163D02*
X872013Y552163D01*
X872013Y535137D01*
X869387Y535137D01*
X869387Y536011D02*
X872013Y536011D01*
X872013Y536885D02*
X869387Y536885D01*
X869387Y537759D02*
X872013Y537759D01*
X872013Y538633D02*
X869387Y538633D01*
X869387Y539507D02*
X872013Y539507D01*
X872013Y540381D02*
X869387Y540381D01*
X869387Y541255D02*
X872013Y541255D01*
X872013Y542129D02*
X869387Y542129D01*
X869387Y543003D02*
X872013Y543003D01*
X872013Y543877D02*
X869387Y543877D01*
X869387Y544751D02*
X872013Y544751D01*
X872013Y545625D02*
X869387Y545625D01*
X869387Y546499D02*
X872013Y546499D01*
X872013Y547373D02*
X869387Y547373D01*
X869387Y548247D02*
X872013Y548247D01*
X872013Y549121D02*
X869387Y549121D01*
X869387Y549995D02*
X872013Y549995D01*
X872013Y550869D02*
X869387Y550869D01*
X869387Y551743D02*
X872013Y551743D01*
X874387Y552163D02*
X874387Y535137D01*
X874387Y552163D02*
X877013Y552163D01*
X877013Y535137D01*
X874387Y535137D01*
X874387Y536011D02*
X877013Y536011D01*
X877013Y536885D02*
X874387Y536885D01*
X874387Y537759D02*
X877013Y537759D01*
X877013Y538633D02*
X874387Y538633D01*
X874387Y539507D02*
X877013Y539507D01*
X877013Y540381D02*
X874387Y540381D01*
X874387Y541255D02*
X877013Y541255D01*
X877013Y542129D02*
X874387Y542129D01*
X874387Y543003D02*
X877013Y543003D01*
X877013Y543877D02*
X874387Y543877D01*
X874387Y544751D02*
X877013Y544751D01*
X877013Y545625D02*
X874387Y545625D01*
X874387Y546499D02*
X877013Y546499D01*
X877013Y547373D02*
X874387Y547373D01*
X874387Y548247D02*
X877013Y548247D01*
X877013Y549121D02*
X874387Y549121D01*
X874387Y549995D02*
X877013Y549995D01*
X877013Y550869D02*
X874387Y550869D01*
X874387Y551743D02*
X877013Y551743D01*
X879387Y552163D02*
X879387Y535137D01*
X879387Y552163D02*
X882013Y552163D01*
X882013Y535137D01*
X879387Y535137D01*
X879387Y536011D02*
X882013Y536011D01*
X882013Y536885D02*
X879387Y536885D01*
X879387Y537759D02*
X882013Y537759D01*
X882013Y538633D02*
X879387Y538633D01*
X879387Y539507D02*
X882013Y539507D01*
X882013Y540381D02*
X879387Y540381D01*
X879387Y541255D02*
X882013Y541255D01*
X882013Y542129D02*
X879387Y542129D01*
X879387Y543003D02*
X882013Y543003D01*
X882013Y543877D02*
X879387Y543877D01*
X879387Y544751D02*
X882013Y544751D01*
X882013Y545625D02*
X879387Y545625D01*
X879387Y546499D02*
X882013Y546499D01*
X882013Y547373D02*
X879387Y547373D01*
X879387Y548247D02*
X882013Y548247D01*
X882013Y549121D02*
X879387Y549121D01*
X879387Y549995D02*
X882013Y549995D01*
X882013Y550869D02*
X879387Y550869D01*
X879387Y551743D02*
X882013Y551743D01*
X884387Y552163D02*
X884387Y535137D01*
X884387Y552163D02*
X887013Y552163D01*
X887013Y535137D01*
X884387Y535137D01*
X884387Y536011D02*
X887013Y536011D01*
X887013Y536885D02*
X884387Y536885D01*
X884387Y537759D02*
X887013Y537759D01*
X887013Y538633D02*
X884387Y538633D01*
X884387Y539507D02*
X887013Y539507D01*
X887013Y540381D02*
X884387Y540381D01*
X884387Y541255D02*
X887013Y541255D01*
X887013Y542129D02*
X884387Y542129D01*
X884387Y543003D02*
X887013Y543003D01*
X887013Y543877D02*
X884387Y543877D01*
X884387Y544751D02*
X887013Y544751D01*
X887013Y545625D02*
X884387Y545625D01*
X884387Y546499D02*
X887013Y546499D01*
X887013Y547373D02*
X884387Y547373D01*
X884387Y548247D02*
X887013Y548247D01*
X887013Y549121D02*
X884387Y549121D01*
X884387Y549995D02*
X887013Y549995D01*
X887013Y550869D02*
X884387Y550869D01*
X884387Y551743D02*
X887013Y551743D01*
X889387Y552163D02*
X889387Y535137D01*
X889387Y552163D02*
X892013Y552163D01*
X892013Y535137D01*
X889387Y535137D01*
X889387Y536011D02*
X892013Y536011D01*
X892013Y536885D02*
X889387Y536885D01*
X889387Y537759D02*
X892013Y537759D01*
X892013Y538633D02*
X889387Y538633D01*
X889387Y539507D02*
X892013Y539507D01*
X892013Y540381D02*
X889387Y540381D01*
X889387Y541255D02*
X892013Y541255D01*
X892013Y542129D02*
X889387Y542129D01*
X889387Y543003D02*
X892013Y543003D01*
X892013Y543877D02*
X889387Y543877D01*
X889387Y544751D02*
X892013Y544751D01*
X892013Y545625D02*
X889387Y545625D01*
X889387Y546499D02*
X892013Y546499D01*
X892013Y547373D02*
X889387Y547373D01*
X889387Y548247D02*
X892013Y548247D01*
X892013Y549121D02*
X889387Y549121D01*
X889387Y549995D02*
X892013Y549995D01*
X892013Y550869D02*
X889387Y550869D01*
X889387Y551743D02*
X892013Y551743D01*
X894387Y552163D02*
X894387Y535137D01*
X894387Y552163D02*
X897013Y552163D01*
X897013Y535137D01*
X894387Y535137D01*
X894387Y536011D02*
X897013Y536011D01*
X897013Y536885D02*
X894387Y536885D01*
X894387Y537759D02*
X897013Y537759D01*
X897013Y538633D02*
X894387Y538633D01*
X894387Y539507D02*
X897013Y539507D01*
X897013Y540381D02*
X894387Y540381D01*
X894387Y541255D02*
X897013Y541255D01*
X897013Y542129D02*
X894387Y542129D01*
X894387Y543003D02*
X897013Y543003D01*
X897013Y543877D02*
X894387Y543877D01*
X894387Y544751D02*
X897013Y544751D01*
X897013Y545625D02*
X894387Y545625D01*
X894387Y546499D02*
X897013Y546499D01*
X897013Y547373D02*
X894387Y547373D01*
X894387Y548247D02*
X897013Y548247D01*
X897013Y549121D02*
X894387Y549121D01*
X894387Y549995D02*
X897013Y549995D01*
X897013Y550869D02*
X894387Y550869D01*
X894387Y551743D02*
X897013Y551743D01*
X899387Y552163D02*
X899387Y535137D01*
X899387Y552163D02*
X902013Y552163D01*
X902013Y535137D01*
X899387Y535137D01*
X899387Y536011D02*
X902013Y536011D01*
X902013Y536885D02*
X899387Y536885D01*
X899387Y537759D02*
X902013Y537759D01*
X902013Y538633D02*
X899387Y538633D01*
X899387Y539507D02*
X902013Y539507D01*
X902013Y540381D02*
X899387Y540381D01*
X899387Y541255D02*
X902013Y541255D01*
X902013Y542129D02*
X899387Y542129D01*
X899387Y543003D02*
X902013Y543003D01*
X902013Y543877D02*
X899387Y543877D01*
X899387Y544751D02*
X902013Y544751D01*
X902013Y545625D02*
X899387Y545625D01*
X899387Y546499D02*
X902013Y546499D01*
X902013Y547373D02*
X899387Y547373D01*
X899387Y548247D02*
X902013Y548247D01*
X902013Y549121D02*
X899387Y549121D01*
X899387Y549995D02*
X902013Y549995D01*
X902013Y550869D02*
X899387Y550869D01*
X899387Y551743D02*
X902013Y551743D01*
X904387Y552163D02*
X904387Y535137D01*
X904387Y552163D02*
X907013Y552163D01*
X907013Y535137D01*
X904387Y535137D01*
X904387Y536011D02*
X907013Y536011D01*
X907013Y536885D02*
X904387Y536885D01*
X904387Y537759D02*
X907013Y537759D01*
X907013Y538633D02*
X904387Y538633D01*
X904387Y539507D02*
X907013Y539507D01*
X907013Y540381D02*
X904387Y540381D01*
X904387Y541255D02*
X907013Y541255D01*
X907013Y542129D02*
X904387Y542129D01*
X904387Y543003D02*
X907013Y543003D01*
X907013Y543877D02*
X904387Y543877D01*
X904387Y544751D02*
X907013Y544751D01*
X907013Y545625D02*
X904387Y545625D01*
X904387Y546499D02*
X907013Y546499D01*
X907013Y547373D02*
X904387Y547373D01*
X904387Y548247D02*
X907013Y548247D01*
X907013Y549121D02*
X904387Y549121D01*
X904387Y549995D02*
X907013Y549995D01*
X907013Y550869D02*
X904387Y550869D01*
X904387Y551743D02*
X907013Y551743D01*
X909387Y552163D02*
X909387Y535137D01*
X909387Y552163D02*
X912013Y552163D01*
X912013Y535137D01*
X909387Y535137D01*
X909387Y536011D02*
X912013Y536011D01*
X912013Y536885D02*
X909387Y536885D01*
X909387Y537759D02*
X912013Y537759D01*
X912013Y538633D02*
X909387Y538633D01*
X909387Y539507D02*
X912013Y539507D01*
X912013Y540381D02*
X909387Y540381D01*
X909387Y541255D02*
X912013Y541255D01*
X912013Y542129D02*
X909387Y542129D01*
X909387Y543003D02*
X912013Y543003D01*
X912013Y543877D02*
X909387Y543877D01*
X909387Y544751D02*
X912013Y544751D01*
X912013Y545625D02*
X909387Y545625D01*
X909387Y546499D02*
X912013Y546499D01*
X912013Y547373D02*
X909387Y547373D01*
X909387Y548247D02*
X912013Y548247D01*
X912013Y549121D02*
X909387Y549121D01*
X909387Y549995D02*
X912013Y549995D01*
X912013Y550869D02*
X909387Y550869D01*
X909387Y551743D02*
X912013Y551743D01*
X914387Y552163D02*
X914387Y535137D01*
X914387Y552163D02*
X917013Y552163D01*
X917013Y535137D01*
X914387Y535137D01*
X914387Y536011D02*
X917013Y536011D01*
X917013Y536885D02*
X914387Y536885D01*
X914387Y537759D02*
X917013Y537759D01*
X917013Y538633D02*
X914387Y538633D01*
X914387Y539507D02*
X917013Y539507D01*
X917013Y540381D02*
X914387Y540381D01*
X914387Y541255D02*
X917013Y541255D01*
X917013Y542129D02*
X914387Y542129D01*
X914387Y543003D02*
X917013Y543003D01*
X917013Y543877D02*
X914387Y543877D01*
X914387Y544751D02*
X917013Y544751D01*
X917013Y545625D02*
X914387Y545625D01*
X914387Y546499D02*
X917013Y546499D01*
X917013Y547373D02*
X914387Y547373D01*
X914387Y548247D02*
X917013Y548247D01*
X917013Y549121D02*
X914387Y549121D01*
X914387Y549995D02*
X917013Y549995D01*
X917013Y550869D02*
X914387Y550869D01*
X914387Y551743D02*
X917013Y551743D01*
X919387Y552163D02*
X919387Y535137D01*
X919387Y552163D02*
X922013Y552163D01*
X922013Y535137D01*
X919387Y535137D01*
X919387Y536011D02*
X922013Y536011D01*
X922013Y536885D02*
X919387Y536885D01*
X919387Y537759D02*
X922013Y537759D01*
X922013Y538633D02*
X919387Y538633D01*
X919387Y539507D02*
X922013Y539507D01*
X922013Y540381D02*
X919387Y540381D01*
X919387Y541255D02*
X922013Y541255D01*
X922013Y542129D02*
X919387Y542129D01*
X919387Y543003D02*
X922013Y543003D01*
X922013Y543877D02*
X919387Y543877D01*
X919387Y544751D02*
X922013Y544751D01*
X922013Y545625D02*
X919387Y545625D01*
X919387Y546499D02*
X922013Y546499D01*
X922013Y547373D02*
X919387Y547373D01*
X919387Y548247D02*
X922013Y548247D01*
X922013Y549121D02*
X919387Y549121D01*
X919387Y549995D02*
X922013Y549995D01*
X922013Y550869D02*
X919387Y550869D01*
X919387Y551743D02*
X922013Y551743D01*
X924387Y552163D02*
X924387Y535137D01*
X924387Y552163D02*
X927013Y552163D01*
X927013Y535137D01*
X924387Y535137D01*
X924387Y536011D02*
X927013Y536011D01*
X927013Y536885D02*
X924387Y536885D01*
X924387Y537759D02*
X927013Y537759D01*
X927013Y538633D02*
X924387Y538633D01*
X924387Y539507D02*
X927013Y539507D01*
X927013Y540381D02*
X924387Y540381D01*
X924387Y541255D02*
X927013Y541255D01*
X927013Y542129D02*
X924387Y542129D01*
X924387Y543003D02*
X927013Y543003D01*
X927013Y543877D02*
X924387Y543877D01*
X924387Y544751D02*
X927013Y544751D01*
X927013Y545625D02*
X924387Y545625D01*
X924387Y546499D02*
X927013Y546499D01*
X927013Y547373D02*
X924387Y547373D01*
X924387Y548247D02*
X927013Y548247D01*
X927013Y549121D02*
X924387Y549121D01*
X924387Y549995D02*
X927013Y549995D01*
X927013Y550869D02*
X924387Y550869D01*
X924387Y551743D02*
X927013Y551743D01*
X929387Y552163D02*
X929387Y535137D01*
X929387Y552163D02*
X932013Y552163D01*
X932013Y535137D01*
X929387Y535137D01*
X929387Y536011D02*
X932013Y536011D01*
X932013Y536885D02*
X929387Y536885D01*
X929387Y537759D02*
X932013Y537759D01*
X932013Y538633D02*
X929387Y538633D01*
X929387Y539507D02*
X932013Y539507D01*
X932013Y540381D02*
X929387Y540381D01*
X929387Y541255D02*
X932013Y541255D01*
X932013Y542129D02*
X929387Y542129D01*
X929387Y543003D02*
X932013Y543003D01*
X932013Y543877D02*
X929387Y543877D01*
X929387Y544751D02*
X932013Y544751D01*
X932013Y545625D02*
X929387Y545625D01*
X929387Y546499D02*
X932013Y546499D01*
X932013Y547373D02*
X929387Y547373D01*
X929387Y548247D02*
X932013Y548247D01*
X932013Y549121D02*
X929387Y549121D01*
X929387Y549995D02*
X932013Y549995D01*
X932013Y550869D02*
X929387Y550869D01*
X929387Y551743D02*
X932013Y551743D01*
X934387Y552163D02*
X934387Y535137D01*
X934387Y552163D02*
X937013Y552163D01*
X937013Y535137D01*
X934387Y535137D01*
X934387Y536011D02*
X937013Y536011D01*
X937013Y536885D02*
X934387Y536885D01*
X934387Y537759D02*
X937013Y537759D01*
X937013Y538633D02*
X934387Y538633D01*
X934387Y539507D02*
X937013Y539507D01*
X937013Y540381D02*
X934387Y540381D01*
X934387Y541255D02*
X937013Y541255D01*
X937013Y542129D02*
X934387Y542129D01*
X934387Y543003D02*
X937013Y543003D01*
X937013Y543877D02*
X934387Y543877D01*
X934387Y544751D02*
X937013Y544751D01*
X937013Y545625D02*
X934387Y545625D01*
X934387Y546499D02*
X937013Y546499D01*
X937013Y547373D02*
X934387Y547373D01*
X934387Y548247D02*
X937013Y548247D01*
X937013Y549121D02*
X934387Y549121D01*
X934387Y549995D02*
X937013Y549995D01*
X937013Y550869D02*
X934387Y550869D01*
X934387Y551743D02*
X937013Y551743D01*
X939387Y552163D02*
X939387Y535137D01*
X939387Y552163D02*
X942013Y552163D01*
X942013Y535137D01*
X939387Y535137D01*
X939387Y536011D02*
X942013Y536011D01*
X942013Y536885D02*
X939387Y536885D01*
X939387Y537759D02*
X942013Y537759D01*
X942013Y538633D02*
X939387Y538633D01*
X939387Y539507D02*
X942013Y539507D01*
X942013Y540381D02*
X939387Y540381D01*
X939387Y541255D02*
X942013Y541255D01*
X942013Y542129D02*
X939387Y542129D01*
X939387Y543003D02*
X942013Y543003D01*
X942013Y543877D02*
X939387Y543877D01*
X939387Y544751D02*
X942013Y544751D01*
X942013Y545625D02*
X939387Y545625D01*
X939387Y546499D02*
X942013Y546499D01*
X942013Y547373D02*
X939387Y547373D01*
X939387Y548247D02*
X942013Y548247D01*
X942013Y549121D02*
X939387Y549121D01*
X939387Y549995D02*
X942013Y549995D01*
X942013Y550869D02*
X939387Y550869D01*
X939387Y551743D02*
X942013Y551743D01*
X944387Y552163D02*
X944387Y535137D01*
X944387Y552163D02*
X947013Y552163D01*
X947013Y535137D01*
X944387Y535137D01*
X944387Y536011D02*
X947013Y536011D01*
X947013Y536885D02*
X944387Y536885D01*
X944387Y537759D02*
X947013Y537759D01*
X947013Y538633D02*
X944387Y538633D01*
X944387Y539507D02*
X947013Y539507D01*
X947013Y540381D02*
X944387Y540381D01*
X944387Y541255D02*
X947013Y541255D01*
X947013Y542129D02*
X944387Y542129D01*
X944387Y543003D02*
X947013Y543003D01*
X947013Y543877D02*
X944387Y543877D01*
X944387Y544751D02*
X947013Y544751D01*
X947013Y545625D02*
X944387Y545625D01*
X944387Y546499D02*
X947013Y546499D01*
X947013Y547373D02*
X944387Y547373D01*
X944387Y548247D02*
X947013Y548247D01*
X947013Y549121D02*
X944387Y549121D01*
X944387Y549995D02*
X947013Y549995D01*
X947013Y550869D02*
X944387Y550869D01*
X944387Y551743D02*
X947013Y551743D01*
X949387Y552163D02*
X949387Y535137D01*
X949387Y552163D02*
X952013Y552163D01*
X952013Y535137D01*
X949387Y535137D01*
X949387Y536011D02*
X952013Y536011D01*
X952013Y536885D02*
X949387Y536885D01*
X949387Y537759D02*
X952013Y537759D01*
X952013Y538633D02*
X949387Y538633D01*
X949387Y539507D02*
X952013Y539507D01*
X952013Y540381D02*
X949387Y540381D01*
X949387Y541255D02*
X952013Y541255D01*
X952013Y542129D02*
X949387Y542129D01*
X949387Y543003D02*
X952013Y543003D01*
X952013Y543877D02*
X949387Y543877D01*
X949387Y544751D02*
X952013Y544751D01*
X952013Y545625D02*
X949387Y545625D01*
X949387Y546499D02*
X952013Y546499D01*
X952013Y547373D02*
X949387Y547373D01*
X949387Y548247D02*
X952013Y548247D01*
X952013Y549121D02*
X949387Y549121D01*
X949387Y549995D02*
X952013Y549995D01*
X952013Y550869D02*
X949387Y550869D01*
X949387Y551743D02*
X952013Y551743D01*
X954387Y552163D02*
X954387Y535137D01*
X954387Y552163D02*
X957013Y552163D01*
X957013Y535137D01*
X954387Y535137D01*
X954387Y536011D02*
X957013Y536011D01*
X957013Y536885D02*
X954387Y536885D01*
X954387Y537759D02*
X957013Y537759D01*
X957013Y538633D02*
X954387Y538633D01*
X954387Y539507D02*
X957013Y539507D01*
X957013Y540381D02*
X954387Y540381D01*
X954387Y541255D02*
X957013Y541255D01*
X957013Y542129D02*
X954387Y542129D01*
X954387Y543003D02*
X957013Y543003D01*
X957013Y543877D02*
X954387Y543877D01*
X954387Y544751D02*
X957013Y544751D01*
X957013Y545625D02*
X954387Y545625D01*
X954387Y546499D02*
X957013Y546499D01*
X957013Y547373D02*
X954387Y547373D01*
X954387Y548247D02*
X957013Y548247D01*
X957013Y549121D02*
X954387Y549121D01*
X954387Y549995D02*
X957013Y549995D01*
X957013Y550869D02*
X954387Y550869D01*
X954387Y551743D02*
X957013Y551743D01*
D22*
X905200Y566800D02*
X905200Y614800D01*
X905200Y566800D02*
X875200Y566800D01*
X875200Y614800D01*
X905200Y614800D01*
X905200Y576799D02*
X875200Y576799D01*
X875200Y586798D02*
X905200Y586798D01*
X905200Y596797D02*
X875200Y596797D01*
X875200Y606796D02*
X905200Y606796D01*
D23*
X952950Y597050D02*
X952950Y616550D01*
X952950Y597050D02*
X919450Y597050D01*
X919450Y616550D01*
X952950Y616550D01*
X952950Y603549D02*
X919450Y603549D01*
X919450Y610048D02*
X952950Y610048D01*
X952950Y616547D02*
X919450Y616547D01*
X952950Y584550D02*
X952950Y565050D01*
X919450Y565050D01*
X919450Y584550D01*
X952950Y584550D01*
X952950Y571549D02*
X919450Y571549D01*
X919450Y578048D02*
X952950Y578048D01*
X952950Y584547D02*
X919450Y584547D01*
D21*
X1170887Y347563D02*
X1170887Y330537D01*
X1170887Y347563D02*
X1173513Y347563D01*
X1173513Y330537D01*
X1170887Y330537D01*
X1170887Y331411D02*
X1173513Y331411D01*
X1173513Y332285D02*
X1170887Y332285D01*
X1170887Y333159D02*
X1173513Y333159D01*
X1173513Y334033D02*
X1170887Y334033D01*
X1170887Y334907D02*
X1173513Y334907D01*
X1173513Y335781D02*
X1170887Y335781D01*
X1170887Y336655D02*
X1173513Y336655D01*
X1173513Y337529D02*
X1170887Y337529D01*
X1170887Y338403D02*
X1173513Y338403D01*
X1173513Y339277D02*
X1170887Y339277D01*
X1170887Y340151D02*
X1173513Y340151D01*
X1173513Y341025D02*
X1170887Y341025D01*
X1170887Y341899D02*
X1173513Y341899D01*
X1173513Y342773D02*
X1170887Y342773D01*
X1170887Y343647D02*
X1173513Y343647D01*
X1173513Y344521D02*
X1170887Y344521D01*
X1170887Y345395D02*
X1173513Y345395D01*
X1173513Y346269D02*
X1170887Y346269D01*
X1170887Y347143D02*
X1173513Y347143D01*
X1165887Y347563D02*
X1165887Y330537D01*
X1165887Y347563D02*
X1168513Y347563D01*
X1168513Y330537D01*
X1165887Y330537D01*
X1165887Y331411D02*
X1168513Y331411D01*
X1168513Y332285D02*
X1165887Y332285D01*
X1165887Y333159D02*
X1168513Y333159D01*
X1168513Y334033D02*
X1165887Y334033D01*
X1165887Y334907D02*
X1168513Y334907D01*
X1168513Y335781D02*
X1165887Y335781D01*
X1165887Y336655D02*
X1168513Y336655D01*
X1168513Y337529D02*
X1165887Y337529D01*
X1165887Y338403D02*
X1168513Y338403D01*
X1168513Y339277D02*
X1165887Y339277D01*
X1165887Y340151D02*
X1168513Y340151D01*
X1168513Y341025D02*
X1165887Y341025D01*
X1165887Y341899D02*
X1168513Y341899D01*
X1168513Y342773D02*
X1165887Y342773D01*
X1165887Y343647D02*
X1168513Y343647D01*
X1168513Y344521D02*
X1165887Y344521D01*
X1165887Y345395D02*
X1168513Y345395D01*
X1168513Y346269D02*
X1165887Y346269D01*
X1165887Y347143D02*
X1168513Y347143D01*
X1160887Y347563D02*
X1160887Y330537D01*
X1160887Y347563D02*
X1163513Y347563D01*
X1163513Y330537D01*
X1160887Y330537D01*
X1160887Y331411D02*
X1163513Y331411D01*
X1163513Y332285D02*
X1160887Y332285D01*
X1160887Y333159D02*
X1163513Y333159D01*
X1163513Y334033D02*
X1160887Y334033D01*
X1160887Y334907D02*
X1163513Y334907D01*
X1163513Y335781D02*
X1160887Y335781D01*
X1160887Y336655D02*
X1163513Y336655D01*
X1163513Y337529D02*
X1160887Y337529D01*
X1160887Y338403D02*
X1163513Y338403D01*
X1163513Y339277D02*
X1160887Y339277D01*
X1160887Y340151D02*
X1163513Y340151D01*
X1163513Y341025D02*
X1160887Y341025D01*
X1160887Y341899D02*
X1163513Y341899D01*
X1163513Y342773D02*
X1160887Y342773D01*
X1160887Y343647D02*
X1163513Y343647D01*
X1163513Y344521D02*
X1160887Y344521D01*
X1160887Y345395D02*
X1163513Y345395D01*
X1163513Y346269D02*
X1160887Y346269D01*
X1160887Y347143D02*
X1163513Y347143D01*
X1155887Y347563D02*
X1155887Y330537D01*
X1155887Y347563D02*
X1158513Y347563D01*
X1158513Y330537D01*
X1155887Y330537D01*
X1155887Y331411D02*
X1158513Y331411D01*
X1158513Y332285D02*
X1155887Y332285D01*
X1155887Y333159D02*
X1158513Y333159D01*
X1158513Y334033D02*
X1155887Y334033D01*
X1155887Y334907D02*
X1158513Y334907D01*
X1158513Y335781D02*
X1155887Y335781D01*
X1155887Y336655D02*
X1158513Y336655D01*
X1158513Y337529D02*
X1155887Y337529D01*
X1155887Y338403D02*
X1158513Y338403D01*
X1158513Y339277D02*
X1155887Y339277D01*
X1155887Y340151D02*
X1158513Y340151D01*
X1158513Y341025D02*
X1155887Y341025D01*
X1155887Y341899D02*
X1158513Y341899D01*
X1158513Y342773D02*
X1155887Y342773D01*
X1155887Y343647D02*
X1158513Y343647D01*
X1158513Y344521D02*
X1155887Y344521D01*
X1155887Y345395D02*
X1158513Y345395D01*
X1158513Y346269D02*
X1155887Y346269D01*
X1155887Y347143D02*
X1158513Y347143D01*
X1150887Y347563D02*
X1150887Y330537D01*
X1150887Y347563D02*
X1153513Y347563D01*
X1153513Y330537D01*
X1150887Y330537D01*
X1150887Y331411D02*
X1153513Y331411D01*
X1153513Y332285D02*
X1150887Y332285D01*
X1150887Y333159D02*
X1153513Y333159D01*
X1153513Y334033D02*
X1150887Y334033D01*
X1150887Y334907D02*
X1153513Y334907D01*
X1153513Y335781D02*
X1150887Y335781D01*
X1150887Y336655D02*
X1153513Y336655D01*
X1153513Y337529D02*
X1150887Y337529D01*
X1150887Y338403D02*
X1153513Y338403D01*
X1153513Y339277D02*
X1150887Y339277D01*
X1150887Y340151D02*
X1153513Y340151D01*
X1153513Y341025D02*
X1150887Y341025D01*
X1150887Y341899D02*
X1153513Y341899D01*
X1153513Y342773D02*
X1150887Y342773D01*
X1150887Y343647D02*
X1153513Y343647D01*
X1153513Y344521D02*
X1150887Y344521D01*
X1150887Y345395D02*
X1153513Y345395D01*
X1153513Y346269D02*
X1150887Y346269D01*
X1150887Y347143D02*
X1153513Y347143D01*
X1145887Y347563D02*
X1145887Y330537D01*
X1145887Y347563D02*
X1148513Y347563D01*
X1148513Y330537D01*
X1145887Y330537D01*
X1145887Y331411D02*
X1148513Y331411D01*
X1148513Y332285D02*
X1145887Y332285D01*
X1145887Y333159D02*
X1148513Y333159D01*
X1148513Y334033D02*
X1145887Y334033D01*
X1145887Y334907D02*
X1148513Y334907D01*
X1148513Y335781D02*
X1145887Y335781D01*
X1145887Y336655D02*
X1148513Y336655D01*
X1148513Y337529D02*
X1145887Y337529D01*
X1145887Y338403D02*
X1148513Y338403D01*
X1148513Y339277D02*
X1145887Y339277D01*
X1145887Y340151D02*
X1148513Y340151D01*
X1148513Y341025D02*
X1145887Y341025D01*
X1145887Y341899D02*
X1148513Y341899D01*
X1148513Y342773D02*
X1145887Y342773D01*
X1145887Y343647D02*
X1148513Y343647D01*
X1148513Y344521D02*
X1145887Y344521D01*
X1145887Y345395D02*
X1148513Y345395D01*
X1148513Y346269D02*
X1145887Y346269D01*
X1145887Y347143D02*
X1148513Y347143D01*
X1140887Y347563D02*
X1140887Y330537D01*
X1140887Y347563D02*
X1143513Y347563D01*
X1143513Y330537D01*
X1140887Y330537D01*
X1140887Y331411D02*
X1143513Y331411D01*
X1143513Y332285D02*
X1140887Y332285D01*
X1140887Y333159D02*
X1143513Y333159D01*
X1143513Y334033D02*
X1140887Y334033D01*
X1140887Y334907D02*
X1143513Y334907D01*
X1143513Y335781D02*
X1140887Y335781D01*
X1140887Y336655D02*
X1143513Y336655D01*
X1143513Y337529D02*
X1140887Y337529D01*
X1140887Y338403D02*
X1143513Y338403D01*
X1143513Y339277D02*
X1140887Y339277D01*
X1140887Y340151D02*
X1143513Y340151D01*
X1143513Y341025D02*
X1140887Y341025D01*
X1140887Y341899D02*
X1143513Y341899D01*
X1143513Y342773D02*
X1140887Y342773D01*
X1140887Y343647D02*
X1143513Y343647D01*
X1143513Y344521D02*
X1140887Y344521D01*
X1140887Y345395D02*
X1143513Y345395D01*
X1143513Y346269D02*
X1140887Y346269D01*
X1140887Y347143D02*
X1143513Y347143D01*
X1135887Y347563D02*
X1135887Y330537D01*
X1135887Y347563D02*
X1138513Y347563D01*
X1138513Y330537D01*
X1135887Y330537D01*
X1135887Y331411D02*
X1138513Y331411D01*
X1138513Y332285D02*
X1135887Y332285D01*
X1135887Y333159D02*
X1138513Y333159D01*
X1138513Y334033D02*
X1135887Y334033D01*
X1135887Y334907D02*
X1138513Y334907D01*
X1138513Y335781D02*
X1135887Y335781D01*
X1135887Y336655D02*
X1138513Y336655D01*
X1138513Y337529D02*
X1135887Y337529D01*
X1135887Y338403D02*
X1138513Y338403D01*
X1138513Y339277D02*
X1135887Y339277D01*
X1135887Y340151D02*
X1138513Y340151D01*
X1138513Y341025D02*
X1135887Y341025D01*
X1135887Y341899D02*
X1138513Y341899D01*
X1138513Y342773D02*
X1135887Y342773D01*
X1135887Y343647D02*
X1138513Y343647D01*
X1138513Y344521D02*
X1135887Y344521D01*
X1135887Y345395D02*
X1138513Y345395D01*
X1138513Y346269D02*
X1135887Y346269D01*
X1135887Y347143D02*
X1138513Y347143D01*
X1130887Y347563D02*
X1130887Y330537D01*
X1130887Y347563D02*
X1133513Y347563D01*
X1133513Y330537D01*
X1130887Y330537D01*
X1130887Y331411D02*
X1133513Y331411D01*
X1133513Y332285D02*
X1130887Y332285D01*
X1130887Y333159D02*
X1133513Y333159D01*
X1133513Y334033D02*
X1130887Y334033D01*
X1130887Y334907D02*
X1133513Y334907D01*
X1133513Y335781D02*
X1130887Y335781D01*
X1130887Y336655D02*
X1133513Y336655D01*
X1133513Y337529D02*
X1130887Y337529D01*
X1130887Y338403D02*
X1133513Y338403D01*
X1133513Y339277D02*
X1130887Y339277D01*
X1130887Y340151D02*
X1133513Y340151D01*
X1133513Y341025D02*
X1130887Y341025D01*
X1130887Y341899D02*
X1133513Y341899D01*
X1133513Y342773D02*
X1130887Y342773D01*
X1130887Y343647D02*
X1133513Y343647D01*
X1133513Y344521D02*
X1130887Y344521D01*
X1130887Y345395D02*
X1133513Y345395D01*
X1133513Y346269D02*
X1130887Y346269D01*
X1130887Y347143D02*
X1133513Y347143D01*
X1125887Y347563D02*
X1125887Y330537D01*
X1125887Y347563D02*
X1128513Y347563D01*
X1128513Y330537D01*
X1125887Y330537D01*
X1125887Y331411D02*
X1128513Y331411D01*
X1128513Y332285D02*
X1125887Y332285D01*
X1125887Y333159D02*
X1128513Y333159D01*
X1128513Y334033D02*
X1125887Y334033D01*
X1125887Y334907D02*
X1128513Y334907D01*
X1128513Y335781D02*
X1125887Y335781D01*
X1125887Y336655D02*
X1128513Y336655D01*
X1128513Y337529D02*
X1125887Y337529D01*
X1125887Y338403D02*
X1128513Y338403D01*
X1128513Y339277D02*
X1125887Y339277D01*
X1125887Y340151D02*
X1128513Y340151D01*
X1128513Y341025D02*
X1125887Y341025D01*
X1125887Y341899D02*
X1128513Y341899D01*
X1128513Y342773D02*
X1125887Y342773D01*
X1125887Y343647D02*
X1128513Y343647D01*
X1128513Y344521D02*
X1125887Y344521D01*
X1125887Y345395D02*
X1128513Y345395D01*
X1128513Y346269D02*
X1125887Y346269D01*
X1125887Y347143D02*
X1128513Y347143D01*
X1120887Y347563D02*
X1120887Y330537D01*
X1120887Y347563D02*
X1123513Y347563D01*
X1123513Y330537D01*
X1120887Y330537D01*
X1120887Y331411D02*
X1123513Y331411D01*
X1123513Y332285D02*
X1120887Y332285D01*
X1120887Y333159D02*
X1123513Y333159D01*
X1123513Y334033D02*
X1120887Y334033D01*
X1120887Y334907D02*
X1123513Y334907D01*
X1123513Y335781D02*
X1120887Y335781D01*
X1120887Y336655D02*
X1123513Y336655D01*
X1123513Y337529D02*
X1120887Y337529D01*
X1120887Y338403D02*
X1123513Y338403D01*
X1123513Y339277D02*
X1120887Y339277D01*
X1120887Y340151D02*
X1123513Y340151D01*
X1123513Y341025D02*
X1120887Y341025D01*
X1120887Y341899D02*
X1123513Y341899D01*
X1123513Y342773D02*
X1120887Y342773D01*
X1120887Y343647D02*
X1123513Y343647D01*
X1123513Y344521D02*
X1120887Y344521D01*
X1120887Y345395D02*
X1123513Y345395D01*
X1123513Y346269D02*
X1120887Y346269D01*
X1120887Y347143D02*
X1123513Y347143D01*
X1115887Y347563D02*
X1115887Y330537D01*
X1115887Y347563D02*
X1118513Y347563D01*
X1118513Y330537D01*
X1115887Y330537D01*
X1115887Y331411D02*
X1118513Y331411D01*
X1118513Y332285D02*
X1115887Y332285D01*
X1115887Y333159D02*
X1118513Y333159D01*
X1118513Y334033D02*
X1115887Y334033D01*
X1115887Y334907D02*
X1118513Y334907D01*
X1118513Y335781D02*
X1115887Y335781D01*
X1115887Y336655D02*
X1118513Y336655D01*
X1118513Y337529D02*
X1115887Y337529D01*
X1115887Y338403D02*
X1118513Y338403D01*
X1118513Y339277D02*
X1115887Y339277D01*
X1115887Y340151D02*
X1118513Y340151D01*
X1118513Y341025D02*
X1115887Y341025D01*
X1115887Y341899D02*
X1118513Y341899D01*
X1118513Y342773D02*
X1115887Y342773D01*
X1115887Y343647D02*
X1118513Y343647D01*
X1118513Y344521D02*
X1115887Y344521D01*
X1115887Y345395D02*
X1118513Y345395D01*
X1118513Y346269D02*
X1115887Y346269D01*
X1115887Y347143D02*
X1118513Y347143D01*
X1110887Y347563D02*
X1110887Y330537D01*
X1110887Y347563D02*
X1113513Y347563D01*
X1113513Y330537D01*
X1110887Y330537D01*
X1110887Y331411D02*
X1113513Y331411D01*
X1113513Y332285D02*
X1110887Y332285D01*
X1110887Y333159D02*
X1113513Y333159D01*
X1113513Y334033D02*
X1110887Y334033D01*
X1110887Y334907D02*
X1113513Y334907D01*
X1113513Y335781D02*
X1110887Y335781D01*
X1110887Y336655D02*
X1113513Y336655D01*
X1113513Y337529D02*
X1110887Y337529D01*
X1110887Y338403D02*
X1113513Y338403D01*
X1113513Y339277D02*
X1110887Y339277D01*
X1110887Y340151D02*
X1113513Y340151D01*
X1113513Y341025D02*
X1110887Y341025D01*
X1110887Y341899D02*
X1113513Y341899D01*
X1113513Y342773D02*
X1110887Y342773D01*
X1110887Y343647D02*
X1113513Y343647D01*
X1113513Y344521D02*
X1110887Y344521D01*
X1110887Y345395D02*
X1113513Y345395D01*
X1113513Y346269D02*
X1110887Y346269D01*
X1110887Y347143D02*
X1113513Y347143D01*
X1105887Y347563D02*
X1105887Y330537D01*
X1105887Y347563D02*
X1108513Y347563D01*
X1108513Y330537D01*
X1105887Y330537D01*
X1105887Y331411D02*
X1108513Y331411D01*
X1108513Y332285D02*
X1105887Y332285D01*
X1105887Y333159D02*
X1108513Y333159D01*
X1108513Y334033D02*
X1105887Y334033D01*
X1105887Y334907D02*
X1108513Y334907D01*
X1108513Y335781D02*
X1105887Y335781D01*
X1105887Y336655D02*
X1108513Y336655D01*
X1108513Y337529D02*
X1105887Y337529D01*
X1105887Y338403D02*
X1108513Y338403D01*
X1108513Y339277D02*
X1105887Y339277D01*
X1105887Y340151D02*
X1108513Y340151D01*
X1108513Y341025D02*
X1105887Y341025D01*
X1105887Y341899D02*
X1108513Y341899D01*
X1108513Y342773D02*
X1105887Y342773D01*
X1105887Y343647D02*
X1108513Y343647D01*
X1108513Y344521D02*
X1105887Y344521D01*
X1105887Y345395D02*
X1108513Y345395D01*
X1108513Y346269D02*
X1105887Y346269D01*
X1105887Y347143D02*
X1108513Y347143D01*
X1100887Y347563D02*
X1100887Y330537D01*
X1100887Y347563D02*
X1103513Y347563D01*
X1103513Y330537D01*
X1100887Y330537D01*
X1100887Y331411D02*
X1103513Y331411D01*
X1103513Y332285D02*
X1100887Y332285D01*
X1100887Y333159D02*
X1103513Y333159D01*
X1103513Y334033D02*
X1100887Y334033D01*
X1100887Y334907D02*
X1103513Y334907D01*
X1103513Y335781D02*
X1100887Y335781D01*
X1100887Y336655D02*
X1103513Y336655D01*
X1103513Y337529D02*
X1100887Y337529D01*
X1100887Y338403D02*
X1103513Y338403D01*
X1103513Y339277D02*
X1100887Y339277D01*
X1100887Y340151D02*
X1103513Y340151D01*
X1103513Y341025D02*
X1100887Y341025D01*
X1100887Y341899D02*
X1103513Y341899D01*
X1103513Y342773D02*
X1100887Y342773D01*
X1100887Y343647D02*
X1103513Y343647D01*
X1103513Y344521D02*
X1100887Y344521D01*
X1100887Y345395D02*
X1103513Y345395D01*
X1103513Y346269D02*
X1100887Y346269D01*
X1100887Y347143D02*
X1103513Y347143D01*
X1095887Y347563D02*
X1095887Y330537D01*
X1095887Y347563D02*
X1098513Y347563D01*
X1098513Y330537D01*
X1095887Y330537D01*
X1095887Y331411D02*
X1098513Y331411D01*
X1098513Y332285D02*
X1095887Y332285D01*
X1095887Y333159D02*
X1098513Y333159D01*
X1098513Y334033D02*
X1095887Y334033D01*
X1095887Y334907D02*
X1098513Y334907D01*
X1098513Y335781D02*
X1095887Y335781D01*
X1095887Y336655D02*
X1098513Y336655D01*
X1098513Y337529D02*
X1095887Y337529D01*
X1095887Y338403D02*
X1098513Y338403D01*
X1098513Y339277D02*
X1095887Y339277D01*
X1095887Y340151D02*
X1098513Y340151D01*
X1098513Y341025D02*
X1095887Y341025D01*
X1095887Y341899D02*
X1098513Y341899D01*
X1098513Y342773D02*
X1095887Y342773D01*
X1095887Y343647D02*
X1098513Y343647D01*
X1098513Y344521D02*
X1095887Y344521D01*
X1095887Y345395D02*
X1098513Y345395D01*
X1098513Y346269D02*
X1095887Y346269D01*
X1095887Y347143D02*
X1098513Y347143D01*
X1090887Y347563D02*
X1090887Y330537D01*
X1090887Y347563D02*
X1093513Y347563D01*
X1093513Y330537D01*
X1090887Y330537D01*
X1090887Y331411D02*
X1093513Y331411D01*
X1093513Y332285D02*
X1090887Y332285D01*
X1090887Y333159D02*
X1093513Y333159D01*
X1093513Y334033D02*
X1090887Y334033D01*
X1090887Y334907D02*
X1093513Y334907D01*
X1093513Y335781D02*
X1090887Y335781D01*
X1090887Y336655D02*
X1093513Y336655D01*
X1093513Y337529D02*
X1090887Y337529D01*
X1090887Y338403D02*
X1093513Y338403D01*
X1093513Y339277D02*
X1090887Y339277D01*
X1090887Y340151D02*
X1093513Y340151D01*
X1093513Y341025D02*
X1090887Y341025D01*
X1090887Y341899D02*
X1093513Y341899D01*
X1093513Y342773D02*
X1090887Y342773D01*
X1090887Y343647D02*
X1093513Y343647D01*
X1093513Y344521D02*
X1090887Y344521D01*
X1090887Y345395D02*
X1093513Y345395D01*
X1093513Y346269D02*
X1090887Y346269D01*
X1090887Y347143D02*
X1093513Y347143D01*
X1085887Y347563D02*
X1085887Y330537D01*
X1085887Y347563D02*
X1088513Y347563D01*
X1088513Y330537D01*
X1085887Y330537D01*
X1085887Y331411D02*
X1088513Y331411D01*
X1088513Y332285D02*
X1085887Y332285D01*
X1085887Y333159D02*
X1088513Y333159D01*
X1088513Y334033D02*
X1085887Y334033D01*
X1085887Y334907D02*
X1088513Y334907D01*
X1088513Y335781D02*
X1085887Y335781D01*
X1085887Y336655D02*
X1088513Y336655D01*
X1088513Y337529D02*
X1085887Y337529D01*
X1085887Y338403D02*
X1088513Y338403D01*
X1088513Y339277D02*
X1085887Y339277D01*
X1085887Y340151D02*
X1088513Y340151D01*
X1088513Y341025D02*
X1085887Y341025D01*
X1085887Y341899D02*
X1088513Y341899D01*
X1088513Y342773D02*
X1085887Y342773D01*
X1085887Y343647D02*
X1088513Y343647D01*
X1088513Y344521D02*
X1085887Y344521D01*
X1085887Y345395D02*
X1088513Y345395D01*
X1088513Y346269D02*
X1085887Y346269D01*
X1085887Y347143D02*
X1088513Y347143D01*
X1085887Y253263D02*
X1085887Y236237D01*
X1085887Y253263D02*
X1088513Y253263D01*
X1088513Y236237D01*
X1085887Y236237D01*
X1085887Y237111D02*
X1088513Y237111D01*
X1088513Y237985D02*
X1085887Y237985D01*
X1085887Y238859D02*
X1088513Y238859D01*
X1088513Y239733D02*
X1085887Y239733D01*
X1085887Y240607D02*
X1088513Y240607D01*
X1088513Y241481D02*
X1085887Y241481D01*
X1085887Y242355D02*
X1088513Y242355D01*
X1088513Y243229D02*
X1085887Y243229D01*
X1085887Y244103D02*
X1088513Y244103D01*
X1088513Y244977D02*
X1085887Y244977D01*
X1085887Y245851D02*
X1088513Y245851D01*
X1088513Y246725D02*
X1085887Y246725D01*
X1085887Y247599D02*
X1088513Y247599D01*
X1088513Y248473D02*
X1085887Y248473D01*
X1085887Y249347D02*
X1088513Y249347D01*
X1088513Y250221D02*
X1085887Y250221D01*
X1085887Y251095D02*
X1088513Y251095D01*
X1088513Y251969D02*
X1085887Y251969D01*
X1085887Y252843D02*
X1088513Y252843D01*
X1090887Y253263D02*
X1090887Y236237D01*
X1090887Y253263D02*
X1093513Y253263D01*
X1093513Y236237D01*
X1090887Y236237D01*
X1090887Y237111D02*
X1093513Y237111D01*
X1093513Y237985D02*
X1090887Y237985D01*
X1090887Y238859D02*
X1093513Y238859D01*
X1093513Y239733D02*
X1090887Y239733D01*
X1090887Y240607D02*
X1093513Y240607D01*
X1093513Y241481D02*
X1090887Y241481D01*
X1090887Y242355D02*
X1093513Y242355D01*
X1093513Y243229D02*
X1090887Y243229D01*
X1090887Y244103D02*
X1093513Y244103D01*
X1093513Y244977D02*
X1090887Y244977D01*
X1090887Y245851D02*
X1093513Y245851D01*
X1093513Y246725D02*
X1090887Y246725D01*
X1090887Y247599D02*
X1093513Y247599D01*
X1093513Y248473D02*
X1090887Y248473D01*
X1090887Y249347D02*
X1093513Y249347D01*
X1093513Y250221D02*
X1090887Y250221D01*
X1090887Y251095D02*
X1093513Y251095D01*
X1093513Y251969D02*
X1090887Y251969D01*
X1090887Y252843D02*
X1093513Y252843D01*
X1095887Y253263D02*
X1095887Y236237D01*
X1095887Y253263D02*
X1098513Y253263D01*
X1098513Y236237D01*
X1095887Y236237D01*
X1095887Y237111D02*
X1098513Y237111D01*
X1098513Y237985D02*
X1095887Y237985D01*
X1095887Y238859D02*
X1098513Y238859D01*
X1098513Y239733D02*
X1095887Y239733D01*
X1095887Y240607D02*
X1098513Y240607D01*
X1098513Y241481D02*
X1095887Y241481D01*
X1095887Y242355D02*
X1098513Y242355D01*
X1098513Y243229D02*
X1095887Y243229D01*
X1095887Y244103D02*
X1098513Y244103D01*
X1098513Y244977D02*
X1095887Y244977D01*
X1095887Y245851D02*
X1098513Y245851D01*
X1098513Y246725D02*
X1095887Y246725D01*
X1095887Y247599D02*
X1098513Y247599D01*
X1098513Y248473D02*
X1095887Y248473D01*
X1095887Y249347D02*
X1098513Y249347D01*
X1098513Y250221D02*
X1095887Y250221D01*
X1095887Y251095D02*
X1098513Y251095D01*
X1098513Y251969D02*
X1095887Y251969D01*
X1095887Y252843D02*
X1098513Y252843D01*
X1100887Y253263D02*
X1100887Y236237D01*
X1100887Y253263D02*
X1103513Y253263D01*
X1103513Y236237D01*
X1100887Y236237D01*
X1100887Y237111D02*
X1103513Y237111D01*
X1103513Y237985D02*
X1100887Y237985D01*
X1100887Y238859D02*
X1103513Y238859D01*
X1103513Y239733D02*
X1100887Y239733D01*
X1100887Y240607D02*
X1103513Y240607D01*
X1103513Y241481D02*
X1100887Y241481D01*
X1100887Y242355D02*
X1103513Y242355D01*
X1103513Y243229D02*
X1100887Y243229D01*
X1100887Y244103D02*
X1103513Y244103D01*
X1103513Y244977D02*
X1100887Y244977D01*
X1100887Y245851D02*
X1103513Y245851D01*
X1103513Y246725D02*
X1100887Y246725D01*
X1100887Y247599D02*
X1103513Y247599D01*
X1103513Y248473D02*
X1100887Y248473D01*
X1100887Y249347D02*
X1103513Y249347D01*
X1103513Y250221D02*
X1100887Y250221D01*
X1100887Y251095D02*
X1103513Y251095D01*
X1103513Y251969D02*
X1100887Y251969D01*
X1100887Y252843D02*
X1103513Y252843D01*
X1105887Y253263D02*
X1105887Y236237D01*
X1105887Y253263D02*
X1108513Y253263D01*
X1108513Y236237D01*
X1105887Y236237D01*
X1105887Y237111D02*
X1108513Y237111D01*
X1108513Y237985D02*
X1105887Y237985D01*
X1105887Y238859D02*
X1108513Y238859D01*
X1108513Y239733D02*
X1105887Y239733D01*
X1105887Y240607D02*
X1108513Y240607D01*
X1108513Y241481D02*
X1105887Y241481D01*
X1105887Y242355D02*
X1108513Y242355D01*
X1108513Y243229D02*
X1105887Y243229D01*
X1105887Y244103D02*
X1108513Y244103D01*
X1108513Y244977D02*
X1105887Y244977D01*
X1105887Y245851D02*
X1108513Y245851D01*
X1108513Y246725D02*
X1105887Y246725D01*
X1105887Y247599D02*
X1108513Y247599D01*
X1108513Y248473D02*
X1105887Y248473D01*
X1105887Y249347D02*
X1108513Y249347D01*
X1108513Y250221D02*
X1105887Y250221D01*
X1105887Y251095D02*
X1108513Y251095D01*
X1108513Y251969D02*
X1105887Y251969D01*
X1105887Y252843D02*
X1108513Y252843D01*
X1110887Y253263D02*
X1110887Y236237D01*
X1110887Y253263D02*
X1113513Y253263D01*
X1113513Y236237D01*
X1110887Y236237D01*
X1110887Y237111D02*
X1113513Y237111D01*
X1113513Y237985D02*
X1110887Y237985D01*
X1110887Y238859D02*
X1113513Y238859D01*
X1113513Y239733D02*
X1110887Y239733D01*
X1110887Y240607D02*
X1113513Y240607D01*
X1113513Y241481D02*
X1110887Y241481D01*
X1110887Y242355D02*
X1113513Y242355D01*
X1113513Y243229D02*
X1110887Y243229D01*
X1110887Y244103D02*
X1113513Y244103D01*
X1113513Y244977D02*
X1110887Y244977D01*
X1110887Y245851D02*
X1113513Y245851D01*
X1113513Y246725D02*
X1110887Y246725D01*
X1110887Y247599D02*
X1113513Y247599D01*
X1113513Y248473D02*
X1110887Y248473D01*
X1110887Y249347D02*
X1113513Y249347D01*
X1113513Y250221D02*
X1110887Y250221D01*
X1110887Y251095D02*
X1113513Y251095D01*
X1113513Y251969D02*
X1110887Y251969D01*
X1110887Y252843D02*
X1113513Y252843D01*
X1115887Y253263D02*
X1115887Y236237D01*
X1115887Y253263D02*
X1118513Y253263D01*
X1118513Y236237D01*
X1115887Y236237D01*
X1115887Y237111D02*
X1118513Y237111D01*
X1118513Y237985D02*
X1115887Y237985D01*
X1115887Y238859D02*
X1118513Y238859D01*
X1118513Y239733D02*
X1115887Y239733D01*
X1115887Y240607D02*
X1118513Y240607D01*
X1118513Y241481D02*
X1115887Y241481D01*
X1115887Y242355D02*
X1118513Y242355D01*
X1118513Y243229D02*
X1115887Y243229D01*
X1115887Y244103D02*
X1118513Y244103D01*
X1118513Y244977D02*
X1115887Y244977D01*
X1115887Y245851D02*
X1118513Y245851D01*
X1118513Y246725D02*
X1115887Y246725D01*
X1115887Y247599D02*
X1118513Y247599D01*
X1118513Y248473D02*
X1115887Y248473D01*
X1115887Y249347D02*
X1118513Y249347D01*
X1118513Y250221D02*
X1115887Y250221D01*
X1115887Y251095D02*
X1118513Y251095D01*
X1118513Y251969D02*
X1115887Y251969D01*
X1115887Y252843D02*
X1118513Y252843D01*
X1120887Y253263D02*
X1120887Y236237D01*
X1120887Y253263D02*
X1123513Y253263D01*
X1123513Y236237D01*
X1120887Y236237D01*
X1120887Y237111D02*
X1123513Y237111D01*
X1123513Y237985D02*
X1120887Y237985D01*
X1120887Y238859D02*
X1123513Y238859D01*
X1123513Y239733D02*
X1120887Y239733D01*
X1120887Y240607D02*
X1123513Y240607D01*
X1123513Y241481D02*
X1120887Y241481D01*
X1120887Y242355D02*
X1123513Y242355D01*
X1123513Y243229D02*
X1120887Y243229D01*
X1120887Y244103D02*
X1123513Y244103D01*
X1123513Y244977D02*
X1120887Y244977D01*
X1120887Y245851D02*
X1123513Y245851D01*
X1123513Y246725D02*
X1120887Y246725D01*
X1120887Y247599D02*
X1123513Y247599D01*
X1123513Y248473D02*
X1120887Y248473D01*
X1120887Y249347D02*
X1123513Y249347D01*
X1123513Y250221D02*
X1120887Y250221D01*
X1120887Y251095D02*
X1123513Y251095D01*
X1123513Y251969D02*
X1120887Y251969D01*
X1120887Y252843D02*
X1123513Y252843D01*
X1125887Y253263D02*
X1125887Y236237D01*
X1125887Y253263D02*
X1128513Y253263D01*
X1128513Y236237D01*
X1125887Y236237D01*
X1125887Y237111D02*
X1128513Y237111D01*
X1128513Y237985D02*
X1125887Y237985D01*
X1125887Y238859D02*
X1128513Y238859D01*
X1128513Y239733D02*
X1125887Y239733D01*
X1125887Y240607D02*
X1128513Y240607D01*
X1128513Y241481D02*
X1125887Y241481D01*
X1125887Y242355D02*
X1128513Y242355D01*
X1128513Y243229D02*
X1125887Y243229D01*
X1125887Y244103D02*
X1128513Y244103D01*
X1128513Y244977D02*
X1125887Y244977D01*
X1125887Y245851D02*
X1128513Y245851D01*
X1128513Y246725D02*
X1125887Y246725D01*
X1125887Y247599D02*
X1128513Y247599D01*
X1128513Y248473D02*
X1125887Y248473D01*
X1125887Y249347D02*
X1128513Y249347D01*
X1128513Y250221D02*
X1125887Y250221D01*
X1125887Y251095D02*
X1128513Y251095D01*
X1128513Y251969D02*
X1125887Y251969D01*
X1125887Y252843D02*
X1128513Y252843D01*
X1130887Y253263D02*
X1130887Y236237D01*
X1130887Y253263D02*
X1133513Y253263D01*
X1133513Y236237D01*
X1130887Y236237D01*
X1130887Y237111D02*
X1133513Y237111D01*
X1133513Y237985D02*
X1130887Y237985D01*
X1130887Y238859D02*
X1133513Y238859D01*
X1133513Y239733D02*
X1130887Y239733D01*
X1130887Y240607D02*
X1133513Y240607D01*
X1133513Y241481D02*
X1130887Y241481D01*
X1130887Y242355D02*
X1133513Y242355D01*
X1133513Y243229D02*
X1130887Y243229D01*
X1130887Y244103D02*
X1133513Y244103D01*
X1133513Y244977D02*
X1130887Y244977D01*
X1130887Y245851D02*
X1133513Y245851D01*
X1133513Y246725D02*
X1130887Y246725D01*
X1130887Y247599D02*
X1133513Y247599D01*
X1133513Y248473D02*
X1130887Y248473D01*
X1130887Y249347D02*
X1133513Y249347D01*
X1133513Y250221D02*
X1130887Y250221D01*
X1130887Y251095D02*
X1133513Y251095D01*
X1133513Y251969D02*
X1130887Y251969D01*
X1130887Y252843D02*
X1133513Y252843D01*
X1135887Y253263D02*
X1135887Y236237D01*
X1135887Y253263D02*
X1138513Y253263D01*
X1138513Y236237D01*
X1135887Y236237D01*
X1135887Y237111D02*
X1138513Y237111D01*
X1138513Y237985D02*
X1135887Y237985D01*
X1135887Y238859D02*
X1138513Y238859D01*
X1138513Y239733D02*
X1135887Y239733D01*
X1135887Y240607D02*
X1138513Y240607D01*
X1138513Y241481D02*
X1135887Y241481D01*
X1135887Y242355D02*
X1138513Y242355D01*
X1138513Y243229D02*
X1135887Y243229D01*
X1135887Y244103D02*
X1138513Y244103D01*
X1138513Y244977D02*
X1135887Y244977D01*
X1135887Y245851D02*
X1138513Y245851D01*
X1138513Y246725D02*
X1135887Y246725D01*
X1135887Y247599D02*
X1138513Y247599D01*
X1138513Y248473D02*
X1135887Y248473D01*
X1135887Y249347D02*
X1138513Y249347D01*
X1138513Y250221D02*
X1135887Y250221D01*
X1135887Y251095D02*
X1138513Y251095D01*
X1138513Y251969D02*
X1135887Y251969D01*
X1135887Y252843D02*
X1138513Y252843D01*
X1140887Y253263D02*
X1140887Y236237D01*
X1140887Y253263D02*
X1143513Y253263D01*
X1143513Y236237D01*
X1140887Y236237D01*
X1140887Y237111D02*
X1143513Y237111D01*
X1143513Y237985D02*
X1140887Y237985D01*
X1140887Y238859D02*
X1143513Y238859D01*
X1143513Y239733D02*
X1140887Y239733D01*
X1140887Y240607D02*
X1143513Y240607D01*
X1143513Y241481D02*
X1140887Y241481D01*
X1140887Y242355D02*
X1143513Y242355D01*
X1143513Y243229D02*
X1140887Y243229D01*
X1140887Y244103D02*
X1143513Y244103D01*
X1143513Y244977D02*
X1140887Y244977D01*
X1140887Y245851D02*
X1143513Y245851D01*
X1143513Y246725D02*
X1140887Y246725D01*
X1140887Y247599D02*
X1143513Y247599D01*
X1143513Y248473D02*
X1140887Y248473D01*
X1140887Y249347D02*
X1143513Y249347D01*
X1143513Y250221D02*
X1140887Y250221D01*
X1140887Y251095D02*
X1143513Y251095D01*
X1143513Y251969D02*
X1140887Y251969D01*
X1140887Y252843D02*
X1143513Y252843D01*
X1145887Y253263D02*
X1145887Y236237D01*
X1145887Y253263D02*
X1148513Y253263D01*
X1148513Y236237D01*
X1145887Y236237D01*
X1145887Y237111D02*
X1148513Y237111D01*
X1148513Y237985D02*
X1145887Y237985D01*
X1145887Y238859D02*
X1148513Y238859D01*
X1148513Y239733D02*
X1145887Y239733D01*
X1145887Y240607D02*
X1148513Y240607D01*
X1148513Y241481D02*
X1145887Y241481D01*
X1145887Y242355D02*
X1148513Y242355D01*
X1148513Y243229D02*
X1145887Y243229D01*
X1145887Y244103D02*
X1148513Y244103D01*
X1148513Y244977D02*
X1145887Y244977D01*
X1145887Y245851D02*
X1148513Y245851D01*
X1148513Y246725D02*
X1145887Y246725D01*
X1145887Y247599D02*
X1148513Y247599D01*
X1148513Y248473D02*
X1145887Y248473D01*
X1145887Y249347D02*
X1148513Y249347D01*
X1148513Y250221D02*
X1145887Y250221D01*
X1145887Y251095D02*
X1148513Y251095D01*
X1148513Y251969D02*
X1145887Y251969D01*
X1145887Y252843D02*
X1148513Y252843D01*
X1150887Y253263D02*
X1150887Y236237D01*
X1150887Y253263D02*
X1153513Y253263D01*
X1153513Y236237D01*
X1150887Y236237D01*
X1150887Y237111D02*
X1153513Y237111D01*
X1153513Y237985D02*
X1150887Y237985D01*
X1150887Y238859D02*
X1153513Y238859D01*
X1153513Y239733D02*
X1150887Y239733D01*
X1150887Y240607D02*
X1153513Y240607D01*
X1153513Y241481D02*
X1150887Y241481D01*
X1150887Y242355D02*
X1153513Y242355D01*
X1153513Y243229D02*
X1150887Y243229D01*
X1150887Y244103D02*
X1153513Y244103D01*
X1153513Y244977D02*
X1150887Y244977D01*
X1150887Y245851D02*
X1153513Y245851D01*
X1153513Y246725D02*
X1150887Y246725D01*
X1150887Y247599D02*
X1153513Y247599D01*
X1153513Y248473D02*
X1150887Y248473D01*
X1150887Y249347D02*
X1153513Y249347D01*
X1153513Y250221D02*
X1150887Y250221D01*
X1150887Y251095D02*
X1153513Y251095D01*
X1153513Y251969D02*
X1150887Y251969D01*
X1150887Y252843D02*
X1153513Y252843D01*
X1155887Y253263D02*
X1155887Y236237D01*
X1155887Y253263D02*
X1158513Y253263D01*
X1158513Y236237D01*
X1155887Y236237D01*
X1155887Y237111D02*
X1158513Y237111D01*
X1158513Y237985D02*
X1155887Y237985D01*
X1155887Y238859D02*
X1158513Y238859D01*
X1158513Y239733D02*
X1155887Y239733D01*
X1155887Y240607D02*
X1158513Y240607D01*
X1158513Y241481D02*
X1155887Y241481D01*
X1155887Y242355D02*
X1158513Y242355D01*
X1158513Y243229D02*
X1155887Y243229D01*
X1155887Y244103D02*
X1158513Y244103D01*
X1158513Y244977D02*
X1155887Y244977D01*
X1155887Y245851D02*
X1158513Y245851D01*
X1158513Y246725D02*
X1155887Y246725D01*
X1155887Y247599D02*
X1158513Y247599D01*
X1158513Y248473D02*
X1155887Y248473D01*
X1155887Y249347D02*
X1158513Y249347D01*
X1158513Y250221D02*
X1155887Y250221D01*
X1155887Y251095D02*
X1158513Y251095D01*
X1158513Y251969D02*
X1155887Y251969D01*
X1155887Y252843D02*
X1158513Y252843D01*
X1160887Y253263D02*
X1160887Y236237D01*
X1160887Y253263D02*
X1163513Y253263D01*
X1163513Y236237D01*
X1160887Y236237D01*
X1160887Y237111D02*
X1163513Y237111D01*
X1163513Y237985D02*
X1160887Y237985D01*
X1160887Y238859D02*
X1163513Y238859D01*
X1163513Y239733D02*
X1160887Y239733D01*
X1160887Y240607D02*
X1163513Y240607D01*
X1163513Y241481D02*
X1160887Y241481D01*
X1160887Y242355D02*
X1163513Y242355D01*
X1163513Y243229D02*
X1160887Y243229D01*
X1160887Y244103D02*
X1163513Y244103D01*
X1163513Y244977D02*
X1160887Y244977D01*
X1160887Y245851D02*
X1163513Y245851D01*
X1163513Y246725D02*
X1160887Y246725D01*
X1160887Y247599D02*
X1163513Y247599D01*
X1163513Y248473D02*
X1160887Y248473D01*
X1160887Y249347D02*
X1163513Y249347D01*
X1163513Y250221D02*
X1160887Y250221D01*
X1160887Y251095D02*
X1163513Y251095D01*
X1163513Y251969D02*
X1160887Y251969D01*
X1160887Y252843D02*
X1163513Y252843D01*
X1165887Y253263D02*
X1165887Y236237D01*
X1165887Y253263D02*
X1168513Y253263D01*
X1168513Y236237D01*
X1165887Y236237D01*
X1165887Y237111D02*
X1168513Y237111D01*
X1168513Y237985D02*
X1165887Y237985D01*
X1165887Y238859D02*
X1168513Y238859D01*
X1168513Y239733D02*
X1165887Y239733D01*
X1165887Y240607D02*
X1168513Y240607D01*
X1168513Y241481D02*
X1165887Y241481D01*
X1165887Y242355D02*
X1168513Y242355D01*
X1168513Y243229D02*
X1165887Y243229D01*
X1165887Y244103D02*
X1168513Y244103D01*
X1168513Y244977D02*
X1165887Y244977D01*
X1165887Y245851D02*
X1168513Y245851D01*
X1168513Y246725D02*
X1165887Y246725D01*
X1165887Y247599D02*
X1168513Y247599D01*
X1168513Y248473D02*
X1165887Y248473D01*
X1165887Y249347D02*
X1168513Y249347D01*
X1168513Y250221D02*
X1165887Y250221D01*
X1165887Y251095D02*
X1168513Y251095D01*
X1168513Y251969D02*
X1165887Y251969D01*
X1165887Y252843D02*
X1168513Y252843D01*
X1170887Y253263D02*
X1170887Y236237D01*
X1170887Y253263D02*
X1173513Y253263D01*
X1173513Y236237D01*
X1170887Y236237D01*
X1170887Y237111D02*
X1173513Y237111D01*
X1173513Y237985D02*
X1170887Y237985D01*
X1170887Y238859D02*
X1173513Y238859D01*
X1173513Y239733D02*
X1170887Y239733D01*
X1170887Y240607D02*
X1173513Y240607D01*
X1173513Y241481D02*
X1170887Y241481D01*
X1170887Y242355D02*
X1173513Y242355D01*
X1173513Y243229D02*
X1170887Y243229D01*
X1170887Y244103D02*
X1173513Y244103D01*
X1173513Y244977D02*
X1170887Y244977D01*
X1170887Y245851D02*
X1173513Y245851D01*
X1173513Y246725D02*
X1170887Y246725D01*
X1170887Y247599D02*
X1173513Y247599D01*
X1173513Y248473D02*
X1170887Y248473D01*
X1170887Y249347D02*
X1173513Y249347D01*
X1173513Y250221D02*
X1170887Y250221D01*
X1170887Y251095D02*
X1173513Y251095D01*
X1173513Y251969D02*
X1170887Y251969D01*
X1170887Y252843D02*
X1173513Y252843D01*
D22*
X1121700Y267900D02*
X1121700Y315900D01*
X1121700Y267900D02*
X1091700Y267900D01*
X1091700Y315900D01*
X1121700Y315900D01*
X1121700Y277899D02*
X1091700Y277899D01*
X1091700Y287898D02*
X1121700Y287898D01*
X1121700Y297897D02*
X1091700Y297897D01*
X1091700Y307896D02*
X1121700Y307896D01*
D23*
X1169450Y298150D02*
X1169450Y317650D01*
X1169450Y298150D02*
X1135950Y298150D01*
X1135950Y317650D01*
X1169450Y317650D01*
X1169450Y304649D02*
X1135950Y304649D01*
X1135950Y311148D02*
X1169450Y311148D01*
X1169450Y317647D02*
X1135950Y317647D01*
X1169450Y285650D02*
X1169450Y266150D01*
X1135950Y266150D01*
X1135950Y285650D01*
X1169450Y285650D01*
X1169450Y272649D02*
X1135950Y272649D01*
X1135950Y279148D02*
X1169450Y279148D01*
X1169450Y285647D02*
X1135950Y285647D01*
D21*
X1171357Y478047D02*
X1171357Y495073D01*
X1173983Y495073D01*
X1173983Y478047D01*
X1171357Y478047D01*
X1171357Y478921D02*
X1173983Y478921D01*
X1173983Y479795D02*
X1171357Y479795D01*
X1171357Y480669D02*
X1173983Y480669D01*
X1173983Y481543D02*
X1171357Y481543D01*
X1171357Y482417D02*
X1173983Y482417D01*
X1173983Y483291D02*
X1171357Y483291D01*
X1171357Y484165D02*
X1173983Y484165D01*
X1173983Y485039D02*
X1171357Y485039D01*
X1171357Y485913D02*
X1173983Y485913D01*
X1173983Y486787D02*
X1171357Y486787D01*
X1171357Y487661D02*
X1173983Y487661D01*
X1173983Y488535D02*
X1171357Y488535D01*
X1171357Y489409D02*
X1173983Y489409D01*
X1173983Y490283D02*
X1171357Y490283D01*
X1171357Y491157D02*
X1173983Y491157D01*
X1173983Y492031D02*
X1171357Y492031D01*
X1171357Y492905D02*
X1173983Y492905D01*
X1173983Y493779D02*
X1171357Y493779D01*
X1171357Y494653D02*
X1173983Y494653D01*
X1166357Y495073D02*
X1166357Y478047D01*
X1166357Y495073D02*
X1168983Y495073D01*
X1168983Y478047D01*
X1166357Y478047D01*
X1166357Y478921D02*
X1168983Y478921D01*
X1168983Y479795D02*
X1166357Y479795D01*
X1166357Y480669D02*
X1168983Y480669D01*
X1168983Y481543D02*
X1166357Y481543D01*
X1166357Y482417D02*
X1168983Y482417D01*
X1168983Y483291D02*
X1166357Y483291D01*
X1166357Y484165D02*
X1168983Y484165D01*
X1168983Y485039D02*
X1166357Y485039D01*
X1166357Y485913D02*
X1168983Y485913D01*
X1168983Y486787D02*
X1166357Y486787D01*
X1166357Y487661D02*
X1168983Y487661D01*
X1168983Y488535D02*
X1166357Y488535D01*
X1166357Y489409D02*
X1168983Y489409D01*
X1168983Y490283D02*
X1166357Y490283D01*
X1166357Y491157D02*
X1168983Y491157D01*
X1168983Y492031D02*
X1166357Y492031D01*
X1166357Y492905D02*
X1168983Y492905D01*
X1168983Y493779D02*
X1166357Y493779D01*
X1166357Y494653D02*
X1168983Y494653D01*
X1161357Y495073D02*
X1161357Y478047D01*
X1161357Y495073D02*
X1163983Y495073D01*
X1163983Y478047D01*
X1161357Y478047D01*
X1161357Y478921D02*
X1163983Y478921D01*
X1163983Y479795D02*
X1161357Y479795D01*
X1161357Y480669D02*
X1163983Y480669D01*
X1163983Y481543D02*
X1161357Y481543D01*
X1161357Y482417D02*
X1163983Y482417D01*
X1163983Y483291D02*
X1161357Y483291D01*
X1161357Y484165D02*
X1163983Y484165D01*
X1163983Y485039D02*
X1161357Y485039D01*
X1161357Y485913D02*
X1163983Y485913D01*
X1163983Y486787D02*
X1161357Y486787D01*
X1161357Y487661D02*
X1163983Y487661D01*
X1163983Y488535D02*
X1161357Y488535D01*
X1161357Y489409D02*
X1163983Y489409D01*
X1163983Y490283D02*
X1161357Y490283D01*
X1161357Y491157D02*
X1163983Y491157D01*
X1163983Y492031D02*
X1161357Y492031D01*
X1161357Y492905D02*
X1163983Y492905D01*
X1163983Y493779D02*
X1161357Y493779D01*
X1161357Y494653D02*
X1163983Y494653D01*
X1156357Y495073D02*
X1156357Y478047D01*
X1156357Y495073D02*
X1158983Y495073D01*
X1158983Y478047D01*
X1156357Y478047D01*
X1156357Y478921D02*
X1158983Y478921D01*
X1158983Y479795D02*
X1156357Y479795D01*
X1156357Y480669D02*
X1158983Y480669D01*
X1158983Y481543D02*
X1156357Y481543D01*
X1156357Y482417D02*
X1158983Y482417D01*
X1158983Y483291D02*
X1156357Y483291D01*
X1156357Y484165D02*
X1158983Y484165D01*
X1158983Y485039D02*
X1156357Y485039D01*
X1156357Y485913D02*
X1158983Y485913D01*
X1158983Y486787D02*
X1156357Y486787D01*
X1156357Y487661D02*
X1158983Y487661D01*
X1158983Y488535D02*
X1156357Y488535D01*
X1156357Y489409D02*
X1158983Y489409D01*
X1158983Y490283D02*
X1156357Y490283D01*
X1156357Y491157D02*
X1158983Y491157D01*
X1158983Y492031D02*
X1156357Y492031D01*
X1156357Y492905D02*
X1158983Y492905D01*
X1158983Y493779D02*
X1156357Y493779D01*
X1156357Y494653D02*
X1158983Y494653D01*
X1151357Y495073D02*
X1151357Y478047D01*
X1151357Y495073D02*
X1153983Y495073D01*
X1153983Y478047D01*
X1151357Y478047D01*
X1151357Y478921D02*
X1153983Y478921D01*
X1153983Y479795D02*
X1151357Y479795D01*
X1151357Y480669D02*
X1153983Y480669D01*
X1153983Y481543D02*
X1151357Y481543D01*
X1151357Y482417D02*
X1153983Y482417D01*
X1153983Y483291D02*
X1151357Y483291D01*
X1151357Y484165D02*
X1153983Y484165D01*
X1153983Y485039D02*
X1151357Y485039D01*
X1151357Y485913D02*
X1153983Y485913D01*
X1153983Y486787D02*
X1151357Y486787D01*
X1151357Y487661D02*
X1153983Y487661D01*
X1153983Y488535D02*
X1151357Y488535D01*
X1151357Y489409D02*
X1153983Y489409D01*
X1153983Y490283D02*
X1151357Y490283D01*
X1151357Y491157D02*
X1153983Y491157D01*
X1153983Y492031D02*
X1151357Y492031D01*
X1151357Y492905D02*
X1153983Y492905D01*
X1153983Y493779D02*
X1151357Y493779D01*
X1151357Y494653D02*
X1153983Y494653D01*
X1146357Y495073D02*
X1146357Y478047D01*
X1146357Y495073D02*
X1148983Y495073D01*
X1148983Y478047D01*
X1146357Y478047D01*
X1146357Y478921D02*
X1148983Y478921D01*
X1148983Y479795D02*
X1146357Y479795D01*
X1146357Y480669D02*
X1148983Y480669D01*
X1148983Y481543D02*
X1146357Y481543D01*
X1146357Y482417D02*
X1148983Y482417D01*
X1148983Y483291D02*
X1146357Y483291D01*
X1146357Y484165D02*
X1148983Y484165D01*
X1148983Y485039D02*
X1146357Y485039D01*
X1146357Y485913D02*
X1148983Y485913D01*
X1148983Y486787D02*
X1146357Y486787D01*
X1146357Y487661D02*
X1148983Y487661D01*
X1148983Y488535D02*
X1146357Y488535D01*
X1146357Y489409D02*
X1148983Y489409D01*
X1148983Y490283D02*
X1146357Y490283D01*
X1146357Y491157D02*
X1148983Y491157D01*
X1148983Y492031D02*
X1146357Y492031D01*
X1146357Y492905D02*
X1148983Y492905D01*
X1148983Y493779D02*
X1146357Y493779D01*
X1146357Y494653D02*
X1148983Y494653D01*
X1141357Y495073D02*
X1141357Y478047D01*
X1141357Y495073D02*
X1143983Y495073D01*
X1143983Y478047D01*
X1141357Y478047D01*
X1141357Y478921D02*
X1143983Y478921D01*
X1143983Y479795D02*
X1141357Y479795D01*
X1141357Y480669D02*
X1143983Y480669D01*
X1143983Y481543D02*
X1141357Y481543D01*
X1141357Y482417D02*
X1143983Y482417D01*
X1143983Y483291D02*
X1141357Y483291D01*
X1141357Y484165D02*
X1143983Y484165D01*
X1143983Y485039D02*
X1141357Y485039D01*
X1141357Y485913D02*
X1143983Y485913D01*
X1143983Y486787D02*
X1141357Y486787D01*
X1141357Y487661D02*
X1143983Y487661D01*
X1143983Y488535D02*
X1141357Y488535D01*
X1141357Y489409D02*
X1143983Y489409D01*
X1143983Y490283D02*
X1141357Y490283D01*
X1141357Y491157D02*
X1143983Y491157D01*
X1143983Y492031D02*
X1141357Y492031D01*
X1141357Y492905D02*
X1143983Y492905D01*
X1143983Y493779D02*
X1141357Y493779D01*
X1141357Y494653D02*
X1143983Y494653D01*
X1136357Y495073D02*
X1136357Y478047D01*
X1136357Y495073D02*
X1138983Y495073D01*
X1138983Y478047D01*
X1136357Y478047D01*
X1136357Y478921D02*
X1138983Y478921D01*
X1138983Y479795D02*
X1136357Y479795D01*
X1136357Y480669D02*
X1138983Y480669D01*
X1138983Y481543D02*
X1136357Y481543D01*
X1136357Y482417D02*
X1138983Y482417D01*
X1138983Y483291D02*
X1136357Y483291D01*
X1136357Y484165D02*
X1138983Y484165D01*
X1138983Y485039D02*
X1136357Y485039D01*
X1136357Y485913D02*
X1138983Y485913D01*
X1138983Y486787D02*
X1136357Y486787D01*
X1136357Y487661D02*
X1138983Y487661D01*
X1138983Y488535D02*
X1136357Y488535D01*
X1136357Y489409D02*
X1138983Y489409D01*
X1138983Y490283D02*
X1136357Y490283D01*
X1136357Y491157D02*
X1138983Y491157D01*
X1138983Y492031D02*
X1136357Y492031D01*
X1136357Y492905D02*
X1138983Y492905D01*
X1138983Y493779D02*
X1136357Y493779D01*
X1136357Y494653D02*
X1138983Y494653D01*
X1131357Y495073D02*
X1131357Y478047D01*
X1131357Y495073D02*
X1133983Y495073D01*
X1133983Y478047D01*
X1131357Y478047D01*
X1131357Y478921D02*
X1133983Y478921D01*
X1133983Y479795D02*
X1131357Y479795D01*
X1131357Y480669D02*
X1133983Y480669D01*
X1133983Y481543D02*
X1131357Y481543D01*
X1131357Y482417D02*
X1133983Y482417D01*
X1133983Y483291D02*
X1131357Y483291D01*
X1131357Y484165D02*
X1133983Y484165D01*
X1133983Y485039D02*
X1131357Y485039D01*
X1131357Y485913D02*
X1133983Y485913D01*
X1133983Y486787D02*
X1131357Y486787D01*
X1131357Y487661D02*
X1133983Y487661D01*
X1133983Y488535D02*
X1131357Y488535D01*
X1131357Y489409D02*
X1133983Y489409D01*
X1133983Y490283D02*
X1131357Y490283D01*
X1131357Y491157D02*
X1133983Y491157D01*
X1133983Y492031D02*
X1131357Y492031D01*
X1131357Y492905D02*
X1133983Y492905D01*
X1133983Y493779D02*
X1131357Y493779D01*
X1131357Y494653D02*
X1133983Y494653D01*
X1126357Y495073D02*
X1126357Y478047D01*
X1126357Y495073D02*
X1128983Y495073D01*
X1128983Y478047D01*
X1126357Y478047D01*
X1126357Y478921D02*
X1128983Y478921D01*
X1128983Y479795D02*
X1126357Y479795D01*
X1126357Y480669D02*
X1128983Y480669D01*
X1128983Y481543D02*
X1126357Y481543D01*
X1126357Y482417D02*
X1128983Y482417D01*
X1128983Y483291D02*
X1126357Y483291D01*
X1126357Y484165D02*
X1128983Y484165D01*
X1128983Y485039D02*
X1126357Y485039D01*
X1126357Y485913D02*
X1128983Y485913D01*
X1128983Y486787D02*
X1126357Y486787D01*
X1126357Y487661D02*
X1128983Y487661D01*
X1128983Y488535D02*
X1126357Y488535D01*
X1126357Y489409D02*
X1128983Y489409D01*
X1128983Y490283D02*
X1126357Y490283D01*
X1126357Y491157D02*
X1128983Y491157D01*
X1128983Y492031D02*
X1126357Y492031D01*
X1126357Y492905D02*
X1128983Y492905D01*
X1128983Y493779D02*
X1126357Y493779D01*
X1126357Y494653D02*
X1128983Y494653D01*
X1121357Y495073D02*
X1121357Y478047D01*
X1121357Y495073D02*
X1123983Y495073D01*
X1123983Y478047D01*
X1121357Y478047D01*
X1121357Y478921D02*
X1123983Y478921D01*
X1123983Y479795D02*
X1121357Y479795D01*
X1121357Y480669D02*
X1123983Y480669D01*
X1123983Y481543D02*
X1121357Y481543D01*
X1121357Y482417D02*
X1123983Y482417D01*
X1123983Y483291D02*
X1121357Y483291D01*
X1121357Y484165D02*
X1123983Y484165D01*
X1123983Y485039D02*
X1121357Y485039D01*
X1121357Y485913D02*
X1123983Y485913D01*
X1123983Y486787D02*
X1121357Y486787D01*
X1121357Y487661D02*
X1123983Y487661D01*
X1123983Y488535D02*
X1121357Y488535D01*
X1121357Y489409D02*
X1123983Y489409D01*
X1123983Y490283D02*
X1121357Y490283D01*
X1121357Y491157D02*
X1123983Y491157D01*
X1123983Y492031D02*
X1121357Y492031D01*
X1121357Y492905D02*
X1123983Y492905D01*
X1123983Y493779D02*
X1121357Y493779D01*
X1121357Y494653D02*
X1123983Y494653D01*
X1116357Y495073D02*
X1116357Y478047D01*
X1116357Y495073D02*
X1118983Y495073D01*
X1118983Y478047D01*
X1116357Y478047D01*
X1116357Y478921D02*
X1118983Y478921D01*
X1118983Y479795D02*
X1116357Y479795D01*
X1116357Y480669D02*
X1118983Y480669D01*
X1118983Y481543D02*
X1116357Y481543D01*
X1116357Y482417D02*
X1118983Y482417D01*
X1118983Y483291D02*
X1116357Y483291D01*
X1116357Y484165D02*
X1118983Y484165D01*
X1118983Y485039D02*
X1116357Y485039D01*
X1116357Y485913D02*
X1118983Y485913D01*
X1118983Y486787D02*
X1116357Y486787D01*
X1116357Y487661D02*
X1118983Y487661D01*
X1118983Y488535D02*
X1116357Y488535D01*
X1116357Y489409D02*
X1118983Y489409D01*
X1118983Y490283D02*
X1116357Y490283D01*
X1116357Y491157D02*
X1118983Y491157D01*
X1118983Y492031D02*
X1116357Y492031D01*
X1116357Y492905D02*
X1118983Y492905D01*
X1118983Y493779D02*
X1116357Y493779D01*
X1116357Y494653D02*
X1118983Y494653D01*
X1111357Y495073D02*
X1111357Y478047D01*
X1111357Y495073D02*
X1113983Y495073D01*
X1113983Y478047D01*
X1111357Y478047D01*
X1111357Y478921D02*
X1113983Y478921D01*
X1113983Y479795D02*
X1111357Y479795D01*
X1111357Y480669D02*
X1113983Y480669D01*
X1113983Y481543D02*
X1111357Y481543D01*
X1111357Y482417D02*
X1113983Y482417D01*
X1113983Y483291D02*
X1111357Y483291D01*
X1111357Y484165D02*
X1113983Y484165D01*
X1113983Y485039D02*
X1111357Y485039D01*
X1111357Y485913D02*
X1113983Y485913D01*
X1113983Y486787D02*
X1111357Y486787D01*
X1111357Y487661D02*
X1113983Y487661D01*
X1113983Y488535D02*
X1111357Y488535D01*
X1111357Y489409D02*
X1113983Y489409D01*
X1113983Y490283D02*
X1111357Y490283D01*
X1111357Y491157D02*
X1113983Y491157D01*
X1113983Y492031D02*
X1111357Y492031D01*
X1111357Y492905D02*
X1113983Y492905D01*
X1113983Y493779D02*
X1111357Y493779D01*
X1111357Y494653D02*
X1113983Y494653D01*
X1106357Y495073D02*
X1106357Y478047D01*
X1106357Y495073D02*
X1108983Y495073D01*
X1108983Y478047D01*
X1106357Y478047D01*
X1106357Y478921D02*
X1108983Y478921D01*
X1108983Y479795D02*
X1106357Y479795D01*
X1106357Y480669D02*
X1108983Y480669D01*
X1108983Y481543D02*
X1106357Y481543D01*
X1106357Y482417D02*
X1108983Y482417D01*
X1108983Y483291D02*
X1106357Y483291D01*
X1106357Y484165D02*
X1108983Y484165D01*
X1108983Y485039D02*
X1106357Y485039D01*
X1106357Y485913D02*
X1108983Y485913D01*
X1108983Y486787D02*
X1106357Y486787D01*
X1106357Y487661D02*
X1108983Y487661D01*
X1108983Y488535D02*
X1106357Y488535D01*
X1106357Y489409D02*
X1108983Y489409D01*
X1108983Y490283D02*
X1106357Y490283D01*
X1106357Y491157D02*
X1108983Y491157D01*
X1108983Y492031D02*
X1106357Y492031D01*
X1106357Y492905D02*
X1108983Y492905D01*
X1108983Y493779D02*
X1106357Y493779D01*
X1106357Y494653D02*
X1108983Y494653D01*
X1101357Y495073D02*
X1101357Y478047D01*
X1101357Y495073D02*
X1103983Y495073D01*
X1103983Y478047D01*
X1101357Y478047D01*
X1101357Y478921D02*
X1103983Y478921D01*
X1103983Y479795D02*
X1101357Y479795D01*
X1101357Y480669D02*
X1103983Y480669D01*
X1103983Y481543D02*
X1101357Y481543D01*
X1101357Y482417D02*
X1103983Y482417D01*
X1103983Y483291D02*
X1101357Y483291D01*
X1101357Y484165D02*
X1103983Y484165D01*
X1103983Y485039D02*
X1101357Y485039D01*
X1101357Y485913D02*
X1103983Y485913D01*
X1103983Y486787D02*
X1101357Y486787D01*
X1101357Y487661D02*
X1103983Y487661D01*
X1103983Y488535D02*
X1101357Y488535D01*
X1101357Y489409D02*
X1103983Y489409D01*
X1103983Y490283D02*
X1101357Y490283D01*
X1101357Y491157D02*
X1103983Y491157D01*
X1103983Y492031D02*
X1101357Y492031D01*
X1101357Y492905D02*
X1103983Y492905D01*
X1103983Y493779D02*
X1101357Y493779D01*
X1101357Y494653D02*
X1103983Y494653D01*
X1096357Y495073D02*
X1096357Y478047D01*
X1096357Y495073D02*
X1098983Y495073D01*
X1098983Y478047D01*
X1096357Y478047D01*
X1096357Y478921D02*
X1098983Y478921D01*
X1098983Y479795D02*
X1096357Y479795D01*
X1096357Y480669D02*
X1098983Y480669D01*
X1098983Y481543D02*
X1096357Y481543D01*
X1096357Y482417D02*
X1098983Y482417D01*
X1098983Y483291D02*
X1096357Y483291D01*
X1096357Y484165D02*
X1098983Y484165D01*
X1098983Y485039D02*
X1096357Y485039D01*
X1096357Y485913D02*
X1098983Y485913D01*
X1098983Y486787D02*
X1096357Y486787D01*
X1096357Y487661D02*
X1098983Y487661D01*
X1098983Y488535D02*
X1096357Y488535D01*
X1096357Y489409D02*
X1098983Y489409D01*
X1098983Y490283D02*
X1096357Y490283D01*
X1096357Y491157D02*
X1098983Y491157D01*
X1098983Y492031D02*
X1096357Y492031D01*
X1096357Y492905D02*
X1098983Y492905D01*
X1098983Y493779D02*
X1096357Y493779D01*
X1096357Y494653D02*
X1098983Y494653D01*
X1091357Y495073D02*
X1091357Y478047D01*
X1091357Y495073D02*
X1093983Y495073D01*
X1093983Y478047D01*
X1091357Y478047D01*
X1091357Y478921D02*
X1093983Y478921D01*
X1093983Y479795D02*
X1091357Y479795D01*
X1091357Y480669D02*
X1093983Y480669D01*
X1093983Y481543D02*
X1091357Y481543D01*
X1091357Y482417D02*
X1093983Y482417D01*
X1093983Y483291D02*
X1091357Y483291D01*
X1091357Y484165D02*
X1093983Y484165D01*
X1093983Y485039D02*
X1091357Y485039D01*
X1091357Y485913D02*
X1093983Y485913D01*
X1093983Y486787D02*
X1091357Y486787D01*
X1091357Y487661D02*
X1093983Y487661D01*
X1093983Y488535D02*
X1091357Y488535D01*
X1091357Y489409D02*
X1093983Y489409D01*
X1093983Y490283D02*
X1091357Y490283D01*
X1091357Y491157D02*
X1093983Y491157D01*
X1093983Y492031D02*
X1091357Y492031D01*
X1091357Y492905D02*
X1093983Y492905D01*
X1093983Y493779D02*
X1091357Y493779D01*
X1091357Y494653D02*
X1093983Y494653D01*
X1086357Y495073D02*
X1086357Y478047D01*
X1086357Y495073D02*
X1088983Y495073D01*
X1088983Y478047D01*
X1086357Y478047D01*
X1086357Y478921D02*
X1088983Y478921D01*
X1088983Y479795D02*
X1086357Y479795D01*
X1086357Y480669D02*
X1088983Y480669D01*
X1088983Y481543D02*
X1086357Y481543D01*
X1086357Y482417D02*
X1088983Y482417D01*
X1088983Y483291D02*
X1086357Y483291D01*
X1086357Y484165D02*
X1088983Y484165D01*
X1088983Y485039D02*
X1086357Y485039D01*
X1086357Y485913D02*
X1088983Y485913D01*
X1088983Y486787D02*
X1086357Y486787D01*
X1086357Y487661D02*
X1088983Y487661D01*
X1088983Y488535D02*
X1086357Y488535D01*
X1086357Y489409D02*
X1088983Y489409D01*
X1088983Y490283D02*
X1086357Y490283D01*
X1086357Y491157D02*
X1088983Y491157D01*
X1088983Y492031D02*
X1086357Y492031D01*
X1086357Y492905D02*
X1088983Y492905D01*
X1088983Y493779D02*
X1086357Y493779D01*
X1086357Y494653D02*
X1088983Y494653D01*
X1086357Y400773D02*
X1086357Y383747D01*
X1086357Y400773D02*
X1088983Y400773D01*
X1088983Y383747D01*
X1086357Y383747D01*
X1086357Y384621D02*
X1088983Y384621D01*
X1088983Y385495D02*
X1086357Y385495D01*
X1086357Y386369D02*
X1088983Y386369D01*
X1088983Y387243D02*
X1086357Y387243D01*
X1086357Y388117D02*
X1088983Y388117D01*
X1088983Y388991D02*
X1086357Y388991D01*
X1086357Y389865D02*
X1088983Y389865D01*
X1088983Y390739D02*
X1086357Y390739D01*
X1086357Y391613D02*
X1088983Y391613D01*
X1088983Y392487D02*
X1086357Y392487D01*
X1086357Y393361D02*
X1088983Y393361D01*
X1088983Y394235D02*
X1086357Y394235D01*
X1086357Y395109D02*
X1088983Y395109D01*
X1088983Y395983D02*
X1086357Y395983D01*
X1086357Y396857D02*
X1088983Y396857D01*
X1088983Y397731D02*
X1086357Y397731D01*
X1086357Y398605D02*
X1088983Y398605D01*
X1088983Y399479D02*
X1086357Y399479D01*
X1086357Y400353D02*
X1088983Y400353D01*
X1091357Y400773D02*
X1091357Y383747D01*
X1091357Y400773D02*
X1093983Y400773D01*
X1093983Y383747D01*
X1091357Y383747D01*
X1091357Y384621D02*
X1093983Y384621D01*
X1093983Y385495D02*
X1091357Y385495D01*
X1091357Y386369D02*
X1093983Y386369D01*
X1093983Y387243D02*
X1091357Y387243D01*
X1091357Y388117D02*
X1093983Y388117D01*
X1093983Y388991D02*
X1091357Y388991D01*
X1091357Y389865D02*
X1093983Y389865D01*
X1093983Y390739D02*
X1091357Y390739D01*
X1091357Y391613D02*
X1093983Y391613D01*
X1093983Y392487D02*
X1091357Y392487D01*
X1091357Y393361D02*
X1093983Y393361D01*
X1093983Y394235D02*
X1091357Y394235D01*
X1091357Y395109D02*
X1093983Y395109D01*
X1093983Y395983D02*
X1091357Y395983D01*
X1091357Y396857D02*
X1093983Y396857D01*
X1093983Y397731D02*
X1091357Y397731D01*
X1091357Y398605D02*
X1093983Y398605D01*
X1093983Y399479D02*
X1091357Y399479D01*
X1091357Y400353D02*
X1093983Y400353D01*
X1096357Y400773D02*
X1096357Y383747D01*
X1096357Y400773D02*
X1098983Y400773D01*
X1098983Y383747D01*
X1096357Y383747D01*
X1096357Y384621D02*
X1098983Y384621D01*
X1098983Y385495D02*
X1096357Y385495D01*
X1096357Y386369D02*
X1098983Y386369D01*
X1098983Y387243D02*
X1096357Y387243D01*
X1096357Y388117D02*
X1098983Y388117D01*
X1098983Y388991D02*
X1096357Y388991D01*
X1096357Y389865D02*
X1098983Y389865D01*
X1098983Y390739D02*
X1096357Y390739D01*
X1096357Y391613D02*
X1098983Y391613D01*
X1098983Y392487D02*
X1096357Y392487D01*
X1096357Y393361D02*
X1098983Y393361D01*
X1098983Y394235D02*
X1096357Y394235D01*
X1096357Y395109D02*
X1098983Y395109D01*
X1098983Y395983D02*
X1096357Y395983D01*
X1096357Y396857D02*
X1098983Y396857D01*
X1098983Y397731D02*
X1096357Y397731D01*
X1096357Y398605D02*
X1098983Y398605D01*
X1098983Y399479D02*
X1096357Y399479D01*
X1096357Y400353D02*
X1098983Y400353D01*
X1101357Y400773D02*
X1101357Y383747D01*
X1101357Y400773D02*
X1103983Y400773D01*
X1103983Y383747D01*
X1101357Y383747D01*
X1101357Y384621D02*
X1103983Y384621D01*
X1103983Y385495D02*
X1101357Y385495D01*
X1101357Y386369D02*
X1103983Y386369D01*
X1103983Y387243D02*
X1101357Y387243D01*
X1101357Y388117D02*
X1103983Y388117D01*
X1103983Y388991D02*
X1101357Y388991D01*
X1101357Y389865D02*
X1103983Y389865D01*
X1103983Y390739D02*
X1101357Y390739D01*
X1101357Y391613D02*
X1103983Y391613D01*
X1103983Y392487D02*
X1101357Y392487D01*
X1101357Y393361D02*
X1103983Y393361D01*
X1103983Y394235D02*
X1101357Y394235D01*
X1101357Y395109D02*
X1103983Y395109D01*
X1103983Y395983D02*
X1101357Y395983D01*
X1101357Y396857D02*
X1103983Y396857D01*
X1103983Y397731D02*
X1101357Y397731D01*
X1101357Y398605D02*
X1103983Y398605D01*
X1103983Y399479D02*
X1101357Y399479D01*
X1101357Y400353D02*
X1103983Y400353D01*
X1106357Y400773D02*
X1106357Y383747D01*
X1106357Y400773D02*
X1108983Y400773D01*
X1108983Y383747D01*
X1106357Y383747D01*
X1106357Y384621D02*
X1108983Y384621D01*
X1108983Y385495D02*
X1106357Y385495D01*
X1106357Y386369D02*
X1108983Y386369D01*
X1108983Y387243D02*
X1106357Y387243D01*
X1106357Y388117D02*
X1108983Y388117D01*
X1108983Y388991D02*
X1106357Y388991D01*
X1106357Y389865D02*
X1108983Y389865D01*
X1108983Y390739D02*
X1106357Y390739D01*
X1106357Y391613D02*
X1108983Y391613D01*
X1108983Y392487D02*
X1106357Y392487D01*
X1106357Y393361D02*
X1108983Y393361D01*
X1108983Y394235D02*
X1106357Y394235D01*
X1106357Y395109D02*
X1108983Y395109D01*
X1108983Y395983D02*
X1106357Y395983D01*
X1106357Y396857D02*
X1108983Y396857D01*
X1108983Y397731D02*
X1106357Y397731D01*
X1106357Y398605D02*
X1108983Y398605D01*
X1108983Y399479D02*
X1106357Y399479D01*
X1106357Y400353D02*
X1108983Y400353D01*
X1111357Y400773D02*
X1111357Y383747D01*
X1111357Y400773D02*
X1113983Y400773D01*
X1113983Y383747D01*
X1111357Y383747D01*
X1111357Y384621D02*
X1113983Y384621D01*
X1113983Y385495D02*
X1111357Y385495D01*
X1111357Y386369D02*
X1113983Y386369D01*
X1113983Y387243D02*
X1111357Y387243D01*
X1111357Y388117D02*
X1113983Y388117D01*
X1113983Y388991D02*
X1111357Y388991D01*
X1111357Y389865D02*
X1113983Y389865D01*
X1113983Y390739D02*
X1111357Y390739D01*
X1111357Y391613D02*
X1113983Y391613D01*
X1113983Y392487D02*
X1111357Y392487D01*
X1111357Y393361D02*
X1113983Y393361D01*
X1113983Y394235D02*
X1111357Y394235D01*
X1111357Y395109D02*
X1113983Y395109D01*
X1113983Y395983D02*
X1111357Y395983D01*
X1111357Y396857D02*
X1113983Y396857D01*
X1113983Y397731D02*
X1111357Y397731D01*
X1111357Y398605D02*
X1113983Y398605D01*
X1113983Y399479D02*
X1111357Y399479D01*
X1111357Y400353D02*
X1113983Y400353D01*
X1116357Y400773D02*
X1116357Y383747D01*
X1116357Y400773D02*
X1118983Y400773D01*
X1118983Y383747D01*
X1116357Y383747D01*
X1116357Y384621D02*
X1118983Y384621D01*
X1118983Y385495D02*
X1116357Y385495D01*
X1116357Y386369D02*
X1118983Y386369D01*
X1118983Y387243D02*
X1116357Y387243D01*
X1116357Y388117D02*
X1118983Y388117D01*
X1118983Y388991D02*
X1116357Y388991D01*
X1116357Y389865D02*
X1118983Y389865D01*
X1118983Y390739D02*
X1116357Y390739D01*
X1116357Y391613D02*
X1118983Y391613D01*
X1118983Y392487D02*
X1116357Y392487D01*
X1116357Y393361D02*
X1118983Y393361D01*
X1118983Y394235D02*
X1116357Y394235D01*
X1116357Y395109D02*
X1118983Y395109D01*
X1118983Y395983D02*
X1116357Y395983D01*
X1116357Y396857D02*
X1118983Y396857D01*
X1118983Y397731D02*
X1116357Y397731D01*
X1116357Y398605D02*
X1118983Y398605D01*
X1118983Y399479D02*
X1116357Y399479D01*
X1116357Y400353D02*
X1118983Y400353D01*
X1121357Y400773D02*
X1121357Y383747D01*
X1121357Y400773D02*
X1123983Y400773D01*
X1123983Y383747D01*
X1121357Y383747D01*
X1121357Y384621D02*
X1123983Y384621D01*
X1123983Y385495D02*
X1121357Y385495D01*
X1121357Y386369D02*
X1123983Y386369D01*
X1123983Y387243D02*
X1121357Y387243D01*
X1121357Y388117D02*
X1123983Y388117D01*
X1123983Y388991D02*
X1121357Y388991D01*
X1121357Y389865D02*
X1123983Y389865D01*
X1123983Y390739D02*
X1121357Y390739D01*
X1121357Y391613D02*
X1123983Y391613D01*
X1123983Y392487D02*
X1121357Y392487D01*
X1121357Y393361D02*
X1123983Y393361D01*
X1123983Y394235D02*
X1121357Y394235D01*
X1121357Y395109D02*
X1123983Y395109D01*
X1123983Y395983D02*
X1121357Y395983D01*
X1121357Y396857D02*
X1123983Y396857D01*
X1123983Y397731D02*
X1121357Y397731D01*
X1121357Y398605D02*
X1123983Y398605D01*
X1123983Y399479D02*
X1121357Y399479D01*
X1121357Y400353D02*
X1123983Y400353D01*
X1126357Y400773D02*
X1126357Y383747D01*
X1126357Y400773D02*
X1128983Y400773D01*
X1128983Y383747D01*
X1126357Y383747D01*
X1126357Y384621D02*
X1128983Y384621D01*
X1128983Y385495D02*
X1126357Y385495D01*
X1126357Y386369D02*
X1128983Y386369D01*
X1128983Y387243D02*
X1126357Y387243D01*
X1126357Y388117D02*
X1128983Y388117D01*
X1128983Y388991D02*
X1126357Y388991D01*
X1126357Y389865D02*
X1128983Y389865D01*
X1128983Y390739D02*
X1126357Y390739D01*
X1126357Y391613D02*
X1128983Y391613D01*
X1128983Y392487D02*
X1126357Y392487D01*
X1126357Y393361D02*
X1128983Y393361D01*
X1128983Y394235D02*
X1126357Y394235D01*
X1126357Y395109D02*
X1128983Y395109D01*
X1128983Y395983D02*
X1126357Y395983D01*
X1126357Y396857D02*
X1128983Y396857D01*
X1128983Y397731D02*
X1126357Y397731D01*
X1126357Y398605D02*
X1128983Y398605D01*
X1128983Y399479D02*
X1126357Y399479D01*
X1126357Y400353D02*
X1128983Y400353D01*
X1131357Y400773D02*
X1131357Y383747D01*
X1131357Y400773D02*
X1133983Y400773D01*
X1133983Y383747D01*
X1131357Y383747D01*
X1131357Y384621D02*
X1133983Y384621D01*
X1133983Y385495D02*
X1131357Y385495D01*
X1131357Y386369D02*
X1133983Y386369D01*
X1133983Y387243D02*
X1131357Y387243D01*
X1131357Y388117D02*
X1133983Y388117D01*
X1133983Y388991D02*
X1131357Y388991D01*
X1131357Y389865D02*
X1133983Y389865D01*
X1133983Y390739D02*
X1131357Y390739D01*
X1131357Y391613D02*
X1133983Y391613D01*
X1133983Y392487D02*
X1131357Y392487D01*
X1131357Y393361D02*
X1133983Y393361D01*
X1133983Y394235D02*
X1131357Y394235D01*
X1131357Y395109D02*
X1133983Y395109D01*
X1133983Y395983D02*
X1131357Y395983D01*
X1131357Y396857D02*
X1133983Y396857D01*
X1133983Y397731D02*
X1131357Y397731D01*
X1131357Y398605D02*
X1133983Y398605D01*
X1133983Y399479D02*
X1131357Y399479D01*
X1131357Y400353D02*
X1133983Y400353D01*
X1136357Y400773D02*
X1136357Y383747D01*
X1136357Y400773D02*
X1138983Y400773D01*
X1138983Y383747D01*
X1136357Y383747D01*
X1136357Y384621D02*
X1138983Y384621D01*
X1138983Y385495D02*
X1136357Y385495D01*
X1136357Y386369D02*
X1138983Y386369D01*
X1138983Y387243D02*
X1136357Y387243D01*
X1136357Y388117D02*
X1138983Y388117D01*
X1138983Y388991D02*
X1136357Y388991D01*
X1136357Y389865D02*
X1138983Y389865D01*
X1138983Y390739D02*
X1136357Y390739D01*
X1136357Y391613D02*
X1138983Y391613D01*
X1138983Y392487D02*
X1136357Y392487D01*
X1136357Y393361D02*
X1138983Y393361D01*
X1138983Y394235D02*
X1136357Y394235D01*
X1136357Y395109D02*
X1138983Y395109D01*
X1138983Y395983D02*
X1136357Y395983D01*
X1136357Y396857D02*
X1138983Y396857D01*
X1138983Y397731D02*
X1136357Y397731D01*
X1136357Y398605D02*
X1138983Y398605D01*
X1138983Y399479D02*
X1136357Y399479D01*
X1136357Y400353D02*
X1138983Y400353D01*
X1141357Y400773D02*
X1141357Y383747D01*
X1141357Y400773D02*
X1143983Y400773D01*
X1143983Y383747D01*
X1141357Y383747D01*
X1141357Y384621D02*
X1143983Y384621D01*
X1143983Y385495D02*
X1141357Y385495D01*
X1141357Y386369D02*
X1143983Y386369D01*
X1143983Y387243D02*
X1141357Y387243D01*
X1141357Y388117D02*
X1143983Y388117D01*
X1143983Y388991D02*
X1141357Y388991D01*
X1141357Y389865D02*
X1143983Y389865D01*
X1143983Y390739D02*
X1141357Y390739D01*
X1141357Y391613D02*
X1143983Y391613D01*
X1143983Y392487D02*
X1141357Y392487D01*
X1141357Y393361D02*
X1143983Y393361D01*
X1143983Y394235D02*
X1141357Y394235D01*
X1141357Y395109D02*
X1143983Y395109D01*
X1143983Y395983D02*
X1141357Y395983D01*
X1141357Y396857D02*
X1143983Y396857D01*
X1143983Y397731D02*
X1141357Y397731D01*
X1141357Y398605D02*
X1143983Y398605D01*
X1143983Y399479D02*
X1141357Y399479D01*
X1141357Y400353D02*
X1143983Y400353D01*
X1146357Y400773D02*
X1146357Y383747D01*
X1146357Y400773D02*
X1148983Y400773D01*
X1148983Y383747D01*
X1146357Y383747D01*
X1146357Y384621D02*
X1148983Y384621D01*
X1148983Y385495D02*
X1146357Y385495D01*
X1146357Y386369D02*
X1148983Y386369D01*
X1148983Y387243D02*
X1146357Y387243D01*
X1146357Y388117D02*
X1148983Y388117D01*
X1148983Y388991D02*
X1146357Y388991D01*
X1146357Y389865D02*
X1148983Y389865D01*
X1148983Y390739D02*
X1146357Y390739D01*
X1146357Y391613D02*
X1148983Y391613D01*
X1148983Y392487D02*
X1146357Y392487D01*
X1146357Y393361D02*
X1148983Y393361D01*
X1148983Y394235D02*
X1146357Y394235D01*
X1146357Y395109D02*
X1148983Y395109D01*
X1148983Y395983D02*
X1146357Y395983D01*
X1146357Y396857D02*
X1148983Y396857D01*
X1148983Y397731D02*
X1146357Y397731D01*
X1146357Y398605D02*
X1148983Y398605D01*
X1148983Y399479D02*
X1146357Y399479D01*
X1146357Y400353D02*
X1148983Y400353D01*
X1151357Y400773D02*
X1151357Y383747D01*
X1151357Y400773D02*
X1153983Y400773D01*
X1153983Y383747D01*
X1151357Y383747D01*
X1151357Y384621D02*
X1153983Y384621D01*
X1153983Y385495D02*
X1151357Y385495D01*
X1151357Y386369D02*
X1153983Y386369D01*
X1153983Y387243D02*
X1151357Y387243D01*
X1151357Y388117D02*
X1153983Y388117D01*
X1153983Y388991D02*
X1151357Y388991D01*
X1151357Y389865D02*
X1153983Y389865D01*
X1153983Y390739D02*
X1151357Y390739D01*
X1151357Y391613D02*
X1153983Y391613D01*
X1153983Y392487D02*
X1151357Y392487D01*
X1151357Y393361D02*
X1153983Y393361D01*
X1153983Y394235D02*
X1151357Y394235D01*
X1151357Y395109D02*
X1153983Y395109D01*
X1153983Y395983D02*
X1151357Y395983D01*
X1151357Y396857D02*
X1153983Y396857D01*
X1153983Y397731D02*
X1151357Y397731D01*
X1151357Y398605D02*
X1153983Y398605D01*
X1153983Y399479D02*
X1151357Y399479D01*
X1151357Y400353D02*
X1153983Y400353D01*
X1156357Y400773D02*
X1156357Y383747D01*
X1156357Y400773D02*
X1158983Y400773D01*
X1158983Y383747D01*
X1156357Y383747D01*
X1156357Y384621D02*
X1158983Y384621D01*
X1158983Y385495D02*
X1156357Y385495D01*
X1156357Y386369D02*
X1158983Y386369D01*
X1158983Y387243D02*
X1156357Y387243D01*
X1156357Y388117D02*
X1158983Y388117D01*
X1158983Y388991D02*
X1156357Y388991D01*
X1156357Y389865D02*
X1158983Y389865D01*
X1158983Y390739D02*
X1156357Y390739D01*
X1156357Y391613D02*
X1158983Y391613D01*
X1158983Y392487D02*
X1156357Y392487D01*
X1156357Y393361D02*
X1158983Y393361D01*
X1158983Y394235D02*
X1156357Y394235D01*
X1156357Y395109D02*
X1158983Y395109D01*
X1158983Y395983D02*
X1156357Y395983D01*
X1156357Y396857D02*
X1158983Y396857D01*
X1158983Y397731D02*
X1156357Y397731D01*
X1156357Y398605D02*
X1158983Y398605D01*
X1158983Y399479D02*
X1156357Y399479D01*
X1156357Y400353D02*
X1158983Y400353D01*
X1161357Y400773D02*
X1161357Y383747D01*
X1161357Y400773D02*
X1163983Y400773D01*
X1163983Y383747D01*
X1161357Y383747D01*
X1161357Y384621D02*
X1163983Y384621D01*
X1163983Y385495D02*
X1161357Y385495D01*
X1161357Y386369D02*
X1163983Y386369D01*
X1163983Y387243D02*
X1161357Y387243D01*
X1161357Y388117D02*
X1163983Y388117D01*
X1163983Y388991D02*
X1161357Y388991D01*
X1161357Y389865D02*
X1163983Y389865D01*
X1163983Y390739D02*
X1161357Y390739D01*
X1161357Y391613D02*
X1163983Y391613D01*
X1163983Y392487D02*
X1161357Y392487D01*
X1161357Y393361D02*
X1163983Y393361D01*
X1163983Y394235D02*
X1161357Y394235D01*
X1161357Y395109D02*
X1163983Y395109D01*
X1163983Y395983D02*
X1161357Y395983D01*
X1161357Y396857D02*
X1163983Y396857D01*
X1163983Y397731D02*
X1161357Y397731D01*
X1161357Y398605D02*
X1163983Y398605D01*
X1163983Y399479D02*
X1161357Y399479D01*
X1161357Y400353D02*
X1163983Y400353D01*
X1166357Y400773D02*
X1166357Y383747D01*
X1166357Y400773D02*
X1168983Y400773D01*
X1168983Y383747D01*
X1166357Y383747D01*
X1166357Y384621D02*
X1168983Y384621D01*
X1168983Y385495D02*
X1166357Y385495D01*
X1166357Y386369D02*
X1168983Y386369D01*
X1168983Y387243D02*
X1166357Y387243D01*
X1166357Y388117D02*
X1168983Y388117D01*
X1168983Y388991D02*
X1166357Y388991D01*
X1166357Y389865D02*
X1168983Y389865D01*
X1168983Y390739D02*
X1166357Y390739D01*
X1166357Y391613D02*
X1168983Y391613D01*
X1168983Y392487D02*
X1166357Y392487D01*
X1166357Y393361D02*
X1168983Y393361D01*
X1168983Y394235D02*
X1166357Y394235D01*
X1166357Y395109D02*
X1168983Y395109D01*
X1168983Y395983D02*
X1166357Y395983D01*
X1166357Y396857D02*
X1168983Y396857D01*
X1168983Y397731D02*
X1166357Y397731D01*
X1166357Y398605D02*
X1168983Y398605D01*
X1168983Y399479D02*
X1166357Y399479D01*
X1166357Y400353D02*
X1168983Y400353D01*
X1171357Y400773D02*
X1171357Y383747D01*
X1171357Y400773D02*
X1173983Y400773D01*
X1173983Y383747D01*
X1171357Y383747D01*
X1171357Y384621D02*
X1173983Y384621D01*
X1173983Y385495D02*
X1171357Y385495D01*
X1171357Y386369D02*
X1173983Y386369D01*
X1173983Y387243D02*
X1171357Y387243D01*
X1171357Y388117D02*
X1173983Y388117D01*
X1173983Y388991D02*
X1171357Y388991D01*
X1171357Y389865D02*
X1173983Y389865D01*
X1173983Y390739D02*
X1171357Y390739D01*
X1171357Y391613D02*
X1173983Y391613D01*
X1173983Y392487D02*
X1171357Y392487D01*
X1171357Y393361D02*
X1173983Y393361D01*
X1173983Y394235D02*
X1171357Y394235D01*
X1171357Y395109D02*
X1173983Y395109D01*
X1173983Y395983D02*
X1171357Y395983D01*
X1171357Y396857D02*
X1173983Y396857D01*
X1173983Y397731D02*
X1171357Y397731D01*
X1171357Y398605D02*
X1173983Y398605D01*
X1173983Y399479D02*
X1171357Y399479D01*
X1171357Y400353D02*
X1173983Y400353D01*
D22*
X1122170Y415410D02*
X1122170Y463410D01*
X1122170Y415410D02*
X1092170Y415410D01*
X1092170Y463410D01*
X1122170Y463410D01*
X1122170Y425409D02*
X1092170Y425409D01*
X1092170Y435408D02*
X1122170Y435408D01*
X1122170Y445407D02*
X1092170Y445407D01*
X1092170Y455406D02*
X1122170Y455406D01*
D23*
X1169920Y445660D02*
X1169920Y465160D01*
X1169920Y445660D02*
X1136420Y445660D01*
X1136420Y465160D01*
X1169920Y465160D01*
X1169920Y452159D02*
X1136420Y452159D01*
X1136420Y458658D02*
X1169920Y458658D01*
X1169920Y465157D02*
X1136420Y465157D01*
X1169920Y433160D02*
X1169920Y413660D01*
X1136420Y413660D01*
X1136420Y433160D01*
X1169920Y433160D01*
X1169920Y420159D02*
X1136420Y420159D01*
X1136420Y426658D02*
X1169920Y426658D01*
X1169920Y433157D02*
X1136420Y433157D01*
D10*
X924170Y1407660D03*
X907170Y1407660D03*
G36*
X1056262Y1402323D02*
X1066886Y1399476D01*
X1064298Y1389817D01*
X1053674Y1392664D01*
X1056262Y1402323D01*
G37*
G36*
X1039842Y1406723D02*
X1050466Y1403876D01*
X1047878Y1394217D01*
X1037254Y1397064D01*
X1039842Y1406723D01*
G37*
G36*
X1215918Y1414310D02*
X1225444Y1408810D01*
X1220444Y1400150D01*
X1210918Y1405650D01*
X1215918Y1414310D01*
G37*
G36*
X1201196Y1422810D02*
X1210722Y1417310D01*
X1205722Y1408650D01*
X1196196Y1414150D01*
X1201196Y1422810D01*
G37*
G36*
X1449907Y1424834D02*
X1457684Y1417057D01*
X1450613Y1409986D01*
X1442836Y1417763D01*
X1449907Y1424834D01*
G37*
G36*
X1437887Y1436854D02*
X1445664Y1429077D01*
X1438593Y1422006D01*
X1430816Y1429783D01*
X1437887Y1436854D01*
G37*
G36*
X1590290Y1280312D02*
X1595790Y1270786D01*
X1587130Y1265786D01*
X1581630Y1275312D01*
X1590290Y1280312D01*
G37*
G36*
X1581790Y1295034D02*
X1587290Y1285508D01*
X1578630Y1280508D01*
X1573130Y1290034D01*
X1581790Y1295034D01*
G37*
G36*
X1663976Y1088056D02*
X1666823Y1077432D01*
X1657164Y1074844D01*
X1654317Y1085468D01*
X1663976Y1088056D01*
G37*
G36*
X1659576Y1104476D02*
X1662423Y1093852D01*
X1652764Y1091264D01*
X1649917Y1101888D01*
X1659576Y1104476D01*
G37*
D20*
X1684280Y876180D03*
X1684280Y893180D03*
D10*
G36*
X1656063Y681608D02*
X1653216Y670984D01*
X1643557Y673572D01*
X1646404Y684196D01*
X1656063Y681608D01*
G37*
G36*
X1660463Y698028D02*
X1657616Y687404D01*
X1647957Y689992D01*
X1650804Y700616D01*
X1660463Y698028D01*
G37*
G36*
X1574580Y492232D02*
X1569080Y482706D01*
X1560420Y487706D01*
X1565920Y497232D01*
X1574580Y492232D01*
G37*
G36*
X1583080Y506954D02*
X1577580Y497428D01*
X1568920Y502428D01*
X1574420Y511954D01*
X1583080Y506954D01*
G37*
G36*
X1450744Y334703D02*
X1442967Y326926D01*
X1435896Y333997D01*
X1443673Y341774D01*
X1450744Y334703D01*
G37*
G36*
X1462764Y346723D02*
X1454987Y338946D01*
X1447916Y346017D01*
X1455693Y353794D01*
X1462764Y346723D01*
G37*
G36*
X1281072Y207780D02*
X1271546Y202280D01*
X1266546Y210940D01*
X1276072Y216440D01*
X1281072Y207780D01*
G37*
G36*
X1295794Y216280D02*
X1286268Y210780D01*
X1281268Y219440D01*
X1290794Y224940D01*
X1295794Y216280D01*
G37*
G36*
X1077804Y92986D02*
X1088428Y95833D01*
X1091016Y86174D01*
X1080392Y83327D01*
X1077804Y92986D01*
G37*
G36*
X1061384Y88586D02*
X1072008Y91433D01*
X1074596Y81774D01*
X1063972Y78927D01*
X1061384Y88586D01*
G37*
D20*
X836420Y100700D03*
X836420Y83700D03*
D10*
G36*
X634507Y127382D02*
X637354Y138006D01*
X647013Y135418D01*
X644166Y124794D01*
X634507Y127382D01*
G37*
G36*
X630107Y110962D02*
X632954Y121586D01*
X642613Y118998D01*
X639766Y108374D01*
X630107Y110962D01*
G37*
G36*
X491222Y230600D02*
X481696Y236100D01*
X486696Y244760D01*
X496222Y239260D01*
X491222Y230600D01*
G37*
G36*
X505944Y222100D02*
X496418Y227600D01*
X501418Y236260D01*
X510944Y230760D01*
X505944Y222100D01*
G37*
G36*
X333433Y353926D02*
X325656Y361703D01*
X332727Y368774D01*
X340504Y360997D01*
X333433Y353926D01*
G37*
G36*
X345453Y341906D02*
X337676Y349683D01*
X344747Y356754D01*
X352524Y348977D01*
X345453Y341906D01*
G37*
G36*
X213370Y520038D02*
X207870Y529564D01*
X216530Y534564D01*
X222030Y525038D01*
X213370Y520038D01*
G37*
G36*
X221870Y505316D02*
X216370Y514842D01*
X225030Y519842D01*
X230530Y510316D01*
X221870Y505316D01*
G37*
G36*
X137144Y713314D02*
X134297Y723938D01*
X143956Y726526D01*
X146803Y715902D01*
X137144Y713314D01*
G37*
G36*
X141544Y696894D02*
X138697Y707518D01*
X148356Y710106D01*
X151203Y699482D01*
X141544Y696894D01*
G37*
D20*
X120140Y920870D03*
X120140Y903870D03*
D10*
G36*
X145047Y1119752D02*
X147894Y1130376D01*
X157553Y1127788D01*
X154706Y1117164D01*
X145047Y1119752D01*
G37*
G36*
X140647Y1103332D02*
X143494Y1113956D01*
X153153Y1111368D01*
X150306Y1100744D01*
X140647Y1103332D01*
G37*
G36*
X178018Y1258710D02*
X187544Y1253210D01*
X182544Y1244550D01*
X173018Y1250050D01*
X178018Y1258710D01*
G37*
G36*
X163296Y1267210D02*
X172822Y1261710D01*
X167822Y1253050D01*
X158296Y1258550D01*
X163296Y1267210D01*
G37*
G36*
X375776Y1447357D02*
X383553Y1455134D01*
X390624Y1448063D01*
X382847Y1440286D01*
X375776Y1447357D01*
G37*
G36*
X363756Y1435337D02*
X371533Y1443114D01*
X378604Y1436043D01*
X370827Y1428266D01*
X363756Y1435337D01*
G37*
G36*
X613768Y1433060D02*
X623294Y1438560D01*
X628294Y1429900D01*
X618768Y1424400D01*
X613768Y1433060D01*
G37*
G36*
X599046Y1424560D02*
X608572Y1430060D01*
X613572Y1421400D01*
X604046Y1415900D01*
X599046Y1424560D01*
G37*
G36*
X781894Y1418346D02*
X792518Y1421193D01*
X795106Y1411534D01*
X784482Y1408687D01*
X781894Y1418346D01*
G37*
G36*
X765474Y1413946D02*
X776098Y1416793D01*
X778686Y1407134D01*
X768062Y1404287D01*
X765474Y1413946D01*
G37*
D24*
X925390Y1460960D03*
X873850Y1460960D03*
X873850Y1492960D03*
X925390Y1492960D03*
X1272098Y1460828D03*
X1220558Y1460828D03*
X1220558Y1492828D03*
X1272098Y1492828D03*
G36*
X1640069Y1306740D02*
X1648324Y1292442D01*
X1639665Y1287442D01*
X1631410Y1301740D01*
X1640069Y1306740D01*
G37*
G36*
X1614299Y1351374D02*
X1622554Y1337076D01*
X1613895Y1332076D01*
X1605640Y1346374D01*
X1614299Y1351374D01*
G37*
G36*
X1642011Y1367374D02*
X1650266Y1353076D01*
X1641607Y1348076D01*
X1633352Y1362374D01*
X1642011Y1367374D01*
G37*
G36*
X1667781Y1322740D02*
X1676036Y1308442D01*
X1667377Y1303442D01*
X1659122Y1317740D01*
X1667781Y1322740D01*
G37*
D25*
X1740914Y873390D03*
X1740914Y924930D03*
X1772914Y924930D03*
X1772914Y873390D03*
D24*
G36*
X1623060Y461248D02*
X1614805Y446950D01*
X1606146Y451950D01*
X1614401Y466248D01*
X1623060Y461248D01*
G37*
G36*
X1648830Y505882D02*
X1640575Y491584D01*
X1631916Y496584D01*
X1640171Y510882D01*
X1648830Y505882D01*
G37*
G36*
X1676542Y489882D02*
X1668287Y475584D01*
X1659628Y480584D01*
X1667883Y494882D01*
X1676542Y489882D01*
G37*
G36*
X1650772Y445248D02*
X1642517Y430950D01*
X1633858Y435950D01*
X1642113Y450248D01*
X1650772Y445248D01*
G37*
G36*
X1307496Y157487D02*
X1293198Y149232D01*
X1288198Y157891D01*
X1302496Y166146D01*
X1307496Y157487D01*
G37*
G36*
X1352130Y183257D02*
X1337832Y175002D01*
X1332832Y183661D01*
X1347130Y191916D01*
X1352130Y183257D01*
G37*
G36*
X1368130Y155545D02*
X1353832Y147290D01*
X1348832Y155949D01*
X1363130Y164204D01*
X1368130Y155545D01*
G37*
G36*
X1323496Y129775D02*
X1309198Y121520D01*
X1304198Y130179D01*
X1318496Y138434D01*
X1323496Y129775D01*
G37*
X873902Y59178D03*
X925442Y59178D03*
X925442Y27178D03*
X873902Y27178D03*
G36*
X461498Y176784D02*
X447200Y185039D01*
X452200Y193698D01*
X466498Y185443D01*
X461498Y176784D01*
G37*
G36*
X506132Y151014D02*
X491834Y159269D01*
X496834Y167928D01*
X511132Y159673D01*
X506132Y151014D01*
G37*
G36*
X490132Y123302D02*
X475834Y131557D01*
X480834Y140216D01*
X495132Y131961D01*
X490132Y123302D01*
G37*
G36*
X445498Y149072D02*
X431200Y157327D01*
X436200Y165986D01*
X450498Y157731D01*
X445498Y149072D01*
G37*
G36*
X159769Y492850D02*
X151514Y507148D01*
X160173Y512148D01*
X168428Y497850D01*
X159769Y492850D01*
G37*
G36*
X185539Y448216D02*
X177284Y462514D01*
X185943Y467514D01*
X194198Y453216D01*
X185539Y448216D01*
G37*
G36*
X157827Y432216D02*
X149572Y446514D01*
X158231Y451514D01*
X166486Y437216D01*
X157827Y432216D01*
G37*
G36*
X132057Y476850D02*
X123802Y491148D01*
X132461Y496148D01*
X140716Y481850D01*
X132057Y476850D01*
G37*
D25*
X58164Y925440D03*
X58164Y873900D03*
X26164Y873900D03*
X26164Y925440D03*
D24*
G36*
X176016Y1337068D02*
X184271Y1351366D01*
X192930Y1346366D01*
X184675Y1332068D01*
X176016Y1337068D01*
G37*
G36*
X150246Y1292434D02*
X158501Y1306732D01*
X167160Y1301732D01*
X158905Y1287434D01*
X150246Y1292434D01*
G37*
G36*
X122534Y1308434D02*
X130789Y1322732D01*
X139448Y1317732D01*
X131193Y1303434D01*
X122534Y1308434D01*
G37*
G36*
X148304Y1353068D02*
X156559Y1367366D01*
X165218Y1362366D01*
X156963Y1348068D01*
X148304Y1353068D01*
G37*
X582032Y1460502D03*
X530492Y1460502D03*
X530492Y1492502D03*
X582032Y1492502D03*
D10*
G36*
X205420Y1360362D02*
X199920Y1350836D01*
X191260Y1355836D01*
X196760Y1365362D01*
X205420Y1360362D01*
G37*
G36*
X213920Y1375084D02*
X208420Y1365558D01*
X199760Y1370558D01*
X205260Y1380084D01*
X213920Y1375084D01*
G37*
G36*
X1648980Y1270358D02*
X1643480Y1279884D01*
X1652140Y1284884D01*
X1657640Y1275358D01*
X1648980Y1270358D01*
G37*
G36*
X1657480Y1255636D02*
X1651980Y1265162D01*
X1660640Y1270162D01*
X1666140Y1260636D01*
X1657480Y1255636D01*
G37*
X606940Y1479300D03*
X623940Y1479300D03*
D20*
X1278390Y1441570D03*
X1278390Y1424570D03*
D10*
X952890Y1461160D03*
X969890Y1461160D03*
D20*
X57660Y950350D03*
X57660Y967350D03*
X1742190Y849750D03*
X1742190Y832750D03*
D10*
G36*
X1268068Y148320D02*
X1277594Y153820D01*
X1282594Y145160D01*
X1273068Y139660D01*
X1268068Y148320D01*
G37*
G36*
X1253346Y139820D02*
X1262872Y145320D01*
X1267872Y136660D01*
X1258346Y131160D01*
X1253346Y139820D01*
G37*
G36*
X1595590Y433848D02*
X1601090Y443374D01*
X1609750Y438374D01*
X1604250Y428848D01*
X1595590Y433848D01*
G37*
G36*
X1587090Y419126D02*
X1592590Y428652D01*
X1601250Y423652D01*
X1595750Y414126D01*
X1587090Y419126D01*
G37*
X851270Y59430D03*
X834270Y59430D03*
G36*
X434608Y204500D02*
X444134Y199000D01*
X439134Y190340D01*
X429608Y195840D01*
X434608Y204500D01*
G37*
G36*
X419886Y213000D02*
X429412Y207500D01*
X424412Y198840D01*
X414886Y204340D01*
X419886Y213000D01*
G37*
G36*
X155840Y528582D02*
X161340Y519056D01*
X152680Y514056D01*
X147180Y523582D01*
X155840Y528582D01*
G37*
G36*
X147340Y543304D02*
X152840Y533778D01*
X144180Y528778D01*
X138680Y538304D01*
X147340Y543304D01*
G37*
D20*
X488950Y1418200D03*
X488950Y1401200D03*
D26*
X447200Y1397660D03*
X466200Y1397660D03*
X456700Y1418660D03*
D20*
X426470Y1401200D03*
X426470Y1418200D03*
D10*
X449460Y1375920D03*
X466460Y1375920D03*
X394830Y1293370D03*
X377830Y1293370D03*
X596510Y1292350D03*
X579510Y1292350D03*
X1217890Y1293620D03*
X1200890Y1293620D03*
D20*
X1425700Y1293230D03*
X1425700Y1276230D03*
D27*
X277460Y1302660D03*
X277460Y1321660D03*
X256460Y1312160D03*
X257400Y1263550D03*
X257400Y1282550D03*
X236400Y1273050D03*
D19*
X408740Y1454210D02*
X415740Y1454210D01*
X415740Y1447210D01*
X408740Y1447210D01*
X408740Y1454210D01*
X408740Y1450209D02*
X415740Y1450209D01*
X415740Y1453208D02*
X408740Y1453208D01*
X408740Y1471750D02*
X415740Y1471750D01*
X415740Y1464750D01*
X408740Y1464750D01*
X408740Y1471750D01*
X408740Y1467749D02*
X415740Y1467749D01*
X415740Y1470748D02*
X408740Y1470748D01*
D20*
X436880Y1451240D03*
X436880Y1468240D03*
D19*
X1312470Y1454980D02*
X1319470Y1454980D01*
X1319470Y1447980D01*
X1312470Y1447980D01*
X1312470Y1454980D01*
X1312470Y1450979D02*
X1319470Y1450979D01*
X1319470Y1453978D02*
X1312470Y1453978D01*
X1312470Y1472520D02*
X1319470Y1472520D01*
X1319470Y1465520D01*
X1312470Y1465520D01*
X1312470Y1472520D01*
X1312470Y1468519D02*
X1319470Y1468519D01*
X1319470Y1471518D02*
X1312470Y1471518D01*
D20*
X1339340Y1451240D03*
X1339340Y1468240D03*
D19*
X1706180Y838910D02*
X1706180Y831910D01*
X1699180Y831910D01*
X1699180Y838910D01*
X1706180Y838910D01*
X1706180Y834909D02*
X1699180Y834909D01*
X1699180Y837908D02*
X1706180Y837908D01*
X1723720Y838910D02*
X1723720Y831910D01*
X1716720Y831910D01*
X1716720Y838910D01*
X1723720Y838910D01*
X1723720Y834909D02*
X1716720Y834909D01*
X1716720Y837908D02*
X1723720Y837908D01*
D10*
X1702950Y812550D03*
X1719950Y812550D03*
D19*
X1415230Y262320D02*
X1408230Y262320D01*
X1408230Y269320D01*
X1415230Y269320D01*
X1415230Y262320D01*
X1415230Y265319D02*
X1408230Y265319D01*
X1408230Y268318D02*
X1415230Y268318D01*
X1415230Y244780D02*
X1408230Y244780D01*
X1408230Y251780D01*
X1415230Y251780D01*
X1415230Y244780D01*
X1415230Y247779D02*
X1408230Y247779D01*
X1408230Y250778D02*
X1415230Y250778D01*
D20*
X1389890Y265800D03*
X1389890Y248800D03*
D19*
X440890Y266130D02*
X433890Y266130D01*
X433890Y273130D01*
X440890Y273130D01*
X440890Y266130D01*
X440890Y269129D02*
X433890Y269129D01*
X433890Y272128D02*
X440890Y272128D01*
X440890Y248590D02*
X433890Y248590D01*
X433890Y255590D01*
X440890Y255590D01*
X440890Y248590D01*
X440890Y251589D02*
X433890Y251589D01*
X433890Y254588D02*
X440890Y254588D01*
D20*
X415040Y269610D03*
X415040Y252610D03*
D19*
X98230Y773990D02*
X98230Y780990D01*
X105230Y780990D01*
X105230Y773990D01*
X98230Y773990D01*
X98230Y776989D02*
X105230Y776989D01*
X105230Y779988D02*
X98230Y779988D01*
X80690Y780990D02*
X80690Y773990D01*
X80690Y780990D02*
X87690Y780990D01*
X87690Y773990D01*
X80690Y773990D01*
X80690Y776989D02*
X87690Y776989D01*
X87690Y779988D02*
X80690Y779988D01*
D10*
X101210Y798320D03*
X84210Y798320D03*
D19*
X456490Y1454470D02*
X463490Y1454470D01*
X463490Y1447470D01*
X456490Y1447470D01*
X456490Y1454470D01*
X456490Y1450469D02*
X463490Y1450469D01*
X463490Y1453468D02*
X456490Y1453468D01*
X456490Y1472010D02*
X463490Y1472010D01*
X463490Y1465010D01*
X456490Y1465010D01*
X456490Y1472010D01*
X456490Y1468009D02*
X463490Y1468009D01*
X463490Y1471008D02*
X456490Y1471008D01*
D20*
X483870Y1451750D03*
X483870Y1468750D03*
D19*
X1356670Y1454720D02*
X1363670Y1454720D01*
X1363670Y1447720D01*
X1356670Y1447720D01*
X1356670Y1454720D01*
X1356670Y1450719D02*
X1363670Y1450719D01*
X1363670Y1453718D02*
X1356670Y1453718D01*
X1356670Y1472260D02*
X1363670Y1472260D01*
X1363670Y1465260D01*
X1356670Y1465260D01*
X1356670Y1472260D01*
X1356670Y1468259D02*
X1363670Y1468259D01*
X1363670Y1471258D02*
X1356670Y1471258D01*
D20*
X1383030Y1451750D03*
X1383030Y1468750D03*
D19*
X1705670Y791920D02*
X1705670Y784920D01*
X1698670Y784920D01*
X1698670Y791920D01*
X1705670Y791920D01*
X1705670Y787919D02*
X1698670Y787919D01*
X1698670Y790918D02*
X1705670Y790918D01*
X1723210Y791920D02*
X1723210Y784920D01*
X1716210Y784920D01*
X1716210Y791920D01*
X1723210Y791920D01*
X1723210Y787919D02*
X1716210Y787919D01*
X1716210Y790918D02*
X1723210Y790918D01*
D10*
X1702440Y765300D03*
X1719440Y765300D03*
D19*
X1371040Y261810D02*
X1364040Y261810D01*
X1364040Y268810D01*
X1371040Y268810D01*
X1371040Y261810D01*
X1371040Y264809D02*
X1364040Y264809D01*
X1364040Y267808D02*
X1371040Y267808D01*
X1371040Y244270D02*
X1364040Y244270D01*
X1364040Y251270D01*
X1371040Y251270D01*
X1371040Y244270D01*
X1371040Y247269D02*
X1364040Y247269D01*
X1364040Y250268D02*
X1371040Y250268D01*
D20*
X1344930Y265290D03*
X1344930Y248290D03*
D19*
X396690Y266640D02*
X389690Y266640D01*
X389690Y273640D01*
X396690Y273640D01*
X396690Y266640D01*
X396690Y269639D02*
X389690Y269639D01*
X389690Y272638D02*
X396690Y272638D01*
X396690Y249100D02*
X389690Y249100D01*
X389690Y256100D01*
X396690Y256100D01*
X396690Y249100D01*
X396690Y252099D02*
X389690Y252099D01*
X389690Y255098D02*
X396690Y255098D01*
D20*
X372110Y268850D03*
X372110Y251850D03*
D19*
X97980Y816410D02*
X97980Y823410D01*
X104980Y823410D01*
X104980Y816410D01*
X97980Y816410D01*
X97980Y819409D02*
X104980Y819409D01*
X104980Y822408D02*
X97980Y822408D01*
X80440Y823410D02*
X80440Y816410D01*
X80440Y823410D02*
X87440Y823410D01*
X87440Y816410D01*
X80440Y816410D01*
X80440Y819409D02*
X87440Y819409D01*
X87440Y822408D02*
X80440Y822408D01*
D10*
X101210Y841500D03*
X84210Y841500D03*
D19*
X220280Y1213920D02*
X220280Y1220920D01*
X220280Y1213920D02*
X213280Y1213920D01*
X213280Y1220920D01*
X220280Y1220920D01*
X220280Y1216919D02*
X213280Y1216919D01*
X213280Y1219918D02*
X220280Y1219918D01*
X237820Y1220920D02*
X237820Y1213920D01*
X230820Y1213920D01*
X230820Y1220920D01*
X237820Y1220920D01*
X237820Y1216919D02*
X230820Y1216919D01*
X230820Y1219918D02*
X237820Y1219918D01*
D10*
X272910Y1217420D03*
X255910Y1217420D03*
D19*
X220540Y1195780D02*
X220540Y1188780D01*
X213540Y1188780D01*
X213540Y1195780D01*
X220540Y1195780D01*
X220540Y1191779D02*
X213540Y1191779D01*
X213540Y1194778D02*
X220540Y1194778D01*
X238080Y1195780D02*
X238080Y1188780D01*
X231080Y1188780D01*
X231080Y1195780D01*
X238080Y1195780D01*
X238080Y1191779D02*
X231080Y1191779D01*
X231080Y1194778D02*
X238080Y1194778D01*
D10*
X272910Y1192280D03*
X255910Y1192280D03*
D19*
X220790Y1170120D02*
X220790Y1163120D01*
X213790Y1163120D01*
X213790Y1170120D01*
X220790Y1170120D01*
X220790Y1166119D02*
X213790Y1166119D01*
X213790Y1169118D02*
X220790Y1169118D01*
X238330Y1170120D02*
X238330Y1163120D01*
X231330Y1163120D01*
X231330Y1170120D01*
X238330Y1170120D01*
X238330Y1166119D02*
X231330Y1166119D01*
X231330Y1169118D02*
X238330Y1169118D01*
D10*
X273170Y1166880D03*
X256170Y1166880D03*
D19*
X220540Y1144980D02*
X220540Y1137980D01*
X213540Y1137980D01*
X213540Y1144980D01*
X220540Y1144980D01*
X220540Y1140979D02*
X213540Y1140979D01*
X213540Y1143978D02*
X220540Y1143978D01*
X238080Y1144980D02*
X238080Y1137980D01*
X231080Y1137980D01*
X231080Y1144980D01*
X238080Y1144980D01*
X238080Y1140979D02*
X231080Y1140979D01*
X231080Y1143978D02*
X238080Y1143978D01*
D10*
X273170Y1141220D03*
X256170Y1141220D03*
D19*
X220540Y1119580D02*
X220540Y1112580D01*
X213540Y1112580D01*
X213540Y1119580D01*
X220540Y1119580D01*
X220540Y1115579D02*
X213540Y1115579D01*
X213540Y1118578D02*
X220540Y1118578D01*
X238080Y1119580D02*
X238080Y1112580D01*
X231080Y1112580D01*
X231080Y1119580D01*
X238080Y1119580D01*
X238080Y1115579D02*
X231080Y1115579D01*
X231080Y1118578D02*
X238080Y1118578D01*
D10*
X272910Y1116330D03*
X255910Y1116330D03*
D19*
X220030Y1094430D02*
X220030Y1087430D01*
X213030Y1087430D01*
X213030Y1094430D01*
X220030Y1094430D01*
X220030Y1090429D02*
X213030Y1090429D01*
X213030Y1093428D02*
X220030Y1093428D01*
X237570Y1094430D02*
X237570Y1087430D01*
X230570Y1087430D01*
X230570Y1094430D01*
X237570Y1094430D01*
X237570Y1090429D02*
X230570Y1090429D01*
X230570Y1093428D02*
X237570Y1093428D01*
D10*
X272910Y1090680D03*
X255910Y1090680D03*
D20*
X277370Y1267090D03*
X277370Y1284090D03*
D10*
X273880Y1235000D03*
X256880Y1235000D03*
X768470Y227480D03*
X751470Y227480D03*
X711540Y227280D03*
X728540Y227280D03*
D20*
X1198550Y594330D03*
X1198550Y577330D03*
X977800Y597530D03*
X977800Y580530D03*
X1196340Y448330D03*
X1196340Y431330D03*
X1201600Y305680D03*
X1201600Y288680D03*
M02*
