G04 EAGLE Gerber X2 export*
%TF.Part,Single*%
%TF.FileFunction,Other,Top Silkscreen*%
%TF.FilePolarity,Positive*%
%TF.GenerationSoftware,Autodesk,EAGLE,8.7.0*%
%TF.CreationDate,2018-03-10T10:11:16Z*%
G75*
%MOMM*%
%FSLAX34Y34*%
%LPD*%
%AMOC8*
5,1,8,0,0,1.08239X$1,22.5*%
G01*
%ADD10C,0.203200*%
%ADD11C,0.254000*%
%ADD12R,2.794000X0.005075*%
%ADD13R,2.804156X0.005081*%
%ADD14R,2.814319X0.005075*%
%ADD15R,2.824481X0.005081*%
%ADD16R,2.824481X0.005075*%
%ADD17R,2.834637X0.005081*%
%ADD18R,2.844800X0.005075*%
%ADD19R,2.844800X0.005081*%
%ADD20R,0.060956X0.005075*%
%ADD21R,0.066037X0.005075*%
%ADD22R,0.060956X0.005081*%
%ADD23R,0.066037X0.005081*%
%ADD24R,0.055875X0.005081*%
%ADD25R,0.055881X0.005081*%
%ADD26R,0.060963X0.005075*%
%ADD27R,0.071119X0.005081*%
%ADD28R,0.060963X0.005081*%
%ADD29R,0.055881X0.005075*%
%ADD30R,0.055875X0.005075*%
%ADD31R,1.661156X0.005081*%
%ADD32R,2.179319X0.005075*%
%ADD33R,2.184400X0.005081*%
%ADD34R,2.194556X0.005081*%
%ADD35R,2.199638X0.005075*%
%ADD36R,2.204719X0.005081*%
%ADD37R,2.209800X0.005075*%
%ADD38R,2.214881X0.005081*%
%ADD39R,2.219956X0.005081*%
%ADD40R,2.225038X0.005075*%
%ADD41R,2.235200X0.005081*%
%ADD42R,2.189481X0.005081*%
%ADD43R,2.219963X0.005081*%
%ADD44R,2.230119X0.005075*%
%ADD45R,2.230119X0.005081*%
%ADD46R,0.076200X0.005075*%
%ADD47R,0.081275X0.005081*%
%ADD48R,0.086356X0.005075*%
%ADD49R,0.091438X0.005081*%
%ADD50R,0.096519X0.005081*%
%ADD51R,0.101600X0.005075*%
%ADD52R,0.106675X0.005081*%
%ADD53R,0.116838X0.005075*%
%ADD54R,0.121919X0.005081*%
%ADD55R,0.127000X0.005081*%
%ADD56R,0.071119X0.005075*%
%ADD57R,0.116838X0.005081*%
%ADD58R,0.106681X0.005081*%
%ADD59R,0.106681X0.005075*%
%ADD60R,0.091438X0.005075*%
%ADD61R,0.086356X0.005081*%
%ADD62R,0.076200X0.005081*%
%ADD63R,0.106675X0.005075*%
%ADD64R,0.121919X0.005075*%
%ADD65R,0.081281X0.005081*%
%ADD66R,2.214875X0.005075*%
%ADD67R,2.209800X0.005081*%
%ADD68R,2.189475X0.005081*%
%ADD69R,2.189475X0.005075*%
%ADD70R,2.179319X0.005081*%
%ADD71R,2.184400X0.005075*%
%ADD72R,2.834637X0.005075*%
%ADD73R,2.804156X0.005075*%
%ADD74R,2.794000X0.005081*%
%ADD75C,0.152400*%
%ADD76R,0.762000X0.381000*%
%ADD77C,0.076200*%
%ADD78C,0.381000*%


D10*
X17780Y183388D02*
X17780Y172720D01*
X22521Y172720D01*
X29457Y175091D02*
X29457Y183388D01*
X29458Y175091D02*
X29456Y174996D01*
X29450Y174900D01*
X29441Y174805D01*
X29427Y174711D01*
X29410Y174617D01*
X29389Y174524D01*
X29364Y174431D01*
X29336Y174340D01*
X29304Y174250D01*
X29268Y174162D01*
X29229Y174075D01*
X29186Y173989D01*
X29140Y173905D01*
X29091Y173824D01*
X29038Y173744D01*
X28982Y173667D01*
X28924Y173591D01*
X28862Y173519D01*
X28797Y173449D01*
X28729Y173381D01*
X28659Y173316D01*
X28587Y173254D01*
X28511Y173196D01*
X28434Y173140D01*
X28354Y173087D01*
X28272Y173038D01*
X28189Y172992D01*
X28103Y172949D01*
X28016Y172910D01*
X27928Y172874D01*
X27838Y172842D01*
X27747Y172814D01*
X27654Y172789D01*
X27561Y172768D01*
X27467Y172751D01*
X27373Y172737D01*
X27278Y172728D01*
X27182Y172722D01*
X27087Y172720D01*
X25901Y172720D01*
X44543Y172720D02*
X44639Y172722D01*
X44734Y172728D01*
X44829Y172737D01*
X44923Y172751D01*
X45017Y172768D01*
X45110Y172789D01*
X45203Y172814D01*
X45294Y172842D01*
X45384Y172874D01*
X45472Y172910D01*
X45559Y172949D01*
X45645Y172992D01*
X45729Y173038D01*
X45810Y173087D01*
X45890Y173140D01*
X45967Y173196D01*
X46043Y173254D01*
X46115Y173316D01*
X46185Y173381D01*
X46253Y173449D01*
X46318Y173519D01*
X46380Y173591D01*
X46438Y173667D01*
X46494Y173744D01*
X46547Y173824D01*
X46596Y173906D01*
X46642Y173989D01*
X46685Y174075D01*
X46724Y174162D01*
X46760Y174250D01*
X46792Y174340D01*
X46820Y174431D01*
X46845Y174524D01*
X46866Y174617D01*
X46883Y174711D01*
X46897Y174805D01*
X46906Y174900D01*
X46912Y174996D01*
X46914Y175091D01*
X44543Y172720D02*
X44407Y172722D01*
X44270Y172727D01*
X44134Y172737D01*
X43999Y172750D01*
X43863Y172766D01*
X43729Y172787D01*
X43594Y172811D01*
X43461Y172838D01*
X43328Y172870D01*
X43196Y172904D01*
X43065Y172943D01*
X42936Y172985D01*
X42807Y173030D01*
X42680Y173079D01*
X42554Y173132D01*
X42430Y173188D01*
X42307Y173247D01*
X42186Y173309D01*
X42066Y173375D01*
X41949Y173444D01*
X41833Y173517D01*
X41719Y173592D01*
X41608Y173670D01*
X41498Y173752D01*
X41391Y173836D01*
X41287Y173923D01*
X41184Y174013D01*
X41084Y174106D01*
X40987Y174202D01*
X41283Y181017D02*
X41285Y181112D01*
X41291Y181208D01*
X41300Y181303D01*
X41314Y181397D01*
X41331Y181491D01*
X41352Y181584D01*
X41377Y181677D01*
X41405Y181768D01*
X41437Y181858D01*
X41473Y181946D01*
X41512Y182033D01*
X41555Y182119D01*
X41601Y182203D01*
X41650Y182284D01*
X41703Y182364D01*
X41759Y182441D01*
X41817Y182517D01*
X41879Y182589D01*
X41944Y182659D01*
X42012Y182727D01*
X42082Y182792D01*
X42154Y182854D01*
X42230Y182912D01*
X42307Y182968D01*
X42387Y183021D01*
X42469Y183070D01*
X42552Y183116D01*
X42638Y183159D01*
X42725Y183198D01*
X42813Y183234D01*
X42903Y183266D01*
X42994Y183294D01*
X43087Y183319D01*
X43180Y183340D01*
X43274Y183357D01*
X43368Y183371D01*
X43463Y183380D01*
X43559Y183386D01*
X43654Y183388D01*
X43784Y183386D01*
X43914Y183380D01*
X44044Y183371D01*
X44173Y183358D01*
X44302Y183341D01*
X44430Y183320D01*
X44558Y183295D01*
X44685Y183267D01*
X44811Y183235D01*
X44936Y183199D01*
X45060Y183160D01*
X45182Y183117D01*
X45304Y183071D01*
X45424Y183020D01*
X45542Y182967D01*
X45659Y182910D01*
X45774Y182850D01*
X45888Y182786D01*
X45999Y182719D01*
X46109Y182649D01*
X46216Y182575D01*
X46321Y182499D01*
X42469Y178942D02*
X42387Y178993D01*
X42307Y179047D01*
X42229Y179103D01*
X42154Y179163D01*
X42081Y179226D01*
X42011Y179292D01*
X41944Y179360D01*
X41879Y179431D01*
X41817Y179505D01*
X41758Y179581D01*
X41702Y179659D01*
X41650Y179740D01*
X41600Y179822D01*
X41554Y179907D01*
X41512Y179993D01*
X41472Y180081D01*
X41437Y180170D01*
X41405Y180261D01*
X41376Y180353D01*
X41352Y180446D01*
X41331Y180539D01*
X41314Y180634D01*
X41300Y180729D01*
X41291Y180825D01*
X41285Y180921D01*
X41283Y181017D01*
X45729Y177166D02*
X45810Y177115D01*
X45890Y177061D01*
X45968Y177005D01*
X46043Y176945D01*
X46116Y176882D01*
X46186Y176816D01*
X46253Y176748D01*
X46318Y176677D01*
X46380Y176603D01*
X46439Y176527D01*
X46495Y176449D01*
X46547Y176368D01*
X46597Y176286D01*
X46643Y176201D01*
X46685Y176115D01*
X46725Y176027D01*
X46760Y175938D01*
X46792Y175847D01*
X46821Y175755D01*
X46845Y175662D01*
X46866Y175569D01*
X46883Y175474D01*
X46897Y175379D01*
X46906Y175283D01*
X46912Y175187D01*
X46914Y175091D01*
X45728Y177165D02*
X42469Y178943D01*
X54237Y183388D02*
X54237Y172720D01*
X51274Y183388D02*
X57201Y183388D01*
X64905Y183388D02*
X61349Y172720D01*
X68461Y172720D02*
X64905Y183388D01*
X67572Y175387D02*
X62238Y175387D01*
X73753Y172720D02*
X73753Y183388D01*
X79680Y172720D01*
X79680Y183388D01*
X85945Y183388D02*
X85945Y172720D01*
X85945Y183388D02*
X88908Y183388D01*
X89014Y183386D01*
X89119Y183380D01*
X89225Y183371D01*
X89330Y183358D01*
X89434Y183341D01*
X89538Y183320D01*
X89641Y183296D01*
X89743Y183268D01*
X89844Y183236D01*
X89943Y183201D01*
X90042Y183162D01*
X90139Y183120D01*
X90234Y183075D01*
X90328Y183026D01*
X90420Y182973D01*
X90510Y182918D01*
X90598Y182859D01*
X90684Y182797D01*
X90767Y182732D01*
X90848Y182664D01*
X90927Y182594D01*
X91003Y182520D01*
X91077Y182444D01*
X91147Y182365D01*
X91215Y182284D01*
X91280Y182201D01*
X91342Y182115D01*
X91401Y182027D01*
X91456Y181937D01*
X91509Y181845D01*
X91558Y181751D01*
X91603Y181656D01*
X91645Y181559D01*
X91684Y181460D01*
X91719Y181361D01*
X91751Y181260D01*
X91779Y181158D01*
X91803Y181055D01*
X91824Y180951D01*
X91841Y180847D01*
X91854Y180742D01*
X91863Y180636D01*
X91869Y180531D01*
X91871Y180425D01*
X91872Y180425D02*
X91872Y175683D01*
X91871Y175683D02*
X91869Y175577D01*
X91863Y175472D01*
X91854Y175366D01*
X91841Y175261D01*
X91824Y175157D01*
X91803Y175053D01*
X91779Y174950D01*
X91751Y174848D01*
X91719Y174747D01*
X91684Y174648D01*
X91645Y174549D01*
X91603Y174452D01*
X91558Y174357D01*
X91509Y174263D01*
X91456Y174171D01*
X91401Y174081D01*
X91342Y173993D01*
X91280Y173907D01*
X91215Y173824D01*
X91147Y173743D01*
X91077Y173664D01*
X91003Y173588D01*
X90927Y173514D01*
X90848Y173444D01*
X90767Y173376D01*
X90684Y173311D01*
X90598Y173249D01*
X90510Y173190D01*
X90420Y173135D01*
X90328Y173082D01*
X90234Y173033D01*
X90139Y172988D01*
X90042Y172946D01*
X89943Y172907D01*
X89844Y172872D01*
X89743Y172840D01*
X89641Y172812D01*
X89538Y172788D01*
X89434Y172767D01*
X89330Y172750D01*
X89225Y172737D01*
X89119Y172728D01*
X89014Y172722D01*
X88908Y172720D01*
X85945Y172720D01*
D11*
X256540Y165100D02*
X256540Y193040D01*
X251460Y187960D01*
X256540Y193040D02*
X261620Y187960D01*
X256540Y165100D02*
X284480Y165100D01*
X279400Y170180D01*
X284480Y165100D02*
X279400Y160020D01*
D10*
X289814Y159766D02*
X296926Y170434D01*
X289814Y170434D02*
X296926Y159766D01*
X271018Y188510D02*
X267462Y193548D01*
X271018Y188510D02*
X274574Y193548D01*
X271018Y188510D02*
X271018Y182880D01*
X246211Y169672D02*
X240284Y169672D01*
X246211Y169672D02*
X240284Y159004D01*
X246211Y159004D01*
D11*
X251460Y165100D02*
X251462Y165242D01*
X251468Y165383D01*
X251478Y165524D01*
X251492Y165665D01*
X251509Y165806D01*
X251531Y165946D01*
X251556Y166085D01*
X251586Y166224D01*
X251619Y166362D01*
X251656Y166498D01*
X251697Y166634D01*
X251742Y166768D01*
X251790Y166901D01*
X251842Y167033D01*
X251898Y167163D01*
X251957Y167292D01*
X252020Y167419D01*
X252087Y167544D01*
X252156Y167667D01*
X252230Y167788D01*
X252306Y167908D01*
X252386Y168025D01*
X252469Y168139D01*
X252556Y168251D01*
X252645Y168361D01*
X252738Y168469D01*
X252833Y168573D01*
X252931Y168675D01*
X253032Y168775D01*
X253136Y168871D01*
X253243Y168964D01*
X253352Y169055D01*
X253463Y169142D01*
X253577Y169226D01*
X253693Y169307D01*
X253812Y169385D01*
X253932Y169460D01*
X254055Y169531D01*
X254179Y169598D01*
X254306Y169662D01*
X254434Y169723D01*
X254563Y169780D01*
X254695Y169833D01*
X254827Y169883D01*
X254961Y169928D01*
X255096Y169971D01*
X255233Y170009D01*
X255370Y170043D01*
X255508Y170074D01*
X255648Y170101D01*
X255787Y170124D01*
X255928Y170143D01*
X256069Y170158D01*
X256210Y170169D01*
X256351Y170176D01*
X256493Y170180D01*
X256634Y170179D01*
X256776Y170175D01*
X256917Y170166D01*
X257058Y170153D01*
X257199Y170137D01*
X257339Y170117D01*
X257479Y170092D01*
X257618Y170064D01*
X257756Y170032D01*
X257893Y169997D01*
X258029Y169957D01*
X258164Y169914D01*
X258297Y169866D01*
X258429Y169816D01*
X258560Y169761D01*
X258689Y169703D01*
X258817Y169641D01*
X258942Y169576D01*
X259066Y169507D01*
X259188Y169435D01*
X259308Y169360D01*
X259426Y169281D01*
X259541Y169199D01*
X259654Y169113D01*
X259765Y169025D01*
X259873Y168934D01*
X259979Y168839D01*
X260082Y168742D01*
X260182Y168642D01*
X260279Y168539D01*
X260374Y168433D01*
X260465Y168325D01*
X260553Y168214D01*
X260639Y168101D01*
X260721Y167986D01*
X260800Y167868D01*
X260875Y167748D01*
X260947Y167626D01*
X261016Y167502D01*
X261081Y167377D01*
X261143Y167249D01*
X261201Y167120D01*
X261256Y166989D01*
X261306Y166857D01*
X261354Y166724D01*
X261397Y166589D01*
X261437Y166453D01*
X261472Y166316D01*
X261504Y166178D01*
X261532Y166039D01*
X261557Y165899D01*
X261577Y165759D01*
X261593Y165618D01*
X261606Y165477D01*
X261615Y165336D01*
X261619Y165194D01*
X261620Y165053D01*
X261616Y164911D01*
X261609Y164770D01*
X261598Y164629D01*
X261583Y164488D01*
X261564Y164347D01*
X261541Y164208D01*
X261514Y164068D01*
X261483Y163930D01*
X261449Y163793D01*
X261411Y163656D01*
X261368Y163521D01*
X261323Y163387D01*
X261273Y163255D01*
X261220Y163123D01*
X261163Y162994D01*
X261102Y162866D01*
X261038Y162739D01*
X260971Y162615D01*
X260900Y162492D01*
X260825Y162372D01*
X260747Y162253D01*
X260666Y162137D01*
X260582Y162023D01*
X260495Y161912D01*
X260404Y161803D01*
X260311Y161696D01*
X260215Y161592D01*
X260115Y161491D01*
X260013Y161393D01*
X259909Y161298D01*
X259801Y161205D01*
X259691Y161116D01*
X259579Y161029D01*
X259465Y160946D01*
X259348Y160866D01*
X259228Y160790D01*
X259107Y160716D01*
X258984Y160647D01*
X258859Y160580D01*
X258732Y160517D01*
X258603Y160458D01*
X258473Y160402D01*
X258341Y160350D01*
X258208Y160302D01*
X258074Y160257D01*
X257938Y160216D01*
X257802Y160179D01*
X257664Y160146D01*
X257525Y160116D01*
X257386Y160091D01*
X257246Y160069D01*
X257105Y160052D01*
X256964Y160038D01*
X256823Y160028D01*
X256682Y160022D01*
X256540Y160020D01*
X261620Y180340D02*
X261618Y180481D01*
X261612Y180622D01*
X261602Y180763D01*
X261589Y180904D01*
X261571Y181044D01*
X261549Y181183D01*
X261524Y181322D01*
X261495Y181461D01*
X261462Y181598D01*
X261425Y181734D01*
X261384Y181869D01*
X261340Y182004D01*
X261292Y182136D01*
X261240Y182268D01*
X261185Y182398D01*
X261126Y182526D01*
X261063Y182653D01*
X260997Y182777D01*
X260928Y182900D01*
X260855Y183021D01*
X260779Y183140D01*
X260699Y183257D01*
X260616Y183371D01*
X260531Y183484D01*
X260442Y183593D01*
X260350Y183701D01*
X260255Y183805D01*
X260157Y183907D01*
X260056Y184006D01*
X259953Y184103D01*
X259847Y184196D01*
X259739Y184286D01*
X259628Y184374D01*
X259515Y184458D01*
X259399Y184539D01*
X259281Y184617D01*
X259161Y184692D01*
X259039Y184763D01*
X258915Y184831D01*
X258789Y184895D01*
X258662Y184956D01*
X258533Y185013D01*
X258402Y185066D01*
X258270Y185116D01*
X258137Y185163D01*
X258002Y185205D01*
X257866Y185244D01*
X257729Y185279D01*
X257592Y185310D01*
X257453Y185337D01*
X257314Y185361D01*
X257174Y185380D01*
X257034Y185396D01*
X256893Y185408D01*
X256752Y185416D01*
X256611Y185420D01*
X256469Y185420D01*
X256328Y185416D01*
X256187Y185408D01*
X256046Y185396D01*
X255906Y185380D01*
X255766Y185361D01*
X255627Y185337D01*
X255488Y185310D01*
X255351Y185279D01*
X255214Y185244D01*
X255078Y185205D01*
X254943Y185163D01*
X254810Y185116D01*
X254678Y185066D01*
X254547Y185013D01*
X254418Y184956D01*
X254291Y184895D01*
X254165Y184831D01*
X254041Y184763D01*
X253919Y184692D01*
X253799Y184617D01*
X253681Y184539D01*
X253565Y184458D01*
X253452Y184374D01*
X253341Y184286D01*
X253233Y184196D01*
X253127Y184103D01*
X253024Y184006D01*
X252923Y183907D01*
X252825Y183805D01*
X252730Y183701D01*
X252638Y183593D01*
X252549Y183484D01*
X252464Y183371D01*
X252381Y183257D01*
X252301Y183140D01*
X252225Y183021D01*
X252152Y182900D01*
X252083Y182777D01*
X252017Y182653D01*
X251954Y182526D01*
X251895Y182398D01*
X251840Y182268D01*
X251788Y182136D01*
X251740Y182004D01*
X251696Y181869D01*
X251655Y181734D01*
X251618Y181598D01*
X251585Y181461D01*
X251556Y181322D01*
X251531Y181183D01*
X251509Y181044D01*
X251491Y180904D01*
X251478Y180763D01*
X251468Y180622D01*
X251462Y180481D01*
X251460Y180340D01*
X260350Y180340D02*
X260352Y180411D01*
X260358Y180482D01*
X260368Y180553D01*
X260382Y180623D01*
X260400Y180692D01*
X260421Y180759D01*
X260447Y180826D01*
X260476Y180891D01*
X260508Y180954D01*
X260545Y181016D01*
X260584Y181075D01*
X260627Y181132D01*
X260673Y181186D01*
X260722Y181238D01*
X260774Y181287D01*
X260828Y181333D01*
X260885Y181376D01*
X260944Y181415D01*
X261006Y181452D01*
X261069Y181484D01*
X261134Y181513D01*
X261201Y181539D01*
X261268Y181560D01*
X261337Y181578D01*
X261407Y181592D01*
X261478Y181602D01*
X261549Y181608D01*
X261620Y181610D01*
X261691Y181608D01*
X261762Y181602D01*
X261833Y181592D01*
X261903Y181578D01*
X261972Y181560D01*
X262039Y181539D01*
X262106Y181513D01*
X262171Y181484D01*
X262234Y181452D01*
X262296Y181415D01*
X262355Y181376D01*
X262412Y181333D01*
X262466Y181287D01*
X262518Y181238D01*
X262567Y181186D01*
X262613Y181132D01*
X262656Y181075D01*
X262695Y181016D01*
X262732Y180954D01*
X262764Y180891D01*
X262793Y180826D01*
X262819Y180759D01*
X262840Y180692D01*
X262858Y180623D01*
X262872Y180553D01*
X262882Y180482D01*
X262888Y180411D01*
X262890Y180340D01*
X262888Y180269D01*
X262882Y180198D01*
X262872Y180127D01*
X262858Y180057D01*
X262840Y179988D01*
X262819Y179921D01*
X262793Y179854D01*
X262764Y179789D01*
X262732Y179726D01*
X262695Y179664D01*
X262656Y179605D01*
X262613Y179548D01*
X262567Y179494D01*
X262518Y179442D01*
X262466Y179393D01*
X262412Y179347D01*
X262355Y179304D01*
X262296Y179265D01*
X262234Y179228D01*
X262171Y179196D01*
X262106Y179167D01*
X262039Y179141D01*
X261972Y179120D01*
X261903Y179102D01*
X261833Y179088D01*
X261762Y179078D01*
X261691Y179072D01*
X261620Y179070D01*
X261549Y179072D01*
X261478Y179078D01*
X261407Y179088D01*
X261337Y179102D01*
X261268Y179120D01*
X261201Y179141D01*
X261134Y179167D01*
X261069Y179196D01*
X261006Y179228D01*
X260944Y179265D01*
X260885Y179304D01*
X260828Y179347D01*
X260774Y179393D01*
X260722Y179442D01*
X260673Y179494D01*
X260627Y179548D01*
X260584Y179605D01*
X260545Y179664D01*
X260508Y179726D01*
X260476Y179789D01*
X260447Y179854D01*
X260421Y179921D01*
X260400Y179988D01*
X260382Y180057D01*
X260368Y180127D01*
X260358Y180198D01*
X260352Y180269D01*
X260350Y180340D01*
X255270Y160020D02*
X255272Y160091D01*
X255278Y160162D01*
X255288Y160233D01*
X255302Y160303D01*
X255320Y160372D01*
X255341Y160439D01*
X255367Y160506D01*
X255396Y160571D01*
X255428Y160634D01*
X255465Y160696D01*
X255504Y160755D01*
X255547Y160812D01*
X255593Y160866D01*
X255642Y160918D01*
X255694Y160967D01*
X255748Y161013D01*
X255805Y161056D01*
X255864Y161095D01*
X255926Y161132D01*
X255989Y161164D01*
X256054Y161193D01*
X256121Y161219D01*
X256188Y161240D01*
X256257Y161258D01*
X256327Y161272D01*
X256398Y161282D01*
X256469Y161288D01*
X256540Y161290D01*
X256611Y161288D01*
X256682Y161282D01*
X256753Y161272D01*
X256823Y161258D01*
X256892Y161240D01*
X256959Y161219D01*
X257026Y161193D01*
X257091Y161164D01*
X257154Y161132D01*
X257216Y161095D01*
X257275Y161056D01*
X257332Y161013D01*
X257386Y160967D01*
X257438Y160918D01*
X257487Y160866D01*
X257533Y160812D01*
X257576Y160755D01*
X257615Y160696D01*
X257652Y160634D01*
X257684Y160571D01*
X257713Y160506D01*
X257739Y160439D01*
X257760Y160372D01*
X257778Y160303D01*
X257792Y160233D01*
X257802Y160162D01*
X257808Y160091D01*
X257810Y160020D01*
X257808Y159949D01*
X257802Y159878D01*
X257792Y159807D01*
X257778Y159737D01*
X257760Y159668D01*
X257739Y159601D01*
X257713Y159534D01*
X257684Y159469D01*
X257652Y159406D01*
X257615Y159344D01*
X257576Y159285D01*
X257533Y159228D01*
X257487Y159174D01*
X257438Y159122D01*
X257386Y159073D01*
X257332Y159027D01*
X257275Y158984D01*
X257216Y158945D01*
X257154Y158908D01*
X257091Y158876D01*
X257026Y158847D01*
X256959Y158821D01*
X256892Y158800D01*
X256823Y158782D01*
X256753Y158768D01*
X256682Y158758D01*
X256611Y158752D01*
X256540Y158750D01*
X256469Y158752D01*
X256398Y158758D01*
X256327Y158768D01*
X256257Y158782D01*
X256188Y158800D01*
X256121Y158821D01*
X256054Y158847D01*
X255989Y158876D01*
X255926Y158908D01*
X255864Y158945D01*
X255805Y158984D01*
X255748Y159027D01*
X255694Y159073D01*
X255642Y159122D01*
X255593Y159174D01*
X255547Y159228D01*
X255504Y159285D01*
X255465Y159344D01*
X255428Y159406D01*
X255396Y159469D01*
X255367Y159534D01*
X255341Y159601D01*
X255320Y159668D01*
X255302Y159737D01*
X255288Y159807D01*
X255278Y159878D01*
X255272Y159949D01*
X255270Y160020D01*
X271780Y160020D02*
X271921Y160022D01*
X272062Y160028D01*
X272203Y160038D01*
X272344Y160051D01*
X272484Y160069D01*
X272623Y160091D01*
X272762Y160116D01*
X272901Y160145D01*
X273038Y160178D01*
X273174Y160215D01*
X273309Y160256D01*
X273444Y160300D01*
X273576Y160348D01*
X273708Y160400D01*
X273838Y160455D01*
X273966Y160514D01*
X274093Y160577D01*
X274217Y160643D01*
X274340Y160712D01*
X274461Y160785D01*
X274580Y160861D01*
X274697Y160941D01*
X274811Y161024D01*
X274924Y161109D01*
X275033Y161198D01*
X275141Y161290D01*
X275245Y161385D01*
X275347Y161483D01*
X275446Y161584D01*
X275543Y161687D01*
X275636Y161793D01*
X275726Y161901D01*
X275814Y162012D01*
X275898Y162125D01*
X275979Y162241D01*
X276057Y162359D01*
X276132Y162479D01*
X276203Y162601D01*
X276271Y162725D01*
X276335Y162851D01*
X276396Y162978D01*
X276453Y163107D01*
X276506Y163238D01*
X276556Y163370D01*
X276603Y163503D01*
X276645Y163638D01*
X276684Y163774D01*
X276719Y163911D01*
X276750Y164048D01*
X276777Y164187D01*
X276801Y164326D01*
X276820Y164466D01*
X276836Y164606D01*
X276848Y164747D01*
X276856Y164888D01*
X276860Y165029D01*
X276860Y165171D01*
X276856Y165312D01*
X276848Y165453D01*
X276836Y165594D01*
X276820Y165734D01*
X276801Y165874D01*
X276777Y166013D01*
X276750Y166152D01*
X276719Y166289D01*
X276684Y166426D01*
X276645Y166562D01*
X276603Y166697D01*
X276556Y166830D01*
X276506Y166962D01*
X276453Y167093D01*
X276396Y167222D01*
X276335Y167349D01*
X276271Y167475D01*
X276203Y167599D01*
X276132Y167721D01*
X276057Y167841D01*
X275979Y167959D01*
X275898Y168075D01*
X275814Y168188D01*
X275726Y168299D01*
X275636Y168407D01*
X275543Y168513D01*
X275446Y168616D01*
X275347Y168717D01*
X275245Y168815D01*
X275141Y168910D01*
X275033Y169002D01*
X274924Y169091D01*
X274811Y169176D01*
X274697Y169259D01*
X274580Y169339D01*
X274461Y169415D01*
X274340Y169488D01*
X274217Y169557D01*
X274093Y169623D01*
X273966Y169686D01*
X273838Y169745D01*
X273708Y169800D01*
X273576Y169852D01*
X273444Y169900D01*
X273309Y169944D01*
X273174Y169985D01*
X273038Y170022D01*
X272901Y170055D01*
X272762Y170084D01*
X272623Y170109D01*
X272484Y170131D01*
X272344Y170149D01*
X272203Y170162D01*
X272062Y170172D01*
X271921Y170178D01*
X271780Y170180D01*
X270510Y160020D02*
X270512Y160091D01*
X270518Y160162D01*
X270528Y160233D01*
X270542Y160303D01*
X270560Y160372D01*
X270581Y160439D01*
X270607Y160506D01*
X270636Y160571D01*
X270668Y160634D01*
X270705Y160696D01*
X270744Y160755D01*
X270787Y160812D01*
X270833Y160866D01*
X270882Y160918D01*
X270934Y160967D01*
X270988Y161013D01*
X271045Y161056D01*
X271104Y161095D01*
X271166Y161132D01*
X271229Y161164D01*
X271294Y161193D01*
X271361Y161219D01*
X271428Y161240D01*
X271497Y161258D01*
X271567Y161272D01*
X271638Y161282D01*
X271709Y161288D01*
X271780Y161290D01*
X271851Y161288D01*
X271922Y161282D01*
X271993Y161272D01*
X272063Y161258D01*
X272132Y161240D01*
X272199Y161219D01*
X272266Y161193D01*
X272331Y161164D01*
X272394Y161132D01*
X272456Y161095D01*
X272515Y161056D01*
X272572Y161013D01*
X272626Y160967D01*
X272678Y160918D01*
X272727Y160866D01*
X272773Y160812D01*
X272816Y160755D01*
X272855Y160696D01*
X272892Y160634D01*
X272924Y160571D01*
X272953Y160506D01*
X272979Y160439D01*
X273000Y160372D01*
X273018Y160303D01*
X273032Y160233D01*
X273042Y160162D01*
X273048Y160091D01*
X273050Y160020D01*
X273048Y159949D01*
X273042Y159878D01*
X273032Y159807D01*
X273018Y159737D01*
X273000Y159668D01*
X272979Y159601D01*
X272953Y159534D01*
X272924Y159469D01*
X272892Y159406D01*
X272855Y159344D01*
X272816Y159285D01*
X272773Y159228D01*
X272727Y159174D01*
X272678Y159122D01*
X272626Y159073D01*
X272572Y159027D01*
X272515Y158984D01*
X272456Y158945D01*
X272394Y158908D01*
X272331Y158876D01*
X272266Y158847D01*
X272199Y158821D01*
X272132Y158800D01*
X272063Y158782D01*
X271993Y158768D01*
X271922Y158758D01*
X271851Y158752D01*
X271780Y158750D01*
X271709Y158752D01*
X271638Y158758D01*
X271567Y158768D01*
X271497Y158782D01*
X271428Y158800D01*
X271361Y158821D01*
X271294Y158847D01*
X271229Y158876D01*
X271166Y158908D01*
X271104Y158945D01*
X271045Y158984D01*
X270988Y159027D01*
X270934Y159073D01*
X270882Y159122D01*
X270833Y159174D01*
X270787Y159228D01*
X270744Y159285D01*
X270705Y159344D01*
X270668Y159406D01*
X270636Y159469D01*
X270607Y159534D01*
X270581Y159601D01*
X270560Y159668D01*
X270542Y159737D01*
X270528Y159807D01*
X270518Y159878D01*
X270512Y159949D01*
X270510Y160020D01*
D12*
X34315Y6858D03*
D13*
X34315Y6909D03*
X34315Y6960D03*
D14*
X34315Y7010D03*
D15*
X34315Y7061D03*
D16*
X34315Y7112D03*
D17*
X34315Y7163D03*
X34315Y7214D03*
D18*
X34315Y7264D03*
D19*
X34315Y7315D03*
D20*
X20345Y7366D03*
D21*
X42164Y7366D03*
D20*
X48285Y7366D03*
D22*
X20295Y7417D03*
D23*
X42215Y7417D03*
D22*
X48336Y7417D03*
D24*
X20269Y7468D03*
D23*
X42215Y7468D03*
D25*
X48362Y7468D03*
D20*
X20244Y7518D03*
D21*
X42266Y7518D03*
D26*
X48387Y7518D03*
D25*
X20218Y7569D03*
D27*
X42291Y7569D03*
D25*
X48412Y7569D03*
D26*
X20193Y7620D03*
D21*
X42316Y7620D03*
D20*
X48438Y7620D03*
D25*
X20168Y7671D03*
D23*
X42367Y7671D03*
D24*
X48463Y7671D03*
D22*
X20142Y7722D03*
D23*
X42367Y7722D03*
D22*
X48489Y7722D03*
D20*
X20091Y7772D03*
D21*
X42418Y7772D03*
D20*
X48539Y7772D03*
D25*
X20066Y7823D03*
D23*
X42418Y7823D03*
D24*
X48565Y7823D03*
D20*
X20041Y7874D03*
D21*
X42469Y7874D03*
D20*
X48590Y7874D03*
D24*
X20015Y7925D03*
D27*
X42494Y7925D03*
D25*
X48616Y7925D03*
D22*
X19990Y7976D03*
D23*
X42520Y7976D03*
D28*
X48641Y7976D03*
D26*
X19939Y8026D03*
D21*
X42570Y8026D03*
D20*
X48692Y8026D03*
D28*
X19939Y8077D03*
D23*
X42570Y8077D03*
D22*
X48692Y8077D03*
D20*
X19888Y8128D03*
D21*
X42621Y8128D03*
D20*
X48743Y8128D03*
D24*
X19863Y8179D03*
D23*
X42621Y8179D03*
D25*
X48768Y8179D03*
D22*
X19837Y8230D03*
D23*
X42672Y8230D03*
D22*
X48793Y8230D03*
D29*
X19812Y8280D03*
D21*
X42723Y8280D03*
D30*
X48819Y8280D03*
D22*
X19787Y8331D03*
D23*
X42723Y8331D03*
D22*
X48844Y8331D03*
D20*
X19736Y8382D03*
D21*
X42774Y8382D03*
D26*
X48895Y8382D03*
D22*
X19736Y8433D03*
D23*
X42774Y8433D03*
D28*
X48895Y8433D03*
X19685Y8484D03*
D23*
X42824Y8484D03*
D22*
X48946Y8484D03*
D29*
X19660Y8534D03*
D21*
X42824Y8534D03*
D30*
X48971Y8534D03*
D22*
X19634Y8585D03*
D23*
X42875Y8585D03*
D22*
X48997Y8585D03*
D30*
X19609Y8636D03*
D21*
X42926Y8636D03*
D29*
X49022Y8636D03*
D22*
X19583Y8687D03*
D23*
X42926Y8687D03*
D22*
X49047Y8687D03*
X19533Y8738D03*
D23*
X42977Y8738D03*
D22*
X49098Y8738D03*
D30*
X19507Y8788D03*
D21*
X42977Y8788D03*
D29*
X49124Y8788D03*
D22*
X19482Y8839D03*
D23*
X43028Y8839D03*
D28*
X49149Y8839D03*
D29*
X19456Y8890D03*
D21*
X43028Y8890D03*
D29*
X49174Y8890D03*
D28*
X19431Y8941D03*
D23*
X43078Y8941D03*
D22*
X49200Y8941D03*
D25*
X19406Y8992D03*
D23*
X43129Y8992D03*
D24*
X49225Y8992D03*
D20*
X19380Y9042D03*
D21*
X43129Y9042D03*
D20*
X49251Y9042D03*
D22*
X19329Y9093D03*
D23*
X43180Y9093D03*
D22*
X49301Y9093D03*
D29*
X19304Y9144D03*
D21*
X43180Y9144D03*
D30*
X49327Y9144D03*
D22*
X19279Y9195D03*
D23*
X43231Y9195D03*
D22*
X49352Y9195D03*
D24*
X19253Y9246D03*
D23*
X43231Y9246D03*
D25*
X49378Y9246D03*
D20*
X19228Y9296D03*
D21*
X43282Y9296D03*
D26*
X49403Y9296D03*
D28*
X19177Y9347D03*
D23*
X43332Y9347D03*
D22*
X49454Y9347D03*
D26*
X19177Y9398D03*
D21*
X43332Y9398D03*
D20*
X49454Y9398D03*
D22*
X19126Y9449D03*
D23*
X43383Y9449D03*
D22*
X49505Y9449D03*
D24*
X19101Y9500D03*
D23*
X43383Y9500D03*
D25*
X49530Y9500D03*
D20*
X19075Y9550D03*
D21*
X43434Y9550D03*
D20*
X49555Y9550D03*
D25*
X19050Y9601D03*
D22*
X43459Y9601D03*
D24*
X49581Y9601D03*
D20*
X19025Y9652D03*
D21*
X43485Y9652D03*
D20*
X49606Y9652D03*
D22*
X18974Y9703D03*
D23*
X43536Y9703D03*
D28*
X49657Y9703D03*
D25*
X18948Y9754D03*
D23*
X43536Y9754D03*
D25*
X49682Y9754D03*
D26*
X18923Y9804D03*
D21*
X43586Y9804D03*
D20*
X49708Y9804D03*
D25*
X18898Y9855D03*
D23*
X43586Y9855D03*
D24*
X49733Y9855D03*
D20*
X18872Y9906D03*
D21*
X43637Y9906D03*
D20*
X49759Y9906D03*
D24*
X18847Y9957D03*
D22*
X43663Y9957D03*
D25*
X49784Y9957D03*
D22*
X18821Y10008D03*
D23*
X43688Y10008D03*
D22*
X49809Y10008D03*
D20*
X18771Y10058D03*
D21*
X43739Y10058D03*
D20*
X49860Y10058D03*
D24*
X18745Y10109D03*
D23*
X43739Y10109D03*
D25*
X49886Y10109D03*
D20*
X18720Y10160D03*
D21*
X43790Y10160D03*
D26*
X49911Y10160D03*
D25*
X18694Y10211D03*
D23*
X43790Y10211D03*
D25*
X49936Y10211D03*
D28*
X18669Y10262D03*
D23*
X43840Y10262D03*
D22*
X49962Y10262D03*
D29*
X18644Y10312D03*
D20*
X43866Y10312D03*
D30*
X49987Y10312D03*
D22*
X18618Y10363D03*
D23*
X43891Y10363D03*
D22*
X50013Y10363D03*
D20*
X18567Y10414D03*
D21*
X43942Y10414D03*
D20*
X50063Y10414D03*
D25*
X18542Y10465D03*
D23*
X43942Y10465D03*
D24*
X50089Y10465D03*
D22*
X18517Y10516D03*
D23*
X43993Y10516D03*
D22*
X50114Y10516D03*
D30*
X18491Y10566D03*
D20*
X44018Y10566D03*
D29*
X50140Y10566D03*
D22*
X18466Y10617D03*
D23*
X44044Y10617D03*
D28*
X50165Y10617D03*
D26*
X18415Y10668D03*
X44069Y10668D03*
D20*
X50216Y10668D03*
D28*
X18415Y10719D03*
D23*
X44094Y10719D03*
D22*
X50216Y10719D03*
X18364Y10770D03*
D23*
X44145Y10770D03*
D22*
X50267Y10770D03*
D30*
X18339Y10820D03*
D21*
X44145Y10820D03*
D29*
X50292Y10820D03*
D22*
X18313Y10871D03*
D23*
X44196Y10871D03*
D22*
X50317Y10871D03*
D29*
X18288Y10922D03*
D20*
X44221Y10922D03*
D30*
X50343Y10922D03*
D22*
X18263Y10973D03*
D23*
X44247Y10973D03*
D22*
X50368Y10973D03*
X18212Y11024D03*
D23*
X44298Y11024D03*
D28*
X50419Y11024D03*
D29*
X18186Y11074D03*
D21*
X44298Y11074D03*
D29*
X50444Y11074D03*
D28*
X18161Y11125D03*
D23*
X44348Y11125D03*
D22*
X50470Y11125D03*
D29*
X18136Y11176D03*
D21*
X44348Y11176D03*
D30*
X50495Y11176D03*
D22*
X18110Y11227D03*
D23*
X44399Y11227D03*
D22*
X50521Y11227D03*
D24*
X18085Y11278D03*
D22*
X44425Y11278D03*
D25*
X50546Y11278D03*
D20*
X18059Y11328D03*
D21*
X44450Y11328D03*
D20*
X50571Y11328D03*
D22*
X18009Y11379D03*
D23*
X44501Y11379D03*
D22*
X50622Y11379D03*
D30*
X17983Y11430D03*
D21*
X44501Y11430D03*
D29*
X50648Y11430D03*
D22*
X17958Y11481D03*
D23*
X44552Y11481D03*
D28*
X50673Y11481D03*
D25*
X17932Y11532D03*
D23*
X44552Y11532D03*
D25*
X50698Y11532D03*
D26*
X17907Y11582D03*
D21*
X44602Y11582D03*
D20*
X50724Y11582D03*
D25*
X17882Y11633D03*
D22*
X44628Y11633D03*
D24*
X50749Y11633D03*
D20*
X17856Y11684D03*
D21*
X44653Y11684D03*
D20*
X50775Y11684D03*
D22*
X17805Y11735D03*
D23*
X44704Y11735D03*
D22*
X50825Y11735D03*
D25*
X17780Y11786D03*
D23*
X44704Y11786D03*
D24*
X50851Y11786D03*
D20*
X17755Y11836D03*
D21*
X44755Y11836D03*
D20*
X50876Y11836D03*
D24*
X17729Y11887D03*
D22*
X44780Y11887D03*
D25*
X50902Y11887D03*
D20*
X17704Y11938D03*
D21*
X44806Y11938D03*
D26*
X50927Y11938D03*
D28*
X17653Y11989D03*
X44831Y11989D03*
D22*
X50978Y11989D03*
D28*
X17653Y12040D03*
D23*
X44856Y12040D03*
D22*
X50978Y12040D03*
D20*
X17602Y12090D03*
D21*
X44907Y12090D03*
D20*
X51029Y12090D03*
D31*
X25603Y12141D03*
D23*
X44907Y12141D03*
D25*
X51054Y12141D03*
D32*
X28143Y12192D03*
D21*
X44958Y12192D03*
D20*
X51079Y12192D03*
D33*
X28169Y12243D03*
D22*
X44983Y12243D03*
D24*
X51105Y12243D03*
D34*
X28169Y12294D03*
D23*
X45009Y12294D03*
D22*
X51130Y12294D03*
D35*
X28143Y12344D03*
D20*
X45034Y12344D03*
D26*
X51181Y12344D03*
D36*
X28169Y12395D03*
D23*
X45060Y12395D03*
D25*
X51206Y12395D03*
D37*
X28143Y12446D03*
D21*
X45110Y12446D03*
D20*
X51232Y12446D03*
D38*
X28169Y12497D03*
D23*
X45110Y12497D03*
D24*
X51257Y12497D03*
D39*
X28143Y12548D03*
D23*
X45161Y12548D03*
D22*
X51283Y12548D03*
D40*
X28169Y12598D03*
D20*
X45187Y12598D03*
D29*
X51308Y12598D03*
D41*
X28169Y12649D03*
D23*
X45212Y12649D03*
D22*
X51333Y12649D03*
D20*
X17247Y12700D03*
D30*
X39065Y12700D03*
D20*
X45237Y12700D03*
X51384Y12700D03*
D24*
X17221Y12751D03*
D22*
X39091Y12751D03*
D23*
X45263Y12751D03*
D25*
X51410Y12751D03*
D22*
X17196Y12802D03*
D25*
X39116Y12802D03*
D23*
X45314Y12802D03*
D28*
X51435Y12802D03*
D29*
X17170Y12852D03*
D20*
X39141Y12852D03*
D21*
X45314Y12852D03*
D29*
X51460Y12852D03*
D28*
X17145Y12903D03*
D24*
X39167Y12903D03*
D23*
X45364Y12903D03*
D22*
X51486Y12903D03*
D20*
X17094Y12954D03*
X39192Y12954D03*
X45390Y12954D03*
X51537Y12954D03*
D22*
X17094Y13005D03*
D28*
X39243Y13005D03*
D23*
X45415Y13005D03*
D22*
X51537Y13005D03*
X17043Y13056D03*
D25*
X39268Y13056D03*
D22*
X45441Y13056D03*
X51587Y13056D03*
D29*
X17018Y13106D03*
D20*
X39294Y13106D03*
D21*
X45466Y13106D03*
D30*
X51613Y13106D03*
D22*
X16993Y13157D03*
D24*
X39319Y13157D03*
D23*
X45517Y13157D03*
D22*
X51638Y13157D03*
D30*
X16967Y13208D03*
D20*
X39345Y13208D03*
X45542Y13208D03*
D29*
X51664Y13208D03*
D22*
X16942Y13259D03*
D25*
X39370Y13259D03*
D23*
X45568Y13259D03*
D28*
X51689Y13259D03*
X16891Y13310D03*
D22*
X39395Y13310D03*
D28*
X45593Y13310D03*
D22*
X51740Y13310D03*
D29*
X16866Y13360D03*
D20*
X39446Y13360D03*
D21*
X45618Y13360D03*
D30*
X51765Y13360D03*
D22*
X16840Y13411D03*
D25*
X39472Y13411D03*
D22*
X45644Y13411D03*
X51791Y13411D03*
D30*
X16815Y13462D03*
D26*
X39497Y13462D03*
D21*
X45669Y13462D03*
D29*
X51816Y13462D03*
D22*
X16789Y13513D03*
D25*
X39522Y13513D03*
D23*
X45720Y13513D03*
D22*
X51841Y13513D03*
D25*
X16764Y13564D03*
D22*
X39548Y13564D03*
X45745Y13564D03*
D24*
X51867Y13564D03*
D20*
X16739Y13614D03*
X39599Y13614D03*
D21*
X45771Y13614D03*
D20*
X51892Y13614D03*
D22*
X16688Y13665D03*
X39599Y13665D03*
X45796Y13665D03*
D28*
X51943Y13665D03*
D29*
X16662Y13716D03*
D20*
X39649Y13716D03*
D21*
X45822Y13716D03*
D29*
X51968Y13716D03*
D28*
X16637Y13767D03*
D24*
X39675Y13767D03*
D28*
X45847Y13767D03*
D22*
X51994Y13767D03*
D25*
X16612Y13818D03*
D22*
X39700Y13818D03*
D23*
X45872Y13818D03*
D24*
X52019Y13818D03*
D20*
X16586Y13868D03*
D29*
X39726Y13868D03*
D21*
X45923Y13868D03*
D20*
X52045Y13868D03*
D24*
X16561Y13919D03*
D28*
X39751Y13919D03*
D22*
X45949Y13919D03*
D25*
X52070Y13919D03*
D20*
X16535Y13970D03*
X39802Y13970D03*
D21*
X45974Y13970D03*
D20*
X52095Y13970D03*
D22*
X16485Y14021D03*
D24*
X39827Y14021D03*
D22*
X45999Y14021D03*
X52146Y14021D03*
D24*
X16459Y14072D03*
D22*
X39853Y14072D03*
D23*
X46025Y14072D03*
D25*
X52172Y14072D03*
D20*
X16434Y14122D03*
D29*
X39878Y14122D03*
D20*
X46050Y14122D03*
D26*
X52197Y14122D03*
D25*
X16408Y14173D03*
D22*
X39903Y14173D03*
D28*
X46101Y14173D03*
D25*
X52222Y14173D03*
D26*
X16383Y14224D03*
D30*
X39929Y14224D03*
D21*
X46126Y14224D03*
D20*
X52248Y14224D03*
D22*
X16332Y14275D03*
X39954Y14275D03*
X46152Y14275D03*
X52299Y14275D03*
X16332Y14326D03*
D28*
X40005Y14326D03*
D23*
X46177Y14326D03*
D22*
X52299Y14326D03*
D20*
X16281Y14376D03*
D29*
X40030Y14376D03*
D20*
X46203Y14376D03*
X52349Y14376D03*
D25*
X16256Y14427D03*
D22*
X40056Y14427D03*
D23*
X46228Y14427D03*
D24*
X52375Y14427D03*
D20*
X16231Y14478D03*
D30*
X40081Y14478D03*
D20*
X46253Y14478D03*
X52400Y14478D03*
D24*
X16205Y14529D03*
D22*
X40107Y14529D03*
X46304Y14529D03*
D25*
X52426Y14529D03*
D22*
X16180Y14580D03*
X40157Y14580D03*
D23*
X46330Y14580D03*
D28*
X52451Y14580D03*
D26*
X16129Y14630D03*
D20*
X40157Y14630D03*
D26*
X46355Y14630D03*
D20*
X52502Y14630D03*
D25*
X16104Y14681D03*
D22*
X40208Y14681D03*
D23*
X46380Y14681D03*
D24*
X52527Y14681D03*
D20*
X16078Y14732D03*
D29*
X40234Y14732D03*
D20*
X46406Y14732D03*
X52553Y14732D03*
D24*
X16053Y14783D03*
D28*
X40259Y14783D03*
D23*
X46431Y14783D03*
D25*
X52578Y14783D03*
D22*
X16027Y14834D03*
D25*
X40284Y14834D03*
D23*
X46482Y14834D03*
D22*
X52603Y14834D03*
D29*
X16002Y14884D03*
D20*
X40310Y14884D03*
X46507Y14884D03*
D30*
X52629Y14884D03*
D22*
X15977Y14935D03*
X40361Y14935D03*
D23*
X46533Y14935D03*
D22*
X52654Y14935D03*
D20*
X15926Y14986D03*
D29*
X40386Y14986D03*
D20*
X46558Y14986D03*
D26*
X52705Y14986D03*
D25*
X15900Y15037D03*
D22*
X40411Y15037D03*
D23*
X46584Y15037D03*
D25*
X52730Y15037D03*
D28*
X15875Y15088D03*
D24*
X40437Y15088D03*
D28*
X46609Y15088D03*
D22*
X52756Y15088D03*
D29*
X15850Y15138D03*
D20*
X40462Y15138D03*
D21*
X46634Y15138D03*
D30*
X52781Y15138D03*
D22*
X15824Y15189D03*
D25*
X40488Y15189D03*
D23*
X46685Y15189D03*
D22*
X52807Y15189D03*
D30*
X15799Y15240D03*
D26*
X40513Y15240D03*
D20*
X46711Y15240D03*
D29*
X52832Y15240D03*
D22*
X15773Y15291D03*
X40564Y15291D03*
D23*
X46736Y15291D03*
D22*
X52857Y15291D03*
X15723Y15342D03*
D24*
X40589Y15342D03*
D22*
X46761Y15342D03*
X52908Y15342D03*
D30*
X15697Y15392D03*
D20*
X40615Y15392D03*
D21*
X46787Y15392D03*
D29*
X52934Y15392D03*
D22*
X15672Y15443D03*
D25*
X40640Y15443D03*
D22*
X46812Y15443D03*
D28*
X52959Y15443D03*
D29*
X15646Y15494D03*
D20*
X40665Y15494D03*
D26*
X46863Y15494D03*
D29*
X52984Y15494D03*
D28*
X15621Y15545D03*
D24*
X40691Y15545D03*
D23*
X46888Y15545D03*
D22*
X53010Y15545D03*
X15570Y15596D03*
X40716Y15596D03*
X46914Y15596D03*
X53061Y15596D03*
D20*
X15570Y15646D03*
D26*
X40767Y15646D03*
D21*
X46939Y15646D03*
D20*
X53061Y15646D03*
D22*
X15519Y15697D03*
D25*
X40792Y15697D03*
D22*
X46965Y15697D03*
X53111Y15697D03*
D29*
X15494Y15748D03*
D20*
X40818Y15748D03*
D21*
X46990Y15748D03*
D30*
X53137Y15748D03*
D22*
X15469Y15799D03*
D24*
X40843Y15799D03*
D22*
X47015Y15799D03*
X53162Y15799D03*
D24*
X15443Y15850D03*
D22*
X40869Y15850D03*
X47066Y15850D03*
D25*
X53188Y15850D03*
D20*
X15418Y15900D03*
X40919Y15900D03*
D21*
X47092Y15900D03*
D26*
X53213Y15900D03*
D28*
X15367Y15951D03*
D22*
X40919Y15951D03*
D28*
X47117Y15951D03*
D22*
X53264Y15951D03*
D29*
X15342Y16002D03*
D20*
X40970Y16002D03*
D21*
X47142Y16002D03*
D30*
X53289Y16002D03*
D22*
X15316Y16053D03*
D25*
X40996Y16053D03*
D22*
X47168Y16053D03*
X53315Y16053D03*
D24*
X15291Y16104D03*
D28*
X41021Y16104D03*
D23*
X47193Y16104D03*
D25*
X53340Y16104D03*
D20*
X15265Y16154D03*
D29*
X41046Y16154D03*
D20*
X47219Y16154D03*
X53365Y16154D03*
D25*
X15240Y16205D03*
D22*
X41072Y16205D03*
X47269Y16205D03*
D24*
X53391Y16205D03*
D20*
X15215Y16256D03*
X41123Y16256D03*
D21*
X47295Y16256D03*
D20*
X53416Y16256D03*
D22*
X15164Y16307D03*
D25*
X41148Y16307D03*
D22*
X47320Y16307D03*
D28*
X53467Y16307D03*
D25*
X15138Y16358D03*
D22*
X41173Y16358D03*
D23*
X47346Y16358D03*
D25*
X53492Y16358D03*
D26*
X15113Y16408D03*
D30*
X41199Y16408D03*
D26*
X47371Y16408D03*
D20*
X53518Y16408D03*
D25*
X15088Y16459D03*
D22*
X41224Y16459D03*
D23*
X47396Y16459D03*
D24*
X53543Y16459D03*
D20*
X15062Y16510D03*
D29*
X41250Y16510D03*
D20*
X47422Y16510D03*
X53569Y16510D03*
D24*
X15037Y16561D03*
D28*
X41275Y16561D03*
D22*
X47473Y16561D03*
D25*
X53594Y16561D03*
D22*
X15011Y16612D03*
X41326Y16612D03*
D23*
X47498Y16612D03*
D22*
X53619Y16612D03*
D20*
X14961Y16662D03*
D30*
X41351Y16662D03*
D20*
X47523Y16662D03*
X53670Y16662D03*
D24*
X14935Y16713D03*
D22*
X41377Y16713D03*
D23*
X47549Y16713D03*
D25*
X53696Y16713D03*
D20*
X14910Y16764D03*
D29*
X41402Y16764D03*
D20*
X47574Y16764D03*
D26*
X53721Y16764D03*
D25*
X14884Y16815D03*
D22*
X41427Y16815D03*
D28*
X47625Y16815D03*
D25*
X53746Y16815D03*
D28*
X14859Y16866D03*
D24*
X41453Y16866D03*
D28*
X47625Y16866D03*
D22*
X53772Y16866D03*
D20*
X14808Y16916D03*
X41478Y16916D03*
X47676Y16916D03*
X53823Y16916D03*
D22*
X14808Y16967D03*
D28*
X41529Y16967D03*
D23*
X47701Y16967D03*
D22*
X53823Y16967D03*
D20*
X14757Y17018D03*
D29*
X41554Y17018D03*
D20*
X47727Y17018D03*
X53873Y17018D03*
D25*
X14732Y17069D03*
D22*
X41580Y17069D03*
D23*
X47752Y17069D03*
D24*
X53899Y17069D03*
D22*
X14707Y17120D03*
D24*
X41605Y17120D03*
D22*
X47777Y17120D03*
X53924Y17120D03*
D30*
X14681Y17170D03*
D20*
X41631Y17170D03*
X47828Y17170D03*
D29*
X53950Y17170D03*
D22*
X14656Y17221D03*
X41681Y17221D03*
X47828Y17221D03*
D28*
X53975Y17221D03*
D26*
X14605Y17272D03*
D20*
X41681Y17272D03*
D26*
X47879Y17272D03*
D20*
X54026Y17272D03*
D25*
X14580Y17323D03*
D22*
X41732Y17323D03*
D23*
X47904Y17323D03*
D24*
X54051Y17323D03*
D22*
X14554Y17374D03*
D25*
X41758Y17374D03*
D22*
X47930Y17374D03*
X54077Y17374D03*
D30*
X14529Y17424D03*
D26*
X41783Y17424D03*
D21*
X47955Y17424D03*
D29*
X54102Y17424D03*
D22*
X14503Y17475D03*
D25*
X41808Y17475D03*
D22*
X47981Y17475D03*
X54127Y17475D03*
D29*
X14478Y17526D03*
D32*
X31242Y17526D03*
D20*
X48031Y17526D03*
D30*
X54153Y17526D03*
D22*
X14453Y17577D03*
D42*
X31242Y17577D03*
D22*
X48031Y17577D03*
X54178Y17577D03*
X14402Y17628D03*
D42*
X31242Y17628D03*
D22*
X48082Y17628D03*
D28*
X54229Y17628D03*
D29*
X14376Y17678D03*
D35*
X31242Y17678D03*
D21*
X48108Y17678D03*
D29*
X54254Y17678D03*
D28*
X14351Y17729D03*
D36*
X31217Y17729D03*
D28*
X48133Y17729D03*
D22*
X54280Y17729D03*
D29*
X14326Y17780D03*
D37*
X31242Y17780D03*
D21*
X48158Y17780D03*
D30*
X54305Y17780D03*
D22*
X14300Y17831D03*
D38*
X31217Y17831D03*
D22*
X48184Y17831D03*
X54331Y17831D03*
X14249Y17882D03*
D43*
X31242Y17882D03*
D22*
X48235Y17882D03*
X54381Y17882D03*
D20*
X14249Y17932D03*
D44*
X31242Y17932D03*
D20*
X48235Y17932D03*
X54381Y17932D03*
D22*
X14199Y17983D03*
D45*
X31242Y17983D03*
D22*
X48285Y17983D03*
X54432Y17983D03*
D30*
X14173Y18034D03*
D20*
X20345Y18034D03*
X26492Y18034D03*
X42139Y18034D03*
D21*
X48311Y18034D03*
D29*
X54458Y18034D03*
D22*
X14148Y18085D03*
X20295Y18085D03*
D24*
X26467Y18085D03*
D25*
X42164Y18085D03*
D22*
X48336Y18085D03*
D28*
X54483Y18085D03*
D25*
X14122Y18136D03*
D24*
X20269Y18136D03*
D22*
X26441Y18136D03*
X42189Y18136D03*
D28*
X48387Y18136D03*
D25*
X54508Y18136D03*
D26*
X14097Y18186D03*
D20*
X20244Y18186D03*
D29*
X26416Y18186D03*
D30*
X42215Y18186D03*
D26*
X48387Y18186D03*
D20*
X54534Y18186D03*
D22*
X14046Y18237D03*
D25*
X20218Y18237D03*
D22*
X26391Y18237D03*
X42240Y18237D03*
X48438Y18237D03*
X54585Y18237D03*
D30*
X14021Y18288D03*
D26*
X20193Y18288D03*
D20*
X26340Y18288D03*
D26*
X42291Y18288D03*
D20*
X48438Y18288D03*
D29*
X54610Y18288D03*
D22*
X13995Y18339D03*
X20142Y18339D03*
D25*
X26314Y18339D03*
X42316Y18339D03*
D22*
X48489Y18339D03*
X54635Y18339D03*
D25*
X13970Y18390D03*
D22*
X20142Y18390D03*
D28*
X26289Y18390D03*
D22*
X42342Y18390D03*
D23*
X48514Y18390D03*
D24*
X54661Y18390D03*
D20*
X13945Y18440D03*
X20091Y18440D03*
D29*
X26264Y18440D03*
D30*
X42367Y18440D03*
D20*
X48539Y18440D03*
X54686Y18440D03*
D24*
X13919Y18491D03*
D25*
X20066Y18491D03*
D22*
X26238Y18491D03*
X42393Y18491D03*
X48590Y18491D03*
D25*
X54712Y18491D03*
D20*
X13894Y18542D03*
X20041Y18542D03*
X26187Y18542D03*
X42443Y18542D03*
X48590Y18542D03*
D26*
X54737Y18542D03*
D28*
X13843Y18593D03*
D24*
X20015Y18593D03*
D22*
X26187Y18593D03*
X42443Y18593D03*
D28*
X48641Y18593D03*
D22*
X54788Y18593D03*
D25*
X13818Y18644D03*
D22*
X19990Y18644D03*
X26137Y18644D03*
X42494Y18644D03*
D28*
X48641Y18644D03*
D24*
X54813Y18644D03*
D20*
X13792Y18694D03*
D26*
X19939Y18694D03*
D30*
X26111Y18694D03*
D29*
X42520Y18694D03*
D20*
X48692Y18694D03*
X54839Y18694D03*
D24*
X13767Y18745D03*
D28*
X19939Y18745D03*
D22*
X26086Y18745D03*
D28*
X42545Y18745D03*
D23*
X48717Y18745D03*
D25*
X54864Y18745D03*
D20*
X13741Y18796D03*
X19888Y18796D03*
D29*
X26060Y18796D03*
X42570Y18796D03*
D20*
X48743Y18796D03*
X54889Y18796D03*
D25*
X13716Y18847D03*
D24*
X19863Y18847D03*
D28*
X26035Y18847D03*
D22*
X42596Y18847D03*
X48793Y18847D03*
D24*
X54915Y18847D03*
D22*
X13691Y18898D03*
X19837Y18898D03*
X25984Y18898D03*
X42647Y18898D03*
X48793Y18898D03*
X54940Y18898D03*
D20*
X13640Y18948D03*
X19787Y18948D03*
D30*
X25959Y18948D03*
D29*
X42672Y18948D03*
D20*
X48844Y18948D03*
D26*
X54991Y18948D03*
D25*
X13614Y18999D03*
D22*
X19787Y18999D03*
X25933Y18999D03*
X42697Y18999D03*
D23*
X48870Y18999D03*
D25*
X55016Y18999D03*
D26*
X13589Y19050D03*
D20*
X19736Y19050D03*
D29*
X25908Y19050D03*
D30*
X42723Y19050D03*
D26*
X48895Y19050D03*
D20*
X55042Y19050D03*
D25*
X13564Y19101D03*
X19710Y19101D03*
D22*
X25883Y19101D03*
X42748Y19101D03*
X48946Y19101D03*
D24*
X55067Y19101D03*
D22*
X13538Y19152D03*
D28*
X19685Y19152D03*
D24*
X25857Y19152D03*
D25*
X42774Y19152D03*
D22*
X48946Y19152D03*
X55093Y19152D03*
D20*
X13487Y19202D03*
D29*
X19660Y19202D03*
D20*
X25832Y19202D03*
D26*
X42799Y19202D03*
D20*
X48997Y19202D03*
X55143Y19202D03*
D22*
X13487Y19253D03*
X19634Y19253D03*
D28*
X25781Y19253D03*
D22*
X42850Y19253D03*
X48997Y19253D03*
X55143Y19253D03*
D20*
X13437Y19304D03*
X19583Y19304D03*
D29*
X25756Y19304D03*
D30*
X42875Y19304D03*
D20*
X49047Y19304D03*
X55194Y19304D03*
D24*
X13411Y19355D03*
D22*
X19583Y19355D03*
X25730Y19355D03*
X42901Y19355D03*
D23*
X49073Y19355D03*
D25*
X55220Y19355D03*
D22*
X13386Y19406D03*
X19533Y19406D03*
D24*
X25705Y19406D03*
D25*
X42926Y19406D03*
D22*
X49098Y19406D03*
D28*
X55245Y19406D03*
D29*
X13360Y19456D03*
D30*
X19507Y19456D03*
D20*
X25679Y19456D03*
X42951Y19456D03*
D26*
X49149Y19456D03*
D29*
X55270Y19456D03*
D28*
X13335Y19507D03*
D22*
X19482Y19507D03*
X25629Y19507D03*
X43002Y19507D03*
D28*
X49149Y19507D03*
D22*
X55296Y19507D03*
D20*
X13284Y19558D03*
D29*
X19456Y19558D03*
D20*
X25629Y19558D03*
X43002Y19558D03*
X49200Y19558D03*
X55347Y19558D03*
D24*
X13259Y19609D03*
D28*
X19431Y19609D03*
D22*
X25578Y19609D03*
D28*
X43053Y19609D03*
D22*
X49200Y19609D03*
D25*
X55372Y19609D03*
D22*
X13233Y19660D03*
X19380Y19660D03*
D25*
X25552Y19660D03*
X43078Y19660D03*
D22*
X49251Y19660D03*
X55397Y19660D03*
D29*
X13208Y19710D03*
D20*
X19380Y19710D03*
D26*
X25527Y19710D03*
D20*
X43104Y19710D03*
D21*
X49276Y19710D03*
D30*
X55423Y19710D03*
D22*
X13183Y19761D03*
X19329Y19761D03*
D25*
X25502Y19761D03*
D24*
X43129Y19761D03*
D22*
X49301Y19761D03*
X55448Y19761D03*
D30*
X13157Y19812D03*
D29*
X19304Y19812D03*
D20*
X25476Y19812D03*
X43155Y19812D03*
X49352Y19812D03*
D29*
X55474Y19812D03*
D22*
X13132Y19863D03*
X19279Y19863D03*
X25425Y19863D03*
X43205Y19863D03*
X49352Y19863D03*
D28*
X55499Y19863D03*
X13081Y19914D03*
D22*
X19228Y19914D03*
D25*
X25400Y19914D03*
D24*
X43231Y19914D03*
D28*
X49403Y19914D03*
D22*
X55550Y19914D03*
D29*
X13056Y19964D03*
D20*
X19228Y19964D03*
X25375Y19964D03*
X43256Y19964D03*
D26*
X49403Y19964D03*
D30*
X55575Y19964D03*
D22*
X13030Y20015D03*
D28*
X19177Y20015D03*
D24*
X25349Y20015D03*
D25*
X43282Y20015D03*
D22*
X49454Y20015D03*
X55601Y20015D03*
D30*
X13005Y20066D03*
D26*
X19177Y20066D03*
D20*
X25324Y20066D03*
D26*
X43307Y20066D03*
D21*
X49479Y20066D03*
D29*
X55626Y20066D03*
D22*
X12979Y20117D03*
X19126Y20117D03*
D25*
X25298Y20117D03*
X43332Y20117D03*
D22*
X49505Y20117D03*
X55651Y20117D03*
D25*
X12954Y20168D03*
D24*
X19101Y20168D03*
D28*
X25273Y20168D03*
D22*
X43358Y20168D03*
X49555Y20168D03*
D24*
X55677Y20168D03*
D20*
X12929Y20218D03*
X19075Y20218D03*
X25222Y20218D03*
X43409Y20218D03*
X49555Y20218D03*
X55702Y20218D03*
D22*
X12878Y20269D03*
X19025Y20269D03*
D24*
X25197Y20269D03*
D25*
X43434Y20269D03*
D22*
X49606Y20269D03*
D28*
X55753Y20269D03*
D29*
X12852Y20320D03*
D20*
X19025Y20320D03*
X25171Y20320D03*
X43459Y20320D03*
X49606Y20320D03*
D29*
X55778Y20320D03*
D28*
X12827Y20371D03*
D22*
X18974Y20371D03*
D25*
X25146Y20371D03*
D24*
X43485Y20371D03*
D28*
X49657Y20371D03*
D22*
X55804Y20371D03*
D25*
X12802Y20422D03*
X18948Y20422D03*
D22*
X25121Y20422D03*
X43510Y20422D03*
X49708Y20422D03*
D24*
X55829Y20422D03*
D20*
X12776Y20472D03*
D26*
X18923Y20472D03*
D30*
X25095Y20472D03*
D29*
X43536Y20472D03*
D20*
X49708Y20472D03*
X55855Y20472D03*
D22*
X12725Y20523D03*
X18872Y20523D03*
X25070Y20523D03*
D28*
X43561Y20523D03*
D22*
X49759Y20523D03*
X55905Y20523D03*
D20*
X12725Y20574D03*
X18872Y20574D03*
D26*
X25019Y20574D03*
D20*
X43612Y20574D03*
X49759Y20574D03*
X55905Y20574D03*
D22*
X12675Y20625D03*
X18821Y20625D03*
D25*
X24994Y20625D03*
D24*
X43637Y20625D03*
D22*
X49809Y20625D03*
X55956Y20625D03*
D24*
X12649Y20676D03*
D22*
X18821Y20676D03*
X24968Y20676D03*
X43663Y20676D03*
X49809Y20676D03*
D25*
X55982Y20676D03*
D20*
X12624Y20726D03*
X18771Y20726D03*
D30*
X24943Y20726D03*
D29*
X43688Y20726D03*
D20*
X49860Y20726D03*
D26*
X56007Y20726D03*
D25*
X12598Y20777D03*
D24*
X18745Y20777D03*
D22*
X24917Y20777D03*
X43713Y20777D03*
D28*
X49911Y20777D03*
D25*
X56032Y20777D03*
D26*
X12573Y20828D03*
D20*
X18720Y20828D03*
X24867Y20828D03*
X43764Y20828D03*
D26*
X49911Y20828D03*
D20*
X56058Y20828D03*
D22*
X12522Y20879D03*
D28*
X18669Y20879D03*
D22*
X24867Y20879D03*
X43764Y20879D03*
X49962Y20879D03*
X56109Y20879D03*
D24*
X12497Y20930D03*
D28*
X18669Y20930D03*
D22*
X24816Y20930D03*
D28*
X43815Y20930D03*
D22*
X49962Y20930D03*
D25*
X56134Y20930D03*
D20*
X12471Y20980D03*
X18618Y20980D03*
D29*
X24790Y20980D03*
X43840Y20980D03*
D20*
X50013Y20980D03*
X56159Y20980D03*
D25*
X12446Y21031D03*
D22*
X18618Y21031D03*
D28*
X24765Y21031D03*
D22*
X43866Y21031D03*
X50013Y21031D03*
D24*
X56185Y21031D03*
D20*
X12421Y21082D03*
X18567Y21082D03*
D29*
X24740Y21082D03*
D30*
X43891Y21082D03*
D20*
X50063Y21082D03*
X56210Y21082D03*
D24*
X12395Y21133D03*
D22*
X18517Y21133D03*
X24714Y21133D03*
X43917Y21133D03*
X50114Y21133D03*
D25*
X56236Y21133D03*
D22*
X12370Y21184D03*
X18517Y21184D03*
X24663Y21184D03*
X43967Y21184D03*
X50114Y21184D03*
D28*
X56261Y21184D03*
D26*
X12319Y21234D03*
D20*
X18466Y21234D03*
D29*
X24638Y21234D03*
D30*
X43993Y21234D03*
D26*
X50165Y21234D03*
D20*
X56312Y21234D03*
D25*
X12294Y21285D03*
D22*
X18466Y21285D03*
X24613Y21285D03*
X44018Y21285D03*
D28*
X50165Y21285D03*
D24*
X56337Y21285D03*
D20*
X12268Y21336D03*
D26*
X18415Y21336D03*
D30*
X24587Y21336D03*
D29*
X44044Y21336D03*
D20*
X50216Y21336D03*
X56363Y21336D03*
D24*
X12243Y21387D03*
D28*
X18415Y21387D03*
D22*
X24562Y21387D03*
D28*
X44069Y21387D03*
D22*
X50216Y21387D03*
D25*
X56388Y21387D03*
D22*
X12217Y21438D03*
X18364Y21438D03*
D25*
X24536Y21438D03*
X44094Y21438D03*
D22*
X50267Y21438D03*
X56413Y21438D03*
D20*
X12167Y21488D03*
X18313Y21488D03*
D26*
X24511Y21488D03*
D20*
X44120Y21488D03*
X50317Y21488D03*
X56464Y21488D03*
D22*
X12167Y21539D03*
X18313Y21539D03*
X24460Y21539D03*
X44171Y21539D03*
X50317Y21539D03*
X56464Y21539D03*
D20*
X12116Y21590D03*
X18263Y21590D03*
D30*
X24435Y21590D03*
D29*
X44196Y21590D03*
D20*
X50368Y21590D03*
D26*
X56515Y21590D03*
D25*
X12090Y21641D03*
D22*
X18263Y21641D03*
X24409Y21641D03*
X44221Y21641D03*
X50368Y21641D03*
D25*
X56540Y21641D03*
D28*
X12065Y21692D03*
D22*
X18212Y21692D03*
D25*
X24384Y21692D03*
D24*
X44247Y21692D03*
D28*
X50419Y21692D03*
D22*
X56566Y21692D03*
D29*
X12040Y21742D03*
X18186Y21742D03*
D20*
X24359Y21742D03*
X44272Y21742D03*
D29*
X50444Y21742D03*
D30*
X56591Y21742D03*
D22*
X12014Y21793D03*
D28*
X18161Y21793D03*
D24*
X24333Y21793D03*
D25*
X44298Y21793D03*
D22*
X50470Y21793D03*
X56617Y21793D03*
D20*
X11963Y21844D03*
X18110Y21844D03*
X24308Y21844D03*
D26*
X44323Y21844D03*
D20*
X50521Y21844D03*
X56667Y21844D03*
D22*
X11963Y21895D03*
X18110Y21895D03*
D28*
X24257Y21895D03*
D22*
X44374Y21895D03*
X50521Y21895D03*
X56667Y21895D03*
X11913Y21946D03*
X18059Y21946D03*
D25*
X24232Y21946D03*
D24*
X44399Y21946D03*
D22*
X50571Y21946D03*
X56718Y21946D03*
D30*
X11887Y21996D03*
D20*
X18059Y21996D03*
X24206Y21996D03*
X44425Y21996D03*
X50571Y21996D03*
D29*
X56744Y21996D03*
D22*
X11862Y22047D03*
X18009Y22047D03*
D24*
X24181Y22047D03*
D25*
X44450Y22047D03*
D22*
X50622Y22047D03*
D28*
X56769Y22047D03*
D29*
X11836Y22098D03*
D20*
X17958Y22098D03*
X24155Y22098D03*
X44475Y22098D03*
D29*
X50648Y22098D03*
X56794Y22098D03*
D28*
X11811Y22149D03*
D22*
X17958Y22149D03*
X24105Y22149D03*
X44526Y22149D03*
D28*
X50673Y22149D03*
D22*
X56820Y22149D03*
X11760Y22200D03*
D28*
X17907Y22200D03*
D22*
X24105Y22200D03*
X44526Y22200D03*
X50724Y22200D03*
X56871Y22200D03*
D30*
X11735Y22250D03*
D26*
X17907Y22250D03*
D20*
X24054Y22250D03*
D26*
X44577Y22250D03*
D20*
X50724Y22250D03*
D29*
X56896Y22250D03*
D22*
X11709Y22301D03*
X17856Y22301D03*
D25*
X24028Y22301D03*
X44602Y22301D03*
D22*
X50775Y22301D03*
X56921Y22301D03*
D29*
X11684Y22352D03*
D20*
X17856Y22352D03*
D26*
X24003Y22352D03*
D20*
X44628Y22352D03*
X50775Y22352D03*
D30*
X56947Y22352D03*
D22*
X11659Y22403D03*
X17805Y22403D03*
D25*
X23978Y22403D03*
D24*
X44653Y22403D03*
D22*
X50825Y22403D03*
X56972Y22403D03*
D24*
X11633Y22454D03*
D22*
X17755Y22454D03*
X23952Y22454D03*
X44679Y22454D03*
D24*
X50851Y22454D03*
D25*
X56998Y22454D03*
D20*
X11608Y22504D03*
X17755Y22504D03*
X23901Y22504D03*
X44729Y22504D03*
X50876Y22504D03*
D26*
X57023Y22504D03*
D28*
X11557Y22555D03*
D22*
X17704Y22555D03*
D25*
X23876Y22555D03*
D24*
X44755Y22555D03*
D28*
X50927Y22555D03*
D22*
X57074Y22555D03*
D29*
X11532Y22606D03*
D20*
X17704Y22606D03*
X23851Y22606D03*
X44780Y22606D03*
D26*
X50927Y22606D03*
D30*
X57099Y22606D03*
D22*
X11506Y22657D03*
D28*
X17653Y22657D03*
D24*
X23825Y22657D03*
D25*
X44806Y22657D03*
D22*
X50978Y22657D03*
X57125Y22657D03*
D24*
X11481Y22708D03*
D23*
X17628Y22708D03*
D22*
X23800Y22708D03*
D28*
X44831Y22708D03*
D22*
X50978Y22708D03*
D25*
X57150Y22708D03*
D20*
X11455Y22758D03*
X17602Y22758D03*
D29*
X23774Y22758D03*
X44856Y22758D03*
D20*
X51029Y22758D03*
X57175Y22758D03*
D22*
X11405Y22809D03*
X17551Y22809D03*
D28*
X23749Y22809D03*
D22*
X44882Y22809D03*
D25*
X51054Y22809D03*
D22*
X57226Y22809D03*
D20*
X11405Y22860D03*
X17551Y22860D03*
X23698Y22860D03*
X44933Y22860D03*
X51079Y22860D03*
X57226Y22860D03*
D22*
X11354Y22911D03*
X17501Y22911D03*
D24*
X23673Y22911D03*
D25*
X44958Y22911D03*
D22*
X51130Y22911D03*
D28*
X57277Y22911D03*
D25*
X11328Y22962D03*
D22*
X17501Y22962D03*
X23647Y22962D03*
X44983Y22962D03*
X51130Y22962D03*
D25*
X57302Y22962D03*
D26*
X11303Y23012D03*
D20*
X17450Y23012D03*
D29*
X23622Y23012D03*
D30*
X45009Y23012D03*
D26*
X51181Y23012D03*
D20*
X57328Y23012D03*
D25*
X11278Y23063D03*
D28*
X17399Y23063D03*
D22*
X23597Y23063D03*
X45034Y23063D03*
D25*
X51206Y23063D03*
D24*
X57353Y23063D03*
D20*
X11252Y23114D03*
D26*
X17399Y23114D03*
D20*
X23546Y23114D03*
D26*
X45085Y23114D03*
D20*
X51232Y23114D03*
X57379Y23114D03*
D22*
X11201Y23165D03*
X17348Y23165D03*
X23546Y23165D03*
D28*
X45085Y23165D03*
D22*
X51283Y23165D03*
X57429Y23165D03*
D25*
X11176Y23216D03*
D22*
X17348Y23216D03*
D28*
X23495Y23216D03*
D22*
X45136Y23216D03*
X51283Y23216D03*
D24*
X57455Y23216D03*
D20*
X11151Y23266D03*
X17297Y23266D03*
D29*
X23470Y23266D03*
D30*
X45161Y23266D03*
D20*
X51333Y23266D03*
X57480Y23266D03*
D24*
X11125Y23317D03*
D23*
X17272Y23317D03*
D22*
X23444Y23317D03*
X45187Y23317D03*
X51333Y23317D03*
D25*
X57506Y23317D03*
D20*
X11100Y23368D03*
X17247Y23368D03*
D30*
X23419Y23368D03*
D29*
X45212Y23368D03*
D20*
X51384Y23368D03*
D26*
X57531Y23368D03*
D25*
X11074Y23419D03*
D22*
X17196Y23419D03*
X23393Y23419D03*
X45237Y23419D03*
D25*
X51410Y23419D03*
X57556Y23419D03*
D28*
X11049Y23470D03*
D22*
X17196Y23470D03*
X23343Y23470D03*
X45288Y23470D03*
D28*
X51435Y23470D03*
D22*
X57582Y23470D03*
D20*
X10998Y23520D03*
D26*
X17145Y23520D03*
D20*
X23343Y23520D03*
X45288Y23520D03*
X51486Y23520D03*
X57633Y23520D03*
D24*
X10973Y23571D03*
D28*
X17145Y23571D03*
D22*
X23292Y23571D03*
D28*
X45339Y23571D03*
D22*
X51486Y23571D03*
D25*
X57658Y23571D03*
D20*
X10947Y23622D03*
X17094Y23622D03*
D29*
X23266Y23622D03*
X45364Y23622D03*
D20*
X51537Y23622D03*
X57683Y23622D03*
D25*
X10922Y23673D03*
D23*
X17069Y23673D03*
D28*
X23241Y23673D03*
D22*
X45390Y23673D03*
X51537Y23673D03*
D24*
X57709Y23673D03*
D22*
X10897Y23724D03*
X17043Y23724D03*
D25*
X23216Y23724D03*
D24*
X45415Y23724D03*
D22*
X51587Y23724D03*
X57734Y23724D03*
D30*
X10871Y23774D03*
D20*
X16993Y23774D03*
X23190Y23774D03*
X45441Y23774D03*
D30*
X51613Y23774D03*
D29*
X57760Y23774D03*
D22*
X10846Y23825D03*
X16993Y23825D03*
X23139Y23825D03*
X45491Y23825D03*
X51638Y23825D03*
D28*
X57785Y23825D03*
D26*
X10795Y23876D03*
D20*
X16942Y23876D03*
D29*
X23114Y23876D03*
D30*
X45517Y23876D03*
D26*
X51689Y23876D03*
D20*
X57836Y23876D03*
D25*
X10770Y23927D03*
D22*
X16942Y23927D03*
X23089Y23927D03*
X45542Y23927D03*
D28*
X51689Y23927D03*
D24*
X57861Y23927D03*
D22*
X10744Y23978D03*
D28*
X16891Y23978D03*
D24*
X23063Y23978D03*
D25*
X45568Y23978D03*
D22*
X51740Y23978D03*
X57887Y23978D03*
D30*
X10719Y24028D03*
D20*
X16840Y24028D03*
X23038Y24028D03*
D26*
X45593Y24028D03*
D30*
X51765Y24028D03*
D29*
X57912Y24028D03*
D22*
X10693Y24079D03*
X16840Y24079D03*
D25*
X23012Y24079D03*
X45618Y24079D03*
D22*
X51791Y24079D03*
X57937Y24079D03*
D20*
X10643Y24130D03*
X16789Y24130D03*
D26*
X22987Y24130D03*
D20*
X45644Y24130D03*
D29*
X51816Y24130D03*
D20*
X57988Y24130D03*
D22*
X10643Y24181D03*
X16789Y24181D03*
X22936Y24181D03*
X45695Y24181D03*
X51841Y24181D03*
X57988Y24181D03*
X10592Y24232D03*
X16739Y24232D03*
D24*
X22911Y24232D03*
D25*
X45720Y24232D03*
D22*
X51892Y24232D03*
D28*
X58039Y24232D03*
D29*
X10566Y24282D03*
D21*
X16713Y24282D03*
D20*
X22885Y24282D03*
X45745Y24282D03*
X51892Y24282D03*
D29*
X58064Y24282D03*
D28*
X10541Y24333D03*
D22*
X16688Y24333D03*
D25*
X22860Y24333D03*
D24*
X45771Y24333D03*
D28*
X51943Y24333D03*
D22*
X58090Y24333D03*
D29*
X10516Y24384D03*
D26*
X16637Y24384D03*
D20*
X22835Y24384D03*
X45796Y24384D03*
D29*
X51968Y24384D03*
D30*
X58115Y24384D03*
D22*
X10490Y24435D03*
D28*
X16637Y24435D03*
D22*
X22784Y24435D03*
D28*
X45847Y24435D03*
D22*
X51994Y24435D03*
X58141Y24435D03*
X10439Y24486D03*
X16586Y24486D03*
X22784Y24486D03*
D28*
X45847Y24486D03*
D24*
X52019Y24486D03*
D22*
X58191Y24486D03*
D29*
X10414Y24536D03*
D20*
X16586Y24536D03*
D26*
X22733Y24536D03*
D20*
X45898Y24536D03*
X52045Y24536D03*
D30*
X58217Y24536D03*
D22*
X10389Y24587D03*
X16535Y24587D03*
D25*
X22708Y24587D03*
D24*
X45923Y24587D03*
D22*
X52095Y24587D03*
X58242Y24587D03*
D30*
X10363Y24638D03*
D21*
X16510Y24638D03*
D20*
X22682Y24638D03*
X45949Y24638D03*
X52095Y24638D03*
D29*
X58268Y24638D03*
D22*
X10338Y24689D03*
X16485Y24689D03*
D24*
X22657Y24689D03*
D25*
X45974Y24689D03*
D22*
X52146Y24689D03*
D28*
X58293Y24689D03*
D25*
X10312Y24740D03*
D22*
X16434Y24740D03*
X22631Y24740D03*
X45999Y24740D03*
D25*
X52172Y24740D03*
X58318Y24740D03*
D26*
X10287Y24790D03*
D20*
X16434Y24790D03*
X22581Y24790D03*
X46050Y24790D03*
D26*
X52197Y24790D03*
D20*
X58344Y24790D03*
D22*
X10236Y24841D03*
D28*
X16383Y24841D03*
D24*
X22555Y24841D03*
D25*
X46076Y24841D03*
X52222Y24841D03*
D22*
X58395Y24841D03*
D30*
X10211Y24892D03*
D21*
X16358Y24892D03*
D20*
X22530Y24892D03*
D26*
X46101Y24892D03*
D20*
X52248Y24892D03*
D29*
X58420Y24892D03*
D22*
X10185Y24943D03*
X16332Y24943D03*
D25*
X22504Y24943D03*
X46126Y24943D03*
D22*
X52299Y24943D03*
X58445Y24943D03*
D25*
X10160Y24994D03*
D23*
X16307Y24994D03*
D28*
X22479Y24994D03*
D22*
X46152Y24994D03*
X52299Y24994D03*
D24*
X58471Y24994D03*
D20*
X10135Y25044D03*
X16281Y25044D03*
D29*
X22454Y25044D03*
D30*
X46177Y25044D03*
D20*
X52349Y25044D03*
X58496Y25044D03*
D24*
X10109Y25095D03*
D22*
X16231Y25095D03*
X22428Y25095D03*
X46203Y25095D03*
D24*
X52375Y25095D03*
D25*
X58522Y25095D03*
D20*
X10084Y25146D03*
X16231Y25146D03*
X22377Y25146D03*
X46253Y25146D03*
X52400Y25146D03*
D26*
X58547Y25146D03*
D28*
X10033Y25197D03*
D22*
X16180Y25197D03*
D25*
X22352Y25197D03*
D24*
X46279Y25197D03*
D25*
X52426Y25197D03*
D22*
X58598Y25197D03*
D25*
X10008Y25248D03*
D23*
X16154Y25248D03*
D22*
X22327Y25248D03*
X46304Y25248D03*
D28*
X52451Y25248D03*
D24*
X58623Y25248D03*
D20*
X9982Y25298D03*
D26*
X16129Y25298D03*
D30*
X22301Y25298D03*
D29*
X46330Y25298D03*
D20*
X52502Y25298D03*
X58649Y25298D03*
D24*
X9957Y25349D03*
D22*
X16078Y25349D03*
X22276Y25349D03*
D28*
X46355Y25349D03*
D24*
X52527Y25349D03*
D25*
X58674Y25349D03*
D20*
X9931Y25400D03*
X16078Y25400D03*
D29*
X22250Y25400D03*
X46380Y25400D03*
D20*
X52553Y25400D03*
X58699Y25400D03*
D22*
X9881Y25451D03*
X16027Y25451D03*
D28*
X22225Y25451D03*
D22*
X46406Y25451D03*
D25*
X52578Y25451D03*
D22*
X58750Y25451D03*
X9881Y25502D03*
D23*
X16002Y25502D03*
D22*
X22174Y25502D03*
X46457Y25502D03*
X52603Y25502D03*
X58750Y25502D03*
D20*
X9830Y25552D03*
X15977Y25552D03*
D30*
X22149Y25552D03*
D29*
X46482Y25552D03*
D30*
X52629Y25552D03*
D26*
X58801Y25552D03*
D25*
X9804Y25603D03*
D23*
X15951Y25603D03*
D22*
X22123Y25603D03*
X46507Y25603D03*
X52654Y25603D03*
D25*
X58826Y25603D03*
D26*
X9779Y25654D03*
D20*
X15926Y25654D03*
D29*
X22098Y25654D03*
D30*
X46533Y25654D03*
D26*
X52705Y25654D03*
D20*
X58852Y25654D03*
D25*
X9754Y25705D03*
D28*
X15875Y25705D03*
D22*
X22073Y25705D03*
X46558Y25705D03*
D28*
X52705Y25705D03*
D22*
X58852Y25705D03*
X9728Y25756D03*
D28*
X15875Y25756D03*
D22*
X22022Y25756D03*
D28*
X46609Y25756D03*
D22*
X52654Y25756D03*
D23*
X58877Y25756D03*
D20*
X9677Y25806D03*
X15824Y25806D03*
X22022Y25806D03*
D26*
X46609Y25806D03*
D30*
X52629Y25806D03*
D46*
X58877Y25806D03*
D25*
X9652Y25857D03*
D23*
X15799Y25857D03*
D28*
X21971Y25857D03*
D22*
X46660Y25857D03*
X52603Y25857D03*
D47*
X58852Y25857D03*
D20*
X9627Y25908D03*
X15773Y25908D03*
D29*
X21946Y25908D03*
D30*
X46685Y25908D03*
D29*
X52578Y25908D03*
D48*
X58877Y25908D03*
D24*
X9601Y25959D03*
D23*
X15748Y25959D03*
D22*
X21920Y25959D03*
X46711Y25959D03*
X52553Y25959D03*
D49*
X58852Y25959D03*
D22*
X9576Y26010D03*
X15723Y26010D03*
D24*
X21895Y26010D03*
D25*
X46736Y26010D03*
D24*
X52527Y26010D03*
D50*
X58877Y26010D03*
D29*
X9550Y26060D03*
D20*
X15672Y26060D03*
X21869Y26060D03*
X46761Y26060D03*
X52502Y26060D03*
D51*
X58852Y26060D03*
D28*
X9525Y26111D03*
D22*
X15672Y26111D03*
X21819Y26111D03*
X46812Y26111D03*
D28*
X52451Y26111D03*
D52*
X58877Y26111D03*
D20*
X9474Y26162D03*
D26*
X15621Y26162D03*
D30*
X21793Y26162D03*
D29*
X46838Y26162D03*
X52426Y26162D03*
D53*
X58877Y26162D03*
D24*
X9449Y26213D03*
D23*
X15596Y26213D03*
D22*
X21768Y26213D03*
D28*
X46863Y26213D03*
D22*
X52400Y26213D03*
D54*
X58852Y26213D03*
D22*
X9423Y26264D03*
X15570Y26264D03*
D25*
X21742Y26264D03*
X46888Y26264D03*
D24*
X52375Y26264D03*
D55*
X58877Y26264D03*
D29*
X9398Y26314D03*
D21*
X15545Y26314D03*
D26*
X21717Y26314D03*
D20*
X46914Y26314D03*
X52349Y26314D03*
D21*
X58522Y26314D03*
D30*
X59233Y26314D03*
D22*
X9373Y26365D03*
X15519Y26365D03*
D25*
X21692Y26365D03*
D24*
X46939Y26365D03*
D22*
X52299Y26365D03*
D23*
X58522Y26365D03*
D22*
X59258Y26365D03*
D20*
X9322Y26416D03*
X15469Y26416D03*
X21666Y26416D03*
X46965Y26416D03*
X52299Y26416D03*
D21*
X58471Y26416D03*
D26*
X59309Y26416D03*
D22*
X9322Y26467D03*
D23*
X15443Y26467D03*
D22*
X21615Y26467D03*
X47015Y26467D03*
X52248Y26467D03*
D23*
X58471Y26467D03*
D28*
X59309Y26467D03*
X9271Y26518D03*
D22*
X15418Y26518D03*
D25*
X21590Y26518D03*
D24*
X47041Y26518D03*
D25*
X52222Y26518D03*
D23*
X58420Y26518D03*
D22*
X59360Y26518D03*
D29*
X9246Y26568D03*
D21*
X15392Y26568D03*
D20*
X21565Y26568D03*
X47066Y26568D03*
D26*
X52197Y26568D03*
D21*
X58369Y26568D03*
D30*
X59385Y26568D03*
D22*
X9220Y26619D03*
D28*
X15367Y26619D03*
D24*
X21539Y26619D03*
D25*
X47092Y26619D03*
X52172Y26619D03*
D23*
X58369Y26619D03*
D22*
X59411Y26619D03*
D30*
X9195Y26670D03*
D20*
X15316Y26670D03*
X21514Y26670D03*
D26*
X47117Y26670D03*
D20*
X52146Y26670D03*
D21*
X58318Y26670D03*
D29*
X59436Y26670D03*
D22*
X9169Y26721D03*
X15316Y26721D03*
D25*
X21488Y26721D03*
X47142Y26721D03*
D22*
X52095Y26721D03*
D23*
X58318Y26721D03*
D22*
X59461Y26721D03*
X9119Y26772D03*
X15265Y26772D03*
D28*
X21463Y26772D03*
D22*
X47168Y26772D03*
D25*
X52070Y26772D03*
D23*
X58268Y26772D03*
D22*
X59512Y26772D03*
D20*
X9119Y26822D03*
D21*
X15240Y26822D03*
D20*
X21412Y26822D03*
X47219Y26822D03*
X52045Y26822D03*
D21*
X58268Y26822D03*
D20*
X59512Y26822D03*
D22*
X9068Y26873D03*
X15215Y26873D03*
D24*
X21387Y26873D03*
D25*
X47244Y26873D03*
D24*
X52019Y26873D03*
D23*
X58217Y26873D03*
D28*
X59563Y26873D03*
D29*
X9042Y26924D03*
D21*
X15189Y26924D03*
D20*
X21361Y26924D03*
X47269Y26924D03*
X51994Y26924D03*
D21*
X58166Y26924D03*
D29*
X59588Y26924D03*
D28*
X9017Y26975D03*
D22*
X15164Y26975D03*
D25*
X21336Y26975D03*
D24*
X47295Y26975D03*
D25*
X51968Y26975D03*
D23*
X58166Y26975D03*
D22*
X59614Y26975D03*
D25*
X8992Y27026D03*
D28*
X15113Y27026D03*
D22*
X21311Y27026D03*
X47320Y27026D03*
D28*
X51943Y27026D03*
D23*
X58115Y27026D03*
D24*
X59639Y27026D03*
D20*
X8966Y27076D03*
D21*
X15088Y27076D03*
D20*
X21260Y27076D03*
D26*
X47371Y27076D03*
D20*
X51892Y27076D03*
D21*
X58115Y27076D03*
D20*
X59665Y27076D03*
D22*
X8915Y27127D03*
X15062Y27127D03*
X21260Y27127D03*
D28*
X47371Y27127D03*
D24*
X51867Y27127D03*
D23*
X58064Y27127D03*
D22*
X59715Y27127D03*
D29*
X8890Y27178D03*
D21*
X15037Y27178D03*
D26*
X21209Y27178D03*
D20*
X47422Y27178D03*
X51841Y27178D03*
D56*
X58039Y27178D03*
D30*
X59741Y27178D03*
D22*
X8865Y27229D03*
X15011Y27229D03*
D25*
X21184Y27229D03*
D24*
X47447Y27229D03*
D25*
X51816Y27229D03*
D23*
X58014Y27229D03*
D22*
X59766Y27229D03*
D24*
X8839Y27280D03*
D23*
X14986Y27280D03*
D22*
X21158Y27280D03*
X47473Y27280D03*
X51791Y27280D03*
D23*
X57963Y27280D03*
D25*
X59792Y27280D03*
D20*
X8814Y27330D03*
X14961Y27330D03*
D30*
X21133Y27330D03*
D29*
X47498Y27330D03*
D30*
X51765Y27330D03*
D21*
X57963Y27330D03*
D26*
X59817Y27330D03*
D25*
X8788Y27381D03*
D22*
X14910Y27381D03*
X21107Y27381D03*
X47523Y27381D03*
X51740Y27381D03*
D23*
X57912Y27381D03*
D25*
X59842Y27381D03*
D26*
X8763Y27432D03*
D21*
X14884Y27432D03*
D20*
X21057Y27432D03*
X47574Y27432D03*
D26*
X51689Y27432D03*
D21*
X57912Y27432D03*
D20*
X59868Y27432D03*
D22*
X8712Y27483D03*
D28*
X14859Y27483D03*
D24*
X21031Y27483D03*
D25*
X47600Y27483D03*
X51664Y27483D03*
D23*
X57861Y27483D03*
D22*
X59919Y27483D03*
D24*
X8687Y27534D03*
D23*
X14834Y27534D03*
D22*
X21006Y27534D03*
D28*
X47625Y27534D03*
D22*
X51638Y27534D03*
D23*
X57810Y27534D03*
D25*
X59944Y27534D03*
D20*
X8661Y27584D03*
X14808Y27584D03*
D29*
X20980Y27584D03*
X47650Y27584D03*
D30*
X51613Y27584D03*
D21*
X57810Y27584D03*
D20*
X59969Y27584D03*
D25*
X8636Y27635D03*
D23*
X14783Y27635D03*
D28*
X20955Y27635D03*
D22*
X47676Y27635D03*
X51587Y27635D03*
D23*
X57760Y27635D03*
D24*
X59995Y27635D03*
D20*
X8611Y27686D03*
D21*
X14732Y27686D03*
D29*
X20930Y27686D03*
D30*
X47701Y27686D03*
D20*
X51537Y27686D03*
D21*
X57760Y27686D03*
D20*
X60020Y27686D03*
D22*
X8560Y27737D03*
X14707Y27737D03*
X20904Y27737D03*
X47727Y27737D03*
X51537Y27737D03*
D23*
X57709Y27737D03*
D28*
X60071Y27737D03*
D22*
X8560Y27788D03*
D23*
X14681Y27788D03*
D22*
X20853Y27788D03*
X47777Y27788D03*
X51486Y27788D03*
D23*
X57709Y27788D03*
D28*
X60071Y27788D03*
D26*
X8509Y27838D03*
D20*
X14656Y27838D03*
D29*
X20828Y27838D03*
D30*
X47803Y27838D03*
D29*
X51460Y27838D03*
D21*
X57658Y27838D03*
D20*
X60122Y27838D03*
D25*
X8484Y27889D03*
D23*
X14630Y27889D03*
D22*
X20803Y27889D03*
X47828Y27889D03*
D28*
X51435Y27889D03*
D23*
X57607Y27889D03*
D24*
X60147Y27889D03*
D20*
X8458Y27940D03*
D26*
X14605Y27940D03*
D30*
X20777Y27940D03*
D29*
X47854Y27940D03*
X51410Y27940D03*
D21*
X57607Y27940D03*
D20*
X60173Y27940D03*
D24*
X8433Y27991D03*
D22*
X14554Y27991D03*
X20752Y27991D03*
D28*
X47879Y27991D03*
D22*
X51384Y27991D03*
D23*
X57556Y27991D03*
D25*
X60198Y27991D03*
D22*
X8407Y28042D03*
D23*
X14529Y28042D03*
D28*
X20701Y28042D03*
D22*
X47930Y28042D03*
X51333Y28042D03*
D23*
X57556Y28042D03*
D22*
X60223Y28042D03*
D20*
X8357Y28092D03*
X14503Y28092D03*
D26*
X20701Y28092D03*
D20*
X47930Y28092D03*
D29*
X51308Y28092D03*
D21*
X57506Y28092D03*
D20*
X60274Y28092D03*
D24*
X8331Y28143D03*
D23*
X14478Y28143D03*
D22*
X20650Y28143D03*
X47981Y28143D03*
X51283Y28143D03*
X57480Y28143D03*
D25*
X60300Y28143D03*
D20*
X8306Y28194D03*
X14453Y28194D03*
D30*
X20625Y28194D03*
D29*
X48006Y28194D03*
D30*
X51257Y28194D03*
D21*
X57455Y28194D03*
D26*
X60325Y28194D03*
D25*
X8280Y28245D03*
D23*
X14427Y28245D03*
D22*
X20599Y28245D03*
X48031Y28245D03*
X51232Y28245D03*
D23*
X57404Y28245D03*
D25*
X60350Y28245D03*
D28*
X8255Y28296D03*
D22*
X14402Y28296D03*
D25*
X20574Y28296D03*
D24*
X48057Y28296D03*
D25*
X51206Y28296D03*
D23*
X57404Y28296D03*
D22*
X60376Y28296D03*
D29*
X8230Y28346D03*
D26*
X14351Y28346D03*
D20*
X20549Y28346D03*
X48082Y28346D03*
D26*
X51181Y28346D03*
D21*
X57353Y28346D03*
D30*
X60401Y28346D03*
D22*
X8204Y28397D03*
D23*
X14326Y28397D03*
D22*
X20498Y28397D03*
D28*
X48133Y28397D03*
D22*
X51130Y28397D03*
D23*
X57353Y28397D03*
D22*
X60427Y28397D03*
D20*
X8153Y28448D03*
X14300Y28448D03*
X20498Y28448D03*
D26*
X48133Y28448D03*
D30*
X51105Y28448D03*
D21*
X57302Y28448D03*
D20*
X60477Y28448D03*
D25*
X8128Y28499D03*
D23*
X14275Y28499D03*
D28*
X20447Y28499D03*
D22*
X48184Y28499D03*
X51079Y28499D03*
D23*
X57252Y28499D03*
D24*
X60503Y28499D03*
D22*
X8103Y28550D03*
X14249Y28550D03*
D25*
X20422Y28550D03*
D24*
X48209Y28550D03*
D25*
X51054Y28550D03*
D23*
X57252Y28550D03*
D22*
X60528Y28550D03*
D30*
X8077Y28600D03*
D21*
X14224Y28600D03*
D20*
X20396Y28600D03*
X48235Y28600D03*
X51029Y28600D03*
D21*
X57201Y28600D03*
D29*
X60554Y28600D03*
D22*
X8052Y28651D03*
D23*
X14173Y28651D03*
D24*
X20371Y28651D03*
D25*
X48260Y28651D03*
D22*
X50978Y28651D03*
D23*
X57201Y28651D03*
D28*
X60579Y28651D03*
D29*
X8026Y28702D03*
D20*
X14148Y28702D03*
X20345Y28702D03*
X48285Y28702D03*
X50978Y28702D03*
D21*
X57150Y28702D03*
D29*
X60604Y28702D03*
D28*
X8001Y28753D03*
D23*
X14122Y28753D03*
D22*
X20295Y28753D03*
X48336Y28753D03*
D28*
X50927Y28753D03*
D22*
X57125Y28753D03*
X60630Y28753D03*
X7950Y28804D03*
D28*
X14097Y28804D03*
D24*
X20269Y28804D03*
D25*
X48362Y28804D03*
X50902Y28804D03*
D23*
X57099Y28804D03*
D22*
X60681Y28804D03*
D30*
X7925Y28854D03*
D21*
X14072Y28854D03*
D20*
X20244Y28854D03*
D26*
X48387Y28854D03*
D20*
X50876Y28854D03*
D21*
X57048Y28854D03*
D29*
X60706Y28854D03*
D22*
X7899Y28905D03*
X14046Y28905D03*
D25*
X20218Y28905D03*
X48412Y28905D03*
D24*
X50851Y28905D03*
D23*
X57048Y28905D03*
D22*
X60731Y28905D03*
D29*
X7874Y28956D03*
D20*
X13995Y28956D03*
D26*
X20193Y28956D03*
D20*
X48438Y28956D03*
X50825Y28956D03*
D21*
X56998Y28956D03*
D30*
X60757Y28956D03*
D22*
X7849Y29007D03*
D23*
X13970Y29007D03*
D25*
X20168Y29007D03*
D24*
X48463Y29007D03*
D22*
X50775Y29007D03*
D23*
X56998Y29007D03*
D22*
X60782Y29007D03*
X7798Y29058D03*
X13945Y29058D03*
X20142Y29058D03*
X48489Y29058D03*
X50775Y29058D03*
D23*
X56947Y29058D03*
D28*
X60833Y29058D03*
D20*
X7798Y29108D03*
D21*
X13919Y29108D03*
D20*
X20091Y29108D03*
X48539Y29108D03*
X50724Y29108D03*
X56921Y29108D03*
D26*
X60833Y29108D03*
D28*
X7747Y29159D03*
D22*
X13894Y29159D03*
D25*
X20066Y29159D03*
D24*
X48565Y29159D03*
D25*
X50698Y29159D03*
D23*
X56896Y29159D03*
D22*
X60884Y29159D03*
D29*
X7722Y29210D03*
D21*
X13868Y29210D03*
D20*
X20041Y29210D03*
X48590Y29210D03*
D26*
X50673Y29210D03*
D21*
X56845Y29210D03*
D30*
X60909Y29210D03*
D22*
X7696Y29261D03*
D23*
X13818Y29261D03*
D24*
X20015Y29261D03*
D25*
X48616Y29261D03*
X50648Y29261D03*
D23*
X56845Y29261D03*
D22*
X60935Y29261D03*
D24*
X7671Y29312D03*
D22*
X13792Y29312D03*
X19990Y29312D03*
D28*
X48641Y29312D03*
D22*
X50622Y29312D03*
D23*
X56794Y29312D03*
D25*
X60960Y29312D03*
D20*
X7645Y29362D03*
D21*
X13767Y29362D03*
D26*
X19939Y29362D03*
D20*
X48692Y29362D03*
X50571Y29362D03*
D21*
X56794Y29362D03*
D20*
X60985Y29362D03*
D22*
X7595Y29413D03*
X13741Y29413D03*
D28*
X19939Y29413D03*
D22*
X48692Y29413D03*
D25*
X50546Y29413D03*
D23*
X56744Y29413D03*
D22*
X61036Y29413D03*
D30*
X7569Y29464D03*
D21*
X13716Y29464D03*
D20*
X19888Y29464D03*
X48743Y29464D03*
X50521Y29464D03*
D21*
X56693Y29464D03*
D29*
X61062Y29464D03*
D22*
X7544Y29515D03*
X13691Y29515D03*
D24*
X19863Y29515D03*
D25*
X48768Y29515D03*
D24*
X50495Y29515D03*
D23*
X56693Y29515D03*
D28*
X61087Y29515D03*
D25*
X7518Y29566D03*
D23*
X13665Y29566D03*
D22*
X19837Y29566D03*
X48793Y29566D03*
X50470Y29566D03*
D23*
X56642Y29566D03*
D25*
X61112Y29566D03*
D26*
X7493Y29616D03*
D21*
X13614Y29616D03*
D29*
X19812Y29616D03*
D30*
X48819Y29616D03*
D29*
X50444Y29616D03*
D21*
X56642Y29616D03*
D20*
X61138Y29616D03*
D25*
X7468Y29667D03*
D28*
X13589Y29667D03*
D22*
X19787Y29667D03*
X48844Y29667D03*
D28*
X50419Y29667D03*
D23*
X56591Y29667D03*
D24*
X61163Y29667D03*
D20*
X7442Y29718D03*
D21*
X13564Y29718D03*
D20*
X19736Y29718D03*
D26*
X48895Y29718D03*
D20*
X50368Y29718D03*
X56566Y29718D03*
X61189Y29718D03*
D22*
X7391Y29769D03*
X13538Y29769D03*
D25*
X19710Y29769D03*
X48920Y29769D03*
D24*
X50343Y29769D03*
D23*
X56540Y29769D03*
D22*
X61239Y29769D03*
D25*
X7366Y29820D03*
D23*
X13513Y29820D03*
D28*
X19685Y29820D03*
D22*
X48946Y29820D03*
X50317Y29820D03*
D23*
X56490Y29820D03*
D24*
X61265Y29820D03*
D20*
X7341Y29870D03*
D21*
X13462Y29870D03*
D29*
X19660Y29870D03*
D30*
X48971Y29870D03*
D29*
X50292Y29870D03*
D21*
X56490Y29870D03*
D20*
X61290Y29870D03*
D24*
X7315Y29921D03*
D23*
X13462Y29921D03*
D22*
X19634Y29921D03*
X48997Y29921D03*
X50267Y29921D03*
D23*
X56439Y29921D03*
D25*
X61316Y29921D03*
D20*
X7290Y29972D03*
D21*
X13411Y29972D03*
D30*
X19609Y29972D03*
D29*
X49022Y29972D03*
D20*
X50216Y29972D03*
D21*
X56439Y29972D03*
D26*
X61341Y29972D03*
D25*
X7264Y30023D03*
D22*
X13386Y30023D03*
X19583Y30023D03*
X49047Y30023D03*
X50216Y30023D03*
D23*
X56388Y30023D03*
D25*
X61366Y30023D03*
D28*
X7239Y30074D03*
D23*
X13360Y30074D03*
D22*
X19533Y30074D03*
X49098Y30074D03*
D28*
X50165Y30074D03*
D22*
X56363Y30074D03*
X61392Y30074D03*
D20*
X7188Y30124D03*
D26*
X13335Y30124D03*
D30*
X19507Y30124D03*
D29*
X49124Y30124D03*
X50140Y30124D03*
D21*
X56337Y30124D03*
D20*
X61443Y30124D03*
D24*
X7163Y30175D03*
D23*
X13310Y30175D03*
D22*
X19482Y30175D03*
D28*
X49149Y30175D03*
D22*
X50114Y30175D03*
D23*
X56286Y30175D03*
D25*
X61468Y30175D03*
D20*
X7137Y30226D03*
D21*
X13259Y30226D03*
D29*
X19456Y30226D03*
X49174Y30226D03*
D30*
X50089Y30226D03*
D21*
X56286Y30226D03*
D20*
X61493Y30226D03*
D25*
X7112Y30277D03*
D22*
X13233Y30277D03*
D28*
X19431Y30277D03*
D22*
X49200Y30277D03*
X50063Y30277D03*
D23*
X56236Y30277D03*
D24*
X61519Y30277D03*
D22*
X7087Y30328D03*
D23*
X13208Y30328D03*
D25*
X19406Y30328D03*
D24*
X49225Y30328D03*
D22*
X50013Y30328D03*
X56210Y30328D03*
X61544Y30328D03*
D20*
X7036Y30378D03*
X13183Y30378D03*
X19380Y30378D03*
X49251Y30378D03*
D30*
X49987Y30378D03*
D21*
X56185Y30378D03*
D26*
X61595Y30378D03*
D22*
X7036Y30429D03*
D23*
X13157Y30429D03*
D22*
X19329Y30429D03*
X49301Y30429D03*
X49962Y30429D03*
X56159Y30429D03*
D28*
X61595Y30429D03*
D26*
X6985Y30480D03*
D21*
X13106Y30480D03*
D29*
X19304Y30480D03*
D53*
X49632Y30480D03*
D21*
X56134Y30480D03*
D20*
X61646Y30480D03*
D25*
X6960Y30531D03*
D23*
X13106Y30531D03*
D22*
X19279Y30531D03*
D57*
X49632Y30531D03*
D23*
X56083Y30531D03*
D24*
X61671Y30531D03*
D22*
X6934Y30582D03*
D23*
X13056Y30582D03*
D24*
X19253Y30582D03*
D58*
X49632Y30582D03*
D23*
X56083Y30582D03*
D22*
X61697Y30582D03*
D30*
X6909Y30632D03*
D20*
X13030Y30632D03*
X19228Y30632D03*
D59*
X49632Y30632D03*
D21*
X56032Y30632D03*
D29*
X61722Y30632D03*
D22*
X6883Y30683D03*
D23*
X13005Y30683D03*
D28*
X19177Y30683D03*
D50*
X49632Y30683D03*
D28*
X56007Y30683D03*
D22*
X61747Y30683D03*
D20*
X6833Y30734D03*
X12979Y30734D03*
D26*
X19177Y30734D03*
D60*
X49606Y30734D03*
D21*
X55982Y30734D03*
D20*
X61798Y30734D03*
D24*
X6807Y30785D03*
D23*
X12954Y30785D03*
D22*
X19126Y30785D03*
D61*
X49632Y30785D03*
D23*
X55931Y30785D03*
D25*
X61824Y30785D03*
D22*
X6782Y30836D03*
D23*
X12903Y30836D03*
D24*
X19101Y30836D03*
D62*
X49632Y30836D03*
D23*
X55931Y30836D03*
D28*
X61849Y30836D03*
D29*
X6756Y30886D03*
D21*
X12903Y30886D03*
D20*
X19075Y30886D03*
D46*
X49632Y30886D03*
D21*
X55880Y30886D03*
D29*
X61874Y30886D03*
D28*
X6731Y30937D03*
D23*
X12852Y30937D03*
D25*
X19050Y30937D03*
D23*
X49632Y30937D03*
D22*
X55855Y30937D03*
X61900Y30937D03*
D29*
X6706Y30988D03*
D26*
X12827Y30988D03*
D20*
X19025Y30988D03*
D21*
X49632Y30988D03*
X55829Y30988D03*
D30*
X61925Y30988D03*
D25*
X6706Y31039D03*
D23*
X12802Y31039D03*
X18999Y31039D03*
D22*
X49606Y31039D03*
X55804Y31039D03*
D24*
X61925Y31039D03*
D28*
X6731Y31090D03*
D22*
X12776Y31090D03*
D23*
X18999Y31090D03*
D24*
X49581Y31090D03*
D23*
X55778Y31090D03*
D22*
X61900Y31090D03*
D29*
X6756Y31140D03*
D21*
X12751Y31140D03*
D46*
X18999Y31140D03*
D20*
X49555Y31140D03*
D21*
X55728Y31140D03*
D29*
X61874Y31140D03*
D22*
X6782Y31191D03*
D23*
X12700Y31191D03*
D62*
X18999Y31191D03*
D25*
X49530Y31191D03*
D23*
X55728Y31191D03*
D28*
X61849Y31191D03*
D30*
X6807Y31242D03*
D21*
X12700Y31242D03*
D48*
X18999Y31242D03*
D20*
X49505Y31242D03*
D21*
X55677Y31242D03*
D29*
X61824Y31242D03*
D22*
X6833Y31293D03*
D23*
X12649Y31293D03*
D49*
X19025Y31293D03*
D22*
X49454Y31293D03*
X55651Y31293D03*
X61798Y31293D03*
X6883Y31344D03*
X12624Y31344D03*
D50*
X18999Y31344D03*
D22*
X49454Y31344D03*
D23*
X55626Y31344D03*
D22*
X61747Y31344D03*
D30*
X6909Y31394D03*
D21*
X12598Y31394D03*
D63*
X18999Y31394D03*
D26*
X49403Y31394D03*
D20*
X55601Y31394D03*
D29*
X61722Y31394D03*
D22*
X6934Y31445D03*
D23*
X12548Y31445D03*
D52*
X18999Y31445D03*
D25*
X49378Y31445D03*
D23*
X55575Y31445D03*
D22*
X61697Y31445D03*
D29*
X6960Y31496D03*
D21*
X12548Y31496D03*
D53*
X18999Y31496D03*
D20*
X49352Y31496D03*
D21*
X55524Y31496D03*
D30*
X61671Y31496D03*
D28*
X6985Y31547D03*
D23*
X12497Y31547D03*
D57*
X18999Y31547D03*
D24*
X49327Y31547D03*
D28*
X55499Y31547D03*
D22*
X61646Y31547D03*
X7036Y31598D03*
X12471Y31598D03*
D28*
X18669Y31598D03*
D22*
X19329Y31598D03*
X49301Y31598D03*
D23*
X55474Y31598D03*
D28*
X61595Y31598D03*
D20*
X7036Y31648D03*
D21*
X12446Y31648D03*
D29*
X18644Y31648D03*
D20*
X19380Y31648D03*
X49251Y31648D03*
X55448Y31648D03*
D26*
X61595Y31648D03*
D22*
X7087Y31699D03*
X12421Y31699D03*
X18618Y31699D03*
D25*
X19406Y31699D03*
D24*
X49225Y31699D03*
D23*
X55423Y31699D03*
D22*
X61544Y31699D03*
D29*
X7112Y31750D03*
D21*
X12395Y31750D03*
D20*
X18567Y31750D03*
D26*
X19431Y31750D03*
D20*
X49200Y31750D03*
X55397Y31750D03*
D30*
X61519Y31750D03*
D22*
X7137Y31801D03*
D23*
X12344Y31801D03*
D25*
X18542Y31801D03*
X19456Y31801D03*
X49174Y31801D03*
D23*
X55372Y31801D03*
D22*
X61493Y31801D03*
D24*
X7163Y31852D03*
D23*
X12344Y31852D03*
D22*
X18517Y31852D03*
X19482Y31852D03*
D28*
X49149Y31852D03*
D23*
X55321Y31852D03*
D25*
X61468Y31852D03*
D20*
X7188Y31902D03*
D21*
X12294Y31902D03*
D30*
X18491Y31902D03*
X19507Y31902D03*
D29*
X49124Y31902D03*
D20*
X55296Y31902D03*
X61443Y31902D03*
D28*
X7239Y31953D03*
D22*
X12268Y31953D03*
X18466Y31953D03*
X19533Y31953D03*
X49098Y31953D03*
D23*
X55270Y31953D03*
D22*
X61392Y31953D03*
D29*
X7264Y32004D03*
D21*
X12243Y32004D03*
D26*
X18415Y32004D03*
D20*
X19583Y32004D03*
X49047Y32004D03*
D26*
X55245Y32004D03*
D29*
X61366Y32004D03*
D22*
X7290Y32055D03*
D23*
X12192Y32055D03*
D28*
X18415Y32055D03*
D24*
X19609Y32055D03*
D25*
X49022Y32055D03*
D23*
X55220Y32055D03*
D28*
X61341Y32055D03*
D24*
X7315Y32106D03*
D23*
X12192Y32106D03*
D22*
X18364Y32106D03*
X19634Y32106D03*
X48997Y32106D03*
D23*
X55169Y32106D03*
D25*
X61316Y32106D03*
D20*
X7341Y32156D03*
D21*
X12141Y32156D03*
D30*
X18339Y32156D03*
D29*
X19660Y32156D03*
D30*
X48971Y32156D03*
D21*
X55169Y32156D03*
D20*
X61290Y32156D03*
D25*
X7366Y32207D03*
D23*
X12141Y32207D03*
D22*
X18313Y32207D03*
D28*
X19685Y32207D03*
D22*
X48946Y32207D03*
D23*
X55118Y32207D03*
D24*
X61265Y32207D03*
D20*
X7391Y32258D03*
D21*
X12090Y32258D03*
D29*
X18288Y32258D03*
X19710Y32258D03*
X48920Y32258D03*
D20*
X55093Y32258D03*
X61239Y32258D03*
D22*
X7442Y32309D03*
D28*
X12065Y32309D03*
D22*
X18263Y32309D03*
X19736Y32309D03*
D28*
X48895Y32309D03*
D23*
X55067Y32309D03*
D22*
X61189Y32309D03*
D25*
X7468Y32360D03*
D23*
X12040Y32360D03*
D22*
X18212Y32360D03*
X19787Y32360D03*
X48844Y32360D03*
X55042Y32360D03*
D24*
X61163Y32360D03*
D26*
X7493Y32410D03*
D21*
X11989Y32410D03*
D29*
X18186Y32410D03*
X19812Y32410D03*
D30*
X48819Y32410D03*
D21*
X55016Y32410D03*
D20*
X61138Y32410D03*
D25*
X7518Y32461D03*
D23*
X11989Y32461D03*
D28*
X18161Y32461D03*
D22*
X19837Y32461D03*
X48793Y32461D03*
D23*
X54966Y32461D03*
D25*
X61112Y32461D03*
D20*
X7544Y32512D03*
D21*
X11938Y32512D03*
D29*
X18136Y32512D03*
D30*
X19863Y32512D03*
D29*
X48768Y32512D03*
D20*
X54940Y32512D03*
D26*
X61087Y32512D03*
D24*
X7569Y32563D03*
D22*
X11913Y32563D03*
X18110Y32563D03*
X19888Y32563D03*
X48743Y32563D03*
D23*
X54915Y32563D03*
D25*
X61062Y32563D03*
D22*
X7595Y32614D03*
D23*
X11887Y32614D03*
D24*
X18085Y32614D03*
D28*
X19939Y32614D03*
D22*
X48692Y32614D03*
X54889Y32614D03*
X61036Y32614D03*
D20*
X7645Y32664D03*
D21*
X11836Y32664D03*
D20*
X18059Y32664D03*
D26*
X19939Y32664D03*
D20*
X48692Y32664D03*
D21*
X54864Y32664D03*
D20*
X60985Y32664D03*
D24*
X7671Y32715D03*
D23*
X11836Y32715D03*
D22*
X18009Y32715D03*
X19990Y32715D03*
D28*
X48641Y32715D03*
D22*
X54839Y32715D03*
D25*
X60960Y32715D03*
D20*
X7696Y32766D03*
D21*
X11786Y32766D03*
D30*
X17983Y32766D03*
X20015Y32766D03*
D29*
X48616Y32766D03*
D21*
X54813Y32766D03*
D20*
X60935Y32766D03*
D25*
X7722Y32817D03*
D23*
X11786Y32817D03*
D22*
X17958Y32817D03*
X20041Y32817D03*
X48590Y32817D03*
D23*
X54762Y32817D03*
D24*
X60909Y32817D03*
D28*
X7747Y32868D03*
D23*
X11735Y32868D03*
D25*
X17932Y32868D03*
X20066Y32868D03*
D24*
X48565Y32868D03*
D28*
X54737Y32868D03*
D22*
X60884Y32868D03*
D20*
X7798Y32918D03*
X11709Y32918D03*
D26*
X17907Y32918D03*
D20*
X20091Y32918D03*
X48539Y32918D03*
D21*
X54712Y32918D03*
D26*
X60833Y32918D03*
D22*
X7798Y32969D03*
D23*
X11684Y32969D03*
D22*
X17856Y32969D03*
X20142Y32969D03*
X48489Y32969D03*
X54686Y32969D03*
D28*
X60833Y32969D03*
D20*
X7849Y33020D03*
D21*
X11633Y33020D03*
D20*
X17856Y33020D03*
D29*
X20168Y33020D03*
D30*
X48463Y33020D03*
D21*
X54661Y33020D03*
D20*
X60782Y33020D03*
D25*
X7874Y33071D03*
D23*
X11633Y33071D03*
D22*
X17805Y33071D03*
D28*
X20193Y33071D03*
D22*
X48438Y33071D03*
X54635Y33071D03*
D24*
X60757Y33071D03*
D22*
X7899Y33122D03*
D23*
X11582Y33122D03*
D25*
X17780Y33122D03*
X20218Y33122D03*
X48412Y33122D03*
D22*
X54585Y33122D03*
X60731Y33122D03*
D30*
X7925Y33172D03*
D21*
X11582Y33172D03*
D20*
X17755Y33172D03*
X20244Y33172D03*
D26*
X48387Y33172D03*
D21*
X54559Y33172D03*
D29*
X60706Y33172D03*
D22*
X7950Y33223D03*
D23*
X11532Y33223D03*
D24*
X17729Y33223D03*
X20269Y33223D03*
D25*
X48362Y33223D03*
D22*
X54534Y33223D03*
X60681Y33223D03*
D26*
X8001Y33274D03*
D20*
X11506Y33274D03*
X17704Y33274D03*
X20295Y33274D03*
X48336Y33274D03*
D21*
X54508Y33274D03*
D20*
X60630Y33274D03*
D25*
X8026Y33325D03*
D23*
X11481Y33325D03*
D28*
X17653Y33325D03*
D22*
X20345Y33325D03*
X48285Y33325D03*
D28*
X54483Y33325D03*
D25*
X60604Y33325D03*
D22*
X8052Y33376D03*
D23*
X11430Y33376D03*
D25*
X17628Y33376D03*
D24*
X20371Y33376D03*
D25*
X48260Y33376D03*
D23*
X54458Y33376D03*
D28*
X60579Y33376D03*
D30*
X8077Y33426D03*
D21*
X11430Y33426D03*
D20*
X17602Y33426D03*
X20396Y33426D03*
X48235Y33426D03*
D21*
X54407Y33426D03*
D29*
X60554Y33426D03*
D22*
X8103Y33477D03*
D23*
X11379Y33477D03*
D24*
X17577Y33477D03*
D25*
X20422Y33477D03*
D24*
X48209Y33477D03*
D22*
X54381Y33477D03*
X60528Y33477D03*
D29*
X8128Y33528D03*
D21*
X11379Y33528D03*
D20*
X17551Y33528D03*
D26*
X20447Y33528D03*
D20*
X48184Y33528D03*
D21*
X54356Y33528D03*
D30*
X60503Y33528D03*
D22*
X8153Y33579D03*
D23*
X11328Y33579D03*
D25*
X17526Y33579D03*
D22*
X20498Y33579D03*
D28*
X48133Y33579D03*
D22*
X54331Y33579D03*
X60477Y33579D03*
X8204Y33630D03*
D23*
X11278Y33630D03*
D22*
X17501Y33630D03*
X20498Y33630D03*
D28*
X48133Y33630D03*
D23*
X54305Y33630D03*
D22*
X60427Y33630D03*
D29*
X8230Y33680D03*
D21*
X11278Y33680D03*
D20*
X17450Y33680D03*
X20549Y33680D03*
X48082Y33680D03*
X54280Y33680D03*
D30*
X60401Y33680D03*
D28*
X8255Y33731D03*
D23*
X11227Y33731D03*
D25*
X17424Y33731D03*
X20574Y33731D03*
D24*
X48057Y33731D03*
D28*
X54229Y33731D03*
D22*
X60376Y33731D03*
D29*
X8280Y33782D03*
D21*
X11227Y33782D03*
D26*
X17399Y33782D03*
D20*
X20599Y33782D03*
X48031Y33782D03*
D21*
X54204Y33782D03*
D29*
X60350Y33782D03*
D22*
X8306Y33833D03*
D23*
X11176Y33833D03*
D25*
X17374Y33833D03*
D24*
X20625Y33833D03*
D25*
X48006Y33833D03*
D22*
X54178Y33833D03*
D28*
X60325Y33833D03*
D24*
X8331Y33884D03*
D22*
X11151Y33884D03*
X17348Y33884D03*
X20650Y33884D03*
X47981Y33884D03*
D23*
X54153Y33884D03*
D25*
X60300Y33884D03*
D20*
X8357Y33934D03*
D21*
X11125Y33934D03*
D30*
X17323Y33934D03*
D26*
X20701Y33934D03*
D20*
X47930Y33934D03*
X54127Y33934D03*
X60274Y33934D03*
D22*
X8407Y33985D03*
D23*
X11074Y33985D03*
D22*
X17297Y33985D03*
D28*
X20701Y33985D03*
D22*
X47930Y33985D03*
D23*
X54102Y33985D03*
D22*
X60223Y33985D03*
D30*
X8433Y34036D03*
D21*
X11074Y34036D03*
D20*
X17247Y34036D03*
X20752Y34036D03*
D26*
X47879Y34036D03*
D20*
X54077Y34036D03*
D29*
X60198Y34036D03*
D22*
X8458Y34087D03*
D23*
X11024Y34087D03*
D24*
X17221Y34087D03*
X20777Y34087D03*
D25*
X47854Y34087D03*
D22*
X54026Y34087D03*
X60173Y34087D03*
D25*
X8484Y34138D03*
D23*
X11024Y34138D03*
D22*
X17196Y34138D03*
X20803Y34138D03*
X47828Y34138D03*
D23*
X54000Y34138D03*
D24*
X60147Y34138D03*
D26*
X8509Y34188D03*
D21*
X10973Y34188D03*
D29*
X17170Y34188D03*
X20828Y34188D03*
D30*
X47803Y34188D03*
D26*
X53975Y34188D03*
D20*
X60122Y34188D03*
D22*
X8560Y34239D03*
D23*
X10922Y34239D03*
D28*
X17145Y34239D03*
D22*
X20853Y34239D03*
X47777Y34239D03*
D23*
X53950Y34239D03*
D28*
X60071Y34239D03*
D20*
X8560Y34290D03*
D21*
X10922Y34290D03*
D20*
X17094Y34290D03*
X20904Y34290D03*
X47727Y34290D03*
X53924Y34290D03*
D26*
X60071Y34290D03*
D22*
X8611Y34341D03*
D23*
X10871Y34341D03*
D22*
X17094Y34341D03*
D25*
X20930Y34341D03*
D24*
X47701Y34341D03*
D23*
X53899Y34341D03*
D22*
X60020Y34341D03*
D25*
X8636Y34392D03*
D23*
X10871Y34392D03*
D22*
X17043Y34392D03*
D28*
X20955Y34392D03*
D22*
X47676Y34392D03*
D23*
X53848Y34392D03*
D24*
X59995Y34392D03*
D20*
X8661Y34442D03*
D21*
X10820Y34442D03*
D29*
X17018Y34442D03*
X20980Y34442D03*
X47650Y34442D03*
D20*
X53823Y34442D03*
X59969Y34442D03*
D24*
X8687Y34493D03*
D23*
X10820Y34493D03*
D22*
X16993Y34493D03*
X21006Y34493D03*
D28*
X47625Y34493D03*
D23*
X53797Y34493D03*
D25*
X59944Y34493D03*
D20*
X8712Y34544D03*
D21*
X10770Y34544D03*
D30*
X16967Y34544D03*
X21031Y34544D03*
D29*
X47600Y34544D03*
D20*
X53772Y34544D03*
X59919Y34544D03*
D28*
X8763Y34595D03*
D23*
X10719Y34595D03*
D22*
X16942Y34595D03*
X21057Y34595D03*
X47574Y34595D03*
D23*
X53746Y34595D03*
D22*
X59868Y34595D03*
D25*
X8788Y34646D03*
D23*
X10719Y34646D03*
D28*
X16891Y34646D03*
D22*
X21107Y34646D03*
X47523Y34646D03*
D28*
X53721Y34646D03*
D25*
X59842Y34646D03*
D20*
X8814Y34696D03*
D21*
X10668Y34696D03*
D29*
X16866Y34696D03*
D30*
X21133Y34696D03*
D29*
X47498Y34696D03*
D20*
X53670Y34696D03*
D26*
X59817Y34696D03*
D24*
X8839Y34747D03*
D23*
X10668Y34747D03*
D22*
X16840Y34747D03*
X21158Y34747D03*
X47473Y34747D03*
D23*
X53645Y34747D03*
D25*
X59792Y34747D03*
D20*
X8865Y34798D03*
D21*
X10617Y34798D03*
D30*
X16815Y34798D03*
D29*
X21184Y34798D03*
D30*
X47447Y34798D03*
D20*
X53619Y34798D03*
X59766Y34798D03*
D25*
X8890Y34849D03*
D27*
X10592Y34849D03*
D22*
X16789Y34849D03*
D28*
X21209Y34849D03*
D22*
X47422Y34849D03*
D23*
X53594Y34849D03*
D24*
X59741Y34849D03*
D22*
X8915Y34900D03*
D23*
X10566Y34900D03*
D25*
X16764Y34900D03*
D22*
X21260Y34900D03*
D28*
X47371Y34900D03*
D22*
X53569Y34900D03*
X59715Y34900D03*
D20*
X8966Y34950D03*
D21*
X10516Y34950D03*
D20*
X16739Y34950D03*
X21260Y34950D03*
D26*
X47371Y34950D03*
D21*
X53543Y34950D03*
D20*
X59665Y34950D03*
D25*
X8992Y35001D03*
D23*
X10516Y35001D03*
D22*
X16688Y35001D03*
X21311Y35001D03*
X47320Y35001D03*
X53518Y35001D03*
D24*
X59639Y35001D03*
D26*
X9017Y35052D03*
D21*
X10465Y35052D03*
D29*
X16662Y35052D03*
X21336Y35052D03*
D30*
X47295Y35052D03*
D26*
X53467Y35052D03*
D20*
X59614Y35052D03*
D25*
X9042Y35103D03*
D23*
X10465Y35103D03*
D28*
X16637Y35103D03*
D22*
X21361Y35103D03*
X47269Y35103D03*
D23*
X53442Y35103D03*
D25*
X59588Y35103D03*
D22*
X9068Y35154D03*
D23*
X10414Y35154D03*
D25*
X16612Y35154D03*
D24*
X21387Y35154D03*
D25*
X47244Y35154D03*
D22*
X53416Y35154D03*
D28*
X59563Y35154D03*
D20*
X9119Y35204D03*
D21*
X10363Y35204D03*
D20*
X16586Y35204D03*
X21412Y35204D03*
X47219Y35204D03*
D21*
X53391Y35204D03*
D20*
X59512Y35204D03*
D22*
X9119Y35255D03*
D23*
X10363Y35255D03*
D24*
X16561Y35255D03*
D28*
X21463Y35255D03*
D22*
X47168Y35255D03*
X53365Y35255D03*
X59512Y35255D03*
D20*
X9169Y35306D03*
D21*
X10312Y35306D03*
D20*
X16535Y35306D03*
D29*
X21488Y35306D03*
X47142Y35306D03*
D20*
X53315Y35306D03*
X59461Y35306D03*
D24*
X9195Y35357D03*
D23*
X10312Y35357D03*
D22*
X16485Y35357D03*
X21514Y35357D03*
D28*
X47117Y35357D03*
D22*
X53315Y35357D03*
D25*
X59436Y35357D03*
D22*
X9220Y35408D03*
D23*
X10262Y35408D03*
D24*
X16459Y35408D03*
X21539Y35408D03*
D25*
X47092Y35408D03*
D22*
X53264Y35408D03*
X59411Y35408D03*
D29*
X9246Y35458D03*
D21*
X10262Y35458D03*
D20*
X16434Y35458D03*
X21565Y35458D03*
X47066Y35458D03*
D21*
X53238Y35458D03*
D30*
X59385Y35458D03*
D28*
X9271Y35509D03*
D23*
X10211Y35509D03*
D25*
X16408Y35509D03*
X21590Y35509D03*
D24*
X47041Y35509D03*
D28*
X53213Y35509D03*
D22*
X59360Y35509D03*
D20*
X9322Y35560D03*
D21*
X10160Y35560D03*
D26*
X16383Y35560D03*
D20*
X21615Y35560D03*
X47015Y35560D03*
D21*
X53188Y35560D03*
D26*
X59309Y35560D03*
D22*
X9322Y35611D03*
D23*
X10160Y35611D03*
D22*
X16332Y35611D03*
X21666Y35611D03*
X46965Y35611D03*
X53162Y35611D03*
D28*
X59309Y35611D03*
D22*
X9373Y35662D03*
D23*
X10109Y35662D03*
D22*
X16332Y35662D03*
D25*
X21692Y35662D03*
D24*
X46939Y35662D03*
D22*
X53111Y35662D03*
X59258Y35662D03*
D29*
X9398Y35712D03*
D21*
X10109Y35712D03*
D20*
X16281Y35712D03*
D26*
X21717Y35712D03*
D20*
X46914Y35712D03*
D21*
X53086Y35712D03*
D30*
X59233Y35712D03*
D55*
X9754Y35763D03*
D25*
X16256Y35763D03*
X21742Y35763D03*
X46888Y35763D03*
D22*
X53061Y35763D03*
X59207Y35763D03*
D64*
X9779Y35814D03*
D20*
X16231Y35814D03*
X21768Y35814D03*
D26*
X46863Y35814D03*
D21*
X53035Y35814D03*
D29*
X59182Y35814D03*
D57*
X9754Y35865D03*
D24*
X16205Y35865D03*
X21793Y35865D03*
D25*
X46838Y35865D03*
D22*
X53010Y35865D03*
X59157Y35865D03*
D58*
X9754Y35916D03*
D22*
X16180Y35916D03*
X21819Y35916D03*
X46812Y35916D03*
D28*
X52959Y35916D03*
D22*
X59106Y35916D03*
D51*
X9779Y35966D03*
D26*
X16129Y35966D03*
D20*
X21869Y35966D03*
X46761Y35966D03*
D26*
X52959Y35966D03*
D29*
X59080Y35966D03*
D50*
X9754Y36017D03*
D25*
X16104Y36017D03*
D24*
X21895Y36017D03*
D25*
X46736Y36017D03*
D22*
X52908Y36017D03*
D28*
X59055Y36017D03*
D60*
X9779Y36068D03*
D20*
X16078Y36068D03*
X21920Y36068D03*
X46711Y36068D03*
D21*
X52883Y36068D03*
D29*
X59030Y36068D03*
D61*
X9754Y36119D03*
D24*
X16053Y36119D03*
D25*
X21946Y36119D03*
D24*
X46685Y36119D03*
D22*
X52857Y36119D03*
X59004Y36119D03*
D65*
X9779Y36170D03*
D22*
X16027Y36170D03*
D28*
X21971Y36170D03*
D22*
X46660Y36170D03*
D23*
X52832Y36170D03*
D24*
X58979Y36170D03*
D46*
X9754Y36220D03*
D29*
X16002Y36220D03*
D20*
X22022Y36220D03*
D26*
X46609Y36220D03*
D20*
X52807Y36220D03*
X58953Y36220D03*
D23*
X9754Y36271D03*
D22*
X15977Y36271D03*
X22022Y36271D03*
D28*
X46609Y36271D03*
D22*
X52756Y36271D03*
X58903Y36271D03*
D26*
X9779Y36322D03*
D20*
X15926Y36322D03*
X22073Y36322D03*
X46558Y36322D03*
X52756Y36322D03*
D30*
X58877Y36322D03*
D28*
X9779Y36373D03*
D22*
X15926Y36373D03*
D25*
X22098Y36373D03*
D24*
X46533Y36373D03*
D28*
X52705Y36373D03*
D22*
X58852Y36373D03*
D25*
X9804Y36424D03*
D22*
X15977Y36424D03*
X22123Y36424D03*
X46507Y36424D03*
D23*
X52680Y36424D03*
D25*
X58826Y36424D03*
D20*
X9830Y36474D03*
D29*
X16002Y36474D03*
D30*
X22149Y36474D03*
D29*
X46482Y36474D03*
D20*
X52654Y36474D03*
D26*
X58801Y36474D03*
D22*
X9881Y36525D03*
X16027Y36525D03*
X22174Y36525D03*
X46457Y36525D03*
D23*
X52629Y36525D03*
D22*
X58750Y36525D03*
D20*
X9881Y36576D03*
D30*
X16053Y36576D03*
D26*
X22225Y36576D03*
D20*
X46406Y36576D03*
X52603Y36576D03*
X58750Y36576D03*
D22*
X9931Y36627D03*
X16078Y36627D03*
D25*
X22250Y36627D03*
X46380Y36627D03*
D22*
X52553Y36627D03*
X58699Y36627D03*
D24*
X9957Y36678D03*
D25*
X16104Y36678D03*
D22*
X22276Y36678D03*
D28*
X46355Y36678D03*
D22*
X52553Y36678D03*
D25*
X58674Y36678D03*
D20*
X9982Y36728D03*
D26*
X16129Y36728D03*
D30*
X22301Y36728D03*
D29*
X46330Y36728D03*
D20*
X52502Y36728D03*
X58649Y36728D03*
D25*
X10008Y36779D03*
D22*
X16180Y36779D03*
X22327Y36779D03*
X46304Y36779D03*
D23*
X52476Y36779D03*
D24*
X58623Y36779D03*
D26*
X10033Y36830D03*
D30*
X16205Y36830D03*
D29*
X22352Y36830D03*
D30*
X46279Y36830D03*
D26*
X52451Y36830D03*
D20*
X58598Y36830D03*
D22*
X10084Y36881D03*
X16231Y36881D03*
X22377Y36881D03*
X46253Y36881D03*
X52400Y36881D03*
D28*
X58547Y36881D03*
D24*
X10109Y36932D03*
D25*
X16256Y36932D03*
D22*
X22428Y36932D03*
X46203Y36932D03*
X52400Y36932D03*
D25*
X58522Y36932D03*
D20*
X10135Y36982D03*
X16281Y36982D03*
D29*
X22454Y36982D03*
D30*
X46177Y36982D03*
D20*
X52349Y36982D03*
X58496Y36982D03*
D25*
X10160Y37033D03*
D22*
X16332Y37033D03*
D28*
X22479Y37033D03*
D22*
X46152Y37033D03*
D23*
X52324Y37033D03*
D24*
X58471Y37033D03*
D20*
X10185Y37084D03*
X16332Y37084D03*
D29*
X22504Y37084D03*
X46126Y37084D03*
D20*
X52299Y37084D03*
X58445Y37084D03*
D24*
X10211Y37135D03*
D28*
X16383Y37135D03*
D22*
X22530Y37135D03*
D28*
X46101Y37135D03*
D23*
X52273Y37135D03*
D25*
X58420Y37135D03*
D22*
X10236Y37186D03*
D25*
X16408Y37186D03*
D24*
X22555Y37186D03*
D25*
X46076Y37186D03*
D22*
X52248Y37186D03*
X58395Y37186D03*
D26*
X10287Y37236D03*
D20*
X16434Y37236D03*
X22581Y37236D03*
X46050Y37236D03*
D26*
X52197Y37236D03*
D20*
X58344Y37236D03*
D25*
X10312Y37287D03*
D24*
X16459Y37287D03*
D22*
X22631Y37287D03*
X45999Y37287D03*
D28*
X52197Y37287D03*
D25*
X58318Y37287D03*
D20*
X10338Y37338D03*
X16485Y37338D03*
D30*
X22657Y37338D03*
D29*
X45974Y37338D03*
D20*
X52146Y37338D03*
D26*
X58293Y37338D03*
D24*
X10363Y37389D03*
D22*
X16535Y37389D03*
X22682Y37389D03*
X45949Y37389D03*
D23*
X52121Y37389D03*
D25*
X58268Y37389D03*
D22*
X10389Y37440D03*
X16535Y37440D03*
D25*
X22708Y37440D03*
D24*
X45923Y37440D03*
D22*
X52095Y37440D03*
X58242Y37440D03*
D29*
X10414Y37490D03*
D20*
X16586Y37490D03*
D26*
X22733Y37490D03*
D20*
X45898Y37490D03*
X52045Y37490D03*
D30*
X58217Y37490D03*
D22*
X10439Y37541D03*
D25*
X16612Y37541D03*
D22*
X22784Y37541D03*
D28*
X45847Y37541D03*
D22*
X52045Y37541D03*
X58191Y37541D03*
D20*
X10490Y37592D03*
D26*
X16637Y37592D03*
D20*
X22784Y37592D03*
D26*
X45847Y37592D03*
D20*
X51994Y37592D03*
X58141Y37592D03*
D25*
X10516Y37643D03*
X16662Y37643D03*
D22*
X22835Y37643D03*
X45796Y37643D03*
X51994Y37643D03*
D24*
X58115Y37643D03*
D28*
X10541Y37694D03*
D22*
X16688Y37694D03*
D25*
X22860Y37694D03*
D24*
X45771Y37694D03*
D28*
X51943Y37694D03*
D22*
X58090Y37694D03*
D29*
X10566Y37744D03*
D20*
X16739Y37744D03*
X22885Y37744D03*
X45745Y37744D03*
D21*
X51918Y37744D03*
D29*
X58064Y37744D03*
D22*
X10592Y37795D03*
X16739Y37795D03*
D24*
X22911Y37795D03*
D25*
X45720Y37795D03*
D22*
X51892Y37795D03*
D28*
X58039Y37795D03*
D20*
X10643Y37846D03*
X16789Y37846D03*
X22936Y37846D03*
X45695Y37846D03*
X51841Y37846D03*
X57988Y37846D03*
D22*
X10643Y37897D03*
D24*
X16815Y37897D03*
D28*
X22987Y37897D03*
D22*
X45644Y37897D03*
X51841Y37897D03*
X57988Y37897D03*
X10693Y37948D03*
X16840Y37948D03*
D25*
X23012Y37948D03*
X45618Y37948D03*
D22*
X51791Y37948D03*
X57937Y37948D03*
D30*
X10719Y37998D03*
D29*
X16866Y37998D03*
D20*
X23038Y37998D03*
D26*
X45593Y37998D03*
D20*
X51791Y37998D03*
D29*
X57912Y37998D03*
D22*
X10744Y38049D03*
D28*
X16891Y38049D03*
D24*
X23063Y38049D03*
D25*
X45568Y38049D03*
D22*
X51740Y38049D03*
X57887Y38049D03*
D29*
X10770Y38100D03*
D20*
X16942Y38100D03*
X23089Y38100D03*
X45542Y38100D03*
D26*
X51689Y38100D03*
D30*
X57861Y38100D03*
D28*
X10795Y38151D03*
D22*
X16942Y38151D03*
D25*
X23114Y38151D03*
D24*
X45517Y38151D03*
D28*
X51689Y38151D03*
D22*
X57836Y38151D03*
X10846Y38202D03*
X16993Y38202D03*
X23139Y38202D03*
X45491Y38202D03*
X51638Y38202D03*
D28*
X57785Y38202D03*
D30*
X10871Y38252D03*
D29*
X17018Y38252D03*
D20*
X23190Y38252D03*
X45441Y38252D03*
X51638Y38252D03*
D29*
X57760Y38252D03*
D22*
X10897Y38303D03*
X17043Y38303D03*
D25*
X23216Y38303D03*
D24*
X45415Y38303D03*
D22*
X51587Y38303D03*
X57734Y38303D03*
D29*
X10922Y38354D03*
D20*
X17094Y38354D03*
D26*
X23241Y38354D03*
D20*
X45390Y38354D03*
D21*
X51562Y38354D03*
D30*
X57709Y38354D03*
D22*
X10947Y38405D03*
X17094Y38405D03*
D25*
X23266Y38405D03*
X45364Y38405D03*
D22*
X51537Y38405D03*
X57683Y38405D03*
D24*
X10973Y38456D03*
D28*
X17145Y38456D03*
D22*
X23292Y38456D03*
D28*
X45339Y38456D03*
D22*
X51486Y38456D03*
D25*
X57658Y38456D03*
D20*
X10998Y38506D03*
D26*
X17145Y38506D03*
D20*
X23343Y38506D03*
X45288Y38506D03*
X51486Y38506D03*
X57633Y38506D03*
D28*
X11049Y38557D03*
D22*
X17196Y38557D03*
X23343Y38557D03*
X45288Y38557D03*
D28*
X51435Y38557D03*
D22*
X57582Y38557D03*
D29*
X11074Y38608D03*
D30*
X17221Y38608D03*
D20*
X23393Y38608D03*
X45237Y38608D03*
D26*
X51435Y38608D03*
D29*
X57556Y38608D03*
D22*
X11100Y38659D03*
X17247Y38659D03*
D24*
X23419Y38659D03*
D25*
X45212Y38659D03*
D22*
X51384Y38659D03*
D28*
X57531Y38659D03*
D24*
X11125Y38710D03*
D22*
X17297Y38710D03*
X23444Y38710D03*
X45187Y38710D03*
D23*
X51359Y38710D03*
D25*
X57506Y38710D03*
D20*
X11151Y38760D03*
X17297Y38760D03*
D29*
X23470Y38760D03*
D30*
X45161Y38760D03*
D20*
X51333Y38760D03*
X57480Y38760D03*
D25*
X11176Y38811D03*
D22*
X17348Y38811D03*
D28*
X23495Y38811D03*
D22*
X45136Y38811D03*
X51283Y38811D03*
D24*
X57455Y38811D03*
D20*
X11201Y38862D03*
X17348Y38862D03*
X23546Y38862D03*
D26*
X45085Y38862D03*
D20*
X51283Y38862D03*
X57429Y38862D03*
D22*
X11252Y38913D03*
D28*
X17399Y38913D03*
D24*
X23571Y38913D03*
D28*
X45085Y38913D03*
D22*
X51232Y38913D03*
X57379Y38913D03*
D25*
X11278Y38964D03*
X17424Y38964D03*
D22*
X23597Y38964D03*
X45034Y38964D03*
X51232Y38964D03*
D24*
X57353Y38964D03*
D26*
X11303Y39014D03*
D20*
X17450Y39014D03*
D29*
X23622Y39014D03*
D30*
X45009Y39014D03*
D26*
X51181Y39014D03*
D20*
X57328Y39014D03*
D25*
X11328Y39065D03*
D22*
X17501Y39065D03*
X23647Y39065D03*
X44983Y39065D03*
X51130Y39065D03*
D25*
X57302Y39065D03*
D20*
X11354Y39116D03*
X17501Y39116D03*
D30*
X23673Y39116D03*
D29*
X44958Y39116D03*
D20*
X51130Y39116D03*
D26*
X57277Y39116D03*
D22*
X11405Y39167D03*
X17551Y39167D03*
X23698Y39167D03*
X44933Y39167D03*
X51079Y39167D03*
X57226Y39167D03*
X11405Y39218D03*
D24*
X17577Y39218D03*
D28*
X23749Y39218D03*
D22*
X44882Y39218D03*
X51079Y39218D03*
X57226Y39218D03*
D20*
X11455Y39268D03*
X17602Y39268D03*
D29*
X23774Y39268D03*
X44856Y39268D03*
D20*
X51029Y39268D03*
X57175Y39268D03*
D24*
X11481Y39319D03*
D28*
X17653Y39319D03*
D22*
X23800Y39319D03*
D28*
X44831Y39319D03*
D23*
X51003Y39319D03*
D25*
X57150Y39319D03*
D20*
X11506Y39370D03*
D26*
X17653Y39370D03*
D30*
X23825Y39370D03*
D29*
X44806Y39370D03*
D20*
X50978Y39370D03*
X57125Y39370D03*
D25*
X11532Y39421D03*
D22*
X17704Y39421D03*
X23851Y39421D03*
X44780Y39421D03*
D28*
X50927Y39421D03*
D24*
X57099Y39421D03*
D28*
X11557Y39472D03*
D22*
X17704Y39472D03*
D25*
X23876Y39472D03*
D24*
X44755Y39472D03*
D28*
X50927Y39472D03*
D22*
X57074Y39472D03*
D20*
X11608Y39522D03*
X17755Y39522D03*
X23901Y39522D03*
X44729Y39522D03*
X50876Y39522D03*
D26*
X57023Y39522D03*
D24*
X11633Y39573D03*
D25*
X17780Y39573D03*
D22*
X23952Y39573D03*
X44679Y39573D03*
X50876Y39573D03*
D25*
X56998Y39573D03*
D20*
X11659Y39624D03*
X17805Y39624D03*
D29*
X23978Y39624D03*
D30*
X44653Y39624D03*
D20*
X50825Y39624D03*
X56972Y39624D03*
D25*
X11684Y39675D03*
D22*
X17856Y39675D03*
D28*
X24003Y39675D03*
D22*
X44628Y39675D03*
X50775Y39675D03*
D24*
X56947Y39675D03*
D22*
X11709Y39726D03*
X17856Y39726D03*
D25*
X24028Y39726D03*
X44602Y39726D03*
D22*
X50775Y39726D03*
X56921Y39726D03*
D30*
X11735Y39776D03*
D26*
X17907Y39776D03*
D20*
X24054Y39776D03*
D26*
X44577Y39776D03*
D20*
X50724Y39776D03*
D29*
X56896Y39776D03*
D22*
X11760Y39827D03*
D28*
X17907Y39827D03*
D22*
X24105Y39827D03*
X44526Y39827D03*
X50724Y39827D03*
X56871Y39827D03*
D26*
X11811Y39878D03*
D20*
X17958Y39878D03*
X24105Y39878D03*
X44526Y39878D03*
D26*
X50673Y39878D03*
D20*
X56820Y39878D03*
D25*
X11836Y39929D03*
D24*
X17983Y39929D03*
D22*
X24155Y39929D03*
X44475Y39929D03*
D28*
X50673Y39929D03*
D25*
X56794Y39929D03*
D22*
X11862Y39980D03*
X18009Y39980D03*
D24*
X24181Y39980D03*
D25*
X44450Y39980D03*
D22*
X50622Y39980D03*
D28*
X56769Y39980D03*
D30*
X11887Y40030D03*
D20*
X18059Y40030D03*
X24206Y40030D03*
X44425Y40030D03*
X50571Y40030D03*
D29*
X56744Y40030D03*
D22*
X11913Y40081D03*
X18059Y40081D03*
D25*
X24232Y40081D03*
D24*
X44399Y40081D03*
D22*
X50571Y40081D03*
X56718Y40081D03*
D20*
X11963Y40132D03*
X18110Y40132D03*
D26*
X24257Y40132D03*
D20*
X44374Y40132D03*
X50521Y40132D03*
X56667Y40132D03*
D22*
X11963Y40183D03*
X18110Y40183D03*
X24308Y40183D03*
D28*
X44323Y40183D03*
D22*
X50521Y40183D03*
X56667Y40183D03*
X12014Y40234D03*
D28*
X18161Y40234D03*
D24*
X24333Y40234D03*
D25*
X44298Y40234D03*
D22*
X50470Y40234D03*
X56617Y40234D03*
D29*
X12040Y40284D03*
X18186Y40284D03*
D20*
X24359Y40284D03*
X44272Y40284D03*
D29*
X50444Y40284D03*
D30*
X56591Y40284D03*
D28*
X12065Y40335D03*
D22*
X18212Y40335D03*
D25*
X24384Y40335D03*
D24*
X44247Y40335D03*
D28*
X50419Y40335D03*
D22*
X56566Y40335D03*
D29*
X12090Y40386D03*
D20*
X18263Y40386D03*
X24409Y40386D03*
X44221Y40386D03*
X50368Y40386D03*
D29*
X56540Y40386D03*
D22*
X12116Y40437D03*
X18263Y40437D03*
D24*
X24435Y40437D03*
D25*
X44196Y40437D03*
D22*
X50368Y40437D03*
D28*
X56515Y40437D03*
D22*
X12167Y40488D03*
X18313Y40488D03*
X24460Y40488D03*
X44171Y40488D03*
X50317Y40488D03*
X56464Y40488D03*
D29*
X12192Y40538D03*
D20*
X18313Y40538D03*
D26*
X24511Y40538D03*
D20*
X44120Y40538D03*
X50317Y40538D03*
D30*
X56439Y40538D03*
D22*
X12217Y40589D03*
X18364Y40589D03*
D25*
X24536Y40589D03*
X44094Y40589D03*
D22*
X50267Y40589D03*
X56413Y40589D03*
D30*
X12243Y40640D03*
D26*
X18415Y40640D03*
D20*
X24562Y40640D03*
D26*
X44069Y40640D03*
D20*
X50216Y40640D03*
D29*
X56388Y40640D03*
D22*
X12268Y40691D03*
D28*
X18415Y40691D03*
D24*
X24587Y40691D03*
D25*
X44044Y40691D03*
D22*
X50216Y40691D03*
X56363Y40691D03*
D25*
X12294Y40742D03*
D22*
X18466Y40742D03*
X24613Y40742D03*
X44018Y40742D03*
D28*
X50165Y40742D03*
D24*
X56337Y40742D03*
D26*
X12319Y40792D03*
D20*
X18466Y40792D03*
D29*
X24638Y40792D03*
D30*
X43993Y40792D03*
D26*
X50165Y40792D03*
D20*
X56312Y40792D03*
D22*
X12370Y40843D03*
X18517Y40843D03*
X24663Y40843D03*
X43967Y40843D03*
X50114Y40843D03*
D28*
X56261Y40843D03*
D30*
X12395Y40894D03*
D20*
X18517Y40894D03*
X24714Y40894D03*
X43917Y40894D03*
X50114Y40894D03*
D29*
X56236Y40894D03*
D22*
X12421Y40945D03*
X18567Y40945D03*
D25*
X24740Y40945D03*
D24*
X43891Y40945D03*
D22*
X50063Y40945D03*
X56210Y40945D03*
D25*
X12446Y40996D03*
D22*
X18618Y40996D03*
D28*
X24765Y40996D03*
D22*
X43866Y40996D03*
X50013Y40996D03*
D24*
X56185Y40996D03*
D20*
X12471Y41046D03*
X18618Y41046D03*
D29*
X24790Y41046D03*
X43840Y41046D03*
D20*
X50013Y41046D03*
X56159Y41046D03*
D24*
X12497Y41097D03*
D28*
X18669Y41097D03*
D22*
X24816Y41097D03*
D28*
X43815Y41097D03*
D22*
X49962Y41097D03*
D25*
X56134Y41097D03*
D20*
X12522Y41148D03*
D26*
X18669Y41148D03*
D20*
X24867Y41148D03*
X43764Y41148D03*
X49962Y41148D03*
X56109Y41148D03*
D28*
X12573Y41199D03*
D22*
X18720Y41199D03*
X24867Y41199D03*
X43764Y41199D03*
D28*
X49911Y41199D03*
D22*
X56058Y41199D03*
D25*
X12598Y41250D03*
D22*
X18720Y41250D03*
X24917Y41250D03*
X43713Y41250D03*
D25*
X49886Y41250D03*
X56032Y41250D03*
D20*
X12624Y41300D03*
X18771Y41300D03*
D30*
X24943Y41300D03*
D29*
X43688Y41300D03*
D20*
X49860Y41300D03*
D26*
X56007Y41300D03*
D24*
X12649Y41351D03*
D22*
X18821Y41351D03*
X24968Y41351D03*
X43663Y41351D03*
X49809Y41351D03*
D25*
X55982Y41351D03*
D20*
X12675Y41402D03*
X18821Y41402D03*
D29*
X24994Y41402D03*
D30*
X43637Y41402D03*
D20*
X49809Y41402D03*
X55956Y41402D03*
D22*
X12725Y41453D03*
X18872Y41453D03*
D28*
X25019Y41453D03*
D22*
X43612Y41453D03*
X49759Y41453D03*
X55905Y41453D03*
X12725Y41504D03*
X18872Y41504D03*
X25070Y41504D03*
D28*
X43561Y41504D03*
D22*
X49759Y41504D03*
X55905Y41504D03*
D20*
X12776Y41554D03*
D26*
X18923Y41554D03*
D30*
X25095Y41554D03*
D29*
X43536Y41554D03*
D20*
X49708Y41554D03*
X55855Y41554D03*
D25*
X12802Y41605D03*
D28*
X18923Y41605D03*
D22*
X25121Y41605D03*
X43510Y41605D03*
D25*
X49682Y41605D03*
D24*
X55829Y41605D03*
D26*
X12827Y41656D03*
D20*
X18974Y41656D03*
D29*
X25146Y41656D03*
D30*
X43485Y41656D03*
D26*
X49657Y41656D03*
D20*
X55804Y41656D03*
D25*
X12852Y41707D03*
D22*
X19025Y41707D03*
X25171Y41707D03*
X43459Y41707D03*
X49606Y41707D03*
D25*
X55778Y41707D03*
D22*
X12878Y41758D03*
X19025Y41758D03*
D24*
X25197Y41758D03*
D25*
X43434Y41758D03*
D22*
X49606Y41758D03*
D28*
X55753Y41758D03*
D20*
X12929Y41808D03*
X19075Y41808D03*
X25222Y41808D03*
X43409Y41808D03*
X49555Y41808D03*
X55702Y41808D03*
D25*
X12954Y41859D03*
D22*
X19075Y41859D03*
D28*
X25273Y41859D03*
D22*
X43358Y41859D03*
D25*
X49530Y41859D03*
D24*
X55677Y41859D03*
D20*
X12979Y41910D03*
X19126Y41910D03*
D29*
X25298Y41910D03*
X43332Y41910D03*
D20*
X49505Y41910D03*
X55651Y41910D03*
D24*
X13005Y41961D03*
D23*
X19152Y41961D03*
D22*
X25324Y41961D03*
D28*
X43307Y41961D03*
D22*
X49454Y41961D03*
D25*
X55626Y41961D03*
D22*
X13030Y42012D03*
D28*
X19177Y42012D03*
D24*
X25349Y42012D03*
D25*
X43282Y42012D03*
D22*
X49454Y42012D03*
X55601Y42012D03*
D29*
X13056Y42062D03*
D20*
X19228Y42062D03*
X25375Y42062D03*
X43256Y42062D03*
D26*
X49403Y42062D03*
D30*
X55575Y42062D03*
D28*
X13081Y42113D03*
D22*
X19228Y42113D03*
D25*
X25400Y42113D03*
D24*
X43231Y42113D03*
D28*
X49403Y42113D03*
D22*
X55550Y42113D03*
D20*
X13132Y42164D03*
X19279Y42164D03*
X25425Y42164D03*
X43205Y42164D03*
X49352Y42164D03*
D26*
X55499Y42164D03*
D24*
X13157Y42215D03*
D22*
X19279Y42215D03*
X25476Y42215D03*
X43155Y42215D03*
D24*
X49327Y42215D03*
D25*
X55474Y42215D03*
D22*
X13183Y42266D03*
X19329Y42266D03*
D25*
X25502Y42266D03*
D24*
X43129Y42266D03*
D22*
X49301Y42266D03*
X55448Y42266D03*
D29*
X13208Y42316D03*
D21*
X19355Y42316D03*
D26*
X25527Y42316D03*
D20*
X43104Y42316D03*
X49251Y42316D03*
D30*
X55423Y42316D03*
D22*
X13233Y42367D03*
X19380Y42367D03*
D25*
X25552Y42367D03*
X43078Y42367D03*
D22*
X49251Y42367D03*
X55397Y42367D03*
D30*
X13259Y42418D03*
D26*
X19431Y42418D03*
D20*
X25578Y42418D03*
D26*
X43053Y42418D03*
D20*
X49200Y42418D03*
D29*
X55372Y42418D03*
D22*
X13284Y42469D03*
D28*
X19431Y42469D03*
D22*
X25629Y42469D03*
X43002Y42469D03*
D25*
X49174Y42469D03*
D22*
X55347Y42469D03*
D28*
X13335Y42520D03*
D22*
X19482Y42520D03*
X25629Y42520D03*
X43002Y42520D03*
D28*
X49149Y42520D03*
D22*
X55296Y42520D03*
D29*
X13360Y42570D03*
D20*
X19482Y42570D03*
X25679Y42570D03*
X42951Y42570D03*
D29*
X49124Y42570D03*
X55270Y42570D03*
D22*
X13386Y42621D03*
X19533Y42621D03*
D24*
X25705Y42621D03*
D25*
X42926Y42621D03*
D22*
X49098Y42621D03*
D28*
X55245Y42621D03*
D30*
X13411Y42672D03*
D21*
X19558Y42672D03*
D20*
X25730Y42672D03*
X42901Y42672D03*
X49047Y42672D03*
D29*
X55220Y42672D03*
D22*
X13437Y42723D03*
X19583Y42723D03*
D25*
X25756Y42723D03*
D24*
X42875Y42723D03*
D22*
X49047Y42723D03*
X55194Y42723D03*
X13487Y42774D03*
X19634Y42774D03*
D28*
X25781Y42774D03*
D22*
X42850Y42774D03*
X48997Y42774D03*
X55143Y42774D03*
D20*
X13487Y42824D03*
X19634Y42824D03*
X25832Y42824D03*
D26*
X42799Y42824D03*
D30*
X48971Y42824D03*
D20*
X55143Y42824D03*
D22*
X13538Y42875D03*
D28*
X19685Y42875D03*
D24*
X25857Y42875D03*
D25*
X42774Y42875D03*
D22*
X48946Y42875D03*
X55093Y42875D03*
D29*
X13564Y42926D03*
D26*
X19685Y42926D03*
D20*
X25883Y42926D03*
X42748Y42926D03*
D29*
X48920Y42926D03*
D30*
X55067Y42926D03*
D28*
X13589Y42977D03*
D22*
X19736Y42977D03*
D25*
X25908Y42977D03*
D24*
X42723Y42977D03*
D28*
X48895Y42977D03*
D22*
X55042Y42977D03*
D25*
X13614Y43028D03*
D23*
X19761Y43028D03*
D22*
X25933Y43028D03*
X42697Y43028D03*
X48844Y43028D03*
D25*
X55016Y43028D03*
D20*
X13640Y43078D03*
X19787Y43078D03*
D30*
X25959Y43078D03*
D29*
X42672Y43078D03*
D20*
X48844Y43078D03*
D26*
X54991Y43078D03*
D22*
X13691Y43129D03*
X19837Y43129D03*
X25984Y43129D03*
X42647Y43129D03*
X48793Y43129D03*
X54940Y43129D03*
D29*
X13716Y43180D03*
D20*
X19837Y43180D03*
D26*
X26035Y43180D03*
D20*
X42596Y43180D03*
D29*
X48768Y43180D03*
D30*
X54915Y43180D03*
D22*
X13741Y43231D03*
X19888Y43231D03*
D25*
X26060Y43231D03*
X42570Y43231D03*
D22*
X48743Y43231D03*
X54889Y43231D03*
D24*
X13767Y43282D03*
D23*
X19914Y43282D03*
D22*
X26086Y43282D03*
D28*
X42545Y43282D03*
D22*
X48692Y43282D03*
D25*
X54864Y43282D03*
D20*
X13792Y43332D03*
D26*
X19939Y43332D03*
D30*
X26111Y43332D03*
D29*
X42520Y43332D03*
D20*
X48692Y43332D03*
X54839Y43332D03*
D25*
X13818Y43383D03*
D22*
X19990Y43383D03*
X26137Y43383D03*
X42494Y43383D03*
D28*
X48641Y43383D03*
D24*
X54813Y43383D03*
D26*
X13843Y43434D03*
D20*
X19990Y43434D03*
X26187Y43434D03*
X42443Y43434D03*
D29*
X48616Y43434D03*
D20*
X54788Y43434D03*
D22*
X13894Y43485D03*
X20041Y43485D03*
X26187Y43485D03*
X42443Y43485D03*
X48590Y43485D03*
D28*
X54737Y43485D03*
D24*
X13919Y43536D03*
D22*
X20041Y43536D03*
X26238Y43536D03*
X42393Y43536D03*
D24*
X48565Y43536D03*
D25*
X54712Y43536D03*
D20*
X13945Y43586D03*
X20091Y43586D03*
D29*
X26264Y43586D03*
D30*
X42367Y43586D03*
D20*
X48539Y43586D03*
X54686Y43586D03*
D25*
X13970Y43637D03*
D23*
X20117Y43637D03*
D28*
X26289Y43637D03*
D22*
X42342Y43637D03*
X48489Y43637D03*
D24*
X54661Y43637D03*
D20*
X13995Y43688D03*
X20142Y43688D03*
D29*
X26314Y43688D03*
X42316Y43688D03*
D20*
X48489Y43688D03*
X54635Y43688D03*
D24*
X14021Y43739D03*
D28*
X20193Y43739D03*
D22*
X26340Y43739D03*
D28*
X42291Y43739D03*
D22*
X48438Y43739D03*
D25*
X54610Y43739D03*
D22*
X14046Y43790D03*
D28*
X20193Y43790D03*
D22*
X26391Y43790D03*
X42240Y43790D03*
D25*
X48412Y43790D03*
D22*
X54585Y43790D03*
D26*
X14097Y43840D03*
D20*
X20244Y43840D03*
D29*
X26416Y43840D03*
D30*
X42215Y43840D03*
D26*
X48387Y43840D03*
D20*
X54534Y43840D03*
D25*
X14122Y43891D03*
D22*
X20244Y43891D03*
X26441Y43891D03*
X42189Y43891D03*
D25*
X48362Y43891D03*
X54508Y43891D03*
D20*
X14148Y43942D03*
X20295Y43942D03*
D30*
X26467Y43942D03*
D29*
X42164Y43942D03*
D20*
X48336Y43942D03*
D26*
X54483Y43942D03*
D24*
X14173Y43993D03*
D23*
X20320Y43993D03*
D22*
X26492Y43993D03*
X42139Y43993D03*
X48285Y43993D03*
D25*
X54458Y43993D03*
D22*
X14199Y44044D03*
X20345Y44044D03*
D45*
X37389Y44044D03*
D22*
X54432Y44044D03*
D20*
X14249Y44094D03*
X20396Y44094D03*
D44*
X37389Y44094D03*
D20*
X54381Y44094D03*
D22*
X14249Y44145D03*
X20396Y44145D03*
D39*
X37389Y44145D03*
D22*
X54381Y44145D03*
D20*
X14300Y44196D03*
D26*
X20447Y44196D03*
D66*
X37414Y44196D03*
D20*
X54331Y44196D03*
D25*
X14326Y44247D03*
D23*
X20472Y44247D03*
D67*
X37389Y44247D03*
D24*
X54305Y44247D03*
D28*
X14351Y44298D03*
D22*
X20498Y44298D03*
D36*
X37414Y44298D03*
D22*
X54280Y44298D03*
D29*
X14376Y44348D03*
D21*
X20523Y44348D03*
D35*
X37389Y44348D03*
D29*
X54254Y44348D03*
D22*
X14402Y44399D03*
X20549Y44399D03*
D68*
X37389Y44399D03*
D28*
X54229Y44399D03*
D20*
X14453Y44450D03*
X20599Y44450D03*
D69*
X37389Y44450D03*
D20*
X54178Y44450D03*
D25*
X14478Y44501D03*
D22*
X20599Y44501D03*
D70*
X37389Y44501D03*
D24*
X54153Y44501D03*
D22*
X14503Y44552D03*
X20650Y44552D03*
D25*
X26822Y44552D03*
D22*
X54127Y44552D03*
D30*
X14529Y44602D03*
D21*
X20676Y44602D03*
D20*
X26848Y44602D03*
D29*
X54102Y44602D03*
D22*
X14554Y44653D03*
D28*
X20701Y44653D03*
D24*
X26873Y44653D03*
D22*
X54077Y44653D03*
D29*
X14580Y44704D03*
D21*
X20726Y44704D03*
D20*
X26899Y44704D03*
D30*
X54051Y44704D03*
D28*
X14605Y44755D03*
D22*
X20752Y44755D03*
X26949Y44755D03*
X54026Y44755D03*
X14656Y44806D03*
X20803Y44806D03*
X26949Y44806D03*
D28*
X53975Y44806D03*
D30*
X14681Y44856D03*
D20*
X20803Y44856D03*
X27000Y44856D03*
D29*
X53950Y44856D03*
D22*
X14707Y44907D03*
X20853Y44907D03*
D25*
X27026Y44907D03*
D22*
X53924Y44907D03*
D29*
X14732Y44958D03*
D21*
X20879Y44958D03*
D26*
X27051Y44958D03*
D30*
X53899Y44958D03*
D22*
X14757Y45009D03*
X20904Y45009D03*
D25*
X27076Y45009D03*
D22*
X53873Y45009D03*
X14808Y45060D03*
D23*
X20930Y45060D03*
D22*
X27102Y45060D03*
X53823Y45060D03*
D20*
X14808Y45110D03*
D26*
X20955Y45110D03*
D20*
X27153Y45110D03*
X53823Y45110D03*
D28*
X14859Y45161D03*
D22*
X21006Y45161D03*
D25*
X27178Y45161D03*
D22*
X53772Y45161D03*
D29*
X14884Y45212D03*
D20*
X21006Y45212D03*
X27203Y45212D03*
D29*
X53746Y45212D03*
D22*
X14910Y45263D03*
X21057Y45263D03*
D24*
X27229Y45263D03*
D28*
X53721Y45263D03*
D24*
X14935Y45314D03*
D23*
X21082Y45314D03*
D22*
X27254Y45314D03*
D25*
X53696Y45314D03*
D20*
X14961Y45364D03*
X21107Y45364D03*
D29*
X27280Y45364D03*
D20*
X53670Y45364D03*
D22*
X15011Y45415D03*
D23*
X21133Y45415D03*
D28*
X27305Y45415D03*
D22*
X53619Y45415D03*
D30*
X15037Y45466D03*
D20*
X21158Y45466D03*
X27356Y45466D03*
D29*
X53594Y45466D03*
D22*
X15062Y45517D03*
D28*
X21209Y45517D03*
D24*
X27381Y45517D03*
D22*
X53569Y45517D03*
D25*
X15088Y45568D03*
D23*
X21234Y45568D03*
D22*
X27407Y45568D03*
D24*
X53543Y45568D03*
D26*
X15113Y45618D03*
D20*
X21260Y45618D03*
D29*
X27432Y45618D03*
D20*
X53518Y45618D03*
D25*
X15138Y45669D03*
D23*
X21285Y45669D03*
D22*
X27457Y45669D03*
D25*
X53492Y45669D03*
D20*
X15164Y45720D03*
X21311Y45720D03*
D30*
X27483Y45720D03*
D26*
X53467Y45720D03*
D22*
X15215Y45771D03*
D23*
X21336Y45771D03*
D22*
X27508Y45771D03*
X53416Y45771D03*
D25*
X15240Y45822D03*
D22*
X21361Y45822D03*
D28*
X27559Y45822D03*
D24*
X53391Y45822D03*
D20*
X15265Y45872D03*
X21412Y45872D03*
D29*
X27584Y45872D03*
D20*
X53365Y45872D03*
D24*
X15291Y45923D03*
D23*
X21438Y45923D03*
D22*
X27610Y45923D03*
D25*
X53340Y45923D03*
D20*
X15316Y45974D03*
D26*
X21463Y45974D03*
D30*
X27635Y45974D03*
D20*
X53315Y45974D03*
D25*
X15342Y46025D03*
D23*
X21488Y46025D03*
D22*
X27661Y46025D03*
D24*
X53289Y46025D03*
D28*
X15367Y46076D03*
D22*
X21514Y46076D03*
X27711Y46076D03*
X53264Y46076D03*
D20*
X15418Y46126D03*
D21*
X21539Y46126D03*
D20*
X27711Y46126D03*
D26*
X53213Y46126D03*
D24*
X15443Y46177D03*
D22*
X21565Y46177D03*
X27762Y46177D03*
D25*
X53188Y46177D03*
D20*
X15469Y46228D03*
X21615Y46228D03*
D29*
X27788Y46228D03*
D20*
X53162Y46228D03*
D25*
X15494Y46279D03*
D23*
X21641Y46279D03*
D28*
X27813Y46279D03*
D24*
X53137Y46279D03*
D22*
X15519Y46330D03*
X21666Y46330D03*
D25*
X27838Y46330D03*
D22*
X53111Y46330D03*
D20*
X15570Y46380D03*
D21*
X21692Y46380D03*
D20*
X27864Y46380D03*
X53061Y46380D03*
D22*
X15570Y46431D03*
D28*
X21717Y46431D03*
D22*
X27915Y46431D03*
X53061Y46431D03*
D26*
X15621Y46482D03*
D21*
X21742Y46482D03*
D29*
X27940Y46482D03*
D20*
X53010Y46482D03*
D25*
X15646Y46533D03*
D22*
X21768Y46533D03*
X27965Y46533D03*
D25*
X52984Y46533D03*
D22*
X15672Y46584D03*
X21819Y46584D03*
D24*
X27991Y46584D03*
D28*
X52959Y46584D03*
D30*
X15697Y46634D03*
D21*
X21844Y46634D03*
D20*
X28016Y46634D03*
D29*
X52934Y46634D03*
D22*
X15723Y46685D03*
X21869Y46685D03*
D25*
X28042Y46685D03*
D22*
X52908Y46685D03*
D20*
X15773Y46736D03*
D21*
X21895Y46736D03*
D26*
X28067Y46736D03*
D20*
X52857Y46736D03*
D24*
X15799Y46787D03*
D22*
X21920Y46787D03*
X28118Y46787D03*
D25*
X52832Y46787D03*
D22*
X15824Y46838D03*
D23*
X21946Y46838D03*
D24*
X28143Y46838D03*
D22*
X52807Y46838D03*
D29*
X15850Y46888D03*
D21*
X21996Y46888D03*
D20*
X28169Y46888D03*
D30*
X52781Y46888D03*
D28*
X15875Y46939D03*
D22*
X22022Y46939D03*
D25*
X28194Y46939D03*
D22*
X52756Y46939D03*
D29*
X15900Y46990D03*
D21*
X22047Y46990D03*
D20*
X28219Y46990D03*
D29*
X52730Y46990D03*
D22*
X15926Y47041D03*
X22073Y47041D03*
X28270Y47041D03*
D28*
X52705Y47041D03*
D22*
X15977Y47092D03*
D23*
X22098Y47092D03*
D22*
X28270Y47092D03*
X52654Y47092D03*
D29*
X16002Y47142D03*
D20*
X22123Y47142D03*
D26*
X28321Y47142D03*
D30*
X52629Y47142D03*
D22*
X16027Y47193D03*
X22174Y47193D03*
D25*
X28346Y47193D03*
D22*
X52603Y47193D03*
D30*
X16053Y47244D03*
D21*
X22200Y47244D03*
D20*
X28372Y47244D03*
D29*
X52578Y47244D03*
D22*
X16078Y47295D03*
D28*
X22225Y47295D03*
D24*
X28397Y47295D03*
D22*
X52553Y47295D03*
D25*
X16104Y47346D03*
D23*
X22250Y47346D03*
D22*
X28423Y47346D03*
D24*
X52527Y47346D03*
D26*
X16129Y47396D03*
D20*
X22276Y47396D03*
X28473Y47396D03*
X52502Y47396D03*
D22*
X16180Y47447D03*
D23*
X22301Y47447D03*
D22*
X28473Y47447D03*
D28*
X52451Y47447D03*
D30*
X16205Y47498D03*
D20*
X22327Y47498D03*
X28524Y47498D03*
D29*
X52426Y47498D03*
D22*
X16231Y47549D03*
X22377Y47549D03*
D25*
X28550Y47549D03*
D22*
X52400Y47549D03*
D25*
X16256Y47600D03*
D23*
X22403Y47600D03*
D28*
X28575Y47600D03*
D24*
X52375Y47600D03*
D20*
X16281Y47650D03*
X22428Y47650D03*
D29*
X28600Y47650D03*
D20*
X52349Y47650D03*
D22*
X16332Y47701D03*
D23*
X22454Y47701D03*
D22*
X28626Y47701D03*
X52299Y47701D03*
D20*
X16332Y47752D03*
D26*
X22479Y47752D03*
D20*
X28677Y47752D03*
X52299Y47752D03*
D28*
X16383Y47803D03*
D23*
X22504Y47803D03*
D25*
X28702Y47803D03*
D22*
X52248Y47803D03*
D25*
X16408Y47854D03*
D23*
X22555Y47854D03*
D22*
X28727Y47854D03*
D25*
X52222Y47854D03*
D20*
X16434Y47904D03*
X22581Y47904D03*
D30*
X28753Y47904D03*
D26*
X52197Y47904D03*
D24*
X16459Y47955D03*
D23*
X22606Y47955D03*
D22*
X28778Y47955D03*
D25*
X52172Y47955D03*
D20*
X16485Y48006D03*
X22631Y48006D03*
D29*
X28804Y48006D03*
D20*
X52146Y48006D03*
D22*
X16535Y48057D03*
D23*
X22657Y48057D03*
D28*
X28829Y48057D03*
D22*
X52095Y48057D03*
D24*
X16561Y48108D03*
D22*
X22682Y48108D03*
X28880Y48108D03*
D25*
X52070Y48108D03*
D20*
X16586Y48158D03*
D21*
X22708Y48158D03*
D30*
X28905Y48158D03*
D20*
X52045Y48158D03*
D25*
X16612Y48209D03*
D23*
X22758Y48209D03*
D22*
X28931Y48209D03*
D24*
X52019Y48209D03*
D26*
X16637Y48260D03*
D20*
X22784Y48260D03*
D29*
X28956Y48260D03*
D20*
X51994Y48260D03*
D25*
X16662Y48311D03*
D23*
X22809Y48311D03*
D22*
X28981Y48311D03*
D25*
X51968Y48311D03*
D22*
X16688Y48362D03*
X22835Y48362D03*
X29032Y48362D03*
D28*
X51943Y48362D03*
D20*
X16739Y48412D03*
D21*
X22860Y48412D03*
D20*
X29032Y48412D03*
X51892Y48412D03*
D25*
X16764Y48463D03*
D22*
X22885Y48463D03*
D28*
X29083Y48463D03*
D24*
X51867Y48463D03*
D20*
X16789Y48514D03*
D21*
X22911Y48514D03*
D29*
X29108Y48514D03*
D20*
X51841Y48514D03*
D24*
X16815Y48565D03*
D23*
X22962Y48565D03*
D22*
X29134Y48565D03*
D25*
X51816Y48565D03*
D22*
X16840Y48616D03*
D28*
X22987Y48616D03*
D24*
X29159Y48616D03*
D22*
X51791Y48616D03*
D26*
X16891Y48666D03*
D21*
X23012Y48666D03*
D20*
X29185Y48666D03*
D30*
X51765Y48666D03*
D28*
X16891Y48717D03*
D22*
X23038Y48717D03*
X29235Y48717D03*
X51740Y48717D03*
D20*
X16942Y48768D03*
D21*
X23063Y48768D03*
D30*
X29261Y48768D03*
D26*
X51689Y48768D03*
D24*
X16967Y48819D03*
D22*
X23089Y48819D03*
X29286Y48819D03*
D25*
X51664Y48819D03*
D22*
X16993Y48870D03*
D23*
X23114Y48870D03*
D25*
X29312Y48870D03*
D22*
X51638Y48870D03*
D29*
X17018Y48920D03*
D21*
X23165Y48920D03*
D26*
X29337Y48920D03*
D30*
X51613Y48920D03*
D22*
X17043Y48971D03*
X23190Y48971D03*
D25*
X29362Y48971D03*
D22*
X51587Y48971D03*
D20*
X17094Y49022D03*
D21*
X23216Y49022D03*
D20*
X29388Y49022D03*
X51537Y49022D03*
D22*
X17094Y49073D03*
D28*
X23241Y49073D03*
D22*
X29439Y49073D03*
X51537Y49073D03*
D28*
X17145Y49124D03*
D23*
X23266Y49124D03*
D25*
X29464Y49124D03*
D22*
X51486Y49124D03*
D29*
X17170Y49174D03*
D21*
X23317Y49174D03*
D20*
X29489Y49174D03*
D29*
X51460Y49174D03*
D22*
X17196Y49225D03*
D23*
X23317Y49225D03*
D24*
X29515Y49225D03*
D28*
X51435Y49225D03*
D30*
X17221Y49276D03*
D21*
X23368Y49276D03*
D20*
X29540Y49276D03*
D29*
X51410Y49276D03*
D22*
X17247Y49327D03*
X23393Y49327D03*
D25*
X29566Y49327D03*
D22*
X51384Y49327D03*
X17297Y49378D03*
D23*
X23419Y49378D03*
D41*
X40462Y49378D03*
D30*
X17323Y49428D03*
D20*
X23444Y49428D03*
D40*
X40462Y49428D03*
D22*
X17348Y49479D03*
D23*
X23470Y49479D03*
D39*
X40488Y49479D03*
D29*
X17374Y49530D03*
D21*
X23520Y49530D03*
D66*
X40462Y49530D03*
D28*
X17399Y49581D03*
D23*
X23520Y49581D03*
D67*
X40488Y49581D03*
D25*
X17424Y49632D03*
D23*
X23571Y49632D03*
D36*
X40462Y49632D03*
D20*
X17450Y49682D03*
X23597Y49682D03*
D35*
X40488Y49682D03*
D22*
X17501Y49733D03*
D23*
X23622Y49733D03*
D34*
X40462Y49733D03*
D29*
X17526Y49784D03*
D20*
X23647Y49784D03*
D71*
X40462Y49784D03*
D22*
X17551Y49835D03*
D23*
X23673Y49835D03*
D70*
X40488Y49835D03*
D24*
X17577Y49886D03*
D23*
X23724Y49886D03*
D31*
X43028Y49886D03*
D20*
X17602Y49936D03*
D21*
X23724Y49936D03*
D20*
X51029Y49936D03*
D28*
X17653Y49987D03*
D23*
X23774Y49987D03*
D22*
X50978Y49987D03*
D26*
X17653Y50038D03*
D20*
X23800Y50038D03*
X50978Y50038D03*
D22*
X17704Y50089D03*
D23*
X23825Y50089D03*
D28*
X50927Y50089D03*
D24*
X17729Y50140D03*
D22*
X23851Y50140D03*
D25*
X50902Y50140D03*
D20*
X17755Y50190D03*
D21*
X23876Y50190D03*
D20*
X50876Y50190D03*
D25*
X17780Y50241D03*
D23*
X23927Y50241D03*
D24*
X50851Y50241D03*
D20*
X17805Y50292D03*
D21*
X23927Y50292D03*
D20*
X50825Y50292D03*
D22*
X17856Y50343D03*
D23*
X23978Y50343D03*
D22*
X50775Y50343D03*
D25*
X17882Y50394D03*
D28*
X24003Y50394D03*
D24*
X50749Y50394D03*
D26*
X17907Y50444D03*
D21*
X24028Y50444D03*
D20*
X50724Y50444D03*
D25*
X17932Y50495D03*
D23*
X24079Y50495D03*
D25*
X50698Y50495D03*
D20*
X17958Y50546D03*
D21*
X24079Y50546D03*
D26*
X50673Y50546D03*
D24*
X17983Y50597D03*
D23*
X24130Y50597D03*
D25*
X50648Y50597D03*
D22*
X18009Y50648D03*
D23*
X24130Y50648D03*
D22*
X50622Y50648D03*
D20*
X18059Y50698D03*
D21*
X24181Y50698D03*
D20*
X50571Y50698D03*
D24*
X18085Y50749D03*
D22*
X24206Y50749D03*
D25*
X50546Y50749D03*
D20*
X18110Y50800D03*
D21*
X24232Y50800D03*
D20*
X50521Y50800D03*
D25*
X18136Y50851D03*
D23*
X24282Y50851D03*
D24*
X50495Y50851D03*
D28*
X18161Y50902D03*
D23*
X24282Y50902D03*
D22*
X50470Y50902D03*
D29*
X18186Y50952D03*
D21*
X24333Y50952D03*
D29*
X50444Y50952D03*
D22*
X18212Y51003D03*
D23*
X24333Y51003D03*
D28*
X50419Y51003D03*
D20*
X18263Y51054D03*
D21*
X24384Y51054D03*
D20*
X50368Y51054D03*
D25*
X18288Y51105D03*
D22*
X24409Y51105D03*
D24*
X50343Y51105D03*
D22*
X18313Y51156D03*
D23*
X24435Y51156D03*
D22*
X50317Y51156D03*
D30*
X18339Y51206D03*
D21*
X24486Y51206D03*
D29*
X50292Y51206D03*
D22*
X18364Y51257D03*
D23*
X24486Y51257D03*
D22*
X50267Y51257D03*
D26*
X18415Y51308D03*
D21*
X24536Y51308D03*
D20*
X50216Y51308D03*
D28*
X18415Y51359D03*
D22*
X24562Y51359D03*
X50216Y51359D03*
X18466Y51410D03*
D23*
X24587Y51410D03*
D28*
X50165Y51410D03*
D30*
X18491Y51460D03*
D20*
X24613Y51460D03*
D29*
X50140Y51460D03*
D22*
X18517Y51511D03*
D23*
X24638Y51511D03*
D22*
X50114Y51511D03*
D29*
X18542Y51562D03*
D21*
X24689Y51562D03*
D30*
X50089Y51562D03*
D22*
X18567Y51613D03*
D23*
X24689Y51613D03*
D22*
X50063Y51613D03*
X18618Y51664D03*
D23*
X24740Y51664D03*
D22*
X50013Y51664D03*
D29*
X18644Y51714D03*
D26*
X24765Y51714D03*
D30*
X49987Y51714D03*
D28*
X18669Y51765D03*
D23*
X24790Y51765D03*
D22*
X49962Y51765D03*
D29*
X18694Y51816D03*
D21*
X24841Y51816D03*
D29*
X49936Y51816D03*
D22*
X18720Y51867D03*
D23*
X24841Y51867D03*
D28*
X49911Y51867D03*
D24*
X18745Y51918D03*
D23*
X24892Y51918D03*
D25*
X49886Y51918D03*
D20*
X18771Y51968D03*
D21*
X24892Y51968D03*
D20*
X49860Y51968D03*
D22*
X18821Y52019D03*
D23*
X24943Y52019D03*
D22*
X49809Y52019D03*
D30*
X18847Y52070D03*
D20*
X24968Y52070D03*
D29*
X49784Y52070D03*
D22*
X18872Y52121D03*
D23*
X24994Y52121D03*
D22*
X49759Y52121D03*
D25*
X18898Y52172D03*
D23*
X25044Y52172D03*
D24*
X49733Y52172D03*
D26*
X18923Y52222D03*
D21*
X25044Y52222D03*
D20*
X49708Y52222D03*
D25*
X18948Y52273D03*
D23*
X25095Y52273D03*
D25*
X49682Y52273D03*
D20*
X18974Y52324D03*
D21*
X25095Y52324D03*
D26*
X49657Y52324D03*
D22*
X19025Y52375D03*
D23*
X25146Y52375D03*
D22*
X49606Y52375D03*
D25*
X19050Y52426D03*
D22*
X25171Y52426D03*
D24*
X49581Y52426D03*
D20*
X19075Y52476D03*
D21*
X25197Y52476D03*
D20*
X49555Y52476D03*
D24*
X19101Y52527D03*
D23*
X25248Y52527D03*
D25*
X49530Y52527D03*
D20*
X19126Y52578D03*
D21*
X25248Y52578D03*
D20*
X49505Y52578D03*
D28*
X19177Y52629D03*
D23*
X25298Y52629D03*
D22*
X49454Y52629D03*
D28*
X19177Y52680D03*
D23*
X25298Y52680D03*
D22*
X49454Y52680D03*
D20*
X19228Y52730D03*
D21*
X25349Y52730D03*
D26*
X49403Y52730D03*
D24*
X19253Y52781D03*
D23*
X25400Y52781D03*
D25*
X49378Y52781D03*
D20*
X19279Y52832D03*
D21*
X25400Y52832D03*
D20*
X49352Y52832D03*
D25*
X19304Y52883D03*
D23*
X25451Y52883D03*
D24*
X49327Y52883D03*
D22*
X19329Y52934D03*
D23*
X25451Y52934D03*
D22*
X49301Y52934D03*
D20*
X19380Y52984D03*
D21*
X25502Y52984D03*
D20*
X49251Y52984D03*
D25*
X19406Y53035D03*
D23*
X25502Y53035D03*
D24*
X49225Y53035D03*
D26*
X19431Y53086D03*
D21*
X25552Y53086D03*
D20*
X49200Y53086D03*
D25*
X19456Y53137D03*
D23*
X25603Y53137D03*
D25*
X49174Y53137D03*
D22*
X19482Y53188D03*
D23*
X25603Y53188D03*
D28*
X49149Y53188D03*
D30*
X19507Y53238D03*
D21*
X25654Y53238D03*
D29*
X49124Y53238D03*
D22*
X19533Y53289D03*
D23*
X25654Y53289D03*
D22*
X49098Y53289D03*
D20*
X19583Y53340D03*
D21*
X25705Y53340D03*
D20*
X49047Y53340D03*
D24*
X19609Y53391D03*
D23*
X25705Y53391D03*
D25*
X49022Y53391D03*
D22*
X19634Y53442D03*
D23*
X25756Y53442D03*
D22*
X48997Y53442D03*
D29*
X19660Y53492D03*
D21*
X25806Y53492D03*
D30*
X48971Y53492D03*
D28*
X19685Y53543D03*
D23*
X25806Y53543D03*
D22*
X48946Y53543D03*
D20*
X19736Y53594D03*
D21*
X25857Y53594D03*
D26*
X48895Y53594D03*
D22*
X19736Y53645D03*
D23*
X25857Y53645D03*
D28*
X48895Y53645D03*
D22*
X19787Y53696D03*
D23*
X25908Y53696D03*
D22*
X48844Y53696D03*
D29*
X19812Y53746D03*
D21*
X25908Y53746D03*
D30*
X48819Y53746D03*
D22*
X19837Y53797D03*
D23*
X25959Y53797D03*
D22*
X48793Y53797D03*
D30*
X19863Y53848D03*
D21*
X26010Y53848D03*
D29*
X48768Y53848D03*
D22*
X19888Y53899D03*
D23*
X26010Y53899D03*
D22*
X48743Y53899D03*
D28*
X19939Y53950D03*
D23*
X26060Y53950D03*
D22*
X48692Y53950D03*
D26*
X19939Y54000D03*
D21*
X26060Y54000D03*
D20*
X48692Y54000D03*
D22*
X19990Y54051D03*
D23*
X26111Y54051D03*
D28*
X48641Y54051D03*
D30*
X20015Y54102D03*
D56*
X26137Y54102D03*
D29*
X48616Y54102D03*
D22*
X20041Y54153D03*
D23*
X26162Y54153D03*
D22*
X48590Y54153D03*
D25*
X20066Y54204D03*
D23*
X26213Y54204D03*
D24*
X48565Y54204D03*
D20*
X20091Y54254D03*
D21*
X26213Y54254D03*
D20*
X48539Y54254D03*
D22*
X20142Y54305D03*
D23*
X26264Y54305D03*
D22*
X48489Y54305D03*
D29*
X20168Y54356D03*
D21*
X26264Y54356D03*
D30*
X48463Y54356D03*
D28*
X20193Y54407D03*
D23*
X26314Y54407D03*
D22*
X48438Y54407D03*
D25*
X20218Y54458D03*
D27*
X26340Y54458D03*
D25*
X48412Y54458D03*
D20*
X20244Y54508D03*
D21*
X26365Y54508D03*
D26*
X48387Y54508D03*
D24*
X20269Y54559D03*
D23*
X26416Y54559D03*
D25*
X48362Y54559D03*
D20*
X20295Y54610D03*
D21*
X26416Y54610D03*
D20*
X48336Y54610D03*
D22*
X20345Y54661D03*
D23*
X26467Y54661D03*
D22*
X48285Y54661D03*
D19*
X34315Y54712D03*
D18*
X34315Y54762D03*
D17*
X34315Y54813D03*
D72*
X34315Y54864D03*
D15*
X34315Y54915D03*
X34315Y54966D03*
D14*
X34315Y55016D03*
D13*
X34315Y55067D03*
D73*
X34315Y55118D03*
D74*
X34315Y55169D03*
D75*
X113007Y48079D02*
X113007Y46640D01*
X113007Y48079D02*
X117805Y48079D01*
X117805Y45201D01*
X117803Y45115D01*
X117797Y45029D01*
X117788Y44943D01*
X117774Y44858D01*
X117757Y44774D01*
X117736Y44690D01*
X117711Y44608D01*
X117683Y44527D01*
X117651Y44447D01*
X117615Y44368D01*
X117576Y44292D01*
X117533Y44217D01*
X117488Y44144D01*
X117439Y44073D01*
X117386Y44005D01*
X117331Y43938D01*
X117273Y43875D01*
X117212Y43814D01*
X117149Y43756D01*
X117082Y43701D01*
X117014Y43649D01*
X116943Y43599D01*
X116870Y43554D01*
X116795Y43511D01*
X116719Y43472D01*
X116640Y43436D01*
X116560Y43404D01*
X116479Y43376D01*
X116397Y43351D01*
X116313Y43330D01*
X116229Y43313D01*
X116144Y43299D01*
X116058Y43290D01*
X115972Y43284D01*
X115886Y43282D01*
X111088Y43282D01*
X111002Y43284D01*
X110916Y43290D01*
X110830Y43299D01*
X110745Y43313D01*
X110661Y43330D01*
X110577Y43351D01*
X110495Y43376D01*
X110414Y43404D01*
X110334Y43436D01*
X110255Y43472D01*
X110179Y43511D01*
X110104Y43554D01*
X110031Y43599D01*
X109960Y43648D01*
X109892Y43701D01*
X109825Y43756D01*
X109762Y43814D01*
X109701Y43875D01*
X109643Y43938D01*
X109588Y44005D01*
X109536Y44073D01*
X109486Y44144D01*
X109441Y44217D01*
X109398Y44292D01*
X109359Y44368D01*
X109323Y44447D01*
X109291Y44527D01*
X109263Y44608D01*
X109238Y44690D01*
X109217Y44774D01*
X109200Y44858D01*
X109186Y44943D01*
X109177Y45029D01*
X109171Y45115D01*
X109169Y45201D01*
X109169Y48079D01*
X109169Y53035D02*
X117805Y53035D01*
X117805Y57833D02*
X109169Y53035D01*
X109169Y57833D02*
X117805Y57833D01*
X117805Y62789D02*
X109169Y62789D01*
X109169Y65188D01*
X109171Y65285D01*
X109177Y65381D01*
X109186Y65477D01*
X109200Y65573D01*
X109217Y65668D01*
X109239Y65762D01*
X109264Y65855D01*
X109292Y65948D01*
X109325Y66039D01*
X109361Y66128D01*
X109401Y66216D01*
X109444Y66303D01*
X109490Y66388D01*
X109540Y66470D01*
X109594Y66551D01*
X109650Y66629D01*
X109710Y66705D01*
X109772Y66779D01*
X109838Y66850D01*
X109906Y66918D01*
X109977Y66984D01*
X110051Y67046D01*
X110127Y67106D01*
X110205Y67162D01*
X110286Y67216D01*
X110369Y67266D01*
X110453Y67312D01*
X110540Y67355D01*
X110628Y67395D01*
X110717Y67431D01*
X110808Y67464D01*
X110901Y67492D01*
X110994Y67517D01*
X111088Y67539D01*
X111183Y67556D01*
X111279Y67570D01*
X111375Y67579D01*
X111471Y67585D01*
X111568Y67587D01*
X111568Y67586D02*
X115406Y67586D01*
X115406Y67587D02*
X115503Y67585D01*
X115599Y67579D01*
X115695Y67570D01*
X115791Y67556D01*
X115886Y67539D01*
X115980Y67517D01*
X116073Y67492D01*
X116166Y67464D01*
X116257Y67431D01*
X116346Y67395D01*
X116434Y67355D01*
X116521Y67312D01*
X116606Y67266D01*
X116688Y67216D01*
X116769Y67162D01*
X116847Y67106D01*
X116923Y67046D01*
X116997Y66984D01*
X117068Y66918D01*
X117136Y66850D01*
X117202Y66779D01*
X117264Y66705D01*
X117324Y66629D01*
X117380Y66551D01*
X117434Y66470D01*
X117484Y66388D01*
X117530Y66303D01*
X117573Y66216D01*
X117613Y66128D01*
X117649Y66039D01*
X117682Y65948D01*
X117710Y65855D01*
X117735Y65762D01*
X117757Y65668D01*
X117774Y65573D01*
X117788Y65477D01*
X117797Y65381D01*
X117803Y65285D01*
X117805Y65188D01*
X117805Y62789D01*
X134722Y43078D02*
X143358Y43078D01*
X139519Y45957D02*
X134722Y43078D01*
X139519Y45957D02*
X134722Y48836D01*
X143358Y48836D01*
X140959Y53617D02*
X137121Y53617D01*
X137121Y53616D02*
X137024Y53618D01*
X136928Y53624D01*
X136832Y53633D01*
X136736Y53647D01*
X136641Y53664D01*
X136547Y53686D01*
X136454Y53711D01*
X136361Y53739D01*
X136270Y53772D01*
X136181Y53808D01*
X136093Y53848D01*
X136006Y53891D01*
X135921Y53937D01*
X135839Y53987D01*
X135758Y54041D01*
X135680Y54097D01*
X135604Y54157D01*
X135530Y54219D01*
X135459Y54285D01*
X135391Y54353D01*
X135325Y54424D01*
X135263Y54498D01*
X135203Y54574D01*
X135147Y54652D01*
X135093Y54733D01*
X135043Y54816D01*
X134997Y54900D01*
X134954Y54987D01*
X134914Y55075D01*
X134878Y55164D01*
X134845Y55255D01*
X134817Y55348D01*
X134792Y55441D01*
X134770Y55535D01*
X134753Y55630D01*
X134739Y55726D01*
X134730Y55822D01*
X134724Y55918D01*
X134722Y56015D01*
X134724Y56112D01*
X134730Y56208D01*
X134739Y56304D01*
X134753Y56400D01*
X134770Y56495D01*
X134792Y56589D01*
X134817Y56682D01*
X134845Y56775D01*
X134878Y56866D01*
X134914Y56955D01*
X134954Y57043D01*
X134997Y57130D01*
X135043Y57215D01*
X135093Y57297D01*
X135147Y57378D01*
X135203Y57456D01*
X135263Y57532D01*
X135325Y57606D01*
X135391Y57677D01*
X135459Y57745D01*
X135530Y57811D01*
X135604Y57873D01*
X135680Y57933D01*
X135758Y57989D01*
X135839Y58043D01*
X135922Y58093D01*
X136006Y58139D01*
X136093Y58182D01*
X136181Y58222D01*
X136270Y58258D01*
X136361Y58291D01*
X136454Y58319D01*
X136547Y58344D01*
X136641Y58366D01*
X136736Y58383D01*
X136832Y58397D01*
X136928Y58406D01*
X137024Y58412D01*
X137121Y58414D01*
X140959Y58414D01*
X141056Y58412D01*
X141152Y58406D01*
X141248Y58397D01*
X141344Y58383D01*
X141439Y58366D01*
X141533Y58344D01*
X141626Y58319D01*
X141719Y58291D01*
X141810Y58258D01*
X141899Y58222D01*
X141987Y58182D01*
X142074Y58139D01*
X142159Y58093D01*
X142241Y58043D01*
X142322Y57989D01*
X142400Y57933D01*
X142476Y57873D01*
X142550Y57811D01*
X142621Y57745D01*
X142689Y57677D01*
X142755Y57606D01*
X142817Y57532D01*
X142877Y57456D01*
X142933Y57378D01*
X142987Y57297D01*
X143037Y57214D01*
X143083Y57130D01*
X143126Y57043D01*
X143166Y56955D01*
X143202Y56866D01*
X143235Y56775D01*
X143263Y56682D01*
X143288Y56589D01*
X143310Y56495D01*
X143327Y56400D01*
X143341Y56304D01*
X143350Y56208D01*
X143356Y56112D01*
X143358Y56015D01*
X143356Y55918D01*
X143350Y55822D01*
X143341Y55726D01*
X143327Y55630D01*
X143310Y55535D01*
X143288Y55441D01*
X143263Y55348D01*
X143235Y55255D01*
X143202Y55164D01*
X143166Y55075D01*
X143126Y54987D01*
X143083Y54900D01*
X143037Y54815D01*
X142987Y54733D01*
X142933Y54652D01*
X142877Y54574D01*
X142817Y54498D01*
X142755Y54424D01*
X142689Y54353D01*
X142621Y54285D01*
X142550Y54219D01*
X142476Y54157D01*
X142400Y54097D01*
X142322Y54041D01*
X142241Y53987D01*
X142159Y53937D01*
X142074Y53891D01*
X141987Y53848D01*
X141899Y53808D01*
X141810Y53772D01*
X141719Y53739D01*
X141626Y53711D01*
X141533Y53686D01*
X141439Y53664D01*
X141344Y53647D01*
X141248Y53633D01*
X141152Y53624D01*
X141056Y53618D01*
X140959Y53616D01*
X143358Y65334D02*
X143356Y65420D01*
X143350Y65506D01*
X143341Y65592D01*
X143327Y65677D01*
X143310Y65761D01*
X143289Y65845D01*
X143264Y65927D01*
X143236Y66008D01*
X143204Y66088D01*
X143168Y66167D01*
X143129Y66243D01*
X143086Y66318D01*
X143041Y66391D01*
X142992Y66462D01*
X142939Y66530D01*
X142884Y66597D01*
X142826Y66660D01*
X142765Y66721D01*
X142702Y66779D01*
X142635Y66834D01*
X142567Y66887D01*
X142496Y66936D01*
X142423Y66981D01*
X142348Y67024D01*
X142272Y67063D01*
X142193Y67099D01*
X142113Y67131D01*
X142032Y67159D01*
X141950Y67184D01*
X141866Y67205D01*
X141782Y67222D01*
X141697Y67236D01*
X141611Y67245D01*
X141525Y67251D01*
X141439Y67253D01*
X143357Y65334D02*
X143355Y65211D01*
X143350Y65088D01*
X143340Y64965D01*
X143327Y64843D01*
X143310Y64721D01*
X143290Y64599D01*
X143266Y64479D01*
X143238Y64359D01*
X143207Y64240D01*
X143171Y64122D01*
X143133Y64005D01*
X143091Y63889D01*
X143045Y63775D01*
X142996Y63662D01*
X142944Y63551D01*
X142888Y63441D01*
X142829Y63333D01*
X142766Y63227D01*
X142701Y63123D01*
X142632Y63020D01*
X142560Y62920D01*
X142485Y62823D01*
X142408Y62727D01*
X142327Y62634D01*
X142244Y62543D01*
X142158Y62455D01*
X136641Y62696D02*
X136555Y62698D01*
X136469Y62704D01*
X136383Y62713D01*
X136298Y62727D01*
X136214Y62744D01*
X136130Y62765D01*
X136048Y62790D01*
X135967Y62818D01*
X135887Y62850D01*
X135808Y62886D01*
X135732Y62925D01*
X135657Y62968D01*
X135584Y63013D01*
X135513Y63062D01*
X135445Y63115D01*
X135378Y63170D01*
X135315Y63228D01*
X135254Y63289D01*
X135196Y63352D01*
X135141Y63419D01*
X135088Y63487D01*
X135039Y63558D01*
X134994Y63631D01*
X134951Y63706D01*
X134912Y63782D01*
X134876Y63861D01*
X134844Y63941D01*
X134816Y64022D01*
X134791Y64104D01*
X134770Y64188D01*
X134753Y64272D01*
X134739Y64357D01*
X134730Y64443D01*
X134724Y64529D01*
X134722Y64615D01*
X134724Y64731D01*
X134729Y64846D01*
X134739Y64962D01*
X134752Y65077D01*
X134768Y65191D01*
X134789Y65305D01*
X134813Y65419D01*
X134841Y65531D01*
X134872Y65642D01*
X134907Y65753D01*
X134945Y65862D01*
X134987Y65970D01*
X135032Y66076D01*
X135081Y66182D01*
X135133Y66285D01*
X135188Y66387D01*
X135247Y66486D01*
X135309Y66584D01*
X135374Y66680D01*
X135442Y66774D01*
X138320Y63656D02*
X138274Y63581D01*
X138224Y63508D01*
X138171Y63438D01*
X138115Y63370D01*
X138056Y63305D01*
X137994Y63242D01*
X137930Y63183D01*
X137862Y63126D01*
X137792Y63072D01*
X137720Y63022D01*
X137646Y62975D01*
X137570Y62931D01*
X137491Y62891D01*
X137411Y62855D01*
X137330Y62822D01*
X137247Y62793D01*
X137162Y62767D01*
X137077Y62745D01*
X136991Y62728D01*
X136904Y62714D01*
X136817Y62704D01*
X136729Y62698D01*
X136641Y62696D01*
X139760Y66294D02*
X139806Y66368D01*
X139856Y66441D01*
X139909Y66511D01*
X139965Y66579D01*
X140024Y66644D01*
X140086Y66707D01*
X140151Y66766D01*
X140218Y66823D01*
X140288Y66877D01*
X140360Y66927D01*
X140434Y66974D01*
X140510Y67018D01*
X140589Y67058D01*
X140669Y67094D01*
X140750Y67127D01*
X140833Y67157D01*
X140918Y67182D01*
X141003Y67204D01*
X141089Y67221D01*
X141176Y67235D01*
X141263Y67245D01*
X141351Y67251D01*
X141439Y67253D01*
X139759Y66294D02*
X138320Y63655D01*
X134722Y71865D02*
X143358Y71865D01*
X143358Y70905D02*
X143358Y72825D01*
X134722Y72825D02*
X134722Y70905D01*
X159868Y43282D02*
X168504Y43282D01*
X164665Y46160D02*
X159868Y43282D01*
X164665Y46160D02*
X159868Y49039D01*
X168504Y49039D01*
X168504Y54390D02*
X159868Y54390D01*
X168504Y53430D02*
X168504Y55349D01*
X159868Y55349D02*
X159868Y53430D01*
X168504Y61880D02*
X168502Y61966D01*
X168496Y62052D01*
X168487Y62138D01*
X168473Y62223D01*
X168456Y62307D01*
X168435Y62391D01*
X168410Y62473D01*
X168382Y62554D01*
X168350Y62634D01*
X168314Y62713D01*
X168275Y62789D01*
X168232Y62864D01*
X168187Y62937D01*
X168138Y63008D01*
X168085Y63076D01*
X168030Y63143D01*
X167972Y63206D01*
X167911Y63267D01*
X167848Y63325D01*
X167781Y63380D01*
X167713Y63433D01*
X167642Y63482D01*
X167569Y63527D01*
X167494Y63570D01*
X167418Y63609D01*
X167339Y63645D01*
X167259Y63677D01*
X167178Y63705D01*
X167096Y63730D01*
X167012Y63751D01*
X166928Y63768D01*
X166843Y63782D01*
X166757Y63791D01*
X166671Y63797D01*
X166585Y63799D01*
X168503Y61880D02*
X168501Y61757D01*
X168496Y61634D01*
X168486Y61511D01*
X168473Y61389D01*
X168456Y61267D01*
X168436Y61145D01*
X168412Y61025D01*
X168384Y60905D01*
X168353Y60786D01*
X168317Y60668D01*
X168279Y60551D01*
X168237Y60435D01*
X168191Y60321D01*
X168142Y60208D01*
X168090Y60097D01*
X168034Y59987D01*
X167975Y59879D01*
X167912Y59773D01*
X167847Y59669D01*
X167778Y59566D01*
X167706Y59466D01*
X167631Y59369D01*
X167554Y59273D01*
X167473Y59180D01*
X167390Y59089D01*
X167304Y59001D01*
X161787Y59241D02*
X161701Y59243D01*
X161615Y59249D01*
X161529Y59258D01*
X161444Y59272D01*
X161360Y59289D01*
X161276Y59310D01*
X161194Y59335D01*
X161113Y59363D01*
X161033Y59395D01*
X160954Y59431D01*
X160878Y59470D01*
X160803Y59513D01*
X160730Y59558D01*
X160659Y59607D01*
X160591Y59660D01*
X160524Y59715D01*
X160461Y59773D01*
X160400Y59834D01*
X160342Y59897D01*
X160287Y59964D01*
X160234Y60032D01*
X160185Y60103D01*
X160140Y60176D01*
X160097Y60251D01*
X160058Y60327D01*
X160022Y60406D01*
X159990Y60486D01*
X159962Y60567D01*
X159937Y60649D01*
X159916Y60733D01*
X159899Y60817D01*
X159885Y60902D01*
X159876Y60988D01*
X159870Y61074D01*
X159868Y61160D01*
X159870Y61276D01*
X159875Y61391D01*
X159885Y61507D01*
X159898Y61622D01*
X159914Y61736D01*
X159935Y61850D01*
X159959Y61964D01*
X159987Y62076D01*
X160018Y62187D01*
X160053Y62298D01*
X160091Y62407D01*
X160133Y62515D01*
X160178Y62621D01*
X160227Y62727D01*
X160279Y62830D01*
X160334Y62932D01*
X160393Y63031D01*
X160455Y63129D01*
X160520Y63225D01*
X160588Y63319D01*
X163466Y60201D02*
X163420Y60126D01*
X163370Y60053D01*
X163317Y59983D01*
X163261Y59915D01*
X163202Y59850D01*
X163140Y59787D01*
X163076Y59728D01*
X163008Y59671D01*
X162938Y59617D01*
X162866Y59567D01*
X162792Y59520D01*
X162716Y59476D01*
X162637Y59436D01*
X162557Y59400D01*
X162476Y59367D01*
X162393Y59338D01*
X162308Y59312D01*
X162223Y59290D01*
X162137Y59273D01*
X162050Y59259D01*
X161963Y59249D01*
X161875Y59243D01*
X161787Y59241D01*
X164906Y62840D02*
X164952Y62914D01*
X165002Y62987D01*
X165055Y63057D01*
X165111Y63125D01*
X165170Y63190D01*
X165232Y63253D01*
X165297Y63312D01*
X165364Y63369D01*
X165434Y63423D01*
X165506Y63473D01*
X165580Y63520D01*
X165656Y63564D01*
X165735Y63604D01*
X165815Y63640D01*
X165896Y63673D01*
X165979Y63703D01*
X166064Y63728D01*
X166149Y63750D01*
X166235Y63767D01*
X166322Y63781D01*
X166409Y63791D01*
X166497Y63797D01*
X166585Y63799D01*
X164905Y62840D02*
X163466Y60201D01*
X162267Y67840D02*
X166105Y67840D01*
X162267Y67840D02*
X162170Y67842D01*
X162074Y67848D01*
X161978Y67857D01*
X161882Y67871D01*
X161787Y67888D01*
X161693Y67910D01*
X161600Y67935D01*
X161507Y67963D01*
X161416Y67996D01*
X161327Y68032D01*
X161239Y68072D01*
X161152Y68115D01*
X161067Y68161D01*
X160985Y68211D01*
X160904Y68265D01*
X160826Y68321D01*
X160750Y68381D01*
X160676Y68443D01*
X160605Y68509D01*
X160537Y68577D01*
X160471Y68648D01*
X160409Y68722D01*
X160349Y68798D01*
X160293Y68876D01*
X160239Y68957D01*
X160189Y69040D01*
X160143Y69124D01*
X160100Y69211D01*
X160060Y69299D01*
X160024Y69388D01*
X159991Y69479D01*
X159963Y69572D01*
X159938Y69665D01*
X159916Y69759D01*
X159899Y69854D01*
X159885Y69950D01*
X159876Y70046D01*
X159870Y70142D01*
X159868Y70239D01*
X159870Y70336D01*
X159876Y70432D01*
X159885Y70528D01*
X159899Y70624D01*
X159916Y70719D01*
X159938Y70813D01*
X159963Y70906D01*
X159991Y70999D01*
X160024Y71090D01*
X160060Y71179D01*
X160100Y71267D01*
X160143Y71354D01*
X160189Y71439D01*
X160239Y71521D01*
X160293Y71602D01*
X160349Y71680D01*
X160409Y71756D01*
X160471Y71830D01*
X160537Y71901D01*
X160605Y71969D01*
X160676Y72035D01*
X160750Y72097D01*
X160826Y72157D01*
X160904Y72213D01*
X160985Y72267D01*
X161068Y72317D01*
X161152Y72363D01*
X161239Y72406D01*
X161327Y72446D01*
X161416Y72482D01*
X161507Y72515D01*
X161600Y72543D01*
X161693Y72568D01*
X161787Y72590D01*
X161882Y72607D01*
X161978Y72621D01*
X162074Y72630D01*
X162170Y72636D01*
X162267Y72638D01*
X166105Y72638D01*
X166202Y72636D01*
X166298Y72630D01*
X166394Y72621D01*
X166490Y72607D01*
X166585Y72590D01*
X166679Y72568D01*
X166772Y72543D01*
X166865Y72515D01*
X166956Y72482D01*
X167045Y72446D01*
X167133Y72406D01*
X167220Y72363D01*
X167305Y72317D01*
X167387Y72267D01*
X167468Y72213D01*
X167546Y72157D01*
X167622Y72097D01*
X167696Y72035D01*
X167767Y71969D01*
X167835Y71901D01*
X167901Y71830D01*
X167963Y71756D01*
X168023Y71680D01*
X168079Y71602D01*
X168133Y71521D01*
X168183Y71438D01*
X168229Y71354D01*
X168272Y71267D01*
X168312Y71179D01*
X168348Y71090D01*
X168381Y70999D01*
X168409Y70906D01*
X168434Y70813D01*
X168456Y70719D01*
X168473Y70624D01*
X168487Y70528D01*
X168496Y70432D01*
X168502Y70336D01*
X168504Y70239D01*
X168502Y70142D01*
X168496Y70046D01*
X168487Y69950D01*
X168473Y69854D01*
X168456Y69759D01*
X168434Y69665D01*
X168409Y69572D01*
X168381Y69479D01*
X168348Y69388D01*
X168312Y69299D01*
X168272Y69211D01*
X168229Y69124D01*
X168183Y69039D01*
X168133Y68957D01*
X168079Y68876D01*
X168023Y68798D01*
X167963Y68722D01*
X167901Y68648D01*
X167835Y68577D01*
X167767Y68509D01*
X167696Y68443D01*
X167622Y68381D01*
X167546Y68321D01*
X167468Y68265D01*
X167387Y68211D01*
X167305Y68161D01*
X167220Y68115D01*
X167133Y68072D01*
X167045Y68032D01*
X166956Y67996D01*
X166865Y67963D01*
X166772Y67935D01*
X166679Y67910D01*
X166585Y67888D01*
X166490Y67871D01*
X166394Y67857D01*
X166298Y67848D01*
X166202Y67842D01*
X166105Y67840D01*
X194259Y45477D02*
X194259Y43078D01*
X194259Y45477D02*
X194257Y45574D01*
X194251Y45670D01*
X194242Y45766D01*
X194228Y45862D01*
X194211Y45957D01*
X194189Y46051D01*
X194164Y46144D01*
X194136Y46237D01*
X194103Y46328D01*
X194067Y46417D01*
X194027Y46505D01*
X193984Y46592D01*
X193938Y46677D01*
X193888Y46759D01*
X193834Y46840D01*
X193778Y46918D01*
X193718Y46994D01*
X193656Y47068D01*
X193590Y47139D01*
X193522Y47207D01*
X193451Y47273D01*
X193377Y47335D01*
X193301Y47395D01*
X193223Y47451D01*
X193142Y47505D01*
X193060Y47555D01*
X192975Y47601D01*
X192888Y47644D01*
X192800Y47684D01*
X192711Y47720D01*
X192620Y47753D01*
X192527Y47781D01*
X192434Y47806D01*
X192340Y47828D01*
X192245Y47845D01*
X192149Y47859D01*
X192053Y47868D01*
X191957Y47874D01*
X191860Y47876D01*
X191763Y47874D01*
X191667Y47868D01*
X191571Y47859D01*
X191475Y47845D01*
X191380Y47828D01*
X191286Y47806D01*
X191193Y47781D01*
X191100Y47753D01*
X191009Y47720D01*
X190920Y47684D01*
X190832Y47644D01*
X190745Y47601D01*
X190661Y47555D01*
X190578Y47505D01*
X190497Y47451D01*
X190419Y47395D01*
X190343Y47335D01*
X190269Y47273D01*
X190198Y47207D01*
X190130Y47139D01*
X190064Y47068D01*
X190002Y46994D01*
X189942Y46918D01*
X189886Y46840D01*
X189832Y46759D01*
X189782Y46677D01*
X189736Y46592D01*
X189693Y46505D01*
X189653Y46417D01*
X189617Y46328D01*
X189584Y46237D01*
X189556Y46144D01*
X189531Y46051D01*
X189509Y45957D01*
X189492Y45862D01*
X189478Y45766D01*
X189469Y45670D01*
X189463Y45574D01*
X189461Y45477D01*
X185623Y45957D02*
X185623Y43078D01*
X185623Y45957D02*
X185625Y46043D01*
X185631Y46129D01*
X185640Y46215D01*
X185654Y46300D01*
X185671Y46384D01*
X185692Y46468D01*
X185717Y46550D01*
X185745Y46631D01*
X185777Y46711D01*
X185813Y46790D01*
X185852Y46866D01*
X185895Y46941D01*
X185940Y47014D01*
X185989Y47085D01*
X186042Y47153D01*
X186097Y47220D01*
X186155Y47283D01*
X186216Y47344D01*
X186279Y47402D01*
X186346Y47457D01*
X186414Y47510D01*
X186485Y47559D01*
X186558Y47604D01*
X186633Y47647D01*
X186709Y47686D01*
X186788Y47722D01*
X186868Y47754D01*
X186949Y47782D01*
X187031Y47807D01*
X187115Y47828D01*
X187199Y47845D01*
X187284Y47859D01*
X187370Y47868D01*
X187456Y47874D01*
X187542Y47876D01*
X187628Y47874D01*
X187714Y47868D01*
X187800Y47859D01*
X187885Y47845D01*
X187969Y47828D01*
X188053Y47807D01*
X188135Y47782D01*
X188216Y47754D01*
X188296Y47722D01*
X188375Y47686D01*
X188451Y47647D01*
X188526Y47604D01*
X188599Y47559D01*
X188670Y47510D01*
X188738Y47457D01*
X188805Y47402D01*
X188868Y47344D01*
X188929Y47283D01*
X188987Y47220D01*
X189042Y47153D01*
X189095Y47085D01*
X189144Y47014D01*
X189189Y46941D01*
X189232Y46866D01*
X189271Y46790D01*
X189307Y46711D01*
X189339Y46631D01*
X189367Y46550D01*
X189392Y46468D01*
X189413Y46384D01*
X189430Y46300D01*
X189444Y46215D01*
X189453Y46129D01*
X189459Y46043D01*
X189461Y45957D01*
X189461Y44038D01*
X193779Y51638D02*
X194259Y51638D01*
X193779Y51638D02*
X193779Y52118D01*
X194259Y52118D01*
X194259Y51638D01*
X194259Y55880D02*
X194259Y58279D01*
X194257Y58376D01*
X194251Y58472D01*
X194242Y58568D01*
X194228Y58664D01*
X194211Y58759D01*
X194189Y58853D01*
X194164Y58946D01*
X194136Y59039D01*
X194103Y59130D01*
X194067Y59219D01*
X194027Y59307D01*
X193984Y59394D01*
X193938Y59479D01*
X193888Y59561D01*
X193834Y59642D01*
X193778Y59720D01*
X193718Y59796D01*
X193656Y59870D01*
X193590Y59941D01*
X193522Y60009D01*
X193451Y60075D01*
X193377Y60137D01*
X193301Y60197D01*
X193223Y60253D01*
X193142Y60307D01*
X193060Y60357D01*
X192975Y60403D01*
X192888Y60446D01*
X192800Y60486D01*
X192711Y60522D01*
X192620Y60555D01*
X192527Y60583D01*
X192434Y60608D01*
X192340Y60630D01*
X192245Y60647D01*
X192149Y60661D01*
X192053Y60670D01*
X191957Y60676D01*
X191860Y60678D01*
X191763Y60676D01*
X191667Y60670D01*
X191571Y60661D01*
X191475Y60647D01*
X191380Y60630D01*
X191286Y60608D01*
X191193Y60583D01*
X191100Y60555D01*
X191009Y60522D01*
X190920Y60486D01*
X190832Y60446D01*
X190745Y60403D01*
X190661Y60357D01*
X190578Y60307D01*
X190497Y60253D01*
X190419Y60197D01*
X190343Y60137D01*
X190269Y60075D01*
X190198Y60009D01*
X190130Y59941D01*
X190064Y59870D01*
X190002Y59796D01*
X189942Y59720D01*
X189886Y59642D01*
X189832Y59561D01*
X189782Y59479D01*
X189736Y59394D01*
X189693Y59307D01*
X189653Y59219D01*
X189617Y59130D01*
X189584Y59039D01*
X189556Y58946D01*
X189531Y58853D01*
X189509Y58759D01*
X189492Y58664D01*
X189478Y58568D01*
X189469Y58472D01*
X189463Y58376D01*
X189461Y58279D01*
X185623Y58759D02*
X185623Y55880D01*
X185623Y58759D02*
X185625Y58845D01*
X185631Y58931D01*
X185640Y59017D01*
X185654Y59102D01*
X185671Y59186D01*
X185692Y59270D01*
X185717Y59352D01*
X185745Y59433D01*
X185777Y59513D01*
X185813Y59592D01*
X185852Y59668D01*
X185895Y59743D01*
X185940Y59816D01*
X185989Y59887D01*
X186042Y59955D01*
X186097Y60022D01*
X186155Y60085D01*
X186216Y60146D01*
X186279Y60204D01*
X186346Y60259D01*
X186414Y60312D01*
X186485Y60361D01*
X186558Y60406D01*
X186633Y60449D01*
X186709Y60488D01*
X186788Y60524D01*
X186868Y60556D01*
X186949Y60584D01*
X187031Y60609D01*
X187115Y60630D01*
X187199Y60647D01*
X187284Y60661D01*
X187370Y60670D01*
X187456Y60676D01*
X187542Y60678D01*
X187628Y60676D01*
X187714Y60670D01*
X187800Y60661D01*
X187885Y60647D01*
X187969Y60630D01*
X188053Y60609D01*
X188135Y60584D01*
X188216Y60556D01*
X188296Y60524D01*
X188375Y60488D01*
X188451Y60449D01*
X188526Y60406D01*
X188599Y60361D01*
X188670Y60312D01*
X188738Y60259D01*
X188805Y60204D01*
X188868Y60146D01*
X188929Y60085D01*
X188987Y60022D01*
X189042Y59955D01*
X189095Y59887D01*
X189144Y59816D01*
X189189Y59743D01*
X189232Y59668D01*
X189271Y59592D01*
X189307Y59513D01*
X189339Y59433D01*
X189367Y59352D01*
X189392Y59270D01*
X189413Y59186D01*
X189430Y59102D01*
X189444Y59017D01*
X189453Y58931D01*
X189459Y58845D01*
X189461Y58759D01*
X189461Y56840D01*
X185623Y64544D02*
X194259Y67423D01*
X185623Y70301D01*
X118313Y133218D02*
X118311Y133304D01*
X118305Y133390D01*
X118296Y133476D01*
X118282Y133561D01*
X118265Y133645D01*
X118244Y133729D01*
X118219Y133811D01*
X118191Y133892D01*
X118159Y133972D01*
X118123Y134051D01*
X118084Y134127D01*
X118041Y134202D01*
X117996Y134275D01*
X117947Y134346D01*
X117894Y134414D01*
X117839Y134481D01*
X117781Y134544D01*
X117720Y134605D01*
X117657Y134663D01*
X117590Y134718D01*
X117522Y134771D01*
X117451Y134820D01*
X117378Y134865D01*
X117303Y134908D01*
X117227Y134947D01*
X117148Y134983D01*
X117068Y135015D01*
X116987Y135043D01*
X116905Y135068D01*
X116821Y135089D01*
X116737Y135106D01*
X116652Y135120D01*
X116566Y135129D01*
X116480Y135135D01*
X116394Y135137D01*
X118313Y133218D02*
X118311Y133095D01*
X118306Y132972D01*
X118296Y132849D01*
X118283Y132727D01*
X118266Y132605D01*
X118246Y132483D01*
X118222Y132363D01*
X118194Y132243D01*
X118163Y132124D01*
X118127Y132006D01*
X118089Y131889D01*
X118047Y131773D01*
X118001Y131659D01*
X117952Y131546D01*
X117900Y131435D01*
X117844Y131325D01*
X117785Y131217D01*
X117722Y131111D01*
X117657Y131007D01*
X117588Y130904D01*
X117516Y130804D01*
X117441Y130707D01*
X117364Y130611D01*
X117283Y130518D01*
X117200Y130427D01*
X117114Y130339D01*
X111596Y130579D02*
X111510Y130581D01*
X111424Y130587D01*
X111338Y130596D01*
X111253Y130610D01*
X111169Y130627D01*
X111085Y130648D01*
X111003Y130673D01*
X110922Y130701D01*
X110842Y130733D01*
X110763Y130769D01*
X110687Y130808D01*
X110612Y130851D01*
X110539Y130896D01*
X110468Y130945D01*
X110400Y130998D01*
X110333Y131053D01*
X110270Y131111D01*
X110209Y131172D01*
X110151Y131235D01*
X110096Y131302D01*
X110043Y131370D01*
X109994Y131441D01*
X109949Y131514D01*
X109906Y131589D01*
X109867Y131665D01*
X109831Y131744D01*
X109799Y131824D01*
X109771Y131905D01*
X109746Y131987D01*
X109725Y132071D01*
X109708Y132155D01*
X109694Y132240D01*
X109685Y132326D01*
X109679Y132412D01*
X109677Y132498D01*
X109679Y132614D01*
X109684Y132729D01*
X109694Y132845D01*
X109707Y132960D01*
X109723Y133074D01*
X109744Y133188D01*
X109768Y133302D01*
X109796Y133414D01*
X109827Y133525D01*
X109862Y133636D01*
X109900Y133745D01*
X109942Y133853D01*
X109987Y133959D01*
X110036Y134065D01*
X110088Y134168D01*
X110143Y134270D01*
X110202Y134369D01*
X110264Y134467D01*
X110329Y134563D01*
X110397Y134657D01*
X113275Y131539D02*
X113229Y131464D01*
X113179Y131391D01*
X113126Y131321D01*
X113070Y131253D01*
X113011Y131188D01*
X112949Y131125D01*
X112885Y131066D01*
X112817Y131009D01*
X112747Y130955D01*
X112675Y130905D01*
X112601Y130858D01*
X112525Y130814D01*
X112446Y130774D01*
X112366Y130738D01*
X112285Y130705D01*
X112202Y130676D01*
X112117Y130650D01*
X112032Y130628D01*
X111946Y130611D01*
X111859Y130597D01*
X111772Y130587D01*
X111684Y130581D01*
X111596Y130579D01*
X114715Y134177D02*
X114761Y134251D01*
X114811Y134324D01*
X114864Y134394D01*
X114920Y134462D01*
X114979Y134527D01*
X115041Y134590D01*
X115106Y134649D01*
X115173Y134706D01*
X115243Y134760D01*
X115315Y134810D01*
X115389Y134857D01*
X115465Y134901D01*
X115544Y134941D01*
X115624Y134977D01*
X115705Y135010D01*
X115788Y135040D01*
X115873Y135065D01*
X115958Y135087D01*
X116044Y135104D01*
X116131Y135118D01*
X116218Y135128D01*
X116306Y135134D01*
X116394Y135136D01*
X114715Y134177D02*
X113276Y131538D01*
X118313Y141059D02*
X118313Y142978D01*
X118313Y141059D02*
X118311Y140973D01*
X118305Y140887D01*
X118296Y140801D01*
X118282Y140716D01*
X118265Y140632D01*
X118244Y140548D01*
X118219Y140466D01*
X118191Y140385D01*
X118159Y140305D01*
X118123Y140226D01*
X118084Y140150D01*
X118041Y140075D01*
X117996Y140002D01*
X117947Y139931D01*
X117894Y139863D01*
X117839Y139796D01*
X117781Y139733D01*
X117720Y139672D01*
X117657Y139614D01*
X117590Y139559D01*
X117522Y139507D01*
X117451Y139457D01*
X117378Y139412D01*
X117303Y139369D01*
X117227Y139330D01*
X117148Y139294D01*
X117068Y139262D01*
X116987Y139234D01*
X116905Y139209D01*
X116821Y139188D01*
X116737Y139171D01*
X116652Y139157D01*
X116566Y139148D01*
X116480Y139142D01*
X116394Y139140D01*
X111596Y139140D01*
X111510Y139142D01*
X111424Y139148D01*
X111338Y139157D01*
X111253Y139171D01*
X111169Y139188D01*
X111085Y139209D01*
X111003Y139234D01*
X110922Y139262D01*
X110842Y139294D01*
X110763Y139330D01*
X110687Y139369D01*
X110612Y139412D01*
X110539Y139457D01*
X110468Y139506D01*
X110400Y139559D01*
X110333Y139614D01*
X110270Y139672D01*
X110209Y139733D01*
X110151Y139796D01*
X110096Y139863D01*
X110044Y139931D01*
X109994Y140002D01*
X109949Y140075D01*
X109906Y140150D01*
X109867Y140226D01*
X109831Y140305D01*
X109799Y140385D01*
X109771Y140466D01*
X109746Y140548D01*
X109725Y140632D01*
X109708Y140716D01*
X109694Y140801D01*
X109685Y140887D01*
X109679Y140973D01*
X109677Y141059D01*
X109677Y142978D01*
X109677Y147129D02*
X118313Y147129D01*
X118313Y150967D01*
X118313Y155222D02*
X109677Y155222D01*
X109677Y160020D02*
X114955Y155222D01*
X113036Y157141D02*
X118313Y160020D01*
X144272Y143681D02*
X144272Y141762D01*
X144270Y141676D01*
X144264Y141590D01*
X144255Y141504D01*
X144241Y141419D01*
X144224Y141335D01*
X144203Y141251D01*
X144178Y141169D01*
X144150Y141088D01*
X144118Y141008D01*
X144082Y140929D01*
X144043Y140853D01*
X144000Y140778D01*
X143955Y140705D01*
X143906Y140634D01*
X143853Y140566D01*
X143798Y140499D01*
X143740Y140436D01*
X143679Y140375D01*
X143616Y140317D01*
X143549Y140262D01*
X143481Y140210D01*
X143410Y140160D01*
X143337Y140115D01*
X143262Y140072D01*
X143186Y140033D01*
X143107Y139997D01*
X143027Y139965D01*
X142946Y139937D01*
X142864Y139912D01*
X142780Y139891D01*
X142696Y139874D01*
X142611Y139860D01*
X142525Y139851D01*
X142439Y139845D01*
X142353Y139843D01*
X137555Y139843D01*
X137469Y139845D01*
X137383Y139851D01*
X137297Y139860D01*
X137212Y139874D01*
X137128Y139891D01*
X137044Y139912D01*
X136962Y139937D01*
X136881Y139965D01*
X136801Y139997D01*
X136722Y140033D01*
X136646Y140072D01*
X136571Y140115D01*
X136498Y140160D01*
X136427Y140209D01*
X136359Y140262D01*
X136292Y140317D01*
X136229Y140375D01*
X136168Y140436D01*
X136110Y140499D01*
X136055Y140566D01*
X136003Y140634D01*
X135953Y140705D01*
X135908Y140778D01*
X135865Y140853D01*
X135826Y140929D01*
X135790Y141008D01*
X135758Y141088D01*
X135730Y141169D01*
X135705Y141251D01*
X135684Y141335D01*
X135667Y141419D01*
X135653Y141504D01*
X135644Y141590D01*
X135638Y141676D01*
X135636Y141762D01*
X135636Y143681D01*
X142353Y151994D02*
X142439Y151992D01*
X142525Y151986D01*
X142611Y151977D01*
X142696Y151963D01*
X142780Y151946D01*
X142864Y151925D01*
X142946Y151900D01*
X143027Y151872D01*
X143107Y151840D01*
X143186Y151804D01*
X143262Y151765D01*
X143337Y151722D01*
X143410Y151677D01*
X143481Y151628D01*
X143549Y151575D01*
X143616Y151520D01*
X143679Y151462D01*
X143740Y151401D01*
X143798Y151338D01*
X143853Y151271D01*
X143906Y151203D01*
X143955Y151132D01*
X144000Y151059D01*
X144043Y150984D01*
X144082Y150908D01*
X144118Y150829D01*
X144150Y150749D01*
X144178Y150668D01*
X144203Y150586D01*
X144224Y150502D01*
X144241Y150418D01*
X144255Y150333D01*
X144264Y150247D01*
X144270Y150161D01*
X144272Y150075D01*
X144270Y149952D01*
X144265Y149829D01*
X144255Y149706D01*
X144242Y149584D01*
X144225Y149462D01*
X144205Y149340D01*
X144181Y149220D01*
X144153Y149100D01*
X144122Y148981D01*
X144086Y148863D01*
X144048Y148746D01*
X144006Y148630D01*
X143960Y148516D01*
X143911Y148403D01*
X143859Y148292D01*
X143803Y148182D01*
X143744Y148074D01*
X143681Y147968D01*
X143616Y147864D01*
X143547Y147761D01*
X143475Y147661D01*
X143400Y147564D01*
X143323Y147468D01*
X143242Y147375D01*
X143159Y147284D01*
X143073Y147196D01*
X137555Y147436D02*
X137469Y147438D01*
X137383Y147444D01*
X137297Y147453D01*
X137212Y147467D01*
X137128Y147484D01*
X137044Y147505D01*
X136962Y147530D01*
X136881Y147558D01*
X136801Y147590D01*
X136722Y147626D01*
X136646Y147665D01*
X136571Y147708D01*
X136498Y147753D01*
X136427Y147802D01*
X136359Y147855D01*
X136292Y147910D01*
X136229Y147968D01*
X136168Y148029D01*
X136110Y148092D01*
X136055Y148159D01*
X136002Y148227D01*
X135953Y148298D01*
X135908Y148371D01*
X135865Y148446D01*
X135826Y148522D01*
X135790Y148601D01*
X135758Y148681D01*
X135730Y148762D01*
X135705Y148844D01*
X135684Y148928D01*
X135667Y149012D01*
X135653Y149097D01*
X135644Y149183D01*
X135638Y149269D01*
X135636Y149355D01*
X135638Y149471D01*
X135643Y149586D01*
X135653Y149702D01*
X135666Y149817D01*
X135682Y149931D01*
X135703Y150045D01*
X135727Y150159D01*
X135755Y150271D01*
X135786Y150382D01*
X135821Y150493D01*
X135859Y150602D01*
X135901Y150710D01*
X135946Y150816D01*
X135995Y150922D01*
X136047Y151025D01*
X136102Y151127D01*
X136161Y151226D01*
X136223Y151324D01*
X136288Y151420D01*
X136356Y151514D01*
X139234Y148396D02*
X139188Y148321D01*
X139138Y148248D01*
X139085Y148178D01*
X139029Y148110D01*
X138970Y148045D01*
X138908Y147982D01*
X138844Y147923D01*
X138776Y147866D01*
X138706Y147812D01*
X138634Y147762D01*
X138560Y147715D01*
X138484Y147671D01*
X138405Y147631D01*
X138325Y147595D01*
X138244Y147562D01*
X138161Y147533D01*
X138076Y147507D01*
X137991Y147485D01*
X137905Y147468D01*
X137818Y147454D01*
X137731Y147444D01*
X137643Y147438D01*
X137555Y147436D01*
X140674Y151034D02*
X140720Y151108D01*
X140770Y151181D01*
X140823Y151251D01*
X140879Y151319D01*
X140938Y151384D01*
X141000Y151447D01*
X141065Y151506D01*
X141132Y151563D01*
X141202Y151617D01*
X141274Y151667D01*
X141348Y151714D01*
X141424Y151758D01*
X141503Y151798D01*
X141583Y151834D01*
X141664Y151867D01*
X141747Y151897D01*
X141832Y151922D01*
X141917Y151944D01*
X142003Y151961D01*
X142090Y151975D01*
X142177Y151985D01*
X142265Y151991D01*
X142353Y151993D01*
X140674Y151034D02*
X139234Y148395D01*
X137555Y156035D02*
X135636Y158434D01*
X144272Y158434D01*
X144272Y156035D02*
X144272Y160833D01*
X169875Y142868D02*
X169875Y140949D01*
X169873Y140863D01*
X169867Y140777D01*
X169858Y140691D01*
X169844Y140606D01*
X169827Y140522D01*
X169806Y140438D01*
X169781Y140356D01*
X169753Y140275D01*
X169721Y140195D01*
X169685Y140116D01*
X169646Y140040D01*
X169603Y139965D01*
X169558Y139892D01*
X169509Y139821D01*
X169456Y139753D01*
X169401Y139686D01*
X169343Y139623D01*
X169282Y139562D01*
X169219Y139504D01*
X169152Y139449D01*
X169084Y139397D01*
X169013Y139347D01*
X168940Y139302D01*
X168865Y139259D01*
X168789Y139220D01*
X168710Y139184D01*
X168630Y139152D01*
X168549Y139124D01*
X168467Y139099D01*
X168383Y139078D01*
X168299Y139061D01*
X168214Y139047D01*
X168128Y139038D01*
X168042Y139032D01*
X167956Y139030D01*
X163158Y139030D01*
X163072Y139032D01*
X162986Y139038D01*
X162900Y139047D01*
X162815Y139061D01*
X162731Y139078D01*
X162647Y139099D01*
X162565Y139124D01*
X162484Y139152D01*
X162404Y139184D01*
X162325Y139220D01*
X162249Y139259D01*
X162174Y139302D01*
X162101Y139347D01*
X162030Y139396D01*
X161962Y139449D01*
X161895Y139504D01*
X161832Y139562D01*
X161771Y139623D01*
X161713Y139686D01*
X161658Y139753D01*
X161606Y139821D01*
X161556Y139892D01*
X161511Y139965D01*
X161468Y140040D01*
X161429Y140116D01*
X161393Y140195D01*
X161361Y140275D01*
X161333Y140356D01*
X161308Y140438D01*
X161287Y140522D01*
X161270Y140606D01*
X161256Y140691D01*
X161247Y140777D01*
X161241Y140863D01*
X161239Y140949D01*
X161239Y142868D01*
X167956Y151181D02*
X168042Y151179D01*
X168128Y151173D01*
X168214Y151164D01*
X168299Y151150D01*
X168383Y151133D01*
X168467Y151112D01*
X168549Y151087D01*
X168630Y151059D01*
X168710Y151027D01*
X168789Y150991D01*
X168865Y150952D01*
X168940Y150909D01*
X169013Y150864D01*
X169084Y150815D01*
X169152Y150762D01*
X169219Y150707D01*
X169282Y150649D01*
X169343Y150588D01*
X169401Y150525D01*
X169456Y150458D01*
X169509Y150390D01*
X169558Y150319D01*
X169603Y150246D01*
X169646Y150171D01*
X169685Y150095D01*
X169721Y150016D01*
X169753Y149936D01*
X169781Y149855D01*
X169806Y149773D01*
X169827Y149689D01*
X169844Y149605D01*
X169858Y149520D01*
X169867Y149434D01*
X169873Y149348D01*
X169875Y149262D01*
X169873Y149139D01*
X169868Y149016D01*
X169858Y148893D01*
X169845Y148771D01*
X169828Y148649D01*
X169808Y148527D01*
X169784Y148407D01*
X169756Y148287D01*
X169725Y148168D01*
X169689Y148050D01*
X169651Y147933D01*
X169609Y147817D01*
X169563Y147703D01*
X169514Y147590D01*
X169462Y147479D01*
X169406Y147369D01*
X169347Y147261D01*
X169284Y147155D01*
X169219Y147051D01*
X169150Y146948D01*
X169078Y146848D01*
X169003Y146751D01*
X168926Y146655D01*
X168845Y146562D01*
X168762Y146471D01*
X168676Y146383D01*
X163158Y146623D02*
X163072Y146625D01*
X162986Y146631D01*
X162900Y146640D01*
X162815Y146654D01*
X162731Y146671D01*
X162647Y146692D01*
X162565Y146717D01*
X162484Y146745D01*
X162404Y146777D01*
X162325Y146813D01*
X162249Y146852D01*
X162174Y146895D01*
X162101Y146940D01*
X162030Y146989D01*
X161962Y147042D01*
X161895Y147097D01*
X161832Y147155D01*
X161771Y147216D01*
X161713Y147279D01*
X161658Y147346D01*
X161605Y147414D01*
X161556Y147485D01*
X161511Y147558D01*
X161468Y147633D01*
X161429Y147709D01*
X161393Y147788D01*
X161361Y147868D01*
X161333Y147949D01*
X161308Y148031D01*
X161287Y148115D01*
X161270Y148199D01*
X161256Y148284D01*
X161247Y148370D01*
X161241Y148456D01*
X161239Y148542D01*
X161241Y148658D01*
X161246Y148773D01*
X161256Y148889D01*
X161269Y149004D01*
X161285Y149118D01*
X161306Y149232D01*
X161330Y149346D01*
X161358Y149458D01*
X161389Y149569D01*
X161424Y149680D01*
X161462Y149789D01*
X161504Y149897D01*
X161549Y150003D01*
X161598Y150109D01*
X161650Y150212D01*
X161705Y150314D01*
X161764Y150413D01*
X161826Y150511D01*
X161891Y150607D01*
X161959Y150701D01*
X164837Y147583D02*
X164791Y147508D01*
X164741Y147435D01*
X164688Y147365D01*
X164632Y147297D01*
X164573Y147232D01*
X164511Y147169D01*
X164447Y147110D01*
X164379Y147053D01*
X164309Y146999D01*
X164237Y146949D01*
X164163Y146902D01*
X164087Y146858D01*
X164008Y146818D01*
X163928Y146782D01*
X163847Y146749D01*
X163764Y146720D01*
X163679Y146694D01*
X163594Y146672D01*
X163508Y146655D01*
X163421Y146641D01*
X163334Y146631D01*
X163246Y146625D01*
X163158Y146623D01*
X166277Y150222D02*
X166323Y150296D01*
X166373Y150369D01*
X166426Y150439D01*
X166482Y150507D01*
X166541Y150572D01*
X166603Y150635D01*
X166668Y150694D01*
X166735Y150751D01*
X166805Y150805D01*
X166877Y150855D01*
X166951Y150902D01*
X167027Y150946D01*
X167106Y150986D01*
X167186Y151022D01*
X167267Y151055D01*
X167350Y151085D01*
X167435Y151110D01*
X167520Y151132D01*
X167606Y151149D01*
X167693Y151163D01*
X167780Y151173D01*
X167868Y151179D01*
X167956Y151181D01*
X166277Y150221D02*
X164838Y147583D01*
X161239Y157861D02*
X161241Y157953D01*
X161247Y158044D01*
X161256Y158135D01*
X161270Y158226D01*
X161287Y158316D01*
X161309Y158405D01*
X161334Y158493D01*
X161362Y158580D01*
X161395Y158666D01*
X161431Y158750D01*
X161470Y158833D01*
X161513Y158914D01*
X161560Y158993D01*
X161609Y159070D01*
X161662Y159145D01*
X161718Y159217D01*
X161777Y159287D01*
X161839Y159355D01*
X161904Y159420D01*
X161972Y159482D01*
X162042Y159541D01*
X162114Y159597D01*
X162189Y159650D01*
X162266Y159699D01*
X162345Y159746D01*
X162426Y159789D01*
X162509Y159828D01*
X162593Y159864D01*
X162679Y159897D01*
X162766Y159925D01*
X162854Y159950D01*
X162943Y159972D01*
X163033Y159989D01*
X163124Y160003D01*
X163215Y160012D01*
X163306Y160018D01*
X163398Y160020D01*
X161239Y157861D02*
X161241Y157758D01*
X161247Y157656D01*
X161256Y157554D01*
X161269Y157452D01*
X161286Y157351D01*
X161307Y157250D01*
X161331Y157151D01*
X161360Y157052D01*
X161391Y156955D01*
X161427Y156858D01*
X161465Y156763D01*
X161508Y156670D01*
X161554Y156578D01*
X161603Y156488D01*
X161655Y156400D01*
X161711Y156313D01*
X161770Y156229D01*
X161831Y156148D01*
X161896Y156068D01*
X161964Y155991D01*
X162035Y155916D01*
X162108Y155845D01*
X162184Y155776D01*
X162262Y155709D01*
X162343Y155646D01*
X162426Y155586D01*
X162511Y155529D01*
X162598Y155475D01*
X162688Y155424D01*
X162779Y155377D01*
X162871Y155333D01*
X162966Y155292D01*
X163061Y155255D01*
X163158Y155222D01*
X165077Y159300D02*
X165011Y159367D01*
X164942Y159431D01*
X164871Y159492D01*
X164797Y159550D01*
X164721Y159605D01*
X164643Y159657D01*
X164563Y159706D01*
X164481Y159752D01*
X164397Y159794D01*
X164311Y159833D01*
X164224Y159868D01*
X164136Y159899D01*
X164046Y159927D01*
X163956Y159952D01*
X163864Y159973D01*
X163772Y159990D01*
X163679Y160003D01*
X163586Y160012D01*
X163492Y160018D01*
X163398Y160020D01*
X165077Y159300D02*
X169875Y155222D01*
X169875Y160020D01*
X194970Y142716D02*
X194970Y140796D01*
X194968Y140710D01*
X194962Y140624D01*
X194953Y140538D01*
X194939Y140453D01*
X194922Y140369D01*
X194901Y140285D01*
X194876Y140203D01*
X194848Y140122D01*
X194816Y140042D01*
X194780Y139963D01*
X194741Y139887D01*
X194698Y139812D01*
X194653Y139739D01*
X194604Y139668D01*
X194551Y139600D01*
X194496Y139533D01*
X194438Y139470D01*
X194377Y139409D01*
X194314Y139351D01*
X194247Y139296D01*
X194179Y139244D01*
X194108Y139194D01*
X194035Y139149D01*
X193960Y139106D01*
X193884Y139067D01*
X193805Y139031D01*
X193725Y138999D01*
X193644Y138971D01*
X193562Y138946D01*
X193478Y138925D01*
X193394Y138908D01*
X193309Y138894D01*
X193223Y138885D01*
X193137Y138879D01*
X193051Y138877D01*
X188254Y138877D01*
X188168Y138879D01*
X188082Y138885D01*
X187996Y138894D01*
X187911Y138908D01*
X187827Y138925D01*
X187743Y138946D01*
X187661Y138971D01*
X187580Y138999D01*
X187500Y139031D01*
X187421Y139067D01*
X187345Y139106D01*
X187270Y139149D01*
X187197Y139194D01*
X187126Y139243D01*
X187058Y139296D01*
X186991Y139351D01*
X186928Y139409D01*
X186867Y139470D01*
X186809Y139533D01*
X186754Y139600D01*
X186702Y139668D01*
X186652Y139739D01*
X186607Y139812D01*
X186564Y139887D01*
X186525Y139963D01*
X186489Y140042D01*
X186457Y140122D01*
X186429Y140203D01*
X186404Y140285D01*
X186383Y140369D01*
X186366Y140453D01*
X186352Y140538D01*
X186343Y140624D01*
X186337Y140710D01*
X186335Y140796D01*
X186334Y140796D02*
X186334Y142716D01*
X193051Y151028D02*
X193137Y151026D01*
X193223Y151020D01*
X193309Y151011D01*
X193394Y150997D01*
X193478Y150980D01*
X193562Y150959D01*
X193644Y150934D01*
X193725Y150906D01*
X193805Y150874D01*
X193884Y150838D01*
X193960Y150799D01*
X194035Y150756D01*
X194108Y150711D01*
X194179Y150662D01*
X194247Y150609D01*
X194314Y150554D01*
X194377Y150496D01*
X194438Y150435D01*
X194496Y150372D01*
X194551Y150305D01*
X194604Y150237D01*
X194653Y150166D01*
X194698Y150093D01*
X194741Y150018D01*
X194780Y149942D01*
X194816Y149863D01*
X194848Y149783D01*
X194876Y149702D01*
X194901Y149620D01*
X194922Y149536D01*
X194939Y149452D01*
X194953Y149367D01*
X194962Y149281D01*
X194968Y149195D01*
X194970Y149109D01*
X194968Y148986D01*
X194963Y148863D01*
X194953Y148740D01*
X194940Y148618D01*
X194923Y148496D01*
X194903Y148374D01*
X194879Y148254D01*
X194851Y148134D01*
X194820Y148015D01*
X194784Y147897D01*
X194746Y147780D01*
X194704Y147664D01*
X194658Y147550D01*
X194609Y147437D01*
X194557Y147326D01*
X194501Y147216D01*
X194442Y147108D01*
X194379Y147002D01*
X194314Y146898D01*
X194245Y146795D01*
X194173Y146695D01*
X194098Y146598D01*
X194021Y146502D01*
X193940Y146409D01*
X193857Y146318D01*
X193771Y146230D01*
X188254Y146471D02*
X188168Y146473D01*
X188082Y146479D01*
X187996Y146488D01*
X187911Y146502D01*
X187827Y146519D01*
X187743Y146540D01*
X187661Y146565D01*
X187580Y146593D01*
X187500Y146625D01*
X187421Y146661D01*
X187345Y146700D01*
X187270Y146743D01*
X187197Y146788D01*
X187126Y146837D01*
X187058Y146890D01*
X186991Y146945D01*
X186928Y147003D01*
X186867Y147064D01*
X186809Y147127D01*
X186754Y147194D01*
X186701Y147262D01*
X186652Y147333D01*
X186607Y147406D01*
X186564Y147481D01*
X186525Y147557D01*
X186489Y147636D01*
X186457Y147716D01*
X186429Y147797D01*
X186404Y147879D01*
X186383Y147963D01*
X186366Y148047D01*
X186352Y148132D01*
X186343Y148218D01*
X186337Y148304D01*
X186335Y148390D01*
X186337Y148506D01*
X186342Y148621D01*
X186352Y148737D01*
X186365Y148852D01*
X186381Y148966D01*
X186402Y149080D01*
X186426Y149194D01*
X186454Y149306D01*
X186485Y149417D01*
X186520Y149528D01*
X186558Y149637D01*
X186600Y149745D01*
X186645Y149851D01*
X186694Y149957D01*
X186746Y150060D01*
X186801Y150162D01*
X186860Y150261D01*
X186922Y150359D01*
X186987Y150455D01*
X187055Y150549D01*
X189933Y147431D02*
X189887Y147356D01*
X189837Y147283D01*
X189784Y147213D01*
X189728Y147145D01*
X189669Y147080D01*
X189607Y147017D01*
X189543Y146958D01*
X189475Y146901D01*
X189405Y146847D01*
X189333Y146797D01*
X189259Y146750D01*
X189183Y146706D01*
X189104Y146666D01*
X189024Y146630D01*
X188943Y146597D01*
X188860Y146568D01*
X188775Y146542D01*
X188690Y146520D01*
X188604Y146503D01*
X188517Y146489D01*
X188430Y146479D01*
X188342Y146473D01*
X188254Y146471D01*
X191372Y150069D02*
X191418Y150143D01*
X191468Y150216D01*
X191521Y150286D01*
X191577Y150354D01*
X191636Y150419D01*
X191698Y150482D01*
X191763Y150541D01*
X191830Y150598D01*
X191900Y150652D01*
X191972Y150702D01*
X192046Y150749D01*
X192122Y150793D01*
X192201Y150833D01*
X192281Y150869D01*
X192362Y150902D01*
X192445Y150932D01*
X192530Y150957D01*
X192615Y150979D01*
X192701Y150996D01*
X192788Y151010D01*
X192875Y151020D01*
X192963Y151026D01*
X193051Y151028D01*
X191372Y150069D02*
X189933Y147430D01*
X194970Y155070D02*
X194970Y157469D01*
X194971Y157469D02*
X194969Y157566D01*
X194963Y157662D01*
X194954Y157758D01*
X194940Y157854D01*
X194923Y157949D01*
X194901Y158043D01*
X194876Y158136D01*
X194848Y158229D01*
X194815Y158320D01*
X194779Y158409D01*
X194739Y158497D01*
X194696Y158584D01*
X194650Y158669D01*
X194600Y158751D01*
X194546Y158832D01*
X194490Y158910D01*
X194430Y158986D01*
X194368Y159060D01*
X194302Y159131D01*
X194234Y159199D01*
X194163Y159265D01*
X194089Y159327D01*
X194013Y159387D01*
X193935Y159443D01*
X193854Y159497D01*
X193772Y159547D01*
X193687Y159593D01*
X193600Y159636D01*
X193512Y159676D01*
X193423Y159712D01*
X193332Y159745D01*
X193239Y159773D01*
X193146Y159798D01*
X193052Y159820D01*
X192957Y159837D01*
X192861Y159851D01*
X192765Y159860D01*
X192669Y159866D01*
X192572Y159868D01*
X192475Y159866D01*
X192379Y159860D01*
X192283Y159851D01*
X192187Y159837D01*
X192092Y159820D01*
X191998Y159798D01*
X191905Y159773D01*
X191812Y159745D01*
X191721Y159712D01*
X191632Y159676D01*
X191544Y159636D01*
X191457Y159593D01*
X191373Y159547D01*
X191290Y159497D01*
X191209Y159443D01*
X191131Y159387D01*
X191055Y159327D01*
X190981Y159265D01*
X190910Y159199D01*
X190842Y159131D01*
X190776Y159060D01*
X190714Y158986D01*
X190654Y158910D01*
X190598Y158832D01*
X190544Y158751D01*
X190494Y158669D01*
X190448Y158584D01*
X190405Y158497D01*
X190365Y158409D01*
X190329Y158320D01*
X190296Y158229D01*
X190268Y158136D01*
X190243Y158043D01*
X190221Y157949D01*
X190204Y157854D01*
X190190Y157758D01*
X190181Y157662D01*
X190175Y157566D01*
X190173Y157469D01*
X186334Y157949D02*
X186334Y155070D01*
X186335Y157949D02*
X186337Y158035D01*
X186343Y158121D01*
X186352Y158207D01*
X186366Y158292D01*
X186383Y158376D01*
X186404Y158460D01*
X186429Y158542D01*
X186457Y158623D01*
X186489Y158703D01*
X186525Y158782D01*
X186564Y158858D01*
X186607Y158933D01*
X186652Y159006D01*
X186701Y159077D01*
X186754Y159145D01*
X186809Y159212D01*
X186867Y159275D01*
X186928Y159336D01*
X186991Y159394D01*
X187058Y159449D01*
X187126Y159502D01*
X187197Y159551D01*
X187270Y159596D01*
X187345Y159639D01*
X187421Y159678D01*
X187500Y159714D01*
X187580Y159746D01*
X187661Y159774D01*
X187743Y159799D01*
X187827Y159820D01*
X187911Y159837D01*
X187996Y159851D01*
X188082Y159860D01*
X188168Y159866D01*
X188254Y159868D01*
X188340Y159866D01*
X188426Y159860D01*
X188512Y159851D01*
X188597Y159837D01*
X188681Y159820D01*
X188765Y159799D01*
X188847Y159774D01*
X188928Y159746D01*
X189008Y159714D01*
X189087Y159678D01*
X189163Y159639D01*
X189238Y159596D01*
X189311Y159551D01*
X189382Y159502D01*
X189450Y159449D01*
X189517Y159394D01*
X189580Y159336D01*
X189641Y159275D01*
X189699Y159212D01*
X189754Y159145D01*
X189807Y159077D01*
X189856Y159006D01*
X189901Y158933D01*
X189944Y158858D01*
X189983Y158782D01*
X190019Y158703D01*
X190051Y158623D01*
X190079Y158542D01*
X190104Y158460D01*
X190125Y158376D01*
X190142Y158292D01*
X190156Y158207D01*
X190165Y158121D01*
X190171Y158035D01*
X190173Y157949D01*
X190173Y156029D01*
X65899Y138430D02*
X63500Y136511D01*
X65899Y138430D02*
X65899Y129794D01*
X63500Y129794D02*
X68298Y129794D01*
X153261Y138176D02*
X153353Y138174D01*
X153444Y138168D01*
X153535Y138159D01*
X153626Y138145D01*
X153716Y138128D01*
X153805Y138106D01*
X153893Y138081D01*
X153980Y138053D01*
X154066Y138020D01*
X154150Y137984D01*
X154233Y137945D01*
X154314Y137902D01*
X154393Y137855D01*
X154470Y137806D01*
X154545Y137753D01*
X154617Y137697D01*
X154687Y137638D01*
X154755Y137576D01*
X154820Y137511D01*
X154882Y137443D01*
X154941Y137373D01*
X154997Y137301D01*
X155050Y137226D01*
X155099Y137149D01*
X155146Y137070D01*
X155189Y136989D01*
X155228Y136906D01*
X155264Y136822D01*
X155297Y136736D01*
X155325Y136649D01*
X155350Y136561D01*
X155372Y136472D01*
X155389Y136382D01*
X155403Y136291D01*
X155412Y136200D01*
X155418Y136109D01*
X155420Y136017D01*
X153261Y138176D02*
X153158Y138174D01*
X153056Y138168D01*
X152954Y138159D01*
X152852Y138146D01*
X152751Y138129D01*
X152650Y138108D01*
X152551Y138084D01*
X152452Y138055D01*
X152355Y138024D01*
X152258Y137988D01*
X152163Y137950D01*
X152070Y137907D01*
X151978Y137861D01*
X151888Y137812D01*
X151800Y137760D01*
X151713Y137704D01*
X151629Y137645D01*
X151548Y137584D01*
X151468Y137519D01*
X151391Y137451D01*
X151316Y137380D01*
X151245Y137307D01*
X151176Y137231D01*
X151109Y137153D01*
X151046Y137072D01*
X150986Y136989D01*
X150929Y136904D01*
X150875Y136817D01*
X150824Y136727D01*
X150777Y136636D01*
X150733Y136544D01*
X150692Y136449D01*
X150655Y136354D01*
X150622Y136257D01*
X154700Y134338D02*
X154767Y134404D01*
X154831Y134473D01*
X154892Y134544D01*
X154950Y134618D01*
X155005Y134694D01*
X155057Y134772D01*
X155106Y134852D01*
X155152Y134934D01*
X155194Y135018D01*
X155233Y135104D01*
X155268Y135191D01*
X155299Y135279D01*
X155327Y135369D01*
X155352Y135459D01*
X155373Y135551D01*
X155390Y135643D01*
X155403Y135736D01*
X155412Y135829D01*
X155418Y135923D01*
X155420Y136017D01*
X154700Y134338D02*
X150622Y129540D01*
X155420Y129540D01*
X239776Y130302D02*
X242175Y130302D01*
X242272Y130304D01*
X242368Y130310D01*
X242464Y130319D01*
X242560Y130333D01*
X242655Y130350D01*
X242749Y130372D01*
X242842Y130397D01*
X242935Y130425D01*
X243026Y130458D01*
X243115Y130494D01*
X243203Y130534D01*
X243290Y130577D01*
X243375Y130623D01*
X243457Y130673D01*
X243538Y130727D01*
X243616Y130783D01*
X243692Y130843D01*
X243766Y130905D01*
X243837Y130971D01*
X243905Y131039D01*
X243971Y131110D01*
X244033Y131184D01*
X244093Y131260D01*
X244149Y131338D01*
X244203Y131419D01*
X244253Y131502D01*
X244299Y131586D01*
X244342Y131673D01*
X244382Y131761D01*
X244418Y131850D01*
X244451Y131941D01*
X244479Y132034D01*
X244504Y132127D01*
X244526Y132221D01*
X244543Y132316D01*
X244557Y132412D01*
X244566Y132508D01*
X244572Y132604D01*
X244574Y132701D01*
X244572Y132798D01*
X244566Y132894D01*
X244557Y132990D01*
X244543Y133086D01*
X244526Y133181D01*
X244504Y133275D01*
X244479Y133368D01*
X244451Y133461D01*
X244418Y133552D01*
X244382Y133641D01*
X244342Y133729D01*
X244299Y133816D01*
X244253Y133900D01*
X244203Y133983D01*
X244149Y134064D01*
X244093Y134142D01*
X244033Y134218D01*
X243971Y134292D01*
X243905Y134363D01*
X243837Y134431D01*
X243766Y134497D01*
X243692Y134559D01*
X243616Y134619D01*
X243538Y134675D01*
X243457Y134729D01*
X243375Y134779D01*
X243290Y134825D01*
X243203Y134868D01*
X243115Y134908D01*
X243026Y134944D01*
X242935Y134977D01*
X242842Y135005D01*
X242749Y135030D01*
X242655Y135052D01*
X242560Y135069D01*
X242464Y135083D01*
X242368Y135092D01*
X242272Y135098D01*
X242175Y135100D01*
X242655Y138938D02*
X239776Y138938D01*
X242655Y138938D02*
X242741Y138936D01*
X242827Y138930D01*
X242913Y138921D01*
X242998Y138907D01*
X243082Y138890D01*
X243166Y138869D01*
X243248Y138844D01*
X243329Y138816D01*
X243409Y138784D01*
X243488Y138748D01*
X243564Y138709D01*
X243639Y138666D01*
X243712Y138621D01*
X243783Y138572D01*
X243851Y138519D01*
X243918Y138464D01*
X243981Y138406D01*
X244042Y138345D01*
X244100Y138282D01*
X244155Y138215D01*
X244208Y138147D01*
X244257Y138076D01*
X244302Y138003D01*
X244345Y137928D01*
X244384Y137852D01*
X244420Y137773D01*
X244452Y137693D01*
X244480Y137612D01*
X244505Y137530D01*
X244526Y137446D01*
X244543Y137362D01*
X244557Y137277D01*
X244566Y137191D01*
X244572Y137105D01*
X244574Y137019D01*
X244572Y136933D01*
X244566Y136847D01*
X244557Y136761D01*
X244543Y136676D01*
X244526Y136592D01*
X244505Y136508D01*
X244480Y136426D01*
X244452Y136345D01*
X244420Y136265D01*
X244384Y136186D01*
X244345Y136110D01*
X244302Y136035D01*
X244257Y135962D01*
X244208Y135891D01*
X244155Y135823D01*
X244100Y135756D01*
X244042Y135693D01*
X243981Y135632D01*
X243918Y135574D01*
X243851Y135519D01*
X243783Y135466D01*
X243712Y135417D01*
X243639Y135372D01*
X243564Y135329D01*
X243488Y135290D01*
X243409Y135254D01*
X243329Y135222D01*
X243248Y135194D01*
X243166Y135169D01*
X243082Y135148D01*
X242998Y135131D01*
X242913Y135117D01*
X242827Y135108D01*
X242741Y135102D01*
X242655Y135100D01*
X240736Y135100D01*
D10*
X85090Y123190D02*
X76200Y123190D01*
X85090Y123190D02*
X85090Y119380D01*
X85090Y80010D02*
X76200Y80010D01*
X85090Y80010D02*
X85090Y83820D01*
X50800Y80010D02*
X41910Y80010D01*
X41910Y83820D01*
D76*
X25400Y101600D03*
D77*
X13533Y89466D02*
X6223Y91554D01*
X13533Y89466D02*
X13533Y94687D01*
X11444Y93121D02*
X15621Y93121D01*
X7267Y98610D02*
X6223Y98610D01*
X6223Y103831D01*
X15621Y101220D01*
X15621Y108190D02*
X6223Y108190D01*
X6223Y113411D02*
X11966Y108190D01*
X9878Y110278D02*
X15621Y113411D01*
D10*
X165100Y123190D02*
X173990Y123190D01*
X173990Y119380D01*
X173990Y80010D02*
X165100Y80010D01*
X173990Y80010D02*
X173990Y83820D01*
X139700Y80010D02*
X130810Y80010D01*
X130810Y83820D01*
D76*
X116840Y101600D03*
D77*
X106751Y105214D02*
X99441Y107302D01*
X106751Y105214D02*
X106751Y110435D01*
X104662Y108869D02*
X108839Y108869D01*
X100485Y114358D02*
X99441Y114358D01*
X99441Y119579D01*
X108839Y116968D01*
X108839Y123938D02*
X99441Y123938D01*
X99441Y129159D02*
X105184Y123938D01*
X103096Y126026D02*
X108839Y129159D01*
D10*
X254000Y123190D02*
X262890Y123190D01*
X262890Y119380D01*
X262890Y80010D02*
X254000Y80010D01*
X262890Y80010D02*
X262890Y83820D01*
X228600Y80010D02*
X219710Y80010D01*
X219710Y83820D01*
D76*
X197358Y102108D03*
D77*
X205867Y106032D02*
X213177Y103944D01*
X213177Y109165D01*
X211088Y107599D02*
X215265Y107599D01*
X206911Y113088D02*
X205867Y113088D01*
X205867Y118309D01*
X215265Y115698D01*
X215265Y122668D02*
X205867Y122668D01*
X205867Y127889D02*
X211610Y122668D01*
X209522Y124756D02*
X215265Y127889D01*
D78*
X286741Y116840D02*
X287299Y116840D01*
D77*
X289976Y61616D02*
X290143Y61537D01*
X290312Y61462D01*
X290483Y61391D01*
X290655Y61324D01*
X290829Y61262D01*
X291005Y61203D01*
X291181Y61149D01*
X291359Y61099D01*
X291539Y61053D01*
X291719Y61011D01*
X291900Y60974D01*
X292082Y60941D01*
X292264Y60912D01*
X292448Y60888D01*
X292632Y60868D01*
X292816Y60853D01*
X293000Y60842D01*
X293185Y60835D01*
X293370Y60833D01*
X289976Y61616D02*
X289896Y61646D01*
X289817Y61679D01*
X289740Y61716D01*
X289664Y61756D01*
X289590Y61799D01*
X289518Y61845D01*
X289449Y61895D01*
X289381Y61947D01*
X289316Y62003D01*
X289253Y62061D01*
X289194Y62123D01*
X289136Y62186D01*
X289082Y62253D01*
X289031Y62321D01*
X288983Y62392D01*
X288938Y62465D01*
X288896Y62539D01*
X288858Y62616D01*
X288823Y62694D01*
X288791Y62773D01*
X288763Y62854D01*
X288739Y62936D01*
X288718Y63020D01*
X288701Y63103D01*
X288688Y63188D01*
X288679Y63273D01*
X288673Y63358D01*
X288671Y63444D01*
X288673Y63530D01*
X288679Y63615D01*
X288688Y63700D01*
X288701Y63785D01*
X288718Y63868D01*
X288739Y63952D01*
X288763Y64034D01*
X288791Y64115D01*
X288823Y64194D01*
X288858Y64272D01*
X288896Y64349D01*
X288938Y64423D01*
X288983Y64496D01*
X289031Y64567D01*
X289082Y64635D01*
X289136Y64702D01*
X289194Y64765D01*
X289253Y64827D01*
X289316Y64885D01*
X289381Y64941D01*
X289449Y64993D01*
X289518Y65043D01*
X289590Y65089D01*
X289664Y65132D01*
X289740Y65172D01*
X289817Y65209D01*
X289896Y65242D01*
X289976Y65272D01*
X289976Y65271D02*
X290143Y65350D01*
X290312Y65425D01*
X290483Y65496D01*
X290655Y65563D01*
X290829Y65625D01*
X291005Y65684D01*
X291181Y65738D01*
X291359Y65788D01*
X291539Y65834D01*
X291719Y65876D01*
X291900Y65913D01*
X292082Y65946D01*
X292264Y65975D01*
X292448Y65999D01*
X292632Y66019D01*
X292816Y66034D01*
X293000Y66045D01*
X293185Y66052D01*
X293370Y66054D01*
X293370Y60833D02*
X293555Y60835D01*
X293740Y60842D01*
X293924Y60853D01*
X294108Y60868D01*
X294292Y60888D01*
X294476Y60912D01*
X294658Y60941D01*
X294840Y60974D01*
X295021Y61011D01*
X295201Y61053D01*
X295381Y61099D01*
X295559Y61149D01*
X295735Y61203D01*
X295911Y61262D01*
X296085Y61324D01*
X296257Y61391D01*
X296428Y61462D01*
X296597Y61537D01*
X296764Y61616D01*
X296844Y61646D01*
X296923Y61679D01*
X297000Y61716D01*
X297076Y61756D01*
X297150Y61799D01*
X297222Y61845D01*
X297291Y61895D01*
X297359Y61948D01*
X297424Y62003D01*
X297487Y62062D01*
X297546Y62123D01*
X297604Y62186D01*
X297658Y62253D01*
X297709Y62321D01*
X297757Y62392D01*
X297802Y62465D01*
X297844Y62539D01*
X297882Y62616D01*
X297917Y62694D01*
X297949Y62773D01*
X297977Y62854D01*
X298001Y62936D01*
X298022Y63020D01*
X298039Y63103D01*
X298052Y63188D01*
X298061Y63273D01*
X298067Y63358D01*
X298069Y63444D01*
X296764Y65271D02*
X296597Y65350D01*
X296428Y65425D01*
X296257Y65496D01*
X296085Y65563D01*
X295911Y65625D01*
X295735Y65684D01*
X295559Y65738D01*
X295381Y65788D01*
X295201Y65834D01*
X295021Y65876D01*
X294840Y65913D01*
X294658Y65946D01*
X294476Y65975D01*
X294292Y65999D01*
X294108Y66019D01*
X293924Y66034D01*
X293740Y66045D01*
X293555Y66052D01*
X293370Y66054D01*
X296764Y65272D02*
X296844Y65242D01*
X296923Y65209D01*
X297000Y65172D01*
X297076Y65132D01*
X297150Y65089D01*
X297222Y65043D01*
X297291Y64993D01*
X297359Y64941D01*
X297424Y64885D01*
X297487Y64827D01*
X297546Y64765D01*
X297604Y64702D01*
X297658Y64635D01*
X297709Y64567D01*
X297757Y64496D01*
X297802Y64423D01*
X297844Y64349D01*
X297882Y64272D01*
X297917Y64194D01*
X297949Y64115D01*
X297977Y64034D01*
X298001Y63952D01*
X298022Y63868D01*
X298039Y63785D01*
X298052Y63700D01*
X298061Y63615D01*
X298067Y63530D01*
X298069Y63444D01*
X295981Y61355D02*
X290759Y65532D01*
X297547Y69583D02*
X298069Y69583D01*
X297547Y69583D02*
X297547Y70105D01*
X298069Y70105D01*
X298069Y69583D01*
X290759Y73635D02*
X288671Y76245D01*
X298069Y76245D01*
X298069Y73635D02*
X298069Y78856D01*
X296503Y82996D02*
X291804Y82996D01*
X296503Y82996D02*
X296580Y82998D01*
X296656Y83004D01*
X296733Y83013D01*
X296809Y83026D01*
X296884Y83043D01*
X296958Y83063D01*
X297031Y83088D01*
X297102Y83115D01*
X297173Y83146D01*
X297241Y83181D01*
X297308Y83219D01*
X297373Y83260D01*
X297436Y83304D01*
X297496Y83351D01*
X297555Y83402D01*
X297610Y83455D01*
X297663Y83510D01*
X297714Y83569D01*
X297761Y83629D01*
X297805Y83692D01*
X297846Y83757D01*
X297884Y83824D01*
X297919Y83892D01*
X297950Y83963D01*
X297977Y84034D01*
X298002Y84107D01*
X298022Y84181D01*
X298039Y84256D01*
X298052Y84332D01*
X298061Y84409D01*
X298067Y84485D01*
X298069Y84562D01*
X298069Y87173D01*
X291804Y87173D01*
X288671Y91635D02*
X298069Y91635D01*
X288671Y91635D02*
X288671Y95812D01*
X292848Y95812D02*
X292848Y91635D01*
D10*
X196850Y38100D02*
X184150Y38100D01*
X196850Y38100D02*
X203200Y31750D01*
X203200Y19050D02*
X196850Y12700D01*
X158750Y38100D02*
X152400Y31750D01*
X158750Y38100D02*
X171450Y38100D01*
X177800Y31750D01*
X177800Y19050D02*
X171450Y12700D01*
X158750Y12700D01*
X152400Y19050D01*
X177800Y31750D02*
X184150Y38100D01*
X177800Y19050D02*
X184150Y12700D01*
X196850Y12700D01*
X120650Y38100D02*
X107950Y38100D01*
X120650Y38100D02*
X127000Y31750D01*
X127000Y19050D02*
X120650Y12700D01*
X127000Y31750D02*
X133350Y38100D01*
X146050Y38100D01*
X152400Y31750D01*
X152400Y19050D02*
X146050Y12700D01*
X133350Y12700D01*
X127000Y19050D01*
X101600Y19050D02*
X101600Y31750D01*
X107950Y38100D01*
X101600Y19050D02*
X107950Y12700D01*
X120650Y12700D01*
X203200Y19050D02*
X203200Y31750D01*
X120650Y165100D02*
X107950Y165100D01*
X101600Y171450D01*
X101600Y184150D02*
X107950Y190500D01*
X146050Y165100D02*
X152400Y171450D01*
X146050Y165100D02*
X133350Y165100D01*
X127000Y171450D01*
X127000Y184150D02*
X133350Y190500D01*
X146050Y190500D01*
X152400Y184150D01*
X127000Y171450D02*
X120650Y165100D01*
X127000Y184150D02*
X120650Y190500D01*
X107950Y190500D01*
X184150Y165100D02*
X196850Y165100D01*
X184150Y165100D02*
X177800Y171450D01*
X177800Y184150D02*
X184150Y190500D01*
X177800Y171450D02*
X171450Y165100D01*
X158750Y165100D01*
X152400Y171450D01*
X152400Y184150D02*
X158750Y190500D01*
X171450Y190500D01*
X177800Y184150D01*
X203200Y184150D02*
X203200Y171450D01*
X196850Y165100D01*
X203200Y184150D02*
X196850Y190500D01*
X184150Y190500D01*
X101600Y184150D02*
X101600Y171450D01*
M02*
