G04 EAGLE Gerber X2 export*
G75*
%MOMM*%
%FSLAX34Y34*%
%LPD*%
%AMOC8*
5,1,8,0,0,1.08239X$1,22.5*%
G01*
%ADD10R,1.000000X1.100000*%
%ADD11R,1.100000X1.000000*%
%ADD12R,1.879600X1.879600*%
%ADD13C,1.879600*%
%ADD14C,0.254000*%
%ADD15C,1.016000*%


D10*
X39370Y58538D03*
X39370Y41538D03*
D11*
X69460Y142240D03*
X52460Y142240D03*
X245228Y161798D03*
X228228Y161798D03*
D10*
X111506Y95640D03*
X111506Y112640D03*
D11*
X244974Y58928D03*
X227974Y58928D03*
X138294Y60452D03*
X121294Y60452D03*
X244974Y144780D03*
X227974Y144780D03*
D10*
X198120Y95640D03*
X198120Y112640D03*
D11*
X158106Y136652D03*
X141106Y136652D03*
X69714Y161798D03*
X52714Y161798D03*
X158106Y151384D03*
X141106Y151384D03*
D12*
X114300Y25400D03*
D13*
X139700Y25400D03*
X165100Y25400D03*
X190500Y25400D03*
D12*
X190500Y177800D03*
D13*
X165100Y177800D03*
X139700Y177800D03*
X114300Y177800D03*
D14*
X109220Y116840D02*
X111506Y112640D01*
X85598Y136262D02*
X85598Y139700D01*
D15*
X85598Y139700D03*
X109220Y76200D03*
X213360Y134620D03*
X284480Y142240D03*
D14*
X198120Y127000D02*
X198120Y112640D01*
D15*
X127000Y129540D03*
D14*
X121920Y129540D01*
X198120Y112640D02*
X208534Y102226D01*
X208534Y96520D01*
X208534Y73660D01*
X213360Y134620D02*
X223520Y144780D01*
X227974Y144780D01*
X227974Y161544D01*
X228228Y161798D01*
X230058Y161798D01*
X238360Y170100D01*
X256620Y170100D01*
X284480Y142240D01*
X213360Y134620D02*
X205740Y127000D01*
X198120Y127000D01*
D15*
X210232Y96520D03*
D14*
X208534Y96520D01*
D15*
X272246Y63796D03*
D14*
X266858Y63796D01*
X261816Y58754D01*
D15*
X232876Y71162D03*
D14*
X227974Y66260D01*
X227974Y58928D01*
X227974Y66260D02*
X215934Y66260D01*
X208534Y73660D01*
X259970Y58754D02*
X261816Y58754D01*
X259970Y58754D02*
X251842Y50626D01*
X236276Y50626D01*
X227974Y58928D01*
X141106Y151384D02*
X151266Y161544D01*
X163576Y161544D01*
X141106Y151384D02*
X141106Y136652D01*
X133994Y129540D01*
X127000Y129540D01*
X109220Y72526D02*
X121294Y60452D01*
X109220Y72526D02*
X109220Y76200D01*
D15*
X127762Y73406D03*
D14*
X121294Y66938D01*
X121294Y60452D01*
D15*
X205486Y56896D03*
D14*
X214850Y66260D01*
X215934Y66260D01*
X198120Y127000D02*
X187198Y137922D01*
X171450Y153670D02*
X163576Y161544D01*
X171450Y153670D02*
X180256Y153670D01*
X187198Y146728D01*
X187198Y137922D01*
D15*
X57489Y71035D03*
D14*
X47672Y61218D01*
X47672Y51670D01*
X39370Y43368D02*
X39370Y41538D01*
X39370Y43368D02*
X47672Y51670D01*
D15*
X33782Y77724D03*
D14*
X40471Y71035D01*
X57489Y71035D01*
X52460Y161544D02*
X52714Y161798D01*
X52460Y161544D02*
X52460Y142240D01*
X44586Y134366D01*
X35306Y134366D01*
D15*
X35306Y134366D03*
D14*
X33782Y132842D02*
X33782Y77724D01*
X33782Y132842D02*
X35306Y134366D01*
X111506Y112640D02*
X121294Y102852D01*
X121294Y60452D01*
X111506Y112640D02*
X111506Y119126D01*
X121920Y129540D01*
X85598Y138548D02*
X85598Y139700D01*
X85598Y138548D02*
X111506Y112640D01*
D15*
X200152Y74778D03*
D14*
X191414Y66040D01*
X172212Y66040D01*
X156210Y50038D01*
X150622Y50038D01*
X115062Y50038D01*
X101092Y64008D01*
D15*
X152146Y58420D03*
D14*
X150622Y56896D01*
X150622Y50038D01*
X101092Y64008D02*
X80634Y64008D01*
X73500Y56874D01*
X73500Y47582D01*
X33002Y32736D02*
X24590Y41148D01*
X16002Y41148D01*
X65029Y39111D02*
X73500Y47582D01*
X65029Y39111D02*
X58654Y32736D01*
X33002Y32736D01*
X16002Y41148D02*
X10160Y46990D01*
X10160Y68580D01*
D15*
X10160Y68580D03*
X65029Y39111D03*
X88900Y53340D03*
D14*
X165100Y45720D02*
X165100Y25400D01*
D15*
X175260Y55880D03*
D14*
X165100Y45720D01*
X175260Y55880D02*
X175514Y55880D01*
D15*
X262890Y48514D03*
D14*
X262636Y48768D01*
X262890Y48514D02*
X256196Y48514D01*
X253736Y46054D01*
X185340Y46054D01*
X175514Y55880D01*
X165100Y45720D02*
X160528Y41148D01*
X100584Y41148D01*
X88900Y52832D01*
X88900Y53340D01*
D15*
X187960Y78740D03*
X259080Y134620D03*
D14*
X245228Y145034D02*
X245228Y161798D01*
X245228Y145034D02*
X244974Y144780D01*
X255134Y134620D01*
X259080Y134620D01*
X274949Y118751D02*
X274949Y78353D01*
X274949Y118751D02*
X270129Y123571D01*
X259080Y134620D01*
D15*
X270129Y123571D03*
D14*
X274949Y78353D02*
X283707Y69596D01*
X283972Y69596D01*
D15*
X283972Y69596D03*
D14*
X274949Y78353D02*
X264399Y78353D01*
X244974Y58928D01*
X158106Y136652D02*
X158106Y151384D01*
X187960Y78740D02*
X179832Y70612D01*
X142324Y60452D02*
X138294Y60452D01*
X142324Y60452D02*
X152484Y70612D01*
X179832Y70612D01*
X165667Y129091D02*
X158106Y136652D01*
X165667Y129091D02*
X176377Y118381D01*
X176377Y98128D01*
X187960Y86545D02*
X187960Y78740D01*
X187960Y86545D02*
X176377Y98128D01*
X170239Y129091D02*
X165667Y129091D01*
X170239Y129091D02*
X174244Y133096D01*
D15*
X174244Y133096D03*
D14*
X39370Y58538D02*
X30852Y67056D01*
X23876Y67056D01*
D15*
X23876Y67056D03*
D14*
X59182Y56896D02*
X67056Y56896D01*
D15*
X59182Y56896D03*
X98298Y82520D03*
D14*
X84358Y68580D01*
X78740Y68580D01*
X67056Y56896D01*
D15*
X94996Y152400D03*
D14*
X85598Y161798D01*
X69714Y161798D01*
X69714Y142494D01*
X69460Y142240D01*
D15*
X97459Y99999D03*
D14*
X101819Y95640D01*
X111506Y95640D01*
X191262Y95640D02*
X198120Y95640D01*
X191262Y95640D02*
X185302Y101600D01*
X184759Y101600D01*
D15*
X184759Y101600D03*
X189094Y124172D03*
X176784Y145288D03*
D14*
X182626Y130640D02*
X189094Y124172D01*
X182626Y130640D02*
X182626Y136568D01*
X176784Y142410D02*
X176784Y145288D01*
X176784Y142410D02*
X182626Y136568D01*
M02*
