G04 EAGLE Gerber X2 export*
%TF.Part,Single*%
%TF.FileFunction,Other,Top Soldermask*%
%TF.FilePolarity,Positive*%
%TF.GenerationSoftware,Autodesk,EAGLE,8.7.0*%
%TF.CreationDate,2018-03-10T10:11:16Z*%
G75*
%MOMM*%
%FSLAX34Y34*%
%LPD*%
%AMOC8*
5,1,8,0,0,1.08239X$1,22.5*%
G01*
%ADD10R,1.117600X0.482600*%
%ADD11R,0.482600X1.117600*%
%ADD12R,1.203200X1.303200*%
%ADD13R,2.082800X2.082800*%
%ADD14C,2.082800*%


D10*
X45100Y101600D03*
X45100Y106600D03*
X45100Y111600D03*
X45100Y116600D03*
X45100Y96600D03*
X45100Y91600D03*
X45100Y86600D03*
X81900Y96600D03*
X81900Y106600D03*
X81900Y101600D03*
X81900Y116600D03*
X81900Y111600D03*
X81900Y86600D03*
X81900Y91600D03*
D11*
X63500Y120000D03*
X68500Y120000D03*
X73500Y120000D03*
X58500Y120000D03*
X53500Y120000D03*
X53500Y83200D03*
X58500Y83200D03*
X63500Y83200D03*
X68500Y83200D03*
X73500Y83200D03*
D12*
X25400Y110100D03*
X25400Y93100D03*
D10*
X134000Y101600D03*
X134000Y106600D03*
X134000Y111600D03*
X134000Y116600D03*
X134000Y96600D03*
X134000Y91600D03*
X134000Y86600D03*
X170800Y96600D03*
X170800Y106600D03*
X170800Y101600D03*
X170800Y116600D03*
X170800Y111600D03*
X170800Y86600D03*
X170800Y91600D03*
D11*
X152400Y120000D03*
X157400Y120000D03*
X162400Y120000D03*
X147400Y120000D03*
X142400Y120000D03*
X142400Y83200D03*
X147400Y83200D03*
X152400Y83200D03*
X157400Y83200D03*
X162400Y83200D03*
D12*
X116840Y110100D03*
X116840Y93100D03*
D10*
X222900Y101600D03*
X222900Y106600D03*
X222900Y111600D03*
X222900Y116600D03*
X222900Y96600D03*
X222900Y91600D03*
X222900Y86600D03*
X259700Y96600D03*
X259700Y106600D03*
X259700Y101600D03*
X259700Y116600D03*
X259700Y111600D03*
X259700Y86600D03*
X259700Y91600D03*
D11*
X241300Y120000D03*
X246300Y120000D03*
X251300Y120000D03*
X236300Y120000D03*
X231300Y120000D03*
X231300Y83200D03*
X236300Y83200D03*
X241300Y83200D03*
X246300Y83200D03*
X251300Y83200D03*
D12*
X197358Y110608D03*
X197358Y93608D03*
X287020Y108340D03*
X287020Y125340D03*
D13*
X114300Y25400D03*
D14*
X139700Y25400D03*
X165100Y25400D03*
X190500Y25400D03*
D13*
X190500Y177800D03*
D14*
X165100Y177800D03*
X139700Y177800D03*
X114300Y177800D03*
M02*
