M48
;GenerationSoftware,Autodesk,EAGLE,8.7.0*%
;CreationDate,2018-03-12T03:04:30Z*%
FMAT,2
ICI,OFF
METRIC,TZ,000.000
T2C0.508
T1C1.016
%
G90
M71
T1
X11430Y17780
X13970Y17780
X16510Y17780
X19050Y17780
X19050Y2540
X16510Y2540
X13970Y2540
X11430Y2540
T2
X12776Y7341
X20549Y5690
X5749Y7103
X3378Y7772
X3531Y13437
X20015Y7478
X15215Y5842
X1016Y6858
X6503Y3911
X8890Y5334
X17526Y5588
X26289Y4851
X8560Y13970
X25908Y13462
X27013Y12357
X28397Y6960
X17424Y13310
X2388Y6706
X5918Y5690
X9830Y8252
X9500Y15240
X9746Y10000
X18476Y10160
X18909Y12417
X17678Y14529
X23288Y7116
X27225Y6380
X21023Y9652
X12700Y12954
X28448Y14224
X21336Y13462
X10922Y7620
X18796Y7874
M30