G04 EAGLE Gerber X2 export*
G75*
%MOMM*%
%FSLAX34Y34*%
%LPD*%
%AMOC8*
5,1,8,0,0,1.08239X$1,22.5*%
G01*
%ADD10C,0.203200*%
%ADD11R,1.397000X0.002538*%
%ADD12R,1.402075X0.002538*%
%ADD13R,1.407156X0.002538*%
%ADD14R,1.412238X0.002538*%
%ADD15R,1.417319X0.002538*%
%ADD16R,1.422400X0.002538*%
%ADD17R,0.030475X0.002538*%
%ADD18R,0.033019X0.002538*%
%ADD19R,0.030481X0.002538*%
%ADD20R,0.027938X0.002538*%
%ADD21R,0.035563X0.002538*%
%ADD22R,0.035556X0.002538*%
%ADD23R,0.830581X0.002538*%
%ADD24R,1.089656X0.002538*%
%ADD25R,1.092200X0.002538*%
%ADD26R,1.097275X0.002538*%
%ADD27R,1.099819X0.002538*%
%ADD28R,1.102356X0.002538*%
%ADD29R,1.104900X0.002538*%
%ADD30R,1.107438X0.002538*%
%ADD31R,1.109981X0.002538*%
%ADD32R,1.112519X0.002538*%
%ADD33R,1.117600X0.002538*%
%ADD34R,1.089662X0.002538*%
%ADD35R,1.094738X0.002538*%
%ADD36R,1.115063X0.002538*%
%ADD37R,0.038100X0.002538*%
%ADD38R,0.040638X0.002538*%
%ADD39R,0.043181X0.002538*%
%ADD40R,0.045719X0.002538*%
%ADD41R,0.048256X0.002538*%
%ADD42R,0.050800X0.002538*%
%ADD43R,0.053338X0.002538*%
%ADD44R,0.058419X0.002538*%
%ADD45R,0.060956X0.002538*%
%ADD46R,0.063500X0.002538*%
%ADD47R,0.043175X0.002538*%
%ADD48R,0.060963X0.002538*%
%ADD49R,1.115056X0.002538*%
%ADD50R,1.109975X0.002538*%
%ADD51R,1.097281X0.002538*%
%ADD52R,0.830575X0.002538*%
%ADD53C,0.152400*%
%ADD54R,0.381000X0.762000*%
%ADD55C,0.076200*%
%ADD56C,0.381000*%


D10*
X74168Y135636D02*
X74168Y124968D01*
X78909Y124968D01*
X85845Y127339D02*
X85845Y135636D01*
X85846Y127339D02*
X85844Y127244D01*
X85838Y127148D01*
X85829Y127053D01*
X85815Y126959D01*
X85798Y126865D01*
X85777Y126772D01*
X85752Y126679D01*
X85724Y126588D01*
X85692Y126498D01*
X85656Y126410D01*
X85617Y126323D01*
X85574Y126237D01*
X85528Y126153D01*
X85479Y126072D01*
X85426Y125992D01*
X85370Y125915D01*
X85312Y125839D01*
X85250Y125767D01*
X85185Y125697D01*
X85117Y125629D01*
X85047Y125564D01*
X84975Y125502D01*
X84899Y125444D01*
X84822Y125388D01*
X84742Y125335D01*
X84660Y125286D01*
X84577Y125240D01*
X84491Y125197D01*
X84404Y125158D01*
X84316Y125122D01*
X84226Y125090D01*
X84135Y125062D01*
X84042Y125037D01*
X83949Y125016D01*
X83855Y124999D01*
X83761Y124985D01*
X83666Y124976D01*
X83570Y124970D01*
X83475Y124968D01*
X82289Y124968D01*
X100931Y124968D02*
X101027Y124970D01*
X101122Y124976D01*
X101217Y124985D01*
X101311Y124999D01*
X101405Y125016D01*
X101498Y125037D01*
X101591Y125062D01*
X101682Y125090D01*
X101772Y125122D01*
X101860Y125158D01*
X101947Y125197D01*
X102033Y125240D01*
X102117Y125286D01*
X102198Y125335D01*
X102278Y125388D01*
X102355Y125444D01*
X102431Y125502D01*
X102503Y125564D01*
X102573Y125629D01*
X102641Y125697D01*
X102706Y125767D01*
X102768Y125839D01*
X102826Y125915D01*
X102882Y125992D01*
X102935Y126072D01*
X102984Y126154D01*
X103030Y126237D01*
X103073Y126323D01*
X103112Y126410D01*
X103148Y126498D01*
X103180Y126588D01*
X103208Y126679D01*
X103233Y126772D01*
X103254Y126865D01*
X103271Y126959D01*
X103285Y127053D01*
X103294Y127148D01*
X103300Y127244D01*
X103302Y127339D01*
X100931Y124968D02*
X100795Y124970D01*
X100658Y124975D01*
X100522Y124985D01*
X100387Y124998D01*
X100251Y125014D01*
X100117Y125035D01*
X99982Y125059D01*
X99849Y125086D01*
X99716Y125118D01*
X99584Y125152D01*
X99453Y125191D01*
X99324Y125233D01*
X99195Y125278D01*
X99068Y125327D01*
X98942Y125380D01*
X98818Y125436D01*
X98695Y125495D01*
X98574Y125557D01*
X98454Y125623D01*
X98337Y125692D01*
X98221Y125765D01*
X98107Y125840D01*
X97996Y125918D01*
X97886Y126000D01*
X97779Y126084D01*
X97675Y126171D01*
X97572Y126261D01*
X97472Y126354D01*
X97375Y126450D01*
X97671Y133265D02*
X97673Y133360D01*
X97679Y133456D01*
X97688Y133551D01*
X97702Y133645D01*
X97719Y133739D01*
X97740Y133832D01*
X97765Y133925D01*
X97793Y134016D01*
X97825Y134106D01*
X97861Y134194D01*
X97900Y134281D01*
X97943Y134367D01*
X97989Y134451D01*
X98038Y134532D01*
X98091Y134612D01*
X98147Y134689D01*
X98205Y134765D01*
X98267Y134837D01*
X98332Y134907D01*
X98400Y134975D01*
X98470Y135040D01*
X98542Y135102D01*
X98618Y135160D01*
X98695Y135216D01*
X98775Y135269D01*
X98857Y135318D01*
X98940Y135364D01*
X99026Y135407D01*
X99113Y135446D01*
X99201Y135482D01*
X99291Y135514D01*
X99382Y135542D01*
X99475Y135567D01*
X99568Y135588D01*
X99662Y135605D01*
X99756Y135619D01*
X99851Y135628D01*
X99947Y135634D01*
X100042Y135636D01*
X100172Y135634D01*
X100302Y135628D01*
X100432Y135619D01*
X100561Y135606D01*
X100690Y135589D01*
X100818Y135568D01*
X100946Y135543D01*
X101073Y135515D01*
X101199Y135483D01*
X101324Y135447D01*
X101448Y135408D01*
X101570Y135365D01*
X101692Y135319D01*
X101812Y135268D01*
X101930Y135215D01*
X102047Y135158D01*
X102162Y135098D01*
X102276Y135034D01*
X102387Y134967D01*
X102497Y134897D01*
X102604Y134823D01*
X102709Y134747D01*
X98857Y131190D02*
X98775Y131241D01*
X98695Y131295D01*
X98617Y131351D01*
X98542Y131411D01*
X98469Y131474D01*
X98399Y131540D01*
X98332Y131608D01*
X98267Y131679D01*
X98205Y131753D01*
X98146Y131829D01*
X98090Y131907D01*
X98038Y131988D01*
X97988Y132070D01*
X97942Y132155D01*
X97900Y132241D01*
X97860Y132329D01*
X97825Y132418D01*
X97793Y132509D01*
X97764Y132601D01*
X97740Y132694D01*
X97719Y132787D01*
X97702Y132882D01*
X97688Y132977D01*
X97679Y133073D01*
X97673Y133169D01*
X97671Y133265D01*
X102117Y129414D02*
X102198Y129363D01*
X102278Y129309D01*
X102356Y129253D01*
X102431Y129193D01*
X102504Y129130D01*
X102574Y129064D01*
X102641Y128996D01*
X102706Y128925D01*
X102768Y128851D01*
X102827Y128775D01*
X102883Y128697D01*
X102935Y128616D01*
X102985Y128534D01*
X103031Y128449D01*
X103073Y128363D01*
X103113Y128275D01*
X103148Y128186D01*
X103180Y128095D01*
X103209Y128003D01*
X103233Y127910D01*
X103254Y127817D01*
X103271Y127722D01*
X103285Y127627D01*
X103294Y127531D01*
X103300Y127435D01*
X103302Y127339D01*
X102116Y129413D02*
X98857Y131191D01*
X110625Y135636D02*
X110625Y124968D01*
X107662Y135636D02*
X113589Y135636D01*
X121293Y135636D02*
X117737Y124968D01*
X124849Y124968D02*
X121293Y135636D01*
X123960Y127635D02*
X118626Y127635D01*
X130141Y124968D02*
X130141Y135636D01*
X136068Y124968D01*
X136068Y135636D01*
X142333Y135636D02*
X142333Y124968D01*
X142333Y135636D02*
X145296Y135636D01*
X145402Y135634D01*
X145507Y135628D01*
X145613Y135619D01*
X145718Y135606D01*
X145822Y135589D01*
X145926Y135568D01*
X146029Y135544D01*
X146131Y135516D01*
X146232Y135484D01*
X146331Y135449D01*
X146430Y135410D01*
X146527Y135368D01*
X146622Y135323D01*
X146716Y135274D01*
X146808Y135221D01*
X146898Y135166D01*
X146986Y135107D01*
X147072Y135045D01*
X147155Y134980D01*
X147236Y134912D01*
X147315Y134842D01*
X147391Y134768D01*
X147465Y134692D01*
X147535Y134613D01*
X147603Y134532D01*
X147668Y134449D01*
X147730Y134363D01*
X147789Y134275D01*
X147844Y134185D01*
X147897Y134093D01*
X147946Y133999D01*
X147991Y133904D01*
X148033Y133807D01*
X148072Y133708D01*
X148107Y133609D01*
X148139Y133508D01*
X148167Y133406D01*
X148191Y133303D01*
X148212Y133199D01*
X148229Y133095D01*
X148242Y132990D01*
X148251Y132884D01*
X148257Y132779D01*
X148259Y132673D01*
X148260Y132673D02*
X148260Y127931D01*
X148259Y127931D02*
X148257Y127825D01*
X148251Y127720D01*
X148242Y127614D01*
X148229Y127509D01*
X148212Y127405D01*
X148191Y127301D01*
X148167Y127198D01*
X148139Y127096D01*
X148107Y126995D01*
X148072Y126896D01*
X148033Y126797D01*
X147991Y126700D01*
X147946Y126605D01*
X147897Y126511D01*
X147844Y126419D01*
X147789Y126329D01*
X147730Y126241D01*
X147668Y126155D01*
X147603Y126072D01*
X147535Y125991D01*
X147465Y125912D01*
X147391Y125836D01*
X147315Y125762D01*
X147236Y125692D01*
X147155Y125624D01*
X147072Y125559D01*
X146986Y125497D01*
X146898Y125438D01*
X146808Y125383D01*
X146716Y125330D01*
X146622Y125281D01*
X146527Y125236D01*
X146430Y125194D01*
X146331Y125155D01*
X146232Y125120D01*
X146131Y125088D01*
X146029Y125060D01*
X145926Y125036D01*
X145822Y125015D01*
X145718Y124998D01*
X145613Y124985D01*
X145507Y124976D01*
X145402Y124970D01*
X145296Y124968D01*
X142333Y124968D01*
D11*
X190310Y66345D03*
D12*
X190310Y66370D03*
X190310Y66396D03*
D13*
X190310Y66421D03*
D14*
X190310Y66446D03*
X190310Y66472D03*
D15*
X190310Y66497D03*
X190310Y66523D03*
D16*
X190310Y66548D03*
X190310Y66573D03*
D17*
X183325Y66599D03*
D18*
X194234Y66599D03*
D17*
X197295Y66599D03*
X183299Y66624D03*
D18*
X194259Y66624D03*
D19*
X197320Y66624D03*
D20*
X183286Y66650D03*
D18*
X194259Y66650D03*
D20*
X197333Y66650D03*
D19*
X183274Y66675D03*
D18*
X194285Y66675D03*
D19*
X197345Y66675D03*
D20*
X183261Y66700D03*
D21*
X194297Y66700D03*
D20*
X197358Y66700D03*
D19*
X183248Y66726D03*
D18*
X194310Y66726D03*
D19*
X197371Y66726D03*
D20*
X183236Y66751D03*
D18*
X194335Y66751D03*
D20*
X197383Y66751D03*
D19*
X183223Y66777D03*
D18*
X194335Y66777D03*
D17*
X197396Y66777D03*
X183198Y66802D03*
D18*
X194361Y66802D03*
D17*
X197422Y66802D03*
D20*
X183185Y66827D03*
D18*
X194361Y66827D03*
D20*
X197434Y66827D03*
D17*
X183172Y66853D03*
D18*
X194386Y66853D03*
D19*
X197447Y66853D03*
D20*
X183159Y66878D03*
D22*
X194399Y66878D03*
D20*
X197460Y66878D03*
D19*
X183147Y66904D03*
D18*
X194412Y66904D03*
D19*
X197472Y66904D03*
X183121Y66929D03*
D18*
X194437Y66929D03*
D19*
X197498Y66929D03*
X183121Y66954D03*
D18*
X194437Y66954D03*
D19*
X197498Y66954D03*
X183096Y66980D03*
D18*
X194462Y66980D03*
D17*
X197523Y66980D03*
D20*
X183083Y67005D03*
D18*
X194462Y67005D03*
D20*
X197536Y67005D03*
D17*
X183071Y67031D03*
D18*
X194488Y67031D03*
D17*
X197549Y67031D03*
D20*
X183058Y67056D03*
D18*
X194513Y67056D03*
D20*
X197561Y67056D03*
D17*
X183045Y67081D03*
D18*
X194513Y67081D03*
D19*
X197574Y67081D03*
X183020Y67107D03*
D18*
X194539Y67107D03*
D19*
X197599Y67107D03*
X183020Y67132D03*
D18*
X194539Y67132D03*
D19*
X197599Y67132D03*
X182994Y67158D03*
D18*
X194564Y67158D03*
D19*
X197625Y67158D03*
D20*
X182982Y67183D03*
D18*
X194564Y67183D03*
D20*
X197637Y67183D03*
D19*
X182969Y67208D03*
D18*
X194589Y67208D03*
D17*
X197650Y67208D03*
D20*
X182956Y67234D03*
D18*
X194615Y67234D03*
D20*
X197663Y67234D03*
D17*
X182944Y67259D03*
D18*
X194615Y67259D03*
D17*
X197676Y67259D03*
X182918Y67285D03*
D18*
X194640Y67285D03*
D19*
X197701Y67285D03*
D20*
X182905Y67310D03*
D18*
X194640Y67310D03*
D20*
X197714Y67310D03*
D19*
X182893Y67335D03*
D18*
X194666Y67335D03*
D19*
X197726Y67335D03*
D20*
X182880Y67361D03*
D18*
X194666Y67361D03*
D20*
X197739Y67361D03*
D19*
X182867Y67386D03*
D18*
X194691Y67386D03*
D19*
X197752Y67386D03*
D20*
X182855Y67412D03*
D18*
X194716Y67412D03*
D20*
X197764Y67412D03*
D19*
X182842Y67437D03*
D18*
X194716Y67437D03*
D17*
X197777Y67437D03*
X182817Y67462D03*
D18*
X194742Y67462D03*
D17*
X197803Y67462D03*
D20*
X182804Y67488D03*
D18*
X194742Y67488D03*
D20*
X197815Y67488D03*
D17*
X182791Y67513D03*
D18*
X194767Y67513D03*
D19*
X197828Y67513D03*
D20*
X182778Y67539D03*
D18*
X194767Y67539D03*
D20*
X197841Y67539D03*
D19*
X182766Y67564D03*
D18*
X194793Y67564D03*
D19*
X197853Y67564D03*
X182740Y67589D03*
D18*
X194818Y67589D03*
D19*
X197879Y67589D03*
X182740Y67615D03*
D18*
X194818Y67615D03*
D19*
X197879Y67615D03*
X182715Y67640D03*
D18*
X194843Y67640D03*
D17*
X197904Y67640D03*
D20*
X182702Y67666D03*
D18*
X194843Y67666D03*
D20*
X197917Y67666D03*
D17*
X182690Y67691D03*
D18*
X194869Y67691D03*
D17*
X197930Y67691D03*
D20*
X182677Y67716D03*
D17*
X194882Y67716D03*
D20*
X197942Y67716D03*
D17*
X182664Y67742D03*
D18*
X194894Y67742D03*
D19*
X197955Y67742D03*
X182639Y67767D03*
D18*
X194920Y67767D03*
D19*
X197980Y67767D03*
D20*
X182626Y67793D03*
D18*
X194920Y67793D03*
D20*
X197993Y67793D03*
D19*
X182613Y67818D03*
D18*
X194945Y67818D03*
D19*
X198006Y67818D03*
D20*
X182601Y67843D03*
D18*
X194945Y67843D03*
D20*
X198018Y67843D03*
D19*
X182588Y67869D03*
D18*
X194970Y67869D03*
D17*
X198031Y67869D03*
D20*
X182575Y67894D03*
D17*
X194983Y67894D03*
D20*
X198044Y67894D03*
D17*
X182563Y67920D03*
D18*
X194996Y67920D03*
D17*
X198057Y67920D03*
X182537Y67945D03*
D18*
X195021Y67945D03*
D19*
X198082Y67945D03*
D20*
X182524Y67970D03*
D18*
X195021Y67970D03*
D20*
X198095Y67970D03*
D19*
X182512Y67996D03*
D18*
X195047Y67996D03*
D19*
X198107Y67996D03*
D20*
X182499Y68021D03*
D18*
X195047Y68021D03*
D20*
X198120Y68021D03*
D19*
X182486Y68047D03*
D18*
X195072Y68047D03*
D19*
X198133Y68047D03*
D20*
X182474Y68072D03*
D19*
X195085Y68072D03*
D20*
X198145Y68072D03*
D19*
X182461Y68097D03*
D18*
X195097Y68097D03*
D17*
X198158Y68097D03*
X182436Y68123D03*
D18*
X195123Y68123D03*
D17*
X198184Y68123D03*
D20*
X182423Y68148D03*
D18*
X195123Y68148D03*
D20*
X198196Y68148D03*
D17*
X182410Y68174D03*
D18*
X195148Y68174D03*
D19*
X198209Y68174D03*
D20*
X182397Y68199D03*
D19*
X195161Y68199D03*
D20*
X198222Y68199D03*
D19*
X182385Y68224D03*
D18*
X195174Y68224D03*
D19*
X198234Y68224D03*
X182359Y68250D03*
X195186Y68250D03*
X198260Y68250D03*
X182359Y68275D03*
D18*
X195199Y68275D03*
D19*
X198260Y68275D03*
X182334Y68301D03*
D18*
X195224Y68301D03*
D17*
X198285Y68301D03*
D20*
X182321Y68326D03*
D18*
X195224Y68326D03*
D20*
X198298Y68326D03*
D17*
X182309Y68351D03*
D18*
X195250Y68351D03*
D17*
X198311Y68351D03*
D20*
X182296Y68377D03*
D17*
X195263Y68377D03*
D20*
X198323Y68377D03*
D17*
X182283Y68402D03*
D18*
X195275Y68402D03*
D19*
X198336Y68402D03*
X182258Y68428D03*
D18*
X195301Y68428D03*
D19*
X198361Y68428D03*
D20*
X182245Y68453D03*
D18*
X195301Y68453D03*
D20*
X198374Y68453D03*
D19*
X182232Y68478D03*
D18*
X195326Y68478D03*
D19*
X198387Y68478D03*
D20*
X182220Y68504D03*
D18*
X195326Y68504D03*
D20*
X198399Y68504D03*
D19*
X182207Y68529D03*
D18*
X195351Y68529D03*
D17*
X198412Y68529D03*
D20*
X182194Y68555D03*
D17*
X195364Y68555D03*
D20*
X198425Y68555D03*
D17*
X182182Y68580D03*
D18*
X195377Y68580D03*
D17*
X198438Y68580D03*
X182156Y68605D03*
D18*
X195402Y68605D03*
D19*
X198463Y68605D03*
D20*
X182143Y68631D03*
D18*
X195402Y68631D03*
D20*
X198476Y68631D03*
D19*
X182131Y68656D03*
D18*
X195428Y68656D03*
D19*
X198488Y68656D03*
D20*
X182118Y68682D03*
D18*
X195428Y68682D03*
D20*
X198501Y68682D03*
D19*
X182105Y68707D03*
D18*
X195453Y68707D03*
D19*
X198514Y68707D03*
D20*
X182093Y68732D03*
D19*
X195466Y68732D03*
D20*
X198526Y68732D03*
D19*
X182080Y68758D03*
D18*
X195478Y68758D03*
D17*
X198539Y68758D03*
X182055Y68783D03*
D18*
X195504Y68783D03*
D17*
X198565Y68783D03*
D20*
X182042Y68809D03*
D18*
X195504Y68809D03*
D20*
X198577Y68809D03*
D17*
X182029Y68834D03*
D18*
X195529Y68834D03*
D19*
X198590Y68834D03*
D20*
X182016Y68859D03*
D19*
X195542Y68859D03*
D20*
X198603Y68859D03*
D19*
X182004Y68885D03*
D18*
X195555Y68885D03*
D19*
X198615Y68885D03*
X181978Y68910D03*
X195567Y68910D03*
X198641Y68910D03*
X181978Y68936D03*
D18*
X195580Y68936D03*
D19*
X198641Y68936D03*
X181953Y68961D03*
D18*
X195605Y68961D03*
D17*
X198666Y68961D03*
D23*
X185953Y68986D03*
D18*
X195605Y68986D03*
D20*
X198679Y68986D03*
D24*
X187223Y69012D03*
D18*
X195631Y69012D03*
D17*
X198692Y69012D03*
D25*
X187236Y69037D03*
D17*
X195644Y69037D03*
D20*
X198704Y69037D03*
D26*
X187236Y69063D03*
D18*
X195656Y69063D03*
D19*
X198717Y69063D03*
D27*
X187223Y69088D03*
D19*
X195669Y69088D03*
X198742Y69088D03*
D28*
X187236Y69113D03*
D18*
X195682Y69113D03*
D20*
X198755Y69113D03*
D29*
X187223Y69139D03*
D18*
X195707Y69139D03*
D19*
X198768Y69139D03*
D30*
X187236Y69164D03*
D18*
X195707Y69164D03*
D20*
X198780Y69164D03*
D31*
X187223Y69190D03*
D18*
X195732Y69190D03*
D17*
X198793Y69190D03*
D32*
X187236Y69215D03*
D17*
X195745Y69215D03*
D20*
X198806Y69215D03*
D33*
X187236Y69240D03*
D18*
X195758Y69240D03*
D17*
X198819Y69240D03*
X181775Y69266D03*
D20*
X192684Y69266D03*
D17*
X195771Y69266D03*
D19*
X198844Y69266D03*
D20*
X181762Y69291D03*
D17*
X192697Y69291D03*
D18*
X195783Y69291D03*
D20*
X198857Y69291D03*
D19*
X181750Y69317D03*
D20*
X192710Y69317D03*
D18*
X195809Y69317D03*
D19*
X198869Y69317D03*
D20*
X181737Y69342D03*
D17*
X192723Y69342D03*
D18*
X195809Y69342D03*
D20*
X198882Y69342D03*
D19*
X181724Y69367D03*
D20*
X192735Y69367D03*
D18*
X195834Y69367D03*
D19*
X198895Y69367D03*
X181699Y69393D03*
X192748Y69393D03*
X195847Y69393D03*
D17*
X198920Y69393D03*
D19*
X181699Y69418D03*
X192773Y69418D03*
D18*
X195859Y69418D03*
D17*
X198920Y69418D03*
X181674Y69444D03*
D20*
X192786Y69444D03*
D17*
X195872Y69444D03*
X198946Y69444D03*
D20*
X181661Y69469D03*
D19*
X192799Y69469D03*
D18*
X195885Y69469D03*
D20*
X198958Y69469D03*
D17*
X181648Y69494D03*
D20*
X192811Y69494D03*
D18*
X195910Y69494D03*
D19*
X198971Y69494D03*
D20*
X181635Y69520D03*
D17*
X192824Y69520D03*
D19*
X195923Y69520D03*
D20*
X198984Y69520D03*
D19*
X181623Y69545D03*
D20*
X192837Y69545D03*
D18*
X195936Y69545D03*
D19*
X198996Y69545D03*
X181597Y69571D03*
D17*
X192850Y69571D03*
D19*
X195948Y69571D03*
X199022Y69571D03*
D20*
X181585Y69596D03*
D19*
X192875Y69596D03*
D18*
X195961Y69596D03*
D20*
X199034Y69596D03*
D19*
X181572Y69621D03*
D20*
X192888Y69621D03*
D19*
X195974Y69621D03*
D17*
X199047Y69621D03*
D20*
X181559Y69647D03*
D19*
X192900Y69647D03*
D18*
X195986Y69647D03*
D20*
X199060Y69647D03*
D17*
X181547Y69672D03*
D20*
X192913Y69672D03*
D18*
X196012Y69672D03*
D17*
X199073Y69672D03*
D20*
X181534Y69698D03*
D19*
X192926Y69698D03*
D17*
X196025Y69698D03*
D20*
X199085Y69698D03*
D17*
X181521Y69723D03*
X192951Y69723D03*
D18*
X196037Y69723D03*
D19*
X199098Y69723D03*
X181496Y69748D03*
D17*
X192951Y69748D03*
D19*
X196050Y69748D03*
X199123Y69748D03*
D20*
X181483Y69774D03*
D17*
X192977Y69774D03*
D18*
X196063Y69774D03*
D20*
X199136Y69774D03*
D19*
X181470Y69799D03*
D20*
X192989Y69799D03*
D19*
X196075Y69799D03*
X199149Y69799D03*
D20*
X181458Y69825D03*
D19*
X193002Y69825D03*
D18*
X196088Y69825D03*
D20*
X199161Y69825D03*
D19*
X181445Y69850D03*
D20*
X193015Y69850D03*
D18*
X196113Y69850D03*
D17*
X199174Y69850D03*
D20*
X181432Y69875D03*
D19*
X193027Y69875D03*
D17*
X196126Y69875D03*
D20*
X199187Y69875D03*
D17*
X181420Y69901D03*
D19*
X193053Y69901D03*
D18*
X196139Y69901D03*
D17*
X199200Y69901D03*
X181394Y69926D03*
D20*
X193065Y69926D03*
D17*
X196152Y69926D03*
D19*
X199225Y69926D03*
D20*
X181381Y69952D03*
D17*
X193078Y69952D03*
D18*
X196164Y69952D03*
D20*
X199238Y69952D03*
D19*
X181369Y69977D03*
D20*
X193091Y69977D03*
D19*
X196177Y69977D03*
X199250Y69977D03*
D20*
X181356Y70002D03*
D17*
X193104Y70002D03*
D19*
X196202Y70002D03*
D20*
X199263Y70002D03*
D19*
X181343Y70028D03*
D20*
X193116Y70028D03*
D18*
X196215Y70028D03*
D19*
X199276Y70028D03*
X181318Y70053D03*
X193129Y70053D03*
X196228Y70053D03*
D17*
X199301Y70053D03*
D19*
X181318Y70079D03*
X193154Y70079D03*
D18*
X196240Y70079D03*
D17*
X199301Y70079D03*
X181293Y70104D03*
D20*
X193167Y70104D03*
D17*
X196253Y70104D03*
X199327Y70104D03*
D20*
X181280Y70129D03*
D19*
X193180Y70129D03*
D18*
X196266Y70129D03*
D20*
X199339Y70129D03*
D17*
X181267Y70155D03*
D20*
X193192Y70155D03*
D17*
X196279Y70155D03*
D19*
X199352Y70155D03*
D20*
X181254Y70180D03*
D17*
X193205Y70180D03*
D19*
X196304Y70180D03*
D20*
X199365Y70180D03*
D19*
X181242Y70206D03*
D17*
X193231Y70206D03*
D18*
X196317Y70206D03*
D19*
X199377Y70206D03*
X181216Y70231D03*
D17*
X193231Y70231D03*
D19*
X196329Y70231D03*
X199403Y70231D03*
D20*
X181204Y70256D03*
D19*
X193256Y70256D03*
D18*
X196342Y70256D03*
D20*
X199415Y70256D03*
D19*
X181191Y70282D03*
D20*
X193269Y70282D03*
D19*
X196355Y70282D03*
D17*
X199428Y70282D03*
D20*
X181178Y70307D03*
D19*
X193281Y70307D03*
D18*
X196367Y70307D03*
D20*
X199441Y70307D03*
D17*
X181166Y70333D03*
D20*
X193294Y70333D03*
D18*
X196393Y70333D03*
D17*
X199454Y70333D03*
D20*
X181153Y70358D03*
D19*
X193307Y70358D03*
D17*
X196406Y70358D03*
D20*
X199466Y70358D03*
D17*
X181140Y70383D03*
X193332Y70383D03*
D18*
X196418Y70383D03*
D19*
X199479Y70383D03*
X181115Y70409D03*
D20*
X193345Y70409D03*
D19*
X196431Y70409D03*
X199504Y70409D03*
D20*
X181102Y70434D03*
D17*
X193358Y70434D03*
D18*
X196444Y70434D03*
D20*
X199517Y70434D03*
D19*
X181089Y70460D03*
D20*
X193370Y70460D03*
D19*
X196456Y70460D03*
X199530Y70460D03*
D20*
X181077Y70485D03*
D19*
X193383Y70485D03*
D18*
X196469Y70485D03*
D20*
X199542Y70485D03*
D19*
X181064Y70510D03*
D20*
X193396Y70510D03*
D18*
X196494Y70510D03*
D17*
X199555Y70510D03*
D20*
X181051Y70536D03*
D19*
X193408Y70536D03*
D17*
X196507Y70536D03*
D20*
X199568Y70536D03*
D17*
X181039Y70561D03*
D19*
X193434Y70561D03*
D18*
X196520Y70561D03*
D17*
X199581Y70561D03*
X181013Y70587D03*
D20*
X193446Y70587D03*
D17*
X196533Y70587D03*
D19*
X199606Y70587D03*
D20*
X181000Y70612D03*
D17*
X193459Y70612D03*
D18*
X196545Y70612D03*
D20*
X199619Y70612D03*
D19*
X180988Y70637D03*
D20*
X193472Y70637D03*
D19*
X196558Y70637D03*
X199631Y70637D03*
D20*
X180975Y70663D03*
D17*
X193485Y70663D03*
D19*
X196583Y70663D03*
D20*
X199644Y70663D03*
D19*
X180962Y70688D03*
D20*
X193497Y70688D03*
D18*
X196596Y70688D03*
D19*
X199657Y70688D03*
X180937Y70714D03*
X193510Y70714D03*
X196609Y70714D03*
D17*
X199682Y70714D03*
D19*
X180937Y70739D03*
X193535Y70739D03*
D18*
X196621Y70739D03*
D17*
X199682Y70739D03*
X180912Y70764D03*
D20*
X193548Y70764D03*
D17*
X196634Y70764D03*
X199708Y70764D03*
D20*
X180899Y70790D03*
D19*
X193561Y70790D03*
D18*
X196647Y70790D03*
D20*
X199720Y70790D03*
D17*
X180886Y70815D03*
D20*
X193573Y70815D03*
D17*
X196660Y70815D03*
D19*
X199733Y70815D03*
D20*
X180873Y70841D03*
D17*
X193586Y70841D03*
D19*
X196685Y70841D03*
D20*
X199746Y70841D03*
D19*
X180861Y70866D03*
D17*
X193612Y70866D03*
D18*
X196698Y70866D03*
D19*
X199758Y70866D03*
X180835Y70891D03*
D17*
X193612Y70891D03*
D19*
X196710Y70891D03*
X199784Y70891D03*
D20*
X180823Y70917D03*
D19*
X193637Y70917D03*
D18*
X196723Y70917D03*
D20*
X199796Y70917D03*
D19*
X180810Y70942D03*
D20*
X193650Y70942D03*
D19*
X196736Y70942D03*
D17*
X199809Y70942D03*
D20*
X180797Y70968D03*
D19*
X193662Y70968D03*
D18*
X196748Y70968D03*
D20*
X199822Y70968D03*
D17*
X180785Y70993D03*
D20*
X193675Y70993D03*
D17*
X196761Y70993D03*
X199835Y70993D03*
D20*
X180772Y71018D03*
D19*
X193688Y71018D03*
D17*
X196787Y71018D03*
D20*
X199847Y71018D03*
D17*
X180759Y71044D03*
X193713Y71044D03*
D18*
X196799Y71044D03*
D19*
X199860Y71044D03*
X180734Y71069D03*
D20*
X193726Y71069D03*
D19*
X196812Y71069D03*
X199885Y71069D03*
D20*
X180721Y71095D03*
D17*
X193739Y71095D03*
D18*
X196825Y71095D03*
D20*
X199898Y71095D03*
D19*
X180708Y71120D03*
D20*
X193751Y71120D03*
D19*
X196837Y71120D03*
X199911Y71120D03*
D20*
X180696Y71145D03*
D19*
X193764Y71145D03*
D18*
X196850Y71145D03*
D20*
X199923Y71145D03*
D19*
X180683Y71171D03*
D20*
X193777Y71171D03*
D19*
X196863Y71171D03*
D17*
X199936Y71171D03*
D20*
X180670Y71196D03*
D19*
X193789Y71196D03*
D17*
X196888Y71196D03*
D20*
X199949Y71196D03*
D17*
X180658Y71222D03*
D19*
X193815Y71222D03*
D18*
X196901Y71222D03*
D17*
X199962Y71222D03*
X180632Y71247D03*
D20*
X193827Y71247D03*
D17*
X196914Y71247D03*
D19*
X199987Y71247D03*
D20*
X180619Y71272D03*
D17*
X193840Y71272D03*
D18*
X196926Y71272D03*
D20*
X200000Y71272D03*
D19*
X180607Y71298D03*
D20*
X193853Y71298D03*
D19*
X196939Y71298D03*
X200012Y71298D03*
D20*
X180594Y71323D03*
D17*
X193866Y71323D03*
D19*
X196964Y71323D03*
D20*
X200025Y71323D03*
D19*
X180581Y71349D03*
D20*
X193878Y71349D03*
D19*
X196964Y71349D03*
X200038Y71349D03*
X180556Y71374D03*
X193891Y71374D03*
X196990Y71374D03*
D17*
X200063Y71374D03*
D19*
X180556Y71399D03*
X193916Y71399D03*
D18*
X197002Y71399D03*
D17*
X200063Y71399D03*
X180531Y71425D03*
D20*
X193929Y71425D03*
D17*
X197015Y71425D03*
X200089Y71425D03*
D20*
X180518Y71450D03*
D19*
X193942Y71450D03*
D18*
X197028Y71450D03*
D20*
X200101Y71450D03*
D17*
X180505Y71476D03*
D20*
X193954Y71476D03*
D17*
X197041Y71476D03*
D19*
X200114Y71476D03*
D20*
X180492Y71501D03*
D17*
X193967Y71501D03*
D19*
X197066Y71501D03*
D20*
X200127Y71501D03*
D19*
X180480Y71526D03*
D17*
X193993Y71526D03*
D19*
X197066Y71526D03*
X200139Y71526D03*
X180454Y71552D03*
D17*
X193993Y71552D03*
D19*
X197091Y71552D03*
X200165Y71552D03*
D20*
X180442Y71577D03*
D19*
X194018Y71577D03*
D18*
X197104Y71577D03*
D20*
X200177Y71577D03*
D19*
X180429Y71603D03*
D20*
X194031Y71603D03*
D19*
X197117Y71603D03*
D17*
X200190Y71603D03*
D20*
X180416Y71628D03*
D19*
X194043Y71628D03*
D18*
X197129Y71628D03*
D20*
X200203Y71628D03*
D17*
X180404Y71653D03*
D20*
X194056Y71653D03*
D17*
X197142Y71653D03*
X200216Y71653D03*
D20*
X180391Y71679D03*
D34*
X188773Y71679D03*
D17*
X197168Y71679D03*
D20*
X200228Y71679D03*
D17*
X180378Y71704D03*
D35*
X188773Y71704D03*
D17*
X197168Y71704D03*
D19*
X200241Y71704D03*
X180353Y71730D03*
D35*
X188773Y71730D03*
D19*
X197193Y71730D03*
X200266Y71730D03*
D20*
X180340Y71755D03*
D27*
X188773Y71755D03*
D18*
X197206Y71755D03*
D20*
X200279Y71755D03*
D19*
X180327Y71780D03*
D28*
X188760Y71780D03*
D19*
X197218Y71780D03*
X200292Y71780D03*
D20*
X180315Y71806D03*
D29*
X188773Y71806D03*
D18*
X197231Y71806D03*
D20*
X200304Y71806D03*
D19*
X180302Y71831D03*
D30*
X188760Y71831D03*
D19*
X197244Y71831D03*
D17*
X200317Y71831D03*
X180277Y71857D03*
D31*
X188773Y71857D03*
D17*
X197269Y71857D03*
X200343Y71857D03*
X180277Y71882D03*
D36*
X188773Y71882D03*
D17*
X197269Y71882D03*
X200343Y71882D03*
X180251Y71907D03*
D36*
X188773Y71907D03*
D17*
X197295Y71907D03*
D19*
X200368Y71907D03*
D20*
X180238Y71933D03*
D17*
X183325Y71933D03*
D19*
X186398Y71933D03*
D17*
X194221Y71933D03*
D18*
X197307Y71933D03*
D20*
X200381Y71933D03*
D19*
X180226Y71958D03*
D17*
X183299Y71958D03*
D20*
X186385Y71958D03*
X194234Y71958D03*
D19*
X197320Y71958D03*
X200393Y71958D03*
D20*
X180213Y71984D03*
X183286Y71984D03*
D17*
X186373Y71984D03*
X194247Y71984D03*
D19*
X197345Y71984D03*
D20*
X200406Y71984D03*
D19*
X180200Y72009D03*
X183274Y72009D03*
D20*
X186360Y72009D03*
X194259Y72009D03*
D19*
X197345Y72009D03*
X200419Y72009D03*
X180175Y72034D03*
D20*
X183261Y72034D03*
D17*
X186347Y72034D03*
D19*
X194272Y72034D03*
X197371Y72034D03*
D17*
X200444Y72034D03*
D20*
X180162Y72060D03*
D19*
X183248Y72060D03*
X186322Y72060D03*
X194297Y72060D03*
X197371Y72060D03*
D20*
X200457Y72060D03*
D17*
X180150Y72085D03*
D19*
X183223Y72085D03*
D20*
X186309Y72085D03*
X194310Y72085D03*
D17*
X197396Y72085D03*
X200470Y72085D03*
D20*
X180137Y72111D03*
D19*
X183223Y72111D03*
X186296Y72111D03*
X194323Y72111D03*
D18*
X197409Y72111D03*
D20*
X200482Y72111D03*
D17*
X180124Y72136D03*
X183198Y72136D03*
D20*
X186284Y72136D03*
X194335Y72136D03*
D17*
X197422Y72136D03*
D19*
X200495Y72136D03*
D20*
X180111Y72161D03*
X183185Y72161D03*
D19*
X186271Y72161D03*
D17*
X194348Y72161D03*
D19*
X197447Y72161D03*
D20*
X200508Y72161D03*
D19*
X180099Y72187D03*
D17*
X183172Y72187D03*
X186246Y72187D03*
X194374Y72187D03*
D19*
X197447Y72187D03*
X200520Y72187D03*
X180073Y72212D03*
D20*
X183159Y72212D03*
D17*
X186246Y72212D03*
X194374Y72212D03*
D19*
X197472Y72212D03*
X200546Y72212D03*
D20*
X180061Y72238D03*
D19*
X183147Y72238D03*
D17*
X186220Y72238D03*
D19*
X194399Y72238D03*
X197472Y72238D03*
D20*
X200558Y72238D03*
D19*
X180048Y72263D03*
X183121Y72263D03*
D20*
X186207Y72263D03*
X194412Y72263D03*
D19*
X197498Y72263D03*
D17*
X200571Y72263D03*
D20*
X180035Y72288D03*
D19*
X183121Y72288D03*
X186195Y72288D03*
X194424Y72288D03*
D18*
X197510Y72288D03*
D20*
X200584Y72288D03*
D17*
X180023Y72314D03*
D19*
X183096Y72314D03*
D20*
X186182Y72314D03*
X194437Y72314D03*
D17*
X197523Y72314D03*
X200597Y72314D03*
D20*
X180010Y72339D03*
X183083Y72339D03*
D19*
X186169Y72339D03*
X194450Y72339D03*
D17*
X197549Y72339D03*
D20*
X200609Y72339D03*
D17*
X179997Y72365D03*
X183071Y72365D03*
D19*
X186144Y72365D03*
D17*
X194475Y72365D03*
X197549Y72365D03*
D19*
X200622Y72365D03*
X179972Y72390D03*
D17*
X183045Y72390D03*
D20*
X186131Y72390D03*
X194488Y72390D03*
D19*
X197574Y72390D03*
X200647Y72390D03*
D20*
X179959Y72415D03*
D17*
X183045Y72415D03*
X186119Y72415D03*
X194501Y72415D03*
D18*
X197587Y72415D03*
D20*
X200660Y72415D03*
D19*
X179946Y72441D03*
X183020Y72441D03*
D20*
X186106Y72441D03*
X194513Y72441D03*
D19*
X197599Y72441D03*
X200673Y72441D03*
D20*
X179934Y72466D03*
X183007Y72466D03*
D17*
X186093Y72466D03*
D19*
X194526Y72466D03*
X197625Y72466D03*
D20*
X200685Y72466D03*
D19*
X179921Y72492D03*
X182994Y72492D03*
D20*
X186080Y72492D03*
X194539Y72492D03*
D19*
X197625Y72492D03*
D17*
X200698Y72492D03*
X179896Y72517D03*
D20*
X182982Y72517D03*
D19*
X186068Y72517D03*
X194551Y72517D03*
D17*
X197650Y72517D03*
X200724Y72517D03*
X179896Y72542D03*
D19*
X182969Y72542D03*
X186042Y72542D03*
X194577Y72542D03*
D17*
X197650Y72542D03*
X200724Y72542D03*
X179870Y72568D03*
X182944Y72568D03*
D20*
X186030Y72568D03*
X194589Y72568D03*
D17*
X197676Y72568D03*
D19*
X200749Y72568D03*
D20*
X179857Y72593D03*
D17*
X182944Y72593D03*
D19*
X186017Y72593D03*
D17*
X194602Y72593D03*
D18*
X197688Y72593D03*
D20*
X200762Y72593D03*
D19*
X179845Y72619D03*
D17*
X182918Y72619D03*
D20*
X186004Y72619D03*
X194615Y72619D03*
D19*
X197701Y72619D03*
X200774Y72619D03*
D20*
X179832Y72644D03*
X182905Y72644D03*
D17*
X185992Y72644D03*
X194628Y72644D03*
D19*
X197726Y72644D03*
D20*
X200787Y72644D03*
D19*
X179819Y72669D03*
X182893Y72669D03*
D17*
X185966Y72669D03*
D19*
X194653Y72669D03*
X197726Y72669D03*
X200800Y72669D03*
X179794Y72695D03*
D20*
X182880Y72695D03*
D17*
X185966Y72695D03*
D19*
X194653Y72695D03*
X197752Y72695D03*
D17*
X200825Y72695D03*
D20*
X179781Y72720D03*
D19*
X182867Y72720D03*
X185941Y72720D03*
X194678Y72720D03*
X197752Y72720D03*
D20*
X200838Y72720D03*
D17*
X179769Y72746D03*
D19*
X182842Y72746D03*
D20*
X185928Y72746D03*
X194691Y72746D03*
D17*
X197777Y72746D03*
X200851Y72746D03*
D20*
X179756Y72771D03*
D19*
X182842Y72771D03*
X185915Y72771D03*
X194704Y72771D03*
D18*
X197790Y72771D03*
D20*
X200863Y72771D03*
D17*
X179743Y72796D03*
X182817Y72796D03*
D20*
X185903Y72796D03*
X194716Y72796D03*
D17*
X197803Y72796D03*
D19*
X200876Y72796D03*
D20*
X179730Y72822D03*
X182804Y72822D03*
D19*
X185890Y72822D03*
D17*
X194729Y72822D03*
D19*
X197828Y72822D03*
D20*
X200889Y72822D03*
D19*
X179718Y72847D03*
D17*
X182791Y72847D03*
X185865Y72847D03*
X194755Y72847D03*
D19*
X197828Y72847D03*
X200901Y72847D03*
X179692Y72873D03*
X182766Y72873D03*
D20*
X185852Y72873D03*
X194767Y72873D03*
D19*
X197853Y72873D03*
X200927Y72873D03*
D20*
X179680Y72898D03*
D19*
X182766Y72898D03*
D17*
X185839Y72898D03*
D19*
X194780Y72898D03*
X197853Y72898D03*
D20*
X200939Y72898D03*
D19*
X179667Y72923D03*
X182740Y72923D03*
D20*
X185826Y72923D03*
X194793Y72923D03*
D19*
X197879Y72923D03*
D17*
X200952Y72923D03*
D20*
X179654Y72949D03*
D19*
X182740Y72949D03*
X185814Y72949D03*
X194805Y72949D03*
D18*
X197891Y72949D03*
D20*
X200965Y72949D03*
D17*
X179642Y72974D03*
D19*
X182715Y72974D03*
D20*
X185801Y72974D03*
X194818Y72974D03*
D17*
X197904Y72974D03*
X200978Y72974D03*
D20*
X179629Y73000D03*
X182702Y73000D03*
D19*
X185788Y73000D03*
X194831Y73000D03*
D17*
X197930Y73000D03*
D20*
X200990Y73000D03*
D17*
X179616Y73025D03*
X182690Y73025D03*
D19*
X185763Y73025D03*
D17*
X194856Y73025D03*
X197930Y73025D03*
D19*
X201003Y73025D03*
X179591Y73050D03*
D17*
X182664Y73050D03*
D20*
X185750Y73050D03*
X194869Y73050D03*
D19*
X197955Y73050D03*
X201028Y73050D03*
D20*
X179578Y73076D03*
D17*
X182664Y73076D03*
X185738Y73076D03*
X194882Y73076D03*
D19*
X197955Y73076D03*
D20*
X201041Y73076D03*
D19*
X179565Y73101D03*
X182639Y73101D03*
D20*
X185725Y73101D03*
X194894Y73101D03*
D19*
X197980Y73101D03*
X201054Y73101D03*
D20*
X179553Y73127D03*
X182626Y73127D03*
D17*
X185712Y73127D03*
D19*
X194907Y73127D03*
X198006Y73127D03*
D20*
X201066Y73127D03*
D19*
X179540Y73152D03*
X182613Y73152D03*
D20*
X185699Y73152D03*
X194920Y73152D03*
D19*
X198006Y73152D03*
D17*
X201079Y73152D03*
X179515Y73177D03*
D19*
X182588Y73177D03*
X185687Y73177D03*
X194932Y73177D03*
D17*
X198031Y73177D03*
X201105Y73177D03*
X179515Y73203D03*
D19*
X182588Y73203D03*
X185661Y73203D03*
X194958Y73203D03*
D17*
X198031Y73203D03*
X201105Y73203D03*
X179489Y73228D03*
X182563Y73228D03*
D20*
X185649Y73228D03*
X194970Y73228D03*
D17*
X198057Y73228D03*
D19*
X201130Y73228D03*
D20*
X179476Y73254D03*
D17*
X182563Y73254D03*
D19*
X185636Y73254D03*
D17*
X194983Y73254D03*
X198057Y73254D03*
D20*
X201143Y73254D03*
D19*
X179464Y73279D03*
D17*
X182537Y73279D03*
D20*
X185623Y73279D03*
X194996Y73279D03*
D19*
X198082Y73279D03*
X201155Y73279D03*
D20*
X179451Y73304D03*
X182524Y73304D03*
D17*
X185611Y73304D03*
X195009Y73304D03*
D19*
X198107Y73304D03*
D20*
X201168Y73304D03*
D19*
X179438Y73330D03*
X182512Y73330D03*
D17*
X185585Y73330D03*
D19*
X195034Y73330D03*
X198107Y73330D03*
X201181Y73330D03*
X179413Y73355D03*
X182486Y73355D03*
D17*
X185585Y73355D03*
D19*
X195034Y73355D03*
X198133Y73355D03*
D17*
X201206Y73355D03*
D20*
X179400Y73381D03*
D19*
X182486Y73381D03*
X185560Y73381D03*
X195059Y73381D03*
X198133Y73381D03*
D20*
X201219Y73381D03*
D17*
X179388Y73406D03*
D19*
X182461Y73406D03*
D20*
X185547Y73406D03*
X195072Y73406D03*
D17*
X198158Y73406D03*
X201232Y73406D03*
D20*
X179375Y73431D03*
D19*
X182461Y73431D03*
X185534Y73431D03*
X195085Y73431D03*
D17*
X198158Y73431D03*
D20*
X201244Y73431D03*
D17*
X179362Y73457D03*
X182436Y73457D03*
D20*
X185522Y73457D03*
X195097Y73457D03*
D17*
X198184Y73457D03*
D19*
X201257Y73457D03*
D20*
X179349Y73482D03*
D17*
X182410Y73482D03*
D19*
X185509Y73482D03*
D17*
X195110Y73482D03*
D19*
X198209Y73482D03*
D20*
X201270Y73482D03*
D19*
X179337Y73508D03*
D17*
X182410Y73508D03*
X185484Y73508D03*
X195136Y73508D03*
D19*
X198209Y73508D03*
X201282Y73508D03*
X179311Y73533D03*
X182385Y73533D03*
D20*
X185471Y73533D03*
X195148Y73533D03*
D19*
X198234Y73533D03*
X201308Y73533D03*
D20*
X179299Y73558D03*
D19*
X182385Y73558D03*
D17*
X185458Y73558D03*
D19*
X195161Y73558D03*
X198234Y73558D03*
D20*
X201320Y73558D03*
D19*
X179286Y73584D03*
X182359Y73584D03*
D20*
X185445Y73584D03*
X195174Y73584D03*
D19*
X198260Y73584D03*
D17*
X201333Y73584D03*
D20*
X179273Y73609D03*
D19*
X182359Y73609D03*
X185433Y73609D03*
X195186Y73609D03*
X198260Y73609D03*
D20*
X201346Y73609D03*
D17*
X179261Y73635D03*
D19*
X182334Y73635D03*
D20*
X185420Y73635D03*
X195199Y73635D03*
D17*
X198285Y73635D03*
X201359Y73635D03*
X179235Y73660D03*
X182309Y73660D03*
D19*
X185407Y73660D03*
X195212Y73660D03*
D17*
X198311Y73660D03*
D19*
X201384Y73660D03*
D17*
X179235Y73685D03*
X182309Y73685D03*
D19*
X185382Y73685D03*
D17*
X195237Y73685D03*
X198311Y73685D03*
D19*
X201384Y73685D03*
X179210Y73711D03*
D17*
X182283Y73711D03*
D20*
X185369Y73711D03*
X195250Y73711D03*
D19*
X198336Y73711D03*
X201409Y73711D03*
D20*
X179197Y73736D03*
D17*
X182283Y73736D03*
X185357Y73736D03*
X195263Y73736D03*
D19*
X198336Y73736D03*
D20*
X201422Y73736D03*
D19*
X179184Y73762D03*
X182258Y73762D03*
D20*
X185344Y73762D03*
X195275Y73762D03*
D19*
X198361Y73762D03*
X201435Y73762D03*
D20*
X179172Y73787D03*
X182245Y73787D03*
D17*
X185331Y73787D03*
D19*
X195288Y73787D03*
D20*
X198374Y73787D03*
X201447Y73787D03*
D19*
X179159Y73812D03*
X182232Y73812D03*
D20*
X185318Y73812D03*
X195301Y73812D03*
D19*
X198387Y73812D03*
D17*
X201460Y73812D03*
X179134Y73838D03*
D19*
X182207Y73838D03*
X185306Y73838D03*
X195313Y73838D03*
D17*
X198412Y73838D03*
X201486Y73838D03*
X179134Y73863D03*
D19*
X182207Y73863D03*
X185280Y73863D03*
X195339Y73863D03*
D17*
X198412Y73863D03*
X201486Y73863D03*
X179108Y73889D03*
X182182Y73889D03*
D20*
X185268Y73889D03*
X195351Y73889D03*
D17*
X198438Y73889D03*
D19*
X201511Y73889D03*
D20*
X179095Y73914D03*
D17*
X182182Y73914D03*
D19*
X185255Y73914D03*
D17*
X195364Y73914D03*
X198438Y73914D03*
D20*
X201524Y73914D03*
D19*
X179083Y73939D03*
D17*
X182156Y73939D03*
D20*
X185242Y73939D03*
X195377Y73939D03*
D19*
X198463Y73939D03*
X201536Y73939D03*
D20*
X179070Y73965D03*
D19*
X182131Y73965D03*
D17*
X185230Y73965D03*
X195390Y73965D03*
D20*
X198476Y73965D03*
X201549Y73965D03*
D19*
X179057Y73990D03*
X182131Y73990D03*
D17*
X185204Y73990D03*
D19*
X195415Y73990D03*
X198488Y73990D03*
X201562Y73990D03*
X179032Y74016D03*
X182105Y74016D03*
D17*
X185204Y74016D03*
D19*
X195415Y74016D03*
X198514Y74016D03*
D17*
X201587Y74016D03*
D20*
X179019Y74041D03*
D19*
X182105Y74041D03*
X185179Y74041D03*
X195440Y74041D03*
X198514Y74041D03*
D20*
X201600Y74041D03*
D17*
X179007Y74066D03*
D19*
X182080Y74066D03*
D20*
X185166Y74066D03*
X195453Y74066D03*
D17*
X198539Y74066D03*
X201613Y74066D03*
D20*
X178994Y74092D03*
D19*
X182080Y74092D03*
X185153Y74092D03*
X195466Y74092D03*
D17*
X198539Y74092D03*
D20*
X201625Y74092D03*
D17*
X178981Y74117D03*
X182055Y74117D03*
D20*
X185141Y74117D03*
X195478Y74117D03*
D17*
X198565Y74117D03*
D19*
X201638Y74117D03*
D20*
X178968Y74143D03*
D17*
X182029Y74143D03*
D19*
X185128Y74143D03*
D17*
X195491Y74143D03*
D20*
X198577Y74143D03*
X201651Y74143D03*
D19*
X178956Y74168D03*
D17*
X182029Y74168D03*
X185103Y74168D03*
X195517Y74168D03*
D19*
X198590Y74168D03*
X201663Y74168D03*
X178930Y74193D03*
X182004Y74193D03*
D20*
X185090Y74193D03*
X195529Y74193D03*
D19*
X198615Y74193D03*
X201689Y74193D03*
D20*
X178918Y74219D03*
D19*
X182004Y74219D03*
D17*
X185077Y74219D03*
D19*
X195542Y74219D03*
X198615Y74219D03*
D20*
X201701Y74219D03*
D19*
X178905Y74244D03*
X181978Y74244D03*
D20*
X185064Y74244D03*
X195555Y74244D03*
D19*
X198641Y74244D03*
D17*
X201714Y74244D03*
D20*
X178892Y74270D03*
D18*
X181966Y74270D03*
D19*
X185052Y74270D03*
X195567Y74270D03*
X198641Y74270D03*
D20*
X201727Y74270D03*
D17*
X178880Y74295D03*
D19*
X181953Y74295D03*
D20*
X185039Y74295D03*
X195580Y74295D03*
D17*
X198666Y74295D03*
X201740Y74295D03*
X178854Y74320D03*
X181928Y74320D03*
D19*
X185026Y74320D03*
X195593Y74320D03*
D20*
X198679Y74320D03*
D19*
X201765Y74320D03*
D17*
X178854Y74346D03*
X181928Y74346D03*
D19*
X185001Y74346D03*
D17*
X195618Y74346D03*
X198692Y74346D03*
D19*
X201765Y74346D03*
X178829Y74371D03*
D17*
X181902Y74371D03*
D20*
X184988Y74371D03*
X195631Y74371D03*
D19*
X198717Y74371D03*
X201790Y74371D03*
D20*
X178816Y74397D03*
D17*
X181902Y74397D03*
X184976Y74397D03*
X195644Y74397D03*
D19*
X198717Y74397D03*
D20*
X201803Y74397D03*
D19*
X178803Y74422D03*
X181877Y74422D03*
D20*
X184963Y74422D03*
X195656Y74422D03*
D19*
X198742Y74422D03*
X201816Y74422D03*
D20*
X178791Y74447D03*
D19*
X181851Y74447D03*
D17*
X184950Y74447D03*
D19*
X195669Y74447D03*
D20*
X198755Y74447D03*
X201828Y74447D03*
D19*
X178778Y74473D03*
X181851Y74473D03*
X184925Y74473D03*
X195694Y74473D03*
X198768Y74473D03*
D17*
X201841Y74473D03*
X178753Y74498D03*
D19*
X181826Y74498D03*
X184925Y74498D03*
X195694Y74498D03*
D17*
X198793Y74498D03*
X201867Y74498D03*
D20*
X178740Y74524D03*
D19*
X181826Y74524D03*
X184899Y74524D03*
X195720Y74524D03*
D17*
X198793Y74524D03*
D20*
X201879Y74524D03*
D17*
X178727Y74549D03*
X181801Y74549D03*
D20*
X184887Y74549D03*
X195732Y74549D03*
D17*
X198819Y74549D03*
D19*
X201892Y74549D03*
D20*
X178714Y74574D03*
D18*
X181788Y74574D03*
D19*
X184874Y74574D03*
D17*
X195745Y74574D03*
X198819Y74574D03*
D20*
X201905Y74574D03*
D19*
X178702Y74600D03*
D17*
X181775Y74600D03*
D20*
X184861Y74600D03*
X195758Y74600D03*
D19*
X198844Y74600D03*
X201917Y74600D03*
D20*
X178689Y74625D03*
D19*
X181750Y74625D03*
D17*
X184849Y74625D03*
X195771Y74625D03*
D20*
X198857Y74625D03*
X201930Y74625D03*
D19*
X178676Y74651D03*
X181750Y74651D03*
D17*
X184823Y74651D03*
D19*
X195796Y74651D03*
X198869Y74651D03*
X201943Y74651D03*
X178651Y74676D03*
X181724Y74676D03*
D17*
X184823Y74676D03*
D19*
X195796Y74676D03*
X198895Y74676D03*
D17*
X201968Y74676D03*
D20*
X178638Y74701D03*
D19*
X181724Y74701D03*
X184798Y74701D03*
X195821Y74701D03*
X198895Y74701D03*
D20*
X201981Y74701D03*
D17*
X178626Y74727D03*
D19*
X181699Y74727D03*
D20*
X184785Y74727D03*
X195834Y74727D03*
D17*
X198920Y74727D03*
X201994Y74727D03*
D20*
X178613Y74752D03*
D18*
X181686Y74752D03*
D19*
X184772Y74752D03*
X195847Y74752D03*
D17*
X198920Y74752D03*
D20*
X202006Y74752D03*
D17*
X178600Y74778D03*
X181674Y74778D03*
D20*
X184760Y74778D03*
X195859Y74778D03*
D17*
X198946Y74778D03*
D19*
X202019Y74778D03*
D20*
X178587Y74803D03*
D17*
X181648Y74803D03*
D19*
X184747Y74803D03*
D17*
X195872Y74803D03*
D20*
X198958Y74803D03*
X202032Y74803D03*
D19*
X178575Y74828D03*
D17*
X181648Y74828D03*
X184722Y74828D03*
X195898Y74828D03*
D19*
X198971Y74828D03*
X202044Y74828D03*
X178549Y74854D03*
X181623Y74854D03*
D20*
X184709Y74854D03*
X195910Y74854D03*
D19*
X198996Y74854D03*
X202070Y74854D03*
D20*
X178537Y74879D03*
D19*
X181623Y74879D03*
D17*
X184696Y74879D03*
D19*
X195923Y74879D03*
X198996Y74879D03*
D20*
X202082Y74879D03*
D19*
X178524Y74905D03*
X181597Y74905D03*
D20*
X184683Y74905D03*
X195936Y74905D03*
D19*
X199022Y74905D03*
D17*
X202095Y74905D03*
D20*
X178511Y74930D03*
D19*
X181572Y74930D03*
X184671Y74930D03*
X195948Y74930D03*
D20*
X199034Y74930D03*
X202108Y74930D03*
D17*
X178499Y74955D03*
D19*
X181572Y74955D03*
D20*
X184658Y74955D03*
X195961Y74955D03*
D17*
X199047Y74955D03*
X202121Y74955D03*
X178473Y74981D03*
X181547Y74981D03*
D19*
X184645Y74981D03*
X195974Y74981D03*
D20*
X199060Y74981D03*
D19*
X202146Y74981D03*
D17*
X178473Y75006D03*
X181547Y75006D03*
D19*
X184620Y75006D03*
D17*
X195999Y75006D03*
X199073Y75006D03*
D19*
X202146Y75006D03*
X178448Y75032D03*
D17*
X181521Y75032D03*
D20*
X184607Y75032D03*
X196012Y75032D03*
D19*
X199098Y75032D03*
X202171Y75032D03*
D20*
X178435Y75057D03*
D18*
X181508Y75057D03*
D17*
X184595Y75057D03*
X196025Y75057D03*
D19*
X199098Y75057D03*
D20*
X202184Y75057D03*
D19*
X178422Y75082D03*
X181496Y75082D03*
D20*
X184582Y75082D03*
X196037Y75082D03*
D19*
X199123Y75082D03*
X202197Y75082D03*
D20*
X178410Y75108D03*
D19*
X181470Y75108D03*
D17*
X184569Y75108D03*
D19*
X196050Y75108D03*
D20*
X199136Y75108D03*
X202209Y75108D03*
D19*
X178397Y75133D03*
X181470Y75133D03*
X184544Y75133D03*
X196075Y75133D03*
X199149Y75133D03*
D17*
X202222Y75133D03*
X178372Y75159D03*
D19*
X181445Y75159D03*
X184544Y75159D03*
X196075Y75159D03*
D20*
X199161Y75159D03*
D17*
X202248Y75159D03*
D20*
X178359Y75184D03*
D19*
X181445Y75184D03*
X184518Y75184D03*
X196101Y75184D03*
D17*
X199174Y75184D03*
D20*
X202260Y75184D03*
D17*
X178346Y75209D03*
X181420Y75209D03*
D20*
X184506Y75209D03*
X196113Y75209D03*
D17*
X199200Y75209D03*
D19*
X202273Y75209D03*
D20*
X178333Y75235D03*
D18*
X181407Y75235D03*
D19*
X184493Y75235D03*
D17*
X196126Y75235D03*
X199200Y75235D03*
D20*
X202286Y75235D03*
D19*
X178321Y75260D03*
D17*
X181394Y75260D03*
D20*
X184480Y75260D03*
X196139Y75260D03*
D19*
X199225Y75260D03*
X202298Y75260D03*
D20*
X178308Y75286D03*
D19*
X181369Y75286D03*
D17*
X184468Y75286D03*
X196152Y75286D03*
D20*
X199238Y75286D03*
X202311Y75286D03*
D19*
X178295Y75311D03*
X181369Y75311D03*
D17*
X184442Y75311D03*
D19*
X196177Y75311D03*
X199250Y75311D03*
X202324Y75311D03*
X178270Y75336D03*
X181343Y75336D03*
D20*
X184429Y75336D03*
X196190Y75336D03*
X199263Y75336D03*
D17*
X202349Y75336D03*
D20*
X178257Y75362D03*
D18*
X181331Y75362D03*
D19*
X184417Y75362D03*
X196202Y75362D03*
X199276Y75362D03*
D20*
X202362Y75362D03*
D17*
X178245Y75387D03*
D19*
X181318Y75387D03*
D20*
X184404Y75387D03*
X196215Y75387D03*
D17*
X199301Y75387D03*
X202375Y75387D03*
D20*
X178232Y75413D03*
D18*
X181305Y75413D03*
D19*
X184391Y75413D03*
X196228Y75413D03*
D17*
X199301Y75413D03*
D20*
X202387Y75413D03*
D17*
X178219Y75438D03*
X181293Y75438D03*
D20*
X184379Y75438D03*
X196240Y75438D03*
D17*
X199327Y75438D03*
D19*
X202400Y75438D03*
D20*
X178206Y75463D03*
D17*
X181267Y75463D03*
D19*
X184366Y75463D03*
D17*
X196253Y75463D03*
D20*
X199339Y75463D03*
X202413Y75463D03*
D19*
X178194Y75489D03*
D17*
X181267Y75489D03*
X184341Y75489D03*
X196279Y75489D03*
D19*
X199352Y75489D03*
X202425Y75489D03*
X178168Y75514D03*
X181242Y75514D03*
D20*
X184328Y75514D03*
X196291Y75514D03*
X199365Y75514D03*
D19*
X202451Y75514D03*
D20*
X178156Y75540D03*
D18*
X181229Y75540D03*
D17*
X184315Y75540D03*
D19*
X196304Y75540D03*
X199377Y75540D03*
D20*
X202463Y75540D03*
D19*
X178143Y75565D03*
X181216Y75565D03*
D20*
X184302Y75565D03*
X196317Y75565D03*
D19*
X199403Y75565D03*
D17*
X202476Y75565D03*
D20*
X178130Y75590D03*
D19*
X181191Y75590D03*
X184290Y75590D03*
X196329Y75590D03*
D20*
X199415Y75590D03*
X202489Y75590D03*
D17*
X178118Y75616D03*
D19*
X181191Y75616D03*
D20*
X184277Y75616D03*
X196342Y75616D03*
D17*
X199428Y75616D03*
X202502Y75616D03*
X178092Y75641D03*
X181166Y75641D03*
D19*
X184264Y75641D03*
X196355Y75641D03*
D20*
X199441Y75641D03*
D19*
X202527Y75641D03*
D17*
X178092Y75667D03*
D18*
X181153Y75667D03*
D19*
X184239Y75667D03*
D17*
X196380Y75667D03*
X199454Y75667D03*
D19*
X202527Y75667D03*
X178067Y75692D03*
D17*
X181140Y75692D03*
D20*
X184226Y75692D03*
X196393Y75692D03*
X199466Y75692D03*
D19*
X202552Y75692D03*
D20*
X178054Y75717D03*
D18*
X181127Y75717D03*
D17*
X184214Y75717D03*
X196406Y75717D03*
D19*
X199479Y75717D03*
D20*
X202565Y75717D03*
D19*
X178041Y75743D03*
X181115Y75743D03*
D20*
X184201Y75743D03*
X196418Y75743D03*
D19*
X199504Y75743D03*
X202578Y75743D03*
D20*
X178029Y75768D03*
D19*
X181089Y75768D03*
D17*
X184188Y75768D03*
D19*
X196431Y75768D03*
X199504Y75768D03*
X202578Y75768D03*
X178016Y75794D03*
X181089Y75794D03*
X184163Y75794D03*
X196456Y75794D03*
X199479Y75794D03*
D18*
X202590Y75794D03*
D17*
X177991Y75819D03*
D19*
X181064Y75819D03*
X184163Y75819D03*
X196456Y75819D03*
D20*
X199466Y75819D03*
D37*
X202590Y75819D03*
D20*
X177978Y75844D03*
D18*
X181051Y75844D03*
D19*
X184137Y75844D03*
X196482Y75844D03*
D17*
X199454Y75844D03*
D38*
X202578Y75844D03*
D17*
X177965Y75870D03*
X181039Y75870D03*
D20*
X184125Y75870D03*
X196494Y75870D03*
X199441Y75870D03*
D39*
X202590Y75870D03*
D20*
X177952Y75895D03*
D18*
X181026Y75895D03*
D19*
X184112Y75895D03*
D17*
X196507Y75895D03*
X199428Y75895D03*
D40*
X202578Y75895D03*
D19*
X177940Y75921D03*
D17*
X181013Y75921D03*
D20*
X184099Y75921D03*
X196520Y75921D03*
X199415Y75921D03*
D41*
X202590Y75921D03*
D20*
X177927Y75946D03*
D19*
X180988Y75946D03*
D17*
X184087Y75946D03*
X196533Y75946D03*
D19*
X199403Y75946D03*
D42*
X202578Y75946D03*
D19*
X177914Y75971D03*
X180988Y75971D03*
D17*
X184061Y75971D03*
D19*
X196558Y75971D03*
X199377Y75971D03*
D43*
X202590Y75971D03*
D19*
X177889Y75997D03*
X180962Y75997D03*
D20*
X184048Y75997D03*
X196571Y75997D03*
X199365Y75997D03*
D44*
X202590Y75997D03*
D20*
X177876Y76022D03*
D18*
X180950Y76022D03*
D19*
X184036Y76022D03*
X196583Y76022D03*
X199352Y76022D03*
D45*
X202578Y76022D03*
D17*
X177864Y76048D03*
D19*
X180937Y76048D03*
D20*
X184023Y76048D03*
X196596Y76048D03*
X199339Y76048D03*
D46*
X202590Y76048D03*
D20*
X177851Y76073D03*
D18*
X180924Y76073D03*
D19*
X184010Y76073D03*
X196609Y76073D03*
D17*
X199327Y76073D03*
D18*
X202413Y76073D03*
D20*
X202768Y76073D03*
D17*
X177838Y76098D03*
X180912Y76098D03*
D20*
X183998Y76098D03*
X196621Y76098D03*
D17*
X199301Y76098D03*
D18*
X202413Y76098D03*
D19*
X202781Y76098D03*
X177813Y76124D03*
D17*
X180886Y76124D03*
D19*
X183985Y76124D03*
D17*
X196634Y76124D03*
X199301Y76124D03*
D18*
X202387Y76124D03*
D19*
X202806Y76124D03*
X177813Y76149D03*
D18*
X180873Y76149D03*
D17*
X183960Y76149D03*
X196660Y76149D03*
D19*
X199276Y76149D03*
D18*
X202387Y76149D03*
D19*
X202806Y76149D03*
X177787Y76175D03*
X180861Y76175D03*
D20*
X183947Y76175D03*
X196672Y76175D03*
X199263Y76175D03*
D18*
X202362Y76175D03*
D19*
X202832Y76175D03*
D20*
X177775Y76200D03*
D18*
X180848Y76200D03*
D17*
X183934Y76200D03*
D19*
X196685Y76200D03*
X199250Y76200D03*
D18*
X202336Y76200D03*
D20*
X202844Y76200D03*
D19*
X177762Y76225D03*
X180835Y76225D03*
D20*
X183921Y76225D03*
X196698Y76225D03*
X199238Y76225D03*
D18*
X202336Y76225D03*
D17*
X202857Y76225D03*
D20*
X177749Y76251D03*
D19*
X180810Y76251D03*
X183909Y76251D03*
X196710Y76251D03*
X199225Y76251D03*
D18*
X202311Y76251D03*
D20*
X202870Y76251D03*
D17*
X177737Y76276D03*
D19*
X180810Y76276D03*
D20*
X183896Y76276D03*
X196723Y76276D03*
D17*
X199200Y76276D03*
D18*
X202311Y76276D03*
D17*
X202883Y76276D03*
X177711Y76302D03*
X180785Y76302D03*
D19*
X183883Y76302D03*
X196736Y76302D03*
D20*
X199187Y76302D03*
D18*
X202286Y76302D03*
D19*
X202908Y76302D03*
D17*
X177711Y76327D03*
D18*
X180772Y76327D03*
D19*
X183858Y76327D03*
D17*
X196761Y76327D03*
X199174Y76327D03*
D18*
X202286Y76327D03*
D19*
X202908Y76327D03*
X177686Y76352D03*
D17*
X180759Y76352D03*
D20*
X183845Y76352D03*
X196774Y76352D03*
X199161Y76352D03*
D18*
X202260Y76352D03*
D19*
X202933Y76352D03*
D20*
X177673Y76378D03*
D18*
X180746Y76378D03*
D17*
X183833Y76378D03*
X196787Y76378D03*
D19*
X199149Y76378D03*
D18*
X202235Y76378D03*
D20*
X202946Y76378D03*
D19*
X177660Y76403D03*
X180734Y76403D03*
D20*
X183820Y76403D03*
X196799Y76403D03*
X199136Y76403D03*
D18*
X202235Y76403D03*
D19*
X202959Y76403D03*
D20*
X177648Y76429D03*
D19*
X180708Y76429D03*
D17*
X183807Y76429D03*
D19*
X196812Y76429D03*
X199123Y76429D03*
D18*
X202209Y76429D03*
D20*
X202971Y76429D03*
D19*
X177635Y76454D03*
D18*
X180696Y76454D03*
D19*
X183782Y76454D03*
X196837Y76454D03*
X199098Y76454D03*
D18*
X202209Y76454D03*
D17*
X202984Y76454D03*
X177610Y76479D03*
D19*
X180683Y76479D03*
X183782Y76479D03*
X196837Y76479D03*
D20*
X199085Y76479D03*
D18*
X202184Y76479D03*
D17*
X203010Y76479D03*
D20*
X177597Y76505D03*
D18*
X180670Y76505D03*
D19*
X183756Y76505D03*
X196863Y76505D03*
D17*
X199073Y76505D03*
D21*
X202171Y76505D03*
D20*
X203022Y76505D03*
D17*
X177584Y76530D03*
X180658Y76530D03*
D20*
X183744Y76530D03*
X196875Y76530D03*
X199060Y76530D03*
D18*
X202159Y76530D03*
D19*
X203035Y76530D03*
D20*
X177571Y76556D03*
D18*
X180645Y76556D03*
D19*
X183731Y76556D03*
D17*
X196888Y76556D03*
X199047Y76556D03*
D18*
X202133Y76556D03*
D20*
X203048Y76556D03*
D19*
X177559Y76581D03*
D17*
X180632Y76581D03*
D20*
X183718Y76581D03*
X196901Y76581D03*
X199034Y76581D03*
D18*
X202133Y76581D03*
D19*
X203060Y76581D03*
D20*
X177546Y76606D03*
D19*
X180607Y76606D03*
D17*
X183706Y76606D03*
X196914Y76606D03*
D19*
X199022Y76606D03*
D18*
X202108Y76606D03*
D20*
X203073Y76606D03*
D19*
X177533Y76632D03*
D18*
X180594Y76632D03*
D17*
X183680Y76632D03*
D19*
X196939Y76632D03*
X198996Y76632D03*
D18*
X202108Y76632D03*
D19*
X203086Y76632D03*
X177508Y76657D03*
X180581Y76657D03*
D20*
X183667Y76657D03*
X196952Y76657D03*
X198984Y76657D03*
D18*
X202082Y76657D03*
D17*
X203111Y76657D03*
D20*
X177495Y76683D03*
D18*
X180569Y76683D03*
D19*
X183655Y76683D03*
X196964Y76683D03*
X198971Y76683D03*
D18*
X202057Y76683D03*
D20*
X203124Y76683D03*
D17*
X177483Y76708D03*
D19*
X180556Y76708D03*
D20*
X183642Y76708D03*
X196977Y76708D03*
X198958Y76708D03*
D18*
X202057Y76708D03*
D17*
X203137Y76708D03*
D20*
X177470Y76733D03*
D18*
X180543Y76733D03*
D19*
X183629Y76733D03*
X196990Y76733D03*
D17*
X198946Y76733D03*
D18*
X202032Y76733D03*
D20*
X203149Y76733D03*
D17*
X177457Y76759D03*
D18*
X180518Y76759D03*
D20*
X183617Y76759D03*
X197002Y76759D03*
D17*
X198920Y76759D03*
D18*
X202032Y76759D03*
D19*
X203162Y76759D03*
X177432Y76784D03*
D17*
X180505Y76784D03*
D19*
X183604Y76784D03*
D17*
X197015Y76784D03*
X198920Y76784D03*
D18*
X202006Y76784D03*
D19*
X203187Y76784D03*
X177432Y76810D03*
D18*
X180492Y76810D03*
D17*
X183579Y76810D03*
X197041Y76810D03*
D19*
X198895Y76810D03*
D18*
X202006Y76810D03*
D19*
X203187Y76810D03*
X177406Y76835D03*
X180480Y76835D03*
D20*
X183566Y76835D03*
X197053Y76835D03*
X198882Y76835D03*
D18*
X201981Y76835D03*
D19*
X203213Y76835D03*
D20*
X177394Y76860D03*
D18*
X180467Y76860D03*
D17*
X183553Y76860D03*
D19*
X197066Y76860D03*
X198869Y76860D03*
D18*
X201955Y76860D03*
D20*
X203225Y76860D03*
D19*
X177381Y76886D03*
X180454Y76886D03*
D20*
X183540Y76886D03*
X197079Y76886D03*
X198857Y76886D03*
D18*
X201955Y76886D03*
D17*
X203238Y76886D03*
D20*
X177368Y76911D03*
D19*
X180429Y76911D03*
X183528Y76911D03*
X197091Y76911D03*
X198844Y76911D03*
D18*
X201930Y76911D03*
D20*
X203251Y76911D03*
D17*
X177356Y76937D03*
D18*
X180416Y76937D03*
D19*
X183502Y76937D03*
X197117Y76937D03*
D17*
X198819Y76937D03*
D18*
X201930Y76937D03*
D17*
X203264Y76937D03*
X177330Y76962D03*
X180404Y76962D03*
D19*
X183502Y76962D03*
X197117Y76962D03*
D20*
X198806Y76962D03*
D18*
X201905Y76962D03*
D19*
X203289Y76962D03*
D20*
X177317Y76987D03*
D18*
X180391Y76987D03*
D19*
X183477Y76987D03*
D17*
X197142Y76987D03*
X198793Y76987D03*
D19*
X201892Y76987D03*
D20*
X203302Y76987D03*
D19*
X177305Y77013D03*
D17*
X180378Y77013D03*
D20*
X183464Y77013D03*
X197155Y77013D03*
X198780Y77013D03*
D18*
X201879Y77013D03*
D19*
X203314Y77013D03*
D20*
X177292Y77038D03*
D18*
X180365Y77038D03*
D17*
X183452Y77038D03*
X197168Y77038D03*
D19*
X198768Y77038D03*
D18*
X201854Y77038D03*
D20*
X203327Y77038D03*
D19*
X177279Y77064D03*
X180353Y77064D03*
D20*
X183439Y77064D03*
X197180Y77064D03*
X198755Y77064D03*
D18*
X201854Y77064D03*
D19*
X203340Y77064D03*
D20*
X177267Y77089D03*
D19*
X180327Y77089D03*
D17*
X183426Y77089D03*
D19*
X197193Y77089D03*
X198742Y77089D03*
D18*
X201828Y77089D03*
D20*
X203352Y77089D03*
D19*
X177254Y77114D03*
D18*
X180315Y77114D03*
D19*
X183401Y77114D03*
X197218Y77114D03*
X198717Y77114D03*
D18*
X201828Y77114D03*
D17*
X203365Y77114D03*
X177229Y77140D03*
D19*
X180302Y77140D03*
X183401Y77140D03*
X197218Y77140D03*
D20*
X198704Y77140D03*
D18*
X201803Y77140D03*
D17*
X203391Y77140D03*
D20*
X177216Y77165D03*
D18*
X180289Y77165D03*
D19*
X183375Y77165D03*
X197244Y77165D03*
D17*
X198692Y77165D03*
D18*
X201778Y77165D03*
D20*
X203403Y77165D03*
D17*
X177203Y77191D03*
X180277Y77191D03*
D20*
X183363Y77191D03*
X197256Y77191D03*
X198679Y77191D03*
D18*
X201778Y77191D03*
D19*
X203416Y77191D03*
D20*
X177190Y77216D03*
D18*
X180264Y77216D03*
D19*
X183350Y77216D03*
D17*
X197269Y77216D03*
X198666Y77216D03*
D18*
X201752Y77216D03*
D20*
X203429Y77216D03*
D19*
X177178Y77241D03*
D18*
X180238Y77241D03*
D20*
X183337Y77241D03*
X197282Y77241D03*
D19*
X198641Y77241D03*
D18*
X201752Y77241D03*
D19*
X203441Y77241D03*
D20*
X177165Y77267D03*
D19*
X180226Y77267D03*
D17*
X183325Y77267D03*
X197295Y77267D03*
D19*
X198641Y77267D03*
D18*
X201727Y77267D03*
D20*
X203454Y77267D03*
D19*
X177152Y77292D03*
D18*
X180213Y77292D03*
D17*
X183299Y77292D03*
D19*
X197320Y77292D03*
X198615Y77292D03*
D17*
X201714Y77292D03*
D19*
X203467Y77292D03*
X177127Y77318D03*
X180200Y77318D03*
D20*
X183286Y77318D03*
X197333Y77318D03*
X198603Y77318D03*
D18*
X201701Y77318D03*
D17*
X203492Y77318D03*
D20*
X177114Y77343D03*
D18*
X180188Y77343D03*
D19*
X183274Y77343D03*
X197345Y77343D03*
X198590Y77343D03*
D18*
X201676Y77343D03*
D20*
X203505Y77343D03*
D17*
X177102Y77368D03*
D19*
X180175Y77368D03*
D20*
X183261Y77368D03*
X197358Y77368D03*
X198577Y77368D03*
D18*
X201676Y77368D03*
D17*
X203518Y77368D03*
D20*
X177089Y77394D03*
D17*
X180150Y77394D03*
D19*
X183248Y77394D03*
X197371Y77394D03*
D17*
X198565Y77394D03*
D18*
X201651Y77394D03*
D20*
X203530Y77394D03*
D17*
X177076Y77419D03*
D18*
X180137Y77419D03*
D20*
X183236Y77419D03*
X197383Y77419D03*
D17*
X198539Y77419D03*
D18*
X201651Y77419D03*
D19*
X203543Y77419D03*
X177051Y77445D03*
D17*
X180124Y77445D03*
D19*
X183223Y77445D03*
D17*
X197396Y77445D03*
X198539Y77445D03*
D18*
X201625Y77445D03*
D19*
X203568Y77445D03*
X177051Y77470D03*
D18*
X180111Y77470D03*
D17*
X183198Y77470D03*
X197422Y77470D03*
D19*
X198514Y77470D03*
D17*
X201613Y77470D03*
D19*
X203568Y77470D03*
X177025Y77495D03*
X180099Y77495D03*
D20*
X183185Y77495D03*
X197434Y77495D03*
X198501Y77495D03*
D18*
X201600Y77495D03*
D19*
X203594Y77495D03*
D20*
X177013Y77521D03*
D18*
X180086Y77521D03*
D17*
X183172Y77521D03*
D19*
X197447Y77521D03*
X198488Y77521D03*
D18*
X201574Y77521D03*
D20*
X203606Y77521D03*
D19*
X177000Y77546D03*
D18*
X180061Y77546D03*
D20*
X183159Y77546D03*
X197460Y77546D03*
X198476Y77546D03*
D18*
X201574Y77546D03*
D17*
X203619Y77546D03*
D20*
X176987Y77572D03*
D19*
X180048Y77572D03*
X183147Y77572D03*
X197472Y77572D03*
X198463Y77572D03*
D18*
X201549Y77572D03*
D20*
X203632Y77572D03*
D17*
X176975Y77597D03*
D18*
X180035Y77597D03*
D19*
X183121Y77597D03*
X197498Y77597D03*
D17*
X198438Y77597D03*
D18*
X201549Y77597D03*
D17*
X203645Y77597D03*
X176949Y77622D03*
X180023Y77622D03*
D19*
X183121Y77622D03*
X197498Y77622D03*
D20*
X198425Y77622D03*
D18*
X201524Y77622D03*
D19*
X203670Y77622D03*
D20*
X176936Y77648D03*
D18*
X180010Y77648D03*
D19*
X183096Y77648D03*
D17*
X197523Y77648D03*
X198412Y77648D03*
D18*
X201498Y77648D03*
D20*
X203683Y77648D03*
D19*
X176924Y77673D03*
D17*
X179997Y77673D03*
D20*
X183083Y77673D03*
X197536Y77673D03*
X198399Y77673D03*
D18*
X201498Y77673D03*
D19*
X203695Y77673D03*
D20*
X176911Y77699D03*
D18*
X179984Y77699D03*
D17*
X183071Y77699D03*
X197549Y77699D03*
D19*
X198387Y77699D03*
D18*
X201473Y77699D03*
D20*
X203708Y77699D03*
D19*
X176898Y77724D03*
D18*
X179959Y77724D03*
D20*
X183058Y77724D03*
X197561Y77724D03*
X198374Y77724D03*
D18*
X201473Y77724D03*
D19*
X203721Y77724D03*
D20*
X176886Y77749D03*
D19*
X179946Y77749D03*
D17*
X183045Y77749D03*
D19*
X197574Y77749D03*
X198361Y77749D03*
D18*
X201447Y77749D03*
D20*
X203733Y77749D03*
D19*
X176873Y77775D03*
D18*
X179934Y77775D03*
D19*
X183020Y77775D03*
X197599Y77775D03*
X198336Y77775D03*
X201435Y77775D03*
D17*
X203746Y77775D03*
X176848Y77800D03*
D19*
X179921Y77800D03*
D20*
X183007Y77800D03*
X197612Y77800D03*
X198323Y77800D03*
D18*
X201422Y77800D03*
D17*
X203772Y77800D03*
D20*
X176835Y77826D03*
D18*
X179908Y77826D03*
D19*
X182994Y77826D03*
X197625Y77826D03*
D17*
X198311Y77826D03*
D18*
X201397Y77826D03*
D20*
X203784Y77826D03*
D17*
X176822Y77851D03*
D18*
X179883Y77851D03*
D20*
X182982Y77851D03*
X197637Y77851D03*
X198298Y77851D03*
D18*
X201397Y77851D03*
D19*
X203797Y77851D03*
D20*
X176809Y77876D03*
D18*
X179883Y77876D03*
D19*
X182969Y77876D03*
D17*
X197650Y77876D03*
X198285Y77876D03*
D18*
X201371Y77876D03*
D20*
X203810Y77876D03*
D19*
X176797Y77902D03*
D18*
X179857Y77902D03*
D20*
X182956Y77902D03*
X197663Y77902D03*
D19*
X198260Y77902D03*
D18*
X201371Y77902D03*
D19*
X203822Y77902D03*
D20*
X176784Y77927D03*
D19*
X179845Y77927D03*
D17*
X182944Y77927D03*
X197676Y77927D03*
D19*
X198260Y77927D03*
D18*
X201346Y77927D03*
D20*
X203835Y77927D03*
D19*
X176771Y77953D03*
D18*
X179832Y77953D03*
D17*
X182918Y77953D03*
D19*
X197701Y77953D03*
X198234Y77953D03*
D17*
X201333Y77953D03*
D19*
X203848Y77953D03*
X176746Y77978D03*
X179819Y77978D03*
D20*
X182905Y77978D03*
X197714Y77978D03*
X198222Y77978D03*
D18*
X201320Y77978D03*
D17*
X203873Y77978D03*
D20*
X176733Y78003D03*
D18*
X179807Y78003D03*
D19*
X182893Y78003D03*
X197726Y78003D03*
X198209Y78003D03*
D18*
X201295Y78003D03*
D20*
X203886Y78003D03*
D17*
X176721Y78029D03*
D18*
X179781Y78029D03*
D20*
X182880Y78029D03*
X197739Y78029D03*
X198196Y78029D03*
D18*
X201295Y78029D03*
D17*
X203899Y78029D03*
D20*
X176708Y78054D03*
D17*
X179769Y78054D03*
D19*
X182867Y78054D03*
X197752Y78054D03*
D17*
X198184Y78054D03*
D18*
X201270Y78054D03*
D20*
X203911Y78054D03*
D17*
X176695Y78080D03*
D18*
X179756Y78080D03*
D20*
X182855Y78080D03*
X197764Y78080D03*
D17*
X198158Y78080D03*
D19*
X201257Y78080D03*
X203924Y78080D03*
X176670Y78105D03*
D17*
X179743Y78105D03*
D19*
X182842Y78105D03*
D17*
X197777Y78105D03*
D20*
X198145Y78105D03*
D18*
X201244Y78105D03*
D19*
X203949Y78105D03*
X176670Y78130D03*
D18*
X179730Y78130D03*
D17*
X182817Y78130D03*
X197803Y78130D03*
D19*
X198133Y78130D03*
D17*
X201232Y78130D03*
D19*
X203949Y78130D03*
X176644Y78156D03*
D18*
X179705Y78156D03*
D20*
X182804Y78156D03*
D44*
X197968Y78156D03*
D18*
X201219Y78156D03*
D19*
X203975Y78156D03*
D20*
X176632Y78181D03*
D18*
X179705Y78181D03*
D17*
X182791Y78181D03*
D44*
X197968Y78181D03*
D18*
X201193Y78181D03*
D20*
X203987Y78181D03*
D19*
X176619Y78207D03*
D18*
X179680Y78207D03*
D20*
X182778Y78207D03*
D43*
X197968Y78207D03*
D18*
X201193Y78207D03*
D17*
X204000Y78207D03*
D20*
X176606Y78232D03*
D19*
X179667Y78232D03*
X182766Y78232D03*
D43*
X197968Y78232D03*
D18*
X201168Y78232D03*
D20*
X204013Y78232D03*
D17*
X176594Y78257D03*
D18*
X179654Y78257D03*
D19*
X182740Y78257D03*
D41*
X197968Y78257D03*
D19*
X201155Y78257D03*
D17*
X204026Y78257D03*
X176568Y78283D03*
X179642Y78283D03*
D19*
X182740Y78283D03*
D40*
X197955Y78283D03*
D18*
X201143Y78283D03*
D19*
X204051Y78283D03*
D20*
X176555Y78308D03*
D18*
X179629Y78308D03*
D19*
X182715Y78308D03*
D47*
X197968Y78308D03*
D18*
X201117Y78308D03*
D20*
X204064Y78308D03*
D19*
X176543Y78334D03*
D18*
X179603Y78334D03*
D20*
X182702Y78334D03*
D37*
X197968Y78334D03*
D18*
X201117Y78334D03*
D19*
X204076Y78334D03*
D20*
X176530Y78359D03*
D18*
X179603Y78359D03*
D17*
X182690Y78359D03*
D37*
X197968Y78359D03*
D18*
X201092Y78359D03*
D20*
X204089Y78359D03*
D19*
X176517Y78384D03*
D18*
X179578Y78384D03*
D20*
X182677Y78384D03*
D18*
X197968Y78384D03*
D17*
X201079Y78384D03*
D19*
X204102Y78384D03*
D20*
X176505Y78410D03*
D19*
X179565Y78410D03*
D17*
X182664Y78410D03*
D18*
X197968Y78410D03*
X201066Y78410D03*
D20*
X204114Y78410D03*
X176505Y78435D03*
D18*
X179553Y78435D03*
X182651Y78435D03*
D19*
X197955Y78435D03*
X201054Y78435D03*
D20*
X204114Y78435D03*
D19*
X176517Y78461D03*
X179540Y78461D03*
D18*
X182651Y78461D03*
D20*
X197942Y78461D03*
D18*
X201041Y78461D03*
D19*
X204102Y78461D03*
D20*
X176530Y78486D03*
D18*
X179527Y78486D03*
D37*
X182651Y78486D03*
D17*
X197930Y78486D03*
D18*
X201016Y78486D03*
D20*
X204089Y78486D03*
D19*
X176543Y78511D03*
D18*
X179502Y78511D03*
D37*
X182651Y78511D03*
D20*
X197917Y78511D03*
D18*
X201016Y78511D03*
D19*
X204076Y78511D03*
D20*
X176555Y78537D03*
D18*
X179502Y78537D03*
D39*
X182651Y78537D03*
D17*
X197904Y78537D03*
D18*
X200990Y78537D03*
D20*
X204064Y78537D03*
D17*
X176568Y78562D03*
D18*
X179476Y78562D03*
D40*
X182664Y78562D03*
D19*
X197879Y78562D03*
D17*
X200978Y78562D03*
D19*
X204051Y78562D03*
D17*
X176594Y78588D03*
D19*
X179464Y78588D03*
D41*
X182651Y78588D03*
D19*
X197879Y78588D03*
D18*
X200965Y78588D03*
D17*
X204026Y78588D03*
D20*
X176606Y78613D03*
D18*
X179451Y78613D03*
D43*
X182651Y78613D03*
D19*
X197853Y78613D03*
D17*
X200952Y78613D03*
D20*
X204013Y78613D03*
D19*
X176619Y78638D03*
D18*
X179426Y78638D03*
D43*
X182651Y78638D03*
D20*
X197841Y78638D03*
D18*
X200939Y78638D03*
D17*
X204000Y78638D03*
D20*
X176632Y78664D03*
D18*
X179426Y78664D03*
D44*
X182651Y78664D03*
D19*
X197828Y78664D03*
D18*
X200914Y78664D03*
D20*
X203987Y78664D03*
D19*
X176644Y78689D03*
D18*
X179400Y78689D03*
D44*
X182651Y78689D03*
D20*
X197815Y78689D03*
D19*
X200901Y78689D03*
X203975Y78689D03*
X176670Y78715D03*
D17*
X179388Y78715D03*
D19*
X182486Y78715D03*
D17*
X182817Y78715D03*
X197803Y78715D03*
D18*
X200889Y78715D03*
D19*
X203949Y78715D03*
X176670Y78740D03*
D18*
X179375Y78740D03*
D20*
X182474Y78740D03*
D19*
X182842Y78740D03*
D17*
X197777Y78740D03*
D19*
X200876Y78740D03*
X203949Y78740D03*
D17*
X176695Y78765D03*
X179362Y78765D03*
D19*
X182461Y78765D03*
D20*
X182855Y78765D03*
X197764Y78765D03*
D18*
X200863Y78765D03*
D19*
X203924Y78765D03*
D20*
X176708Y78791D03*
D18*
X179349Y78791D03*
D17*
X182436Y78791D03*
D19*
X182867Y78791D03*
X197752Y78791D03*
D17*
X200851Y78791D03*
D20*
X203911Y78791D03*
D17*
X176721Y78816D03*
D18*
X179324Y78816D03*
D20*
X182423Y78816D03*
X182880Y78816D03*
X197739Y78816D03*
D18*
X200838Y78816D03*
D17*
X203899Y78816D03*
D20*
X176733Y78842D03*
D18*
X179324Y78842D03*
D17*
X182410Y78842D03*
D19*
X182893Y78842D03*
X197726Y78842D03*
D18*
X200812Y78842D03*
D20*
X203886Y78842D03*
D19*
X176746Y78867D03*
D18*
X179299Y78867D03*
D20*
X182397Y78867D03*
X182905Y78867D03*
X197714Y78867D03*
D19*
X200800Y78867D03*
D17*
X203873Y78867D03*
D19*
X176771Y78892D03*
X179286Y78892D03*
X182385Y78892D03*
D17*
X182918Y78892D03*
D19*
X197701Y78892D03*
D18*
X200787Y78892D03*
D19*
X203848Y78892D03*
D20*
X176784Y78918D03*
D18*
X179273Y78918D03*
D19*
X182359Y78918D03*
D17*
X182944Y78918D03*
X197676Y78918D03*
D19*
X200774Y78918D03*
D20*
X203835Y78918D03*
D19*
X176797Y78943D03*
D18*
X179248Y78943D03*
D19*
X182359Y78943D03*
D20*
X182956Y78943D03*
X197663Y78943D03*
D18*
X200762Y78943D03*
D19*
X203822Y78943D03*
D20*
X176809Y78969D03*
D18*
X179248Y78969D03*
D19*
X182334Y78969D03*
X182969Y78969D03*
D17*
X197650Y78969D03*
D18*
X200736Y78969D03*
D20*
X203810Y78969D03*
D17*
X176822Y78994D03*
D18*
X179222Y78994D03*
D20*
X182321Y78994D03*
X182982Y78994D03*
X197637Y78994D03*
D18*
X200736Y78994D03*
D19*
X203797Y78994D03*
D20*
X176835Y79019D03*
D18*
X179222Y79019D03*
D17*
X182309Y79019D03*
D19*
X182994Y79019D03*
X197625Y79019D03*
D18*
X200711Y79019D03*
D20*
X203784Y79019D03*
D17*
X176848Y79045D03*
D18*
X179197Y79045D03*
D20*
X182296Y79045D03*
X183007Y79045D03*
X197612Y79045D03*
D17*
X200698Y79045D03*
X203772Y79045D03*
D19*
X176873Y79070D03*
X179184Y79070D03*
D17*
X182283Y79070D03*
D19*
X183020Y79070D03*
X197599Y79070D03*
D18*
X200685Y79070D03*
D17*
X203746Y79070D03*
D20*
X176886Y79096D03*
D18*
X179172Y79096D03*
D19*
X182258Y79096D03*
D17*
X183045Y79096D03*
D19*
X197574Y79096D03*
X200673Y79096D03*
D20*
X203733Y79096D03*
D19*
X176898Y79121D03*
D18*
X179146Y79121D03*
D20*
X182245Y79121D03*
X183058Y79121D03*
X197561Y79121D03*
D18*
X200660Y79121D03*
D19*
X203721Y79121D03*
D20*
X176911Y79146D03*
D18*
X179146Y79146D03*
D19*
X182232Y79146D03*
D17*
X183071Y79146D03*
X197549Y79146D03*
D18*
X200635Y79146D03*
D20*
X203708Y79146D03*
D19*
X176924Y79172D03*
D18*
X179121Y79172D03*
D20*
X182220Y79172D03*
X183083Y79172D03*
X197536Y79172D03*
D19*
X200622Y79172D03*
X203695Y79172D03*
D20*
X176936Y79197D03*
D17*
X179108Y79197D03*
D19*
X182207Y79197D03*
X183096Y79197D03*
D17*
X197523Y79197D03*
D18*
X200609Y79197D03*
D20*
X203683Y79197D03*
D17*
X176949Y79223D03*
D18*
X179095Y79223D03*
D20*
X182194Y79223D03*
D19*
X183121Y79223D03*
X197498Y79223D03*
D17*
X200597Y79223D03*
D19*
X203670Y79223D03*
D17*
X176975Y79248D03*
D18*
X179070Y79248D03*
D17*
X182182Y79248D03*
D19*
X183121Y79248D03*
X197498Y79248D03*
D18*
X200584Y79248D03*
D17*
X203645Y79248D03*
D20*
X176987Y79273D03*
D18*
X179070Y79273D03*
D17*
X182156Y79273D03*
D19*
X183147Y79273D03*
X197472Y79273D03*
D17*
X200571Y79273D03*
D20*
X203632Y79273D03*
D19*
X177000Y79299D03*
D18*
X179045Y79299D03*
D20*
X182143Y79299D03*
X183159Y79299D03*
X197460Y79299D03*
D18*
X200558Y79299D03*
D17*
X203619Y79299D03*
D20*
X177013Y79324D03*
D18*
X179045Y79324D03*
D19*
X182131Y79324D03*
D17*
X183172Y79324D03*
D19*
X197447Y79324D03*
D18*
X200533Y79324D03*
D20*
X203606Y79324D03*
D19*
X177025Y79350D03*
D18*
X179019Y79350D03*
D20*
X182118Y79350D03*
X183185Y79350D03*
X197434Y79350D03*
D19*
X200520Y79350D03*
X203594Y79350D03*
X177051Y79375D03*
D17*
X179007Y79375D03*
D19*
X182105Y79375D03*
D17*
X183198Y79375D03*
X197422Y79375D03*
D18*
X200508Y79375D03*
D19*
X203568Y79375D03*
X177051Y79400D03*
D18*
X178994Y79400D03*
D19*
X182080Y79400D03*
X183223Y79400D03*
D17*
X197396Y79400D03*
D19*
X200495Y79400D03*
X203568Y79400D03*
D17*
X177076Y79426D03*
D18*
X178968Y79426D03*
D19*
X182080Y79426D03*
D20*
X183236Y79426D03*
X197383Y79426D03*
D18*
X200482Y79426D03*
D19*
X203543Y79426D03*
D20*
X177089Y79451D03*
D18*
X178968Y79451D03*
D17*
X182055Y79451D03*
D19*
X183248Y79451D03*
X197371Y79451D03*
D17*
X200470Y79451D03*
D20*
X203530Y79451D03*
D17*
X177102Y79477D03*
D18*
X178943Y79477D03*
D20*
X182042Y79477D03*
X183261Y79477D03*
X197358Y79477D03*
D17*
X200444Y79477D03*
X203518Y79477D03*
D20*
X177114Y79502D03*
D18*
X178943Y79502D03*
D17*
X182029Y79502D03*
D19*
X183274Y79502D03*
X197345Y79502D03*
D18*
X200431Y79502D03*
D20*
X203505Y79502D03*
D19*
X177127Y79527D03*
D18*
X178918Y79527D03*
D20*
X182016Y79527D03*
X183286Y79527D03*
X197333Y79527D03*
D19*
X200419Y79527D03*
D17*
X203492Y79527D03*
D19*
X177152Y79553D03*
X178905Y79553D03*
X182004Y79553D03*
D17*
X183299Y79553D03*
D19*
X197320Y79553D03*
D18*
X200406Y79553D03*
D19*
X203467Y79553D03*
D20*
X177165Y79578D03*
D18*
X178892Y79578D03*
D19*
X181978Y79578D03*
D17*
X183325Y79578D03*
X197295Y79578D03*
D19*
X200393Y79578D03*
D20*
X203454Y79578D03*
D19*
X177178Y79604D03*
D18*
X178867Y79604D03*
D20*
X181966Y79604D03*
X183337Y79604D03*
X197282Y79604D03*
D18*
X200381Y79604D03*
D19*
X203441Y79604D03*
D20*
X177190Y79629D03*
D18*
X178867Y79629D03*
D19*
X181953Y79629D03*
X183350Y79629D03*
D17*
X197269Y79629D03*
D18*
X200355Y79629D03*
D20*
X203429Y79629D03*
D17*
X177203Y79654D03*
D18*
X178841Y79654D03*
D20*
X181940Y79654D03*
X183363Y79654D03*
X197256Y79654D03*
D17*
X200343Y79654D03*
D19*
X203416Y79654D03*
D20*
X177216Y79680D03*
D18*
X178841Y79680D03*
D17*
X181928Y79680D03*
D19*
X183375Y79680D03*
X197244Y79680D03*
D18*
X200330Y79680D03*
D20*
X203403Y79680D03*
D17*
X177229Y79705D03*
D18*
X178816Y79705D03*
D20*
X181915Y79705D03*
D19*
X183401Y79705D03*
X197218Y79705D03*
D17*
X200317Y79705D03*
X203391Y79705D03*
D19*
X177254Y79731D03*
D18*
X178791Y79731D03*
D17*
X181902Y79731D03*
D19*
X183401Y79731D03*
X197218Y79731D03*
D18*
X200304Y79731D03*
D17*
X203365Y79731D03*
D20*
X177267Y79756D03*
D18*
X178791Y79756D03*
D19*
X181877Y79756D03*
D17*
X183426Y79756D03*
D19*
X197193Y79756D03*
X200292Y79756D03*
D20*
X203352Y79756D03*
D19*
X177279Y79781D03*
D18*
X178765Y79781D03*
D20*
X181864Y79781D03*
X183439Y79781D03*
X197180Y79781D03*
D19*
X200266Y79781D03*
X203340Y79781D03*
D20*
X177292Y79807D03*
D18*
X178765Y79807D03*
D19*
X181851Y79807D03*
D17*
X183452Y79807D03*
X197168Y79807D03*
D18*
X200254Y79807D03*
D20*
X203327Y79807D03*
D19*
X177305Y79832D03*
D18*
X178740Y79832D03*
D20*
X181839Y79832D03*
X183464Y79832D03*
X197155Y79832D03*
D19*
X200241Y79832D03*
X203314Y79832D03*
D20*
X177317Y79858D03*
D17*
X178727Y79858D03*
D19*
X181826Y79858D03*
X183477Y79858D03*
D17*
X197142Y79858D03*
D18*
X200228Y79858D03*
D20*
X203302Y79858D03*
D17*
X177330Y79883D03*
D18*
X178714Y79883D03*
D20*
X181813Y79883D03*
D19*
X183502Y79883D03*
X197117Y79883D03*
D17*
X200216Y79883D03*
D19*
X203289Y79883D03*
D17*
X177356Y79908D03*
D18*
X178689Y79908D03*
D17*
X181801Y79908D03*
D19*
X183502Y79908D03*
X197117Y79908D03*
D18*
X200203Y79908D03*
D17*
X203264Y79908D03*
D20*
X177368Y79934D03*
D18*
X178689Y79934D03*
D17*
X181775Y79934D03*
D19*
X183528Y79934D03*
X197091Y79934D03*
D17*
X200190Y79934D03*
D20*
X203251Y79934D03*
D19*
X177381Y79959D03*
D18*
X178664Y79959D03*
D20*
X181762Y79959D03*
X183540Y79959D03*
X197079Y79959D03*
D19*
X200165Y79959D03*
D17*
X203238Y79959D03*
D20*
X177394Y79985D03*
D18*
X178664Y79985D03*
D19*
X181750Y79985D03*
D17*
X183553Y79985D03*
D19*
X197066Y79985D03*
D18*
X200152Y79985D03*
D20*
X203225Y79985D03*
D19*
X177406Y80010D03*
D18*
X178638Y80010D03*
D20*
X181737Y80010D03*
X183566Y80010D03*
X197053Y80010D03*
D19*
X200139Y80010D03*
X203213Y80010D03*
X177432Y80035D03*
D18*
X178613Y80035D03*
D19*
X181724Y80035D03*
D17*
X183579Y80035D03*
X197041Y80035D03*
D18*
X200127Y80035D03*
D19*
X203187Y80035D03*
X177432Y80061D03*
D18*
X178613Y80061D03*
D19*
X181699Y80061D03*
X183604Y80061D03*
D17*
X197015Y80061D03*
D19*
X200114Y80061D03*
X203187Y80061D03*
D17*
X177457Y80086D03*
D18*
X178587Y80086D03*
D19*
X181699Y80086D03*
D20*
X183617Y80086D03*
X197002Y80086D03*
D18*
X200101Y80086D03*
D19*
X203162Y80086D03*
D20*
X177470Y80112D03*
D18*
X178587Y80112D03*
D17*
X181674Y80112D03*
D19*
X183629Y80112D03*
X196990Y80112D03*
D18*
X200076Y80112D03*
D20*
X203149Y80112D03*
D17*
X177483Y80137D03*
D18*
X178562Y80137D03*
D20*
X181661Y80137D03*
X183642Y80137D03*
X196977Y80137D03*
D17*
X200063Y80137D03*
X203137Y80137D03*
D20*
X177495Y80162D03*
D18*
X178562Y80162D03*
D17*
X181648Y80162D03*
D19*
X183655Y80162D03*
X196964Y80162D03*
D18*
X200050Y80162D03*
D20*
X203124Y80162D03*
D19*
X177508Y80188D03*
D18*
X178537Y80188D03*
D20*
X181635Y80188D03*
X183667Y80188D03*
X196952Y80188D03*
D19*
X200038Y80188D03*
D17*
X203111Y80188D03*
D19*
X177533Y80213D03*
D18*
X178511Y80213D03*
D19*
X181623Y80213D03*
D17*
X183680Y80213D03*
D19*
X196939Y80213D03*
D18*
X200025Y80213D03*
D19*
X203086Y80213D03*
D20*
X177546Y80239D03*
D18*
X178511Y80239D03*
D19*
X181597Y80239D03*
D17*
X183706Y80239D03*
X196914Y80239D03*
D19*
X200012Y80239D03*
D20*
X203073Y80239D03*
D19*
X177559Y80264D03*
D18*
X178486Y80264D03*
D20*
X181585Y80264D03*
X183718Y80264D03*
X196901Y80264D03*
D19*
X199987Y80264D03*
X203060Y80264D03*
D20*
X177571Y80289D03*
D18*
X178486Y80289D03*
D19*
X181572Y80289D03*
X183731Y80289D03*
D17*
X196888Y80289D03*
D18*
X199974Y80289D03*
D20*
X203048Y80289D03*
D17*
X177584Y80315D03*
D18*
X178460Y80315D03*
D20*
X181559Y80315D03*
X183744Y80315D03*
X196875Y80315D03*
D17*
X199962Y80315D03*
D19*
X203035Y80315D03*
D20*
X177597Y80340D03*
D22*
X178448Y80340D03*
D17*
X181547Y80340D03*
D19*
X183756Y80340D03*
X196863Y80340D03*
D18*
X199949Y80340D03*
D20*
X203022Y80340D03*
D17*
X177610Y80366D03*
D18*
X178435Y80366D03*
D20*
X181534Y80366D03*
D19*
X183782Y80366D03*
X196837Y80366D03*
D17*
X199936Y80366D03*
X203010Y80366D03*
D19*
X177635Y80391D03*
D18*
X178410Y80391D03*
D17*
X181521Y80391D03*
D19*
X183782Y80391D03*
X196837Y80391D03*
D18*
X199923Y80391D03*
D17*
X202984Y80391D03*
D20*
X177648Y80416D03*
D18*
X178410Y80416D03*
D19*
X181496Y80416D03*
D17*
X183807Y80416D03*
D19*
X196812Y80416D03*
X199911Y80416D03*
D20*
X202971Y80416D03*
D19*
X177660Y80442D03*
D18*
X178384Y80442D03*
D20*
X181483Y80442D03*
X183820Y80442D03*
X196799Y80442D03*
D19*
X199885Y80442D03*
X202959Y80442D03*
D20*
X177673Y80467D03*
D18*
X178384Y80467D03*
D19*
X181470Y80467D03*
D17*
X183833Y80467D03*
X196787Y80467D03*
D18*
X199873Y80467D03*
D20*
X202946Y80467D03*
D19*
X177686Y80493D03*
D18*
X178359Y80493D03*
D20*
X181458Y80493D03*
X183845Y80493D03*
X196774Y80493D03*
D19*
X199860Y80493D03*
X202933Y80493D03*
D17*
X177711Y80518D03*
D18*
X178333Y80518D03*
D19*
X181445Y80518D03*
X183858Y80518D03*
D17*
X196761Y80518D03*
D18*
X199847Y80518D03*
D19*
X202908Y80518D03*
D17*
X177711Y80543D03*
D18*
X178333Y80543D03*
D20*
X181432Y80543D03*
D19*
X183883Y80543D03*
X196736Y80543D03*
D17*
X199835Y80543D03*
D19*
X202908Y80543D03*
D17*
X177737Y80569D03*
D18*
X178308Y80569D03*
D17*
X181420Y80569D03*
D20*
X183896Y80569D03*
X196723Y80569D03*
D17*
X199809Y80569D03*
X202883Y80569D03*
D20*
X177749Y80594D03*
D18*
X178308Y80594D03*
D17*
X181394Y80594D03*
D19*
X183909Y80594D03*
X196710Y80594D03*
D17*
X199809Y80594D03*
D20*
X202870Y80594D03*
D19*
X177762Y80620D03*
D18*
X178283Y80620D03*
D20*
X181381Y80620D03*
X183921Y80620D03*
X196698Y80620D03*
D19*
X199784Y80620D03*
D17*
X202857Y80620D03*
D20*
X177775Y80645D03*
D18*
X178283Y80645D03*
D19*
X181369Y80645D03*
D17*
X183934Y80645D03*
D19*
X196685Y80645D03*
D18*
X199771Y80645D03*
D20*
X202844Y80645D03*
D19*
X177787Y80670D03*
D18*
X178257Y80670D03*
D20*
X181356Y80670D03*
X183947Y80670D03*
X196672Y80670D03*
D19*
X199758Y80670D03*
X202832Y80670D03*
X177813Y80696D03*
D18*
X178232Y80696D03*
D19*
X181343Y80696D03*
D17*
X183960Y80696D03*
X196660Y80696D03*
D18*
X199746Y80696D03*
D19*
X202806Y80696D03*
X177813Y80721D03*
D18*
X178232Y80721D03*
D19*
X181318Y80721D03*
X183985Y80721D03*
D17*
X196634Y80721D03*
D19*
X199733Y80721D03*
X202806Y80721D03*
D17*
X177838Y80747D03*
D18*
X178206Y80747D03*
D19*
X181318Y80747D03*
D20*
X183998Y80747D03*
X196621Y80747D03*
D17*
X199708Y80747D03*
D19*
X202781Y80747D03*
D20*
X177851Y80772D03*
D18*
X178206Y80772D03*
D17*
X181293Y80772D03*
D19*
X184010Y80772D03*
X196609Y80772D03*
D18*
X199695Y80772D03*
D20*
X202768Y80772D03*
D46*
X178029Y80797D03*
D20*
X181280Y80797D03*
X184023Y80797D03*
X196596Y80797D03*
D17*
X199682Y80797D03*
X202756Y80797D03*
D48*
X178041Y80823D03*
D17*
X181267Y80823D03*
D19*
X184036Y80823D03*
X196583Y80823D03*
D18*
X199669Y80823D03*
D20*
X202743Y80823D03*
D44*
X178029Y80848D03*
D20*
X181254Y80848D03*
X184048Y80848D03*
X196571Y80848D03*
D19*
X199657Y80848D03*
D17*
X202730Y80848D03*
D43*
X178029Y80874D03*
D19*
X181242Y80874D03*
D17*
X184061Y80874D03*
D19*
X196558Y80874D03*
X199631Y80874D03*
X202705Y80874D03*
D42*
X178041Y80899D03*
D19*
X181216Y80899D03*
D17*
X184087Y80899D03*
X196533Y80899D03*
D19*
X199631Y80899D03*
D20*
X202692Y80899D03*
D41*
X178029Y80924D03*
D20*
X181204Y80924D03*
X184099Y80924D03*
X196520Y80924D03*
D19*
X199606Y80924D03*
X202679Y80924D03*
D40*
X178041Y80950D03*
D19*
X181191Y80950D03*
X184112Y80950D03*
D17*
X196507Y80950D03*
D18*
X199593Y80950D03*
D20*
X202667Y80950D03*
D47*
X178029Y80975D03*
D20*
X181178Y80975D03*
X184125Y80975D03*
X196494Y80975D03*
D17*
X199581Y80975D03*
D19*
X202654Y80975D03*
D38*
X178041Y81001D03*
D17*
X181166Y81001D03*
D19*
X184137Y81001D03*
X196482Y81001D03*
D18*
X199568Y81001D03*
D20*
X202641Y81001D03*
D37*
X178029Y81026D03*
D20*
X181153Y81026D03*
D19*
X184163Y81026D03*
X196456Y81026D03*
D17*
X199555Y81026D03*
X202629Y81026D03*
D18*
X178029Y81051D03*
D17*
X181140Y81051D03*
D19*
X184163Y81051D03*
X196456Y81051D03*
X199530Y81051D03*
D17*
X202603Y81051D03*
D19*
X178041Y81077D03*
X181115Y81077D03*
D17*
X184188Y81077D03*
D19*
X196431Y81077D03*
X199530Y81077D03*
D20*
X202590Y81077D03*
D19*
X178041Y81102D03*
X181115Y81102D03*
D20*
X184201Y81102D03*
X196418Y81102D03*
D19*
X199504Y81102D03*
X202578Y81102D03*
D20*
X178054Y81128D03*
D17*
X181140Y81128D03*
X184214Y81128D03*
X196406Y81128D03*
D18*
X199492Y81128D03*
D20*
X202565Y81128D03*
D19*
X178067Y81153D03*
D20*
X181153Y81153D03*
X184226Y81153D03*
X196393Y81153D03*
D19*
X199479Y81153D03*
X202552Y81153D03*
D17*
X178092Y81178D03*
X181166Y81178D03*
D19*
X184239Y81178D03*
D17*
X196380Y81178D03*
D18*
X199466Y81178D03*
D19*
X202527Y81178D03*
D17*
X178092Y81204D03*
D20*
X181178Y81204D03*
D19*
X184264Y81204D03*
X196355Y81204D03*
D17*
X199454Y81204D03*
D19*
X202527Y81204D03*
D17*
X178118Y81229D03*
D19*
X181191Y81229D03*
D20*
X184277Y81229D03*
X196342Y81229D03*
D17*
X199428Y81229D03*
X202502Y81229D03*
D20*
X178130Y81255D03*
X181204Y81255D03*
D19*
X184290Y81255D03*
X196329Y81255D03*
D17*
X199428Y81255D03*
D20*
X202489Y81255D03*
D19*
X178143Y81280D03*
X181216Y81280D03*
D20*
X184302Y81280D03*
X196317Y81280D03*
D19*
X199403Y81280D03*
D17*
X202476Y81280D03*
D20*
X178156Y81305D03*
D19*
X181242Y81305D03*
D17*
X184315Y81305D03*
D19*
X196304Y81305D03*
D18*
X199390Y81305D03*
D20*
X202463Y81305D03*
D19*
X178168Y81331D03*
D20*
X181254Y81331D03*
X184328Y81331D03*
X196291Y81331D03*
D19*
X199377Y81331D03*
X202451Y81331D03*
X178194Y81356D03*
D17*
X181267Y81356D03*
X184341Y81356D03*
X196279Y81356D03*
D19*
X199352Y81356D03*
X202425Y81356D03*
D20*
X178206Y81382D03*
X181280Y81382D03*
D19*
X184366Y81382D03*
D17*
X196253Y81382D03*
D19*
X199352Y81382D03*
D20*
X202413Y81382D03*
D17*
X178219Y81407D03*
X181293Y81407D03*
D20*
X184379Y81407D03*
X196240Y81407D03*
D17*
X199327Y81407D03*
D19*
X202400Y81407D03*
D20*
X178232Y81432D03*
D19*
X181318Y81432D03*
X184391Y81432D03*
X196228Y81432D03*
D18*
X199314Y81432D03*
D20*
X202387Y81432D03*
D17*
X178245Y81458D03*
D19*
X181318Y81458D03*
D20*
X184404Y81458D03*
X196215Y81458D03*
D17*
X199301Y81458D03*
X202375Y81458D03*
D20*
X178257Y81483D03*
D19*
X181343Y81483D03*
X184417Y81483D03*
X196202Y81483D03*
D18*
X199288Y81483D03*
D20*
X202362Y81483D03*
D19*
X178270Y81509D03*
D20*
X181356Y81509D03*
X184429Y81509D03*
X196190Y81509D03*
D19*
X199276Y81509D03*
D17*
X202349Y81509D03*
D19*
X178295Y81534D03*
X181369Y81534D03*
D17*
X184442Y81534D03*
D19*
X196177Y81534D03*
X199250Y81534D03*
X202324Y81534D03*
D20*
X178308Y81559D03*
X181381Y81559D03*
D17*
X184468Y81559D03*
X196152Y81559D03*
D19*
X199250Y81559D03*
D20*
X202311Y81559D03*
D19*
X178321Y81585D03*
D17*
X181394Y81585D03*
D20*
X184480Y81585D03*
X196139Y81585D03*
D19*
X199225Y81585D03*
X202298Y81585D03*
D20*
X178333Y81610D03*
D17*
X181420Y81610D03*
D19*
X184493Y81610D03*
D17*
X196126Y81610D03*
D18*
X199212Y81610D03*
D20*
X202286Y81610D03*
D17*
X178346Y81636D03*
X181420Y81636D03*
D20*
X184506Y81636D03*
X196113Y81636D03*
D17*
X199200Y81636D03*
D19*
X202273Y81636D03*
D20*
X178359Y81661D03*
D19*
X181445Y81661D03*
X184518Y81661D03*
X196101Y81661D03*
D17*
X199174Y81661D03*
D20*
X202260Y81661D03*
D17*
X178372Y81686D03*
D20*
X181458Y81686D03*
D19*
X184544Y81686D03*
X196075Y81686D03*
D17*
X199174Y81686D03*
X202248Y81686D03*
D19*
X178397Y81712D03*
X181470Y81712D03*
X184544Y81712D03*
X196075Y81712D03*
X199149Y81712D03*
D17*
X202222Y81712D03*
D20*
X178410Y81737D03*
X181483Y81737D03*
D17*
X184569Y81737D03*
D19*
X196050Y81737D03*
X199149Y81737D03*
D20*
X202209Y81737D03*
D19*
X178422Y81763D03*
X181496Y81763D03*
D20*
X184582Y81763D03*
X196037Y81763D03*
D19*
X199123Y81763D03*
X202197Y81763D03*
D20*
X178435Y81788D03*
D17*
X181521Y81788D03*
X184595Y81788D03*
X196025Y81788D03*
D18*
X199111Y81788D03*
D20*
X202184Y81788D03*
D19*
X178448Y81813D03*
D17*
X181521Y81813D03*
D20*
X184607Y81813D03*
X196012Y81813D03*
D19*
X199098Y81813D03*
X202171Y81813D03*
D17*
X178473Y81839D03*
X181547Y81839D03*
D19*
X184620Y81839D03*
D17*
X195999Y81839D03*
X199073Y81839D03*
D19*
X202146Y81839D03*
D17*
X178473Y81864D03*
D20*
X181559Y81864D03*
D19*
X184645Y81864D03*
X195974Y81864D03*
D17*
X199073Y81864D03*
D19*
X202146Y81864D03*
D17*
X178499Y81890D03*
D19*
X181572Y81890D03*
D20*
X184658Y81890D03*
X195961Y81890D03*
D17*
X199047Y81890D03*
X202121Y81890D03*
D20*
X178511Y81915D03*
X181585Y81915D03*
D19*
X184671Y81915D03*
X195948Y81915D03*
D17*
X199047Y81915D03*
D20*
X202108Y81915D03*
D19*
X178524Y81940D03*
X181597Y81940D03*
D20*
X184683Y81940D03*
X195936Y81940D03*
D19*
X199022Y81940D03*
D17*
X202095Y81940D03*
D20*
X178537Y81966D03*
D19*
X181623Y81966D03*
D17*
X184696Y81966D03*
D19*
X195923Y81966D03*
X198996Y81966D03*
D20*
X202082Y81966D03*
D19*
X178549Y81991D03*
X181623Y81991D03*
D20*
X184709Y81991D03*
X195910Y81991D03*
D19*
X198996Y81991D03*
X202070Y81991D03*
X178575Y82017D03*
D17*
X181648Y82017D03*
X184722Y82017D03*
X195898Y82017D03*
D19*
X198971Y82017D03*
X202044Y82017D03*
D20*
X178587Y82042D03*
X181661Y82042D03*
D19*
X184747Y82042D03*
D17*
X195872Y82042D03*
D19*
X198971Y82042D03*
D20*
X202032Y82042D03*
D17*
X178600Y82067D03*
X181674Y82067D03*
D20*
X184760Y82067D03*
X195859Y82067D03*
D17*
X198946Y82067D03*
D19*
X202019Y82067D03*
D20*
X178613Y82093D03*
D19*
X181699Y82093D03*
X184772Y82093D03*
X195847Y82093D03*
D18*
X198933Y82093D03*
D20*
X202006Y82093D03*
D17*
X178626Y82118D03*
D19*
X181699Y82118D03*
D20*
X184785Y82118D03*
X195834Y82118D03*
D17*
X198920Y82118D03*
X201994Y82118D03*
D20*
X178638Y82144D03*
D19*
X181724Y82144D03*
X184798Y82144D03*
X195821Y82144D03*
X198895Y82144D03*
D20*
X201981Y82144D03*
D19*
X178651Y82169D03*
X181724Y82169D03*
D17*
X184823Y82169D03*
D19*
X195796Y82169D03*
X198895Y82169D03*
D17*
X201968Y82169D03*
D19*
X178676Y82194D03*
X181750Y82194D03*
D17*
X184823Y82194D03*
D19*
X195796Y82194D03*
X198869Y82194D03*
X201943Y82194D03*
D20*
X178689Y82220D03*
X181762Y82220D03*
D17*
X184849Y82220D03*
X195771Y82220D03*
D19*
X198869Y82220D03*
D20*
X201930Y82220D03*
D19*
X178702Y82245D03*
D17*
X181775Y82245D03*
D20*
X184861Y82245D03*
X195758Y82245D03*
D19*
X198844Y82245D03*
X201917Y82245D03*
D20*
X178714Y82271D03*
D17*
X181801Y82271D03*
D19*
X184874Y82271D03*
D17*
X195745Y82271D03*
D18*
X198831Y82271D03*
D20*
X201905Y82271D03*
D17*
X178727Y82296D03*
X181801Y82296D03*
D20*
X184887Y82296D03*
X195732Y82296D03*
D17*
X198819Y82296D03*
D19*
X201892Y82296D03*
D20*
X178740Y82321D03*
D19*
X181826Y82321D03*
X184899Y82321D03*
X195720Y82321D03*
D17*
X198793Y82321D03*
D20*
X201879Y82321D03*
D17*
X178753Y82347D03*
D19*
X181826Y82347D03*
X184925Y82347D03*
X195694Y82347D03*
D17*
X198793Y82347D03*
X201867Y82347D03*
D19*
X178778Y82372D03*
X181851Y82372D03*
D20*
X184937Y82372D03*
D19*
X195694Y82372D03*
X198768Y82372D03*
D17*
X201841Y82372D03*
D20*
X178791Y82398D03*
X181864Y82398D03*
D17*
X184950Y82398D03*
D19*
X195669Y82398D03*
X198768Y82398D03*
D20*
X201828Y82398D03*
D19*
X178803Y82423D03*
X181877Y82423D03*
D20*
X184963Y82423D03*
X195656Y82423D03*
D19*
X198742Y82423D03*
X201816Y82423D03*
D20*
X178816Y82448D03*
D17*
X181902Y82448D03*
X184976Y82448D03*
X195644Y82448D03*
D19*
X198717Y82448D03*
D20*
X201803Y82448D03*
D19*
X178829Y82474D03*
D17*
X181902Y82474D03*
D20*
X184988Y82474D03*
X195631Y82474D03*
D19*
X198717Y82474D03*
X201790Y82474D03*
D17*
X178854Y82499D03*
X181928Y82499D03*
D19*
X185001Y82499D03*
D17*
X195618Y82499D03*
X198692Y82499D03*
D19*
X201765Y82499D03*
D17*
X178854Y82525D03*
D20*
X181940Y82525D03*
D19*
X185026Y82525D03*
X195593Y82525D03*
D17*
X198692Y82525D03*
D19*
X201765Y82525D03*
D17*
X178880Y82550D03*
D19*
X181953Y82550D03*
D20*
X185039Y82550D03*
X195580Y82550D03*
D17*
X198666Y82550D03*
X201740Y82550D03*
D20*
X178892Y82575D03*
D19*
X181978Y82575D03*
X185052Y82575D03*
X195567Y82575D03*
D18*
X198653Y82575D03*
D20*
X201727Y82575D03*
D19*
X178905Y82601D03*
X181978Y82601D03*
D20*
X185064Y82601D03*
X195555Y82601D03*
D19*
X198641Y82601D03*
D17*
X201714Y82601D03*
D20*
X178918Y82626D03*
D19*
X182004Y82626D03*
D17*
X185077Y82626D03*
D19*
X195542Y82626D03*
X198615Y82626D03*
D20*
X201701Y82626D03*
D19*
X178930Y82652D03*
X182004Y82652D03*
D20*
X185090Y82652D03*
X195529Y82652D03*
D19*
X198615Y82652D03*
X201689Y82652D03*
X178956Y82677D03*
D17*
X182029Y82677D03*
X185103Y82677D03*
X195517Y82677D03*
D19*
X198590Y82677D03*
X201663Y82677D03*
D20*
X178968Y82702D03*
X182042Y82702D03*
D19*
X185128Y82702D03*
D17*
X195491Y82702D03*
D19*
X198590Y82702D03*
D20*
X201651Y82702D03*
D17*
X178981Y82728D03*
X182055Y82728D03*
D20*
X185141Y82728D03*
X195478Y82728D03*
D17*
X198565Y82728D03*
D19*
X201638Y82728D03*
D20*
X178994Y82753D03*
D19*
X182080Y82753D03*
X185153Y82753D03*
X195466Y82753D03*
D17*
X198539Y82753D03*
D20*
X201625Y82753D03*
D17*
X179007Y82779D03*
D19*
X182080Y82779D03*
D20*
X185166Y82779D03*
X195453Y82779D03*
D17*
X198539Y82779D03*
X201613Y82779D03*
D20*
X179019Y82804D03*
D19*
X182105Y82804D03*
X185179Y82804D03*
X195440Y82804D03*
X198514Y82804D03*
D20*
X201600Y82804D03*
D19*
X179032Y82829D03*
X182105Y82829D03*
D17*
X185204Y82829D03*
D19*
X195415Y82829D03*
X198514Y82829D03*
D17*
X201587Y82829D03*
D19*
X179057Y82855D03*
X182131Y82855D03*
D17*
X185204Y82855D03*
D19*
X195415Y82855D03*
X198488Y82855D03*
X201562Y82855D03*
D20*
X179070Y82880D03*
X182143Y82880D03*
D17*
X185230Y82880D03*
X195390Y82880D03*
D19*
X198488Y82880D03*
D20*
X201549Y82880D03*
D19*
X179083Y82906D03*
D17*
X182156Y82906D03*
D20*
X185242Y82906D03*
X195377Y82906D03*
D19*
X198463Y82906D03*
X201536Y82906D03*
D20*
X179095Y82931D03*
D17*
X182182Y82931D03*
D19*
X185255Y82931D03*
D17*
X195364Y82931D03*
X198438Y82931D03*
D20*
X201524Y82931D03*
D17*
X179108Y82956D03*
X182182Y82956D03*
D20*
X185268Y82956D03*
X195351Y82956D03*
D17*
X198438Y82956D03*
D19*
X201511Y82956D03*
D17*
X179134Y82982D03*
D19*
X182207Y82982D03*
X185280Y82982D03*
X195339Y82982D03*
D17*
X198412Y82982D03*
X201486Y82982D03*
X179134Y83007D03*
D19*
X182207Y83007D03*
X185306Y83007D03*
X195313Y83007D03*
D17*
X198412Y83007D03*
X201486Y83007D03*
D19*
X179159Y83033D03*
X182232Y83033D03*
D20*
X185318Y83033D03*
X195301Y83033D03*
D19*
X198387Y83033D03*
D17*
X201460Y83033D03*
D20*
X179172Y83058D03*
X182245Y83058D03*
D17*
X185331Y83058D03*
D19*
X195288Y83058D03*
D20*
X198374Y83058D03*
X201447Y83058D03*
D19*
X179184Y83083D03*
X182258Y83083D03*
D20*
X185344Y83083D03*
X195275Y83083D03*
D19*
X198361Y83083D03*
X201435Y83083D03*
D20*
X179197Y83109D03*
D17*
X182283Y83109D03*
X185357Y83109D03*
X195263Y83109D03*
D19*
X198336Y83109D03*
D20*
X201422Y83109D03*
D19*
X179210Y83134D03*
D17*
X182283Y83134D03*
D20*
X185369Y83134D03*
X195250Y83134D03*
D19*
X198336Y83134D03*
X201409Y83134D03*
D17*
X179235Y83160D03*
X182309Y83160D03*
D19*
X185382Y83160D03*
D17*
X195237Y83160D03*
X198311Y83160D03*
D19*
X201384Y83160D03*
D20*
X179248Y83185D03*
D17*
X182309Y83185D03*
D19*
X185407Y83185D03*
X195212Y83185D03*
D17*
X198311Y83185D03*
D20*
X201371Y83185D03*
D17*
X179261Y83210D03*
D19*
X182334Y83210D03*
D20*
X185420Y83210D03*
X195199Y83210D03*
D17*
X198285Y83210D03*
X201359Y83210D03*
D20*
X179273Y83236D03*
D19*
X182359Y83236D03*
X185433Y83236D03*
X195186Y83236D03*
X198260Y83236D03*
D20*
X201346Y83236D03*
D19*
X179286Y83261D03*
X182359Y83261D03*
D20*
X185445Y83261D03*
X195174Y83261D03*
D19*
X198260Y83261D03*
D17*
X201333Y83261D03*
D20*
X179299Y83287D03*
D19*
X182385Y83287D03*
D17*
X185458Y83287D03*
D19*
X195161Y83287D03*
X198234Y83287D03*
D20*
X201320Y83287D03*
D19*
X179311Y83312D03*
X182385Y83312D03*
D20*
X185471Y83312D03*
X195148Y83312D03*
D19*
X198234Y83312D03*
X201308Y83312D03*
X179337Y83337D03*
D17*
X182410Y83337D03*
X185484Y83337D03*
X195136Y83337D03*
D19*
X198209Y83337D03*
X201282Y83337D03*
D20*
X179349Y83363D03*
D17*
X182410Y83363D03*
D19*
X185509Y83363D03*
D17*
X195110Y83363D03*
D19*
X198209Y83363D03*
D20*
X201270Y83363D03*
D17*
X179362Y83388D03*
X182436Y83388D03*
D20*
X185522Y83388D03*
X195097Y83388D03*
D17*
X198184Y83388D03*
D19*
X201257Y83388D03*
D20*
X179375Y83414D03*
D19*
X182461Y83414D03*
X185534Y83414D03*
X195085Y83414D03*
D17*
X198158Y83414D03*
D20*
X201244Y83414D03*
D17*
X179388Y83439D03*
D19*
X182461Y83439D03*
D20*
X185547Y83439D03*
X195072Y83439D03*
D17*
X198158Y83439D03*
X201232Y83439D03*
D20*
X179400Y83464D03*
D19*
X182486Y83464D03*
X185560Y83464D03*
X195059Y83464D03*
X198133Y83464D03*
D20*
X201219Y83464D03*
D19*
X179413Y83490D03*
X182486Y83490D03*
D17*
X185585Y83490D03*
D19*
X195034Y83490D03*
X198133Y83490D03*
D17*
X201206Y83490D03*
D19*
X179438Y83515D03*
X182512Y83515D03*
D17*
X185585Y83515D03*
D19*
X195034Y83515D03*
X198107Y83515D03*
X201181Y83515D03*
D20*
X179451Y83541D03*
D19*
X182512Y83541D03*
D17*
X185611Y83541D03*
X195009Y83541D03*
D20*
X198095Y83541D03*
X201168Y83541D03*
D19*
X179464Y83566D03*
D17*
X182537Y83566D03*
D20*
X185623Y83566D03*
X194996Y83566D03*
D19*
X198082Y83566D03*
X201155Y83566D03*
D20*
X179476Y83591D03*
D17*
X182563Y83591D03*
D19*
X185636Y83591D03*
D17*
X194983Y83591D03*
X198057Y83591D03*
D20*
X201143Y83591D03*
D17*
X179489Y83617D03*
X182563Y83617D03*
D20*
X185649Y83617D03*
X194970Y83617D03*
D17*
X198057Y83617D03*
D19*
X201130Y83617D03*
D17*
X179515Y83642D03*
D19*
X182588Y83642D03*
X185661Y83642D03*
X194958Y83642D03*
D17*
X198031Y83642D03*
X201105Y83642D03*
X179515Y83668D03*
D19*
X182588Y83668D03*
X185687Y83668D03*
X194932Y83668D03*
D17*
X198031Y83668D03*
X201105Y83668D03*
D19*
X179540Y83693D03*
X182613Y83693D03*
D20*
X185699Y83693D03*
X194920Y83693D03*
D19*
X198006Y83693D03*
D17*
X201079Y83693D03*
D20*
X179553Y83718D03*
D19*
X182613Y83718D03*
D17*
X185712Y83718D03*
D19*
X194907Y83718D03*
D20*
X197993Y83718D03*
X201066Y83718D03*
D19*
X179565Y83744D03*
X182639Y83744D03*
D20*
X185725Y83744D03*
X194894Y83744D03*
D19*
X197980Y83744D03*
X201054Y83744D03*
D20*
X179578Y83769D03*
D17*
X182664Y83769D03*
X185738Y83769D03*
X194882Y83769D03*
D19*
X197955Y83769D03*
D20*
X201041Y83769D03*
D19*
X179591Y83795D03*
D17*
X182664Y83795D03*
D20*
X185750Y83795D03*
X194869Y83795D03*
D19*
X197955Y83795D03*
X201028Y83795D03*
D17*
X179616Y83820D03*
X182690Y83820D03*
D19*
X185763Y83820D03*
D17*
X194856Y83820D03*
X197930Y83820D03*
D19*
X201003Y83820D03*
D20*
X179629Y83845D03*
D17*
X182690Y83845D03*
D19*
X185788Y83845D03*
X194831Y83845D03*
D20*
X197917Y83845D03*
X200990Y83845D03*
D17*
X179642Y83871D03*
D19*
X182715Y83871D03*
D20*
X185801Y83871D03*
X194818Y83871D03*
D17*
X197904Y83871D03*
X200978Y83871D03*
D20*
X179654Y83896D03*
D18*
X182728Y83896D03*
D19*
X185814Y83896D03*
X194805Y83896D03*
X197879Y83896D03*
D20*
X200965Y83896D03*
D19*
X179667Y83922D03*
X182740Y83922D03*
D20*
X185826Y83922D03*
X194793Y83922D03*
D19*
X197879Y83922D03*
D17*
X200952Y83922D03*
D20*
X179680Y83947D03*
D19*
X182766Y83947D03*
D17*
X185839Y83947D03*
D19*
X194780Y83947D03*
X197853Y83947D03*
D20*
X200939Y83947D03*
D19*
X179692Y83972D03*
X182766Y83972D03*
D20*
X185852Y83972D03*
X194767Y83972D03*
D19*
X197853Y83972D03*
X200927Y83972D03*
X179718Y83998D03*
D17*
X182791Y83998D03*
X185865Y83998D03*
X194755Y83998D03*
D19*
X197828Y83998D03*
X200901Y83998D03*
D20*
X179730Y84023D03*
D17*
X182791Y84023D03*
D19*
X185890Y84023D03*
D17*
X194729Y84023D03*
D20*
X197815Y84023D03*
X200889Y84023D03*
D17*
X179743Y84049D03*
X182817Y84049D03*
D20*
X185903Y84049D03*
X194716Y84049D03*
D17*
X197803Y84049D03*
D19*
X200876Y84049D03*
D20*
X179756Y84074D03*
D18*
X182829Y84074D03*
D19*
X185915Y84074D03*
X194704Y84074D03*
D17*
X197777Y84074D03*
D20*
X200863Y84074D03*
D17*
X179769Y84099D03*
D19*
X182842Y84099D03*
D20*
X185928Y84099D03*
X194691Y84099D03*
D17*
X197777Y84099D03*
X200851Y84099D03*
D20*
X179781Y84125D03*
D19*
X182867Y84125D03*
X185941Y84125D03*
X194678Y84125D03*
X197752Y84125D03*
D20*
X200838Y84125D03*
D19*
X179794Y84150D03*
X182867Y84150D03*
D17*
X185966Y84150D03*
D19*
X194653Y84150D03*
D20*
X197739Y84150D03*
D17*
X200825Y84150D03*
D19*
X179819Y84176D03*
X182893Y84176D03*
D17*
X185966Y84176D03*
D19*
X194653Y84176D03*
X197726Y84176D03*
X200800Y84176D03*
D20*
X179832Y84201D03*
D19*
X182893Y84201D03*
D17*
X185992Y84201D03*
X194628Y84201D03*
D20*
X197714Y84201D03*
X200787Y84201D03*
D19*
X179845Y84226D03*
D17*
X182918Y84226D03*
D20*
X186004Y84226D03*
X194615Y84226D03*
D19*
X197701Y84226D03*
X200774Y84226D03*
D20*
X179857Y84252D03*
D18*
X182931Y84252D03*
D19*
X186017Y84252D03*
D17*
X194602Y84252D03*
X197676Y84252D03*
D20*
X200762Y84252D03*
D17*
X179870Y84277D03*
X182944Y84277D03*
D20*
X186030Y84277D03*
X194589Y84277D03*
D17*
X197676Y84277D03*
D19*
X200749Y84277D03*
D17*
X179896Y84303D03*
D19*
X182969Y84303D03*
X186042Y84303D03*
X194577Y84303D03*
D17*
X197650Y84303D03*
X200724Y84303D03*
X179896Y84328D03*
D19*
X182969Y84328D03*
X186068Y84328D03*
X194551Y84328D03*
D20*
X197637Y84328D03*
D17*
X200724Y84328D03*
D19*
X179921Y84353D03*
X182994Y84353D03*
D20*
X186080Y84353D03*
X194539Y84353D03*
D19*
X197625Y84353D03*
D17*
X200698Y84353D03*
D20*
X179934Y84379D03*
D19*
X182994Y84379D03*
D17*
X186093Y84379D03*
D19*
X194526Y84379D03*
D20*
X197612Y84379D03*
X200685Y84379D03*
D19*
X179946Y84404D03*
X183020Y84404D03*
D20*
X186106Y84404D03*
X194513Y84404D03*
D19*
X197599Y84404D03*
X200673Y84404D03*
D20*
X179959Y84430D03*
D18*
X183032Y84430D03*
D17*
X186119Y84430D03*
X194501Y84430D03*
D19*
X197574Y84430D03*
D20*
X200660Y84430D03*
D19*
X179972Y84455D03*
D17*
X183045Y84455D03*
D20*
X186131Y84455D03*
X194488Y84455D03*
D19*
X197574Y84455D03*
X200647Y84455D03*
D17*
X179997Y84480D03*
X183071Y84480D03*
D19*
X186144Y84480D03*
D17*
X194475Y84480D03*
X197549Y84480D03*
D19*
X200622Y84480D03*
D20*
X180010Y84506D03*
D17*
X183071Y84506D03*
D19*
X186169Y84506D03*
X194450Y84506D03*
D20*
X197536Y84506D03*
X200609Y84506D03*
D17*
X180023Y84531D03*
D19*
X183096Y84531D03*
D20*
X186182Y84531D03*
X194437Y84531D03*
D17*
X197523Y84531D03*
X200597Y84531D03*
D20*
X180035Y84557D03*
D18*
X183109Y84557D03*
D19*
X186195Y84557D03*
X194424Y84557D03*
X197498Y84557D03*
D20*
X200584Y84557D03*
D19*
X180048Y84582D03*
X183121Y84582D03*
D20*
X186207Y84582D03*
X194412Y84582D03*
D19*
X197498Y84582D03*
D17*
X200571Y84582D03*
D20*
X180061Y84607D03*
D19*
X183147Y84607D03*
D17*
X186220Y84607D03*
D19*
X194399Y84607D03*
X197472Y84607D03*
D20*
X200558Y84607D03*
D19*
X180073Y84633D03*
X183147Y84633D03*
D17*
X186246Y84633D03*
X194374Y84633D03*
D20*
X197460Y84633D03*
D19*
X200546Y84633D03*
X180099Y84658D03*
D17*
X183172Y84658D03*
X186246Y84658D03*
X194374Y84658D03*
D19*
X197447Y84658D03*
X200520Y84658D03*
D20*
X180111Y84684D03*
D17*
X183172Y84684D03*
D19*
X186271Y84684D03*
D17*
X194348Y84684D03*
D20*
X197434Y84684D03*
X200508Y84684D03*
D17*
X180124Y84709D03*
X183198Y84709D03*
D20*
X186284Y84709D03*
X194335Y84709D03*
D17*
X197422Y84709D03*
D19*
X200495Y84709D03*
D20*
X180137Y84734D03*
D18*
X183210Y84734D03*
D19*
X186296Y84734D03*
X194323Y84734D03*
D17*
X197396Y84734D03*
D20*
X200482Y84734D03*
D17*
X180150Y84760D03*
D19*
X183223Y84760D03*
D20*
X186309Y84760D03*
X194310Y84760D03*
D17*
X197396Y84760D03*
X200470Y84760D03*
D20*
X180162Y84785D03*
D19*
X183248Y84785D03*
X186322Y84785D03*
X194297Y84785D03*
X197371Y84785D03*
D20*
X200457Y84785D03*
D19*
X180175Y84811D03*
X183248Y84811D03*
D17*
X186347Y84811D03*
D19*
X194272Y84811D03*
D20*
X197358Y84811D03*
D17*
X200444Y84811D03*
D19*
X180200Y84836D03*
X183274Y84836D03*
D20*
X186360Y84836D03*
X194259Y84836D03*
D19*
X197345Y84836D03*
X200419Y84836D03*
D20*
X180213Y84861D03*
D19*
X183274Y84861D03*
D17*
X186373Y84861D03*
X194247Y84861D03*
D20*
X197333Y84861D03*
X200406Y84861D03*
D19*
X180226Y84887D03*
D17*
X183299Y84887D03*
D20*
X186385Y84887D03*
X194234Y84887D03*
D19*
X197320Y84887D03*
X200393Y84887D03*
D20*
X180238Y84912D03*
D18*
X183312Y84912D03*
D19*
X186398Y84912D03*
D17*
X194221Y84912D03*
X197295Y84912D03*
D20*
X200381Y84912D03*
D17*
X180251Y84938D03*
X183325Y84938D03*
D49*
X191846Y84938D03*
D19*
X200368Y84938D03*
D17*
X180277Y84963D03*
D19*
X183350Y84963D03*
D49*
X191846Y84963D03*
D17*
X200343Y84963D03*
X180277Y84988D03*
D19*
X183350Y84988D03*
D31*
X191846Y84988D03*
D17*
X200343Y84988D03*
D19*
X180302Y85014D03*
X183375Y85014D03*
D30*
X191859Y85014D03*
D17*
X200317Y85014D03*
D20*
X180315Y85039D03*
D18*
X183388Y85039D03*
D29*
X191846Y85039D03*
D20*
X200304Y85039D03*
D19*
X180327Y85065D03*
X183401Y85065D03*
D28*
X191859Y85065D03*
D19*
X200292Y85065D03*
D20*
X180340Y85090D03*
D18*
X183413Y85090D03*
D27*
X191846Y85090D03*
D20*
X200279Y85090D03*
D19*
X180353Y85115D03*
D17*
X183426Y85115D03*
D35*
X191846Y85115D03*
D19*
X200266Y85115D03*
D17*
X180378Y85141D03*
X183452Y85141D03*
D35*
X191846Y85141D03*
D19*
X200241Y85141D03*
D20*
X180391Y85166D03*
D17*
X183452Y85166D03*
D24*
X191846Y85166D03*
D20*
X200228Y85166D03*
D17*
X180404Y85192D03*
D19*
X183477Y85192D03*
D20*
X186563Y85192D03*
D17*
X200216Y85192D03*
D20*
X180416Y85217D03*
D18*
X183490Y85217D03*
D19*
X186576Y85217D03*
D20*
X200203Y85217D03*
D19*
X180429Y85242D03*
X183502Y85242D03*
D20*
X186588Y85242D03*
D17*
X200190Y85242D03*
D20*
X180442Y85268D03*
D18*
X183515Y85268D03*
D17*
X186601Y85268D03*
D20*
X200177Y85268D03*
D19*
X180454Y85293D03*
X183528Y85293D03*
D17*
X186627Y85293D03*
D19*
X200165Y85293D03*
X180480Y85319D03*
D17*
X183553Y85319D03*
X186627Y85319D03*
D19*
X200139Y85319D03*
D20*
X180492Y85344D03*
D17*
X183553Y85344D03*
D19*
X186652Y85344D03*
D20*
X200127Y85344D03*
D17*
X180505Y85369D03*
X183579Y85369D03*
D20*
X186665Y85369D03*
D19*
X200114Y85369D03*
D20*
X180518Y85395D03*
D18*
X183591Y85395D03*
D19*
X186677Y85395D03*
D20*
X200101Y85395D03*
D17*
X180531Y85420D03*
D19*
X183604Y85420D03*
D20*
X186690Y85420D03*
D17*
X200089Y85420D03*
D19*
X180556Y85446D03*
D18*
X183617Y85446D03*
D19*
X186703Y85446D03*
D17*
X200063Y85446D03*
D19*
X180556Y85471D03*
X183629Y85471D03*
D17*
X186728Y85471D03*
X200063Y85471D03*
D19*
X180581Y85496D03*
X183655Y85496D03*
D20*
X186741Y85496D03*
D19*
X200038Y85496D03*
D20*
X180594Y85522D03*
D19*
X183655Y85522D03*
D17*
X186754Y85522D03*
D20*
X200025Y85522D03*
D19*
X180607Y85547D03*
D17*
X183680Y85547D03*
D20*
X186766Y85547D03*
D19*
X200012Y85547D03*
D20*
X180619Y85573D03*
D18*
X183693Y85573D03*
D19*
X186779Y85573D03*
D20*
X200000Y85573D03*
D17*
X180632Y85598D03*
X183706Y85598D03*
D20*
X186792Y85598D03*
D19*
X199987Y85598D03*
D17*
X180658Y85623D03*
D18*
X183718Y85623D03*
D19*
X186804Y85623D03*
D17*
X199962Y85623D03*
D20*
X180670Y85649D03*
D19*
X183731Y85649D03*
X186830Y85649D03*
D20*
X199949Y85649D03*
D19*
X180683Y85674D03*
X183756Y85674D03*
D20*
X186842Y85674D03*
D17*
X199936Y85674D03*
D20*
X180696Y85700D03*
D18*
X183769Y85700D03*
D17*
X186855Y85700D03*
D20*
X199923Y85700D03*
D19*
X180708Y85725D03*
X183782Y85725D03*
D20*
X186868Y85725D03*
D19*
X199911Y85725D03*
D20*
X180721Y85750D03*
D18*
X183794Y85750D03*
D17*
X186881Y85750D03*
D20*
X199898Y85750D03*
D19*
X180734Y85776D03*
D17*
X183807Y85776D03*
D20*
X186893Y85776D03*
D19*
X199885Y85776D03*
D17*
X180759Y85801D03*
D18*
X183820Y85801D03*
D19*
X186906Y85801D03*
X199860Y85801D03*
D20*
X180772Y85827D03*
D17*
X183833Y85827D03*
D19*
X186931Y85827D03*
D20*
X199847Y85827D03*
D17*
X180785Y85852D03*
D19*
X183858Y85852D03*
D20*
X186944Y85852D03*
D17*
X199835Y85852D03*
D20*
X180797Y85877D03*
D18*
X183871Y85877D03*
D19*
X186957Y85877D03*
D20*
X199822Y85877D03*
D19*
X180810Y85903D03*
X183883Y85903D03*
D20*
X186969Y85903D03*
D17*
X199809Y85903D03*
D20*
X180823Y85928D03*
D18*
X183896Y85928D03*
D17*
X186982Y85928D03*
D20*
X199796Y85928D03*
D19*
X180835Y85954D03*
X183909Y85954D03*
D17*
X187008Y85954D03*
D19*
X199784Y85954D03*
X180861Y85979D03*
D18*
X183921Y85979D03*
D17*
X187008Y85979D03*
D19*
X199758Y85979D03*
D20*
X180873Y86004D03*
D17*
X183934Y86004D03*
D19*
X187033Y86004D03*
D20*
X199746Y86004D03*
D17*
X180886Y86030D03*
X183960Y86030D03*
D20*
X187046Y86030D03*
D19*
X199733Y86030D03*
D20*
X180899Y86055D03*
D18*
X183972Y86055D03*
D19*
X187058Y86055D03*
D20*
X199720Y86055D03*
D17*
X180912Y86081D03*
D19*
X183985Y86081D03*
D20*
X187071Y86081D03*
D17*
X199708Y86081D03*
D19*
X180937Y86106D03*
D18*
X183998Y86106D03*
D19*
X187084Y86106D03*
D17*
X199682Y86106D03*
D19*
X180937Y86131D03*
X184010Y86131D03*
D17*
X187109Y86131D03*
X199682Y86131D03*
D19*
X180962Y86157D03*
D18*
X184023Y86157D03*
D20*
X187122Y86157D03*
D19*
X199657Y86157D03*
D20*
X180975Y86182D03*
D19*
X184036Y86182D03*
D17*
X187135Y86182D03*
D20*
X199644Y86182D03*
D19*
X180988Y86208D03*
D17*
X184061Y86208D03*
D20*
X187147Y86208D03*
D19*
X199631Y86208D03*
D20*
X181000Y86233D03*
D18*
X184074Y86233D03*
D19*
X187160Y86233D03*
D20*
X199619Y86233D03*
D17*
X181013Y86258D03*
X184087Y86258D03*
D20*
X187173Y86258D03*
D19*
X199606Y86258D03*
D17*
X181039Y86284D03*
D18*
X184099Y86284D03*
D19*
X187185Y86284D03*
D17*
X199581Y86284D03*
D20*
X181051Y86309D03*
D19*
X184112Y86309D03*
X187211Y86309D03*
D20*
X199568Y86309D03*
D19*
X181064Y86335D03*
D18*
X184125Y86335D03*
D20*
X187223Y86335D03*
D17*
X199555Y86335D03*
D20*
X181077Y86360D03*
D18*
X184150Y86360D03*
D17*
X187236Y86360D03*
D20*
X199542Y86360D03*
D19*
X181089Y86385D03*
X184163Y86385D03*
D20*
X187249Y86385D03*
D19*
X199530Y86385D03*
D20*
X181102Y86411D03*
D18*
X184175Y86411D03*
D17*
X187262Y86411D03*
D20*
X199517Y86411D03*
D19*
X181115Y86436D03*
D17*
X184188Y86436D03*
D19*
X187287Y86436D03*
X199504Y86436D03*
D17*
X181140Y86462D03*
D18*
X184201Y86462D03*
D19*
X187287Y86462D03*
X199479Y86462D03*
D20*
X181153Y86487D03*
D17*
X184214Y86487D03*
D19*
X187312Y86487D03*
D20*
X199466Y86487D03*
D17*
X181166Y86512D03*
D19*
X184239Y86512D03*
D20*
X187325Y86512D03*
D17*
X199454Y86512D03*
D20*
X181178Y86538D03*
D18*
X184252Y86538D03*
D19*
X187338Y86538D03*
D20*
X199441Y86538D03*
D19*
X181191Y86563D03*
X184264Y86563D03*
D20*
X187350Y86563D03*
D17*
X199428Y86563D03*
D20*
X181204Y86589D03*
D18*
X184277Y86589D03*
D17*
X187363Y86589D03*
D20*
X199415Y86589D03*
D19*
X181216Y86614D03*
X184290Y86614D03*
D17*
X187389Y86614D03*
D19*
X199403Y86614D03*
X181242Y86639D03*
D18*
X184302Y86639D03*
D17*
X187389Y86639D03*
D19*
X199377Y86639D03*
D20*
X181254Y86665D03*
D17*
X184315Y86665D03*
D19*
X187414Y86665D03*
D20*
X199365Y86665D03*
D17*
X181267Y86690D03*
X184341Y86690D03*
D20*
X187427Y86690D03*
D19*
X199352Y86690D03*
D20*
X181280Y86716D03*
D18*
X184353Y86716D03*
D19*
X187439Y86716D03*
D20*
X199339Y86716D03*
D17*
X181293Y86741D03*
D19*
X184366Y86741D03*
D20*
X187452Y86741D03*
D17*
X199327Y86741D03*
D19*
X181318Y86766D03*
D18*
X184379Y86766D03*
D19*
X187465Y86766D03*
D17*
X199301Y86766D03*
D19*
X181318Y86792D03*
X184391Y86792D03*
D17*
X187490Y86792D03*
X199301Y86792D03*
D19*
X181343Y86817D03*
D18*
X184404Y86817D03*
D20*
X187503Y86817D03*
D19*
X199276Y86817D03*
D20*
X181356Y86843D03*
D18*
X184429Y86843D03*
D17*
X187516Y86843D03*
D20*
X199263Y86843D03*
D19*
X181369Y86868D03*
D17*
X184442Y86868D03*
D20*
X187528Y86868D03*
D19*
X199250Y86868D03*
D20*
X181381Y86893D03*
D18*
X184455Y86893D03*
D19*
X187541Y86893D03*
D20*
X199238Y86893D03*
D17*
X181394Y86919D03*
X184468Y86919D03*
D20*
X187554Y86919D03*
D19*
X199225Y86919D03*
D17*
X181420Y86944D03*
D18*
X184480Y86944D03*
D19*
X187566Y86944D03*
D17*
X199200Y86944D03*
D20*
X181432Y86970D03*
D19*
X184493Y86970D03*
X187592Y86970D03*
D20*
X199187Y86970D03*
D19*
X181445Y86995D03*
D18*
X184506Y86995D03*
D20*
X187604Y86995D03*
D17*
X199174Y86995D03*
D20*
X181458Y87020D03*
D18*
X184531Y87020D03*
D17*
X187617Y87020D03*
D20*
X199161Y87020D03*
D19*
X181470Y87046D03*
X184544Y87046D03*
D20*
X187630Y87046D03*
D19*
X199149Y87046D03*
D20*
X181483Y87071D03*
D18*
X184556Y87071D03*
D17*
X187643Y87071D03*
D20*
X199136Y87071D03*
D19*
X181496Y87097D03*
D17*
X184569Y87097D03*
D19*
X187668Y87097D03*
X199123Y87097D03*
D17*
X181521Y87122D03*
D18*
X184582Y87122D03*
D19*
X187668Y87122D03*
X199098Y87122D03*
D20*
X181534Y87147D03*
D17*
X184595Y87147D03*
D19*
X187693Y87147D03*
D20*
X199085Y87147D03*
D17*
X181547Y87173D03*
D18*
X184607Y87173D03*
D20*
X187706Y87173D03*
D17*
X199073Y87173D03*
D20*
X181559Y87198D03*
D18*
X184633Y87198D03*
D19*
X187719Y87198D03*
D20*
X199060Y87198D03*
D19*
X181572Y87224D03*
X184645Y87224D03*
D20*
X187731Y87224D03*
D17*
X199047Y87224D03*
D19*
X181597Y87249D03*
D18*
X184658Y87249D03*
D17*
X187744Y87249D03*
D20*
X199034Y87249D03*
D19*
X181597Y87274D03*
X184671Y87274D03*
D17*
X187770Y87274D03*
D19*
X199022Y87274D03*
X181623Y87300D03*
D18*
X184683Y87300D03*
D20*
X187782Y87300D03*
D19*
X198996Y87300D03*
D20*
X181635Y87325D03*
D17*
X184696Y87325D03*
D19*
X187795Y87325D03*
D20*
X198984Y87325D03*
D17*
X181648Y87351D03*
D18*
X184709Y87351D03*
D20*
X187808Y87351D03*
D19*
X198971Y87351D03*
D20*
X181661Y87376D03*
D18*
X184734Y87376D03*
D19*
X187820Y87376D03*
D20*
X198958Y87376D03*
D17*
X181674Y87401D03*
D19*
X184747Y87401D03*
D20*
X187833Y87401D03*
D17*
X198946Y87401D03*
D19*
X181699Y87427D03*
D18*
X184760Y87427D03*
D19*
X187846Y87427D03*
D17*
X198920Y87427D03*
D19*
X181699Y87452D03*
X184772Y87452D03*
D17*
X187871Y87452D03*
X198920Y87452D03*
D19*
X181724Y87478D03*
D18*
X184785Y87478D03*
D20*
X187884Y87478D03*
D19*
X198895Y87478D03*
D20*
X181737Y87503D03*
D18*
X184810Y87503D03*
D17*
X187897Y87503D03*
D20*
X198882Y87503D03*
D19*
X181750Y87528D03*
D18*
X184810Y87528D03*
D20*
X187909Y87528D03*
D19*
X198869Y87528D03*
D20*
X181762Y87554D03*
D18*
X184836Y87554D03*
D19*
X187922Y87554D03*
D20*
X198857Y87554D03*
D17*
X181775Y87579D03*
X184849Y87579D03*
D20*
X187935Y87579D03*
D19*
X198844Y87579D03*
D17*
X181801Y87605D03*
D18*
X184861Y87605D03*
D33*
X193383Y87605D03*
D20*
X181813Y87630D03*
D19*
X184874Y87630D03*
D32*
X193383Y87630D03*
D19*
X181826Y87655D03*
D18*
X184887Y87655D03*
D50*
X193396Y87655D03*
D20*
X181839Y87681D03*
D18*
X184912Y87681D03*
D30*
X193383Y87681D03*
D19*
X181851Y87706D03*
D18*
X184912Y87706D03*
D29*
X193396Y87706D03*
D20*
X181864Y87732D03*
D18*
X184937Y87732D03*
D28*
X193383Y87732D03*
D19*
X181877Y87757D03*
D17*
X184950Y87757D03*
D27*
X193396Y87757D03*
D17*
X181902Y87782D03*
D18*
X184963Y87782D03*
D51*
X193383Y87782D03*
D20*
X181915Y87808D03*
D17*
X184976Y87808D03*
D25*
X193383Y87808D03*
D17*
X181928Y87833D03*
D18*
X184988Y87833D03*
D24*
X193396Y87833D03*
D20*
X181940Y87859D03*
D18*
X185014Y87859D03*
D52*
X194666Y87859D03*
D19*
X181953Y87884D03*
D18*
X185014Y87884D03*
D17*
X198666Y87884D03*
D19*
X181978Y87909D03*
D18*
X185039Y87909D03*
D19*
X198641Y87909D03*
X181978Y87935D03*
X185052Y87935D03*
X198641Y87935D03*
X182004Y87960D03*
D18*
X185064Y87960D03*
D19*
X198615Y87960D03*
D20*
X182016Y87986D03*
D17*
X185077Y87986D03*
D20*
X198603Y87986D03*
D17*
X182029Y88011D03*
D18*
X185090Y88011D03*
D19*
X198590Y88011D03*
D20*
X182042Y88036D03*
D18*
X185115Y88036D03*
D20*
X198577Y88036D03*
D17*
X182055Y88062D03*
D18*
X185115Y88062D03*
D17*
X198565Y88062D03*
D19*
X182080Y88087D03*
D18*
X185141Y88087D03*
D17*
X198539Y88087D03*
D20*
X182093Y88113D03*
D19*
X185153Y88113D03*
D20*
X198526Y88113D03*
D19*
X182105Y88138D03*
D18*
X185166Y88138D03*
D19*
X198514Y88138D03*
D20*
X182118Y88163D03*
D18*
X185191Y88163D03*
D20*
X198501Y88163D03*
D19*
X182131Y88189D03*
D18*
X185191Y88189D03*
D19*
X198488Y88189D03*
D20*
X182143Y88214D03*
D18*
X185217Y88214D03*
D20*
X198476Y88214D03*
D17*
X182156Y88240D03*
D18*
X185217Y88240D03*
D19*
X198463Y88240D03*
D17*
X182182Y88265D03*
D18*
X185242Y88265D03*
D17*
X198438Y88265D03*
D20*
X182194Y88290D03*
D19*
X185255Y88290D03*
D20*
X198425Y88290D03*
D19*
X182207Y88316D03*
D18*
X185268Y88316D03*
D17*
X198412Y88316D03*
D20*
X182220Y88341D03*
D18*
X185293Y88341D03*
D20*
X198399Y88341D03*
D19*
X182232Y88367D03*
D18*
X185293Y88367D03*
D19*
X198387Y88367D03*
D20*
X182245Y88392D03*
D18*
X185318Y88392D03*
D20*
X198374Y88392D03*
D19*
X182258Y88417D03*
D18*
X185318Y88417D03*
D19*
X198361Y88417D03*
D17*
X182283Y88443D03*
D18*
X185344Y88443D03*
D19*
X198336Y88443D03*
D20*
X182296Y88468D03*
D17*
X185357Y88468D03*
D20*
X198323Y88468D03*
D17*
X182309Y88494D03*
D18*
X185369Y88494D03*
D17*
X198311Y88494D03*
D20*
X182321Y88519D03*
D18*
X185395Y88519D03*
D20*
X198298Y88519D03*
D19*
X182334Y88544D03*
D18*
X185395Y88544D03*
D17*
X198285Y88544D03*
D19*
X182359Y88570D03*
D18*
X185420Y88570D03*
D19*
X198260Y88570D03*
X182359Y88595D03*
X185433Y88595D03*
X198260Y88595D03*
X182385Y88621D03*
D18*
X185445Y88621D03*
D19*
X198234Y88621D03*
D20*
X182397Y88646D03*
D17*
X185458Y88646D03*
D20*
X198222Y88646D03*
D17*
X182410Y88671D03*
D18*
X185471Y88671D03*
D19*
X198209Y88671D03*
D20*
X182423Y88697D03*
D18*
X185496Y88697D03*
D20*
X198196Y88697D03*
D17*
X182436Y88722D03*
D18*
X185496Y88722D03*
D17*
X198184Y88722D03*
D19*
X182461Y88748D03*
D18*
X185522Y88748D03*
D17*
X198158Y88748D03*
D20*
X182474Y88773D03*
D19*
X185534Y88773D03*
D20*
X198145Y88773D03*
D19*
X182486Y88798D03*
D18*
X185547Y88798D03*
D19*
X198133Y88798D03*
D20*
X182499Y88824D03*
D18*
X185572Y88824D03*
D20*
X198120Y88824D03*
D19*
X182512Y88849D03*
D18*
X185572Y88849D03*
D19*
X198107Y88849D03*
D20*
X182524Y88875D03*
D18*
X185598Y88875D03*
D20*
X198095Y88875D03*
D17*
X182537Y88900D03*
D18*
X185598Y88900D03*
D19*
X198082Y88900D03*
D17*
X182563Y88925D03*
D18*
X185623Y88925D03*
D17*
X198057Y88925D03*
D20*
X182575Y88951D03*
D19*
X185636Y88951D03*
D20*
X198044Y88951D03*
D19*
X182588Y88976D03*
D18*
X185649Y88976D03*
D17*
X198031Y88976D03*
D20*
X182601Y89002D03*
D18*
X185674Y89002D03*
D20*
X198018Y89002D03*
D19*
X182613Y89027D03*
D18*
X185674Y89027D03*
D19*
X198006Y89027D03*
D20*
X182626Y89052D03*
D18*
X185699Y89052D03*
D20*
X197993Y89052D03*
D19*
X182639Y89078D03*
D18*
X185699Y89078D03*
D19*
X197980Y89078D03*
D17*
X182664Y89103D03*
D18*
X185725Y89103D03*
D19*
X197955Y89103D03*
D20*
X182677Y89129D03*
D17*
X185738Y89129D03*
D20*
X197942Y89129D03*
D17*
X182690Y89154D03*
D18*
X185750Y89154D03*
D17*
X197930Y89154D03*
D20*
X182702Y89179D03*
D18*
X185776Y89179D03*
D20*
X197917Y89179D03*
D19*
X182715Y89205D03*
D18*
X185776Y89205D03*
D17*
X197904Y89205D03*
D19*
X182740Y89230D03*
D18*
X185801Y89230D03*
D19*
X197879Y89230D03*
X182740Y89256D03*
D18*
X185801Y89256D03*
D19*
X197879Y89256D03*
X182766Y89281D03*
D18*
X185826Y89281D03*
D19*
X197853Y89281D03*
D20*
X182778Y89306D03*
D18*
X185852Y89306D03*
D20*
X197841Y89306D03*
D17*
X182791Y89332D03*
D18*
X185852Y89332D03*
D19*
X197828Y89332D03*
D20*
X182804Y89357D03*
D18*
X185877Y89357D03*
D20*
X197815Y89357D03*
D17*
X182817Y89383D03*
D18*
X185877Y89383D03*
D17*
X197803Y89383D03*
D19*
X182842Y89408D03*
D18*
X185903Y89408D03*
D17*
X197777Y89408D03*
D20*
X182855Y89433D03*
D18*
X185903Y89433D03*
D20*
X197764Y89433D03*
D19*
X182867Y89459D03*
D18*
X185928Y89459D03*
D19*
X197752Y89459D03*
D20*
X182880Y89484D03*
D18*
X185953Y89484D03*
D20*
X197739Y89484D03*
D19*
X182893Y89510D03*
D18*
X185953Y89510D03*
D19*
X197726Y89510D03*
D20*
X182905Y89535D03*
D18*
X185979Y89535D03*
D20*
X197714Y89535D03*
D17*
X182918Y89560D03*
D18*
X185979Y89560D03*
D19*
X197701Y89560D03*
D17*
X182944Y89586D03*
D18*
X186004Y89586D03*
D17*
X197676Y89586D03*
D20*
X182956Y89611D03*
D18*
X186004Y89611D03*
D20*
X197663Y89611D03*
D19*
X182969Y89637D03*
D18*
X186030Y89637D03*
D17*
X197650Y89637D03*
D20*
X182982Y89662D03*
D18*
X186055Y89662D03*
D20*
X197637Y89662D03*
D19*
X182994Y89687D03*
D18*
X186055Y89687D03*
D19*
X197625Y89687D03*
X183020Y89713D03*
D18*
X186080Y89713D03*
D19*
X197599Y89713D03*
X183020Y89738D03*
D18*
X186080Y89738D03*
D19*
X197599Y89738D03*
D17*
X183045Y89764D03*
D18*
X186106Y89764D03*
D19*
X197574Y89764D03*
D20*
X183058Y89789D03*
D18*
X186106Y89789D03*
D20*
X197561Y89789D03*
D17*
X183071Y89814D03*
D18*
X186131Y89814D03*
D17*
X197549Y89814D03*
D20*
X183083Y89840D03*
D18*
X186157Y89840D03*
D20*
X197536Y89840D03*
D19*
X183096Y89865D03*
D18*
X186157Y89865D03*
D17*
X197523Y89865D03*
D19*
X183121Y89891D03*
D18*
X186182Y89891D03*
D19*
X197498Y89891D03*
X183121Y89916D03*
D18*
X186182Y89916D03*
D19*
X197498Y89916D03*
X183147Y89941D03*
D18*
X186207Y89941D03*
D19*
X197472Y89941D03*
D20*
X183159Y89967D03*
D22*
X186220Y89967D03*
D20*
X197460Y89967D03*
D17*
X183172Y89992D03*
D18*
X186233Y89992D03*
D19*
X197447Y89992D03*
D20*
X183185Y90018D03*
D18*
X186258Y90018D03*
D20*
X197434Y90018D03*
D17*
X183198Y90043D03*
D18*
X186258Y90043D03*
D17*
X197422Y90043D03*
D19*
X183223Y90068D03*
D18*
X186284Y90068D03*
D17*
X197396Y90068D03*
D20*
X183236Y90094D03*
D18*
X186284Y90094D03*
D20*
X197383Y90094D03*
D19*
X183248Y90119D03*
D18*
X186309Y90119D03*
D19*
X197371Y90119D03*
D20*
X183261Y90145D03*
D22*
X186322Y90145D03*
D20*
X197358Y90145D03*
D19*
X183274Y90170D03*
D18*
X186334Y90170D03*
D19*
X197345Y90170D03*
D20*
X183286Y90195D03*
D18*
X186360Y90195D03*
D20*
X197333Y90195D03*
D17*
X183299Y90221D03*
D18*
X186360Y90221D03*
D19*
X197320Y90221D03*
D17*
X183325Y90246D03*
D18*
X186385Y90246D03*
D17*
X197295Y90246D03*
D16*
X190310Y90272D03*
X190310Y90297D03*
D15*
X190310Y90322D03*
X190310Y90348D03*
D14*
X190310Y90373D03*
X190310Y90399D03*
D13*
X190310Y90424D03*
D12*
X190310Y90449D03*
X190310Y90475D03*
D11*
X190310Y90500D03*
D53*
X14483Y22327D02*
X6795Y32346D01*
X8253Y33465D01*
X29364Y49664D02*
X37052Y39645D01*
X29364Y49664D02*
X27906Y48545D01*
X31325Y28218D02*
X27090Y24968D01*
X182912Y39645D02*
X190600Y49664D01*
X192058Y48545D01*
X213169Y32346D02*
X205481Y22327D01*
X213169Y32346D02*
X211711Y33465D01*
X192961Y24901D02*
X188726Y28151D01*
D54*
X73914Y54864D03*
D55*
X64111Y44577D02*
X61501Y42488D01*
X64111Y44577D02*
X64111Y35179D01*
X61501Y35179D02*
X66722Y35179D01*
X70644Y39878D02*
X70646Y40063D01*
X70653Y40248D01*
X70664Y40432D01*
X70679Y40616D01*
X70699Y40800D01*
X70723Y40984D01*
X70752Y41166D01*
X70785Y41348D01*
X70822Y41529D01*
X70864Y41709D01*
X70910Y41889D01*
X70960Y42067D01*
X71014Y42243D01*
X71073Y42419D01*
X71135Y42593D01*
X71202Y42765D01*
X71273Y42936D01*
X71348Y43105D01*
X71427Y43272D01*
X71457Y43352D01*
X71490Y43431D01*
X71527Y43508D01*
X71567Y43584D01*
X71610Y43658D01*
X71656Y43730D01*
X71706Y43799D01*
X71758Y43867D01*
X71814Y43932D01*
X71872Y43995D01*
X71934Y44054D01*
X71997Y44112D01*
X72064Y44166D01*
X72132Y44217D01*
X72203Y44265D01*
X72276Y44310D01*
X72350Y44352D01*
X72427Y44390D01*
X72505Y44425D01*
X72584Y44457D01*
X72665Y44485D01*
X72747Y44509D01*
X72831Y44530D01*
X72914Y44547D01*
X72999Y44560D01*
X73084Y44569D01*
X73169Y44575D01*
X73255Y44577D01*
X73341Y44575D01*
X73426Y44569D01*
X73511Y44560D01*
X73596Y44547D01*
X73679Y44530D01*
X73763Y44509D01*
X73845Y44485D01*
X73926Y44457D01*
X74005Y44425D01*
X74083Y44390D01*
X74160Y44352D01*
X74234Y44310D01*
X74307Y44265D01*
X74378Y44217D01*
X74446Y44166D01*
X74513Y44112D01*
X74576Y44054D01*
X74638Y43995D01*
X74696Y43932D01*
X74752Y43867D01*
X74804Y43799D01*
X74854Y43730D01*
X74900Y43658D01*
X74943Y43584D01*
X74983Y43508D01*
X75020Y43431D01*
X75053Y43352D01*
X75083Y43272D01*
X75162Y43105D01*
X75237Y42936D01*
X75308Y42765D01*
X75375Y42593D01*
X75437Y42419D01*
X75496Y42243D01*
X75550Y42067D01*
X75600Y41889D01*
X75646Y41709D01*
X75688Y41529D01*
X75725Y41348D01*
X75758Y41166D01*
X75787Y40984D01*
X75811Y40800D01*
X75831Y40616D01*
X75846Y40432D01*
X75857Y40248D01*
X75864Y40063D01*
X75866Y39878D01*
X70644Y39878D02*
X70646Y39693D01*
X70653Y39508D01*
X70664Y39324D01*
X70679Y39140D01*
X70699Y38956D01*
X70723Y38772D01*
X70752Y38590D01*
X70785Y38408D01*
X70822Y38227D01*
X70864Y38047D01*
X70910Y37867D01*
X70960Y37689D01*
X71014Y37513D01*
X71073Y37337D01*
X71135Y37163D01*
X71202Y36991D01*
X71273Y36820D01*
X71348Y36651D01*
X71427Y36484D01*
X71457Y36404D01*
X71490Y36325D01*
X71527Y36248D01*
X71567Y36172D01*
X71610Y36098D01*
X71656Y36026D01*
X71706Y35957D01*
X71759Y35889D01*
X71814Y35824D01*
X71873Y35761D01*
X71934Y35702D01*
X71997Y35644D01*
X72064Y35590D01*
X72132Y35539D01*
X72203Y35491D01*
X72276Y35446D01*
X72350Y35404D01*
X72427Y35366D01*
X72505Y35331D01*
X72584Y35299D01*
X72665Y35271D01*
X72747Y35247D01*
X72831Y35226D01*
X72914Y35209D01*
X72999Y35196D01*
X73084Y35187D01*
X73169Y35181D01*
X73255Y35179D01*
X75083Y36484D02*
X75162Y36651D01*
X75237Y36820D01*
X75308Y36991D01*
X75375Y37163D01*
X75437Y37337D01*
X75496Y37513D01*
X75550Y37689D01*
X75600Y37867D01*
X75646Y38047D01*
X75688Y38227D01*
X75725Y38408D01*
X75758Y38590D01*
X75787Y38772D01*
X75811Y38956D01*
X75831Y39140D01*
X75846Y39324D01*
X75857Y39508D01*
X75864Y39693D01*
X75866Y39878D01*
X75083Y36484D02*
X75053Y36404D01*
X75020Y36325D01*
X74983Y36248D01*
X74943Y36172D01*
X74900Y36098D01*
X74854Y36026D01*
X74804Y35957D01*
X74752Y35889D01*
X74696Y35824D01*
X74638Y35761D01*
X74576Y35702D01*
X74513Y35644D01*
X74446Y35590D01*
X74378Y35539D01*
X74307Y35491D01*
X74234Y35446D01*
X74160Y35404D01*
X74083Y35366D01*
X74005Y35331D01*
X73926Y35299D01*
X73845Y35271D01*
X73763Y35247D01*
X73679Y35226D01*
X73596Y35209D01*
X73511Y35196D01*
X73426Y35187D01*
X73341Y35181D01*
X73255Y35179D01*
X71167Y37267D02*
X75344Y42488D01*
X80225Y44577D02*
X80225Y35179D01*
X80225Y38834D02*
X85446Y44577D01*
X82313Y40922D02*
X85446Y35179D01*
D54*
X145796Y54102D03*
D55*
X135460Y43967D02*
X132849Y41879D01*
X135460Y43967D02*
X135460Y34569D01*
X138070Y34569D02*
X132849Y34569D01*
X141993Y39268D02*
X141995Y39453D01*
X142002Y39638D01*
X142013Y39822D01*
X142028Y40006D01*
X142048Y40190D01*
X142072Y40374D01*
X142101Y40556D01*
X142134Y40738D01*
X142171Y40919D01*
X142213Y41099D01*
X142259Y41279D01*
X142309Y41457D01*
X142363Y41633D01*
X142422Y41809D01*
X142484Y41983D01*
X142551Y42155D01*
X142622Y42326D01*
X142697Y42495D01*
X142776Y42662D01*
X142776Y42663D02*
X142806Y42743D01*
X142839Y42822D01*
X142876Y42899D01*
X142916Y42975D01*
X142959Y43049D01*
X143005Y43121D01*
X143055Y43190D01*
X143107Y43258D01*
X143163Y43323D01*
X143221Y43386D01*
X143283Y43445D01*
X143346Y43503D01*
X143413Y43557D01*
X143481Y43608D01*
X143552Y43656D01*
X143625Y43701D01*
X143699Y43743D01*
X143776Y43781D01*
X143854Y43816D01*
X143933Y43848D01*
X144014Y43876D01*
X144096Y43900D01*
X144180Y43921D01*
X144263Y43938D01*
X144348Y43951D01*
X144433Y43960D01*
X144518Y43966D01*
X144604Y43968D01*
X144690Y43966D01*
X144775Y43960D01*
X144860Y43951D01*
X144945Y43938D01*
X145028Y43921D01*
X145112Y43900D01*
X145194Y43876D01*
X145275Y43848D01*
X145354Y43816D01*
X145432Y43781D01*
X145509Y43743D01*
X145583Y43701D01*
X145656Y43656D01*
X145727Y43608D01*
X145795Y43557D01*
X145862Y43503D01*
X145925Y43445D01*
X145987Y43386D01*
X146045Y43323D01*
X146101Y43258D01*
X146153Y43190D01*
X146203Y43121D01*
X146249Y43049D01*
X146292Y42975D01*
X146332Y42899D01*
X146369Y42822D01*
X146402Y42743D01*
X146432Y42663D01*
X146432Y42662D02*
X146511Y42495D01*
X146586Y42326D01*
X146657Y42155D01*
X146724Y41983D01*
X146786Y41809D01*
X146845Y41633D01*
X146899Y41457D01*
X146949Y41279D01*
X146995Y41099D01*
X147037Y40919D01*
X147074Y40738D01*
X147107Y40556D01*
X147136Y40374D01*
X147160Y40190D01*
X147180Y40006D01*
X147195Y39822D01*
X147206Y39638D01*
X147213Y39453D01*
X147215Y39268D01*
X141993Y39268D02*
X141995Y39083D01*
X142002Y38898D01*
X142013Y38714D01*
X142028Y38530D01*
X142048Y38346D01*
X142072Y38162D01*
X142101Y37980D01*
X142134Y37798D01*
X142171Y37617D01*
X142213Y37437D01*
X142259Y37257D01*
X142309Y37079D01*
X142363Y36903D01*
X142422Y36727D01*
X142484Y36553D01*
X142551Y36381D01*
X142622Y36210D01*
X142697Y36041D01*
X142776Y35874D01*
X142806Y35794D01*
X142839Y35715D01*
X142876Y35638D01*
X142916Y35562D01*
X142959Y35488D01*
X143005Y35416D01*
X143055Y35347D01*
X143108Y35279D01*
X143163Y35214D01*
X143222Y35151D01*
X143283Y35092D01*
X143346Y35034D01*
X143413Y34980D01*
X143481Y34929D01*
X143552Y34881D01*
X143625Y34836D01*
X143699Y34794D01*
X143776Y34756D01*
X143854Y34721D01*
X143933Y34689D01*
X144014Y34661D01*
X144096Y34637D01*
X144180Y34616D01*
X144263Y34599D01*
X144348Y34586D01*
X144433Y34577D01*
X144518Y34571D01*
X144604Y34569D01*
X146431Y35874D02*
X146510Y36041D01*
X146585Y36210D01*
X146656Y36381D01*
X146723Y36553D01*
X146785Y36727D01*
X146844Y36903D01*
X146898Y37079D01*
X146948Y37257D01*
X146994Y37437D01*
X147036Y37617D01*
X147073Y37798D01*
X147106Y37980D01*
X147135Y38162D01*
X147159Y38346D01*
X147179Y38530D01*
X147194Y38714D01*
X147205Y38898D01*
X147212Y39083D01*
X147214Y39268D01*
X146432Y35874D02*
X146402Y35794D01*
X146369Y35715D01*
X146332Y35638D01*
X146292Y35562D01*
X146249Y35488D01*
X146203Y35416D01*
X146153Y35347D01*
X146101Y35279D01*
X146045Y35214D01*
X145987Y35151D01*
X145925Y35092D01*
X145862Y35034D01*
X145795Y34980D01*
X145727Y34929D01*
X145656Y34881D01*
X145583Y34836D01*
X145509Y34794D01*
X145432Y34756D01*
X145354Y34721D01*
X145275Y34689D01*
X145194Y34661D01*
X145112Y34637D01*
X145028Y34616D01*
X144945Y34599D01*
X144860Y34586D01*
X144775Y34577D01*
X144690Y34571D01*
X144604Y34569D01*
X142515Y36658D02*
X146692Y41879D01*
X151573Y43967D02*
X151573Y34569D01*
X151573Y38224D02*
X156794Y43967D01*
X153662Y40313D02*
X156794Y34569D01*
D56*
X108966Y109703D02*
X108966Y110261D01*
D55*
X128117Y110134D02*
X128119Y110319D01*
X128126Y110504D01*
X128137Y110688D01*
X128152Y110872D01*
X128172Y111056D01*
X128196Y111240D01*
X128225Y111422D01*
X128258Y111604D01*
X128295Y111785D01*
X128337Y111965D01*
X128383Y112145D01*
X128433Y112323D01*
X128487Y112499D01*
X128546Y112675D01*
X128608Y112849D01*
X128675Y113021D01*
X128746Y113192D01*
X128821Y113361D01*
X128900Y113528D01*
X128900Y113529D02*
X128930Y113609D01*
X128963Y113688D01*
X129000Y113765D01*
X129040Y113841D01*
X129083Y113915D01*
X129129Y113987D01*
X129179Y114056D01*
X129231Y114124D01*
X129287Y114189D01*
X129345Y114252D01*
X129407Y114311D01*
X129470Y114369D01*
X129537Y114423D01*
X129605Y114474D01*
X129676Y114522D01*
X129749Y114567D01*
X129823Y114609D01*
X129900Y114647D01*
X129978Y114682D01*
X130057Y114714D01*
X130138Y114742D01*
X130220Y114766D01*
X130304Y114787D01*
X130387Y114804D01*
X130472Y114817D01*
X130557Y114826D01*
X130642Y114832D01*
X130728Y114834D01*
X130814Y114832D01*
X130899Y114826D01*
X130984Y114817D01*
X131069Y114804D01*
X131152Y114787D01*
X131236Y114766D01*
X131318Y114742D01*
X131399Y114714D01*
X131478Y114682D01*
X131556Y114647D01*
X131633Y114609D01*
X131707Y114567D01*
X131780Y114522D01*
X131851Y114474D01*
X131919Y114423D01*
X131986Y114369D01*
X132049Y114311D01*
X132111Y114252D01*
X132169Y114189D01*
X132225Y114124D01*
X132277Y114056D01*
X132327Y113987D01*
X132373Y113915D01*
X132416Y113841D01*
X132456Y113765D01*
X132493Y113688D01*
X132526Y113609D01*
X132556Y113529D01*
X132556Y113528D02*
X132635Y113361D01*
X132710Y113192D01*
X132781Y113021D01*
X132848Y112849D01*
X132910Y112675D01*
X132969Y112499D01*
X133023Y112323D01*
X133073Y112145D01*
X133119Y111965D01*
X133161Y111785D01*
X133198Y111604D01*
X133231Y111422D01*
X133260Y111240D01*
X133284Y111056D01*
X133304Y110872D01*
X133319Y110688D01*
X133330Y110504D01*
X133337Y110319D01*
X133339Y110134D01*
X128117Y110134D02*
X128119Y109949D01*
X128126Y109764D01*
X128137Y109580D01*
X128152Y109396D01*
X128172Y109212D01*
X128196Y109028D01*
X128225Y108846D01*
X128258Y108664D01*
X128295Y108483D01*
X128337Y108303D01*
X128383Y108123D01*
X128433Y107945D01*
X128487Y107769D01*
X128546Y107593D01*
X128608Y107419D01*
X128675Y107247D01*
X128746Y107076D01*
X128821Y106907D01*
X128900Y106740D01*
X128930Y106660D01*
X128963Y106581D01*
X129000Y106504D01*
X129040Y106428D01*
X129083Y106354D01*
X129129Y106282D01*
X129179Y106213D01*
X129232Y106145D01*
X129287Y106080D01*
X129346Y106017D01*
X129407Y105958D01*
X129470Y105900D01*
X129537Y105846D01*
X129605Y105795D01*
X129676Y105747D01*
X129749Y105702D01*
X129823Y105660D01*
X129900Y105622D01*
X129978Y105587D01*
X130057Y105555D01*
X130138Y105527D01*
X130220Y105503D01*
X130304Y105482D01*
X130387Y105465D01*
X130472Y105452D01*
X130557Y105443D01*
X130642Y105437D01*
X130728Y105435D01*
X132556Y106740D02*
X132635Y106907D01*
X132710Y107076D01*
X132781Y107247D01*
X132848Y107419D01*
X132910Y107593D01*
X132969Y107769D01*
X133023Y107945D01*
X133073Y108123D01*
X133119Y108303D01*
X133161Y108483D01*
X133198Y108664D01*
X133231Y108846D01*
X133260Y109028D01*
X133284Y109212D01*
X133304Y109396D01*
X133319Y109580D01*
X133330Y109764D01*
X133337Y109949D01*
X133339Y110134D01*
X132556Y106740D02*
X132526Y106660D01*
X132493Y106581D01*
X132456Y106504D01*
X132416Y106428D01*
X132373Y106354D01*
X132327Y106282D01*
X132277Y106213D01*
X132225Y106145D01*
X132169Y106080D01*
X132111Y106017D01*
X132049Y105958D01*
X131986Y105900D01*
X131919Y105846D01*
X131851Y105795D01*
X131780Y105747D01*
X131707Y105702D01*
X131633Y105660D01*
X131556Y105622D01*
X131478Y105587D01*
X131399Y105555D01*
X131318Y105527D01*
X131236Y105503D01*
X131152Y105482D01*
X131069Y105465D01*
X130984Y105452D01*
X130899Y105443D01*
X130814Y105437D01*
X130728Y105435D01*
X128640Y107524D02*
X132817Y112745D01*
X136868Y105958D02*
X136868Y105435D01*
X136868Y105958D02*
X137390Y105958D01*
X137390Y105435D01*
X136868Y105435D01*
X140919Y112745D02*
X143530Y114833D01*
X143530Y105435D01*
X146140Y105435D02*
X140919Y105435D01*
X150280Y107002D02*
X150280Y111701D01*
X150281Y107002D02*
X150283Y106925D01*
X150289Y106849D01*
X150298Y106772D01*
X150311Y106696D01*
X150328Y106621D01*
X150348Y106547D01*
X150373Y106474D01*
X150400Y106403D01*
X150431Y106332D01*
X150466Y106264D01*
X150504Y106197D01*
X150545Y106132D01*
X150589Y106069D01*
X150636Y106009D01*
X150687Y105950D01*
X150740Y105895D01*
X150795Y105842D01*
X150854Y105791D01*
X150914Y105744D01*
X150977Y105700D01*
X151042Y105659D01*
X151109Y105621D01*
X151177Y105586D01*
X151248Y105555D01*
X151319Y105528D01*
X151392Y105503D01*
X151466Y105483D01*
X151541Y105466D01*
X151617Y105453D01*
X151694Y105444D01*
X151770Y105438D01*
X151847Y105436D01*
X151847Y105435D02*
X154457Y105435D01*
X154457Y111701D01*
X158920Y114833D02*
X158920Y105435D01*
X158920Y114833D02*
X163097Y114833D01*
X163097Y110657D02*
X158920Y110657D01*
M02*
