G04 EAGLE Gerber X2 export*
G75*
%MOMM*%
%FSLAX34Y34*%
%LPD*%
%AMOC8*
5,1,8,0,0,1.08239X$1,22.5*%
G01*
%ADD10C,0.254000*%
%ADD11R,1.879600X1.879600*%
%ADD12C,1.879600*%


D10*
X20000Y203200D02*
X19517Y203194D01*
X19034Y203177D01*
X18551Y203147D01*
X18070Y203107D01*
X17589Y203054D01*
X17110Y202990D01*
X16633Y202915D01*
X16157Y202827D01*
X15684Y202729D01*
X15214Y202619D01*
X14746Y202498D01*
X14281Y202365D01*
X13820Y202221D01*
X13362Y202066D01*
X12908Y201900D01*
X12458Y201723D01*
X12013Y201536D01*
X11572Y201337D01*
X11136Y201129D01*
X10706Y200909D01*
X10280Y200679D01*
X9861Y200439D01*
X9447Y200189D01*
X9040Y199929D01*
X8639Y199660D01*
X8244Y199380D01*
X7857Y199092D01*
X7476Y198793D01*
X7103Y198486D01*
X6738Y198170D01*
X6380Y197845D01*
X6030Y197512D01*
X5688Y197170D01*
X5355Y196820D01*
X5030Y196462D01*
X4714Y196097D01*
X4407Y195724D01*
X4108Y195343D01*
X3820Y194956D01*
X3540Y194561D01*
X3271Y194160D01*
X3011Y193753D01*
X2761Y193339D01*
X2521Y192920D01*
X2291Y192494D01*
X2071Y192064D01*
X1863Y191628D01*
X1664Y191187D01*
X1477Y190742D01*
X1300Y190292D01*
X1134Y189838D01*
X979Y189380D01*
X835Y188919D01*
X702Y188454D01*
X581Y187986D01*
X471Y187516D01*
X373Y187043D01*
X285Y186567D01*
X210Y186090D01*
X146Y185611D01*
X93Y185130D01*
X53Y184649D01*
X23Y184166D01*
X6Y183683D01*
X0Y183200D01*
X0Y20000D01*
X6Y19517D01*
X23Y19034D01*
X53Y18551D01*
X93Y18070D01*
X146Y17589D01*
X210Y17110D01*
X285Y16633D01*
X373Y16157D01*
X471Y15684D01*
X581Y15214D01*
X702Y14746D01*
X835Y14281D01*
X979Y13820D01*
X1134Y13362D01*
X1300Y12908D01*
X1477Y12458D01*
X1664Y12013D01*
X1863Y11572D01*
X2071Y11136D01*
X2291Y10706D01*
X2521Y10280D01*
X2761Y9861D01*
X3011Y9447D01*
X3271Y9040D01*
X3540Y8639D01*
X3820Y8244D01*
X4108Y7857D01*
X4407Y7476D01*
X4714Y7103D01*
X5030Y6738D01*
X5355Y6380D01*
X5688Y6030D01*
X6030Y5688D01*
X6380Y5355D01*
X6738Y5030D01*
X7103Y4714D01*
X7476Y4407D01*
X7857Y4108D01*
X8244Y3820D01*
X8639Y3540D01*
X9040Y3271D01*
X9447Y3011D01*
X9861Y2761D01*
X10280Y2521D01*
X10706Y2291D01*
X11136Y2071D01*
X11572Y1863D01*
X12013Y1664D01*
X12458Y1477D01*
X12908Y1300D01*
X13362Y1134D01*
X13820Y979D01*
X14281Y835D01*
X14746Y702D01*
X15214Y581D01*
X15684Y471D01*
X16157Y373D01*
X16633Y285D01*
X17110Y210D01*
X17589Y146D01*
X18070Y93D01*
X18551Y53D01*
X19034Y23D01*
X19517Y6D01*
X20000Y0D01*
X284800Y0D01*
X285283Y6D01*
X285766Y23D01*
X286249Y53D01*
X286730Y93D01*
X287211Y146D01*
X287690Y210D01*
X288167Y285D01*
X288643Y373D01*
X289116Y471D01*
X289586Y581D01*
X290054Y702D01*
X290519Y835D01*
X290980Y979D01*
X291438Y1134D01*
X291892Y1300D01*
X292342Y1477D01*
X292787Y1664D01*
X293228Y1863D01*
X293664Y2071D01*
X294094Y2291D01*
X294520Y2521D01*
X294939Y2761D01*
X295353Y3011D01*
X295760Y3271D01*
X296161Y3540D01*
X296556Y3820D01*
X296943Y4108D01*
X297324Y4407D01*
X297697Y4714D01*
X298062Y5030D01*
X298420Y5355D01*
X298770Y5688D01*
X299112Y6030D01*
X299445Y6380D01*
X299770Y6738D01*
X300086Y7103D01*
X300393Y7476D01*
X300692Y7857D01*
X300980Y8244D01*
X301260Y8639D01*
X301529Y9040D01*
X301789Y9447D01*
X302039Y9861D01*
X302279Y10280D01*
X302509Y10706D01*
X302729Y11136D01*
X302937Y11572D01*
X303136Y12013D01*
X303323Y12458D01*
X303500Y12908D01*
X303666Y13362D01*
X303821Y13820D01*
X303965Y14281D01*
X304098Y14746D01*
X304219Y15214D01*
X304329Y15684D01*
X304427Y16157D01*
X304515Y16633D01*
X304590Y17110D01*
X304654Y17589D01*
X304707Y18070D01*
X304747Y18551D01*
X304777Y19034D01*
X304794Y19517D01*
X304800Y20000D01*
X304800Y183200D01*
X304794Y183683D01*
X304777Y184166D01*
X304747Y184649D01*
X304707Y185130D01*
X304654Y185611D01*
X304590Y186090D01*
X304515Y186567D01*
X304427Y187043D01*
X304329Y187516D01*
X304219Y187986D01*
X304098Y188454D01*
X303965Y188919D01*
X303821Y189380D01*
X303666Y189838D01*
X303500Y190292D01*
X303323Y190742D01*
X303136Y191187D01*
X302937Y191628D01*
X302729Y192064D01*
X302509Y192494D01*
X302279Y192920D01*
X302039Y193339D01*
X301789Y193753D01*
X301529Y194160D01*
X301260Y194561D01*
X300980Y194956D01*
X300692Y195343D01*
X300393Y195724D01*
X300086Y196097D01*
X299770Y196462D01*
X299445Y196820D01*
X299112Y197170D01*
X298770Y197512D01*
X298420Y197845D01*
X298062Y198170D01*
X297697Y198486D01*
X297324Y198793D01*
X296943Y199092D01*
X296556Y199380D01*
X296161Y199660D01*
X295760Y199929D01*
X295353Y200189D01*
X294939Y200439D01*
X294520Y200679D01*
X294094Y200909D01*
X293664Y201129D01*
X293228Y201337D01*
X292787Y201536D01*
X292342Y201723D01*
X291892Y201900D01*
X291438Y202066D01*
X290980Y202221D01*
X290519Y202365D01*
X290054Y202498D01*
X289586Y202619D01*
X289116Y202729D01*
X288643Y202827D01*
X288167Y202915D01*
X287690Y202990D01*
X287211Y203054D01*
X286730Y203107D01*
X286249Y203147D01*
X285766Y203177D01*
X285283Y203194D01*
X284800Y203200D01*
X20000Y203200D01*
D11*
X114300Y25400D03*
D12*
X139700Y25400D03*
X165100Y25400D03*
X190500Y25400D03*
D11*
X190500Y177800D03*
D12*
X165100Y177800D03*
X139700Y177800D03*
X114300Y177800D03*
X38100Y101600D03*
X63500Y101600D03*
X88900Y101600D03*
X114300Y101600D03*
X139700Y101600D03*
X165100Y101600D03*
X190500Y101600D03*
X215900Y101600D03*
X241300Y101600D03*
X266700Y101600D03*
D10*
X155702Y136398D02*
X114300Y177800D01*
X155702Y136398D02*
X198882Y136398D01*
X215900Y119380D01*
X215900Y101600D01*
X165100Y25400D02*
X114300Y76200D01*
X114300Y101600D01*
X190500Y25400D02*
X266700Y101600D01*
M02*
