G04 EAGLE Gerber X2 export*
G75*
%MOMM*%
%FSLAX34Y34*%
%LPD*%
%AMOC8*
5,1,8,0,0,1.08239X$1,22.5*%
G01*
%ADD10R,1.879600X1.879600*%
%ADD11C,1.879600*%
%ADD12R,1.000000X1.100000*%
%ADD13R,1.100000X1.000000*%
%ADD14C,0.254000*%
%ADD15C,1.016000*%


D10*
X114300Y25400D03*
D11*
X139700Y25400D03*
X165100Y25400D03*
X190500Y25400D03*
D10*
X190500Y177800D03*
D11*
X165100Y177800D03*
X139700Y177800D03*
X114300Y177800D03*
D12*
X140716Y155058D03*
X140716Y138058D03*
X114046Y136788D03*
X114046Y153788D03*
X164084Y62348D03*
X164084Y45348D03*
X139446Y45094D03*
X139446Y62094D03*
D13*
X188858Y64516D03*
X205858Y64516D03*
D12*
X165608Y156074D03*
X165608Y139074D03*
X191262Y139074D03*
X191262Y156074D03*
D14*
X186690Y62348D02*
X164084Y62348D01*
X186690Y62348D02*
X188858Y64516D01*
D15*
X208788Y147692D03*
D14*
X249936Y147692D01*
X252104Y147692D01*
X258064Y141732D01*
D15*
X258064Y141732D03*
D14*
X188858Y75556D02*
X188858Y64516D01*
X202184Y51190D01*
X202184Y47498D01*
D15*
X202184Y47498D03*
X183134Y85852D03*
D14*
X183134Y81280D01*
X188858Y75556D01*
D15*
X37846Y31750D03*
X20574Y149606D03*
D14*
X29718Y140462D01*
X29718Y128270D01*
X29718Y38354D01*
X36322Y31750D01*
X37846Y31750D01*
D15*
X82592Y126280D03*
D14*
X80602Y128270D01*
X29718Y128270D01*
X249936Y147692D02*
X249936Y179070D01*
X234696Y194310D01*
X74930Y194310D01*
X42164Y161544D01*
D15*
X42164Y161544D03*
D14*
X139700Y44840D02*
X139700Y25400D01*
X139700Y44840D02*
X139446Y45094D01*
D15*
X45974Y143256D03*
D14*
X139700Y25400D02*
X123444Y9144D01*
X44704Y9144D02*
X17526Y36322D01*
X44704Y9144D02*
X123444Y9144D01*
X77470Y143256D02*
X45974Y143256D01*
X77470Y143256D02*
X98298Y122428D01*
X118618Y122428D01*
D15*
X118618Y122428D03*
X225298Y131572D03*
D14*
X216154Y122428D01*
X118618Y122428D01*
X12192Y146134D02*
X12192Y153078D01*
X17102Y157988D01*
X24046Y157988D01*
X38778Y143256D02*
X45974Y143256D01*
X38778Y143256D02*
X24046Y157988D01*
X12192Y146134D02*
X17526Y140800D01*
X17526Y36322D01*
X114046Y153788D02*
X114046Y177546D01*
X114300Y177800D01*
D15*
X127254Y145796D03*
D14*
X119262Y153788D01*
X114046Y153788D01*
X164084Y45348D02*
X164084Y26416D01*
X165100Y25400D01*
D15*
X232156Y66802D03*
D14*
X232156Y18542D01*
X220980Y7366D01*
X173990Y7366D01*
X165100Y16256D02*
X165100Y25400D01*
X165100Y16256D02*
X173990Y7366D01*
D15*
X48514Y61722D03*
D14*
X94996Y61722D01*
X109982Y76708D01*
D15*
X109982Y76708D03*
D14*
X114046Y136788D02*
X139446Y136788D01*
X140716Y138058D01*
X164592Y138058D01*
X165608Y139074D01*
X191262Y139074D01*
X201032Y139074D01*
X206756Y133350D01*
D15*
X206756Y133350D03*
D14*
X278892Y133350D02*
X291084Y145542D01*
D15*
X291084Y145542D03*
D14*
X228770Y139954D02*
X221826Y139954D01*
X215222Y133350D02*
X206756Y133350D01*
X235374Y133350D02*
X278892Y133350D01*
X221826Y139954D02*
X215222Y133350D01*
X228770Y139954D02*
X235374Y133350D01*
D15*
X87122Y81534D03*
X71374Y19304D03*
D14*
X40132Y65194D02*
X45042Y70104D01*
X40132Y65194D02*
X40132Y58250D01*
X75692Y70104D02*
X87122Y81534D01*
X71374Y27008D02*
X71374Y19304D01*
X75692Y70104D02*
X45042Y70104D01*
X40132Y58250D02*
X71374Y27008D01*
X93388Y49022D01*
X126374Y49022D02*
X139446Y62094D01*
X126374Y49022D02*
X93388Y49022D01*
X105546Y136788D02*
X114046Y136788D01*
X105546Y136788D02*
X101600Y132842D01*
D15*
X101600Y132842D03*
D14*
X140716Y155058D02*
X140716Y176784D01*
X139700Y177800D01*
X165608Y177292D02*
X165608Y156074D01*
X165608Y177292D02*
X165100Y177800D01*
X191262Y177038D02*
X191262Y156074D01*
X191262Y177038D02*
X190500Y177800D01*
X191262Y156074D02*
X230514Y156074D01*
D15*
X230514Y156074D03*
X215138Y78486D03*
D14*
X205858Y69206D01*
X205858Y64516D01*
M02*
