G04 EAGLE Gerber X2 export*
G75*
%MOMM*%
%FSLAX34Y34*%
%LPD*%
%AMOC8*
5,1,8,0,0,1.08239X$1,22.5*%
G01*
%ADD10C,0.254000*%
%ADD11R,0.800000X0.200000*%
%ADD12R,0.200000X0.800000*%
%ADD13C,0.770000*%
%ADD14R,1.879600X1.879600*%
%ADD15C,1.879600*%
%ADD16R,1.000000X1.100000*%
%ADD17R,1.100000X1.000000*%
%ADD18C,1.016000*%


D10*
X20000Y203200D02*
X19517Y203194D01*
X19034Y203177D01*
X18551Y203147D01*
X18070Y203107D01*
X17589Y203054D01*
X17110Y202990D01*
X16633Y202915D01*
X16157Y202827D01*
X15684Y202729D01*
X15214Y202619D01*
X14746Y202498D01*
X14281Y202365D01*
X13820Y202221D01*
X13362Y202066D01*
X12908Y201900D01*
X12458Y201723D01*
X12013Y201536D01*
X11572Y201337D01*
X11136Y201129D01*
X10706Y200909D01*
X10280Y200679D01*
X9861Y200439D01*
X9447Y200189D01*
X9040Y199929D01*
X8639Y199660D01*
X8244Y199380D01*
X7857Y199092D01*
X7476Y198793D01*
X7103Y198486D01*
X6738Y198170D01*
X6380Y197845D01*
X6030Y197512D01*
X5688Y197170D01*
X5355Y196820D01*
X5030Y196462D01*
X4714Y196097D01*
X4407Y195724D01*
X4108Y195343D01*
X3820Y194956D01*
X3540Y194561D01*
X3271Y194160D01*
X3011Y193753D01*
X2761Y193339D01*
X2521Y192920D01*
X2291Y192494D01*
X2071Y192064D01*
X1863Y191628D01*
X1664Y191187D01*
X1477Y190742D01*
X1300Y190292D01*
X1134Y189838D01*
X979Y189380D01*
X835Y188919D01*
X702Y188454D01*
X581Y187986D01*
X471Y187516D01*
X373Y187043D01*
X285Y186567D01*
X210Y186090D01*
X146Y185611D01*
X93Y185130D01*
X53Y184649D01*
X23Y184166D01*
X6Y183683D01*
X0Y183200D01*
X0Y20000D01*
X6Y19517D01*
X23Y19034D01*
X53Y18551D01*
X93Y18070D01*
X146Y17589D01*
X210Y17110D01*
X285Y16633D01*
X373Y16157D01*
X471Y15684D01*
X581Y15214D01*
X702Y14746D01*
X835Y14281D01*
X979Y13820D01*
X1134Y13362D01*
X1300Y12908D01*
X1477Y12458D01*
X1664Y12013D01*
X1863Y11572D01*
X2071Y11136D01*
X2291Y10706D01*
X2521Y10280D01*
X2761Y9861D01*
X3011Y9447D01*
X3271Y9040D01*
X3540Y8639D01*
X3820Y8244D01*
X4108Y7857D01*
X4407Y7476D01*
X4714Y7103D01*
X5030Y6738D01*
X5355Y6380D01*
X5688Y6030D01*
X6030Y5688D01*
X6380Y5355D01*
X6738Y5030D01*
X7103Y4714D01*
X7476Y4407D01*
X7857Y4108D01*
X8244Y3820D01*
X8639Y3540D01*
X9040Y3271D01*
X9447Y3011D01*
X9861Y2761D01*
X10280Y2521D01*
X10706Y2291D01*
X11136Y2071D01*
X11572Y1863D01*
X12013Y1664D01*
X12458Y1477D01*
X12908Y1300D01*
X13362Y1134D01*
X13820Y979D01*
X14281Y835D01*
X14746Y702D01*
X15214Y581D01*
X15684Y471D01*
X16157Y373D01*
X16633Y285D01*
X17110Y210D01*
X17589Y146D01*
X18070Y93D01*
X18551Y53D01*
X19034Y23D01*
X19517Y6D01*
X20000Y0D01*
X284800Y0D01*
X285283Y6D01*
X285766Y23D01*
X286249Y53D01*
X286730Y93D01*
X287211Y146D01*
X287690Y210D01*
X288167Y285D01*
X288643Y373D01*
X289116Y471D01*
X289586Y581D01*
X290054Y702D01*
X290519Y835D01*
X290980Y979D01*
X291438Y1134D01*
X291892Y1300D01*
X292342Y1477D01*
X292787Y1664D01*
X293228Y1863D01*
X293664Y2071D01*
X294094Y2291D01*
X294520Y2521D01*
X294939Y2761D01*
X295353Y3011D01*
X295760Y3271D01*
X296161Y3540D01*
X296556Y3820D01*
X296943Y4108D01*
X297324Y4407D01*
X297697Y4714D01*
X298062Y5030D01*
X298420Y5355D01*
X298770Y5688D01*
X299112Y6030D01*
X299445Y6380D01*
X299770Y6738D01*
X300086Y7103D01*
X300393Y7476D01*
X300692Y7857D01*
X300980Y8244D01*
X301260Y8639D01*
X301529Y9040D01*
X301789Y9447D01*
X302039Y9861D01*
X302279Y10280D01*
X302509Y10706D01*
X302729Y11136D01*
X302937Y11572D01*
X303136Y12013D01*
X303323Y12458D01*
X303500Y12908D01*
X303666Y13362D01*
X303821Y13820D01*
X303965Y14281D01*
X304098Y14746D01*
X304219Y15214D01*
X304329Y15684D01*
X304427Y16157D01*
X304515Y16633D01*
X304590Y17110D01*
X304654Y17589D01*
X304707Y18070D01*
X304747Y18551D01*
X304777Y19034D01*
X304794Y19517D01*
X304800Y20000D01*
X304800Y183200D01*
X304794Y183683D01*
X304777Y184166D01*
X304747Y184649D01*
X304707Y185130D01*
X304654Y185611D01*
X304590Y186090D01*
X304515Y186567D01*
X304427Y187043D01*
X304329Y187516D01*
X304219Y187986D01*
X304098Y188454D01*
X303965Y188919D01*
X303821Y189380D01*
X303666Y189838D01*
X303500Y190292D01*
X303323Y190742D01*
X303136Y191187D01*
X302937Y191628D01*
X302729Y192064D01*
X302509Y192494D01*
X302279Y192920D01*
X302039Y193339D01*
X301789Y193753D01*
X301529Y194160D01*
X301260Y194561D01*
X300980Y194956D01*
X300692Y195343D01*
X300393Y195724D01*
X300086Y196097D01*
X299770Y196462D01*
X299445Y196820D01*
X299112Y197170D01*
X298770Y197512D01*
X298420Y197845D01*
X298062Y198170D01*
X297697Y198486D01*
X297324Y198793D01*
X296943Y199092D01*
X296556Y199380D01*
X296161Y199660D01*
X295760Y199929D01*
X295353Y200189D01*
X294939Y200439D01*
X294520Y200679D01*
X294094Y200909D01*
X293664Y201129D01*
X293228Y201337D01*
X292787Y201536D01*
X292342Y201723D01*
X291892Y201900D01*
X291438Y202066D01*
X290980Y202221D01*
X290519Y202365D01*
X290054Y202498D01*
X289586Y202619D01*
X289116Y202729D01*
X288643Y202827D01*
X288167Y202915D01*
X287690Y202990D01*
X287211Y203054D01*
X286730Y203107D01*
X286249Y203147D01*
X285766Y203177D01*
X285283Y203194D01*
X284800Y203200D01*
X20000Y203200D01*
D11*
X46500Y111600D03*
X46500Y107600D03*
X46500Y103600D03*
X46500Y99600D03*
X46500Y95600D03*
X46500Y91600D03*
D12*
X53500Y84600D03*
X57500Y84600D03*
X61500Y84600D03*
X65500Y84600D03*
X69500Y84600D03*
X73500Y84600D03*
D11*
X80500Y91600D03*
X80500Y95600D03*
X80500Y99600D03*
X80500Y103600D03*
X80500Y107600D03*
X80500Y111600D03*
D12*
X73500Y118600D03*
X69500Y118600D03*
X65500Y118600D03*
X61500Y118600D03*
X57500Y118600D03*
X53500Y118600D03*
D13*
X58850Y97750D02*
X68150Y97750D01*
X58850Y97750D02*
X58850Y105450D01*
X68150Y105450D01*
X68150Y97750D01*
X68150Y105449D02*
X58850Y105449D01*
D11*
X135400Y111600D03*
X135400Y107600D03*
X135400Y103600D03*
X135400Y99600D03*
X135400Y95600D03*
X135400Y91600D03*
D12*
X142400Y84600D03*
X146400Y84600D03*
X150400Y84600D03*
X154400Y84600D03*
X158400Y84600D03*
X162400Y84600D03*
D11*
X169400Y91600D03*
X169400Y95600D03*
X169400Y99600D03*
X169400Y103600D03*
X169400Y107600D03*
X169400Y111600D03*
D12*
X162400Y118600D03*
X158400Y118600D03*
X154400Y118600D03*
X150400Y118600D03*
X146400Y118600D03*
X142400Y118600D03*
D13*
X147750Y97750D02*
X157050Y97750D01*
X147750Y97750D02*
X147750Y105450D01*
X157050Y105450D01*
X157050Y97750D01*
X157050Y105449D02*
X147750Y105449D01*
D11*
X224300Y111600D03*
X224300Y107600D03*
X224300Y103600D03*
X224300Y99600D03*
X224300Y95600D03*
X224300Y91600D03*
D12*
X231300Y84600D03*
X235300Y84600D03*
X239300Y84600D03*
X243300Y84600D03*
X247300Y84600D03*
X251300Y84600D03*
D11*
X258300Y91600D03*
X258300Y95600D03*
X258300Y99600D03*
X258300Y103600D03*
X258300Y107600D03*
X258300Y111600D03*
D12*
X251300Y118600D03*
X247300Y118600D03*
X243300Y118600D03*
X239300Y118600D03*
X235300Y118600D03*
X231300Y118600D03*
D13*
X236650Y97750D02*
X245950Y97750D01*
X236650Y97750D02*
X236650Y105450D01*
X245950Y105450D01*
X245950Y97750D01*
X245950Y105449D02*
X236650Y105449D01*
D14*
X114300Y25400D03*
D15*
X139700Y25400D03*
X165100Y25400D03*
X190500Y25400D03*
D14*
X190500Y177800D03*
D15*
X165100Y177800D03*
X139700Y177800D03*
X114300Y177800D03*
D16*
X68834Y62348D03*
X68834Y45348D03*
X93726Y47634D03*
X93726Y64634D03*
D17*
X187334Y100584D03*
X204334Y100584D03*
X100720Y100838D03*
X117720Y100838D03*
X274964Y123698D03*
X291964Y123698D03*
X274710Y94742D03*
X291710Y94742D03*
D16*
X218694Y48632D03*
X218694Y31632D03*
X25146Y125848D03*
X25146Y108848D03*
X24892Y72780D03*
X24892Y89780D03*
X248412Y57522D03*
X248412Y40522D03*
X272542Y41538D03*
X272542Y58538D03*
D10*
X247300Y118600D02*
X247300Y128174D01*
X250952Y131826D01*
X270398Y123698D02*
X258300Y111600D01*
X270398Y123698D02*
X274964Y123698D01*
X257302Y131826D02*
X250952Y131826D01*
X257302Y131826D02*
X266836Y131826D01*
X274964Y123698D01*
X274964Y94996D01*
X274710Y94742D01*
X239522Y31632D02*
X218694Y31632D01*
X239522Y31632D02*
X248412Y40522D01*
X271526Y40522D01*
X272542Y41538D01*
X91440Y45348D02*
X68834Y45348D01*
X91440Y45348D02*
X93726Y47634D01*
X93726Y45974D01*
X114300Y25400D01*
X69500Y118600D02*
X69500Y131222D01*
X73914Y135636D01*
X86106Y135636D01*
X90932Y130810D01*
X90932Y120142D01*
X90932Y110626D01*
X100720Y100838D01*
X89958Y111600D02*
X80500Y111600D01*
X89958Y111600D02*
X90932Y110626D01*
X68834Y45348D02*
X36948Y45348D01*
X24892Y57404D02*
X24892Y72780D01*
X35179Y47117D02*
X36948Y45348D01*
X35179Y47117D02*
X24892Y57404D01*
X158400Y118600D02*
X158400Y127920D01*
X163322Y132842D01*
X171196Y132842D01*
X176784Y127254D01*
X176784Y118984D01*
X187334Y108434D01*
X187334Y100584D01*
X171196Y132842D02*
X186046Y147692D01*
X208788Y147692D01*
D18*
X208788Y147692D03*
X258064Y141732D03*
D10*
X257302Y140970D01*
X257302Y131826D01*
D18*
X202184Y47498D03*
D10*
X218050Y31632D01*
X218694Y31632D01*
X187334Y90052D02*
X187334Y100584D01*
X187334Y90052D02*
X183134Y85852D01*
D18*
X183134Y85852D03*
D10*
X35179Y47117D02*
X35179Y34417D01*
X37846Y31750D01*
D18*
X37846Y31750D03*
D10*
X25146Y125848D02*
X25146Y145034D01*
X20574Y149606D01*
D18*
X20574Y149606D03*
D10*
X88730Y120142D02*
X90932Y120142D01*
X88730Y120142D02*
X82592Y126280D01*
D18*
X82592Y126280D03*
X42164Y161544D03*
D10*
X30226Y149606D01*
X20574Y149606D01*
X169400Y111600D02*
X176784Y118984D01*
X53500Y118600D02*
X53500Y135730D01*
X45974Y143256D01*
D18*
X45974Y143256D03*
X118618Y122428D03*
D10*
X138572Y122428D02*
X142400Y118600D01*
X138572Y122428D02*
X118618Y122428D01*
X225298Y124602D02*
X231300Y118600D01*
X225298Y124602D02*
X225298Y131572D01*
D18*
X225298Y131572D03*
D10*
X211582Y160528D02*
X211582Y188214D01*
X204724Y195072D01*
X127508Y195072D01*
X114300Y181864D01*
X114300Y177800D01*
D18*
X127254Y145796D03*
D10*
X57500Y160878D02*
X57500Y118600D01*
X57500Y160878D02*
X73660Y177038D01*
X113538Y177038D01*
X114300Y177800D01*
X146400Y129698D02*
X146400Y118600D01*
X130302Y145796D02*
X127254Y145796D01*
X130302Y145796D02*
X146400Y129698D01*
X235300Y136810D02*
X235300Y118600D01*
X235300Y136810D02*
X211582Y160528D01*
X239300Y84600D02*
X239300Y73946D01*
X232156Y66802D01*
D18*
X232156Y66802D03*
D10*
X150400Y71088D02*
X150400Y84600D01*
X164592Y48514D02*
X164592Y25908D01*
X165100Y25400D01*
X61500Y74708D02*
X61500Y84600D01*
X61500Y74708D02*
X48514Y61722D01*
D18*
X48514Y61722D03*
X109982Y76708D03*
D10*
X123698Y76708D01*
X129318Y71088D02*
X150400Y71088D01*
X129318Y71088D02*
X123698Y76708D01*
X150400Y71088D02*
X150400Y62706D01*
X164592Y48514D01*
X46500Y111600D02*
X27898Y111600D01*
X25146Y108848D01*
X25146Y90034D01*
X24892Y89780D01*
X57500Y84600D02*
X57500Y77312D01*
X55372Y75184D01*
X47752Y75184D01*
X32902Y90034D02*
X25146Y90034D01*
X32902Y90034D02*
X47752Y75184D01*
X291964Y94996D02*
X291964Y123698D01*
X291964Y94996D02*
X291710Y94742D01*
X280026Y83058D01*
X266700Y83058D01*
X190500Y25400D02*
X172974Y7874D01*
X71882Y7874D01*
X46482Y7874D01*
X9652Y44704D01*
X9652Y81788D01*
X17644Y89780D01*
X24892Y89780D01*
X146400Y84600D02*
X146400Y78836D01*
X143510Y75946D01*
X132842Y75946D01*
X117720Y91068D02*
X117720Y100838D01*
X117720Y91068D02*
X132842Y75946D01*
X135400Y111600D02*
X121252Y111600D01*
X117720Y108068D02*
X117720Y100838D01*
X117720Y108068D02*
X121252Y111600D01*
D18*
X206756Y133350D03*
D10*
X206756Y111252D01*
X206756Y103006D01*
X204334Y100584D01*
X235300Y84600D02*
X235300Y78074D01*
X233172Y75946D01*
X229532Y75946D01*
X206756Y86868D02*
X203708Y89916D01*
X218610Y86868D02*
X229532Y75946D01*
X218610Y86868D02*
X206756Y86868D01*
X203708Y89916D02*
X203708Y99958D01*
X204334Y100584D01*
D18*
X291084Y145542D03*
D10*
X291964Y144662D01*
X291964Y123698D01*
X117720Y91068D02*
X90678Y91068D01*
X81032Y91068D01*
X90678Y91068D02*
X90678Y85090D01*
X87122Y81534D01*
D18*
X87122Y81534D03*
X71374Y19304D03*
D10*
X71374Y8382D01*
X71882Y7874D01*
X206756Y111252D02*
X207104Y111600D01*
X224300Y111600D01*
X169400Y91600D02*
X169400Y85870D01*
X177800Y77470D02*
X197866Y77470D01*
X177800Y77470D02*
X169400Y85870D01*
X197866Y77470D02*
X206756Y86360D01*
X206756Y86868D01*
X291710Y94742D02*
X291710Y31868D01*
X270256Y10414D01*
X205486Y10414D01*
X190500Y25400D01*
X258300Y91458D02*
X258300Y91600D01*
X258300Y91458D02*
X266700Y83058D01*
X81032Y91068D02*
X80500Y91600D01*
D18*
X101600Y132842D03*
D10*
X106680Y111878D02*
X117720Y100838D01*
X106680Y127762D02*
X101600Y132842D01*
X106680Y127762D02*
X106680Y111878D01*
X61500Y118600D02*
X61500Y137700D01*
X70612Y146812D01*
X108712Y146812D01*
X139700Y177800D01*
X150400Y139224D02*
X150400Y118600D01*
X165100Y153924D02*
X165100Y177800D01*
X165100Y153924D02*
X150400Y139224D01*
X239300Y147288D02*
X239300Y118600D01*
X239300Y147288D02*
X230514Y156074D01*
D18*
X230514Y156074D03*
D10*
X65500Y84600D02*
X65500Y65682D01*
X68834Y62348D01*
X69500Y75280D02*
X69500Y84600D01*
X69500Y75280D02*
X71628Y73152D01*
X85208Y73152D01*
X93726Y64634D01*
X203318Y64008D02*
X218694Y48632D01*
X154400Y73184D02*
X154400Y84600D01*
X154400Y73184D02*
X163576Y64008D01*
X189992Y64008D01*
X203318Y64008D01*
X243300Y62634D02*
X243300Y84600D01*
X243300Y62634D02*
X248412Y57522D01*
X247300Y76804D02*
X247300Y84600D01*
X254762Y69342D02*
X267716Y69342D01*
X272542Y64516D01*
X272542Y58538D01*
X254762Y69342D02*
X247300Y76804D01*
X158400Y79090D02*
X158400Y84600D01*
X158400Y79090D02*
X164592Y72898D01*
X209550Y72898D01*
X215138Y78486D01*
D18*
X215138Y78486D03*
M02*
