G04 EAGLE Gerber X2 export*
G75*
%MOMM*%
%FSLAX34Y34*%
%LPD*%
%AMOC8*
5,1,8,0,0,1.08239X$1,22.5*%
G01*
%ADD10C,0.076200*%
%ADD11R,0.762000X0.381000*%
%ADD12C,0.050800*%
%ADD13R,0.381000X0.762000*%


D10*
X270383Y32940D02*
X279781Y32940D01*
X274560Y36072D01*
X279781Y39205D01*
X270383Y39205D01*
X270383Y43956D02*
X279781Y43956D01*
X279781Y46567D01*
X279779Y46668D01*
X279773Y46769D01*
X279763Y46870D01*
X279750Y46970D01*
X279732Y47070D01*
X279711Y47169D01*
X279685Y47267D01*
X279656Y47364D01*
X279624Y47460D01*
X279587Y47554D01*
X279547Y47647D01*
X279503Y47739D01*
X279456Y47828D01*
X279405Y47916D01*
X279351Y48002D01*
X279294Y48085D01*
X279234Y48167D01*
X279170Y48245D01*
X279104Y48322D01*
X279034Y48395D01*
X278962Y48466D01*
X278887Y48534D01*
X278809Y48599D01*
X278729Y48661D01*
X278647Y48720D01*
X278562Y48776D01*
X278476Y48828D01*
X278387Y48877D01*
X278296Y48923D01*
X278204Y48964D01*
X278110Y49003D01*
X278015Y49037D01*
X277919Y49068D01*
X277821Y49095D01*
X277723Y49119D01*
X277623Y49138D01*
X277523Y49154D01*
X277423Y49166D01*
X277322Y49174D01*
X277221Y49178D01*
X277119Y49178D01*
X277018Y49174D01*
X276917Y49166D01*
X276817Y49154D01*
X276717Y49138D01*
X276617Y49119D01*
X276519Y49095D01*
X276421Y49068D01*
X276325Y49037D01*
X276230Y49003D01*
X276136Y48964D01*
X276044Y48923D01*
X275953Y48877D01*
X275865Y48828D01*
X275778Y48776D01*
X275693Y48720D01*
X275611Y48661D01*
X275531Y48599D01*
X275453Y48534D01*
X275378Y48466D01*
X275306Y48395D01*
X275236Y48322D01*
X275170Y48245D01*
X275106Y48167D01*
X275046Y48085D01*
X274989Y48002D01*
X274935Y47916D01*
X274884Y47828D01*
X274837Y47739D01*
X274793Y47647D01*
X274753Y47554D01*
X274716Y47460D01*
X274684Y47364D01*
X274655Y47267D01*
X274629Y47169D01*
X274608Y47070D01*
X274590Y46970D01*
X274577Y46870D01*
X274567Y46769D01*
X274561Y46668D01*
X274559Y46567D01*
X274560Y46567D02*
X274560Y43956D01*
X272994Y52969D02*
X279781Y52969D01*
X272994Y52969D02*
X272893Y52971D01*
X272792Y52977D01*
X272691Y52987D01*
X272591Y53000D01*
X272491Y53018D01*
X272392Y53039D01*
X272294Y53065D01*
X272197Y53094D01*
X272101Y53126D01*
X272007Y53163D01*
X271914Y53203D01*
X271822Y53247D01*
X271733Y53294D01*
X271645Y53345D01*
X271559Y53399D01*
X271476Y53456D01*
X271394Y53516D01*
X271316Y53580D01*
X271239Y53646D01*
X271166Y53716D01*
X271095Y53788D01*
X271027Y53863D01*
X270962Y53941D01*
X270900Y54021D01*
X270841Y54103D01*
X270785Y54188D01*
X270733Y54275D01*
X270684Y54363D01*
X270638Y54454D01*
X270597Y54546D01*
X270558Y54640D01*
X270524Y54735D01*
X270493Y54831D01*
X270466Y54929D01*
X270442Y55027D01*
X270423Y55127D01*
X270407Y55227D01*
X270395Y55327D01*
X270387Y55428D01*
X270383Y55529D01*
X270383Y55631D01*
X270387Y55732D01*
X270395Y55833D01*
X270407Y55933D01*
X270423Y56033D01*
X270442Y56133D01*
X270466Y56231D01*
X270493Y56329D01*
X270524Y56425D01*
X270558Y56520D01*
X270597Y56614D01*
X270638Y56706D01*
X270684Y56797D01*
X270733Y56886D01*
X270785Y56972D01*
X270841Y57057D01*
X270900Y57139D01*
X270962Y57219D01*
X271027Y57297D01*
X271095Y57372D01*
X271166Y57444D01*
X271239Y57514D01*
X271316Y57580D01*
X271394Y57644D01*
X271476Y57704D01*
X271559Y57761D01*
X271645Y57815D01*
X271733Y57866D01*
X271822Y57913D01*
X271914Y57957D01*
X272007Y57997D01*
X272101Y58034D01*
X272197Y58066D01*
X272294Y58095D01*
X272392Y58121D01*
X272491Y58142D01*
X272591Y58160D01*
X272691Y58173D01*
X272792Y58183D01*
X272893Y58189D01*
X272994Y58191D01*
X272994Y58190D02*
X279781Y58190D01*
X274038Y62505D02*
X274038Y68771D01*
X274560Y74869D02*
X274560Y78002D01*
X274560Y74869D02*
X274562Y74780D01*
X274568Y74692D01*
X274577Y74604D01*
X274590Y74516D01*
X274607Y74429D01*
X274627Y74343D01*
X274652Y74258D01*
X274679Y74173D01*
X274711Y74090D01*
X274745Y74009D01*
X274784Y73929D01*
X274825Y73851D01*
X274870Y73774D01*
X274918Y73700D01*
X274969Y73627D01*
X275023Y73557D01*
X275081Y73490D01*
X275141Y73424D01*
X275203Y73362D01*
X275269Y73302D01*
X275336Y73244D01*
X275406Y73190D01*
X275479Y73139D01*
X275553Y73091D01*
X275630Y73046D01*
X275708Y73005D01*
X275788Y72966D01*
X275869Y72932D01*
X275952Y72900D01*
X276037Y72873D01*
X276122Y72848D01*
X276208Y72828D01*
X276295Y72811D01*
X276383Y72798D01*
X276471Y72789D01*
X276559Y72783D01*
X276648Y72781D01*
X277170Y72781D01*
X277271Y72783D01*
X277372Y72789D01*
X277473Y72799D01*
X277573Y72812D01*
X277673Y72830D01*
X277772Y72851D01*
X277870Y72877D01*
X277967Y72906D01*
X278063Y72938D01*
X278157Y72975D01*
X278250Y73015D01*
X278342Y73059D01*
X278431Y73106D01*
X278519Y73157D01*
X278605Y73211D01*
X278688Y73268D01*
X278770Y73328D01*
X278848Y73392D01*
X278925Y73458D01*
X278998Y73528D01*
X279069Y73600D01*
X279137Y73675D01*
X279202Y73753D01*
X279264Y73833D01*
X279323Y73915D01*
X279379Y74000D01*
X279431Y74086D01*
X279480Y74175D01*
X279526Y74266D01*
X279567Y74358D01*
X279606Y74452D01*
X279640Y74547D01*
X279671Y74643D01*
X279698Y74741D01*
X279722Y74839D01*
X279741Y74939D01*
X279757Y75039D01*
X279769Y75139D01*
X279777Y75240D01*
X279781Y75341D01*
X279781Y75443D01*
X279777Y75544D01*
X279769Y75645D01*
X279757Y75745D01*
X279741Y75845D01*
X279722Y75945D01*
X279698Y76043D01*
X279671Y76141D01*
X279640Y76237D01*
X279606Y76332D01*
X279567Y76426D01*
X279526Y76518D01*
X279480Y76609D01*
X279431Y76697D01*
X279379Y76784D01*
X279323Y76869D01*
X279264Y76951D01*
X279202Y77031D01*
X279137Y77109D01*
X279069Y77184D01*
X278998Y77256D01*
X278925Y77326D01*
X278848Y77392D01*
X278770Y77456D01*
X278688Y77516D01*
X278605Y77573D01*
X278519Y77627D01*
X278431Y77678D01*
X278342Y77725D01*
X278250Y77769D01*
X278157Y77809D01*
X278063Y77846D01*
X277967Y77878D01*
X277870Y77907D01*
X277772Y77933D01*
X277673Y77954D01*
X277573Y77972D01*
X277473Y77985D01*
X277372Y77995D01*
X277271Y78001D01*
X277170Y78003D01*
X277170Y78002D02*
X274560Y78002D01*
X274434Y78000D01*
X274308Y77994D01*
X274182Y77985D01*
X274057Y77972D01*
X273932Y77954D01*
X273807Y77934D01*
X273683Y77909D01*
X273560Y77881D01*
X273438Y77849D01*
X273317Y77813D01*
X273197Y77774D01*
X273079Y77731D01*
X272962Y77684D01*
X272846Y77634D01*
X272731Y77580D01*
X272619Y77524D01*
X272508Y77463D01*
X272399Y77400D01*
X272292Y77333D01*
X272187Y77263D01*
X272084Y77189D01*
X271984Y77113D01*
X271886Y77034D01*
X271790Y76952D01*
X271697Y76866D01*
X271606Y76779D01*
X271519Y76688D01*
X271433Y76595D01*
X271351Y76499D01*
X271272Y76401D01*
X271196Y76301D01*
X271122Y76198D01*
X271052Y76093D01*
X270985Y75986D01*
X270922Y75877D01*
X270861Y75766D01*
X270805Y75654D01*
X270751Y75539D01*
X270701Y75423D01*
X270654Y75306D01*
X270611Y75188D01*
X270572Y75068D01*
X270536Y74947D01*
X270504Y74825D01*
X270476Y74702D01*
X270451Y74578D01*
X270431Y74453D01*
X270413Y74328D01*
X270400Y74203D01*
X270391Y74077D01*
X270385Y73951D01*
X270383Y73825D01*
X279782Y84797D02*
X279780Y84892D01*
X279774Y84986D01*
X279765Y85080D01*
X279752Y85174D01*
X279735Y85267D01*
X279714Y85359D01*
X279689Y85451D01*
X279661Y85541D01*
X279629Y85630D01*
X279594Y85718D01*
X279555Y85804D01*
X279513Y85889D01*
X279467Y85972D01*
X279418Y86053D01*
X279366Y86132D01*
X279311Y86209D01*
X279252Y86283D01*
X279191Y86355D01*
X279127Y86425D01*
X279060Y86492D01*
X278990Y86556D01*
X278918Y86617D01*
X278844Y86676D01*
X278767Y86731D01*
X278688Y86783D01*
X278607Y86832D01*
X278524Y86878D01*
X278439Y86920D01*
X278353Y86959D01*
X278265Y86994D01*
X278176Y87026D01*
X278086Y87054D01*
X277994Y87079D01*
X277902Y87100D01*
X277809Y87117D01*
X277715Y87130D01*
X277621Y87139D01*
X277527Y87145D01*
X277432Y87147D01*
X279781Y84797D02*
X279779Y84689D01*
X279773Y84580D01*
X279763Y84472D01*
X279750Y84365D01*
X279732Y84258D01*
X279711Y84151D01*
X279686Y84046D01*
X279657Y83941D01*
X279625Y83838D01*
X279588Y83736D01*
X279548Y83635D01*
X279505Y83536D01*
X279458Y83438D01*
X279407Y83342D01*
X279353Y83248D01*
X279296Y83156D01*
X279235Y83066D01*
X279171Y82978D01*
X279105Y82893D01*
X279035Y82810D01*
X278962Y82730D01*
X278886Y82652D01*
X278808Y82577D01*
X278727Y82505D01*
X278643Y82436D01*
X278557Y82370D01*
X278469Y82307D01*
X278378Y82248D01*
X278286Y82191D01*
X278191Y82138D01*
X278095Y82089D01*
X277996Y82043D01*
X277897Y82000D01*
X277795Y81961D01*
X277693Y81926D01*
X275604Y86363D02*
X275673Y86432D01*
X275744Y86498D01*
X275817Y86562D01*
X275893Y86623D01*
X275972Y86681D01*
X276052Y86735D01*
X276135Y86787D01*
X276219Y86835D01*
X276305Y86881D01*
X276393Y86922D01*
X276483Y86961D01*
X276574Y86996D01*
X276666Y87027D01*
X276759Y87055D01*
X276853Y87079D01*
X276948Y87099D01*
X277044Y87116D01*
X277141Y87129D01*
X277238Y87138D01*
X277335Y87144D01*
X277432Y87146D01*
X275604Y86363D02*
X270383Y81925D01*
X270383Y87146D01*
X270383Y91069D02*
X270383Y94202D01*
X270385Y94291D01*
X270391Y94379D01*
X270400Y94467D01*
X270413Y94555D01*
X270430Y94642D01*
X270450Y94728D01*
X270475Y94813D01*
X270502Y94898D01*
X270534Y94981D01*
X270568Y95062D01*
X270607Y95142D01*
X270648Y95220D01*
X270693Y95297D01*
X270741Y95371D01*
X270792Y95444D01*
X270846Y95514D01*
X270904Y95581D01*
X270964Y95647D01*
X271026Y95709D01*
X271092Y95769D01*
X271159Y95827D01*
X271229Y95881D01*
X271302Y95932D01*
X271376Y95980D01*
X271453Y96025D01*
X271531Y96066D01*
X271611Y96105D01*
X271692Y96139D01*
X271775Y96171D01*
X271860Y96198D01*
X271945Y96223D01*
X272031Y96243D01*
X272118Y96260D01*
X272206Y96273D01*
X272294Y96282D01*
X272382Y96288D01*
X272471Y96290D01*
X273516Y96290D01*
X273605Y96288D01*
X273693Y96282D01*
X273781Y96273D01*
X273869Y96260D01*
X273956Y96243D01*
X274042Y96223D01*
X274127Y96198D01*
X274212Y96171D01*
X274295Y96139D01*
X274376Y96105D01*
X274456Y96066D01*
X274534Y96025D01*
X274611Y95980D01*
X274685Y95932D01*
X274758Y95881D01*
X274828Y95827D01*
X274895Y95769D01*
X274961Y95709D01*
X275023Y95647D01*
X275083Y95581D01*
X275141Y95514D01*
X275195Y95444D01*
X275246Y95371D01*
X275294Y95297D01*
X275339Y95220D01*
X275380Y95142D01*
X275419Y95062D01*
X275453Y94981D01*
X275485Y94898D01*
X275512Y94813D01*
X275537Y94728D01*
X275557Y94642D01*
X275574Y94555D01*
X275587Y94467D01*
X275596Y94379D01*
X275602Y94291D01*
X275604Y94202D01*
X275604Y91069D01*
X279781Y91069D01*
X279781Y96290D01*
X278476Y100996D02*
X278309Y100917D01*
X278140Y100842D01*
X277969Y100771D01*
X277797Y100704D01*
X277623Y100642D01*
X277447Y100583D01*
X277271Y100529D01*
X277093Y100479D01*
X276913Y100433D01*
X276733Y100391D01*
X276552Y100354D01*
X276370Y100321D01*
X276188Y100292D01*
X276004Y100268D01*
X275820Y100248D01*
X275636Y100233D01*
X275452Y100222D01*
X275267Y100215D01*
X275082Y100213D01*
X278476Y100995D02*
X278556Y101025D01*
X278635Y101058D01*
X278712Y101095D01*
X278788Y101135D01*
X278862Y101178D01*
X278934Y101224D01*
X279003Y101274D01*
X279071Y101326D01*
X279136Y101382D01*
X279199Y101440D01*
X279258Y101502D01*
X279316Y101565D01*
X279370Y101632D01*
X279421Y101700D01*
X279469Y101771D01*
X279514Y101844D01*
X279556Y101918D01*
X279594Y101995D01*
X279629Y102073D01*
X279661Y102152D01*
X279689Y102233D01*
X279713Y102315D01*
X279734Y102399D01*
X279751Y102482D01*
X279764Y102567D01*
X279773Y102652D01*
X279779Y102737D01*
X279781Y102823D01*
X279779Y102909D01*
X279773Y102994D01*
X279764Y103079D01*
X279751Y103164D01*
X279734Y103247D01*
X279713Y103331D01*
X279689Y103413D01*
X279661Y103494D01*
X279629Y103573D01*
X279594Y103651D01*
X279556Y103728D01*
X279514Y103802D01*
X279469Y103875D01*
X279421Y103946D01*
X279370Y104014D01*
X279316Y104081D01*
X279258Y104144D01*
X279199Y104206D01*
X279136Y104264D01*
X279071Y104320D01*
X279003Y104372D01*
X278934Y104422D01*
X278862Y104468D01*
X278788Y104511D01*
X278712Y104551D01*
X278635Y104588D01*
X278556Y104621D01*
X278476Y104651D01*
X278309Y104730D01*
X278140Y104805D01*
X277969Y104876D01*
X277797Y104943D01*
X277623Y105005D01*
X277447Y105064D01*
X277271Y105118D01*
X277093Y105168D01*
X276913Y105214D01*
X276733Y105256D01*
X276552Y105293D01*
X276370Y105326D01*
X276188Y105355D01*
X276004Y105379D01*
X275820Y105399D01*
X275636Y105414D01*
X275452Y105425D01*
X275267Y105432D01*
X275082Y105434D01*
X275082Y100213D02*
X274897Y100215D01*
X274712Y100222D01*
X274528Y100233D01*
X274344Y100248D01*
X274160Y100268D01*
X273976Y100292D01*
X273794Y100321D01*
X273612Y100354D01*
X273431Y100391D01*
X273251Y100433D01*
X273071Y100479D01*
X272893Y100529D01*
X272717Y100583D01*
X272541Y100642D01*
X272367Y100704D01*
X272195Y100771D01*
X272024Y100842D01*
X271855Y100917D01*
X271688Y100996D01*
X271688Y100995D02*
X271608Y101025D01*
X271529Y101058D01*
X271452Y101095D01*
X271376Y101135D01*
X271302Y101178D01*
X271230Y101224D01*
X271161Y101274D01*
X271093Y101327D01*
X271028Y101382D01*
X270965Y101441D01*
X270906Y101502D01*
X270848Y101565D01*
X270794Y101632D01*
X270743Y101700D01*
X270695Y101771D01*
X270650Y101844D01*
X270608Y101918D01*
X270570Y101995D01*
X270535Y102073D01*
X270503Y102152D01*
X270475Y102233D01*
X270451Y102315D01*
X270430Y102399D01*
X270413Y102482D01*
X270400Y102567D01*
X270391Y102652D01*
X270385Y102737D01*
X270383Y102823D01*
X271688Y104651D02*
X271855Y104730D01*
X272024Y104805D01*
X272195Y104876D01*
X272367Y104943D01*
X272541Y105005D01*
X272717Y105064D01*
X272893Y105118D01*
X273071Y105168D01*
X273251Y105214D01*
X273431Y105256D01*
X273612Y105293D01*
X273794Y105326D01*
X273976Y105355D01*
X274160Y105379D01*
X274344Y105399D01*
X274528Y105414D01*
X274712Y105425D01*
X274897Y105432D01*
X275082Y105434D01*
X271688Y104651D02*
X271608Y104621D01*
X271529Y104588D01*
X271452Y104551D01*
X271376Y104511D01*
X271302Y104468D01*
X271230Y104422D01*
X271161Y104372D01*
X271093Y104320D01*
X271028Y104264D01*
X270965Y104206D01*
X270906Y104144D01*
X270848Y104081D01*
X270794Y104014D01*
X270743Y103946D01*
X270695Y103875D01*
X270650Y103802D01*
X270608Y103728D01*
X270570Y103651D01*
X270535Y103573D01*
X270503Y103494D01*
X270475Y103413D01*
X270451Y103331D01*
X270430Y103247D01*
X270413Y103164D01*
X270400Y103079D01*
X270391Y102994D01*
X270385Y102909D01*
X270383Y102823D01*
X272471Y100735D02*
X277693Y104912D01*
X275604Y114670D02*
X275604Y117280D01*
X275605Y117280D02*
X275603Y117381D01*
X275597Y117482D01*
X275587Y117583D01*
X275574Y117683D01*
X275556Y117783D01*
X275535Y117882D01*
X275509Y117980D01*
X275480Y118077D01*
X275448Y118173D01*
X275411Y118267D01*
X275371Y118360D01*
X275327Y118452D01*
X275280Y118541D01*
X275229Y118629D01*
X275175Y118715D01*
X275118Y118798D01*
X275058Y118880D01*
X274994Y118958D01*
X274928Y119035D01*
X274858Y119108D01*
X274786Y119179D01*
X274711Y119247D01*
X274633Y119312D01*
X274553Y119374D01*
X274471Y119433D01*
X274386Y119489D01*
X274300Y119541D01*
X274211Y119590D01*
X274120Y119636D01*
X274028Y119677D01*
X273934Y119716D01*
X273839Y119750D01*
X273743Y119781D01*
X273645Y119808D01*
X273547Y119832D01*
X273447Y119851D01*
X273347Y119867D01*
X273247Y119879D01*
X273146Y119887D01*
X273045Y119891D01*
X272943Y119891D01*
X272842Y119887D01*
X272741Y119879D01*
X272641Y119867D01*
X272541Y119851D01*
X272441Y119832D01*
X272343Y119808D01*
X272245Y119781D01*
X272149Y119750D01*
X272054Y119716D01*
X271960Y119677D01*
X271868Y119636D01*
X271777Y119590D01*
X271689Y119541D01*
X271602Y119489D01*
X271517Y119433D01*
X271435Y119374D01*
X271355Y119312D01*
X271277Y119247D01*
X271202Y119179D01*
X271130Y119108D01*
X271060Y119035D01*
X270994Y118958D01*
X270930Y118880D01*
X270870Y118798D01*
X270813Y118715D01*
X270759Y118629D01*
X270708Y118541D01*
X270661Y118452D01*
X270617Y118360D01*
X270577Y118267D01*
X270540Y118173D01*
X270508Y118077D01*
X270479Y117980D01*
X270453Y117882D01*
X270432Y117783D01*
X270414Y117683D01*
X270401Y117583D01*
X270391Y117482D01*
X270385Y117381D01*
X270383Y117280D01*
X270383Y114670D01*
X279781Y114670D01*
X279781Y117280D01*
X279779Y117370D01*
X279773Y117459D01*
X279764Y117549D01*
X279750Y117638D01*
X279733Y117726D01*
X279712Y117813D01*
X279687Y117900D01*
X279658Y117985D01*
X279626Y118069D01*
X279591Y118151D01*
X279551Y118232D01*
X279509Y118311D01*
X279463Y118388D01*
X279413Y118463D01*
X279361Y118536D01*
X279305Y118607D01*
X279247Y118675D01*
X279185Y118740D01*
X279121Y118803D01*
X279054Y118863D01*
X278985Y118920D01*
X278913Y118974D01*
X278839Y119025D01*
X278763Y119073D01*
X278685Y119117D01*
X278605Y119158D01*
X278523Y119196D01*
X278440Y119230D01*
X278355Y119260D01*
X278269Y119287D01*
X278183Y119310D01*
X278095Y119329D01*
X278006Y119344D01*
X277917Y119356D01*
X277828Y119364D01*
X277738Y119368D01*
X277648Y119368D01*
X277558Y119364D01*
X277469Y119356D01*
X277380Y119344D01*
X277291Y119329D01*
X277203Y119310D01*
X277117Y119287D01*
X277031Y119260D01*
X276946Y119230D01*
X276863Y119196D01*
X276781Y119158D01*
X276701Y119117D01*
X276623Y119073D01*
X276547Y119025D01*
X276473Y118974D01*
X276401Y118920D01*
X276332Y118863D01*
X276265Y118803D01*
X276201Y118740D01*
X276139Y118675D01*
X276081Y118607D01*
X276025Y118536D01*
X275973Y118463D01*
X275923Y118388D01*
X275877Y118311D01*
X275835Y118232D01*
X275795Y118151D01*
X275760Y118069D01*
X275728Y117985D01*
X275699Y117900D01*
X275674Y117813D01*
X275653Y117726D01*
X275636Y117638D01*
X275622Y117549D01*
X275613Y117459D01*
X275607Y117370D01*
X275605Y117280D01*
X276648Y123646D02*
X270383Y123646D01*
X276648Y123646D02*
X276648Y126779D01*
X275604Y126779D01*
X270383Y131257D02*
X270383Y133868D01*
X270383Y131257D02*
X270385Y131180D01*
X270391Y131104D01*
X270400Y131027D01*
X270413Y130951D01*
X270430Y130876D01*
X270450Y130802D01*
X270475Y130729D01*
X270502Y130658D01*
X270533Y130587D01*
X270568Y130519D01*
X270606Y130452D01*
X270647Y130387D01*
X270691Y130324D01*
X270738Y130264D01*
X270789Y130205D01*
X270842Y130150D01*
X270897Y130097D01*
X270956Y130046D01*
X271016Y129999D01*
X271079Y129955D01*
X271144Y129914D01*
X271211Y129876D01*
X271279Y129841D01*
X271350Y129810D01*
X271421Y129783D01*
X271494Y129758D01*
X271568Y129738D01*
X271643Y129721D01*
X271719Y129708D01*
X271796Y129699D01*
X271872Y129693D01*
X271949Y129691D01*
X274560Y129691D01*
X274650Y129693D01*
X274739Y129699D01*
X274829Y129708D01*
X274918Y129722D01*
X275006Y129739D01*
X275093Y129760D01*
X275180Y129785D01*
X275265Y129814D01*
X275349Y129846D01*
X275431Y129881D01*
X275512Y129921D01*
X275591Y129963D01*
X275668Y130009D01*
X275743Y130059D01*
X275816Y130111D01*
X275887Y130167D01*
X275955Y130225D01*
X276020Y130287D01*
X276083Y130351D01*
X276143Y130418D01*
X276200Y130487D01*
X276254Y130559D01*
X276305Y130633D01*
X276353Y130709D01*
X276397Y130787D01*
X276438Y130867D01*
X276476Y130949D01*
X276510Y131032D01*
X276540Y131117D01*
X276567Y131203D01*
X276590Y131289D01*
X276609Y131377D01*
X276624Y131466D01*
X276636Y131555D01*
X276644Y131644D01*
X276648Y131734D01*
X276648Y131824D01*
X276644Y131914D01*
X276636Y132003D01*
X276624Y132092D01*
X276609Y132181D01*
X276590Y132269D01*
X276567Y132355D01*
X276540Y132441D01*
X276510Y132526D01*
X276476Y132609D01*
X276438Y132691D01*
X276397Y132771D01*
X276353Y132849D01*
X276305Y132925D01*
X276254Y132999D01*
X276200Y133071D01*
X276143Y133140D01*
X276083Y133207D01*
X276020Y133271D01*
X275955Y133333D01*
X275887Y133391D01*
X275816Y133447D01*
X275743Y133499D01*
X275668Y133549D01*
X275591Y133595D01*
X275512Y133637D01*
X275431Y133677D01*
X275349Y133712D01*
X275265Y133744D01*
X275180Y133773D01*
X275093Y133798D01*
X275006Y133819D01*
X274918Y133836D01*
X274829Y133850D01*
X274739Y133859D01*
X274650Y133865D01*
X274560Y133867D01*
X274560Y133868D02*
X273516Y133868D01*
X273516Y129691D01*
X274038Y139397D02*
X274038Y141747D01*
X274037Y139397D02*
X274035Y139313D01*
X274029Y139228D01*
X274019Y139145D01*
X274006Y139061D01*
X273988Y138979D01*
X273967Y138897D01*
X273942Y138816D01*
X273914Y138737D01*
X273881Y138659D01*
X273845Y138583D01*
X273806Y138508D01*
X273763Y138435D01*
X273717Y138364D01*
X273668Y138296D01*
X273616Y138230D01*
X273560Y138166D01*
X273502Y138105D01*
X273441Y138047D01*
X273377Y137991D01*
X273311Y137939D01*
X273243Y137890D01*
X273172Y137844D01*
X273099Y137801D01*
X273024Y137762D01*
X272948Y137726D01*
X272870Y137693D01*
X272791Y137665D01*
X272710Y137640D01*
X272628Y137619D01*
X272546Y137601D01*
X272462Y137588D01*
X272379Y137578D01*
X272294Y137572D01*
X272210Y137570D01*
X272126Y137572D01*
X272041Y137578D01*
X271958Y137588D01*
X271874Y137601D01*
X271792Y137619D01*
X271710Y137640D01*
X271629Y137665D01*
X271550Y137693D01*
X271472Y137726D01*
X271396Y137762D01*
X271321Y137801D01*
X271248Y137844D01*
X271177Y137890D01*
X271109Y137939D01*
X271043Y137991D01*
X270979Y138047D01*
X270918Y138105D01*
X270860Y138166D01*
X270804Y138230D01*
X270752Y138296D01*
X270703Y138364D01*
X270657Y138435D01*
X270614Y138508D01*
X270575Y138583D01*
X270539Y138659D01*
X270506Y138737D01*
X270478Y138816D01*
X270453Y138897D01*
X270432Y138979D01*
X270414Y139061D01*
X270401Y139145D01*
X270391Y139228D01*
X270385Y139313D01*
X270383Y139397D01*
X270383Y141747D01*
X275082Y141747D01*
X275159Y141745D01*
X275235Y141739D01*
X275312Y141730D01*
X275388Y141717D01*
X275463Y141700D01*
X275537Y141680D01*
X275610Y141655D01*
X275681Y141628D01*
X275752Y141597D01*
X275820Y141562D01*
X275887Y141524D01*
X275952Y141483D01*
X276015Y141439D01*
X276075Y141392D01*
X276134Y141341D01*
X276189Y141288D01*
X276242Y141233D01*
X276293Y141174D01*
X276340Y141114D01*
X276384Y141051D01*
X276425Y140986D01*
X276463Y140919D01*
X276498Y140851D01*
X276529Y140780D01*
X276556Y140709D01*
X276581Y140636D01*
X276601Y140562D01*
X276618Y140487D01*
X276631Y140411D01*
X276640Y140334D01*
X276646Y140258D01*
X276648Y140181D01*
X276648Y138092D01*
X279781Y146255D02*
X270383Y146255D01*
X273516Y146255D02*
X276648Y150432D01*
X274821Y148082D02*
X270383Y150432D01*
X272471Y153770D02*
X274560Y153770D01*
X274650Y153772D01*
X274739Y153778D01*
X274829Y153787D01*
X274918Y153801D01*
X275006Y153818D01*
X275093Y153839D01*
X275180Y153864D01*
X275265Y153893D01*
X275349Y153925D01*
X275431Y153960D01*
X275512Y154000D01*
X275591Y154042D01*
X275668Y154088D01*
X275743Y154138D01*
X275816Y154190D01*
X275887Y154246D01*
X275955Y154304D01*
X276020Y154366D01*
X276083Y154430D01*
X276143Y154497D01*
X276200Y154566D01*
X276254Y154638D01*
X276305Y154712D01*
X276353Y154788D01*
X276397Y154866D01*
X276438Y154946D01*
X276476Y155028D01*
X276510Y155111D01*
X276540Y155196D01*
X276567Y155282D01*
X276590Y155368D01*
X276609Y155456D01*
X276624Y155545D01*
X276636Y155634D01*
X276644Y155723D01*
X276648Y155813D01*
X276648Y155903D01*
X276644Y155993D01*
X276636Y156082D01*
X276624Y156171D01*
X276609Y156260D01*
X276590Y156348D01*
X276567Y156434D01*
X276540Y156520D01*
X276510Y156605D01*
X276476Y156688D01*
X276438Y156770D01*
X276397Y156850D01*
X276353Y156928D01*
X276305Y157004D01*
X276254Y157078D01*
X276200Y157150D01*
X276143Y157219D01*
X276083Y157286D01*
X276020Y157350D01*
X275955Y157412D01*
X275887Y157470D01*
X275816Y157526D01*
X275743Y157578D01*
X275668Y157628D01*
X275591Y157674D01*
X275512Y157716D01*
X275431Y157756D01*
X275349Y157791D01*
X275265Y157823D01*
X275180Y157852D01*
X275093Y157877D01*
X275006Y157898D01*
X274918Y157915D01*
X274829Y157929D01*
X274739Y157938D01*
X274650Y157944D01*
X274560Y157946D01*
X274560Y157947D02*
X272471Y157947D01*
X272471Y157946D02*
X272381Y157944D01*
X272292Y157938D01*
X272202Y157929D01*
X272113Y157915D01*
X272025Y157898D01*
X271938Y157877D01*
X271851Y157852D01*
X271766Y157823D01*
X271682Y157791D01*
X271600Y157756D01*
X271519Y157716D01*
X271440Y157674D01*
X271363Y157628D01*
X271288Y157578D01*
X271215Y157526D01*
X271144Y157470D01*
X271076Y157412D01*
X271011Y157350D01*
X270948Y157286D01*
X270888Y157219D01*
X270831Y157150D01*
X270777Y157078D01*
X270726Y157004D01*
X270678Y156928D01*
X270634Y156850D01*
X270593Y156770D01*
X270555Y156688D01*
X270521Y156605D01*
X270491Y156520D01*
X270464Y156434D01*
X270441Y156348D01*
X270422Y156260D01*
X270407Y156171D01*
X270395Y156082D01*
X270387Y155993D01*
X270383Y155903D01*
X270383Y155813D01*
X270387Y155723D01*
X270395Y155634D01*
X270407Y155545D01*
X270422Y155456D01*
X270441Y155368D01*
X270464Y155282D01*
X270491Y155196D01*
X270521Y155111D01*
X270555Y155028D01*
X270593Y154946D01*
X270634Y154866D01*
X270678Y154788D01*
X270726Y154712D01*
X270777Y154638D01*
X270831Y154566D01*
X270888Y154497D01*
X270948Y154430D01*
X271011Y154366D01*
X271076Y154304D01*
X271144Y154246D01*
X271215Y154190D01*
X271288Y154138D01*
X271363Y154088D01*
X271440Y154042D01*
X271519Y154000D01*
X271600Y153960D01*
X271682Y153925D01*
X271766Y153893D01*
X271851Y153864D01*
X271938Y153839D01*
X272025Y153818D01*
X272113Y153801D01*
X272202Y153787D01*
X272292Y153778D01*
X272381Y153772D01*
X272471Y153770D01*
X271949Y161999D02*
X276648Y161999D01*
X271949Y162000D02*
X271872Y162002D01*
X271796Y162008D01*
X271719Y162017D01*
X271643Y162030D01*
X271568Y162047D01*
X271494Y162067D01*
X271421Y162092D01*
X271350Y162119D01*
X271279Y162150D01*
X271211Y162185D01*
X271144Y162223D01*
X271079Y162264D01*
X271016Y162308D01*
X270956Y162355D01*
X270897Y162406D01*
X270842Y162459D01*
X270789Y162514D01*
X270738Y162573D01*
X270691Y162633D01*
X270647Y162696D01*
X270606Y162761D01*
X270568Y162828D01*
X270533Y162896D01*
X270502Y162967D01*
X270475Y163038D01*
X270450Y163111D01*
X270430Y163185D01*
X270413Y163260D01*
X270400Y163336D01*
X270391Y163413D01*
X270385Y163489D01*
X270383Y163566D01*
X270383Y166176D01*
X276648Y166176D01*
X276648Y169460D02*
X276648Y172593D01*
X279781Y170505D02*
X271949Y170505D01*
X271872Y170507D01*
X271796Y170513D01*
X271719Y170522D01*
X271643Y170535D01*
X271568Y170552D01*
X271494Y170572D01*
X271421Y170597D01*
X271350Y170624D01*
X271279Y170655D01*
X271211Y170690D01*
X271144Y170728D01*
X271079Y170769D01*
X271016Y170813D01*
X270956Y170860D01*
X270897Y170911D01*
X270842Y170964D01*
X270789Y171019D01*
X270738Y171078D01*
X270691Y171138D01*
X270647Y171201D01*
X270606Y171266D01*
X270568Y171333D01*
X270533Y171401D01*
X270502Y171472D01*
X270475Y171543D01*
X270450Y171616D01*
X270430Y171690D01*
X270413Y171765D01*
X270400Y171841D01*
X270391Y171918D01*
X270385Y171994D01*
X270383Y172071D01*
X270383Y172593D01*
D11*
X140716Y146558D03*
D12*
X144272Y111749D02*
X142692Y109773D01*
X144272Y111749D02*
X137160Y111749D01*
X137160Y113724D02*
X137160Y109773D01*
X140716Y116631D02*
X140864Y116633D01*
X141011Y116638D01*
X141159Y116648D01*
X141306Y116661D01*
X141453Y116677D01*
X141599Y116698D01*
X141745Y116722D01*
X141890Y116750D01*
X142034Y116781D01*
X142177Y116816D01*
X142320Y116855D01*
X142461Y116897D01*
X142602Y116943D01*
X142741Y116992D01*
X142879Y117045D01*
X143016Y117101D01*
X143151Y117161D01*
X143284Y117224D01*
X143355Y117250D01*
X143424Y117280D01*
X143492Y117314D01*
X143558Y117351D01*
X143622Y117391D01*
X143684Y117435D01*
X143743Y117481D01*
X143800Y117531D01*
X143854Y117584D01*
X143906Y117639D01*
X143954Y117697D01*
X144000Y117757D01*
X144042Y117820D01*
X144081Y117885D01*
X144117Y117951D01*
X144149Y118020D01*
X144177Y118089D01*
X144202Y118161D01*
X144223Y118233D01*
X144241Y118307D01*
X144254Y118381D01*
X144264Y118456D01*
X144270Y118531D01*
X144272Y118607D01*
X144270Y118683D01*
X144264Y118758D01*
X144254Y118833D01*
X144241Y118907D01*
X144223Y118981D01*
X144202Y119053D01*
X144177Y119124D01*
X144149Y119194D01*
X144117Y119263D01*
X144081Y119329D01*
X144042Y119394D01*
X144000Y119457D01*
X143954Y119517D01*
X143906Y119575D01*
X143854Y119630D01*
X143800Y119683D01*
X143743Y119733D01*
X143684Y119779D01*
X143622Y119823D01*
X143558Y119863D01*
X143492Y119900D01*
X143424Y119934D01*
X143355Y119964D01*
X143284Y119990D01*
X143284Y119989D02*
X143151Y120052D01*
X143016Y120112D01*
X142879Y120168D01*
X142741Y120221D01*
X142602Y120270D01*
X142461Y120316D01*
X142320Y120358D01*
X142177Y120397D01*
X142034Y120432D01*
X141890Y120463D01*
X141745Y120491D01*
X141599Y120515D01*
X141453Y120536D01*
X141306Y120552D01*
X141159Y120565D01*
X141011Y120575D01*
X140864Y120580D01*
X140716Y120582D01*
X140716Y116631D02*
X140568Y116633D01*
X140421Y116638D01*
X140273Y116648D01*
X140126Y116661D01*
X139979Y116677D01*
X139833Y116698D01*
X139688Y116722D01*
X139542Y116750D01*
X139398Y116781D01*
X139255Y116816D01*
X139112Y116855D01*
X138971Y116897D01*
X138830Y116943D01*
X138691Y116992D01*
X138553Y117045D01*
X138416Y117101D01*
X138281Y117161D01*
X138148Y117224D01*
X138077Y117250D01*
X138008Y117280D01*
X137940Y117314D01*
X137874Y117351D01*
X137810Y117391D01*
X137748Y117435D01*
X137689Y117481D01*
X137632Y117531D01*
X137578Y117584D01*
X137526Y117639D01*
X137478Y117697D01*
X137432Y117757D01*
X137390Y117820D01*
X137351Y117885D01*
X137315Y117951D01*
X137283Y118020D01*
X137255Y118090D01*
X137230Y118161D01*
X137209Y118233D01*
X137191Y118307D01*
X137178Y118381D01*
X137168Y118456D01*
X137162Y118531D01*
X137160Y118607D01*
X138148Y119989D02*
X138281Y120052D01*
X138416Y120112D01*
X138553Y120168D01*
X138691Y120221D01*
X138830Y120270D01*
X138971Y120316D01*
X139112Y120358D01*
X139255Y120397D01*
X139398Y120432D01*
X139542Y120463D01*
X139688Y120491D01*
X139833Y120515D01*
X139979Y120536D01*
X140126Y120552D01*
X140273Y120565D01*
X140421Y120575D01*
X140568Y120580D01*
X140716Y120582D01*
X138148Y119990D02*
X138077Y119964D01*
X138008Y119934D01*
X137940Y119900D01*
X137874Y119863D01*
X137810Y119823D01*
X137748Y119779D01*
X137689Y119733D01*
X137632Y119683D01*
X137578Y119630D01*
X137526Y119575D01*
X137478Y119517D01*
X137432Y119457D01*
X137390Y119394D01*
X137351Y119329D01*
X137315Y119263D01*
X137283Y119194D01*
X137255Y119124D01*
X137230Y119053D01*
X137209Y118981D01*
X137191Y118907D01*
X137178Y118833D01*
X137168Y118758D01*
X137162Y118683D01*
X137160Y118607D01*
X138740Y117026D02*
X142692Y120187D01*
X144272Y123811D02*
X137160Y123811D01*
X139926Y123811D02*
X144272Y127762D01*
X141506Y125391D02*
X137160Y127762D01*
D11*
X114046Y145288D03*
D12*
X100838Y160472D02*
X98862Y162052D01*
X98862Y154940D01*
X96887Y154940D02*
X100838Y154940D01*
X93980Y158496D02*
X93978Y158644D01*
X93973Y158791D01*
X93963Y158939D01*
X93950Y159086D01*
X93934Y159233D01*
X93913Y159379D01*
X93889Y159525D01*
X93861Y159670D01*
X93830Y159814D01*
X93795Y159957D01*
X93756Y160100D01*
X93714Y160241D01*
X93668Y160382D01*
X93619Y160521D01*
X93566Y160659D01*
X93510Y160796D01*
X93450Y160931D01*
X93387Y161064D01*
X93388Y161064D02*
X93362Y161135D01*
X93332Y161204D01*
X93298Y161272D01*
X93261Y161338D01*
X93221Y161402D01*
X93177Y161464D01*
X93131Y161523D01*
X93081Y161580D01*
X93028Y161634D01*
X92973Y161686D01*
X92915Y161734D01*
X92855Y161780D01*
X92792Y161822D01*
X92727Y161861D01*
X92661Y161897D01*
X92592Y161929D01*
X92523Y161957D01*
X92451Y161982D01*
X92379Y162003D01*
X92305Y162021D01*
X92231Y162034D01*
X92156Y162044D01*
X92081Y162050D01*
X92005Y162052D01*
X91929Y162050D01*
X91854Y162044D01*
X91779Y162034D01*
X91705Y162021D01*
X91631Y162003D01*
X91559Y161982D01*
X91488Y161957D01*
X91418Y161929D01*
X91349Y161897D01*
X91283Y161861D01*
X91218Y161822D01*
X91155Y161780D01*
X91095Y161734D01*
X91037Y161686D01*
X90982Y161634D01*
X90929Y161580D01*
X90879Y161523D01*
X90833Y161464D01*
X90789Y161402D01*
X90749Y161338D01*
X90712Y161272D01*
X90678Y161204D01*
X90648Y161135D01*
X90622Y161064D01*
X90559Y160931D01*
X90499Y160796D01*
X90443Y160659D01*
X90390Y160521D01*
X90341Y160382D01*
X90295Y160241D01*
X90253Y160100D01*
X90214Y159957D01*
X90179Y159814D01*
X90148Y159670D01*
X90120Y159525D01*
X90096Y159379D01*
X90075Y159233D01*
X90059Y159086D01*
X90046Y158939D01*
X90036Y158791D01*
X90031Y158644D01*
X90029Y158496D01*
X93980Y158496D02*
X93978Y158348D01*
X93973Y158201D01*
X93963Y158053D01*
X93950Y157906D01*
X93934Y157759D01*
X93913Y157613D01*
X93889Y157468D01*
X93861Y157322D01*
X93830Y157178D01*
X93795Y157035D01*
X93756Y156892D01*
X93714Y156751D01*
X93668Y156610D01*
X93619Y156471D01*
X93566Y156333D01*
X93510Y156196D01*
X93450Y156061D01*
X93387Y155928D01*
X93388Y155928D02*
X93362Y155857D01*
X93332Y155788D01*
X93298Y155720D01*
X93261Y155654D01*
X93221Y155590D01*
X93177Y155528D01*
X93131Y155469D01*
X93081Y155412D01*
X93028Y155358D01*
X92973Y155306D01*
X92915Y155258D01*
X92855Y155212D01*
X92792Y155170D01*
X92727Y155131D01*
X92661Y155095D01*
X92592Y155063D01*
X92522Y155035D01*
X92451Y155010D01*
X92379Y154989D01*
X92305Y154971D01*
X92231Y154958D01*
X92156Y154948D01*
X92081Y154942D01*
X92005Y154940D01*
X90622Y155928D02*
X90559Y156061D01*
X90499Y156196D01*
X90443Y156333D01*
X90390Y156471D01*
X90341Y156610D01*
X90295Y156751D01*
X90253Y156892D01*
X90214Y157035D01*
X90179Y157178D01*
X90148Y157322D01*
X90120Y157468D01*
X90096Y157613D01*
X90075Y157759D01*
X90059Y157906D01*
X90046Y158053D01*
X90036Y158201D01*
X90031Y158348D01*
X90029Y158496D01*
X90622Y155928D02*
X90648Y155857D01*
X90678Y155788D01*
X90712Y155720D01*
X90749Y155654D01*
X90789Y155590D01*
X90833Y155528D01*
X90879Y155469D01*
X90929Y155412D01*
X90982Y155358D01*
X91037Y155306D01*
X91095Y155258D01*
X91155Y155212D01*
X91218Y155170D01*
X91283Y155131D01*
X91349Y155095D01*
X91418Y155063D01*
X91488Y155035D01*
X91559Y155010D01*
X91631Y154989D01*
X91705Y154971D01*
X91779Y154958D01*
X91854Y154948D01*
X91929Y154942D01*
X92005Y154940D01*
X93585Y156520D02*
X90424Y160472D01*
X86800Y162052D02*
X86800Y154940D01*
X86800Y157706D02*
X82849Y162052D01*
X85220Y159286D02*
X82849Y154940D01*
D11*
X164084Y53848D03*
D12*
X166314Y72943D02*
X167894Y74919D01*
X160782Y74919D01*
X160782Y76894D02*
X160782Y72943D01*
X164338Y79801D02*
X164486Y79803D01*
X164633Y79808D01*
X164781Y79818D01*
X164928Y79831D01*
X165075Y79847D01*
X165221Y79868D01*
X165367Y79892D01*
X165512Y79920D01*
X165656Y79951D01*
X165799Y79986D01*
X165942Y80025D01*
X166083Y80067D01*
X166224Y80113D01*
X166363Y80162D01*
X166501Y80215D01*
X166638Y80271D01*
X166773Y80331D01*
X166906Y80394D01*
X166977Y80420D01*
X167046Y80450D01*
X167114Y80484D01*
X167180Y80521D01*
X167244Y80561D01*
X167306Y80605D01*
X167365Y80651D01*
X167422Y80701D01*
X167476Y80754D01*
X167528Y80809D01*
X167576Y80867D01*
X167622Y80927D01*
X167664Y80990D01*
X167703Y81055D01*
X167739Y81121D01*
X167771Y81190D01*
X167799Y81259D01*
X167824Y81331D01*
X167845Y81403D01*
X167863Y81477D01*
X167876Y81551D01*
X167886Y81626D01*
X167892Y81701D01*
X167894Y81777D01*
X167892Y81853D01*
X167886Y81928D01*
X167876Y82003D01*
X167863Y82077D01*
X167845Y82151D01*
X167824Y82223D01*
X167799Y82294D01*
X167771Y82364D01*
X167739Y82433D01*
X167703Y82499D01*
X167664Y82564D01*
X167622Y82627D01*
X167576Y82687D01*
X167528Y82745D01*
X167476Y82800D01*
X167422Y82853D01*
X167365Y82903D01*
X167306Y82949D01*
X167244Y82993D01*
X167180Y83033D01*
X167114Y83070D01*
X167046Y83104D01*
X166977Y83134D01*
X166906Y83160D01*
X166906Y83159D02*
X166773Y83222D01*
X166638Y83282D01*
X166501Y83338D01*
X166363Y83391D01*
X166224Y83440D01*
X166083Y83486D01*
X165942Y83528D01*
X165799Y83567D01*
X165656Y83602D01*
X165512Y83633D01*
X165367Y83661D01*
X165221Y83685D01*
X165075Y83706D01*
X164928Y83722D01*
X164781Y83735D01*
X164633Y83745D01*
X164486Y83750D01*
X164338Y83752D01*
X164338Y79801D02*
X164190Y79803D01*
X164043Y79808D01*
X163895Y79818D01*
X163748Y79831D01*
X163601Y79847D01*
X163455Y79868D01*
X163310Y79892D01*
X163164Y79920D01*
X163020Y79951D01*
X162877Y79986D01*
X162734Y80025D01*
X162593Y80067D01*
X162452Y80113D01*
X162313Y80162D01*
X162175Y80215D01*
X162038Y80271D01*
X161903Y80331D01*
X161770Y80394D01*
X161699Y80420D01*
X161630Y80450D01*
X161562Y80484D01*
X161496Y80521D01*
X161432Y80561D01*
X161370Y80605D01*
X161311Y80651D01*
X161254Y80701D01*
X161200Y80754D01*
X161148Y80809D01*
X161100Y80867D01*
X161054Y80927D01*
X161012Y80990D01*
X160973Y81055D01*
X160937Y81121D01*
X160905Y81190D01*
X160877Y81260D01*
X160852Y81331D01*
X160831Y81403D01*
X160813Y81477D01*
X160800Y81551D01*
X160790Y81626D01*
X160784Y81701D01*
X160782Y81777D01*
X161770Y83159D02*
X161903Y83222D01*
X162038Y83282D01*
X162175Y83338D01*
X162313Y83391D01*
X162452Y83440D01*
X162593Y83486D01*
X162734Y83528D01*
X162877Y83567D01*
X163020Y83602D01*
X163164Y83633D01*
X163310Y83661D01*
X163455Y83685D01*
X163601Y83706D01*
X163748Y83722D01*
X163895Y83735D01*
X164043Y83745D01*
X164190Y83750D01*
X164338Y83752D01*
X161770Y83160D02*
X161699Y83134D01*
X161630Y83104D01*
X161562Y83070D01*
X161496Y83033D01*
X161432Y82993D01*
X161370Y82949D01*
X161311Y82903D01*
X161254Y82853D01*
X161200Y82800D01*
X161148Y82745D01*
X161100Y82687D01*
X161054Y82627D01*
X161012Y82564D01*
X160973Y82499D01*
X160937Y82433D01*
X160905Y82364D01*
X160877Y82294D01*
X160852Y82223D01*
X160831Y82151D01*
X160813Y82077D01*
X160800Y82003D01*
X160790Y81928D01*
X160784Y81853D01*
X160782Y81777D01*
X162362Y80196D02*
X166314Y83357D01*
X167894Y86981D02*
X160782Y86981D01*
X163548Y86981D02*
X167894Y90932D01*
X165128Y88561D02*
X160782Y90932D01*
D11*
X139446Y53594D03*
D12*
X130556Y46426D02*
X128976Y44450D01*
X130556Y46426D02*
X123444Y46426D01*
X123444Y48401D02*
X123444Y44450D01*
X127000Y51308D02*
X127148Y51310D01*
X127295Y51315D01*
X127443Y51325D01*
X127590Y51338D01*
X127737Y51354D01*
X127883Y51375D01*
X128029Y51399D01*
X128174Y51427D01*
X128318Y51458D01*
X128461Y51493D01*
X128604Y51532D01*
X128745Y51574D01*
X128886Y51620D01*
X129025Y51669D01*
X129163Y51722D01*
X129300Y51778D01*
X129435Y51838D01*
X129568Y51901D01*
X129639Y51927D01*
X129708Y51957D01*
X129776Y51991D01*
X129842Y52028D01*
X129906Y52068D01*
X129968Y52112D01*
X130027Y52158D01*
X130084Y52208D01*
X130138Y52261D01*
X130190Y52316D01*
X130238Y52374D01*
X130284Y52434D01*
X130326Y52497D01*
X130365Y52562D01*
X130401Y52628D01*
X130433Y52697D01*
X130461Y52766D01*
X130486Y52838D01*
X130507Y52910D01*
X130525Y52984D01*
X130538Y53058D01*
X130548Y53133D01*
X130554Y53208D01*
X130556Y53284D01*
X130554Y53360D01*
X130548Y53435D01*
X130538Y53510D01*
X130525Y53584D01*
X130507Y53658D01*
X130486Y53730D01*
X130461Y53801D01*
X130433Y53871D01*
X130401Y53940D01*
X130365Y54006D01*
X130326Y54071D01*
X130284Y54134D01*
X130238Y54194D01*
X130190Y54252D01*
X130138Y54307D01*
X130084Y54360D01*
X130027Y54410D01*
X129968Y54456D01*
X129906Y54500D01*
X129842Y54540D01*
X129776Y54577D01*
X129708Y54611D01*
X129639Y54641D01*
X129568Y54667D01*
X129568Y54666D02*
X129435Y54729D01*
X129300Y54789D01*
X129163Y54845D01*
X129025Y54898D01*
X128886Y54947D01*
X128745Y54993D01*
X128604Y55035D01*
X128461Y55074D01*
X128318Y55109D01*
X128174Y55140D01*
X128029Y55168D01*
X127883Y55192D01*
X127737Y55213D01*
X127590Y55229D01*
X127443Y55242D01*
X127295Y55252D01*
X127148Y55257D01*
X127000Y55259D01*
X127000Y51308D02*
X126852Y51310D01*
X126705Y51315D01*
X126557Y51325D01*
X126410Y51338D01*
X126263Y51354D01*
X126117Y51375D01*
X125972Y51399D01*
X125826Y51427D01*
X125682Y51458D01*
X125539Y51493D01*
X125396Y51532D01*
X125255Y51574D01*
X125114Y51620D01*
X124975Y51669D01*
X124837Y51722D01*
X124700Y51778D01*
X124565Y51838D01*
X124432Y51901D01*
X124361Y51927D01*
X124292Y51957D01*
X124224Y51991D01*
X124158Y52028D01*
X124094Y52068D01*
X124032Y52112D01*
X123973Y52158D01*
X123916Y52208D01*
X123862Y52261D01*
X123810Y52316D01*
X123762Y52374D01*
X123716Y52434D01*
X123674Y52497D01*
X123635Y52562D01*
X123599Y52628D01*
X123567Y52697D01*
X123539Y52767D01*
X123514Y52838D01*
X123493Y52910D01*
X123475Y52984D01*
X123462Y53058D01*
X123452Y53133D01*
X123446Y53208D01*
X123444Y53284D01*
X124432Y54666D02*
X124565Y54729D01*
X124700Y54789D01*
X124837Y54845D01*
X124975Y54898D01*
X125114Y54947D01*
X125255Y54993D01*
X125396Y55035D01*
X125539Y55074D01*
X125682Y55109D01*
X125826Y55140D01*
X125972Y55168D01*
X126117Y55192D01*
X126263Y55213D01*
X126410Y55229D01*
X126557Y55242D01*
X126705Y55252D01*
X126852Y55257D01*
X127000Y55259D01*
X124432Y54667D02*
X124361Y54641D01*
X124292Y54611D01*
X124224Y54577D01*
X124158Y54540D01*
X124094Y54500D01*
X124032Y54456D01*
X123973Y54410D01*
X123916Y54360D01*
X123862Y54307D01*
X123810Y54252D01*
X123762Y54194D01*
X123716Y54134D01*
X123674Y54071D01*
X123635Y54006D01*
X123599Y53940D01*
X123567Y53871D01*
X123539Y53801D01*
X123514Y53730D01*
X123493Y53658D01*
X123475Y53584D01*
X123462Y53510D01*
X123452Y53435D01*
X123446Y53360D01*
X123444Y53284D01*
X125024Y51703D02*
X128976Y54864D01*
X130556Y58488D02*
X123444Y58488D01*
X126210Y58488D02*
X130556Y62439D01*
X127790Y60068D02*
X123444Y62439D01*
D13*
X197358Y64516D03*
D12*
X202890Y74676D02*
X204470Y76652D01*
X197358Y76652D01*
X197358Y78627D02*
X197358Y74676D01*
X200914Y81534D02*
X201062Y81536D01*
X201209Y81541D01*
X201357Y81551D01*
X201504Y81564D01*
X201651Y81580D01*
X201797Y81601D01*
X201943Y81625D01*
X202088Y81653D01*
X202232Y81684D01*
X202375Y81719D01*
X202518Y81758D01*
X202659Y81800D01*
X202800Y81846D01*
X202939Y81895D01*
X203077Y81948D01*
X203214Y82004D01*
X203349Y82064D01*
X203482Y82127D01*
X203553Y82153D01*
X203622Y82183D01*
X203690Y82217D01*
X203756Y82254D01*
X203820Y82294D01*
X203882Y82338D01*
X203941Y82384D01*
X203998Y82434D01*
X204052Y82487D01*
X204104Y82542D01*
X204152Y82600D01*
X204198Y82660D01*
X204240Y82723D01*
X204279Y82788D01*
X204315Y82854D01*
X204347Y82923D01*
X204375Y82992D01*
X204400Y83064D01*
X204421Y83136D01*
X204439Y83210D01*
X204452Y83284D01*
X204462Y83359D01*
X204468Y83434D01*
X204470Y83510D01*
X204468Y83586D01*
X204462Y83661D01*
X204452Y83736D01*
X204439Y83810D01*
X204421Y83884D01*
X204400Y83956D01*
X204375Y84027D01*
X204347Y84097D01*
X204315Y84166D01*
X204279Y84232D01*
X204240Y84297D01*
X204198Y84360D01*
X204152Y84420D01*
X204104Y84478D01*
X204052Y84533D01*
X203998Y84586D01*
X203941Y84636D01*
X203882Y84682D01*
X203820Y84726D01*
X203756Y84766D01*
X203690Y84803D01*
X203622Y84837D01*
X203553Y84867D01*
X203482Y84893D01*
X203482Y84892D02*
X203349Y84955D01*
X203214Y85015D01*
X203077Y85071D01*
X202939Y85124D01*
X202800Y85173D01*
X202659Y85219D01*
X202518Y85261D01*
X202375Y85300D01*
X202232Y85335D01*
X202088Y85366D01*
X201943Y85394D01*
X201797Y85418D01*
X201651Y85439D01*
X201504Y85455D01*
X201357Y85468D01*
X201209Y85478D01*
X201062Y85483D01*
X200914Y85485D01*
X200914Y81534D02*
X200766Y81536D01*
X200619Y81541D01*
X200471Y81551D01*
X200324Y81564D01*
X200177Y81580D01*
X200031Y81601D01*
X199886Y81625D01*
X199740Y81653D01*
X199596Y81684D01*
X199453Y81719D01*
X199310Y81758D01*
X199169Y81800D01*
X199028Y81846D01*
X198889Y81895D01*
X198751Y81948D01*
X198614Y82004D01*
X198479Y82064D01*
X198346Y82127D01*
X198275Y82153D01*
X198206Y82183D01*
X198138Y82217D01*
X198072Y82254D01*
X198008Y82294D01*
X197946Y82338D01*
X197887Y82384D01*
X197830Y82434D01*
X197776Y82487D01*
X197724Y82542D01*
X197676Y82600D01*
X197630Y82660D01*
X197588Y82723D01*
X197549Y82788D01*
X197513Y82854D01*
X197481Y82923D01*
X197453Y82993D01*
X197428Y83064D01*
X197407Y83136D01*
X197389Y83210D01*
X197376Y83284D01*
X197366Y83359D01*
X197360Y83434D01*
X197358Y83510D01*
X198346Y84892D02*
X198479Y84955D01*
X198614Y85015D01*
X198751Y85071D01*
X198889Y85124D01*
X199028Y85173D01*
X199169Y85219D01*
X199310Y85261D01*
X199453Y85300D01*
X199596Y85335D01*
X199740Y85366D01*
X199886Y85394D01*
X200031Y85418D01*
X200177Y85439D01*
X200324Y85455D01*
X200471Y85468D01*
X200619Y85478D01*
X200766Y85483D01*
X200914Y85485D01*
X198346Y84893D02*
X198275Y84867D01*
X198206Y84837D01*
X198138Y84803D01*
X198072Y84766D01*
X198008Y84726D01*
X197946Y84682D01*
X197887Y84636D01*
X197830Y84586D01*
X197776Y84533D01*
X197724Y84478D01*
X197676Y84420D01*
X197630Y84360D01*
X197588Y84297D01*
X197549Y84232D01*
X197513Y84166D01*
X197481Y84097D01*
X197453Y84027D01*
X197428Y83956D01*
X197407Y83884D01*
X197389Y83810D01*
X197376Y83736D01*
X197366Y83661D01*
X197360Y83586D01*
X197358Y83510D01*
X198938Y81929D02*
X202890Y85090D01*
X204470Y88714D02*
X197358Y88714D01*
X200124Y88714D02*
X204470Y92665D01*
X201704Y90294D02*
X197358Y92665D01*
D11*
X165608Y147574D03*
D12*
X168656Y112257D02*
X167076Y110281D01*
X168656Y112257D02*
X161544Y112257D01*
X161544Y114232D02*
X161544Y110281D01*
X165100Y117139D02*
X165248Y117141D01*
X165395Y117146D01*
X165543Y117156D01*
X165690Y117169D01*
X165837Y117185D01*
X165983Y117206D01*
X166129Y117230D01*
X166274Y117258D01*
X166418Y117289D01*
X166561Y117324D01*
X166704Y117363D01*
X166845Y117405D01*
X166986Y117451D01*
X167125Y117500D01*
X167263Y117553D01*
X167400Y117609D01*
X167535Y117669D01*
X167668Y117732D01*
X167739Y117758D01*
X167808Y117788D01*
X167876Y117822D01*
X167942Y117859D01*
X168006Y117899D01*
X168068Y117943D01*
X168127Y117989D01*
X168184Y118039D01*
X168238Y118092D01*
X168290Y118147D01*
X168338Y118205D01*
X168384Y118265D01*
X168426Y118328D01*
X168465Y118393D01*
X168501Y118459D01*
X168533Y118528D01*
X168561Y118597D01*
X168586Y118669D01*
X168607Y118741D01*
X168625Y118815D01*
X168638Y118889D01*
X168648Y118964D01*
X168654Y119039D01*
X168656Y119115D01*
X168654Y119191D01*
X168648Y119266D01*
X168638Y119341D01*
X168625Y119415D01*
X168607Y119489D01*
X168586Y119561D01*
X168561Y119632D01*
X168533Y119702D01*
X168501Y119771D01*
X168465Y119837D01*
X168426Y119902D01*
X168384Y119965D01*
X168338Y120025D01*
X168290Y120083D01*
X168238Y120138D01*
X168184Y120191D01*
X168127Y120241D01*
X168068Y120287D01*
X168006Y120331D01*
X167942Y120371D01*
X167876Y120408D01*
X167808Y120442D01*
X167739Y120472D01*
X167668Y120498D01*
X167668Y120497D02*
X167535Y120560D01*
X167400Y120620D01*
X167263Y120676D01*
X167125Y120729D01*
X166986Y120778D01*
X166845Y120824D01*
X166704Y120866D01*
X166561Y120905D01*
X166418Y120940D01*
X166274Y120971D01*
X166129Y120999D01*
X165983Y121023D01*
X165837Y121044D01*
X165690Y121060D01*
X165543Y121073D01*
X165395Y121083D01*
X165248Y121088D01*
X165100Y121090D01*
X165100Y117139D02*
X164952Y117141D01*
X164805Y117146D01*
X164657Y117156D01*
X164510Y117169D01*
X164363Y117185D01*
X164217Y117206D01*
X164072Y117230D01*
X163926Y117258D01*
X163782Y117289D01*
X163639Y117324D01*
X163496Y117363D01*
X163355Y117405D01*
X163214Y117451D01*
X163075Y117500D01*
X162937Y117553D01*
X162800Y117609D01*
X162665Y117669D01*
X162532Y117732D01*
X162461Y117758D01*
X162392Y117788D01*
X162324Y117822D01*
X162258Y117859D01*
X162194Y117899D01*
X162132Y117943D01*
X162073Y117989D01*
X162016Y118039D01*
X161962Y118092D01*
X161910Y118147D01*
X161862Y118205D01*
X161816Y118265D01*
X161774Y118328D01*
X161735Y118393D01*
X161699Y118459D01*
X161667Y118528D01*
X161639Y118598D01*
X161614Y118669D01*
X161593Y118741D01*
X161575Y118815D01*
X161562Y118889D01*
X161552Y118964D01*
X161546Y119039D01*
X161544Y119115D01*
X162532Y120497D02*
X162665Y120560D01*
X162800Y120620D01*
X162937Y120676D01*
X163075Y120729D01*
X163214Y120778D01*
X163355Y120824D01*
X163496Y120866D01*
X163639Y120905D01*
X163782Y120940D01*
X163926Y120971D01*
X164072Y120999D01*
X164217Y121023D01*
X164363Y121044D01*
X164510Y121060D01*
X164657Y121073D01*
X164805Y121083D01*
X164952Y121088D01*
X165100Y121090D01*
X162532Y120498D02*
X162461Y120472D01*
X162392Y120442D01*
X162324Y120408D01*
X162258Y120371D01*
X162194Y120331D01*
X162132Y120287D01*
X162073Y120241D01*
X162016Y120191D01*
X161962Y120138D01*
X161910Y120083D01*
X161862Y120025D01*
X161816Y119965D01*
X161774Y119902D01*
X161735Y119837D01*
X161699Y119771D01*
X161667Y119702D01*
X161639Y119632D01*
X161614Y119561D01*
X161593Y119489D01*
X161575Y119415D01*
X161562Y119341D01*
X161552Y119266D01*
X161546Y119191D01*
X161544Y119115D01*
X163124Y117534D02*
X167076Y120695D01*
X168656Y124319D02*
X161544Y124319D01*
X164310Y124319D02*
X168656Y128270D01*
X165890Y125899D02*
X161544Y128270D01*
D11*
X191262Y147574D03*
D12*
X195326Y113228D02*
X193746Y111252D01*
X195326Y113228D02*
X188214Y113228D01*
X188214Y115203D02*
X188214Y111252D01*
X191770Y118110D02*
X191918Y118112D01*
X192065Y118117D01*
X192213Y118127D01*
X192360Y118140D01*
X192507Y118156D01*
X192653Y118177D01*
X192799Y118201D01*
X192944Y118229D01*
X193088Y118260D01*
X193231Y118295D01*
X193374Y118334D01*
X193515Y118376D01*
X193656Y118422D01*
X193795Y118471D01*
X193933Y118524D01*
X194070Y118580D01*
X194205Y118640D01*
X194338Y118703D01*
X194409Y118729D01*
X194478Y118759D01*
X194546Y118793D01*
X194612Y118830D01*
X194676Y118870D01*
X194738Y118914D01*
X194797Y118960D01*
X194854Y119010D01*
X194908Y119063D01*
X194960Y119118D01*
X195008Y119176D01*
X195054Y119236D01*
X195096Y119299D01*
X195135Y119364D01*
X195171Y119430D01*
X195203Y119499D01*
X195231Y119568D01*
X195256Y119640D01*
X195277Y119712D01*
X195295Y119786D01*
X195308Y119860D01*
X195318Y119935D01*
X195324Y120010D01*
X195326Y120086D01*
X195324Y120162D01*
X195318Y120237D01*
X195308Y120312D01*
X195295Y120386D01*
X195277Y120460D01*
X195256Y120532D01*
X195231Y120603D01*
X195203Y120673D01*
X195171Y120742D01*
X195135Y120808D01*
X195096Y120873D01*
X195054Y120936D01*
X195008Y120996D01*
X194960Y121054D01*
X194908Y121109D01*
X194854Y121162D01*
X194797Y121212D01*
X194738Y121258D01*
X194676Y121302D01*
X194612Y121342D01*
X194546Y121379D01*
X194478Y121413D01*
X194409Y121443D01*
X194338Y121469D01*
X194338Y121468D02*
X194205Y121531D01*
X194070Y121591D01*
X193933Y121647D01*
X193795Y121700D01*
X193656Y121749D01*
X193515Y121795D01*
X193374Y121837D01*
X193231Y121876D01*
X193088Y121911D01*
X192944Y121942D01*
X192799Y121970D01*
X192653Y121994D01*
X192507Y122015D01*
X192360Y122031D01*
X192213Y122044D01*
X192065Y122054D01*
X191918Y122059D01*
X191770Y122061D01*
X191770Y118110D02*
X191622Y118112D01*
X191475Y118117D01*
X191327Y118127D01*
X191180Y118140D01*
X191033Y118156D01*
X190887Y118177D01*
X190742Y118201D01*
X190596Y118229D01*
X190452Y118260D01*
X190309Y118295D01*
X190166Y118334D01*
X190025Y118376D01*
X189884Y118422D01*
X189745Y118471D01*
X189607Y118524D01*
X189470Y118580D01*
X189335Y118640D01*
X189202Y118703D01*
X189131Y118729D01*
X189062Y118759D01*
X188994Y118793D01*
X188928Y118830D01*
X188864Y118870D01*
X188802Y118914D01*
X188743Y118960D01*
X188686Y119010D01*
X188632Y119063D01*
X188580Y119118D01*
X188532Y119176D01*
X188486Y119236D01*
X188444Y119299D01*
X188405Y119364D01*
X188369Y119430D01*
X188337Y119499D01*
X188309Y119569D01*
X188284Y119640D01*
X188263Y119712D01*
X188245Y119786D01*
X188232Y119860D01*
X188222Y119935D01*
X188216Y120010D01*
X188214Y120086D01*
X189202Y121468D02*
X189335Y121531D01*
X189470Y121591D01*
X189607Y121647D01*
X189745Y121700D01*
X189884Y121749D01*
X190025Y121795D01*
X190166Y121837D01*
X190309Y121876D01*
X190452Y121911D01*
X190596Y121942D01*
X190742Y121970D01*
X190887Y121994D01*
X191033Y122015D01*
X191180Y122031D01*
X191327Y122044D01*
X191475Y122054D01*
X191622Y122059D01*
X191770Y122061D01*
X189202Y121469D02*
X189131Y121443D01*
X189062Y121413D01*
X188994Y121379D01*
X188928Y121342D01*
X188864Y121302D01*
X188802Y121258D01*
X188743Y121212D01*
X188686Y121162D01*
X188632Y121109D01*
X188580Y121054D01*
X188532Y120996D01*
X188486Y120936D01*
X188444Y120873D01*
X188405Y120808D01*
X188369Y120742D01*
X188337Y120673D01*
X188309Y120603D01*
X188284Y120532D01*
X188263Y120460D01*
X188245Y120386D01*
X188232Y120312D01*
X188222Y120237D01*
X188216Y120162D01*
X188214Y120086D01*
X189794Y118505D02*
X193746Y121666D01*
X195326Y125290D02*
X188214Y125290D01*
X190980Y125290D02*
X195326Y129241D01*
X192560Y126870D02*
X188214Y129241D01*
M02*
