M48
;GenerationSoftware,Autodesk,EAGLE,8.7.0*%
;CreationDate,2018-04-06T13:31:16Z*%
FMAT,2
ICI,OFF
METRIC,TZ,000.000
T2C0.508
T1C1.016
%
G90
M71
T1
X11430Y2540
X13970Y2540
X16510Y2540
X19050Y2540
X19050Y17780
X16510Y17780
X13970Y17780
X11430Y17780
T2
X20879Y14769
X25806Y14173
X20218Y4750
X18313Y8585
X3785Y3175
X2057Y14961
X8259Y12628
X4216Y16154
X4597Y14326
X11862Y12243
X22530Y13157
X12725Y14580
X23216Y6680
X4851Y6172
X10998Y7671
X20676Y13335
X29108Y14554
X8712Y8153
X7137Y1930
X10160Y13284
X23051Y15607
X21514Y7849
M30